%TF.GenerationSoftware,KiCad,Pcbnew,8.0.3*%
%TF.CreationDate,2024-07-23T15:51:25+08:00*%
%TF.ProjectId,Arduino Uno A4988 Shield,41726475-696e-46f2-9055-6e6f20413439,rev?*%
%TF.SameCoordinates,Original*%
%TF.FileFunction,Legend,Top*%
%TF.FilePolarity,Positive*%
%FSLAX46Y46*%
G04 Gerber Fmt 4.6, Leading zero omitted, Abs format (unit mm)*
G04 Created by KiCad (PCBNEW 8.0.3) date 2024-07-23 15:51:25*
%MOMM*%
%LPD*%
G01*
G04 APERTURE LIST*
%ADD10C,0.150000*%
%ADD11C,0.300000*%
%ADD12C,0.120000*%
%ADD13C,0.350000*%
%ADD14O,1.000000X3.600000*%
%ADD15O,1.000000X3.200000*%
%ADD16O,3.200000X1.000000*%
G04 APERTURE END LIST*
D10*
X117037255Y-75265569D02*
X117132493Y-75265569D01*
X117132493Y-75265569D02*
X117227731Y-75313188D01*
X117227731Y-75313188D02*
X117275350Y-75360807D01*
X117275350Y-75360807D02*
X117322969Y-75456045D01*
X117322969Y-75456045D02*
X117370588Y-75646521D01*
X117370588Y-75646521D02*
X117370588Y-75884616D01*
X117370588Y-75884616D02*
X117322969Y-76075092D01*
X117322969Y-76075092D02*
X117275350Y-76170330D01*
X117275350Y-76170330D02*
X117227731Y-76217950D01*
X117227731Y-76217950D02*
X117132493Y-76265569D01*
X117132493Y-76265569D02*
X117037255Y-76265569D01*
X117037255Y-76265569D02*
X116942017Y-76217950D01*
X116942017Y-76217950D02*
X116894398Y-76170330D01*
X116894398Y-76170330D02*
X116846779Y-76075092D01*
X116846779Y-76075092D02*
X116799160Y-75884616D01*
X116799160Y-75884616D02*
X116799160Y-75646521D01*
X116799160Y-75646521D02*
X116846779Y-75456045D01*
X116846779Y-75456045D02*
X116894398Y-75360807D01*
X116894398Y-75360807D02*
X116942017Y-75313188D01*
X116942017Y-75313188D02*
X117037255Y-75265569D01*
X119932730Y-79635779D02*
X120932730Y-79635779D01*
X120932730Y-79635779D02*
X120218445Y-79969112D01*
X120218445Y-79969112D02*
X120932730Y-80302445D01*
X120932730Y-80302445D02*
X119932730Y-80302445D01*
X119980350Y-80731017D02*
X119932730Y-80873874D01*
X119932730Y-80873874D02*
X119932730Y-81111969D01*
X119932730Y-81111969D02*
X119980350Y-81207207D01*
X119980350Y-81207207D02*
X120027969Y-81254826D01*
X120027969Y-81254826D02*
X120123207Y-81302445D01*
X120123207Y-81302445D02*
X120218445Y-81302445D01*
X120218445Y-81302445D02*
X120313683Y-81254826D01*
X120313683Y-81254826D02*
X120361302Y-81207207D01*
X120361302Y-81207207D02*
X120408921Y-81111969D01*
X120408921Y-81111969D02*
X120456540Y-80921493D01*
X120456540Y-80921493D02*
X120504159Y-80826255D01*
X120504159Y-80826255D02*
X120551778Y-80778636D01*
X120551778Y-80778636D02*
X120647016Y-80731017D01*
X120647016Y-80731017D02*
X120742254Y-80731017D01*
X120742254Y-80731017D02*
X120837492Y-80778636D01*
X120837492Y-80778636D02*
X120885111Y-80826255D01*
X120885111Y-80826255D02*
X120932730Y-80921493D01*
X120932730Y-80921493D02*
X120932730Y-81159588D01*
X120932730Y-81159588D02*
X120885111Y-81302445D01*
X120932730Y-81635779D02*
X120932730Y-82254826D01*
X120932730Y-82254826D02*
X120551778Y-81921493D01*
X120551778Y-81921493D02*
X120551778Y-82064350D01*
X120551778Y-82064350D02*
X120504159Y-82159588D01*
X120504159Y-82159588D02*
X120456540Y-82207207D01*
X120456540Y-82207207D02*
X120361302Y-82254826D01*
X120361302Y-82254826D02*
X120123207Y-82254826D01*
X120123207Y-82254826D02*
X120027969Y-82207207D01*
X120027969Y-82207207D02*
X119980350Y-82159588D01*
X119980350Y-82159588D02*
X119932730Y-82064350D01*
X119932730Y-82064350D02*
X119932730Y-81778636D01*
X119932730Y-81778636D02*
X119980350Y-81683398D01*
X119980350Y-81683398D02*
X120027969Y-81635779D01*
D11*
G36*
X124006905Y-61311863D02*
G01*
X123903717Y-61309132D01*
X123804202Y-61300938D01*
X123689633Y-61283897D01*
X123580354Y-61258990D01*
X123476364Y-61226217D01*
X123409975Y-61199999D01*
X123450031Y-60891765D01*
X123542510Y-60929340D01*
X123639825Y-60963839D01*
X123740260Y-60992973D01*
X123757777Y-60997278D01*
X123861390Y-61017519D01*
X123962666Y-61028419D01*
X124028887Y-61030495D01*
X124133587Y-61024246D01*
X124235802Y-61000249D01*
X124322757Y-60949505D01*
X124379543Y-60861517D01*
X124392320Y-60774528D01*
X124372291Y-60671963D01*
X124312203Y-60589946D01*
X124222816Y-60533216D01*
X123884783Y-60379832D01*
X123789468Y-60331258D01*
X123705753Y-60277860D01*
X123625442Y-60212022D01*
X123573130Y-60156594D01*
X123515427Y-60068476D01*
X123479096Y-59967764D01*
X123464670Y-59866355D01*
X123463709Y-59830285D01*
X123471306Y-59721369D01*
X123494096Y-59623719D01*
X123538747Y-59525915D01*
X123603242Y-59442827D01*
X123622467Y-59424354D01*
X123709875Y-59361095D01*
X123799531Y-59320570D01*
X123901482Y-59293882D01*
X123998654Y-59282021D01*
X124068454Y-59279762D01*
X124176968Y-59284360D01*
X124278295Y-59298155D01*
X124382451Y-59324268D01*
X124421629Y-59337892D01*
X124517848Y-59382428D01*
X124604526Y-59436541D01*
X124691281Y-59503946D01*
X124729864Y-59538171D01*
X124515907Y-59755059D01*
X124437368Y-59694656D01*
X124350173Y-59638419D01*
X124283388Y-59605094D01*
X124185392Y-59573538D01*
X124083748Y-59561302D01*
X124069920Y-59561130D01*
X123969983Y-59571610D01*
X123875537Y-59613284D01*
X123861336Y-59624633D01*
X123804926Y-59709889D01*
X123789111Y-59806808D01*
X123789040Y-59814654D01*
X123807740Y-59912771D01*
X123836912Y-59959734D01*
X123915451Y-60025565D01*
X123980527Y-60060851D01*
X124266291Y-60195184D01*
X124357650Y-60241633D01*
X124449752Y-60298038D01*
X124528726Y-60357985D01*
X124601880Y-60429657D01*
X124662932Y-60518825D01*
X124698545Y-60611638D01*
X124715843Y-60716353D01*
X124717652Y-60766713D01*
X124706546Y-60894482D01*
X124673230Y-61005216D01*
X124617703Y-61098913D01*
X124539965Y-61175575D01*
X124440016Y-61235201D01*
X124317857Y-61277791D01*
X124211661Y-61298553D01*
X124092972Y-61309733D01*
X124006905Y-61311863D01*
G37*
G36*
X125554916Y-61280600D02*
G01*
X125554916Y-59600209D01*
X124983388Y-59600209D01*
X124983388Y-59311025D01*
X126443472Y-59311025D01*
X126443472Y-59600209D01*
X125871943Y-59600209D01*
X125871943Y-61280600D01*
X125554916Y-61280600D01*
G37*
G36*
X126732655Y-61280600D02*
G01*
X126732655Y-59311025D01*
X128055474Y-59311025D01*
X128055474Y-59600209D01*
X127049682Y-59600209D01*
X127049682Y-60147313D01*
X127808301Y-60147313D01*
X127808301Y-60436496D01*
X127049682Y-60436496D01*
X127049682Y-60991416D01*
X128055474Y-60991416D01*
X128055474Y-61280600D01*
X126732655Y-61280600D01*
G37*
G36*
X129074200Y-59315116D02*
G01*
X129177543Y-59327388D01*
X129290000Y-59352913D01*
X129389851Y-59390219D01*
X129477097Y-59439306D01*
X129528259Y-59478576D01*
X129603823Y-59559262D01*
X129660827Y-59655142D01*
X129694916Y-59749418D01*
X129715370Y-59854857D01*
X129722187Y-59971458D01*
X129717465Y-60077088D01*
X129703297Y-60174466D01*
X129673827Y-60280425D01*
X129630757Y-60374501D01*
X129574085Y-60456692D01*
X129528747Y-60504884D01*
X129449887Y-60566639D01*
X129358388Y-60615618D01*
X129254249Y-60651819D01*
X129157811Y-60672227D01*
X129052596Y-60683762D01*
X128962104Y-60686601D01*
X128689040Y-60686601D01*
X128689040Y-61280600D01*
X128372013Y-61280600D01*
X128372013Y-60397417D01*
X128689040Y-60397417D01*
X128962104Y-60397417D01*
X129065258Y-60390754D01*
X129174860Y-60363685D01*
X129262971Y-60315793D01*
X129340337Y-60230836D01*
X129381169Y-60137134D01*
X129400510Y-60022610D01*
X129402229Y-59970969D01*
X129391484Y-59864158D01*
X129350222Y-59759882D01*
X129278014Y-59681675D01*
X129174860Y-59629536D01*
X129065258Y-59606002D01*
X128962104Y-59600209D01*
X128689040Y-59600209D01*
X128689040Y-60397417D01*
X128372013Y-60397417D01*
X128372013Y-59311025D01*
X128962104Y-59311025D01*
X129074200Y-59315116D01*
G37*
G36*
X130713558Y-59315116D02*
G01*
X130816901Y-59327388D01*
X130929358Y-59352913D01*
X131029209Y-59390219D01*
X131116455Y-59439306D01*
X131167617Y-59478576D01*
X131243181Y-59559262D01*
X131300185Y-59655142D01*
X131334274Y-59749418D01*
X131354728Y-59854857D01*
X131361545Y-59971458D01*
X131356823Y-60077088D01*
X131342655Y-60174466D01*
X131313185Y-60280425D01*
X131270115Y-60374501D01*
X131213443Y-60456692D01*
X131168105Y-60504884D01*
X131089245Y-60566639D01*
X130997746Y-60615618D01*
X130893607Y-60651819D01*
X130797169Y-60672227D01*
X130691954Y-60683762D01*
X130601462Y-60686601D01*
X130328398Y-60686601D01*
X130328398Y-61280600D01*
X130011371Y-61280600D01*
X130011371Y-60397417D01*
X130328398Y-60397417D01*
X130601462Y-60397417D01*
X130704616Y-60390754D01*
X130814218Y-60363685D01*
X130902329Y-60315793D01*
X130979695Y-60230836D01*
X131020527Y-60137134D01*
X131039868Y-60022610D01*
X131041587Y-59970969D01*
X131030842Y-59864158D01*
X130989580Y-59759882D01*
X130917372Y-59681675D01*
X130814218Y-59629536D01*
X130704616Y-59606002D01*
X130601462Y-59600209D01*
X130328398Y-59600209D01*
X130328398Y-60397417D01*
X130011371Y-60397417D01*
X130011371Y-59311025D01*
X130601462Y-59311025D01*
X130713558Y-59315116D01*
G37*
G36*
X131650729Y-61280600D02*
G01*
X131650729Y-59311025D01*
X132973548Y-59311025D01*
X132973548Y-59600209D01*
X131967756Y-59600209D01*
X131967756Y-60147313D01*
X132726375Y-60147313D01*
X132726375Y-60436496D01*
X131967756Y-60436496D01*
X131967756Y-60991416D01*
X132973548Y-60991416D01*
X132973548Y-61280600D01*
X131650729Y-61280600D01*
G37*
G36*
X134059958Y-59316555D02*
G01*
X134161492Y-59333144D01*
X134267490Y-59366477D01*
X134360071Y-59414863D01*
X134428747Y-59468318D01*
X134495175Y-59543397D01*
X134545287Y-59631006D01*
X134579084Y-59731144D01*
X134596565Y-59843810D01*
X134599229Y-59913817D01*
X134593733Y-60016154D01*
X134574413Y-60121358D01*
X134541183Y-60216052D01*
X134511301Y-60273342D01*
X134450546Y-60356728D01*
X134377578Y-60423704D01*
X134292399Y-60474270D01*
X134273897Y-60482414D01*
X134680317Y-61280600D01*
X134315418Y-61280600D01*
X133962243Y-60530285D01*
X133948566Y-60530285D01*
X133579759Y-60530285D01*
X133579759Y-61280600D01*
X133262732Y-61280600D01*
X133262732Y-60241102D01*
X133579759Y-60241102D01*
X133948566Y-60241102D01*
X134048335Y-60231636D01*
X134144662Y-60196039D01*
X134192320Y-60160990D01*
X134251759Y-60077936D01*
X134277148Y-59978378D01*
X134279271Y-59934333D01*
X134268996Y-59832119D01*
X134230361Y-59734390D01*
X134192320Y-59686671D01*
X134110380Y-59630690D01*
X134013992Y-59604346D01*
X133948566Y-59600209D01*
X133579759Y-59600209D01*
X133579759Y-60241102D01*
X133262732Y-60241102D01*
X133262732Y-59311025D01*
X133948566Y-59311025D01*
X134059958Y-59316555D01*
G37*
G36*
X137139469Y-59314979D02*
G01*
X137242394Y-59326840D01*
X137338221Y-59346608D01*
X137468653Y-59391087D01*
X137583113Y-59453358D01*
X137681602Y-59533420D01*
X137764120Y-59631273D01*
X137830666Y-59746919D01*
X137881242Y-59880355D01*
X137906086Y-59979197D01*
X137923832Y-60085947D01*
X137934479Y-60200603D01*
X137938028Y-60323168D01*
X137934479Y-60439107D01*
X137923832Y-60547566D01*
X137906086Y-60648545D01*
X137866158Y-60785989D01*
X137810259Y-60906603D01*
X137738388Y-61010387D01*
X137650547Y-61097341D01*
X137546734Y-61167465D01*
X137426950Y-61220760D01*
X137291195Y-61257225D01*
X137191819Y-61272185D01*
X137085344Y-61279665D01*
X137029445Y-61280600D01*
X136541448Y-61280600D01*
X136541448Y-60991416D01*
X136858475Y-60991416D01*
X137029445Y-60991416D01*
X137134726Y-60985543D01*
X137258992Y-60959439D01*
X137364849Y-60912453D01*
X137452295Y-60844584D01*
X137521332Y-60755832D01*
X137571959Y-60646198D01*
X137597848Y-60550268D01*
X137613381Y-60442591D01*
X137618559Y-60323168D01*
X137613381Y-60193967D01*
X137597848Y-60077475D01*
X137571959Y-59973690D01*
X137535715Y-59882615D01*
X137471280Y-59780948D01*
X137388436Y-59701875D01*
X137287182Y-59645394D01*
X137167519Y-59611505D01*
X137065689Y-59600915D01*
X137029445Y-59600209D01*
X136858475Y-59600209D01*
X136858475Y-60991416D01*
X136541448Y-60991416D01*
X136541448Y-59311025D01*
X137029445Y-59311025D01*
X137139469Y-59314979D01*
G37*
G36*
X138745007Y-60631890D02*
G01*
X138745007Y-60991416D01*
X139102090Y-60991416D01*
X139102090Y-61280600D01*
X138098252Y-61280600D01*
X138098252Y-60991416D01*
X138422606Y-60991416D01*
X138422606Y-60069155D01*
X138153451Y-60069155D01*
X138153451Y-59779971D01*
X138688342Y-59779971D01*
X138737679Y-60153663D01*
X138742076Y-60153663D01*
X138758806Y-60037001D01*
X138793424Y-59940113D01*
X138858580Y-59849947D01*
X138949495Y-59788255D01*
X139044936Y-59758595D01*
X139158266Y-59748708D01*
X139266801Y-59757196D01*
X139369854Y-59787034D01*
X139460701Y-59845386D01*
X139496786Y-59884507D01*
X139547791Y-59974414D01*
X139579115Y-60077492D01*
X139595705Y-60185567D01*
X139601887Y-60291487D01*
X139602299Y-60329518D01*
X139282341Y-60329518D01*
X139277146Y-60225115D01*
X139255508Y-60128304D01*
X139238377Y-60095045D01*
X139158175Y-60037753D01*
X139097693Y-60030076D01*
X138996066Y-60045198D01*
X138904110Y-60096764D01*
X138838546Y-60175399D01*
X138832934Y-60184926D01*
X138790430Y-60282690D01*
X138764327Y-60387951D01*
X138750502Y-60494229D01*
X138745350Y-60595855D01*
X138745007Y-60631890D01*
G37*
G36*
X139847519Y-61280600D02*
G01*
X139847519Y-60991416D01*
X140402439Y-60991416D01*
X140402439Y-60069155D01*
X139930073Y-60069155D01*
X139930073Y-59779971D01*
X140725328Y-59779971D01*
X140725328Y-60991416D01*
X141172781Y-60991416D01*
X141172781Y-61280600D01*
X139847519Y-61280600D01*
G37*
G36*
X140554358Y-59592393D02*
G01*
X140456171Y-59569833D01*
X140399508Y-59528401D01*
X140345669Y-59442704D01*
X140335028Y-59373551D01*
X140357759Y-59274893D01*
X140399508Y-59218701D01*
X140485205Y-59165271D01*
X140554358Y-59154710D01*
X140653016Y-59177269D01*
X140709208Y-59218701D01*
X140762638Y-59303927D01*
X140773199Y-59373551D01*
X140750640Y-59471738D01*
X140709208Y-59528401D01*
X140623982Y-59581832D01*
X140554358Y-59592393D01*
G37*
G36*
X141902090Y-61280600D02*
G01*
X141370617Y-59779971D01*
X141714511Y-59779971D01*
X142105788Y-60988974D01*
X142108231Y-60988974D01*
X142499508Y-59779971D01*
X142843402Y-59779971D01*
X142311929Y-61280600D01*
X141902090Y-61280600D01*
G37*
G36*
X143860400Y-59755320D02*
G01*
X143959233Y-59775155D01*
X144062426Y-59815009D01*
X144152576Y-59872862D01*
X144219466Y-59936775D01*
X144284181Y-60026859D01*
X144327000Y-60116835D01*
X144358141Y-60218593D01*
X144377604Y-60332132D01*
X144384902Y-60435746D01*
X144385551Y-60479483D01*
X144383231Y-60582798D01*
X144376270Y-60686601D01*
X143397833Y-60686601D01*
X143432099Y-60785997D01*
X143489222Y-60869924D01*
X143560987Y-60932798D01*
X143650498Y-60980196D01*
X143745252Y-61007845D01*
X143853453Y-61021275D01*
X143905858Y-61022679D01*
X144005652Y-61019433D01*
X144082201Y-61012421D01*
X144180482Y-60998489D01*
X144276130Y-60981158D01*
X144316186Y-61270341D01*
X144212894Y-61288270D01*
X144112623Y-61301027D01*
X144063639Y-61305024D01*
X143961912Y-61310153D01*
X143872641Y-61311863D01*
X143758510Y-61306901D01*
X143652727Y-61292018D01*
X143555292Y-61267212D01*
X143449390Y-61224347D01*
X143355509Y-61167194D01*
X143286458Y-61108653D01*
X143216071Y-61026301D01*
X143160246Y-60931653D01*
X143118984Y-60824709D01*
X143095724Y-60726196D01*
X143082577Y-60619144D01*
X143079340Y-60527355D01*
X143083158Y-60428680D01*
X143384155Y-60428680D01*
X144090506Y-60428680D01*
X144081776Y-60322435D01*
X144052007Y-60223196D01*
X144001113Y-60142428D01*
X143924749Y-60078726D01*
X143829013Y-60044425D01*
X143754428Y-60037892D01*
X143650723Y-60050360D01*
X143555365Y-60092400D01*
X143496019Y-60143405D01*
X143439604Y-60224719D01*
X143402006Y-60323580D01*
X143384155Y-60428680D01*
X143083158Y-60428680D01*
X143083634Y-60416379D01*
X143096514Y-60313346D01*
X143123304Y-60200191D01*
X143162459Y-60098474D01*
X143213979Y-60008193D01*
X143255195Y-59954361D01*
X143326390Y-59884471D01*
X143407717Y-59829041D01*
X143499177Y-59788072D01*
X143600768Y-59761562D01*
X143712492Y-59749512D01*
X143751985Y-59748708D01*
X143860400Y-59755320D01*
G37*
G36*
X145302439Y-60631890D02*
G01*
X145302439Y-60991416D01*
X145659522Y-60991416D01*
X145659522Y-61280600D01*
X144655684Y-61280600D01*
X144655684Y-60991416D01*
X144980038Y-60991416D01*
X144980038Y-60069155D01*
X144710883Y-60069155D01*
X144710883Y-59779971D01*
X145245774Y-59779971D01*
X145295111Y-60153663D01*
X145299508Y-60153663D01*
X145316237Y-60037001D01*
X145350856Y-59940113D01*
X145416012Y-59849947D01*
X145506927Y-59788255D01*
X145602368Y-59758595D01*
X145715698Y-59748708D01*
X145824233Y-59757196D01*
X145927286Y-59787034D01*
X146018133Y-59845386D01*
X146054218Y-59884507D01*
X146105223Y-59974414D01*
X146136547Y-60077492D01*
X146153137Y-60185567D01*
X146159319Y-60291487D01*
X146159731Y-60329518D01*
X145839773Y-60329518D01*
X145834578Y-60225115D01*
X145812940Y-60128304D01*
X145795809Y-60095045D01*
X145715607Y-60037753D01*
X145655125Y-60030076D01*
X145553497Y-60045198D01*
X145461542Y-60096764D01*
X145395978Y-60175399D01*
X145390366Y-60184926D01*
X145347862Y-60282690D01*
X145321759Y-60387951D01*
X145307934Y-60494229D01*
X145302782Y-60595855D01*
X145302439Y-60631890D01*
G37*
G36*
X148597275Y-61311863D02*
G01*
X148494087Y-61309132D01*
X148394572Y-61300938D01*
X148280003Y-61283897D01*
X148170724Y-61258990D01*
X148066733Y-61226217D01*
X148000345Y-61199999D01*
X148040401Y-60891765D01*
X148132879Y-60929340D01*
X148230195Y-60963839D01*
X148330630Y-60992973D01*
X148348147Y-60997278D01*
X148451759Y-61017519D01*
X148553036Y-61028419D01*
X148619257Y-61030495D01*
X148723957Y-61024246D01*
X148826172Y-61000249D01*
X148913127Y-60949505D01*
X148969913Y-60861517D01*
X148982690Y-60774528D01*
X148962661Y-60671963D01*
X148902573Y-60589946D01*
X148813185Y-60533216D01*
X148475153Y-60379832D01*
X148379838Y-60331258D01*
X148296123Y-60277860D01*
X148215812Y-60212022D01*
X148163499Y-60156594D01*
X148105797Y-60068476D01*
X148069466Y-59967764D01*
X148055040Y-59866355D01*
X148054079Y-59830285D01*
X148061675Y-59721369D01*
X148084466Y-59623719D01*
X148129117Y-59525915D01*
X148193612Y-59442827D01*
X148212836Y-59424354D01*
X148300245Y-59361095D01*
X148389901Y-59320570D01*
X148491851Y-59293882D01*
X148589024Y-59282021D01*
X148658824Y-59279762D01*
X148767338Y-59284360D01*
X148868665Y-59298155D01*
X148972821Y-59324268D01*
X149011999Y-59337892D01*
X149108217Y-59382428D01*
X149194895Y-59436541D01*
X149281651Y-59503946D01*
X149320234Y-59538171D01*
X149106277Y-59755059D01*
X149027737Y-59694656D01*
X148940543Y-59638419D01*
X148873758Y-59605094D01*
X148775762Y-59573538D01*
X148674118Y-59561302D01*
X148660289Y-59561130D01*
X148560353Y-59571610D01*
X148465907Y-59613284D01*
X148451706Y-59624633D01*
X148395295Y-59709889D01*
X148379481Y-59806808D01*
X148379410Y-59814654D01*
X148398110Y-59912771D01*
X148427282Y-59959734D01*
X148505821Y-60025565D01*
X148570896Y-60060851D01*
X148856661Y-60195184D01*
X148948019Y-60241633D01*
X149040122Y-60298038D01*
X149119096Y-60357985D01*
X149192250Y-60429657D01*
X149253301Y-60518825D01*
X149288915Y-60611638D01*
X149306212Y-60716353D01*
X149308021Y-60766713D01*
X149296916Y-60894482D01*
X149263600Y-61005216D01*
X149208073Y-61098913D01*
X149130335Y-61175575D01*
X149030386Y-61235201D01*
X148908226Y-61277791D01*
X148802031Y-61298553D01*
X148683342Y-61309733D01*
X148597275Y-61311863D01*
G37*
G36*
X150590296Y-61280600D02*
G01*
X150590296Y-60306071D01*
X150579655Y-60207405D01*
X150537340Y-60114745D01*
X150525816Y-60100907D01*
X150442936Y-60045639D01*
X150345077Y-60030076D01*
X150233685Y-60044382D01*
X150145339Y-60087298D01*
X150071398Y-60173527D01*
X150032987Y-60278433D01*
X150018583Y-60387711D01*
X150017303Y-60436985D01*
X150017303Y-61280600D01*
X149694902Y-61280600D01*
X149694902Y-59185973D01*
X150017303Y-59185973D01*
X150017303Y-60040334D01*
X150014860Y-60040334D01*
X150036481Y-59941227D01*
X150092745Y-59851518D01*
X150182434Y-59789718D01*
X150285914Y-59758961D01*
X150390908Y-59748993D01*
X150413953Y-59748708D01*
X150512722Y-59755721D01*
X150613121Y-59780908D01*
X150710159Y-59831140D01*
X150782271Y-59895254D01*
X150839546Y-59975885D01*
X150880457Y-60071231D01*
X150902830Y-60166730D01*
X150912674Y-60273497D01*
X150913185Y-60306071D01*
X150913185Y-61280600D01*
X150590296Y-61280600D01*
G37*
G36*
X151323025Y-61280600D02*
G01*
X151323025Y-60991416D01*
X151877945Y-60991416D01*
X151877945Y-60069155D01*
X151405579Y-60069155D01*
X151405579Y-59779971D01*
X152200834Y-59779971D01*
X152200834Y-60991416D01*
X152648287Y-60991416D01*
X152648287Y-61280600D01*
X151323025Y-61280600D01*
G37*
G36*
X152029864Y-59592393D02*
G01*
X151931677Y-59569833D01*
X151875014Y-59528401D01*
X151821175Y-59442704D01*
X151810534Y-59373551D01*
X151833265Y-59274893D01*
X151875014Y-59218701D01*
X151960711Y-59165271D01*
X152029864Y-59154710D01*
X152128522Y-59177269D01*
X152184714Y-59218701D01*
X152238144Y-59303927D01*
X152248705Y-59373551D01*
X152226146Y-59471738D01*
X152184714Y-59528401D01*
X152099488Y-59581832D01*
X152029864Y-59592393D01*
G37*
G36*
X153696548Y-59755320D02*
G01*
X153795381Y-59775155D01*
X153898574Y-59815009D01*
X153988724Y-59872862D01*
X154055614Y-59936775D01*
X154120329Y-60026859D01*
X154163148Y-60116835D01*
X154194288Y-60218593D01*
X154213752Y-60332132D01*
X154221050Y-60435746D01*
X154221699Y-60479483D01*
X154219379Y-60582798D01*
X154212418Y-60686601D01*
X153233981Y-60686601D01*
X153268246Y-60785997D01*
X153325370Y-60869924D01*
X153397135Y-60932798D01*
X153486646Y-60980196D01*
X153581400Y-61007845D01*
X153689601Y-61021275D01*
X153742006Y-61022679D01*
X153841800Y-61019433D01*
X153918349Y-61012421D01*
X154016630Y-60998489D01*
X154112278Y-60981158D01*
X154152334Y-61270341D01*
X154049042Y-61288270D01*
X153948771Y-61301027D01*
X153899787Y-61305024D01*
X153798060Y-61310153D01*
X153708789Y-61311863D01*
X153594658Y-61306901D01*
X153488875Y-61292018D01*
X153391440Y-61267212D01*
X153285538Y-61224347D01*
X153191657Y-61167194D01*
X153122606Y-61108653D01*
X153052218Y-61026301D01*
X152996394Y-60931653D01*
X152955132Y-60824709D01*
X152931872Y-60726196D01*
X152918724Y-60619144D01*
X152915488Y-60527355D01*
X152919306Y-60428680D01*
X153220303Y-60428680D01*
X153926654Y-60428680D01*
X153917924Y-60322435D01*
X153888155Y-60223196D01*
X153837261Y-60142428D01*
X153760897Y-60078726D01*
X153665161Y-60044425D01*
X153590575Y-60037892D01*
X153486871Y-60050360D01*
X153391513Y-60092400D01*
X153332167Y-60143405D01*
X153275752Y-60224719D01*
X153238154Y-60323580D01*
X153220303Y-60428680D01*
X152919306Y-60428680D01*
X152919782Y-60416379D01*
X152932662Y-60313346D01*
X152959452Y-60200191D01*
X152998607Y-60098474D01*
X153050127Y-60008193D01*
X153091343Y-59954361D01*
X153162538Y-59884471D01*
X153243865Y-59829041D01*
X153335325Y-59788072D01*
X153436916Y-59761562D01*
X153548640Y-59749512D01*
X153588133Y-59748708D01*
X153696548Y-59755320D01*
G37*
G36*
X155439005Y-61311863D02*
G01*
X155331969Y-61305037D01*
X155226471Y-61280521D01*
X155129244Y-61231629D01*
X155061894Y-61169225D01*
X155005459Y-61075656D01*
X154970799Y-60970555D01*
X154952443Y-60861662D01*
X154945602Y-60755748D01*
X154945146Y-60717864D01*
X154945146Y-59475156D01*
X154516744Y-59475156D01*
X154516744Y-59185973D01*
X155267547Y-59185973D01*
X155267547Y-60707117D01*
X155272676Y-60809455D01*
X155288063Y-60889811D01*
X155341003Y-60972518D01*
X155368175Y-60990927D01*
X155466712Y-61018214D01*
X155548915Y-61022679D01*
X155652870Y-61013327D01*
X155751159Y-60993406D01*
X155853241Y-60966015D01*
X155890366Y-61250802D01*
X155791992Y-61274566D01*
X155694165Y-61292945D01*
X155661266Y-61297696D01*
X155561096Y-61307865D01*
X155461212Y-61311738D01*
X155439005Y-61311863D01*
G37*
G36*
X157470617Y-61279623D02*
G01*
X157179480Y-61297208D01*
X157150659Y-61016817D01*
X157150171Y-61016817D01*
X157123976Y-61114571D01*
X157066823Y-61196685D01*
X157030003Y-61229309D01*
X156940496Y-61279615D01*
X156842154Y-61305332D01*
X156750101Y-61311863D01*
X156644989Y-61304976D01*
X156534947Y-61279534D01*
X156438462Y-61235346D01*
X156355535Y-61172411D01*
X156304602Y-61115980D01*
X156245597Y-61021679D01*
X156206557Y-60927157D01*
X156178163Y-60819996D01*
X156162636Y-60721039D01*
X156154502Y-60613305D01*
X156153171Y-60544452D01*
X156473130Y-60544452D01*
X156478465Y-60658368D01*
X156494470Y-60757095D01*
X156529482Y-60859146D01*
X156593505Y-60950279D01*
X156681535Y-61007237D01*
X156793574Y-61030020D01*
X156814581Y-61030495D01*
X156927799Y-61014678D01*
X157017593Y-60967228D01*
X157083962Y-60888145D01*
X157126907Y-60777429D01*
X157144800Y-60661001D01*
X157147728Y-60580600D01*
X157147728Y-60479971D01*
X157142523Y-60374527D01*
X157121376Y-60262493D01*
X157074527Y-60157049D01*
X157004254Y-60083238D01*
X156910556Y-60041060D01*
X156814581Y-60030076D01*
X156716214Y-60042634D01*
X156620180Y-60090857D01*
X156548156Y-60175247D01*
X156506474Y-60273199D01*
X156485134Y-60369644D01*
X156474463Y-60482164D01*
X156473130Y-60544452D01*
X156153171Y-60544452D01*
X156156868Y-60427203D01*
X156167960Y-60319090D01*
X156186445Y-60220112D01*
X156218387Y-60113397D01*
X156260977Y-60019837D01*
X156304602Y-59951918D01*
X156377845Y-59872738D01*
X156464646Y-59813005D01*
X156565004Y-59772720D01*
X156661816Y-59753670D01*
X156750101Y-59748708D01*
X156849420Y-59756579D01*
X156944786Y-59783420D01*
X157025607Y-59829309D01*
X157097693Y-59903019D01*
X157140111Y-59993176D01*
X157147728Y-60030706D01*
X157147728Y-59185973D01*
X157470617Y-59185973D01*
X157470617Y-61279623D01*
G37*
G36*
X159935028Y-61280600D02*
G01*
X159403555Y-59779971D01*
X159747449Y-59779971D01*
X160138726Y-60988974D01*
X160141169Y-60988974D01*
X160532446Y-59779971D01*
X160876340Y-59779971D01*
X160344867Y-61280600D01*
X159935028Y-61280600D01*
G37*
G36*
X161172850Y-61280600D02*
G01*
X161172850Y-60991416D01*
X161661825Y-60991416D01*
X161661825Y-59630006D01*
X161200206Y-59788764D01*
X161200206Y-59479553D01*
X161674525Y-59311025D01*
X161978852Y-59311025D01*
X161978852Y-60991416D01*
X162416047Y-60991416D01*
X162416047Y-61280600D01*
X161172850Y-61280600D01*
G37*
D10*
X125419130Y-79635779D02*
X126419130Y-79635779D01*
X126419130Y-79635779D02*
X125704845Y-79969112D01*
X125704845Y-79969112D02*
X126419130Y-80302445D01*
X126419130Y-80302445D02*
X125419130Y-80302445D01*
X125466750Y-80731017D02*
X125419130Y-80873874D01*
X125419130Y-80873874D02*
X125419130Y-81111969D01*
X125419130Y-81111969D02*
X125466750Y-81207207D01*
X125466750Y-81207207D02*
X125514369Y-81254826D01*
X125514369Y-81254826D02*
X125609607Y-81302445D01*
X125609607Y-81302445D02*
X125704845Y-81302445D01*
X125704845Y-81302445D02*
X125800083Y-81254826D01*
X125800083Y-81254826D02*
X125847702Y-81207207D01*
X125847702Y-81207207D02*
X125895321Y-81111969D01*
X125895321Y-81111969D02*
X125942940Y-80921493D01*
X125942940Y-80921493D02*
X125990559Y-80826255D01*
X125990559Y-80826255D02*
X126038178Y-80778636D01*
X126038178Y-80778636D02*
X126133416Y-80731017D01*
X126133416Y-80731017D02*
X126228654Y-80731017D01*
X126228654Y-80731017D02*
X126323892Y-80778636D01*
X126323892Y-80778636D02*
X126371511Y-80826255D01*
X126371511Y-80826255D02*
X126419130Y-80921493D01*
X126419130Y-80921493D02*
X126419130Y-81159588D01*
X126419130Y-81159588D02*
X126371511Y-81302445D01*
X125419130Y-82254826D02*
X125419130Y-81683398D01*
X125419130Y-81969112D02*
X126419130Y-81969112D01*
X126419130Y-81969112D02*
X126276273Y-81873874D01*
X126276273Y-81873874D02*
X126181035Y-81778636D01*
X126181035Y-81778636D02*
X126133416Y-81683398D01*
X152104677Y-77406580D02*
X151771344Y-76406580D01*
X151771344Y-76406580D02*
X151438011Y-77406580D01*
X151104677Y-76406580D02*
X151104677Y-77073247D01*
X151104677Y-77406580D02*
X151152296Y-77358961D01*
X151152296Y-77358961D02*
X151104677Y-77311342D01*
X151104677Y-77311342D02*
X151057058Y-77358961D01*
X151057058Y-77358961D02*
X151104677Y-77406580D01*
X151104677Y-77406580D02*
X151104677Y-77311342D01*
X150628487Y-77073247D02*
X150628487Y-76406580D01*
X150628487Y-76978009D02*
X150580868Y-77025628D01*
X150580868Y-77025628D02*
X150485630Y-77073247D01*
X150485630Y-77073247D02*
X150342773Y-77073247D01*
X150342773Y-77073247D02*
X150247535Y-77025628D01*
X150247535Y-77025628D02*
X150199916Y-76930390D01*
X150199916Y-76930390D02*
X150199916Y-76406580D01*
X122675930Y-79635779D02*
X123675930Y-79635779D01*
X123675930Y-79635779D02*
X122961645Y-79969112D01*
X122961645Y-79969112D02*
X123675930Y-80302445D01*
X123675930Y-80302445D02*
X122675930Y-80302445D01*
X122723550Y-80731017D02*
X122675930Y-80873874D01*
X122675930Y-80873874D02*
X122675930Y-81111969D01*
X122675930Y-81111969D02*
X122723550Y-81207207D01*
X122723550Y-81207207D02*
X122771169Y-81254826D01*
X122771169Y-81254826D02*
X122866407Y-81302445D01*
X122866407Y-81302445D02*
X122961645Y-81302445D01*
X122961645Y-81302445D02*
X123056883Y-81254826D01*
X123056883Y-81254826D02*
X123104502Y-81207207D01*
X123104502Y-81207207D02*
X123152121Y-81111969D01*
X123152121Y-81111969D02*
X123199740Y-80921493D01*
X123199740Y-80921493D02*
X123247359Y-80826255D01*
X123247359Y-80826255D02*
X123294978Y-80778636D01*
X123294978Y-80778636D02*
X123390216Y-80731017D01*
X123390216Y-80731017D02*
X123485454Y-80731017D01*
X123485454Y-80731017D02*
X123580692Y-80778636D01*
X123580692Y-80778636D02*
X123628311Y-80826255D01*
X123628311Y-80826255D02*
X123675930Y-80921493D01*
X123675930Y-80921493D02*
X123675930Y-81159588D01*
X123675930Y-81159588D02*
X123628311Y-81302445D01*
X123580692Y-81683398D02*
X123628311Y-81731017D01*
X123628311Y-81731017D02*
X123675930Y-81826255D01*
X123675930Y-81826255D02*
X123675930Y-82064350D01*
X123675930Y-82064350D02*
X123628311Y-82159588D01*
X123628311Y-82159588D02*
X123580692Y-82207207D01*
X123580692Y-82207207D02*
X123485454Y-82254826D01*
X123485454Y-82254826D02*
X123390216Y-82254826D01*
X123390216Y-82254826D02*
X123247359Y-82207207D01*
X123247359Y-82207207D02*
X122675930Y-81635779D01*
X122675930Y-81635779D02*
X122675930Y-82254826D01*
X117370588Y-70677569D02*
X116799160Y-70677569D01*
X117084874Y-70677569D02*
X117084874Y-69677569D01*
X117084874Y-69677569D02*
X116989636Y-69820426D01*
X116989636Y-69820426D02*
X116894398Y-69915664D01*
X116894398Y-69915664D02*
X116799160Y-69963283D01*
X138198026Y-88490619D02*
X137626598Y-88490619D01*
X137912312Y-88490619D02*
X137912312Y-87490619D01*
X137912312Y-87490619D02*
X137817074Y-87633476D01*
X137817074Y-87633476D02*
X137721836Y-87728714D01*
X137721836Y-87728714D02*
X137626598Y-87776333D01*
X138959931Y-87966809D02*
X139102788Y-88014428D01*
X139102788Y-88014428D02*
X139150407Y-88062047D01*
X139150407Y-88062047D02*
X139198026Y-88157285D01*
X139198026Y-88157285D02*
X139198026Y-88300142D01*
X139198026Y-88300142D02*
X139150407Y-88395380D01*
X139150407Y-88395380D02*
X139102788Y-88443000D01*
X139102788Y-88443000D02*
X139007550Y-88490619D01*
X139007550Y-88490619D02*
X138626598Y-88490619D01*
X138626598Y-88490619D02*
X138626598Y-87490619D01*
X138626598Y-87490619D02*
X138959931Y-87490619D01*
X138959931Y-87490619D02*
X139055169Y-87538238D01*
X139055169Y-87538238D02*
X139102788Y-87585857D01*
X139102788Y-87585857D02*
X139150407Y-87681095D01*
X139150407Y-87681095D02*
X139150407Y-87776333D01*
X139150407Y-87776333D02*
X139102788Y-87871571D01*
X139102788Y-87871571D02*
X139055169Y-87919190D01*
X139055169Y-87919190D02*
X138959931Y-87966809D01*
X138959931Y-87966809D02*
X138626598Y-87966809D01*
X140912312Y-88490619D02*
X140340884Y-88490619D01*
X140626598Y-88490619D02*
X140626598Y-87490619D01*
X140626598Y-87490619D02*
X140531360Y-87633476D01*
X140531360Y-87633476D02*
X140436122Y-87728714D01*
X140436122Y-87728714D02*
X140340884Y-87776333D01*
X141293265Y-88204904D02*
X141769455Y-88204904D01*
X141198027Y-88490619D02*
X141531360Y-87490619D01*
X141531360Y-87490619D02*
X141864693Y-88490619D01*
X142912313Y-87585857D02*
X142959932Y-87538238D01*
X142959932Y-87538238D02*
X143055170Y-87490619D01*
X143055170Y-87490619D02*
X143293265Y-87490619D01*
X143293265Y-87490619D02*
X143388503Y-87538238D01*
X143388503Y-87538238D02*
X143436122Y-87585857D01*
X143436122Y-87585857D02*
X143483741Y-87681095D01*
X143483741Y-87681095D02*
X143483741Y-87776333D01*
X143483741Y-87776333D02*
X143436122Y-87919190D01*
X143436122Y-87919190D02*
X142864694Y-88490619D01*
X142864694Y-88490619D02*
X143483741Y-88490619D01*
X143864694Y-88204904D02*
X144340884Y-88204904D01*
X143769456Y-88490619D02*
X144102789Y-87490619D01*
X144102789Y-87490619D02*
X144436122Y-88490619D01*
X145483742Y-87585857D02*
X145531361Y-87538238D01*
X145531361Y-87538238D02*
X145626599Y-87490619D01*
X145626599Y-87490619D02*
X145864694Y-87490619D01*
X145864694Y-87490619D02*
X145959932Y-87538238D01*
X145959932Y-87538238D02*
X146007551Y-87585857D01*
X146007551Y-87585857D02*
X146055170Y-87681095D01*
X146055170Y-87681095D02*
X146055170Y-87776333D01*
X146055170Y-87776333D02*
X146007551Y-87919190D01*
X146007551Y-87919190D02*
X145436123Y-88490619D01*
X145436123Y-88490619D02*
X146055170Y-88490619D01*
X146817075Y-87966809D02*
X146959932Y-88014428D01*
X146959932Y-88014428D02*
X147007551Y-88062047D01*
X147007551Y-88062047D02*
X147055170Y-88157285D01*
X147055170Y-88157285D02*
X147055170Y-88300142D01*
X147055170Y-88300142D02*
X147007551Y-88395380D01*
X147007551Y-88395380D02*
X146959932Y-88443000D01*
X146959932Y-88443000D02*
X146864694Y-88490619D01*
X146864694Y-88490619D02*
X146483742Y-88490619D01*
X146483742Y-88490619D02*
X146483742Y-87490619D01*
X146483742Y-87490619D02*
X146817075Y-87490619D01*
X146817075Y-87490619D02*
X146912313Y-87538238D01*
X146912313Y-87538238D02*
X146959932Y-87585857D01*
X146959932Y-87585857D02*
X147007551Y-87681095D01*
X147007551Y-87681095D02*
X147007551Y-87776333D01*
X147007551Y-87776333D02*
X146959932Y-87871571D01*
X146959932Y-87871571D02*
X146912313Y-87919190D01*
X146912313Y-87919190D02*
X146817075Y-87966809D01*
X146817075Y-87966809D02*
X146483742Y-87966809D01*
X134521611Y-77536761D02*
X134616849Y-77584380D01*
X134616849Y-77584380D02*
X134759706Y-77584380D01*
X134759706Y-77584380D02*
X134902563Y-77536761D01*
X134902563Y-77536761D02*
X134997801Y-77441523D01*
X134997801Y-77441523D02*
X135045420Y-77346285D01*
X135045420Y-77346285D02*
X135093039Y-77155809D01*
X135093039Y-77155809D02*
X135093039Y-77012952D01*
X135093039Y-77012952D02*
X135045420Y-76822476D01*
X135045420Y-76822476D02*
X134997801Y-76727238D01*
X134997801Y-76727238D02*
X134902563Y-76632000D01*
X134902563Y-76632000D02*
X134759706Y-76584380D01*
X134759706Y-76584380D02*
X134664468Y-76584380D01*
X134664468Y-76584380D02*
X134521611Y-76632000D01*
X134521611Y-76632000D02*
X134473992Y-76679619D01*
X134473992Y-76679619D02*
X134473992Y-77012952D01*
X134473992Y-77012952D02*
X134664468Y-77012952D01*
X134045420Y-77251047D02*
X134045420Y-76584380D01*
X134045420Y-77155809D02*
X133997801Y-77203428D01*
X133997801Y-77203428D02*
X133902563Y-77251047D01*
X133902563Y-77251047D02*
X133759706Y-77251047D01*
X133759706Y-77251047D02*
X133664468Y-77203428D01*
X133664468Y-77203428D02*
X133616849Y-77108190D01*
X133616849Y-77108190D02*
X133616849Y-76584380D01*
X132712087Y-76584380D02*
X132712087Y-77584380D01*
X132712087Y-76632000D02*
X132807325Y-76584380D01*
X132807325Y-76584380D02*
X132997801Y-76584380D01*
X132997801Y-76584380D02*
X133093039Y-76632000D01*
X133093039Y-76632000D02*
X133140658Y-76679619D01*
X133140658Y-76679619D02*
X133188277Y-76774857D01*
X133188277Y-76774857D02*
X133188277Y-77060571D01*
X133188277Y-77060571D02*
X133140658Y-77155809D01*
X133140658Y-77155809D02*
X133093039Y-77203428D01*
X133093039Y-77203428D02*
X132997801Y-77251047D01*
X132997801Y-77251047D02*
X132807325Y-77251047D01*
X132807325Y-77251047D02*
X132712087Y-77203428D01*
D11*
G36*
X124229654Y-57521400D02*
G01*
X124229654Y-55551825D01*
X124683458Y-55551825D01*
X124894972Y-56390067D01*
X124892529Y-56390067D01*
X125104044Y-55551825D01*
X125557847Y-55551825D01*
X125557847Y-57521400D01*
X125252055Y-57521400D01*
X125252055Y-55916724D01*
X125243751Y-55916724D01*
X125032236Y-56724679D01*
X124755265Y-56724679D01*
X124543751Y-55916724D01*
X124535935Y-55916724D01*
X124535935Y-57521400D01*
X124229654Y-57521400D01*
G37*
G36*
X126340890Y-56024679D02*
G01*
X126450975Y-56030137D01*
X126551950Y-56042845D01*
X126661092Y-56067666D01*
X126757114Y-56102929D01*
X126852556Y-56157265D01*
X126887993Y-56184903D01*
X126958228Y-56259214D01*
X127011212Y-56347084D01*
X127046946Y-56448510D01*
X127063844Y-56546238D01*
X127068245Y-56635286D01*
X127068245Y-57228308D01*
X127315418Y-57258594D01*
X127315418Y-57520911D01*
X126817652Y-57537520D01*
X126803974Y-57213654D01*
X126779605Y-57315716D01*
X126727992Y-57400923D01*
X126657428Y-57463758D01*
X126568327Y-57510641D01*
X126464057Y-57540160D01*
X126357243Y-57551881D01*
X126318908Y-57552663D01*
X126208418Y-57545610D01*
X126110935Y-57524453D01*
X126016812Y-57483790D01*
X125954986Y-57439822D01*
X125886464Y-57359928D01*
X125843321Y-57261907D01*
X125826191Y-57158188D01*
X125825049Y-57120353D01*
X125826272Y-57106187D01*
X126131329Y-57106187D01*
X126157205Y-57202838D01*
X126191413Y-57240032D01*
X126281705Y-57279187D01*
X126365314Y-57286926D01*
X126465536Y-57279671D01*
X126562944Y-57253267D01*
X126585621Y-57242963D01*
X126670320Y-57186085D01*
X126716535Y-57131588D01*
X126755324Y-57037282D01*
X126759522Y-56993346D01*
X126759522Y-56907373D01*
X126659852Y-56898393D01*
X126634469Y-56897603D01*
X126534648Y-56896254D01*
X126494763Y-56896138D01*
X126390062Y-56901266D01*
X126287847Y-56920958D01*
X126191310Y-56970188D01*
X126137008Y-57056956D01*
X126131329Y-57106187D01*
X125826272Y-57106187D01*
X125833557Y-57021818D01*
X125864118Y-56922258D01*
X125916905Y-56836621D01*
X125991918Y-56764905D01*
X126002857Y-56756919D01*
X126087427Y-56707622D01*
X126185555Y-56670433D01*
X126297240Y-56645351D01*
X126403760Y-56633490D01*
X126500136Y-56630402D01*
X126602193Y-56632768D01*
X126705391Y-56641667D01*
X126759522Y-56650430D01*
X126759522Y-56600604D01*
X126743479Y-56496890D01*
X126690318Y-56413329D01*
X126662313Y-56390555D01*
X126566804Y-56346258D01*
X126470843Y-56325898D01*
X126367756Y-56317771D01*
X126002369Y-56307513D01*
X126032655Y-56020771D01*
X126340890Y-56024679D01*
G37*
G36*
X127552334Y-57521400D02*
G01*
X127552334Y-55426773D01*
X127874735Y-55426773D01*
X127874735Y-56669480D01*
X127938726Y-56669480D01*
X128043464Y-56663565D01*
X128143910Y-56643394D01*
X128228887Y-56608908D01*
X128312669Y-56546397D01*
X128375981Y-56465797D01*
X128406696Y-56408629D01*
X128444410Y-56310722D01*
X128472888Y-56204496D01*
X128493854Y-56095671D01*
X128504881Y-56020771D01*
X128838517Y-56020771D01*
X128823645Y-56123555D01*
X128805407Y-56220148D01*
X128775853Y-56339308D01*
X128740316Y-56447462D01*
X128698795Y-56544609D01*
X128651289Y-56630751D01*
X128583493Y-56722950D01*
X128506347Y-56797952D01*
X128942076Y-57521400D01*
X128544937Y-57521400D01*
X128209836Y-56938148D01*
X128109212Y-56954156D01*
X128007603Y-56958664D01*
X127874735Y-56958664D01*
X127874735Y-57521400D01*
X127552334Y-57521400D01*
G37*
G36*
X129191692Y-57521400D02*
G01*
X129191692Y-57232216D01*
X129746612Y-57232216D01*
X129746612Y-56309955D01*
X129274246Y-56309955D01*
X129274246Y-56020771D01*
X130069501Y-56020771D01*
X130069501Y-57232216D01*
X130516954Y-57232216D01*
X130516954Y-57521400D01*
X129191692Y-57521400D01*
G37*
G36*
X129898531Y-55833193D02*
G01*
X129800344Y-55810633D01*
X129743681Y-55769201D01*
X129689842Y-55683504D01*
X129679201Y-55614351D01*
X129701933Y-55515693D01*
X129743681Y-55459501D01*
X129829378Y-55406071D01*
X129898531Y-55395510D01*
X129997189Y-55418069D01*
X130053381Y-55459501D01*
X130106811Y-55544727D01*
X130117372Y-55614351D01*
X130094813Y-55712538D01*
X130053381Y-55769201D01*
X129968155Y-55822632D01*
X129898531Y-55833193D01*
G37*
G36*
X131737679Y-57521400D02*
G01*
X131737679Y-56542474D01*
X131725338Y-56441989D01*
X131677166Y-56350894D01*
X131673199Y-56346591D01*
X131590319Y-56293611D01*
X131492460Y-56278692D01*
X131381068Y-56292568D01*
X131280239Y-56343832D01*
X131210779Y-56432870D01*
X131176209Y-56539253D01*
X131165006Y-56649105D01*
X131164686Y-56673388D01*
X131164686Y-57521400D01*
X130842285Y-57521400D01*
X130842285Y-56020771D01*
X131135865Y-56020771D01*
X131158824Y-56284554D01*
X131162243Y-56284554D01*
X131183865Y-56184284D01*
X131240128Y-56093523D01*
X131329817Y-56030999D01*
X131433298Y-55999881D01*
X131538291Y-55989796D01*
X131561336Y-55989508D01*
X131660105Y-55996521D01*
X131760504Y-56021708D01*
X131857542Y-56071940D01*
X131929654Y-56136054D01*
X131986929Y-56216685D01*
X132027840Y-56312031D01*
X132050213Y-56407530D01*
X132060057Y-56514297D01*
X132060569Y-56546871D01*
X132060569Y-57521400D01*
X131737679Y-57521400D01*
G37*
G36*
X133082669Y-55997523D02*
G01*
X133181599Y-56024851D01*
X133265174Y-56071574D01*
X133335081Y-56139992D01*
X133380891Y-56229616D01*
X133385762Y-56252339D01*
X133406347Y-56020771D01*
X133699927Y-56020771D01*
X133699927Y-57366550D01*
X133695490Y-57485329D01*
X133682181Y-57594067D01*
X133659999Y-57692764D01*
X133621668Y-57797945D01*
X133570560Y-57888666D01*
X133518210Y-57953221D01*
X133442613Y-58018411D01*
X133352109Y-58071099D01*
X133246700Y-58111284D01*
X133147471Y-58135222D01*
X133037891Y-58150477D01*
X132942774Y-58156431D01*
X132501671Y-58170597D01*
X132486040Y-57873598D01*
X132969152Y-57859920D01*
X133068956Y-57850242D01*
X133163499Y-57824392D01*
X133253550Y-57771283D01*
X133279340Y-57746103D01*
X133334302Y-57659857D01*
X133364832Y-57559412D01*
X133376484Y-57451065D01*
X133377037Y-57424679D01*
X133377037Y-57270611D01*
X133353285Y-57358957D01*
X133296132Y-57440103D01*
X133259312Y-57472062D01*
X133169805Y-57521178D01*
X133071463Y-57546287D01*
X132979410Y-57552663D01*
X132874298Y-57545776D01*
X132764256Y-57520334D01*
X132667771Y-57476146D01*
X132584844Y-57413211D01*
X132533911Y-57356780D01*
X132474906Y-57262479D01*
X132435866Y-57167957D01*
X132407473Y-57060796D01*
X132391945Y-56961839D01*
X132383812Y-56854105D01*
X132382481Y-56785252D01*
X132702439Y-56785252D01*
X132707774Y-56899168D01*
X132723779Y-56997895D01*
X132758792Y-57099946D01*
X132822814Y-57191079D01*
X132910844Y-57248037D01*
X133022883Y-57270820D01*
X133043890Y-57271295D01*
X133157108Y-57255478D01*
X133246902Y-57208028D01*
X133313271Y-57128945D01*
X133356216Y-57018229D01*
X133374109Y-56901801D01*
X133377037Y-56821400D01*
X133377037Y-56720771D01*
X133371832Y-56615327D01*
X133350685Y-56503293D01*
X133303836Y-56397849D01*
X133233563Y-56324038D01*
X133139865Y-56281860D01*
X133043890Y-56270876D01*
X132945523Y-56283434D01*
X132849490Y-56331657D01*
X132777465Y-56416047D01*
X132735784Y-56513999D01*
X132714443Y-56610444D01*
X132703773Y-56722964D01*
X132702439Y-56785252D01*
X132382481Y-56785252D01*
X132386178Y-56668003D01*
X132397269Y-56559890D01*
X132415754Y-56460912D01*
X132447696Y-56354197D01*
X132490286Y-56260637D01*
X132533911Y-56192718D01*
X132607154Y-56113538D01*
X132693955Y-56053805D01*
X132794313Y-56013520D01*
X132891125Y-55994470D01*
X132979410Y-55989508D01*
X133082669Y-55997523D01*
G37*
G36*
X136489100Y-55526172D02*
G01*
X136596872Y-55546322D01*
X136690478Y-55581127D01*
X136778852Y-55637799D01*
X136847330Y-55712550D01*
X136893398Y-55805462D01*
X136915532Y-55903296D01*
X136920513Y-55986089D01*
X136595670Y-55986089D01*
X136576727Y-55889597D01*
X136541936Y-55845405D01*
X136451856Y-55807067D01*
X136388552Y-55801930D01*
X136289426Y-55817708D01*
X136205370Y-55873737D01*
X136156643Y-55961665D01*
X136140655Y-56065048D01*
X136140401Y-56081832D01*
X136154877Y-56183251D01*
X136191692Y-56271365D01*
X136244239Y-56355060D01*
X136306762Y-56436460D01*
X136334330Y-56468713D01*
X136704602Y-56888811D01*
X136734119Y-56787256D01*
X136752246Y-56681026D01*
X136761846Y-56575752D01*
X136765424Y-56476364D01*
X136765663Y-56441358D01*
X137060708Y-56441358D01*
X137058464Y-56545962D01*
X137051732Y-56645331D01*
X137037006Y-56762179D01*
X137015267Y-56870845D01*
X136986516Y-56971331D01*
X136950753Y-57063635D01*
X136917093Y-57131588D01*
X137261476Y-57521400D01*
X136859940Y-57521400D01*
X136722676Y-57370946D01*
X136640324Y-57432701D01*
X136548974Y-57481680D01*
X136448624Y-57517881D01*
X136339276Y-57541305D01*
X136241278Y-57551065D01*
X136179480Y-57552663D01*
X136071789Y-57545931D01*
X135973541Y-57525735D01*
X135872822Y-57486167D01*
X135784436Y-57429015D01*
X135764267Y-57411979D01*
X135695238Y-57335867D01*
X135645931Y-57248214D01*
X135616347Y-57149021D01*
X135606486Y-57038287D01*
X135607458Y-57025587D01*
X135915209Y-57025587D01*
X135935359Y-57124749D01*
X135995809Y-57203395D01*
X136083851Y-57252132D01*
X136187715Y-57270698D01*
X136212697Y-57271295D01*
X136316892Y-57262871D01*
X136418615Y-57233753D01*
X136505550Y-57183836D01*
X136528747Y-57164805D01*
X136145774Y-56744707D01*
X136134051Y-56731518D01*
X136038308Y-56784702D01*
X135963294Y-56860737D01*
X135922903Y-56953928D01*
X135915209Y-57025587D01*
X135607458Y-57025587D01*
X135614291Y-56936316D01*
X135641273Y-56833257D01*
X135687526Y-56740979D01*
X135705160Y-56715398D01*
X135773434Y-56639120D01*
X135854301Y-56578202D01*
X135947762Y-56532645D01*
X135967966Y-56525377D01*
X135914202Y-56442373D01*
X135867740Y-56351986D01*
X135847798Y-56303116D01*
X135819748Y-56205703D01*
X135807126Y-56102370D01*
X135806765Y-56081832D01*
X135813988Y-55970157D01*
X135835657Y-55870217D01*
X135878109Y-55770367D01*
X135939429Y-55685844D01*
X135957707Y-55667108D01*
X136040903Y-55602994D01*
X136139546Y-55557199D01*
X136238532Y-55532154D01*
X136349345Y-55521135D01*
X136383178Y-55520562D01*
X136489100Y-55526172D01*
G37*
G36*
X139489459Y-57521400D02*
G01*
X139489459Y-55841009D01*
X138917931Y-55841009D01*
X138917931Y-55551825D01*
X140378014Y-55551825D01*
X140378014Y-55841009D01*
X139806486Y-55841009D01*
X139806486Y-57521400D01*
X139489459Y-57521400D01*
G37*
G36*
X140667198Y-57521400D02*
G01*
X140667198Y-57232216D01*
X141222118Y-57232216D01*
X141222118Y-56309955D01*
X140749752Y-56309955D01*
X140749752Y-56020771D01*
X141545007Y-56020771D01*
X141545007Y-57232216D01*
X141992460Y-57232216D01*
X141992460Y-57521400D01*
X140667198Y-57521400D01*
G37*
G36*
X141374037Y-55833193D02*
G01*
X141275850Y-55810633D01*
X141219187Y-55769201D01*
X141165348Y-55683504D01*
X141154707Y-55614351D01*
X141177438Y-55515693D01*
X141219187Y-55459501D01*
X141304884Y-55406071D01*
X141374037Y-55395510D01*
X141472695Y-55418069D01*
X141528887Y-55459501D01*
X141582317Y-55544727D01*
X141592878Y-55614351D01*
X141570319Y-55712538D01*
X141528887Y-55769201D01*
X141443661Y-55822632D01*
X141374037Y-55833193D01*
G37*
G36*
X143213185Y-57521400D02*
G01*
X143213185Y-56542474D01*
X143200844Y-56441989D01*
X143152672Y-56350894D01*
X143148705Y-56346591D01*
X143065825Y-56293611D01*
X142967966Y-56278692D01*
X142856574Y-56292568D01*
X142755745Y-56343832D01*
X142686285Y-56432870D01*
X142651715Y-56539253D01*
X142640512Y-56649105D01*
X142640192Y-56673388D01*
X142640192Y-57521400D01*
X142317791Y-57521400D01*
X142317791Y-56020771D01*
X142611371Y-56020771D01*
X142634330Y-56284554D01*
X142637749Y-56284554D01*
X142659370Y-56184284D01*
X142715634Y-56093523D01*
X142805323Y-56030999D01*
X142908803Y-55999881D01*
X143013797Y-55989796D01*
X143036842Y-55989508D01*
X143135611Y-55996521D01*
X143236010Y-56021708D01*
X143333048Y-56071940D01*
X143405160Y-56136054D01*
X143462435Y-56216685D01*
X143503346Y-56312031D01*
X143525719Y-56407530D01*
X143535563Y-56514297D01*
X143536074Y-56546871D01*
X143536074Y-57521400D01*
X143213185Y-57521400D01*
G37*
G36*
X143945914Y-57521400D02*
G01*
X143945914Y-55426773D01*
X144268315Y-55426773D01*
X144268315Y-56669480D01*
X144332306Y-56669480D01*
X144437044Y-56663565D01*
X144537490Y-56643394D01*
X144622467Y-56608908D01*
X144706249Y-56546397D01*
X144769561Y-56465797D01*
X144800275Y-56408629D01*
X144837990Y-56310722D01*
X144866468Y-56204496D01*
X144887434Y-56095671D01*
X144898461Y-56020771D01*
X145232097Y-56020771D01*
X145217225Y-56123555D01*
X145198987Y-56220148D01*
X145169433Y-56339308D01*
X145133896Y-56447462D01*
X145092375Y-56544609D01*
X145044869Y-56630751D01*
X144977073Y-56722950D01*
X144899927Y-56797952D01*
X145335656Y-57521400D01*
X144938517Y-57521400D01*
X144603416Y-56938148D01*
X144502791Y-56954156D01*
X144401183Y-56958664D01*
X144268315Y-56958664D01*
X144268315Y-57521400D01*
X143945914Y-57521400D01*
G37*
G36*
X146319437Y-55996120D02*
G01*
X146418270Y-56015955D01*
X146521463Y-56055809D01*
X146611613Y-56113662D01*
X146678503Y-56177575D01*
X146743218Y-56267659D01*
X146786037Y-56357635D01*
X146817178Y-56459393D01*
X146836641Y-56572932D01*
X146843939Y-56676546D01*
X146844588Y-56720283D01*
X146842268Y-56823598D01*
X146835307Y-56927401D01*
X145856870Y-56927401D01*
X145891136Y-57026797D01*
X145948259Y-57110724D01*
X146020024Y-57173598D01*
X146109535Y-57220996D01*
X146204289Y-57248645D01*
X146312490Y-57262075D01*
X146364895Y-57263479D01*
X146464689Y-57260233D01*
X146541238Y-57253221D01*
X146639519Y-57239289D01*
X146735167Y-57221958D01*
X146775223Y-57511141D01*
X146671931Y-57529070D01*
X146571660Y-57541827D01*
X146522676Y-57545824D01*
X146420949Y-57550953D01*
X146331678Y-57552663D01*
X146217547Y-57547701D01*
X146111764Y-57532818D01*
X146014329Y-57508012D01*
X145908427Y-57465147D01*
X145814546Y-57407994D01*
X145745495Y-57349453D01*
X145675108Y-57267101D01*
X145619283Y-57172453D01*
X145578021Y-57065509D01*
X145554761Y-56966996D01*
X145541614Y-56859944D01*
X145538377Y-56768155D01*
X145542195Y-56669480D01*
X145843192Y-56669480D01*
X146549543Y-56669480D01*
X146540813Y-56563235D01*
X146511044Y-56463996D01*
X146460150Y-56383228D01*
X146383786Y-56319526D01*
X146288050Y-56285225D01*
X146213465Y-56278692D01*
X146109760Y-56291160D01*
X146014402Y-56333200D01*
X145955056Y-56384205D01*
X145898641Y-56465519D01*
X145861043Y-56564380D01*
X145843192Y-56669480D01*
X145542195Y-56669480D01*
X145542671Y-56657179D01*
X145555551Y-56554146D01*
X145582341Y-56440991D01*
X145621496Y-56339274D01*
X145673016Y-56248993D01*
X145714232Y-56195161D01*
X145785427Y-56125271D01*
X145866754Y-56069841D01*
X145958214Y-56028872D01*
X146059805Y-56002362D01*
X146171529Y-55990312D01*
X146211022Y-55989508D01*
X146319437Y-55996120D01*
G37*
G36*
X147761476Y-56872690D02*
G01*
X147761476Y-57232216D01*
X148118559Y-57232216D01*
X148118559Y-57521400D01*
X147114721Y-57521400D01*
X147114721Y-57232216D01*
X147439075Y-57232216D01*
X147439075Y-56309955D01*
X147169920Y-56309955D01*
X147169920Y-56020771D01*
X147704811Y-56020771D01*
X147754148Y-56394463D01*
X147758545Y-56394463D01*
X147775274Y-56277801D01*
X147809893Y-56180913D01*
X147875049Y-56090747D01*
X147965964Y-56029055D01*
X148061405Y-55999395D01*
X148174735Y-55989508D01*
X148283270Y-55997996D01*
X148386323Y-56027834D01*
X148477170Y-56086186D01*
X148513255Y-56125307D01*
X148564260Y-56215214D01*
X148595584Y-56318292D01*
X148612174Y-56426367D01*
X148618356Y-56532287D01*
X148618768Y-56570318D01*
X148298810Y-56570318D01*
X148293615Y-56465915D01*
X148271977Y-56369104D01*
X148254846Y-56335845D01*
X148174644Y-56278553D01*
X148114162Y-56270876D01*
X148012534Y-56285998D01*
X147920579Y-56337564D01*
X147855015Y-56416199D01*
X147849403Y-56425726D01*
X147806899Y-56523490D01*
X147780796Y-56628751D01*
X147766971Y-56735029D01*
X147761819Y-56836655D01*
X147761476Y-56872690D01*
G37*
G36*
X148863988Y-57521400D02*
G01*
X148863988Y-57232216D01*
X149418908Y-57232216D01*
X149418908Y-56309955D01*
X148946542Y-56309955D01*
X148946542Y-56020771D01*
X149741797Y-56020771D01*
X149741797Y-57232216D01*
X150189250Y-57232216D01*
X150189250Y-57521400D01*
X148863988Y-57521400D01*
G37*
G36*
X149570827Y-55833193D02*
G01*
X149472640Y-55810633D01*
X149415977Y-55769201D01*
X149362138Y-55683504D01*
X149351497Y-55614351D01*
X149374228Y-55515693D01*
X149415977Y-55459501D01*
X149501674Y-55406071D01*
X149570827Y-55395510D01*
X149669485Y-55418069D01*
X149725677Y-55459501D01*
X149779107Y-55544727D01*
X149789668Y-55614351D01*
X149767109Y-55712538D01*
X149725677Y-55769201D01*
X149640451Y-55822632D01*
X149570827Y-55833193D01*
G37*
G36*
X151409975Y-57521400D02*
G01*
X151409975Y-56542474D01*
X151397633Y-56441989D01*
X151349462Y-56350894D01*
X151345495Y-56346591D01*
X151262615Y-56293611D01*
X151164756Y-56278692D01*
X151053364Y-56292568D01*
X150952535Y-56343832D01*
X150883075Y-56432870D01*
X150848505Y-56539253D01*
X150837302Y-56649105D01*
X150836982Y-56673388D01*
X150836982Y-57521400D01*
X150514581Y-57521400D01*
X150514581Y-56020771D01*
X150808161Y-56020771D01*
X150831120Y-56284554D01*
X150834539Y-56284554D01*
X150856160Y-56184284D01*
X150912424Y-56093523D01*
X151002113Y-56030999D01*
X151105593Y-55999881D01*
X151210587Y-55989796D01*
X151233632Y-55989508D01*
X151332401Y-55996521D01*
X151432800Y-56021708D01*
X151529838Y-56071940D01*
X151601950Y-56136054D01*
X151659225Y-56216685D01*
X151700136Y-56312031D01*
X151722509Y-56407530D01*
X151732353Y-56514297D01*
X151732864Y-56546871D01*
X151732864Y-57521400D01*
X151409975Y-57521400D01*
G37*
G36*
X152754965Y-55997523D02*
G01*
X152853895Y-56024851D01*
X152937470Y-56071574D01*
X153007377Y-56139992D01*
X153053187Y-56229616D01*
X153058058Y-56252338D01*
X153078642Y-56020771D01*
X153372222Y-56020771D01*
X153372222Y-57366550D01*
X153367786Y-57485329D01*
X153354477Y-57594067D01*
X153332294Y-57692764D01*
X153293964Y-57797945D01*
X153242856Y-57888666D01*
X153190506Y-57953221D01*
X153114909Y-58018411D01*
X153024405Y-58071099D01*
X152918995Y-58111284D01*
X152819767Y-58135222D01*
X152710187Y-58150477D01*
X152615070Y-58156431D01*
X152173967Y-58170597D01*
X152158335Y-57873598D01*
X152641448Y-57859920D01*
X152741252Y-57850242D01*
X152835795Y-57824392D01*
X152925846Y-57771283D01*
X152951636Y-57746103D01*
X153006598Y-57659857D01*
X153037128Y-57559412D01*
X153048780Y-57451065D01*
X153049333Y-57424679D01*
X153049333Y-57270611D01*
X153025581Y-57358957D01*
X152968428Y-57440103D01*
X152931608Y-57472062D01*
X152842101Y-57521178D01*
X152743759Y-57546287D01*
X152651706Y-57552663D01*
X152546594Y-57545776D01*
X152436552Y-57520334D01*
X152340067Y-57476146D01*
X152257140Y-57413211D01*
X152206207Y-57356780D01*
X152147202Y-57262479D01*
X152108162Y-57167957D01*
X152079768Y-57060796D01*
X152064241Y-56961839D01*
X152056107Y-56854105D01*
X152054776Y-56785252D01*
X152374735Y-56785252D01*
X152380070Y-56899168D01*
X152396075Y-56997895D01*
X152431087Y-57099946D01*
X152495110Y-57191079D01*
X152583140Y-57248037D01*
X152695179Y-57270820D01*
X152716186Y-57271295D01*
X152829404Y-57255478D01*
X152919198Y-57208028D01*
X152985567Y-57128945D01*
X153028512Y-57018229D01*
X153046405Y-56901801D01*
X153049333Y-56821400D01*
X153049333Y-56720771D01*
X153044128Y-56615327D01*
X153022981Y-56503293D01*
X152976132Y-56397849D01*
X152905859Y-56324038D01*
X152812161Y-56281860D01*
X152716186Y-56270876D01*
X152617819Y-56283434D01*
X152521785Y-56331657D01*
X152449761Y-56416047D01*
X152408079Y-56513999D01*
X152386739Y-56610444D01*
X152376068Y-56722964D01*
X152374735Y-56785252D01*
X152054776Y-56785252D01*
X152058474Y-56668003D01*
X152069565Y-56559890D01*
X152088050Y-56460912D01*
X152119992Y-56354197D01*
X152162582Y-56260637D01*
X152206207Y-56192718D01*
X152279450Y-56113538D01*
X152366251Y-56053805D01*
X152466609Y-56013520D01*
X152563421Y-55994470D01*
X152651706Y-55989508D01*
X152754965Y-55997523D01*
G37*
G36*
X155410673Y-57521400D02*
G01*
X155410673Y-57184344D01*
X155521277Y-57121116D01*
X155624477Y-57057460D01*
X155720274Y-56993377D01*
X155808667Y-56928866D01*
X155889656Y-56863928D01*
X155963242Y-56798563D01*
X156044813Y-56716255D01*
X156088203Y-56666550D01*
X156151811Y-56583149D01*
X156204638Y-56499033D01*
X156253800Y-56397150D01*
X156287436Y-56294236D01*
X156305548Y-56190291D01*
X156308998Y-56120423D01*
X156297853Y-56012185D01*
X156256677Y-55914211D01*
X156185160Y-55846718D01*
X156083302Y-55809706D01*
X155991971Y-55801930D01*
X155888967Y-55815776D01*
X155796050Y-55850175D01*
X155766779Y-55864945D01*
X155681645Y-55919968D01*
X155602831Y-55990516D01*
X155553800Y-56046173D01*
X155342285Y-55836612D01*
X155407119Y-55757787D01*
X155483467Y-55689471D01*
X155571330Y-55631666D01*
X155625118Y-55604093D01*
X155726686Y-55563714D01*
X155830803Y-55536550D01*
X155937471Y-55522601D01*
X155997833Y-55520562D01*
X156110622Y-55525851D01*
X156212316Y-55541720D01*
X156330652Y-55579333D01*
X156429265Y-55635753D01*
X156508156Y-55710980D01*
X156567323Y-55805013D01*
X156606769Y-55917854D01*
X156623410Y-56014826D01*
X156628957Y-56122376D01*
X156622276Y-56233608D01*
X156602235Y-56343088D01*
X156568833Y-56450816D01*
X156522070Y-56556793D01*
X156472894Y-56643769D01*
X156438936Y-56695370D01*
X156375079Y-56780187D01*
X156301969Y-56863669D01*
X156219604Y-56945815D01*
X156127984Y-57026625D01*
X156048025Y-57090311D01*
X155962143Y-57153142D01*
X155870338Y-57215119D01*
X155870338Y-57232216D01*
X156711022Y-57232216D01*
X156711022Y-57521400D01*
X155410673Y-57521400D01*
G37*
G36*
X157780897Y-56350125D02*
G01*
X157841378Y-56391532D01*
X157892361Y-56476486D01*
X157902439Y-56550290D01*
X157883119Y-56648212D01*
X157841378Y-56708559D01*
X157755672Y-56759543D01*
X157681155Y-56769620D01*
X157581893Y-56750300D01*
X157520931Y-56708559D01*
X157469540Y-56623306D01*
X157459382Y-56550290D01*
X157478857Y-56451492D01*
X157520931Y-56391532D01*
X157607109Y-56340957D01*
X157681155Y-56330960D01*
X157780897Y-56350125D01*
G37*
G36*
X157802760Y-55529612D02*
G01*
X157912405Y-55556763D01*
X158010088Y-55602015D01*
X158095810Y-55665368D01*
X158169571Y-55746821D01*
X158231371Y-55846374D01*
X158281209Y-55964029D01*
X158319086Y-56099784D01*
X158337693Y-56200343D01*
X158350983Y-56308947D01*
X158358957Y-56425596D01*
X158361615Y-56550290D01*
X158358957Y-56671671D01*
X158350983Y-56785221D01*
X158337693Y-56890940D01*
X158319086Y-56988828D01*
X158281209Y-57120977D01*
X158231371Y-57235506D01*
X158169571Y-57332415D01*
X158095810Y-57411704D01*
X158010088Y-57473373D01*
X157912405Y-57517423D01*
X157802760Y-57543853D01*
X157681155Y-57552663D01*
X157559462Y-57543853D01*
X157449738Y-57517423D01*
X157351985Y-57473373D01*
X157266201Y-57411704D01*
X157192388Y-57332415D01*
X157130544Y-57235506D01*
X157080669Y-57120977D01*
X157042765Y-56988828D01*
X157024145Y-56890940D01*
X157010845Y-56785221D01*
X157002866Y-56671671D01*
X157000206Y-56550290D01*
X157325537Y-56550290D01*
X157328663Y-56679141D01*
X157338039Y-56795319D01*
X157353667Y-56898823D01*
X157384228Y-57017112D01*
X157425902Y-57112871D01*
X157493622Y-57200884D01*
X157578706Y-57253692D01*
X157681155Y-57271295D01*
X157783462Y-57253692D01*
X157868430Y-57200884D01*
X157936057Y-57112871D01*
X157977674Y-57017112D01*
X158008193Y-56898823D01*
X158023799Y-56795319D01*
X158033163Y-56679141D01*
X158036284Y-56550290D01*
X158033163Y-56416550D01*
X158023799Y-56295964D01*
X158008193Y-56188534D01*
X157977674Y-56065756D01*
X157936057Y-55966364D01*
X157868430Y-55875012D01*
X157783462Y-55820200D01*
X157681155Y-55801930D01*
X157578706Y-55820200D01*
X157493622Y-55875012D01*
X157425902Y-55966364D01*
X157384228Y-56065756D01*
X157353667Y-56188534D01*
X157338039Y-56295964D01*
X157328663Y-56416550D01*
X157325537Y-56550290D01*
X157000206Y-56550290D01*
X157002866Y-56425596D01*
X157010845Y-56308947D01*
X157024145Y-56200343D01*
X157042765Y-56099784D01*
X157080669Y-55964029D01*
X157130544Y-55846374D01*
X157192388Y-55746821D01*
X157266201Y-55665368D01*
X157351985Y-55602015D01*
X157449738Y-55556763D01*
X157559462Y-55529612D01*
X157681155Y-55520562D01*
X157802760Y-55529612D01*
G37*
G36*
X158689389Y-57521400D02*
G01*
X158689389Y-57184344D01*
X158799993Y-57121116D01*
X158903193Y-57057460D01*
X158998990Y-56993377D01*
X159087383Y-56928866D01*
X159168372Y-56863928D01*
X159241958Y-56798563D01*
X159323529Y-56716255D01*
X159366919Y-56666550D01*
X159430527Y-56583149D01*
X159483354Y-56499033D01*
X159532515Y-56397150D01*
X159566152Y-56294236D01*
X159584264Y-56190291D01*
X159587714Y-56120423D01*
X159576569Y-56012185D01*
X159535392Y-55914211D01*
X159463876Y-55846718D01*
X159362018Y-55809706D01*
X159270687Y-55801930D01*
X159167683Y-55815776D01*
X159074766Y-55850175D01*
X159045495Y-55864945D01*
X158960361Y-55919968D01*
X158881547Y-55990516D01*
X158832515Y-56046173D01*
X158621001Y-55836612D01*
X158685835Y-55757787D01*
X158762183Y-55689471D01*
X158850046Y-55631666D01*
X158903834Y-55604093D01*
X159005402Y-55563714D01*
X159109519Y-55536550D01*
X159216187Y-55522601D01*
X159276549Y-55520562D01*
X159389338Y-55525851D01*
X159491032Y-55541720D01*
X159609368Y-55579333D01*
X159707981Y-55635753D01*
X159786872Y-55710980D01*
X159846039Y-55805013D01*
X159885485Y-55917854D01*
X159902126Y-56014826D01*
X159907672Y-56122376D01*
X159900992Y-56233608D01*
X159880951Y-56343088D01*
X159847549Y-56450816D01*
X159800786Y-56556793D01*
X159751610Y-56643769D01*
X159717652Y-56695370D01*
X159653795Y-56780187D01*
X159580685Y-56863669D01*
X159498320Y-56945815D01*
X159406700Y-57026625D01*
X159326741Y-57090311D01*
X159240859Y-57153142D01*
X159149054Y-57215119D01*
X159149054Y-57232216D01*
X159989738Y-57232216D01*
X159989738Y-57521400D01*
X158689389Y-57521400D01*
G37*
G36*
X160217861Y-57083716D02*
G01*
X160499229Y-55646103D01*
X160827491Y-55646103D01*
X160600834Y-56794533D01*
X161188482Y-56794533D01*
X161188482Y-55551825D01*
X161505509Y-55551825D01*
X161505509Y-56794533D01*
X161689668Y-56794533D01*
X161689668Y-57083716D01*
X161505509Y-57083716D01*
X161505509Y-57521400D01*
X161188482Y-57521400D01*
X161188482Y-57083716D01*
X160217861Y-57083716D01*
G37*
D12*
%TO.C,J1*%
X126610000Y-96130000D02*
X127940000Y-96130000D01*
X126610000Y-97460000D02*
X126610000Y-96130000D01*
X129210000Y-96130000D02*
X147050000Y-96130000D01*
X129210000Y-98790000D02*
X129210000Y-96130000D01*
X129210000Y-98790000D02*
X147050000Y-98790000D01*
X147050000Y-98790000D02*
X147050000Y-96130000D01*
%TO.C,J3*%
X149470000Y-96130000D02*
X150800000Y-96130000D01*
X149470000Y-97460000D02*
X149470000Y-96130000D01*
X152070000Y-96130000D02*
X164830000Y-96130000D01*
X152070000Y-98790000D02*
X152070000Y-96130000D01*
X152070000Y-98790000D02*
X164830000Y-98790000D01*
X164830000Y-98790000D02*
X164830000Y-96130000D01*
%TO.C,J2*%
X117466000Y-47870000D02*
X118796000Y-47870000D01*
X117466000Y-49200000D02*
X117466000Y-47870000D01*
X120066000Y-47870000D02*
X142986000Y-47870000D01*
X120066000Y-50530000D02*
X120066000Y-47870000D01*
X120066000Y-50530000D02*
X142986000Y-50530000D01*
X142986000Y-50530000D02*
X142986000Y-47870000D01*
%TO.C,J4*%
X144390000Y-47870000D02*
X145720000Y-47870000D01*
X144390000Y-49200000D02*
X144390000Y-47870000D01*
X146990000Y-47870000D02*
X164830000Y-47870000D01*
X146990000Y-50530000D02*
X146990000Y-47870000D01*
X146990000Y-50530000D02*
X164830000Y-50530000D01*
X164830000Y-50530000D02*
X164830000Y-47870000D01*
%TO.C,J7*%
X100150000Y-57300000D02*
X114650000Y-57300000D01*
X100150000Y-66500000D02*
X100150000Y-57300000D01*
X108750000Y-66500000D02*
X100150000Y-66500000D01*
X114650000Y-57300000D02*
X114650000Y-59300000D01*
X114650000Y-64500000D02*
X114650000Y-66500000D01*
X114650000Y-66500000D02*
X113350000Y-66500000D01*
X114950000Y-57000000D02*
X113650000Y-57000000D01*
X114950000Y-58700000D02*
X114950000Y-57000000D01*
%TO.C,SW1*%
X118270000Y-76650000D02*
X118270000Y-75267000D01*
X118270000Y-76650000D02*
X119653000Y-76650000D01*
X118510000Y-69590000D02*
X119820000Y-69590000D01*
X118510000Y-76410000D02*
X118510000Y-69590000D01*
X118510000Y-76410000D02*
X119820000Y-76410000D01*
X119985000Y-71190000D02*
X119985000Y-74810000D01*
X119985000Y-73603333D02*
X121255000Y-73603333D01*
X119985000Y-74810000D02*
X121255000Y-74810000D01*
X120105000Y-74810000D02*
X120105000Y-73603333D01*
X120225000Y-74810000D02*
X120225000Y-73603333D01*
X120345000Y-74810000D02*
X120345000Y-73603333D01*
X120465000Y-74810000D02*
X120465000Y-73603333D01*
X120585000Y-74810000D02*
X120585000Y-73603333D01*
X120705000Y-74810000D02*
X120705000Y-73603333D01*
X120825000Y-74810000D02*
X120825000Y-73603333D01*
X120945000Y-74810000D02*
X120945000Y-73603333D01*
X121065000Y-74810000D02*
X121065000Y-73603333D01*
X121185000Y-74810000D02*
X121185000Y-73603333D01*
X121255000Y-71190000D02*
X119985000Y-71190000D01*
X121255000Y-74810000D02*
X121255000Y-71190000D01*
X121420000Y-69590000D02*
X122360000Y-69590000D01*
X121420000Y-76410000D02*
X122360000Y-76410000D01*
X122525000Y-71190000D02*
X122525000Y-74810000D01*
X122525000Y-73603333D02*
X123795000Y-73603333D01*
X122525000Y-74810000D02*
X123795000Y-74810000D01*
X122645000Y-74810000D02*
X122645000Y-73603333D01*
X122765000Y-74810000D02*
X122765000Y-73603333D01*
X122885000Y-74810000D02*
X122885000Y-73603333D01*
X123005000Y-74810000D02*
X123005000Y-73603333D01*
X123125000Y-74810000D02*
X123125000Y-73603333D01*
X123245000Y-74810000D02*
X123245000Y-73603333D01*
X123365000Y-74810000D02*
X123365000Y-73603333D01*
X123485000Y-74810000D02*
X123485000Y-73603333D01*
X123605000Y-74810000D02*
X123605000Y-73603333D01*
X123725000Y-74810000D02*
X123725000Y-73603333D01*
X123795000Y-71190000D02*
X122525000Y-71190000D01*
X123795000Y-74810000D02*
X123795000Y-71190000D01*
X123960000Y-69590000D02*
X124900000Y-69590000D01*
X123960000Y-76410000D02*
X124900000Y-76410000D01*
X125065000Y-71190000D02*
X125065000Y-74810000D01*
X125065000Y-73603333D02*
X126335000Y-73603333D01*
X125065000Y-74810000D02*
X126335000Y-74810000D01*
X125185000Y-74810000D02*
X125185000Y-73603333D01*
X125305000Y-74810000D02*
X125305000Y-73603333D01*
X125425000Y-74810000D02*
X125425000Y-73603333D01*
X125545000Y-74810000D02*
X125545000Y-73603333D01*
X125665000Y-74810000D02*
X125665000Y-73603333D01*
X125785000Y-74810000D02*
X125785000Y-73603333D01*
X125905000Y-74810000D02*
X125905000Y-73603333D01*
X126025000Y-74810000D02*
X126025000Y-73603333D01*
X126145000Y-74810000D02*
X126145000Y-73603333D01*
X126265000Y-74810000D02*
X126265000Y-73603333D01*
X126335000Y-71190000D02*
X125065000Y-71190000D01*
X126335000Y-74810000D02*
X126335000Y-71190000D01*
X126500000Y-69590000D02*
X127810000Y-69590000D01*
X126500000Y-76410000D02*
X127810000Y-76410000D01*
X127810000Y-76410000D02*
X127810000Y-69590000D01*
%TO.C,J5*%
X137237200Y-87080600D02*
X137237200Y-85750600D01*
X138567200Y-87080600D02*
X137237200Y-87080600D01*
X139837200Y-84420600D02*
X147517200Y-84420600D01*
X139837200Y-87080600D02*
X139837200Y-84420600D01*
X139837200Y-87080600D02*
X147517200Y-87080600D01*
X147517200Y-87080600D02*
X147517200Y-84420600D01*
%TO.C,A1*%
X132120000Y-65240000D02*
X132120000Y-78070000D01*
X132120000Y-67910000D02*
X152700000Y-67910000D01*
X132120000Y-78070000D02*
X134790000Y-78070000D01*
X132120000Y-79340000D02*
X132120000Y-80740000D01*
X132120000Y-80740000D02*
X133520000Y-80740000D01*
X134790000Y-78070000D02*
X134790000Y-80740000D01*
X134790000Y-78070000D02*
X152700000Y-78070000D01*
X134790000Y-80740000D02*
X152700000Y-80740000D01*
X152700000Y-65240000D02*
X132120000Y-65240000D01*
X152700000Y-80740000D02*
X152700000Y-65240000D01*
%TD*%
D13*
X127940000Y-97460000D03*
X130480000Y-97460000D03*
X133020000Y-97460000D03*
X135560000Y-97460000D03*
X138100000Y-97460000D03*
X140640000Y-97460000D03*
X143180000Y-97460000D03*
X145720000Y-97460000D03*
X150800000Y-97460000D03*
X153340000Y-97460000D03*
X155880000Y-97460000D03*
X158420000Y-97460000D03*
X160960000Y-97460000D03*
X163500000Y-97460000D03*
X118796000Y-49200000D03*
X121336000Y-49200000D03*
X123876000Y-49200000D03*
X126416000Y-49200000D03*
X128956000Y-49200000D03*
X131496000Y-49200000D03*
X134036000Y-49200000D03*
X136576000Y-49200000D03*
X139116000Y-49200000D03*
X141656000Y-49200000D03*
X145720000Y-49200000D03*
X148260000Y-49200000D03*
X150800000Y-49200000D03*
X153340000Y-49200000D03*
X155880000Y-49200000D03*
X158420000Y-49200000D03*
X160960000Y-49200000D03*
X163500000Y-49200000D03*
D14*
X113950000Y-61900000D03*
D15*
X107650000Y-61900000D03*
D16*
X111050000Y-66700000D03*
D13*
X115240000Y-49200000D03*
X138567200Y-85750600D03*
X141107200Y-85750600D03*
X143647200Y-85750600D03*
X146187200Y-85750600D03*
X133520000Y-79340000D03*
X136060000Y-79340000D03*
X138600000Y-79340000D03*
X141140000Y-79340000D03*
X143680000Y-79340000D03*
X146220000Y-79340000D03*
X148760000Y-79340000D03*
X151300000Y-79340000D03*
X151300000Y-66640000D03*
X148760000Y-66640000D03*
X146220000Y-66640000D03*
X143680000Y-66640000D03*
X141140000Y-66640000D03*
X138600000Y-66640000D03*
X136060000Y-66640000D03*
X133520000Y-66640000D03*
X113970000Y-97460000D03*
X166040000Y-64440000D03*
X166040000Y-92380000D03*
M02*
