%TF.GenerationSoftware,KiCad,Pcbnew,8.0.3*%
%TF.CreationDate,2024-07-23T15:51:25+08:00*%
%TF.ProjectId,Arduino Uno A4988 Shield,41726475-696e-46f2-9055-6e6f20413439,rev?*%
%TF.SameCoordinates,Original*%
%TF.FileFunction,Copper,L2,Bot*%
%TF.FilePolarity,Positive*%
%FSLAX46Y46*%
G04 Gerber Fmt 4.6, Leading zero omitted, Abs format (unit mm)*
G04 Created by KiCad (PCBNEW 8.0.3) date 2024-07-23 15:51:25*
%MOMM*%
%LPD*%
G01*
G04 APERTURE LIST*
%TA.AperFunction,ComponentPad*%
%ADD10R,1.700000X1.700000*%
%TD*%
%TA.AperFunction,ComponentPad*%
%ADD11O,1.700000X1.700000*%
%TD*%
%TA.AperFunction,ComponentPad*%
%ADD12R,2.000000X4.600000*%
%TD*%
%TA.AperFunction,ComponentPad*%
%ADD13O,2.000000X4.200000*%
%TD*%
%TA.AperFunction,ComponentPad*%
%ADD14O,4.200000X2.000000*%
%TD*%
%TA.AperFunction,ComponentPad*%
%ADD15R,1.600000X1.600000*%
%TD*%
%TA.AperFunction,ComponentPad*%
%ADD16O,1.600000X1.600000*%
%TD*%
%TA.AperFunction,ViaPad*%
%ADD17C,0.600000*%
%TD*%
%TA.AperFunction,ViaPad*%
%ADD18C,0.800000*%
%TD*%
%TA.AperFunction,Conductor*%
%ADD19C,0.500000*%
%TD*%
%TA.AperFunction,Conductor*%
%ADD20C,0.250000*%
%TD*%
%ADD21C,0.350000*%
%ADD22O,1.000000X3.600000*%
%ADD23O,1.000000X3.200000*%
%ADD24O,3.200000X1.000000*%
G04 APERTURE END LIST*
D10*
%TO.P,J1,1,Pin_1*%
%TO.N,unconnected-(J1-Pin_1-Pad1)*%
X127940000Y-97460000D03*
D11*
%TO.P,J1,2,Pin_2*%
%TO.N,/IOREF*%
X130480000Y-97460000D03*
%TO.P,J1,3,Pin_3*%
%TO.N,/~{RESET}*%
X133020000Y-97460000D03*
%TO.P,J1,4,Pin_4*%
%TO.N,+3V3*%
X135560000Y-97460000D03*
%TO.P,J1,5,Pin_5*%
%TO.N,+5V*%
X138100000Y-97460000D03*
%TO.P,J1,6,Pin_6*%
%TO.N,GND*%
X140640000Y-97460000D03*
%TO.P,J1,7,Pin_7*%
X143180000Y-97460000D03*
%TO.P,J1,8,Pin_8*%
%TO.N,+12V*%
X145720000Y-97460000D03*
%TD*%
D10*
%TO.P,J3,1,Pin_1*%
%TO.N,/A0*%
X150800000Y-97460000D03*
D11*
%TO.P,J3,2,Pin_2*%
%TO.N,/A1*%
X153340000Y-97460000D03*
%TO.P,J3,3,Pin_3*%
%TO.N,/A2*%
X155880000Y-97460000D03*
%TO.P,J3,4,Pin_4*%
%TO.N,/A3*%
X158420000Y-97460000D03*
%TO.P,J3,5,Pin_5*%
%TO.N,/SDA{slash}A4*%
X160960000Y-97460000D03*
%TO.P,J3,6,Pin_6*%
%TO.N,/SCL{slash}A5*%
X163500000Y-97460000D03*
%TD*%
D10*
%TO.P,J2,1,Pin_1*%
%TO.N,unconnected-(J2-Pin_1-Pad1)*%
X118796000Y-49200000D03*
D11*
%TO.P,J2,2,Pin_2*%
%TO.N,unconnected-(J2-Pin_2-Pad2)*%
X121336000Y-49200000D03*
%TO.P,J2,3,Pin_3*%
%TO.N,/AREF*%
X123876000Y-49200000D03*
%TO.P,J2,4,Pin_4*%
%TO.N,GND*%
X126416000Y-49200000D03*
%TO.P,J2,5,Pin_5*%
%TO.N,/13*%
X128956000Y-49200000D03*
%TO.P,J2,6,Pin_6*%
%TO.N,/12*%
X131496000Y-49200000D03*
%TO.P,J2,7,Pin_7*%
%TO.N,/\u002A11*%
X134036000Y-49200000D03*
%TO.P,J2,8,Pin_8*%
%TO.N,/\u002A10*%
X136576000Y-49200000D03*
%TO.P,J2,9,Pin_9*%
%TO.N,/\u002A9*%
X139116000Y-49200000D03*
%TO.P,J2,10,Pin_10*%
%TO.N,/8*%
X141656000Y-49200000D03*
%TD*%
D10*
%TO.P,J4,1,Pin_1*%
%TO.N,/7*%
X145720000Y-49200000D03*
D11*
%TO.P,J4,2,Pin_2*%
%TO.N,/\u002A6*%
X148260000Y-49200000D03*
%TO.P,J4,3,Pin_3*%
%TO.N,/\u002A5*%
X150800000Y-49200000D03*
%TO.P,J4,4,Pin_4*%
%TO.N,/4*%
X153340000Y-49200000D03*
%TO.P,J4,5,Pin_5*%
%TO.N,/\u002A3*%
X155880000Y-49200000D03*
%TO.P,J4,6,Pin_6*%
%TO.N,/2*%
X158420000Y-49200000D03*
%TO.P,J4,7,Pin_7*%
%TO.N,/TX{slash}1*%
X160960000Y-49200000D03*
%TO.P,J4,8,Pin_8*%
%TO.N,/RX{slash}0*%
X163500000Y-49200000D03*
%TD*%
D12*
%TO.P,J7,1*%
%TO.N,+12V*%
X113950000Y-61900000D03*
D13*
%TO.P,J7,2*%
%TO.N,GND*%
X107650000Y-61900000D03*
D14*
%TO.P,J7,3*%
X111050000Y-66700000D03*
%TD*%
D10*
%TO.P,J5,1,Pin_1*%
%TO.N,Net-(A1-1B)*%
X138567200Y-85750600D03*
D11*
%TO.P,J5,2,Pin_2*%
%TO.N,Net-(A1-1A)*%
X141107200Y-85750600D03*
%TO.P,J5,3,Pin_3*%
%TO.N,Net-(A1-2A)*%
X143647200Y-85750600D03*
%TO.P,J5,4,Pin_4*%
%TO.N,Net-(A1-2B)*%
X146187200Y-85750600D03*
%TD*%
D15*
%TO.P,A1,1,GND*%
%TO.N,GND*%
X133520000Y-79340000D03*
D16*
%TO.P,A1,2,VDD*%
%TO.N,+5V*%
X136060000Y-79340000D03*
%TO.P,A1,3,1B*%
%TO.N,Net-(A1-1B)*%
X138600000Y-79340000D03*
%TO.P,A1,4,1A*%
%TO.N,Net-(A1-1A)*%
X141140000Y-79340000D03*
%TO.P,A1,5,2A*%
%TO.N,Net-(A1-2A)*%
X143680000Y-79340000D03*
%TO.P,A1,6,2B*%
%TO.N,Net-(A1-2B)*%
X146220000Y-79340000D03*
%TO.P,A1,7,GND*%
%TO.N,GND*%
X148760000Y-79340000D03*
%TO.P,A1,8,VMOT*%
%TO.N,+12V*%
X151300000Y-79340000D03*
%TO.P,A1,9,~{ENABLE}*%
%TO.N,/13*%
X151300000Y-66640000D03*
%TO.P,A1,10,MS1*%
%TO.N,Net-(A1-MS1)*%
X148760000Y-66640000D03*
%TO.P,A1,11,MS2*%
%TO.N,Net-(A1-MS2)*%
X146220000Y-66640000D03*
%TO.P,A1,12,MS3*%
%TO.N,Net-(A1-MS3)*%
X143680000Y-66640000D03*
%TO.P,A1,13,~{RESET}*%
%TO.N,Net-(A1-~{RESET})*%
X141140000Y-66640000D03*
%TO.P,A1,14,~{SLEEP}*%
X138600000Y-66640000D03*
%TO.P,A1,15,STEP*%
%TO.N,/\u002A9*%
X136060000Y-66640000D03*
%TO.P,A1,16,DIR*%
%TO.N,/8*%
X133520000Y-66640000D03*
%TD*%
D17*
%TO.N,+5V*%
X136060000Y-83464600D03*
D18*
%TO.N,/13*%
X137439600Y-60071200D03*
%TD*%
D19*
%TO.N,+5V*%
X136060000Y-86860200D02*
X138100000Y-88900200D01*
X136060000Y-83464600D02*
X136060000Y-86860200D01*
X136060000Y-83464600D02*
X136060000Y-79340000D01*
X138100000Y-88900200D02*
X138100000Y-97460000D01*
D20*
%TO.N,/13*%
X134467800Y-60071200D02*
X128956000Y-54559400D01*
X128956000Y-54559400D02*
X128956000Y-49200000D01*
X137439600Y-60071200D02*
X134467800Y-60071200D01*
%TO.N,/\u002A9*%
X136060000Y-66640000D02*
X136060000Y-64143200D01*
X136060000Y-64143200D02*
X139116000Y-61087200D01*
X139116000Y-61087200D02*
X139116000Y-49200000D01*
%TD*%
%TA.AperFunction,Conductor*%
%TO.N,GND*%
G36*
X142714075Y-97267007D02*
G01*
X142680000Y-97394174D01*
X142680000Y-97525826D01*
X142714075Y-97652993D01*
X142746988Y-97710000D01*
X141073012Y-97710000D01*
X141105925Y-97652993D01*
X141140000Y-97525826D01*
X141140000Y-97394174D01*
X141105925Y-97267007D01*
X141073012Y-97210000D01*
X142746988Y-97210000D01*
X142714075Y-97267007D01*
G37*
%TD.AperFunction*%
%TA.AperFunction,Conductor*%
G36*
X163415229Y-47035277D02*
G01*
X163434478Y-47050526D01*
X164140084Y-47733613D01*
X164174559Y-47794385D01*
X164170705Y-47864148D01*
X164129746Y-47920753D01*
X164064686Y-47946228D01*
X164013573Y-47939985D01*
X163834637Y-47878556D01*
X163612569Y-47841500D01*
X163387431Y-47841500D01*
X163165362Y-47878556D01*
X162952430Y-47951656D01*
X162952419Y-47951661D01*
X162754427Y-48058808D01*
X162754422Y-48058812D01*
X162576761Y-48197092D01*
X162576756Y-48197097D01*
X162424284Y-48362723D01*
X162424276Y-48362734D01*
X162333808Y-48501206D01*
X162280662Y-48546562D01*
X162211431Y-48555986D01*
X162148095Y-48526484D01*
X162126192Y-48501206D01*
X162035723Y-48362734D01*
X162035715Y-48362723D01*
X161883243Y-48197097D01*
X161883238Y-48197092D01*
X161705577Y-48058812D01*
X161705572Y-48058808D01*
X161507580Y-47951661D01*
X161507577Y-47951659D01*
X161507574Y-47951658D01*
X161507571Y-47951657D01*
X161507569Y-47951656D01*
X161294637Y-47878556D01*
X161072569Y-47841500D01*
X160847431Y-47841500D01*
X160625362Y-47878556D01*
X160412430Y-47951656D01*
X160412419Y-47951661D01*
X160214427Y-48058808D01*
X160214422Y-48058812D01*
X160036761Y-48197092D01*
X160036756Y-48197097D01*
X159884284Y-48362723D01*
X159884276Y-48362734D01*
X159793808Y-48501206D01*
X159740662Y-48546562D01*
X159671431Y-48555986D01*
X159608095Y-48526484D01*
X159586192Y-48501206D01*
X159495723Y-48362734D01*
X159495715Y-48362723D01*
X159343243Y-48197097D01*
X159343238Y-48197092D01*
X159165577Y-48058812D01*
X159165572Y-48058808D01*
X158967580Y-47951661D01*
X158967577Y-47951659D01*
X158967574Y-47951658D01*
X158967571Y-47951657D01*
X158967569Y-47951656D01*
X158754637Y-47878556D01*
X158532569Y-47841500D01*
X158307431Y-47841500D01*
X158085362Y-47878556D01*
X157872430Y-47951656D01*
X157872419Y-47951661D01*
X157674427Y-48058808D01*
X157674422Y-48058812D01*
X157496761Y-48197092D01*
X157496756Y-48197097D01*
X157344284Y-48362723D01*
X157344276Y-48362734D01*
X157253808Y-48501206D01*
X157200662Y-48546562D01*
X157131431Y-48555986D01*
X157068095Y-48526484D01*
X157046192Y-48501206D01*
X156955723Y-48362734D01*
X156955715Y-48362723D01*
X156803243Y-48197097D01*
X156803238Y-48197092D01*
X156625577Y-48058812D01*
X156625572Y-48058808D01*
X156427580Y-47951661D01*
X156427577Y-47951659D01*
X156427574Y-47951658D01*
X156427571Y-47951657D01*
X156427569Y-47951656D01*
X156214637Y-47878556D01*
X155992569Y-47841500D01*
X155767431Y-47841500D01*
X155545362Y-47878556D01*
X155332430Y-47951656D01*
X155332419Y-47951661D01*
X155134427Y-48058808D01*
X155134422Y-48058812D01*
X154956761Y-48197092D01*
X154956756Y-48197097D01*
X154804284Y-48362723D01*
X154804276Y-48362734D01*
X154713808Y-48501206D01*
X154660662Y-48546562D01*
X154591431Y-48555986D01*
X154528095Y-48526484D01*
X154506192Y-48501206D01*
X154415723Y-48362734D01*
X154415715Y-48362723D01*
X154263243Y-48197097D01*
X154263238Y-48197092D01*
X154085577Y-48058812D01*
X154085572Y-48058808D01*
X153887580Y-47951661D01*
X153887577Y-47951659D01*
X153887574Y-47951658D01*
X153887571Y-47951657D01*
X153887569Y-47951656D01*
X153674637Y-47878556D01*
X153452569Y-47841500D01*
X153227431Y-47841500D01*
X153005362Y-47878556D01*
X152792430Y-47951656D01*
X152792419Y-47951661D01*
X152594427Y-48058808D01*
X152594422Y-48058812D01*
X152416761Y-48197092D01*
X152416756Y-48197097D01*
X152264284Y-48362723D01*
X152264276Y-48362734D01*
X152173808Y-48501206D01*
X152120662Y-48546562D01*
X152051431Y-48555986D01*
X151988095Y-48526484D01*
X151966192Y-48501206D01*
X151875723Y-48362734D01*
X151875715Y-48362723D01*
X151723243Y-48197097D01*
X151723238Y-48197092D01*
X151545577Y-48058812D01*
X151545572Y-48058808D01*
X151347580Y-47951661D01*
X151347577Y-47951659D01*
X151347574Y-47951658D01*
X151347571Y-47951657D01*
X151347569Y-47951656D01*
X151134637Y-47878556D01*
X150912569Y-47841500D01*
X150687431Y-47841500D01*
X150465362Y-47878556D01*
X150252430Y-47951656D01*
X150252419Y-47951661D01*
X150054427Y-48058808D01*
X150054422Y-48058812D01*
X149876761Y-48197092D01*
X149876756Y-48197097D01*
X149724284Y-48362723D01*
X149724276Y-48362734D01*
X149633808Y-48501206D01*
X149580662Y-48546562D01*
X149511431Y-48555986D01*
X149448095Y-48526484D01*
X149426192Y-48501206D01*
X149335723Y-48362734D01*
X149335715Y-48362723D01*
X149183243Y-48197097D01*
X149183238Y-48197092D01*
X149005577Y-48058812D01*
X149005572Y-48058808D01*
X148807580Y-47951661D01*
X148807577Y-47951659D01*
X148807574Y-47951658D01*
X148807571Y-47951657D01*
X148807569Y-47951656D01*
X148594637Y-47878556D01*
X148372569Y-47841500D01*
X148147431Y-47841500D01*
X147925362Y-47878556D01*
X147712430Y-47951656D01*
X147712419Y-47951661D01*
X147514427Y-48058808D01*
X147514422Y-48058812D01*
X147336761Y-48197092D01*
X147273548Y-48265760D01*
X147213661Y-48301750D01*
X147143823Y-48299649D01*
X147086207Y-48260124D01*
X147066138Y-48225110D01*
X147020889Y-48103796D01*
X146987214Y-48058812D01*
X146933261Y-47986739D01*
X146816204Y-47899111D01*
X146679203Y-47848011D01*
X146618654Y-47841500D01*
X146618638Y-47841500D01*
X144821362Y-47841500D01*
X144821345Y-47841500D01*
X144760797Y-47848011D01*
X144760795Y-47848011D01*
X144623795Y-47899111D01*
X144506739Y-47986739D01*
X144419111Y-48103795D01*
X144368011Y-48240795D01*
X144368011Y-48240797D01*
X144361500Y-48301345D01*
X144361500Y-50098654D01*
X144368011Y-50159202D01*
X144368011Y-50159204D01*
X144419111Y-50296204D01*
X144506739Y-50413261D01*
X144623796Y-50500889D01*
X144760799Y-50551989D01*
X144788050Y-50554918D01*
X144821345Y-50558499D01*
X144821362Y-50558500D01*
X146618638Y-50558500D01*
X146618654Y-50558499D01*
X146645692Y-50555591D01*
X146679201Y-50551989D01*
X146816204Y-50500889D01*
X146933261Y-50413261D01*
X147020889Y-50296204D01*
X147066138Y-50174887D01*
X147108009Y-50118956D01*
X147173474Y-50094539D01*
X147241746Y-50109391D01*
X147273545Y-50134236D01*
X147336760Y-50202906D01*
X147514424Y-50341189D01*
X147514425Y-50341189D01*
X147514427Y-50341191D01*
X147561516Y-50366674D01*
X147712426Y-50448342D01*
X147925365Y-50521444D01*
X148147431Y-50558500D01*
X148372569Y-50558500D01*
X148594635Y-50521444D01*
X148807574Y-50448342D01*
X149005576Y-50341189D01*
X149183240Y-50202906D01*
X149304594Y-50071082D01*
X149335715Y-50037276D01*
X149335715Y-50037275D01*
X149335722Y-50037268D01*
X149426193Y-49898790D01*
X149479338Y-49853437D01*
X149548569Y-49844013D01*
X149611905Y-49873515D01*
X149633804Y-49898787D01*
X149724278Y-50037268D01*
X149724283Y-50037273D01*
X149724284Y-50037276D01*
X149850968Y-50174889D01*
X149876760Y-50202906D01*
X150054424Y-50341189D01*
X150054425Y-50341189D01*
X150054427Y-50341191D01*
X150101516Y-50366674D01*
X150252426Y-50448342D01*
X150465365Y-50521444D01*
X150687431Y-50558500D01*
X150912569Y-50558500D01*
X151134635Y-50521444D01*
X151347574Y-50448342D01*
X151545576Y-50341189D01*
X151723240Y-50202906D01*
X151844594Y-50071082D01*
X151875715Y-50037276D01*
X151875715Y-50037275D01*
X151875722Y-50037268D01*
X151966193Y-49898790D01*
X152019338Y-49853437D01*
X152088569Y-49844013D01*
X152151905Y-49873515D01*
X152173804Y-49898787D01*
X152264278Y-50037268D01*
X152264283Y-50037273D01*
X152264284Y-50037276D01*
X152390968Y-50174889D01*
X152416760Y-50202906D01*
X152594424Y-50341189D01*
X152594425Y-50341189D01*
X152594427Y-50341191D01*
X152641516Y-50366674D01*
X152792426Y-50448342D01*
X153005365Y-50521444D01*
X153227431Y-50558500D01*
X153452569Y-50558500D01*
X153674635Y-50521444D01*
X153887574Y-50448342D01*
X154085576Y-50341189D01*
X154263240Y-50202906D01*
X154384594Y-50071082D01*
X154415715Y-50037276D01*
X154415715Y-50037275D01*
X154415722Y-50037268D01*
X154506193Y-49898790D01*
X154559338Y-49853437D01*
X154628569Y-49844013D01*
X154691905Y-49873515D01*
X154713804Y-49898787D01*
X154804278Y-50037268D01*
X154804283Y-50037273D01*
X154804284Y-50037276D01*
X154930968Y-50174889D01*
X154956760Y-50202906D01*
X155134424Y-50341189D01*
X155134425Y-50341189D01*
X155134427Y-50341191D01*
X155181516Y-50366674D01*
X155332426Y-50448342D01*
X155545365Y-50521444D01*
X155767431Y-50558500D01*
X155992569Y-50558500D01*
X156214635Y-50521444D01*
X156427574Y-50448342D01*
X156625576Y-50341189D01*
X156803240Y-50202906D01*
X156924594Y-50071082D01*
X156955715Y-50037276D01*
X156955715Y-50037275D01*
X156955722Y-50037268D01*
X157046193Y-49898790D01*
X157099338Y-49853437D01*
X157168569Y-49844013D01*
X157231905Y-49873515D01*
X157253804Y-49898787D01*
X157344278Y-50037268D01*
X157344283Y-50037273D01*
X157344284Y-50037276D01*
X157470968Y-50174889D01*
X157496760Y-50202906D01*
X157674424Y-50341189D01*
X157674425Y-50341189D01*
X157674427Y-50341191D01*
X157721516Y-50366674D01*
X157872426Y-50448342D01*
X158085365Y-50521444D01*
X158307431Y-50558500D01*
X158532569Y-50558500D01*
X158754635Y-50521444D01*
X158967574Y-50448342D01*
X159165576Y-50341189D01*
X159343240Y-50202906D01*
X159464594Y-50071082D01*
X159495715Y-50037276D01*
X159495715Y-50037275D01*
X159495722Y-50037268D01*
X159586193Y-49898790D01*
X159639338Y-49853437D01*
X159708569Y-49844013D01*
X159771905Y-49873515D01*
X159793804Y-49898787D01*
X159884278Y-50037268D01*
X159884283Y-50037273D01*
X159884284Y-50037276D01*
X160010968Y-50174889D01*
X160036760Y-50202906D01*
X160214424Y-50341189D01*
X160214425Y-50341189D01*
X160214427Y-50341191D01*
X160261516Y-50366674D01*
X160412426Y-50448342D01*
X160625365Y-50521444D01*
X160847431Y-50558500D01*
X161072569Y-50558500D01*
X161294635Y-50521444D01*
X161507574Y-50448342D01*
X161705576Y-50341189D01*
X161883240Y-50202906D01*
X162004594Y-50071082D01*
X162035715Y-50037276D01*
X162035715Y-50037275D01*
X162035722Y-50037268D01*
X162126193Y-49898790D01*
X162179338Y-49853437D01*
X162248569Y-49844013D01*
X162311905Y-49873515D01*
X162333804Y-49898787D01*
X162424278Y-50037268D01*
X162424283Y-50037273D01*
X162424284Y-50037276D01*
X162550968Y-50174889D01*
X162576760Y-50202906D01*
X162754424Y-50341189D01*
X162754425Y-50341189D01*
X162754427Y-50341191D01*
X162801516Y-50366674D01*
X162952426Y-50448342D01*
X163165365Y-50521444D01*
X163387431Y-50558500D01*
X163612569Y-50558500D01*
X163834635Y-50521444D01*
X164047574Y-50448342D01*
X164245576Y-50341189D01*
X164423240Y-50202906D01*
X164544594Y-50071082D01*
X164575715Y-50037276D01*
X164575717Y-50037273D01*
X164575722Y-50037268D01*
X164698860Y-49848791D01*
X164789296Y-49642616D01*
X164844564Y-49424368D01*
X164847164Y-49392993D01*
X164863156Y-49200005D01*
X164863156Y-49199994D01*
X164844565Y-48975640D01*
X164844563Y-48975628D01*
X164823637Y-48892993D01*
X164789296Y-48757384D01*
X164741303Y-48647971D01*
X164732401Y-48578674D01*
X164762378Y-48515562D01*
X164821717Y-48478675D01*
X164891579Y-48479725D01*
X164941108Y-48509073D01*
X165747586Y-49289812D01*
X165782061Y-49350584D01*
X165785328Y-49380461D01*
X165716496Y-54859481D01*
X165659000Y-59436200D01*
X166958740Y-60773433D01*
X168265519Y-62117907D01*
X168298129Y-62179700D01*
X168300600Y-62204333D01*
X168300600Y-96311264D01*
X168280915Y-96378303D01*
X168264281Y-96398945D01*
X165997233Y-98665994D01*
X165975995Y-98687231D01*
X165964500Y-98714982D01*
X165964500Y-99107797D01*
X165944815Y-99174836D01*
X165934786Y-99188333D01*
X165343102Y-99881036D01*
X165284594Y-99919226D01*
X165248816Y-99924500D01*
X122380302Y-99924500D01*
X122379862Y-99924499D01*
X100808682Y-99848035D01*
X100741713Y-99828113D01*
X100696146Y-99775147D01*
X100685124Y-99724718D01*
X100667734Y-96561345D01*
X126581500Y-96561345D01*
X126581500Y-98358654D01*
X126588011Y-98419202D01*
X126588011Y-98419204D01*
X126639111Y-98556204D01*
X126726739Y-98673261D01*
X126843796Y-98760889D01*
X126980799Y-98811989D01*
X127008050Y-98814918D01*
X127041345Y-98818499D01*
X127041362Y-98818500D01*
X128838638Y-98818500D01*
X128838654Y-98818499D01*
X128865692Y-98815591D01*
X128899201Y-98811989D01*
X129036204Y-98760889D01*
X129153261Y-98673261D01*
X129240889Y-98556204D01*
X129286138Y-98434887D01*
X129328009Y-98378956D01*
X129393474Y-98354539D01*
X129461746Y-98369391D01*
X129493545Y-98394236D01*
X129556760Y-98462906D01*
X129734424Y-98601189D01*
X129734425Y-98601189D01*
X129734427Y-98601191D01*
X129861135Y-98669761D01*
X129932426Y-98708342D01*
X130145365Y-98781444D01*
X130367431Y-98818500D01*
X130592569Y-98818500D01*
X130814635Y-98781444D01*
X131027574Y-98708342D01*
X131225576Y-98601189D01*
X131403240Y-98462906D01*
X131524594Y-98331082D01*
X131555715Y-98297276D01*
X131555715Y-98297275D01*
X131555722Y-98297268D01*
X131646193Y-98158790D01*
X131699338Y-98113437D01*
X131768569Y-98104013D01*
X131831905Y-98133515D01*
X131853804Y-98158787D01*
X131944278Y-98297268D01*
X131944283Y-98297273D01*
X131944284Y-98297276D01*
X132070968Y-98434889D01*
X132096760Y-98462906D01*
X132274424Y-98601189D01*
X132274425Y-98601189D01*
X132274427Y-98601191D01*
X132401135Y-98669761D01*
X132472426Y-98708342D01*
X132685365Y-98781444D01*
X132907431Y-98818500D01*
X133132569Y-98818500D01*
X133354635Y-98781444D01*
X133567574Y-98708342D01*
X133765576Y-98601189D01*
X133943240Y-98462906D01*
X134064594Y-98331082D01*
X134095715Y-98297276D01*
X134095715Y-98297275D01*
X134095722Y-98297268D01*
X134186193Y-98158790D01*
X134239338Y-98113437D01*
X134308569Y-98104013D01*
X134371905Y-98133515D01*
X134393804Y-98158787D01*
X134484278Y-98297268D01*
X134484283Y-98297273D01*
X134484284Y-98297276D01*
X134610968Y-98434889D01*
X134636760Y-98462906D01*
X134814424Y-98601189D01*
X134814425Y-98601189D01*
X134814427Y-98601191D01*
X134941135Y-98669761D01*
X135012426Y-98708342D01*
X135225365Y-98781444D01*
X135447431Y-98818500D01*
X135672569Y-98818500D01*
X135894635Y-98781444D01*
X136107574Y-98708342D01*
X136305576Y-98601189D01*
X136483240Y-98462906D01*
X136604594Y-98331082D01*
X136635715Y-98297276D01*
X136635715Y-98297275D01*
X136635722Y-98297268D01*
X136726193Y-98158790D01*
X136779338Y-98113437D01*
X136848569Y-98104013D01*
X136911905Y-98133515D01*
X136933804Y-98158787D01*
X137024278Y-98297268D01*
X137024283Y-98297273D01*
X137024284Y-98297276D01*
X137150968Y-98434889D01*
X137176760Y-98462906D01*
X137354424Y-98601189D01*
X137354425Y-98601189D01*
X137354427Y-98601191D01*
X137481135Y-98669761D01*
X137552426Y-98708342D01*
X137765365Y-98781444D01*
X137987431Y-98818500D01*
X138212569Y-98818500D01*
X138434635Y-98781444D01*
X138647574Y-98708342D01*
X138845576Y-98601189D01*
X139023240Y-98462906D01*
X139144594Y-98331082D01*
X139175715Y-98297276D01*
X139175715Y-98297275D01*
X139175722Y-98297268D01*
X139269749Y-98153347D01*
X139322894Y-98107994D01*
X139392125Y-98098570D01*
X139455461Y-98128072D01*
X139475130Y-98150048D01*
X139601890Y-98331078D01*
X139768917Y-98498105D01*
X139962421Y-98633600D01*
X140176507Y-98733429D01*
X140176516Y-98733433D01*
X140390000Y-98790634D01*
X140390000Y-97893012D01*
X140447007Y-97925925D01*
X140574174Y-97960000D01*
X140705826Y-97960000D01*
X140832993Y-97925925D01*
X140890000Y-97893012D01*
X140890000Y-98790633D01*
X141103483Y-98733433D01*
X141103492Y-98733429D01*
X141317578Y-98633600D01*
X141511082Y-98498105D01*
X141678105Y-98331082D01*
X141808425Y-98144968D01*
X141863002Y-98101344D01*
X141932501Y-98094151D01*
X141994855Y-98125673D01*
X142011575Y-98144968D01*
X142141894Y-98331082D01*
X142308917Y-98498105D01*
X142502421Y-98633600D01*
X142716507Y-98733429D01*
X142716516Y-98733433D01*
X142930000Y-98790634D01*
X142930000Y-97893012D01*
X142987007Y-97925925D01*
X143114174Y-97960000D01*
X143245826Y-97960000D01*
X143372993Y-97925925D01*
X143430000Y-97893012D01*
X143430000Y-98790633D01*
X143643483Y-98733433D01*
X143643492Y-98733429D01*
X143857578Y-98633600D01*
X144051082Y-98498105D01*
X144218105Y-98331082D01*
X144344868Y-98150048D01*
X144399445Y-98106423D01*
X144468944Y-98099231D01*
X144531298Y-98130753D01*
X144550251Y-98153350D01*
X144644276Y-98297265D01*
X144644284Y-98297276D01*
X144770968Y-98434889D01*
X144796760Y-98462906D01*
X144974424Y-98601189D01*
X144974425Y-98601189D01*
X144974427Y-98601191D01*
X145101135Y-98669761D01*
X145172426Y-98708342D01*
X145385365Y-98781444D01*
X145607431Y-98818500D01*
X145832569Y-98818500D01*
X146054635Y-98781444D01*
X146267574Y-98708342D01*
X146465576Y-98601189D01*
X146643240Y-98462906D01*
X146764594Y-98331082D01*
X146795715Y-98297276D01*
X146795717Y-98297273D01*
X146795722Y-98297268D01*
X146918860Y-98108791D01*
X147009296Y-97902616D01*
X147064564Y-97684368D01*
X147067164Y-97652993D01*
X147083156Y-97460005D01*
X147083156Y-97459994D01*
X147064565Y-97235640D01*
X147064563Y-97235628D01*
X147009296Y-97017385D01*
X146999071Y-96994075D01*
X146918860Y-96811209D01*
X146902706Y-96786484D01*
X146795723Y-96622734D01*
X146795715Y-96622723D01*
X146739212Y-96561345D01*
X149441500Y-96561345D01*
X149441500Y-98358654D01*
X149448011Y-98419202D01*
X149448011Y-98419204D01*
X149499111Y-98556204D01*
X149586739Y-98673261D01*
X149703796Y-98760889D01*
X149840799Y-98811989D01*
X149868050Y-98814918D01*
X149901345Y-98818499D01*
X149901362Y-98818500D01*
X151698638Y-98818500D01*
X151698654Y-98818499D01*
X151725692Y-98815591D01*
X151759201Y-98811989D01*
X151896204Y-98760889D01*
X152013261Y-98673261D01*
X152100889Y-98556204D01*
X152146138Y-98434887D01*
X152188009Y-98378956D01*
X152253474Y-98354539D01*
X152321746Y-98369391D01*
X152353545Y-98394236D01*
X152416760Y-98462906D01*
X152594424Y-98601189D01*
X152594425Y-98601189D01*
X152594427Y-98601191D01*
X152721135Y-98669761D01*
X152792426Y-98708342D01*
X153005365Y-98781444D01*
X153227431Y-98818500D01*
X153452569Y-98818500D01*
X153674635Y-98781444D01*
X153887574Y-98708342D01*
X154085576Y-98601189D01*
X154263240Y-98462906D01*
X154384594Y-98331082D01*
X154415715Y-98297276D01*
X154415715Y-98297275D01*
X154415722Y-98297268D01*
X154506193Y-98158790D01*
X154559338Y-98113437D01*
X154628569Y-98104013D01*
X154691905Y-98133515D01*
X154713804Y-98158787D01*
X154804278Y-98297268D01*
X154804283Y-98297273D01*
X154804284Y-98297276D01*
X154930968Y-98434889D01*
X154956760Y-98462906D01*
X155134424Y-98601189D01*
X155134425Y-98601189D01*
X155134427Y-98601191D01*
X155261135Y-98669761D01*
X155332426Y-98708342D01*
X155545365Y-98781444D01*
X155767431Y-98818500D01*
X155992569Y-98818500D01*
X156214635Y-98781444D01*
X156427574Y-98708342D01*
X156625576Y-98601189D01*
X156803240Y-98462906D01*
X156924594Y-98331082D01*
X156955715Y-98297276D01*
X156955715Y-98297275D01*
X156955722Y-98297268D01*
X157046193Y-98158790D01*
X157099338Y-98113437D01*
X157168569Y-98104013D01*
X157231905Y-98133515D01*
X157253804Y-98158787D01*
X157344278Y-98297268D01*
X157344283Y-98297273D01*
X157344284Y-98297276D01*
X157470968Y-98434889D01*
X157496760Y-98462906D01*
X157674424Y-98601189D01*
X157674425Y-98601189D01*
X157674427Y-98601191D01*
X157801135Y-98669761D01*
X157872426Y-98708342D01*
X158085365Y-98781444D01*
X158307431Y-98818500D01*
X158532569Y-98818500D01*
X158754635Y-98781444D01*
X158967574Y-98708342D01*
X159165576Y-98601189D01*
X159343240Y-98462906D01*
X159464594Y-98331082D01*
X159495715Y-98297276D01*
X159495715Y-98297275D01*
X159495722Y-98297268D01*
X159586193Y-98158790D01*
X159639338Y-98113437D01*
X159708569Y-98104013D01*
X159771905Y-98133515D01*
X159793804Y-98158787D01*
X159884278Y-98297268D01*
X159884283Y-98297273D01*
X159884284Y-98297276D01*
X160010968Y-98434889D01*
X160036760Y-98462906D01*
X160214424Y-98601189D01*
X160214425Y-98601189D01*
X160214427Y-98601191D01*
X160341135Y-98669761D01*
X160412426Y-98708342D01*
X160625365Y-98781444D01*
X160847431Y-98818500D01*
X161072569Y-98818500D01*
X161294635Y-98781444D01*
X161507574Y-98708342D01*
X161705576Y-98601189D01*
X161883240Y-98462906D01*
X162004594Y-98331082D01*
X162035715Y-98297276D01*
X162035715Y-98297275D01*
X162035722Y-98297268D01*
X162126193Y-98158790D01*
X162179338Y-98113437D01*
X162248569Y-98104013D01*
X162311905Y-98133515D01*
X162333804Y-98158787D01*
X162424278Y-98297268D01*
X162424283Y-98297273D01*
X162424284Y-98297276D01*
X162550968Y-98434889D01*
X162576760Y-98462906D01*
X162754424Y-98601189D01*
X162754425Y-98601189D01*
X162754427Y-98601191D01*
X162881135Y-98669761D01*
X162952426Y-98708342D01*
X163165365Y-98781444D01*
X163387431Y-98818500D01*
X163612569Y-98818500D01*
X163834635Y-98781444D01*
X164047574Y-98708342D01*
X164245576Y-98601189D01*
X164423240Y-98462906D01*
X164544594Y-98331082D01*
X164575715Y-98297276D01*
X164575717Y-98297273D01*
X164575722Y-98297268D01*
X164698860Y-98108791D01*
X164789296Y-97902616D01*
X164844564Y-97684368D01*
X164847164Y-97652993D01*
X164863156Y-97460005D01*
X164863156Y-97459994D01*
X164844565Y-97235640D01*
X164844563Y-97235628D01*
X164789296Y-97017385D01*
X164779071Y-96994075D01*
X164698860Y-96811209D01*
X164682706Y-96786484D01*
X164575723Y-96622734D01*
X164575715Y-96622723D01*
X164423243Y-96457097D01*
X164423238Y-96457092D01*
X164266747Y-96335289D01*
X164245576Y-96318811D01*
X164245575Y-96318810D01*
X164245572Y-96318808D01*
X164047580Y-96211661D01*
X164047577Y-96211659D01*
X164047574Y-96211658D01*
X164047571Y-96211657D01*
X164047569Y-96211656D01*
X163834637Y-96138556D01*
X163612569Y-96101500D01*
X163387431Y-96101500D01*
X163165362Y-96138556D01*
X162952430Y-96211656D01*
X162952419Y-96211661D01*
X162754427Y-96318808D01*
X162754422Y-96318812D01*
X162576761Y-96457092D01*
X162576756Y-96457097D01*
X162424284Y-96622723D01*
X162424276Y-96622734D01*
X162333808Y-96761206D01*
X162280662Y-96806562D01*
X162211431Y-96815986D01*
X162148095Y-96786484D01*
X162126192Y-96761206D01*
X162035723Y-96622734D01*
X162035715Y-96622723D01*
X161883243Y-96457097D01*
X161883238Y-96457092D01*
X161726747Y-96335289D01*
X161705576Y-96318811D01*
X161705575Y-96318810D01*
X161705572Y-96318808D01*
X161507580Y-96211661D01*
X161507577Y-96211659D01*
X161507574Y-96211658D01*
X161507571Y-96211657D01*
X161507569Y-96211656D01*
X161294637Y-96138556D01*
X161072569Y-96101500D01*
X160847431Y-96101500D01*
X160625362Y-96138556D01*
X160412430Y-96211656D01*
X160412419Y-96211661D01*
X160214427Y-96318808D01*
X160214422Y-96318812D01*
X160036761Y-96457092D01*
X160036756Y-96457097D01*
X159884284Y-96622723D01*
X159884276Y-96622734D01*
X159793808Y-96761206D01*
X159740662Y-96806562D01*
X159671431Y-96815986D01*
X159608095Y-96786484D01*
X159586192Y-96761206D01*
X159495723Y-96622734D01*
X159495715Y-96622723D01*
X159343243Y-96457097D01*
X159343238Y-96457092D01*
X159186747Y-96335289D01*
X159165576Y-96318811D01*
X159165575Y-96318810D01*
X159165572Y-96318808D01*
X158967580Y-96211661D01*
X158967577Y-96211659D01*
X158967574Y-96211658D01*
X158967571Y-96211657D01*
X158967569Y-96211656D01*
X158754637Y-96138556D01*
X158532569Y-96101500D01*
X158307431Y-96101500D01*
X158085362Y-96138556D01*
X157872430Y-96211656D01*
X157872419Y-96211661D01*
X157674427Y-96318808D01*
X157674422Y-96318812D01*
X157496761Y-96457092D01*
X157496756Y-96457097D01*
X157344284Y-96622723D01*
X157344276Y-96622734D01*
X157253808Y-96761206D01*
X157200662Y-96806562D01*
X157131431Y-96815986D01*
X157068095Y-96786484D01*
X157046192Y-96761206D01*
X156955723Y-96622734D01*
X156955715Y-96622723D01*
X156803243Y-96457097D01*
X156803238Y-96457092D01*
X156646747Y-96335289D01*
X156625576Y-96318811D01*
X156625575Y-96318810D01*
X156625572Y-96318808D01*
X156427580Y-96211661D01*
X156427577Y-96211659D01*
X156427574Y-96211658D01*
X156427571Y-96211657D01*
X156427569Y-96211656D01*
X156214637Y-96138556D01*
X155992569Y-96101500D01*
X155767431Y-96101500D01*
X155545362Y-96138556D01*
X155332430Y-96211656D01*
X155332419Y-96211661D01*
X155134427Y-96318808D01*
X155134422Y-96318812D01*
X154956761Y-96457092D01*
X154956756Y-96457097D01*
X154804284Y-96622723D01*
X154804276Y-96622734D01*
X154713808Y-96761206D01*
X154660662Y-96806562D01*
X154591431Y-96815986D01*
X154528095Y-96786484D01*
X154506192Y-96761206D01*
X154415723Y-96622734D01*
X154415715Y-96622723D01*
X154263243Y-96457097D01*
X154263238Y-96457092D01*
X154106747Y-96335289D01*
X154085576Y-96318811D01*
X154085575Y-96318810D01*
X154085572Y-96318808D01*
X153887580Y-96211661D01*
X153887577Y-96211659D01*
X153887574Y-96211658D01*
X153887571Y-96211657D01*
X153887569Y-96211656D01*
X153674637Y-96138556D01*
X153452569Y-96101500D01*
X153227431Y-96101500D01*
X153005362Y-96138556D01*
X152792430Y-96211656D01*
X152792419Y-96211661D01*
X152594427Y-96318808D01*
X152594422Y-96318812D01*
X152416761Y-96457092D01*
X152353548Y-96525760D01*
X152293661Y-96561750D01*
X152223823Y-96559649D01*
X152166207Y-96520124D01*
X152146138Y-96485110D01*
X152100889Y-96363796D01*
X152079549Y-96335289D01*
X152013261Y-96246739D01*
X151896204Y-96159111D01*
X151895172Y-96158726D01*
X151759203Y-96108011D01*
X151698654Y-96101500D01*
X151698638Y-96101500D01*
X149901362Y-96101500D01*
X149901345Y-96101500D01*
X149840797Y-96108011D01*
X149840795Y-96108011D01*
X149703795Y-96159111D01*
X149586739Y-96246739D01*
X149499111Y-96363795D01*
X149448011Y-96500795D01*
X149448011Y-96500797D01*
X149441500Y-96561345D01*
X146739212Y-96561345D01*
X146643243Y-96457097D01*
X146643238Y-96457092D01*
X146486747Y-96335289D01*
X146465576Y-96318811D01*
X146465575Y-96318810D01*
X146465572Y-96318808D01*
X146267580Y-96211661D01*
X146267577Y-96211659D01*
X146267574Y-96211658D01*
X146267571Y-96211657D01*
X146267569Y-96211656D01*
X146054637Y-96138556D01*
X145832569Y-96101500D01*
X145607431Y-96101500D01*
X145385362Y-96138556D01*
X145172430Y-96211656D01*
X145172419Y-96211661D01*
X144974427Y-96318808D01*
X144974422Y-96318812D01*
X144796761Y-96457092D01*
X144796756Y-96457097D01*
X144644284Y-96622723D01*
X144644276Y-96622734D01*
X144550251Y-96766650D01*
X144497105Y-96812007D01*
X144427873Y-96821430D01*
X144364538Y-96791928D01*
X144344868Y-96769951D01*
X144218113Y-96588926D01*
X144218108Y-96588920D01*
X144051082Y-96421894D01*
X143857578Y-96286399D01*
X143643492Y-96186570D01*
X143643486Y-96186567D01*
X143430000Y-96129364D01*
X143430000Y-97026988D01*
X143372993Y-96994075D01*
X143245826Y-96960000D01*
X143114174Y-96960000D01*
X142987007Y-96994075D01*
X142930000Y-97026988D01*
X142930000Y-96129364D01*
X142929999Y-96129364D01*
X142716513Y-96186567D01*
X142716507Y-96186570D01*
X142502422Y-96286399D01*
X142502420Y-96286400D01*
X142308926Y-96421886D01*
X142308920Y-96421891D01*
X142141891Y-96588920D01*
X142141890Y-96588922D01*
X142011575Y-96775031D01*
X141956998Y-96818655D01*
X141887499Y-96825848D01*
X141825145Y-96794326D01*
X141808425Y-96775031D01*
X141678109Y-96588922D01*
X141678108Y-96588920D01*
X141511082Y-96421894D01*
X141317578Y-96286399D01*
X141103492Y-96186570D01*
X141103486Y-96186567D01*
X140890000Y-96129364D01*
X140890000Y-97026988D01*
X140832993Y-96994075D01*
X140705826Y-96960000D01*
X140574174Y-96960000D01*
X140447007Y-96994075D01*
X140390000Y-97026988D01*
X140390000Y-96129364D01*
X140389999Y-96129364D01*
X140176513Y-96186567D01*
X140176507Y-96186570D01*
X139962422Y-96286399D01*
X139962420Y-96286400D01*
X139768926Y-96421886D01*
X139768920Y-96421891D01*
X139601891Y-96588920D01*
X139601890Y-96588922D01*
X139475131Y-96769952D01*
X139420554Y-96813577D01*
X139351055Y-96820769D01*
X139288701Y-96789247D01*
X139269752Y-96766656D01*
X139175722Y-96622732D01*
X139175715Y-96622725D01*
X139175715Y-96622723D01*
X139023243Y-96457097D01*
X139023238Y-96457092D01*
X138906337Y-96366103D01*
X138865524Y-96309392D01*
X138858500Y-96268250D01*
X138858500Y-88825491D01*
X138829352Y-88678959D01*
X138829351Y-88678958D01*
X138829351Y-88678954D01*
X138829349Y-88678949D01*
X138772177Y-88540922D01*
X138772170Y-88540909D01*
X138689166Y-88416685D01*
X138689165Y-88416684D01*
X138583516Y-88311035D01*
X137593262Y-87320781D01*
X137559777Y-87259458D01*
X137564761Y-87189766D01*
X137606633Y-87133833D01*
X137672097Y-87109416D01*
X137680943Y-87109100D01*
X139465838Y-87109100D01*
X139465854Y-87109099D01*
X139492892Y-87106191D01*
X139526401Y-87102589D01*
X139663404Y-87051489D01*
X139780461Y-86963861D01*
X139868089Y-86846804D01*
X139913338Y-86725487D01*
X139955209Y-86669556D01*
X140020674Y-86645139D01*
X140088946Y-86659991D01*
X140120745Y-86684836D01*
X140183960Y-86753506D01*
X140361624Y-86891789D01*
X140361625Y-86891789D01*
X140361627Y-86891791D01*
X140441303Y-86934909D01*
X140559626Y-86998942D01*
X140772565Y-87072044D01*
X140994631Y-87109100D01*
X141219769Y-87109100D01*
X141441835Y-87072044D01*
X141654774Y-86998942D01*
X141852776Y-86891789D01*
X142030440Y-86753506D01*
X142182922Y-86587868D01*
X142273393Y-86449390D01*
X142326538Y-86404037D01*
X142395769Y-86394613D01*
X142459105Y-86424115D01*
X142481004Y-86449387D01*
X142571478Y-86587868D01*
X142571483Y-86587873D01*
X142571484Y-86587876D01*
X142720411Y-86749651D01*
X142723960Y-86753506D01*
X142901624Y-86891789D01*
X142901625Y-86891789D01*
X142901627Y-86891791D01*
X142981303Y-86934909D01*
X143099626Y-86998942D01*
X143312565Y-87072044D01*
X143534631Y-87109100D01*
X143759769Y-87109100D01*
X143981835Y-87072044D01*
X144194774Y-86998942D01*
X144392776Y-86891789D01*
X144570440Y-86753506D01*
X144722922Y-86587868D01*
X144813393Y-86449390D01*
X144866538Y-86404037D01*
X144935769Y-86394613D01*
X144999105Y-86424115D01*
X145021004Y-86449387D01*
X145111478Y-86587868D01*
X145111483Y-86587873D01*
X145111484Y-86587876D01*
X145260411Y-86749651D01*
X145263960Y-86753506D01*
X145441624Y-86891789D01*
X145441625Y-86891789D01*
X145441627Y-86891791D01*
X145521303Y-86934909D01*
X145639626Y-86998942D01*
X145852565Y-87072044D01*
X146074631Y-87109100D01*
X146299769Y-87109100D01*
X146521835Y-87072044D01*
X146734774Y-86998942D01*
X146932776Y-86891789D01*
X147110440Y-86753506D01*
X147262922Y-86587868D01*
X147386060Y-86399391D01*
X147476496Y-86193216D01*
X147531764Y-85974968D01*
X147550356Y-85750600D01*
X147531764Y-85526232D01*
X147476496Y-85307984D01*
X147386060Y-85101809D01*
X147369906Y-85077084D01*
X147262923Y-84913334D01*
X147262915Y-84913323D01*
X147110443Y-84747697D01*
X147110438Y-84747692D01*
X146932777Y-84609412D01*
X146932772Y-84609408D01*
X146734780Y-84502261D01*
X146734777Y-84502259D01*
X146734774Y-84502258D01*
X146734771Y-84502257D01*
X146734769Y-84502256D01*
X146521837Y-84429156D01*
X146299769Y-84392100D01*
X146074631Y-84392100D01*
X145852562Y-84429156D01*
X145639630Y-84502256D01*
X145639619Y-84502261D01*
X145441627Y-84609408D01*
X145441622Y-84609412D01*
X145263961Y-84747692D01*
X145263956Y-84747697D01*
X145111484Y-84913323D01*
X145111476Y-84913334D01*
X145021008Y-85051806D01*
X144967862Y-85097162D01*
X144898631Y-85106586D01*
X144835295Y-85077084D01*
X144813392Y-85051806D01*
X144722923Y-84913334D01*
X144722915Y-84913323D01*
X144570443Y-84747697D01*
X144570438Y-84747692D01*
X144392777Y-84609412D01*
X144392772Y-84609408D01*
X144194780Y-84502261D01*
X144194777Y-84502259D01*
X144194774Y-84502258D01*
X144194771Y-84502257D01*
X144194769Y-84502256D01*
X143981837Y-84429156D01*
X143759769Y-84392100D01*
X143534631Y-84392100D01*
X143312562Y-84429156D01*
X143099630Y-84502256D01*
X143099619Y-84502261D01*
X142901627Y-84609408D01*
X142901622Y-84609412D01*
X142723961Y-84747692D01*
X142723956Y-84747697D01*
X142571484Y-84913323D01*
X142571476Y-84913334D01*
X142481008Y-85051806D01*
X142427862Y-85097162D01*
X142358631Y-85106586D01*
X142295295Y-85077084D01*
X142273392Y-85051806D01*
X142182923Y-84913334D01*
X142182915Y-84913323D01*
X142030443Y-84747697D01*
X142030438Y-84747692D01*
X141852777Y-84609412D01*
X141852772Y-84609408D01*
X141654780Y-84502261D01*
X141654777Y-84502259D01*
X141654774Y-84502258D01*
X141654771Y-84502257D01*
X141654769Y-84502256D01*
X141441837Y-84429156D01*
X141219769Y-84392100D01*
X140994631Y-84392100D01*
X140772562Y-84429156D01*
X140559630Y-84502256D01*
X140559619Y-84502261D01*
X140361627Y-84609408D01*
X140361622Y-84609412D01*
X140183961Y-84747692D01*
X140120748Y-84816360D01*
X140060861Y-84852350D01*
X139991023Y-84850249D01*
X139933407Y-84810724D01*
X139913338Y-84775710D01*
X139868089Y-84654396D01*
X139834414Y-84609412D01*
X139780461Y-84537339D01*
X139663404Y-84449711D01*
X139526403Y-84398611D01*
X139465854Y-84392100D01*
X139465838Y-84392100D01*
X137668562Y-84392100D01*
X137668545Y-84392100D01*
X137607997Y-84398611D01*
X137607995Y-84398611D01*
X137470995Y-84449711D01*
X137353939Y-84537339D01*
X137266311Y-84654395D01*
X137215211Y-84791395D01*
X137215211Y-84791397D01*
X137208700Y-84851945D01*
X137208700Y-86636857D01*
X137189015Y-86703896D01*
X137136211Y-86749651D01*
X137067053Y-86759595D01*
X137003497Y-86730570D01*
X136997019Y-86724538D01*
X136854819Y-86582338D01*
X136821334Y-86521015D01*
X136818500Y-86494657D01*
X136818500Y-83765929D01*
X136825459Y-83724974D01*
X136853217Y-83645647D01*
X136873616Y-83464600D01*
X136853217Y-83283553D01*
X136825458Y-83204221D01*
X136818500Y-83163267D01*
X136818500Y-80470825D01*
X136838185Y-80403786D01*
X136871375Y-80369251D01*
X136904300Y-80346198D01*
X137066198Y-80184300D01*
X137197523Y-79996749D01*
X137217618Y-79953655D01*
X137263790Y-79901215D01*
X137330983Y-79882063D01*
X137397864Y-79902278D01*
X137442382Y-79953655D01*
X137462477Y-79996749D01*
X137593802Y-80184300D01*
X137755700Y-80346198D01*
X137943251Y-80477523D01*
X138068091Y-80535736D01*
X138150750Y-80574281D01*
X138150752Y-80574281D01*
X138150757Y-80574284D01*
X138371913Y-80633543D01*
X138534832Y-80647796D01*
X138599998Y-80653498D01*
X138600000Y-80653498D01*
X138600002Y-80653498D01*
X138657021Y-80648509D01*
X138828087Y-80633543D01*
X139049243Y-80574284D01*
X139256749Y-80477523D01*
X139444300Y-80346198D01*
X139606198Y-80184300D01*
X139737523Y-79996749D01*
X139757618Y-79953655D01*
X139803790Y-79901215D01*
X139870983Y-79882063D01*
X139937864Y-79902278D01*
X139982382Y-79953655D01*
X140002477Y-79996749D01*
X140133802Y-80184300D01*
X140295700Y-80346198D01*
X140483251Y-80477523D01*
X140608091Y-80535736D01*
X140690750Y-80574281D01*
X140690752Y-80574281D01*
X140690757Y-80574284D01*
X140911913Y-80633543D01*
X141074832Y-80647796D01*
X141139998Y-80653498D01*
X141140000Y-80653498D01*
X141140002Y-80653498D01*
X141197021Y-80648509D01*
X141368087Y-80633543D01*
X141589243Y-80574284D01*
X141796749Y-80477523D01*
X141984300Y-80346198D01*
X142146198Y-80184300D01*
X142277523Y-79996749D01*
X142297618Y-79953655D01*
X142343790Y-79901215D01*
X142410983Y-79882063D01*
X142477864Y-79902278D01*
X142522382Y-79953655D01*
X142542477Y-79996749D01*
X142673802Y-80184300D01*
X142835700Y-80346198D01*
X143023251Y-80477523D01*
X143148091Y-80535736D01*
X143230750Y-80574281D01*
X143230752Y-80574281D01*
X143230757Y-80574284D01*
X143451913Y-80633543D01*
X143614832Y-80647796D01*
X143679998Y-80653498D01*
X143680000Y-80653498D01*
X143680002Y-80653498D01*
X143737021Y-80648509D01*
X143908087Y-80633543D01*
X144129243Y-80574284D01*
X144336749Y-80477523D01*
X144524300Y-80346198D01*
X144686198Y-80184300D01*
X144817523Y-79996749D01*
X144837618Y-79953655D01*
X144883790Y-79901215D01*
X144950983Y-79882063D01*
X145017864Y-79902278D01*
X145062382Y-79953655D01*
X145082477Y-79996749D01*
X145213802Y-80184300D01*
X145375700Y-80346198D01*
X145563251Y-80477523D01*
X145688091Y-80535736D01*
X145770750Y-80574281D01*
X145770752Y-80574281D01*
X145770757Y-80574284D01*
X145991913Y-80633543D01*
X146154832Y-80647796D01*
X146219998Y-80653498D01*
X146220000Y-80653498D01*
X146220002Y-80653498D01*
X146277021Y-80648509D01*
X146448087Y-80633543D01*
X146669243Y-80574284D01*
X146876749Y-80477523D01*
X147064300Y-80346198D01*
X147226198Y-80184300D01*
X147357523Y-79996749D01*
X147382307Y-79943598D01*
X147428479Y-79891159D01*
X147495672Y-79872007D01*
X147562553Y-79892222D01*
X147607071Y-79943599D01*
X147629864Y-79992479D01*
X147629865Y-79992481D01*
X147760342Y-80178820D01*
X147921179Y-80339657D01*
X148107517Y-80470134D01*
X148313673Y-80566265D01*
X148313682Y-80566269D01*
X148509999Y-80618872D01*
X148510000Y-80618871D01*
X148510000Y-79655686D01*
X148514394Y-79660080D01*
X148605606Y-79712741D01*
X148707339Y-79740000D01*
X148812661Y-79740000D01*
X148914394Y-79712741D01*
X149005606Y-79660080D01*
X149010000Y-79655686D01*
X149010000Y-80618872D01*
X149206317Y-80566269D01*
X149206326Y-80566265D01*
X149412482Y-80470134D01*
X149598820Y-80339657D01*
X149759657Y-80178820D01*
X149890133Y-79992483D01*
X149912927Y-79943600D01*
X149959098Y-79891160D01*
X150026292Y-79872007D01*
X150093173Y-79892221D01*
X150137691Y-79943596D01*
X150162477Y-79996749D01*
X150293802Y-80184300D01*
X150455700Y-80346198D01*
X150643251Y-80477523D01*
X150768091Y-80535736D01*
X150850750Y-80574281D01*
X150850752Y-80574281D01*
X150850757Y-80574284D01*
X151071913Y-80633543D01*
X151234832Y-80647796D01*
X151299998Y-80653498D01*
X151300000Y-80653498D01*
X151300002Y-80653498D01*
X151357021Y-80648509D01*
X151528087Y-80633543D01*
X151749243Y-80574284D01*
X151956749Y-80477523D01*
X152144300Y-80346198D01*
X152306198Y-80184300D01*
X152437523Y-79996749D01*
X152534284Y-79789243D01*
X152593543Y-79568087D01*
X152613498Y-79340000D01*
X152593543Y-79111913D01*
X152534284Y-78890757D01*
X152437523Y-78683251D01*
X152306198Y-78495700D01*
X152144300Y-78333802D01*
X151956749Y-78202477D01*
X151956745Y-78202475D01*
X151749249Y-78105718D01*
X151749238Y-78105714D01*
X151528089Y-78046457D01*
X151528081Y-78046456D01*
X151300002Y-78026502D01*
X151299998Y-78026502D01*
X151071918Y-78046456D01*
X151071910Y-78046457D01*
X150850761Y-78105714D01*
X150850750Y-78105718D01*
X150643254Y-78202475D01*
X150643252Y-78202476D01*
X150643251Y-78202477D01*
X150455700Y-78333802D01*
X150455698Y-78333803D01*
X150455695Y-78333806D01*
X150293806Y-78495695D01*
X150293803Y-78495698D01*
X150293802Y-78495700D01*
X150211767Y-78612856D01*
X150162476Y-78683252D01*
X150162474Y-78683256D01*
X150137691Y-78736402D01*
X150091518Y-78788841D01*
X150024324Y-78807992D01*
X149957444Y-78787775D01*
X149912927Y-78736399D01*
X149890133Y-78687517D01*
X149759657Y-78501179D01*
X149598820Y-78340342D01*
X149412482Y-78209865D01*
X149206328Y-78113734D01*
X149010000Y-78061127D01*
X149010000Y-79024314D01*
X149005606Y-79019920D01*
X148914394Y-78967259D01*
X148812661Y-78940000D01*
X148707339Y-78940000D01*
X148605606Y-78967259D01*
X148514394Y-79019920D01*
X148510000Y-79024314D01*
X148510000Y-78061127D01*
X148313671Y-78113734D01*
X148107517Y-78209865D01*
X147921179Y-78340342D01*
X147760342Y-78501179D01*
X147629865Y-78687517D01*
X147607071Y-78736401D01*
X147560898Y-78788840D01*
X147493705Y-78807992D01*
X147426824Y-78787776D01*
X147382307Y-78736401D01*
X147357523Y-78683251D01*
X147226198Y-78495700D01*
X147064300Y-78333802D01*
X146876749Y-78202477D01*
X146876745Y-78202475D01*
X146669249Y-78105718D01*
X146669238Y-78105714D01*
X146448089Y-78046457D01*
X146448081Y-78046456D01*
X146220002Y-78026502D01*
X146219998Y-78026502D01*
X145991918Y-78046456D01*
X145991910Y-78046457D01*
X145770761Y-78105714D01*
X145770750Y-78105718D01*
X145563254Y-78202475D01*
X145563252Y-78202476D01*
X145563251Y-78202477D01*
X145375700Y-78333802D01*
X145375698Y-78333803D01*
X145375695Y-78333806D01*
X145213806Y-78495695D01*
X145213803Y-78495698D01*
X145213802Y-78495700D01*
X145170442Y-78557625D01*
X145082476Y-78683251D01*
X145062382Y-78726345D01*
X145016209Y-78778784D01*
X144949016Y-78797936D01*
X144882135Y-78777720D01*
X144837618Y-78726345D01*
X144817523Y-78683251D01*
X144686198Y-78495700D01*
X144524300Y-78333802D01*
X144336749Y-78202477D01*
X144336745Y-78202475D01*
X144129249Y-78105718D01*
X144129238Y-78105714D01*
X143908089Y-78046457D01*
X143908081Y-78046456D01*
X143680002Y-78026502D01*
X143679998Y-78026502D01*
X143451918Y-78046456D01*
X143451910Y-78046457D01*
X143230761Y-78105714D01*
X143230750Y-78105718D01*
X143023254Y-78202475D01*
X143023252Y-78202476D01*
X143023251Y-78202477D01*
X142835700Y-78333802D01*
X142835698Y-78333803D01*
X142835695Y-78333806D01*
X142673806Y-78495695D01*
X142673803Y-78495698D01*
X142673802Y-78495700D01*
X142630442Y-78557625D01*
X142542476Y-78683251D01*
X142522382Y-78726345D01*
X142476209Y-78778784D01*
X142409016Y-78797936D01*
X142342135Y-78777720D01*
X142297618Y-78726345D01*
X142277523Y-78683251D01*
X142146198Y-78495700D01*
X141984300Y-78333802D01*
X141796749Y-78202477D01*
X141796745Y-78202475D01*
X141589249Y-78105718D01*
X141589238Y-78105714D01*
X141368089Y-78046457D01*
X141368081Y-78046456D01*
X141140002Y-78026502D01*
X141139998Y-78026502D01*
X140911918Y-78046456D01*
X140911910Y-78046457D01*
X140690761Y-78105714D01*
X140690750Y-78105718D01*
X140483254Y-78202475D01*
X140483252Y-78202476D01*
X140483251Y-78202477D01*
X140295700Y-78333802D01*
X140295698Y-78333803D01*
X140295695Y-78333806D01*
X140133806Y-78495695D01*
X140133803Y-78495698D01*
X140133802Y-78495700D01*
X140090442Y-78557625D01*
X140002476Y-78683251D01*
X139982382Y-78726345D01*
X139936209Y-78778784D01*
X139869016Y-78797936D01*
X139802135Y-78777720D01*
X139757618Y-78726345D01*
X139737523Y-78683251D01*
X139606198Y-78495700D01*
X139444300Y-78333802D01*
X139256749Y-78202477D01*
X139256745Y-78202475D01*
X139049249Y-78105718D01*
X139049238Y-78105714D01*
X138828089Y-78046457D01*
X138828081Y-78046456D01*
X138600002Y-78026502D01*
X138599998Y-78026502D01*
X138371918Y-78046456D01*
X138371910Y-78046457D01*
X138150761Y-78105714D01*
X138150750Y-78105718D01*
X137943254Y-78202475D01*
X137943252Y-78202476D01*
X137943251Y-78202477D01*
X137755700Y-78333802D01*
X137755698Y-78333803D01*
X137755695Y-78333806D01*
X137593806Y-78495695D01*
X137593803Y-78495698D01*
X137593802Y-78495700D01*
X137550442Y-78557625D01*
X137462476Y-78683251D01*
X137442382Y-78726345D01*
X137396209Y-78778784D01*
X137329016Y-78797936D01*
X137262135Y-78777720D01*
X137217618Y-78726345D01*
X137197523Y-78683251D01*
X137066198Y-78495700D01*
X136904300Y-78333802D01*
X136716749Y-78202477D01*
X136716745Y-78202475D01*
X136509249Y-78105718D01*
X136509238Y-78105714D01*
X136288089Y-78046457D01*
X136288081Y-78046456D01*
X136060002Y-78026502D01*
X136059998Y-78026502D01*
X135831918Y-78046456D01*
X135831910Y-78046457D01*
X135610761Y-78105714D01*
X135610750Y-78105718D01*
X135403254Y-78202475D01*
X135403252Y-78202476D01*
X135403251Y-78202477D01*
X135215700Y-78333802D01*
X135215698Y-78333803D01*
X135215695Y-78333806D01*
X135053802Y-78495699D01*
X135040986Y-78514002D01*
X134986408Y-78557625D01*
X134916909Y-78564816D01*
X134854556Y-78533291D01*
X134819144Y-78473060D01*
X134816124Y-78456129D01*
X134813596Y-78432620D01*
X134763354Y-78297913D01*
X134763350Y-78297906D01*
X134677190Y-78182812D01*
X134677187Y-78182809D01*
X134562093Y-78096649D01*
X134562086Y-78096645D01*
X134427379Y-78046403D01*
X134427372Y-78046401D01*
X134367844Y-78040000D01*
X133770000Y-78040000D01*
X133770000Y-79024314D01*
X133765606Y-79019920D01*
X133674394Y-78967259D01*
X133572661Y-78940000D01*
X133467339Y-78940000D01*
X133365606Y-78967259D01*
X133274394Y-79019920D01*
X133270000Y-79024314D01*
X133270000Y-78040000D01*
X132672155Y-78040000D01*
X132612627Y-78046401D01*
X132612620Y-78046403D01*
X132477913Y-78096645D01*
X132477906Y-78096649D01*
X132362812Y-78182809D01*
X132362809Y-78182812D01*
X132276649Y-78297906D01*
X132276645Y-78297913D01*
X132226403Y-78432620D01*
X132226401Y-78432627D01*
X132220000Y-78492155D01*
X132220000Y-79090000D01*
X133204314Y-79090000D01*
X133199920Y-79094394D01*
X133147259Y-79185606D01*
X133120000Y-79287339D01*
X133120000Y-79392661D01*
X133147259Y-79494394D01*
X133199920Y-79585606D01*
X133204314Y-79590000D01*
X132220000Y-79590000D01*
X132220000Y-80187844D01*
X132226401Y-80247372D01*
X132226403Y-80247379D01*
X132276645Y-80382086D01*
X132276649Y-80382093D01*
X132362809Y-80497187D01*
X132362812Y-80497190D01*
X132477906Y-80583350D01*
X132477913Y-80583354D01*
X132612620Y-80633596D01*
X132612627Y-80633598D01*
X132672155Y-80639999D01*
X132672172Y-80640000D01*
X133270000Y-80640000D01*
X133270000Y-79655686D01*
X133274394Y-79660080D01*
X133365606Y-79712741D01*
X133467339Y-79740000D01*
X133572661Y-79740000D01*
X133674394Y-79712741D01*
X133765606Y-79660080D01*
X133770000Y-79655686D01*
X133770000Y-80640000D01*
X134367828Y-80640000D01*
X134367844Y-80639999D01*
X134427372Y-80633598D01*
X134427379Y-80633596D01*
X134562086Y-80583354D01*
X134562093Y-80583350D01*
X134677187Y-80497190D01*
X134677190Y-80497187D01*
X134763350Y-80382093D01*
X134763354Y-80382086D01*
X134813596Y-80247379D01*
X134816124Y-80223871D01*
X134842861Y-80159319D01*
X134900253Y-80119470D01*
X134970079Y-80116975D01*
X135030168Y-80152627D01*
X135040984Y-80165994D01*
X135053802Y-80184300D01*
X135053805Y-80184303D01*
X135215695Y-80346194D01*
X135215698Y-80346196D01*
X135215700Y-80346198D01*
X135248623Y-80369250D01*
X135292247Y-80423824D01*
X135301500Y-80470825D01*
X135301500Y-83163267D01*
X135294542Y-83204221D01*
X135266783Y-83283550D01*
X135266781Y-83283558D01*
X135246384Y-83464596D01*
X135246384Y-83464603D01*
X135266781Y-83645638D01*
X135266783Y-83645648D01*
X135294541Y-83724974D01*
X135301500Y-83765929D01*
X135301500Y-86934909D01*
X135330647Y-87081439D01*
X135330649Y-87081447D01*
X135387825Y-87219482D01*
X135470835Y-87343717D01*
X135470836Y-87343718D01*
X137305181Y-89178062D01*
X137338666Y-89239385D01*
X137341500Y-89265743D01*
X137341500Y-96268250D01*
X137321815Y-96335289D01*
X137293663Y-96366103D01*
X137176761Y-96457092D01*
X137176756Y-96457097D01*
X137024284Y-96622723D01*
X137024276Y-96622734D01*
X136933808Y-96761206D01*
X136880662Y-96806562D01*
X136811431Y-96815986D01*
X136748095Y-96786484D01*
X136726192Y-96761206D01*
X136635723Y-96622734D01*
X136635715Y-96622723D01*
X136483243Y-96457097D01*
X136483238Y-96457092D01*
X136326747Y-96335289D01*
X136305576Y-96318811D01*
X136305575Y-96318810D01*
X136305572Y-96318808D01*
X136107580Y-96211661D01*
X136107577Y-96211659D01*
X136107574Y-96211658D01*
X136107571Y-96211657D01*
X136107569Y-96211656D01*
X135894637Y-96138556D01*
X135672569Y-96101500D01*
X135447431Y-96101500D01*
X135225362Y-96138556D01*
X135012430Y-96211656D01*
X135012419Y-96211661D01*
X134814427Y-96318808D01*
X134814422Y-96318812D01*
X134636761Y-96457092D01*
X134636756Y-96457097D01*
X134484284Y-96622723D01*
X134484276Y-96622734D01*
X134393808Y-96761206D01*
X134340662Y-96806562D01*
X134271431Y-96815986D01*
X134208095Y-96786484D01*
X134186192Y-96761206D01*
X134095723Y-96622734D01*
X134095715Y-96622723D01*
X133943243Y-96457097D01*
X133943238Y-96457092D01*
X133786747Y-96335289D01*
X133765576Y-96318811D01*
X133765575Y-96318810D01*
X133765572Y-96318808D01*
X133567580Y-96211661D01*
X133567577Y-96211659D01*
X133567574Y-96211658D01*
X133567571Y-96211657D01*
X133567569Y-96211656D01*
X133354637Y-96138556D01*
X133132569Y-96101500D01*
X132907431Y-96101500D01*
X132685362Y-96138556D01*
X132472430Y-96211656D01*
X132472419Y-96211661D01*
X132274427Y-96318808D01*
X132274422Y-96318812D01*
X132096761Y-96457092D01*
X132096756Y-96457097D01*
X131944284Y-96622723D01*
X131944276Y-96622734D01*
X131853808Y-96761206D01*
X131800662Y-96806562D01*
X131731431Y-96815986D01*
X131668095Y-96786484D01*
X131646192Y-96761206D01*
X131555723Y-96622734D01*
X131555715Y-96622723D01*
X131403243Y-96457097D01*
X131403238Y-96457092D01*
X131246747Y-96335289D01*
X131225576Y-96318811D01*
X131225575Y-96318810D01*
X131225572Y-96318808D01*
X131027580Y-96211661D01*
X131027577Y-96211659D01*
X131027574Y-96211658D01*
X131027571Y-96211657D01*
X131027569Y-96211656D01*
X130814637Y-96138556D01*
X130592569Y-96101500D01*
X130367431Y-96101500D01*
X130145362Y-96138556D01*
X129932430Y-96211656D01*
X129932419Y-96211661D01*
X129734427Y-96318808D01*
X129734422Y-96318812D01*
X129556761Y-96457092D01*
X129493548Y-96525760D01*
X129433661Y-96561750D01*
X129363823Y-96559649D01*
X129306207Y-96520124D01*
X129286138Y-96485110D01*
X129240889Y-96363796D01*
X129219549Y-96335289D01*
X129153261Y-96246739D01*
X129036204Y-96159111D01*
X129035172Y-96158726D01*
X128899203Y-96108011D01*
X128838654Y-96101500D01*
X128838638Y-96101500D01*
X127041362Y-96101500D01*
X127041345Y-96101500D01*
X126980797Y-96108011D01*
X126980795Y-96108011D01*
X126843795Y-96159111D01*
X126726739Y-96246739D01*
X126639111Y-96363795D01*
X126588011Y-96500795D01*
X126588011Y-96500797D01*
X126581500Y-96561345D01*
X100667734Y-96561345D01*
X100502204Y-66450000D01*
X108470898Y-66450000D01*
X109516988Y-66450000D01*
X109484075Y-66507007D01*
X109450000Y-66634174D01*
X109450000Y-66765826D01*
X109484075Y-66892993D01*
X109516988Y-66950000D01*
X108470898Y-66950000D01*
X108486934Y-67051247D01*
X108559897Y-67275802D01*
X108667085Y-67486171D01*
X108805866Y-67677186D01*
X108972813Y-67844133D01*
X109163828Y-67982914D01*
X109374197Y-68090102D01*
X109598752Y-68163065D01*
X109598751Y-68163065D01*
X109831948Y-68200000D01*
X110800000Y-68200000D01*
X110800000Y-67200000D01*
X111300000Y-67200000D01*
X111300000Y-68200000D01*
X112268052Y-68200000D01*
X112501247Y-68163065D01*
X112725802Y-68090102D01*
X112936171Y-67982914D01*
X113127186Y-67844133D01*
X113294133Y-67677186D01*
X113432914Y-67486171D01*
X113540102Y-67275802D01*
X113613065Y-67051247D01*
X113629102Y-66950000D01*
X112583012Y-66950000D01*
X112615925Y-66892993D01*
X112650000Y-66765826D01*
X112650000Y-66634174D01*
X112615925Y-66507007D01*
X112583012Y-66450000D01*
X113629102Y-66450000D01*
X113613065Y-66348752D01*
X113540102Y-66124197D01*
X113432914Y-65913828D01*
X113294133Y-65722813D01*
X113127186Y-65555866D01*
X112936171Y-65417085D01*
X112725802Y-65309897D01*
X112501247Y-65236934D01*
X112501248Y-65236934D01*
X112268052Y-65200000D01*
X111300000Y-65200000D01*
X111300000Y-66200000D01*
X110800000Y-66200000D01*
X110800000Y-65200000D01*
X109831948Y-65200000D01*
X109598752Y-65236934D01*
X109374197Y-65309897D01*
X109163828Y-65417085D01*
X108972813Y-65555866D01*
X108805866Y-65722813D01*
X108667085Y-65913828D01*
X108559897Y-66124197D01*
X108486934Y-66348752D01*
X108470898Y-66450000D01*
X100502204Y-66450000D01*
X100470496Y-60681947D01*
X106150000Y-60681947D01*
X106150000Y-61650000D01*
X107150000Y-61650000D01*
X107150000Y-62150000D01*
X106150000Y-62150000D01*
X106150000Y-63118052D01*
X106186934Y-63351247D01*
X106259897Y-63575802D01*
X106367085Y-63786171D01*
X106505866Y-63977186D01*
X106672813Y-64144133D01*
X106863828Y-64282914D01*
X107074195Y-64390102D01*
X107298744Y-64463063D01*
X107298750Y-64463065D01*
X107400000Y-64479101D01*
X107400000Y-63433012D01*
X107457007Y-63465925D01*
X107584174Y-63500000D01*
X107715826Y-63500000D01*
X107842993Y-63465925D01*
X107900000Y-63433012D01*
X107900000Y-64479100D01*
X108001249Y-64463065D01*
X108001255Y-64463063D01*
X108225804Y-64390102D01*
X108436171Y-64282914D01*
X108627186Y-64144133D01*
X108794133Y-63977186D01*
X108932914Y-63786171D01*
X109040102Y-63575802D01*
X109113065Y-63351247D01*
X109150000Y-63118052D01*
X109150000Y-62150000D01*
X108150000Y-62150000D01*
X108150000Y-61650000D01*
X109150000Y-61650000D01*
X109150000Y-60681947D01*
X109113065Y-60448752D01*
X109040102Y-60224197D01*
X108932914Y-60013828D01*
X108794133Y-59822813D01*
X108627186Y-59655866D01*
X108483326Y-59551345D01*
X112441500Y-59551345D01*
X112441500Y-64248654D01*
X112448011Y-64309202D01*
X112448011Y-64309204D01*
X112499111Y-64446204D01*
X112586739Y-64563261D01*
X112703796Y-64650889D01*
X112840799Y-64701989D01*
X112868050Y-64704918D01*
X112901345Y-64708499D01*
X112901362Y-64708500D01*
X114998638Y-64708500D01*
X114998654Y-64708499D01*
X115025692Y-64705591D01*
X115059201Y-64701989D01*
X115196204Y-64650889D01*
X115313261Y-64563261D01*
X115400889Y-64446204D01*
X115451989Y-64309201D01*
X115455591Y-64275692D01*
X115458499Y-64248654D01*
X115458500Y-64248637D01*
X115458500Y-59551362D01*
X115458499Y-59551345D01*
X115454815Y-59517085D01*
X115451989Y-59490799D01*
X115400889Y-59353796D01*
X115313261Y-59236739D01*
X115196204Y-59149111D01*
X115059203Y-59098011D01*
X114998654Y-59091500D01*
X114998638Y-59091500D01*
X112901362Y-59091500D01*
X112901345Y-59091500D01*
X112840797Y-59098011D01*
X112840795Y-59098011D01*
X112703795Y-59149111D01*
X112586739Y-59236739D01*
X112499111Y-59353795D01*
X112448011Y-59490795D01*
X112448011Y-59490797D01*
X112441500Y-59551345D01*
X108483326Y-59551345D01*
X108436171Y-59517085D01*
X108225802Y-59409897D01*
X108001247Y-59336934D01*
X107900000Y-59320897D01*
X107900000Y-60366988D01*
X107842993Y-60334075D01*
X107715826Y-60300000D01*
X107584174Y-60300000D01*
X107457007Y-60334075D01*
X107400000Y-60366988D01*
X107400000Y-59320897D01*
X107298752Y-59336934D01*
X107074197Y-59409897D01*
X106863828Y-59517085D01*
X106672813Y-59655866D01*
X106505866Y-59822813D01*
X106367085Y-60013828D01*
X106259897Y-60224197D01*
X106186934Y-60448752D01*
X106150000Y-60681947D01*
X100470496Y-60681947D01*
X100406421Y-49026111D01*
X100406626Y-49018293D01*
X100448188Y-48301345D01*
X117437500Y-48301345D01*
X117437500Y-50098654D01*
X117444011Y-50159202D01*
X117444011Y-50159204D01*
X117495111Y-50296204D01*
X117582739Y-50413261D01*
X117699796Y-50500889D01*
X117836799Y-50551989D01*
X117864050Y-50554918D01*
X117897345Y-50558499D01*
X117897362Y-50558500D01*
X119694638Y-50558500D01*
X119694654Y-50558499D01*
X119721692Y-50555591D01*
X119755201Y-50551989D01*
X119892204Y-50500889D01*
X120009261Y-50413261D01*
X120096889Y-50296204D01*
X120142138Y-50174887D01*
X120184009Y-50118956D01*
X120249474Y-50094539D01*
X120317746Y-50109391D01*
X120349545Y-50134236D01*
X120412760Y-50202906D01*
X120590424Y-50341189D01*
X120590425Y-50341189D01*
X120590427Y-50341191D01*
X120637516Y-50366674D01*
X120788426Y-50448342D01*
X121001365Y-50521444D01*
X121223431Y-50558500D01*
X121448569Y-50558500D01*
X121670635Y-50521444D01*
X121883574Y-50448342D01*
X122081576Y-50341189D01*
X122259240Y-50202906D01*
X122380594Y-50071082D01*
X122411715Y-50037276D01*
X122411715Y-50037275D01*
X122411722Y-50037268D01*
X122502193Y-49898790D01*
X122555338Y-49853437D01*
X122624569Y-49844013D01*
X122687905Y-49873515D01*
X122709804Y-49898787D01*
X122800278Y-50037268D01*
X122800283Y-50037273D01*
X122800284Y-50037276D01*
X122926968Y-50174889D01*
X122952760Y-50202906D01*
X123130424Y-50341189D01*
X123130425Y-50341189D01*
X123130427Y-50341191D01*
X123177516Y-50366674D01*
X123328426Y-50448342D01*
X123541365Y-50521444D01*
X123763431Y-50558500D01*
X123988569Y-50558500D01*
X124210635Y-50521444D01*
X124423574Y-50448342D01*
X124621576Y-50341189D01*
X124799240Y-50202906D01*
X124920594Y-50071082D01*
X124951715Y-50037276D01*
X124951715Y-50037275D01*
X124951722Y-50037268D01*
X125045749Y-49893347D01*
X125098894Y-49847994D01*
X125168125Y-49838570D01*
X125231461Y-49868072D01*
X125251130Y-49890048D01*
X125377890Y-50071078D01*
X125544917Y-50238105D01*
X125738421Y-50373600D01*
X125952507Y-50473429D01*
X125952516Y-50473433D01*
X126166000Y-50530634D01*
X126166000Y-49633012D01*
X126223007Y-49665925D01*
X126350174Y-49700000D01*
X126481826Y-49700000D01*
X126608993Y-49665925D01*
X126666000Y-49633012D01*
X126666000Y-50530633D01*
X126879483Y-50473433D01*
X126879492Y-50473429D01*
X127093578Y-50373600D01*
X127287082Y-50238105D01*
X127454105Y-50071082D01*
X127580868Y-49890048D01*
X127635445Y-49846423D01*
X127704944Y-49839231D01*
X127767298Y-49870753D01*
X127786251Y-49893350D01*
X127880276Y-50037265D01*
X127880284Y-50037276D01*
X128006968Y-50174889D01*
X128032760Y-50202906D01*
X128210424Y-50341189D01*
X128210426Y-50341190D01*
X128210433Y-50341195D01*
X128257516Y-50366674D01*
X128307107Y-50415892D01*
X128322500Y-50475729D01*
X128322500Y-54621798D01*
X128346843Y-54744177D01*
X128346845Y-54744185D01*
X128394598Y-54859472D01*
X128394603Y-54859481D01*
X128463928Y-54963232D01*
X128463931Y-54963236D01*
X133975729Y-60475033D01*
X134045313Y-60544617D01*
X134063968Y-60563272D01*
X134167718Y-60632596D01*
X134167724Y-60632599D01*
X134167725Y-60632600D01*
X134283015Y-60680355D01*
X134405401Y-60704699D01*
X134405405Y-60704700D01*
X134405406Y-60704700D01*
X136732291Y-60704700D01*
X136799330Y-60724385D01*
X136824440Y-60745727D01*
X136828347Y-60750066D01*
X136982848Y-60862318D01*
X137157312Y-60939994D01*
X137344113Y-60979700D01*
X137535087Y-60979700D01*
X137721888Y-60939994D01*
X137896352Y-60862318D01*
X138050853Y-60750066D01*
X138178640Y-60608144D01*
X138251113Y-60482616D01*
X138301680Y-60434402D01*
X138370287Y-60421178D01*
X138435152Y-60447146D01*
X138475680Y-60504060D01*
X138482500Y-60544617D01*
X138482500Y-60773433D01*
X138462815Y-60840472D01*
X138446180Y-60861114D01*
X135656167Y-63651129D01*
X135612047Y-63695249D01*
X135567927Y-63739368D01*
X135498603Y-63843118D01*
X135498598Y-63843127D01*
X135450845Y-63958414D01*
X135450843Y-63958422D01*
X135426500Y-64080801D01*
X135426500Y-65421647D01*
X135406815Y-65488686D01*
X135373624Y-65523221D01*
X135215699Y-65633802D01*
X135053806Y-65795695D01*
X134922476Y-65983251D01*
X134902382Y-66026345D01*
X134856209Y-66078784D01*
X134789016Y-66097936D01*
X134722135Y-66077720D01*
X134677618Y-66026345D01*
X134657523Y-65983251D01*
X134608912Y-65913828D01*
X134526198Y-65795700D01*
X134364300Y-65633802D01*
X134176749Y-65502477D01*
X134176745Y-65502475D01*
X133969249Y-65405718D01*
X133969238Y-65405714D01*
X133748089Y-65346457D01*
X133748081Y-65346456D01*
X133520002Y-65326502D01*
X133519998Y-65326502D01*
X133291918Y-65346456D01*
X133291910Y-65346457D01*
X133070761Y-65405714D01*
X133070750Y-65405718D01*
X132863254Y-65502475D01*
X132863252Y-65502476D01*
X132792856Y-65551767D01*
X132675700Y-65633802D01*
X132675698Y-65633803D01*
X132675695Y-65633806D01*
X132513806Y-65795695D01*
X132382476Y-65983252D01*
X132382475Y-65983254D01*
X132285718Y-66190750D01*
X132285714Y-66190761D01*
X132226457Y-66411910D01*
X132226456Y-66411918D01*
X132206502Y-66639998D01*
X132206502Y-66640001D01*
X132226456Y-66868081D01*
X132226457Y-66868089D01*
X132285714Y-67089238D01*
X132285718Y-67089249D01*
X132362382Y-67253655D01*
X132382477Y-67296749D01*
X132513802Y-67484300D01*
X132675700Y-67646198D01*
X132863251Y-67777523D01*
X132988091Y-67835736D01*
X133070750Y-67874281D01*
X133070752Y-67874281D01*
X133070757Y-67874284D01*
X133291913Y-67933543D01*
X133454832Y-67947796D01*
X133519998Y-67953498D01*
X133520000Y-67953498D01*
X133520002Y-67953498D01*
X133577021Y-67948509D01*
X133748087Y-67933543D01*
X133969243Y-67874284D01*
X134176749Y-67777523D01*
X134364300Y-67646198D01*
X134526198Y-67484300D01*
X134657523Y-67296749D01*
X134677618Y-67253655D01*
X134723790Y-67201215D01*
X134790983Y-67182063D01*
X134857864Y-67202278D01*
X134902382Y-67253655D01*
X134922477Y-67296749D01*
X135053802Y-67484300D01*
X135215700Y-67646198D01*
X135403251Y-67777523D01*
X135528091Y-67835736D01*
X135610750Y-67874281D01*
X135610752Y-67874281D01*
X135610757Y-67874284D01*
X135831913Y-67933543D01*
X135994832Y-67947796D01*
X136059998Y-67953498D01*
X136060000Y-67953498D01*
X136060002Y-67953498D01*
X136117021Y-67948509D01*
X136288087Y-67933543D01*
X136509243Y-67874284D01*
X136716749Y-67777523D01*
X136904300Y-67646198D01*
X137066198Y-67484300D01*
X137197523Y-67296749D01*
X137217618Y-67253655D01*
X137263790Y-67201215D01*
X137330983Y-67182063D01*
X137397864Y-67202278D01*
X137442382Y-67253655D01*
X137462477Y-67296749D01*
X137593802Y-67484300D01*
X137755700Y-67646198D01*
X137943251Y-67777523D01*
X138068091Y-67835736D01*
X138150750Y-67874281D01*
X138150752Y-67874281D01*
X138150757Y-67874284D01*
X138371913Y-67933543D01*
X138534832Y-67947796D01*
X138599998Y-67953498D01*
X138600000Y-67953498D01*
X138600002Y-67953498D01*
X138657021Y-67948509D01*
X138828087Y-67933543D01*
X139049243Y-67874284D01*
X139256749Y-67777523D01*
X139444300Y-67646198D01*
X139606198Y-67484300D01*
X139737523Y-67296749D01*
X139757618Y-67253655D01*
X139803790Y-67201215D01*
X139870983Y-67182063D01*
X139937864Y-67202278D01*
X139982382Y-67253655D01*
X140002477Y-67296749D01*
X140133802Y-67484300D01*
X140295700Y-67646198D01*
X140483251Y-67777523D01*
X140608091Y-67835736D01*
X140690750Y-67874281D01*
X140690752Y-67874281D01*
X140690757Y-67874284D01*
X140911913Y-67933543D01*
X141074832Y-67947796D01*
X141139998Y-67953498D01*
X141140000Y-67953498D01*
X141140002Y-67953498D01*
X141197021Y-67948509D01*
X141368087Y-67933543D01*
X141589243Y-67874284D01*
X141796749Y-67777523D01*
X141984300Y-67646198D01*
X142146198Y-67484300D01*
X142277523Y-67296749D01*
X142297618Y-67253655D01*
X142343790Y-67201215D01*
X142410983Y-67182063D01*
X142477864Y-67202278D01*
X142522382Y-67253655D01*
X142542477Y-67296749D01*
X142673802Y-67484300D01*
X142835700Y-67646198D01*
X143023251Y-67777523D01*
X143148091Y-67835736D01*
X143230750Y-67874281D01*
X143230752Y-67874281D01*
X143230757Y-67874284D01*
X143451913Y-67933543D01*
X143614832Y-67947796D01*
X143679998Y-67953498D01*
X143680000Y-67953498D01*
X143680002Y-67953498D01*
X143737021Y-67948509D01*
X143908087Y-67933543D01*
X144129243Y-67874284D01*
X144336749Y-67777523D01*
X144524300Y-67646198D01*
X144686198Y-67484300D01*
X144817523Y-67296749D01*
X144837618Y-67253655D01*
X144883790Y-67201215D01*
X144950983Y-67182063D01*
X145017864Y-67202278D01*
X145062382Y-67253655D01*
X145082477Y-67296749D01*
X145213802Y-67484300D01*
X145375700Y-67646198D01*
X145563251Y-67777523D01*
X145688091Y-67835736D01*
X145770750Y-67874281D01*
X145770752Y-67874281D01*
X145770757Y-67874284D01*
X145991913Y-67933543D01*
X146154832Y-67947796D01*
X146219998Y-67953498D01*
X146220000Y-67953498D01*
X146220002Y-67953498D01*
X146277021Y-67948509D01*
X146448087Y-67933543D01*
X146669243Y-67874284D01*
X146876749Y-67777523D01*
X147064300Y-67646198D01*
X147226198Y-67484300D01*
X147357523Y-67296749D01*
X147377618Y-67253655D01*
X147423790Y-67201215D01*
X147490983Y-67182063D01*
X147557864Y-67202278D01*
X147602382Y-67253655D01*
X147622477Y-67296749D01*
X147753802Y-67484300D01*
X147915700Y-67646198D01*
X148103251Y-67777523D01*
X148228091Y-67835736D01*
X148310750Y-67874281D01*
X148310752Y-67874281D01*
X148310757Y-67874284D01*
X148531913Y-67933543D01*
X148694832Y-67947796D01*
X148759998Y-67953498D01*
X148760000Y-67953498D01*
X148760002Y-67953498D01*
X148817021Y-67948509D01*
X148988087Y-67933543D01*
X149209243Y-67874284D01*
X149416749Y-67777523D01*
X149604300Y-67646198D01*
X149766198Y-67484300D01*
X149897523Y-67296749D01*
X149917618Y-67253655D01*
X149963790Y-67201215D01*
X150030983Y-67182063D01*
X150097864Y-67202278D01*
X150142382Y-67253655D01*
X150162477Y-67296749D01*
X150293802Y-67484300D01*
X150455700Y-67646198D01*
X150643251Y-67777523D01*
X150768091Y-67835736D01*
X150850750Y-67874281D01*
X150850752Y-67874281D01*
X150850757Y-67874284D01*
X151071913Y-67933543D01*
X151234832Y-67947796D01*
X151299998Y-67953498D01*
X151300000Y-67953498D01*
X151300002Y-67953498D01*
X151357021Y-67948509D01*
X151528087Y-67933543D01*
X151749243Y-67874284D01*
X151956749Y-67777523D01*
X152144300Y-67646198D01*
X152306198Y-67484300D01*
X152437523Y-67296749D01*
X152534284Y-67089243D01*
X152593543Y-66868087D01*
X152613498Y-66640000D01*
X152593543Y-66411913D01*
X152534284Y-66190757D01*
X152437523Y-65983251D01*
X152306198Y-65795700D01*
X152144300Y-65633802D01*
X151956749Y-65502477D01*
X151956745Y-65502475D01*
X151749249Y-65405718D01*
X151749238Y-65405714D01*
X151528089Y-65346457D01*
X151528081Y-65346456D01*
X151300002Y-65326502D01*
X151299998Y-65326502D01*
X151071918Y-65346456D01*
X151071910Y-65346457D01*
X150850761Y-65405714D01*
X150850750Y-65405718D01*
X150643254Y-65502475D01*
X150643252Y-65502476D01*
X150572856Y-65551767D01*
X150455700Y-65633802D01*
X150455698Y-65633803D01*
X150455695Y-65633806D01*
X150293806Y-65795695D01*
X150162476Y-65983251D01*
X150142382Y-66026345D01*
X150096209Y-66078784D01*
X150029016Y-66097936D01*
X149962135Y-66077720D01*
X149917618Y-66026345D01*
X149897523Y-65983251D01*
X149848912Y-65913828D01*
X149766198Y-65795700D01*
X149604300Y-65633802D01*
X149416749Y-65502477D01*
X149416745Y-65502475D01*
X149209249Y-65405718D01*
X149209238Y-65405714D01*
X148988089Y-65346457D01*
X148988081Y-65346456D01*
X148760002Y-65326502D01*
X148759998Y-65326502D01*
X148531918Y-65346456D01*
X148531910Y-65346457D01*
X148310761Y-65405714D01*
X148310750Y-65405718D01*
X148103254Y-65502475D01*
X148103252Y-65502476D01*
X148032856Y-65551767D01*
X147915700Y-65633802D01*
X147915698Y-65633803D01*
X147915695Y-65633806D01*
X147753806Y-65795695D01*
X147622476Y-65983251D01*
X147602382Y-66026345D01*
X147556209Y-66078784D01*
X147489016Y-66097936D01*
X147422135Y-66077720D01*
X147377618Y-66026345D01*
X147357523Y-65983251D01*
X147308912Y-65913828D01*
X147226198Y-65795700D01*
X147064300Y-65633802D01*
X146876749Y-65502477D01*
X146876745Y-65502475D01*
X146669249Y-65405718D01*
X146669238Y-65405714D01*
X146448089Y-65346457D01*
X146448081Y-65346456D01*
X146220002Y-65326502D01*
X146219998Y-65326502D01*
X145991918Y-65346456D01*
X145991910Y-65346457D01*
X145770761Y-65405714D01*
X145770750Y-65405718D01*
X145563254Y-65502475D01*
X145563252Y-65502476D01*
X145492856Y-65551767D01*
X145375700Y-65633802D01*
X145375698Y-65633803D01*
X145375695Y-65633806D01*
X145213806Y-65795695D01*
X145082476Y-65983251D01*
X145062382Y-66026345D01*
X145016209Y-66078784D01*
X144949016Y-66097936D01*
X144882135Y-66077720D01*
X144837618Y-66026345D01*
X144817523Y-65983251D01*
X144768912Y-65913828D01*
X144686198Y-65795700D01*
X144524300Y-65633802D01*
X144336749Y-65502477D01*
X144336745Y-65502475D01*
X144129249Y-65405718D01*
X144129238Y-65405714D01*
X143908089Y-65346457D01*
X143908081Y-65346456D01*
X143680002Y-65326502D01*
X143679998Y-65326502D01*
X143451918Y-65346456D01*
X143451910Y-65346457D01*
X143230761Y-65405714D01*
X143230750Y-65405718D01*
X143023254Y-65502475D01*
X143023252Y-65502476D01*
X142952856Y-65551767D01*
X142835700Y-65633802D01*
X142835698Y-65633803D01*
X142835695Y-65633806D01*
X142673806Y-65795695D01*
X142542476Y-65983251D01*
X142522382Y-66026345D01*
X142476209Y-66078784D01*
X142409016Y-66097936D01*
X142342135Y-66077720D01*
X142297618Y-66026345D01*
X142277523Y-65983251D01*
X142228912Y-65913828D01*
X142146198Y-65795700D01*
X141984300Y-65633802D01*
X141796749Y-65502477D01*
X141796745Y-65502475D01*
X141589249Y-65405718D01*
X141589238Y-65405714D01*
X141368089Y-65346457D01*
X141368081Y-65346456D01*
X141140002Y-65326502D01*
X141139998Y-65326502D01*
X140911918Y-65346456D01*
X140911910Y-65346457D01*
X140690761Y-65405714D01*
X140690750Y-65405718D01*
X140483254Y-65502475D01*
X140483252Y-65502476D01*
X140412856Y-65551767D01*
X140295700Y-65633802D01*
X140295698Y-65633803D01*
X140295695Y-65633806D01*
X140133806Y-65795695D01*
X140002476Y-65983251D01*
X139982382Y-66026345D01*
X139936209Y-66078784D01*
X139869016Y-66097936D01*
X139802135Y-66077720D01*
X139757618Y-66026345D01*
X139737523Y-65983251D01*
X139688912Y-65913828D01*
X139606198Y-65795700D01*
X139444300Y-65633802D01*
X139256749Y-65502477D01*
X139256745Y-65502475D01*
X139049249Y-65405718D01*
X139049238Y-65405714D01*
X138828089Y-65346457D01*
X138828081Y-65346456D01*
X138600002Y-65326502D01*
X138599998Y-65326502D01*
X138371918Y-65346456D01*
X138371910Y-65346457D01*
X138150761Y-65405714D01*
X138150750Y-65405718D01*
X137943254Y-65502475D01*
X137943252Y-65502476D01*
X137872856Y-65551767D01*
X137755700Y-65633802D01*
X137755698Y-65633803D01*
X137755695Y-65633806D01*
X137593806Y-65795695D01*
X137462476Y-65983251D01*
X137442382Y-66026345D01*
X137396209Y-66078784D01*
X137329016Y-66097936D01*
X137262135Y-66077720D01*
X137217618Y-66026345D01*
X137197523Y-65983251D01*
X137148912Y-65913828D01*
X137066198Y-65795700D01*
X136904300Y-65633802D01*
X136746376Y-65523221D01*
X136702751Y-65468644D01*
X136693500Y-65421647D01*
X136693500Y-64456966D01*
X136713185Y-64389927D01*
X136729819Y-64369285D01*
X139608069Y-61491036D01*
X139608072Y-61491033D01*
X139677401Y-61387275D01*
X139725155Y-61271984D01*
X139749500Y-61149593D01*
X139749500Y-61024806D01*
X139749500Y-50475729D01*
X139769185Y-50408690D01*
X139814484Y-50366674D01*
X139861566Y-50341195D01*
X139861572Y-50341191D01*
X139861576Y-50341189D01*
X140039240Y-50202906D01*
X140160594Y-50071082D01*
X140191715Y-50037276D01*
X140191715Y-50037275D01*
X140191722Y-50037268D01*
X140282193Y-49898790D01*
X140335338Y-49853437D01*
X140404569Y-49844013D01*
X140467905Y-49873515D01*
X140489804Y-49898787D01*
X140580278Y-50037268D01*
X140580283Y-50037273D01*
X140580284Y-50037276D01*
X140706968Y-50174889D01*
X140732760Y-50202906D01*
X140910424Y-50341189D01*
X140910425Y-50341189D01*
X140910427Y-50341191D01*
X140957516Y-50366674D01*
X141108426Y-50448342D01*
X141321365Y-50521444D01*
X141543431Y-50558500D01*
X141768569Y-50558500D01*
X141990635Y-50521444D01*
X142203574Y-50448342D01*
X142401576Y-50341189D01*
X142579240Y-50202906D01*
X142700594Y-50071082D01*
X142731715Y-50037276D01*
X142731717Y-50037273D01*
X142731722Y-50037268D01*
X142854860Y-49848791D01*
X142945296Y-49642616D01*
X143000564Y-49424368D01*
X143003164Y-49392993D01*
X143019156Y-49200005D01*
X143019156Y-49199994D01*
X143000565Y-48975640D01*
X143000563Y-48975628D01*
X142956063Y-48799901D01*
X142945296Y-48757384D01*
X142854860Y-48551209D01*
X142838706Y-48526484D01*
X142731723Y-48362734D01*
X142731715Y-48362723D01*
X142579243Y-48197097D01*
X142579238Y-48197092D01*
X142401577Y-48058812D01*
X142401572Y-48058808D01*
X142203580Y-47951661D01*
X142203577Y-47951659D01*
X142203574Y-47951658D01*
X142203571Y-47951657D01*
X142203569Y-47951656D01*
X141990637Y-47878556D01*
X141768569Y-47841500D01*
X141543431Y-47841500D01*
X141321362Y-47878556D01*
X141108430Y-47951656D01*
X141108419Y-47951661D01*
X140910427Y-48058808D01*
X140910422Y-48058812D01*
X140732761Y-48197092D01*
X140732756Y-48197097D01*
X140580284Y-48362723D01*
X140580276Y-48362734D01*
X140489808Y-48501206D01*
X140436662Y-48546562D01*
X140367431Y-48555986D01*
X140304095Y-48526484D01*
X140282192Y-48501206D01*
X140191723Y-48362734D01*
X140191715Y-48362723D01*
X140039243Y-48197097D01*
X140039238Y-48197092D01*
X139861577Y-48058812D01*
X139861572Y-48058808D01*
X139663580Y-47951661D01*
X139663577Y-47951659D01*
X139663574Y-47951658D01*
X139663571Y-47951657D01*
X139663569Y-47951656D01*
X139450637Y-47878556D01*
X139228569Y-47841500D01*
X139003431Y-47841500D01*
X138781362Y-47878556D01*
X138568430Y-47951656D01*
X138568419Y-47951661D01*
X138370427Y-48058808D01*
X138370422Y-48058812D01*
X138192761Y-48197092D01*
X138192756Y-48197097D01*
X138040284Y-48362723D01*
X138040276Y-48362734D01*
X137949808Y-48501206D01*
X137896662Y-48546562D01*
X137827431Y-48555986D01*
X137764095Y-48526484D01*
X137742192Y-48501206D01*
X137651723Y-48362734D01*
X137651715Y-48362723D01*
X137499243Y-48197097D01*
X137499238Y-48197092D01*
X137321577Y-48058812D01*
X137321572Y-48058808D01*
X137123580Y-47951661D01*
X137123577Y-47951659D01*
X137123574Y-47951658D01*
X137123571Y-47951657D01*
X137123569Y-47951656D01*
X136910637Y-47878556D01*
X136688569Y-47841500D01*
X136463431Y-47841500D01*
X136241362Y-47878556D01*
X136028430Y-47951656D01*
X136028419Y-47951661D01*
X135830427Y-48058808D01*
X135830422Y-48058812D01*
X135652761Y-48197092D01*
X135652756Y-48197097D01*
X135500284Y-48362723D01*
X135500276Y-48362734D01*
X135409808Y-48501206D01*
X135356662Y-48546562D01*
X135287431Y-48555986D01*
X135224095Y-48526484D01*
X135202192Y-48501206D01*
X135111723Y-48362734D01*
X135111715Y-48362723D01*
X134959243Y-48197097D01*
X134959238Y-48197092D01*
X134781577Y-48058812D01*
X134781572Y-48058808D01*
X134583580Y-47951661D01*
X134583577Y-47951659D01*
X134583574Y-47951658D01*
X134583571Y-47951657D01*
X134583569Y-47951656D01*
X134370637Y-47878556D01*
X134148569Y-47841500D01*
X133923431Y-47841500D01*
X133701362Y-47878556D01*
X133488430Y-47951656D01*
X133488419Y-47951661D01*
X133290427Y-48058808D01*
X133290422Y-48058812D01*
X133112761Y-48197092D01*
X133112756Y-48197097D01*
X132960284Y-48362723D01*
X132960276Y-48362734D01*
X132869808Y-48501206D01*
X132816662Y-48546562D01*
X132747431Y-48555986D01*
X132684095Y-48526484D01*
X132662192Y-48501206D01*
X132571723Y-48362734D01*
X132571715Y-48362723D01*
X132419243Y-48197097D01*
X132419238Y-48197092D01*
X132241577Y-48058812D01*
X132241572Y-48058808D01*
X132043580Y-47951661D01*
X132043577Y-47951659D01*
X132043574Y-47951658D01*
X132043571Y-47951657D01*
X132043569Y-47951656D01*
X131830637Y-47878556D01*
X131608569Y-47841500D01*
X131383431Y-47841500D01*
X131161362Y-47878556D01*
X130948430Y-47951656D01*
X130948419Y-47951661D01*
X130750427Y-48058808D01*
X130750422Y-48058812D01*
X130572761Y-48197092D01*
X130572756Y-48197097D01*
X130420284Y-48362723D01*
X130420276Y-48362734D01*
X130329808Y-48501206D01*
X130276662Y-48546562D01*
X130207431Y-48555986D01*
X130144095Y-48526484D01*
X130122192Y-48501206D01*
X130031723Y-48362734D01*
X130031715Y-48362723D01*
X129879243Y-48197097D01*
X129879238Y-48197092D01*
X129701577Y-48058812D01*
X129701572Y-48058808D01*
X129503580Y-47951661D01*
X129503577Y-47951659D01*
X129503574Y-47951658D01*
X129503571Y-47951657D01*
X129503569Y-47951656D01*
X129290637Y-47878556D01*
X129068569Y-47841500D01*
X128843431Y-47841500D01*
X128621362Y-47878556D01*
X128408430Y-47951656D01*
X128408419Y-47951661D01*
X128210427Y-48058808D01*
X128210422Y-48058812D01*
X128032761Y-48197092D01*
X128032756Y-48197097D01*
X127880284Y-48362723D01*
X127880276Y-48362734D01*
X127786251Y-48506650D01*
X127733105Y-48552007D01*
X127663873Y-48561430D01*
X127600538Y-48531928D01*
X127580868Y-48509951D01*
X127454113Y-48328926D01*
X127454108Y-48328920D01*
X127287082Y-48161894D01*
X127093578Y-48026399D01*
X126879492Y-47926570D01*
X126879486Y-47926567D01*
X126666000Y-47869364D01*
X126666000Y-48766988D01*
X126608993Y-48734075D01*
X126481826Y-48700000D01*
X126350174Y-48700000D01*
X126223007Y-48734075D01*
X126166000Y-48766988D01*
X126166000Y-47869364D01*
X126165999Y-47869364D01*
X125952513Y-47926567D01*
X125952507Y-47926570D01*
X125738422Y-48026399D01*
X125738420Y-48026400D01*
X125544926Y-48161886D01*
X125544920Y-48161891D01*
X125377891Y-48328920D01*
X125377890Y-48328922D01*
X125251131Y-48509952D01*
X125196554Y-48553577D01*
X125127055Y-48560769D01*
X125064701Y-48529247D01*
X125045752Y-48506656D01*
X124951722Y-48362732D01*
X124951715Y-48362725D01*
X124951715Y-48362723D01*
X124799243Y-48197097D01*
X124799238Y-48197092D01*
X124621577Y-48058812D01*
X124621572Y-48058808D01*
X124423580Y-47951661D01*
X124423577Y-47951659D01*
X124423574Y-47951658D01*
X124423571Y-47951657D01*
X124423569Y-47951656D01*
X124210637Y-47878556D01*
X123988569Y-47841500D01*
X123763431Y-47841500D01*
X123541362Y-47878556D01*
X123328430Y-47951656D01*
X123328419Y-47951661D01*
X123130427Y-48058808D01*
X123130422Y-48058812D01*
X122952761Y-48197092D01*
X122952756Y-48197097D01*
X122800284Y-48362723D01*
X122800276Y-48362734D01*
X122709808Y-48501206D01*
X122656662Y-48546562D01*
X122587431Y-48555986D01*
X122524095Y-48526484D01*
X122502192Y-48501206D01*
X122411723Y-48362734D01*
X122411715Y-48362723D01*
X122259243Y-48197097D01*
X122259238Y-48197092D01*
X122081577Y-48058812D01*
X122081572Y-48058808D01*
X121883580Y-47951661D01*
X121883577Y-47951659D01*
X121883574Y-47951658D01*
X121883571Y-47951657D01*
X121883569Y-47951656D01*
X121670637Y-47878556D01*
X121448569Y-47841500D01*
X121223431Y-47841500D01*
X121001362Y-47878556D01*
X120788430Y-47951656D01*
X120788419Y-47951661D01*
X120590427Y-48058808D01*
X120590422Y-48058812D01*
X120412761Y-48197092D01*
X120349548Y-48265760D01*
X120289661Y-48301750D01*
X120219823Y-48299649D01*
X120162207Y-48260124D01*
X120142138Y-48225110D01*
X120096889Y-48103796D01*
X120063214Y-48058812D01*
X120009261Y-47986739D01*
X119892204Y-47899111D01*
X119755203Y-47848011D01*
X119694654Y-47841500D01*
X119694638Y-47841500D01*
X117897362Y-47841500D01*
X117897345Y-47841500D01*
X117836797Y-47848011D01*
X117836795Y-47848011D01*
X117699795Y-47899111D01*
X117582739Y-47986739D01*
X117495111Y-48103795D01*
X117444011Y-48240795D01*
X117444011Y-48240797D01*
X117437500Y-48301345D01*
X100448188Y-48301345D01*
X100502218Y-47369324D01*
X100525749Y-47303539D01*
X100581113Y-47260917D01*
X100606667Y-47254020D01*
X101946230Y-47042510D01*
X101965492Y-47040995D01*
X163348184Y-47015620D01*
X163415229Y-47035277D01*
G37*
%TD.AperFunction*%
%TD*%
D21*
X136060000Y-83464600D03*
X137439600Y-60071200D03*
X127940000Y-97460000D03*
X130480000Y-97460000D03*
X133020000Y-97460000D03*
X135560000Y-97460000D03*
X138100000Y-97460000D03*
X140640000Y-97460000D03*
X143180000Y-97460000D03*
X145720000Y-97460000D03*
X150800000Y-97460000D03*
X153340000Y-97460000D03*
X155880000Y-97460000D03*
X158420000Y-97460000D03*
X160960000Y-97460000D03*
X163500000Y-97460000D03*
X118796000Y-49200000D03*
X121336000Y-49200000D03*
X123876000Y-49200000D03*
X126416000Y-49200000D03*
X128956000Y-49200000D03*
X131496000Y-49200000D03*
X134036000Y-49200000D03*
X136576000Y-49200000D03*
X139116000Y-49200000D03*
X141656000Y-49200000D03*
X145720000Y-49200000D03*
X148260000Y-49200000D03*
X150800000Y-49200000D03*
X153340000Y-49200000D03*
X155880000Y-49200000D03*
X158420000Y-49200000D03*
X160960000Y-49200000D03*
X163500000Y-49200000D03*
D22*
X113950000Y-61900000D03*
D23*
X107650000Y-61900000D03*
D24*
X111050000Y-66700000D03*
D21*
X115240000Y-49200000D03*
X138567200Y-85750600D03*
X141107200Y-85750600D03*
X143647200Y-85750600D03*
X146187200Y-85750600D03*
X133520000Y-79340000D03*
X136060000Y-79340000D03*
X138600000Y-79340000D03*
X141140000Y-79340000D03*
X143680000Y-79340000D03*
X146220000Y-79340000D03*
X148760000Y-79340000D03*
X151300000Y-79340000D03*
X151300000Y-66640000D03*
X148760000Y-66640000D03*
X146220000Y-66640000D03*
X143680000Y-66640000D03*
X141140000Y-66640000D03*
X138600000Y-66640000D03*
X136060000Y-66640000D03*
X133520000Y-66640000D03*
X113970000Y-97460000D03*
X166040000Y-64440000D03*
X166040000Y-92380000D03*
M02*
