%TF.GenerationSoftware,KiCad,Pcbnew,8.0.3*%
%TF.CreationDate,2024-07-23T14:12:28+08:00*%
%TF.ProjectId,Shao Rong Shield,5368616f-2052-46f6-9e67-20536869656c,rev?*%
%TF.SameCoordinates,Original*%
%TF.FileFunction,Copper,L2,Bot*%
%TF.FilePolarity,Positive*%
%FSLAX46Y46*%
G04 Gerber Fmt 4.6, Leading zero omitted, Abs format (unit mm)*
G04 Created by KiCad (PCBNEW 8.0.3) date 2024-07-23 14:12:28*
%MOMM*%
%LPD*%
G01*
G04 APERTURE LIST*
G04 Aperture macros list*
%AMRoundRect*
0 Rectangle with rounded corners*
0 $1 Rounding radius*
0 $2 $3 $4 $5 $6 $7 $8 $9 X,Y pos of 4 corners*
0 Add a 4 corners polygon primitive as box body*
4,1,4,$2,$3,$4,$5,$6,$7,$8,$9,$2,$3,0*
0 Add four circle primitives for the rounded corners*
1,1,$1+$1,$2,$3*
1,1,$1+$1,$4,$5*
1,1,$1+$1,$6,$7*
1,1,$1+$1,$8,$9*
0 Add four rect primitives between the rounded corners*
20,1,$1+$1,$2,$3,$4,$5,0*
20,1,$1+$1,$4,$5,$6,$7,0*
20,1,$1+$1,$6,$7,$8,$9,0*
20,1,$1+$1,$8,$9,$2,$3,0*%
G04 Aperture macros list end*
%TA.AperFunction,ComponentPad*%
%ADD10R,1.700000X1.700000*%
%TD*%
%TA.AperFunction,ComponentPad*%
%ADD11O,1.700000X1.700000*%
%TD*%
%TA.AperFunction,ComponentPad*%
%ADD12RoundRect,0.250000X-0.750000X0.600000X-0.750000X-0.600000X0.750000X-0.600000X0.750000X0.600000X0*%
%TD*%
%TA.AperFunction,ComponentPad*%
%ADD13O,2.000000X1.700000*%
%TD*%
%TA.AperFunction,ComponentPad*%
%ADD14RoundRect,0.250000X0.725000X-0.600000X0.725000X0.600000X-0.725000X0.600000X-0.725000X-0.600000X0*%
%TD*%
%TA.AperFunction,ComponentPad*%
%ADD15O,1.950000X1.700000*%
%TD*%
%TA.AperFunction,ViaPad*%
%ADD16C,0.500000*%
%TD*%
%TA.AperFunction,Conductor*%
%ADD17C,0.250000*%
%TD*%
%ADD18C,0.300000*%
%ADD19C,0.350000*%
G04 APERTURE END LIST*
D10*
%TO.P,J1,1,Pin_1*%
%TO.N,unconnected-(J1-Pin_1-Pad1)*%
X127940000Y-97460000D03*
D11*
%TO.P,J1,2,Pin_2*%
%TO.N,/IOREF*%
X130480000Y-97460000D03*
%TO.P,J1,3,Pin_3*%
%TO.N,/~{RESET}*%
X133020000Y-97460000D03*
%TO.P,J1,4,Pin_4*%
%TO.N,+3V3*%
X135560000Y-97460000D03*
%TO.P,J1,5,Pin_5*%
%TO.N,unconnected-(J1-Pin_5-Pad5)*%
X138100000Y-97460000D03*
%TO.P,J1,6,Pin_6*%
%TO.N,GND*%
X140640000Y-97460000D03*
%TO.P,J1,7,Pin_7*%
X143180000Y-97460000D03*
%TO.P,J1,8,Pin_8*%
%TO.N,VCC*%
X145720000Y-97460000D03*
%TD*%
D10*
%TO.P,J3,1,Pin_1*%
%TO.N,/A0*%
X150800000Y-97460000D03*
D11*
%TO.P,J3,2,Pin_2*%
%TO.N,/A1*%
X153340000Y-97460000D03*
%TO.P,J3,3,Pin_3*%
%TO.N,/A2*%
X155880000Y-97460000D03*
%TO.P,J3,4,Pin_4*%
%TO.N,/A3*%
X158420000Y-97460000D03*
%TO.P,J3,5,Pin_5*%
%TO.N,/SDA*%
X160960000Y-97460000D03*
%TO.P,J3,6,Pin_6*%
%TO.N,/SCL{slash}A5*%
X163500000Y-97460000D03*
%TD*%
D10*
%TO.P,J2,1,Pin_1*%
%TO.N,unconnected-(J2-Pin_1-Pad1)*%
X118796000Y-49200000D03*
D11*
%TO.P,J2,2,Pin_2*%
%TO.N,unconnected-(J2-Pin_2-Pad2)*%
X121336000Y-49200000D03*
%TO.P,J2,3,Pin_3*%
%TO.N,/AREF*%
X123876000Y-49200000D03*
%TO.P,J2,4,Pin_4*%
%TO.N,GND*%
X126416000Y-49200000D03*
%TO.P,J2,5,Pin_5*%
%TO.N,/13*%
X128956000Y-49200000D03*
%TO.P,J2,6,Pin_6*%
%TO.N,/12*%
X131496000Y-49200000D03*
%TO.P,J2,7,Pin_7*%
%TO.N,/\u002A11*%
X134036000Y-49200000D03*
%TO.P,J2,8,Pin_8*%
%TO.N,/\u002A10*%
X136576000Y-49200000D03*
%TO.P,J2,9,Pin_9*%
%TO.N,/\u002A9*%
X139116000Y-49200000D03*
%TO.P,J2,10,Pin_10*%
%TO.N,/8*%
X141656000Y-49200000D03*
%TD*%
D10*
%TO.P,J4,1,Pin_1*%
%TO.N,/7*%
X145720000Y-49200000D03*
D11*
%TO.P,J4,2,Pin_2*%
%TO.N,/\u002A6*%
X148260000Y-49200000D03*
%TO.P,J4,3,Pin_3*%
%TO.N,/\u002A5*%
X150800000Y-49200000D03*
%TO.P,J4,4,Pin_4*%
%TO.N,/4*%
X153340000Y-49200000D03*
%TO.P,J4,5,Pin_5*%
%TO.N,/\u002A3*%
X155880000Y-49200000D03*
%TO.P,J4,6,Pin_6*%
%TO.N,/2*%
X158420000Y-49200000D03*
%TO.P,J4,7,Pin_7*%
%TO.N,/TX{slash}1*%
X160960000Y-49200000D03*
%TO.P,J4,8,Pin_8*%
%TO.N,/RX{slash}0*%
X163500000Y-49200000D03*
%TD*%
D12*
%TO.P,J5,1,Pin_1*%
%TO.N,+5V*%
X105400000Y-60750000D03*
D13*
%TO.P,J5,2,Pin_2*%
%TO.N,GND*%
X105400000Y-63250000D03*
%TD*%
D14*
%TO.P,J11,1,Pin_1*%
%TO.N,+5V*%
X140425000Y-69375000D03*
D15*
%TO.P,J11,2,Pin_2*%
%TO.N,GND*%
X140425000Y-66875000D03*
%TO.P,J11,3,Pin_3*%
%TO.N,/\u002A5*%
X140425000Y-64375000D03*
%TD*%
D14*
%TO.P,J6,1,Pin_1*%
%TO.N,+5V*%
X112750000Y-69400000D03*
D15*
%TO.P,J6,2,Pin_2*%
%TO.N,GND*%
X112750000Y-66900000D03*
%TO.P,J6,3,Pin_3*%
%TO.N,/13*%
X112750000Y-64400000D03*
%TO.P,J6,4,Pin_4*%
%TO.N,/12*%
X112750000Y-61900000D03*
%TO.P,J6,5,Pin_5*%
%TO.N,/\u002A9*%
X112750000Y-59400000D03*
%TO.P,J6,6,Pin_6*%
%TO.N,/8*%
X112750000Y-56900000D03*
%TD*%
D14*
%TO.P,J12,1,Pin_1*%
%TO.N,+5V*%
X121859285Y-86275000D03*
D15*
%TO.P,J12,2,Pin_2*%
%TO.N,GND*%
X121859285Y-83775000D03*
%TO.P,J12,3,Pin_3*%
%TO.N,/A2*%
X121859285Y-81275000D03*
%TD*%
D14*
%TO.P,J7,1,Pin_1*%
%TO.N,+5V*%
X130968570Y-69400000D03*
D15*
%TO.P,J7,2,Pin_2*%
%TO.N,GND*%
X130968570Y-66900000D03*
%TO.P,J7,3,Pin_3*%
%TO.N,/A1*%
X130968570Y-64400000D03*
%TD*%
D14*
%TO.P,J8,1,Pin_1*%
%TO.N,+5V*%
X112750000Y-86275000D03*
D15*
%TO.P,J8,2,Pin_2*%
%TO.N,GND*%
X112750000Y-83775000D03*
%TO.P,J8,3,Pin_3*%
%TO.N,/SDA*%
X112750000Y-81275000D03*
%TO.P,J8,4,Pin_4*%
%TO.N,/SCL{slash}A5*%
X112750000Y-78775000D03*
%TD*%
D14*
%TO.P,J10,1,Pin_1*%
%TO.N,+5V*%
X121859285Y-69400000D03*
D15*
%TO.P,J10,2,Pin_2*%
%TO.N,GND*%
X121859285Y-66900000D03*
%TO.P,J10,3,Pin_3*%
%TO.N,/\u002A6*%
X121859285Y-64400000D03*
%TD*%
D14*
%TO.P,J9,1,Pin_1*%
%TO.N,GND*%
X150375000Y-69350000D03*
D15*
%TO.P,J9,2,Pin_2*%
%TO.N,/\u002A10*%
X150375000Y-66850000D03*
%TO.P,J9,3,Pin_3*%
%TO.N,/\u002A11*%
X150375000Y-64350000D03*
%TD*%
D16*
%TO.N,/A1*%
X138600000Y-60650000D03*
%TO.N,/\u002A11*%
X146850000Y-56125000D03*
%TO.N,/\u002A10*%
X147575000Y-54375000D03*
%TD*%
D17*
%TO.N,/A1*%
X153340000Y-75390000D02*
X153340000Y-97460000D01*
X138600000Y-60650000D02*
X153340000Y-75390000D01*
%TO.N,/\u002A11*%
X146725000Y-56000000D02*
X140836000Y-56000000D01*
X140836000Y-56000000D02*
X134036000Y-49200000D01*
X146850000Y-56125000D02*
X146725000Y-56000000D01*
%TO.N,/\u002A10*%
X147575000Y-54375000D02*
X141751000Y-54375000D01*
X141751000Y-54375000D02*
X136576000Y-49200000D01*
%TD*%
%TA.AperFunction,Conductor*%
%TO.N,GND*%
G36*
X142714075Y-97267007D02*
G01*
X142680000Y-97394174D01*
X142680000Y-97525826D01*
X142714075Y-97652993D01*
X142746988Y-97710000D01*
X141073012Y-97710000D01*
X141105925Y-97652993D01*
X141140000Y-97525826D01*
X141140000Y-97394174D01*
X141105925Y-97267007D01*
X141073012Y-97210000D01*
X142746988Y-97210000D01*
X142714075Y-97267007D01*
G37*
%TD.AperFunction*%
%TA.AperFunction,Conductor*%
G36*
X163517152Y-46819685D02*
G01*
X163535987Y-46834548D01*
X164329775Y-47596584D01*
X164331582Y-47598355D01*
X165928181Y-49194954D01*
X165961666Y-49256277D01*
X165964500Y-49282635D01*
X165964500Y-59344982D01*
X165964500Y-59375018D01*
X165975994Y-59402767D01*
X165975995Y-59402768D01*
X168314247Y-61741020D01*
X168347732Y-61802343D01*
X168350563Y-61827801D01*
X168504497Y-83039686D01*
X168504500Y-83040586D01*
X168504500Y-96107364D01*
X168484815Y-96174403D01*
X168468181Y-96195045D01*
X165997233Y-98665994D01*
X165975995Y-98687231D01*
X165964500Y-98714982D01*
X165964500Y-98796726D01*
X165959017Y-98833193D01*
X165673736Y-99760353D01*
X165635206Y-99818639D01*
X165613673Y-99833244D01*
X165551483Y-99866486D01*
X165529028Y-99875787D01*
X165487028Y-99888528D01*
X165423618Y-99907763D01*
X165399778Y-99912505D01*
X165291162Y-99923203D01*
X165284060Y-99923903D01*
X165271907Y-99924500D01*
X140911690Y-99924500D01*
X140911311Y-99924499D01*
X100414661Y-99800655D01*
X100347682Y-99780766D01*
X100336375Y-99772509D01*
X100335602Y-99771875D01*
X100286012Y-99731177D01*
X100268823Y-99713988D01*
X100227738Y-99663925D01*
X100200426Y-99599615D01*
X100199592Y-99585496D01*
X100193854Y-96561345D01*
X126581500Y-96561345D01*
X126581500Y-98358654D01*
X126588011Y-98419202D01*
X126588011Y-98419204D01*
X126639111Y-98556204D01*
X126726739Y-98673261D01*
X126843796Y-98760889D01*
X126980799Y-98811989D01*
X127008050Y-98814918D01*
X127041345Y-98818499D01*
X127041362Y-98818500D01*
X128838638Y-98818500D01*
X128838654Y-98818499D01*
X128865692Y-98815591D01*
X128899201Y-98811989D01*
X129036204Y-98760889D01*
X129153261Y-98673261D01*
X129240889Y-98556204D01*
X129286138Y-98434887D01*
X129328009Y-98378956D01*
X129393474Y-98354539D01*
X129461746Y-98369391D01*
X129493545Y-98394236D01*
X129556760Y-98462906D01*
X129734424Y-98601189D01*
X129734425Y-98601189D01*
X129734427Y-98601191D01*
X129861135Y-98669761D01*
X129932426Y-98708342D01*
X130145365Y-98781444D01*
X130367431Y-98818500D01*
X130592569Y-98818500D01*
X130814635Y-98781444D01*
X131027574Y-98708342D01*
X131225576Y-98601189D01*
X131403240Y-98462906D01*
X131524594Y-98331082D01*
X131555715Y-98297276D01*
X131555715Y-98297275D01*
X131555722Y-98297268D01*
X131646193Y-98158790D01*
X131699338Y-98113437D01*
X131768569Y-98104013D01*
X131831905Y-98133515D01*
X131853804Y-98158787D01*
X131944278Y-98297268D01*
X131944283Y-98297273D01*
X131944284Y-98297276D01*
X132070968Y-98434889D01*
X132096760Y-98462906D01*
X132274424Y-98601189D01*
X132274425Y-98601189D01*
X132274427Y-98601191D01*
X132401135Y-98669761D01*
X132472426Y-98708342D01*
X132685365Y-98781444D01*
X132907431Y-98818500D01*
X133132569Y-98818500D01*
X133354635Y-98781444D01*
X133567574Y-98708342D01*
X133765576Y-98601189D01*
X133943240Y-98462906D01*
X134064594Y-98331082D01*
X134095715Y-98297276D01*
X134095715Y-98297275D01*
X134095722Y-98297268D01*
X134186193Y-98158790D01*
X134239338Y-98113437D01*
X134308569Y-98104013D01*
X134371905Y-98133515D01*
X134393804Y-98158787D01*
X134484278Y-98297268D01*
X134484283Y-98297273D01*
X134484284Y-98297276D01*
X134610968Y-98434889D01*
X134636760Y-98462906D01*
X134814424Y-98601189D01*
X134814425Y-98601189D01*
X134814427Y-98601191D01*
X134941135Y-98669761D01*
X135012426Y-98708342D01*
X135225365Y-98781444D01*
X135447431Y-98818500D01*
X135672569Y-98818500D01*
X135894635Y-98781444D01*
X136107574Y-98708342D01*
X136305576Y-98601189D01*
X136483240Y-98462906D01*
X136604594Y-98331082D01*
X136635715Y-98297276D01*
X136635715Y-98297275D01*
X136635722Y-98297268D01*
X136726193Y-98158790D01*
X136779338Y-98113437D01*
X136848569Y-98104013D01*
X136911905Y-98133515D01*
X136933804Y-98158787D01*
X137024278Y-98297268D01*
X137024283Y-98297273D01*
X137024284Y-98297276D01*
X137150968Y-98434889D01*
X137176760Y-98462906D01*
X137354424Y-98601189D01*
X137354425Y-98601189D01*
X137354427Y-98601191D01*
X137481135Y-98669761D01*
X137552426Y-98708342D01*
X137765365Y-98781444D01*
X137987431Y-98818500D01*
X138212569Y-98818500D01*
X138434635Y-98781444D01*
X138647574Y-98708342D01*
X138845576Y-98601189D01*
X139023240Y-98462906D01*
X139144594Y-98331082D01*
X139175715Y-98297276D01*
X139175715Y-98297275D01*
X139175722Y-98297268D01*
X139269749Y-98153347D01*
X139322894Y-98107994D01*
X139392125Y-98098570D01*
X139455461Y-98128072D01*
X139475130Y-98150048D01*
X139601890Y-98331078D01*
X139768917Y-98498105D01*
X139962421Y-98633600D01*
X140176507Y-98733429D01*
X140176516Y-98733433D01*
X140390000Y-98790634D01*
X140390000Y-97893012D01*
X140447007Y-97925925D01*
X140574174Y-97960000D01*
X140705826Y-97960000D01*
X140832993Y-97925925D01*
X140890000Y-97893012D01*
X140890000Y-98790633D01*
X141103483Y-98733433D01*
X141103492Y-98733429D01*
X141317578Y-98633600D01*
X141511082Y-98498105D01*
X141678105Y-98331082D01*
X141808425Y-98144968D01*
X141863002Y-98101344D01*
X141932501Y-98094151D01*
X141994855Y-98125673D01*
X142011575Y-98144968D01*
X142141894Y-98331082D01*
X142308917Y-98498105D01*
X142502421Y-98633600D01*
X142716507Y-98733429D01*
X142716516Y-98733433D01*
X142930000Y-98790634D01*
X142930000Y-97893012D01*
X142987007Y-97925925D01*
X143114174Y-97960000D01*
X143245826Y-97960000D01*
X143372993Y-97925925D01*
X143430000Y-97893012D01*
X143430000Y-98790633D01*
X143643483Y-98733433D01*
X143643492Y-98733429D01*
X143857578Y-98633600D01*
X144051082Y-98498105D01*
X144218105Y-98331082D01*
X144344868Y-98150048D01*
X144399445Y-98106423D01*
X144468944Y-98099231D01*
X144531298Y-98130753D01*
X144550251Y-98153350D01*
X144644276Y-98297265D01*
X144644284Y-98297276D01*
X144770968Y-98434889D01*
X144796760Y-98462906D01*
X144974424Y-98601189D01*
X144974425Y-98601189D01*
X144974427Y-98601191D01*
X145101135Y-98669761D01*
X145172426Y-98708342D01*
X145385365Y-98781444D01*
X145607431Y-98818500D01*
X145832569Y-98818500D01*
X146054635Y-98781444D01*
X146267574Y-98708342D01*
X146465576Y-98601189D01*
X146643240Y-98462906D01*
X146764594Y-98331082D01*
X146795715Y-98297276D01*
X146795717Y-98297273D01*
X146795722Y-98297268D01*
X146918860Y-98108791D01*
X147009296Y-97902616D01*
X147064564Y-97684368D01*
X147067164Y-97652993D01*
X147083156Y-97460005D01*
X147083156Y-97459994D01*
X147064565Y-97235640D01*
X147064563Y-97235628D01*
X147009296Y-97017385D01*
X146999071Y-96994075D01*
X146918860Y-96811209D01*
X146902706Y-96786484D01*
X146795723Y-96622734D01*
X146795715Y-96622723D01*
X146643243Y-96457097D01*
X146643238Y-96457092D01*
X146465577Y-96318812D01*
X146465572Y-96318808D01*
X146267580Y-96211661D01*
X146267577Y-96211659D01*
X146267574Y-96211658D01*
X146267571Y-96211657D01*
X146267569Y-96211656D01*
X146054637Y-96138556D01*
X145832569Y-96101500D01*
X145607431Y-96101500D01*
X145385362Y-96138556D01*
X145172430Y-96211656D01*
X145172419Y-96211661D01*
X144974427Y-96318808D01*
X144974422Y-96318812D01*
X144796761Y-96457092D01*
X144796756Y-96457097D01*
X144644284Y-96622723D01*
X144644276Y-96622734D01*
X144550251Y-96766650D01*
X144497105Y-96812007D01*
X144427873Y-96821430D01*
X144364538Y-96791928D01*
X144344868Y-96769951D01*
X144218113Y-96588926D01*
X144218108Y-96588920D01*
X144051082Y-96421894D01*
X143857578Y-96286399D01*
X143643492Y-96186570D01*
X143643486Y-96186567D01*
X143430000Y-96129364D01*
X143430000Y-97026988D01*
X143372993Y-96994075D01*
X143245826Y-96960000D01*
X143114174Y-96960000D01*
X142987007Y-96994075D01*
X142930000Y-97026988D01*
X142930000Y-96129364D01*
X142929999Y-96129364D01*
X142716513Y-96186567D01*
X142716507Y-96186570D01*
X142502422Y-96286399D01*
X142502420Y-96286400D01*
X142308926Y-96421886D01*
X142308920Y-96421891D01*
X142141891Y-96588920D01*
X142141890Y-96588922D01*
X142011575Y-96775031D01*
X141956998Y-96818655D01*
X141887499Y-96825848D01*
X141825145Y-96794326D01*
X141808425Y-96775031D01*
X141678109Y-96588922D01*
X141678108Y-96588920D01*
X141511082Y-96421894D01*
X141317578Y-96286399D01*
X141103492Y-96186570D01*
X141103486Y-96186567D01*
X140890000Y-96129364D01*
X140890000Y-97026988D01*
X140832993Y-96994075D01*
X140705826Y-96960000D01*
X140574174Y-96960000D01*
X140447007Y-96994075D01*
X140390000Y-97026988D01*
X140390000Y-96129364D01*
X140389999Y-96129364D01*
X140176513Y-96186567D01*
X140176507Y-96186570D01*
X139962422Y-96286399D01*
X139962420Y-96286400D01*
X139768926Y-96421886D01*
X139768920Y-96421891D01*
X139601891Y-96588920D01*
X139601890Y-96588922D01*
X139475131Y-96769952D01*
X139420554Y-96813577D01*
X139351055Y-96820769D01*
X139288701Y-96789247D01*
X139269752Y-96766656D01*
X139175722Y-96622732D01*
X139175715Y-96622725D01*
X139175715Y-96622723D01*
X139023243Y-96457097D01*
X139023238Y-96457092D01*
X138845577Y-96318812D01*
X138845572Y-96318808D01*
X138647580Y-96211661D01*
X138647577Y-96211659D01*
X138647574Y-96211658D01*
X138647571Y-96211657D01*
X138647569Y-96211656D01*
X138434637Y-96138556D01*
X138212569Y-96101500D01*
X137987431Y-96101500D01*
X137765362Y-96138556D01*
X137552430Y-96211656D01*
X137552419Y-96211661D01*
X137354427Y-96318808D01*
X137354422Y-96318812D01*
X137176761Y-96457092D01*
X137176756Y-96457097D01*
X137024284Y-96622723D01*
X137024276Y-96622734D01*
X136933808Y-96761206D01*
X136880662Y-96806562D01*
X136811431Y-96815986D01*
X136748095Y-96786484D01*
X136726192Y-96761206D01*
X136635723Y-96622734D01*
X136635715Y-96622723D01*
X136483243Y-96457097D01*
X136483238Y-96457092D01*
X136305577Y-96318812D01*
X136305572Y-96318808D01*
X136107580Y-96211661D01*
X136107577Y-96211659D01*
X136107574Y-96211658D01*
X136107571Y-96211657D01*
X136107569Y-96211656D01*
X135894637Y-96138556D01*
X135672569Y-96101500D01*
X135447431Y-96101500D01*
X135225362Y-96138556D01*
X135012430Y-96211656D01*
X135012419Y-96211661D01*
X134814427Y-96318808D01*
X134814422Y-96318812D01*
X134636761Y-96457092D01*
X134636756Y-96457097D01*
X134484284Y-96622723D01*
X134484276Y-96622734D01*
X134393808Y-96761206D01*
X134340662Y-96806562D01*
X134271431Y-96815986D01*
X134208095Y-96786484D01*
X134186192Y-96761206D01*
X134095723Y-96622734D01*
X134095715Y-96622723D01*
X133943243Y-96457097D01*
X133943238Y-96457092D01*
X133765577Y-96318812D01*
X133765572Y-96318808D01*
X133567580Y-96211661D01*
X133567577Y-96211659D01*
X133567574Y-96211658D01*
X133567571Y-96211657D01*
X133567569Y-96211656D01*
X133354637Y-96138556D01*
X133132569Y-96101500D01*
X132907431Y-96101500D01*
X132685362Y-96138556D01*
X132472430Y-96211656D01*
X132472419Y-96211661D01*
X132274427Y-96318808D01*
X132274422Y-96318812D01*
X132096761Y-96457092D01*
X132096756Y-96457097D01*
X131944284Y-96622723D01*
X131944276Y-96622734D01*
X131853808Y-96761206D01*
X131800662Y-96806562D01*
X131731431Y-96815986D01*
X131668095Y-96786484D01*
X131646192Y-96761206D01*
X131555723Y-96622734D01*
X131555715Y-96622723D01*
X131403243Y-96457097D01*
X131403238Y-96457092D01*
X131225577Y-96318812D01*
X131225572Y-96318808D01*
X131027580Y-96211661D01*
X131027577Y-96211659D01*
X131027574Y-96211658D01*
X131027571Y-96211657D01*
X131027569Y-96211656D01*
X130814637Y-96138556D01*
X130592569Y-96101500D01*
X130367431Y-96101500D01*
X130145362Y-96138556D01*
X129932430Y-96211656D01*
X129932419Y-96211661D01*
X129734427Y-96318808D01*
X129734422Y-96318812D01*
X129556761Y-96457092D01*
X129493548Y-96525760D01*
X129433661Y-96561750D01*
X129363823Y-96559649D01*
X129306207Y-96520124D01*
X129286138Y-96485110D01*
X129240889Y-96363796D01*
X129207214Y-96318812D01*
X129153261Y-96246739D01*
X129036204Y-96159111D01*
X129035172Y-96158726D01*
X128899203Y-96108011D01*
X128838654Y-96101500D01*
X128838638Y-96101500D01*
X127041362Y-96101500D01*
X127041345Y-96101500D01*
X126980797Y-96108011D01*
X126980795Y-96108011D01*
X126843795Y-96159111D01*
X126726739Y-96246739D01*
X126639111Y-96363795D01*
X126588011Y-96500795D01*
X126588011Y-96500797D01*
X126581500Y-96561345D01*
X100193854Y-96561345D01*
X100159901Y-78668084D01*
X111266500Y-78668084D01*
X111266500Y-78881915D01*
X111299951Y-79093117D01*
X111366026Y-79296480D01*
X111366027Y-79296483D01*
X111463106Y-79487009D01*
X111588794Y-79660004D01*
X111739996Y-79811206D01*
X111842344Y-79885566D01*
X111896182Y-79924682D01*
X111938847Y-79980012D01*
X111944826Y-80049626D01*
X111912220Y-80111421D01*
X111896182Y-80125318D01*
X111827297Y-80175365D01*
X111739996Y-80238794D01*
X111739994Y-80238796D01*
X111739993Y-80238796D01*
X111588796Y-80389993D01*
X111463106Y-80562990D01*
X111366027Y-80753516D01*
X111366026Y-80753519D01*
X111299951Y-80956882D01*
X111266500Y-81168084D01*
X111266500Y-81381915D01*
X111299951Y-81593117D01*
X111366026Y-81796480D01*
X111366027Y-81796483D01*
X111463106Y-81987009D01*
X111588794Y-82160004D01*
X111739996Y-82311206D01*
X111739999Y-82311208D01*
X111903412Y-82429935D01*
X111946078Y-82485265D01*
X111952057Y-82554878D01*
X111919451Y-82616673D01*
X111903413Y-82630571D01*
X111745535Y-82745276D01*
X111595276Y-82895535D01*
X111595272Y-82895540D01*
X111470379Y-83067442D01*
X111373904Y-83256782D01*
X111308242Y-83458870D01*
X111308242Y-83458873D01*
X111297769Y-83525000D01*
X112345854Y-83525000D01*
X112307370Y-83591657D01*
X112275000Y-83712465D01*
X112275000Y-83837535D01*
X112307370Y-83958343D01*
X112345854Y-84025000D01*
X111297769Y-84025000D01*
X111308242Y-84091126D01*
X111308242Y-84091129D01*
X111373904Y-84293217D01*
X111470379Y-84482557D01*
X111595272Y-84654459D01*
X111595276Y-84654464D01*
X111728329Y-84787517D01*
X111761814Y-84848840D01*
X111756830Y-84918532D01*
X111714958Y-84974465D01*
X111705745Y-84980736D01*
X111551351Y-85075967D01*
X111551347Y-85075970D01*
X111425971Y-85201346D01*
X111332886Y-85352259D01*
X111332884Y-85352264D01*
X111277113Y-85520572D01*
X111266500Y-85624447D01*
X111266500Y-86925537D01*
X111266501Y-86925553D01*
X111277113Y-87029426D01*
X111332885Y-87197738D01*
X111425970Y-87348652D01*
X111551348Y-87474030D01*
X111702262Y-87567115D01*
X111870574Y-87622887D01*
X111974455Y-87633500D01*
X113525544Y-87633499D01*
X113629426Y-87622887D01*
X113797738Y-87567115D01*
X113948652Y-87474030D01*
X114074030Y-87348652D01*
X114167115Y-87197738D01*
X114222887Y-87029426D01*
X114233500Y-86925545D01*
X114233499Y-85624456D01*
X114222887Y-85520574D01*
X114167115Y-85352262D01*
X114074030Y-85201348D01*
X113948652Y-85075970D01*
X113797738Y-84982885D01*
X113797734Y-84982883D01*
X113794254Y-84980737D01*
X113747530Y-84928789D01*
X113736307Y-84859826D01*
X113764151Y-84795744D01*
X113771670Y-84787516D01*
X113904728Y-84654458D01*
X114029620Y-84482557D01*
X114126095Y-84293217D01*
X114191757Y-84091129D01*
X114191757Y-84091126D01*
X114202231Y-84025000D01*
X113154146Y-84025000D01*
X113192630Y-83958343D01*
X113225000Y-83837535D01*
X113225000Y-83712465D01*
X113192630Y-83591657D01*
X113154146Y-83525000D01*
X114202231Y-83525000D01*
X114191757Y-83458873D01*
X114191757Y-83458870D01*
X114126095Y-83256782D01*
X114029620Y-83067442D01*
X113904727Y-82895540D01*
X113904723Y-82895535D01*
X113754464Y-82745276D01*
X113754459Y-82745272D01*
X113596587Y-82630571D01*
X113553921Y-82575241D01*
X113547942Y-82505628D01*
X113580548Y-82443833D01*
X113596587Y-82429935D01*
X113760004Y-82311206D01*
X113911206Y-82160004D01*
X114036894Y-81987009D01*
X114133972Y-81796483D01*
X114200049Y-81593116D01*
X114233500Y-81381916D01*
X114233500Y-81168084D01*
X120375785Y-81168084D01*
X120375785Y-81381915D01*
X120409236Y-81593117D01*
X120475311Y-81796480D01*
X120475312Y-81796483D01*
X120572391Y-81987009D01*
X120698079Y-82160004D01*
X120849281Y-82311206D01*
X120849284Y-82311208D01*
X121012697Y-82429935D01*
X121055363Y-82485265D01*
X121061342Y-82554878D01*
X121028736Y-82616673D01*
X121012698Y-82630571D01*
X120854820Y-82745276D01*
X120704561Y-82895535D01*
X120704557Y-82895540D01*
X120579664Y-83067442D01*
X120483189Y-83256782D01*
X120417527Y-83458870D01*
X120417527Y-83458873D01*
X120407054Y-83525000D01*
X121455139Y-83525000D01*
X121416655Y-83591657D01*
X121384285Y-83712465D01*
X121384285Y-83837535D01*
X121416655Y-83958343D01*
X121455139Y-84025000D01*
X120407054Y-84025000D01*
X120417527Y-84091126D01*
X120417527Y-84091129D01*
X120483189Y-84293217D01*
X120579664Y-84482557D01*
X120704557Y-84654459D01*
X120704561Y-84654464D01*
X120837614Y-84787517D01*
X120871099Y-84848840D01*
X120866115Y-84918532D01*
X120824243Y-84974465D01*
X120815030Y-84980736D01*
X120660636Y-85075967D01*
X120660632Y-85075970D01*
X120535256Y-85201346D01*
X120442171Y-85352259D01*
X120442169Y-85352264D01*
X120386398Y-85520572D01*
X120375785Y-85624447D01*
X120375785Y-86925537D01*
X120375786Y-86925553D01*
X120386398Y-87029426D01*
X120442170Y-87197738D01*
X120535255Y-87348652D01*
X120660633Y-87474030D01*
X120811547Y-87567115D01*
X120979859Y-87622887D01*
X121083740Y-87633500D01*
X122634829Y-87633499D01*
X122738711Y-87622887D01*
X122907023Y-87567115D01*
X123057937Y-87474030D01*
X123183315Y-87348652D01*
X123276400Y-87197738D01*
X123332172Y-87029426D01*
X123342785Y-86925545D01*
X123342784Y-85624456D01*
X123332172Y-85520574D01*
X123276400Y-85352262D01*
X123183315Y-85201348D01*
X123057937Y-85075970D01*
X122907023Y-84982885D01*
X122907019Y-84982883D01*
X122903539Y-84980737D01*
X122856815Y-84928789D01*
X122845592Y-84859826D01*
X122873436Y-84795744D01*
X122880955Y-84787516D01*
X123014013Y-84654458D01*
X123138905Y-84482557D01*
X123235380Y-84293217D01*
X123301042Y-84091129D01*
X123301042Y-84091126D01*
X123311516Y-84025000D01*
X122263431Y-84025000D01*
X122301915Y-83958343D01*
X122334285Y-83837535D01*
X122334285Y-83712465D01*
X122301915Y-83591657D01*
X122263431Y-83525000D01*
X123311516Y-83525000D01*
X123301042Y-83458873D01*
X123301042Y-83458870D01*
X123235380Y-83256782D01*
X123138905Y-83067442D01*
X123014012Y-82895540D01*
X123014008Y-82895535D01*
X122863749Y-82745276D01*
X122863744Y-82745272D01*
X122705872Y-82630571D01*
X122663206Y-82575241D01*
X122657227Y-82505628D01*
X122689833Y-82443833D01*
X122705872Y-82429935D01*
X122869289Y-82311206D01*
X123020491Y-82160004D01*
X123146179Y-81987009D01*
X123243257Y-81796483D01*
X123309334Y-81593116D01*
X123342785Y-81381916D01*
X123342785Y-81168084D01*
X123309334Y-80956884D01*
X123243257Y-80753517D01*
X123243257Y-80753516D01*
X123146178Y-80562990D01*
X123020491Y-80389996D01*
X122869289Y-80238794D01*
X122696294Y-80113106D01*
X122692987Y-80111421D01*
X122505768Y-80016027D01*
X122505765Y-80016026D01*
X122302402Y-79949951D01*
X122196801Y-79933225D01*
X122091201Y-79916500D01*
X121627369Y-79916500D01*
X121575710Y-79924682D01*
X121416167Y-79949951D01*
X121212804Y-80016026D01*
X121212801Y-80016027D01*
X121022275Y-80113106D01*
X120849278Y-80238796D01*
X120698081Y-80389993D01*
X120572391Y-80562990D01*
X120475312Y-80753516D01*
X120475311Y-80753519D01*
X120409236Y-80956882D01*
X120375785Y-81168084D01*
X114233500Y-81168084D01*
X114200049Y-80956884D01*
X114133972Y-80753517D01*
X114133972Y-80753516D01*
X114036893Y-80562990D01*
X113911206Y-80389996D01*
X113760004Y-80238794D01*
X113760000Y-80238791D01*
X113603818Y-80125318D01*
X113561152Y-80069988D01*
X113555173Y-80000375D01*
X113587779Y-79938580D01*
X113603818Y-79924682D01*
X113654200Y-79888076D01*
X113760004Y-79811206D01*
X113911206Y-79660004D01*
X114036894Y-79487009D01*
X114133972Y-79296483D01*
X114200049Y-79093116D01*
X114233500Y-78881916D01*
X114233500Y-78668084D01*
X114200049Y-78456884D01*
X114133972Y-78253517D01*
X114133972Y-78253516D01*
X114036893Y-78062990D01*
X113911206Y-77889996D01*
X113760004Y-77738794D01*
X113587009Y-77613106D01*
X113396483Y-77516027D01*
X113396480Y-77516026D01*
X113193117Y-77449951D01*
X113087516Y-77433225D01*
X112981916Y-77416500D01*
X112518084Y-77416500D01*
X112447684Y-77427650D01*
X112306882Y-77449951D01*
X112103519Y-77516026D01*
X112103516Y-77516027D01*
X111912990Y-77613106D01*
X111739993Y-77738796D01*
X111588796Y-77889993D01*
X111463106Y-78062990D01*
X111366027Y-78253516D01*
X111366026Y-78253519D01*
X111299951Y-78456882D01*
X111266500Y-78668084D01*
X100159901Y-78668084D01*
X100124666Y-60099447D01*
X103891500Y-60099447D01*
X103891500Y-61400537D01*
X103891501Y-61400553D01*
X103902113Y-61504427D01*
X103957884Y-61672735D01*
X103957885Y-61672738D01*
X104050970Y-61823652D01*
X104176348Y-61949030D01*
X104327262Y-62042115D01*
X104327266Y-62042116D01*
X104330745Y-62044262D01*
X104377469Y-62096210D01*
X104388692Y-62165173D01*
X104360848Y-62229255D01*
X104353330Y-62237482D01*
X104220271Y-62370541D01*
X104095379Y-62542442D01*
X103998904Y-62731782D01*
X103933242Y-62933870D01*
X103933242Y-62933873D01*
X103922769Y-63000000D01*
X104966988Y-63000000D01*
X104934075Y-63057007D01*
X104900000Y-63184174D01*
X104900000Y-63315826D01*
X104934075Y-63442993D01*
X104966988Y-63500000D01*
X103922769Y-63500000D01*
X103933242Y-63566126D01*
X103933242Y-63566129D01*
X103998904Y-63768217D01*
X104095379Y-63957557D01*
X104220272Y-64129459D01*
X104220276Y-64129464D01*
X104370535Y-64279723D01*
X104370540Y-64279727D01*
X104542442Y-64404620D01*
X104731782Y-64501095D01*
X104933870Y-64566757D01*
X105143754Y-64600000D01*
X105150000Y-64600000D01*
X105150000Y-63683012D01*
X105207007Y-63715925D01*
X105334174Y-63750000D01*
X105465826Y-63750000D01*
X105592993Y-63715925D01*
X105650000Y-63683012D01*
X105650000Y-64600000D01*
X105656246Y-64600000D01*
X105866127Y-64566757D01*
X105866130Y-64566757D01*
X106068217Y-64501095D01*
X106257557Y-64404620D01*
X106429459Y-64279727D01*
X106429464Y-64279723D01*
X106579723Y-64129464D01*
X106579727Y-64129459D01*
X106704620Y-63957557D01*
X106801095Y-63768217D01*
X106866757Y-63566129D01*
X106866757Y-63566126D01*
X106877231Y-63500000D01*
X105833012Y-63500000D01*
X105865925Y-63442993D01*
X105900000Y-63315826D01*
X105900000Y-63184174D01*
X105865925Y-63057007D01*
X105833012Y-63000000D01*
X106877231Y-63000000D01*
X106866757Y-62933873D01*
X106866757Y-62933870D01*
X106801095Y-62731782D01*
X106704620Y-62542442D01*
X106579727Y-62370540D01*
X106579723Y-62370535D01*
X106446670Y-62237482D01*
X106413185Y-62176159D01*
X106418169Y-62106467D01*
X106460041Y-62050534D01*
X106469255Y-62044262D01*
X106472733Y-62042116D01*
X106472738Y-62042115D01*
X106623652Y-61949030D01*
X106749030Y-61823652D01*
X106842115Y-61672738D01*
X106897887Y-61504426D01*
X106908500Y-61400545D01*
X106908499Y-60099456D01*
X106897887Y-59995574D01*
X106842115Y-59827262D01*
X106749030Y-59676348D01*
X106623652Y-59550970D01*
X106472738Y-59457885D01*
X106472735Y-59457884D01*
X106304427Y-59402113D01*
X106200545Y-59391500D01*
X104599462Y-59391500D01*
X104599446Y-59391501D01*
X104495572Y-59402113D01*
X104327264Y-59457884D01*
X104327259Y-59457886D01*
X104176346Y-59550971D01*
X104050971Y-59676346D01*
X103957886Y-59827259D01*
X103957884Y-59827264D01*
X103902113Y-59995572D01*
X103891500Y-60099447D01*
X100124666Y-60099447D01*
X100118392Y-56793084D01*
X111266500Y-56793084D01*
X111266500Y-57006915D01*
X111299951Y-57218117D01*
X111366026Y-57421480D01*
X111366027Y-57421483D01*
X111463106Y-57612009D01*
X111588794Y-57785004D01*
X111739996Y-57936206D01*
X111842344Y-58010566D01*
X111896182Y-58049682D01*
X111938847Y-58105012D01*
X111944826Y-58174626D01*
X111912220Y-58236421D01*
X111896182Y-58250318D01*
X111827297Y-58300365D01*
X111739996Y-58363794D01*
X111739994Y-58363796D01*
X111739993Y-58363796D01*
X111588796Y-58514993D01*
X111463106Y-58687990D01*
X111366027Y-58878516D01*
X111366026Y-58878519D01*
X111299951Y-59081882D01*
X111266500Y-59293084D01*
X111266500Y-59506915D01*
X111299951Y-59718117D01*
X111366026Y-59921480D01*
X111366027Y-59921483D01*
X111433156Y-60053229D01*
X111463106Y-60112009D01*
X111588794Y-60285004D01*
X111739996Y-60436206D01*
X111828568Y-60500557D01*
X111896182Y-60549682D01*
X111938847Y-60605012D01*
X111944826Y-60674626D01*
X111912220Y-60736421D01*
X111896182Y-60750318D01*
X111827297Y-60800365D01*
X111739996Y-60863794D01*
X111739994Y-60863796D01*
X111739993Y-60863796D01*
X111588796Y-61014993D01*
X111463106Y-61187990D01*
X111366027Y-61378516D01*
X111366026Y-61378519D01*
X111299951Y-61581882D01*
X111285561Y-61672738D01*
X111266500Y-61793084D01*
X111266500Y-62006916D01*
X111282267Y-62106467D01*
X111299951Y-62218117D01*
X111366026Y-62421480D01*
X111366027Y-62421483D01*
X111463106Y-62612009D01*
X111588794Y-62785004D01*
X111739996Y-62936206D01*
X111816102Y-62991500D01*
X111896182Y-63049682D01*
X111938847Y-63105012D01*
X111944826Y-63174626D01*
X111912220Y-63236421D01*
X111896182Y-63250318D01*
X111827297Y-63300365D01*
X111739996Y-63363794D01*
X111739994Y-63363796D01*
X111739993Y-63363796D01*
X111588796Y-63514993D01*
X111463106Y-63687990D01*
X111366027Y-63878516D01*
X111366026Y-63878519D01*
X111299951Y-64081882D01*
X111266500Y-64293084D01*
X111266500Y-64506915D01*
X111299951Y-64718117D01*
X111366026Y-64921480D01*
X111366027Y-64921483D01*
X111450368Y-65087009D01*
X111463106Y-65112009D01*
X111588794Y-65285004D01*
X111739996Y-65436206D01*
X111739999Y-65436208D01*
X111903412Y-65554935D01*
X111946078Y-65610265D01*
X111952057Y-65679878D01*
X111919451Y-65741673D01*
X111903413Y-65755571D01*
X111745535Y-65870276D01*
X111595276Y-66020535D01*
X111595272Y-66020540D01*
X111470379Y-66192442D01*
X111373904Y-66381782D01*
X111308242Y-66583870D01*
X111308242Y-66583873D01*
X111297769Y-66650000D01*
X112345854Y-66650000D01*
X112307370Y-66716657D01*
X112275000Y-66837465D01*
X112275000Y-66962535D01*
X112307370Y-67083343D01*
X112345854Y-67150000D01*
X111297769Y-67150000D01*
X111308242Y-67216126D01*
X111308242Y-67216129D01*
X111373904Y-67418217D01*
X111470379Y-67607557D01*
X111595272Y-67779459D01*
X111595276Y-67779464D01*
X111728329Y-67912517D01*
X111761814Y-67973840D01*
X111756830Y-68043532D01*
X111714958Y-68099465D01*
X111705745Y-68105736D01*
X111551351Y-68200967D01*
X111551347Y-68200970D01*
X111425971Y-68326346D01*
X111332886Y-68477259D01*
X111332884Y-68477264D01*
X111277113Y-68645572D01*
X111266500Y-68749447D01*
X111266500Y-70050537D01*
X111266501Y-70050553D01*
X111274559Y-70129426D01*
X111277113Y-70154426D01*
X111332885Y-70322738D01*
X111425970Y-70473652D01*
X111551348Y-70599030D01*
X111702262Y-70692115D01*
X111870574Y-70747887D01*
X111974455Y-70758500D01*
X113525544Y-70758499D01*
X113629426Y-70747887D01*
X113797738Y-70692115D01*
X113948652Y-70599030D01*
X114074030Y-70473652D01*
X114167115Y-70322738D01*
X114222887Y-70154426D01*
X114233500Y-70050545D01*
X114233499Y-68749456D01*
X114222887Y-68645574D01*
X114167115Y-68477262D01*
X114074030Y-68326348D01*
X113948652Y-68200970D01*
X113797738Y-68107885D01*
X113797734Y-68107883D01*
X113794254Y-68105737D01*
X113747530Y-68053789D01*
X113736307Y-67984826D01*
X113764151Y-67920744D01*
X113771670Y-67912516D01*
X113904728Y-67779458D01*
X114029620Y-67607557D01*
X114126095Y-67418217D01*
X114191757Y-67216129D01*
X114191757Y-67216126D01*
X114202231Y-67150000D01*
X113154146Y-67150000D01*
X113192630Y-67083343D01*
X113225000Y-66962535D01*
X113225000Y-66837465D01*
X113192630Y-66716657D01*
X113154146Y-66650000D01*
X114202231Y-66650000D01*
X114191757Y-66583873D01*
X114191757Y-66583870D01*
X114126095Y-66381782D01*
X114029620Y-66192442D01*
X113904727Y-66020540D01*
X113904723Y-66020535D01*
X113754464Y-65870276D01*
X113754459Y-65870272D01*
X113596587Y-65755571D01*
X113553921Y-65700241D01*
X113547942Y-65630628D01*
X113580548Y-65568833D01*
X113596587Y-65554935D01*
X113611868Y-65543833D01*
X113760004Y-65436206D01*
X113911206Y-65285004D01*
X114036894Y-65112009D01*
X114133972Y-64921483D01*
X114200049Y-64718116D01*
X114233500Y-64506916D01*
X114233500Y-64293084D01*
X120375785Y-64293084D01*
X120375785Y-64506915D01*
X120409236Y-64718117D01*
X120475311Y-64921480D01*
X120475312Y-64921483D01*
X120559653Y-65087009D01*
X120572391Y-65112009D01*
X120698079Y-65285004D01*
X120849281Y-65436206D01*
X120849284Y-65436208D01*
X121012697Y-65554935D01*
X121055363Y-65610265D01*
X121061342Y-65679878D01*
X121028736Y-65741673D01*
X121012698Y-65755571D01*
X120854820Y-65870276D01*
X120704561Y-66020535D01*
X120704557Y-66020540D01*
X120579664Y-66192442D01*
X120483189Y-66381782D01*
X120417527Y-66583870D01*
X120417527Y-66583873D01*
X120407054Y-66650000D01*
X121455139Y-66650000D01*
X121416655Y-66716657D01*
X121384285Y-66837465D01*
X121384285Y-66962535D01*
X121416655Y-67083343D01*
X121455139Y-67150000D01*
X120407054Y-67150000D01*
X120417527Y-67216126D01*
X120417527Y-67216129D01*
X120483189Y-67418217D01*
X120579664Y-67607557D01*
X120704557Y-67779459D01*
X120704561Y-67779464D01*
X120837614Y-67912517D01*
X120871099Y-67973840D01*
X120866115Y-68043532D01*
X120824243Y-68099465D01*
X120815030Y-68105736D01*
X120660636Y-68200967D01*
X120660632Y-68200970D01*
X120535256Y-68326346D01*
X120442171Y-68477259D01*
X120442169Y-68477264D01*
X120386398Y-68645572D01*
X120375785Y-68749447D01*
X120375785Y-70050537D01*
X120375786Y-70050553D01*
X120383844Y-70129426D01*
X120386398Y-70154426D01*
X120442170Y-70322738D01*
X120535255Y-70473652D01*
X120660633Y-70599030D01*
X120811547Y-70692115D01*
X120979859Y-70747887D01*
X121083740Y-70758500D01*
X122634829Y-70758499D01*
X122738711Y-70747887D01*
X122907023Y-70692115D01*
X123057937Y-70599030D01*
X123183315Y-70473652D01*
X123276400Y-70322738D01*
X123332172Y-70154426D01*
X123342785Y-70050545D01*
X123342784Y-68749456D01*
X123332172Y-68645574D01*
X123276400Y-68477262D01*
X123183315Y-68326348D01*
X123057937Y-68200970D01*
X122907023Y-68107885D01*
X122907019Y-68107883D01*
X122903539Y-68105737D01*
X122856815Y-68053789D01*
X122845592Y-67984826D01*
X122873436Y-67920744D01*
X122880955Y-67912516D01*
X123014013Y-67779458D01*
X123138905Y-67607557D01*
X123235380Y-67418217D01*
X123301042Y-67216129D01*
X123301042Y-67216126D01*
X123311516Y-67150000D01*
X122263431Y-67150000D01*
X122301915Y-67083343D01*
X122334285Y-66962535D01*
X122334285Y-66837465D01*
X122301915Y-66716657D01*
X122263431Y-66650000D01*
X123311516Y-66650000D01*
X123301042Y-66583873D01*
X123301042Y-66583870D01*
X123235380Y-66381782D01*
X123138905Y-66192442D01*
X123014012Y-66020540D01*
X123014008Y-66020535D01*
X122863749Y-65870276D01*
X122863744Y-65870272D01*
X122705872Y-65755571D01*
X122663206Y-65700241D01*
X122657227Y-65630628D01*
X122689833Y-65568833D01*
X122705872Y-65554935D01*
X122721153Y-65543833D01*
X122869289Y-65436206D01*
X123020491Y-65285004D01*
X123146179Y-65112009D01*
X123243257Y-64921483D01*
X123309334Y-64718116D01*
X123342785Y-64506916D01*
X123342785Y-64293084D01*
X129485070Y-64293084D01*
X129485070Y-64506915D01*
X129518521Y-64718117D01*
X129584596Y-64921480D01*
X129584597Y-64921483D01*
X129668938Y-65087009D01*
X129681676Y-65112009D01*
X129807364Y-65285004D01*
X129958566Y-65436206D01*
X129958569Y-65436208D01*
X130121982Y-65554935D01*
X130164648Y-65610265D01*
X130170627Y-65679878D01*
X130138021Y-65741673D01*
X130121983Y-65755571D01*
X129964105Y-65870276D01*
X129813846Y-66020535D01*
X129813842Y-66020540D01*
X129688949Y-66192442D01*
X129592474Y-66381782D01*
X129526812Y-66583870D01*
X129526812Y-66583873D01*
X129516339Y-66650000D01*
X130564424Y-66650000D01*
X130525940Y-66716657D01*
X130493570Y-66837465D01*
X130493570Y-66962535D01*
X130525940Y-67083343D01*
X130564424Y-67150000D01*
X129516339Y-67150000D01*
X129526812Y-67216126D01*
X129526812Y-67216129D01*
X129592474Y-67418217D01*
X129688949Y-67607557D01*
X129813842Y-67779459D01*
X129813846Y-67779464D01*
X129946899Y-67912517D01*
X129980384Y-67973840D01*
X129975400Y-68043532D01*
X129933528Y-68099465D01*
X129924315Y-68105736D01*
X129769921Y-68200967D01*
X129769917Y-68200970D01*
X129644541Y-68326346D01*
X129551456Y-68477259D01*
X129551454Y-68477264D01*
X129495683Y-68645572D01*
X129485070Y-68749447D01*
X129485070Y-70050537D01*
X129485071Y-70050553D01*
X129493129Y-70129426D01*
X129495683Y-70154426D01*
X129551455Y-70322738D01*
X129644540Y-70473652D01*
X129769918Y-70599030D01*
X129920832Y-70692115D01*
X130089144Y-70747887D01*
X130193025Y-70758500D01*
X131744114Y-70758499D01*
X131847996Y-70747887D01*
X132016308Y-70692115D01*
X132167222Y-70599030D01*
X132292600Y-70473652D01*
X132385685Y-70322738D01*
X132441457Y-70154426D01*
X132452070Y-70050545D01*
X132452069Y-68749456D01*
X132441457Y-68645574D01*
X132385685Y-68477262D01*
X132292600Y-68326348D01*
X132167222Y-68200970D01*
X132016308Y-68107885D01*
X132016304Y-68107883D01*
X132012824Y-68105737D01*
X131966100Y-68053789D01*
X131954877Y-67984826D01*
X131982721Y-67920744D01*
X131990240Y-67912516D01*
X132123298Y-67779458D01*
X132248190Y-67607557D01*
X132344665Y-67418217D01*
X132410327Y-67216129D01*
X132410327Y-67216126D01*
X132420801Y-67150000D01*
X131372716Y-67150000D01*
X131411200Y-67083343D01*
X131443570Y-66962535D01*
X131443570Y-66837465D01*
X131411200Y-66716657D01*
X131372716Y-66650000D01*
X132420801Y-66650000D01*
X132410327Y-66583873D01*
X132410327Y-66583870D01*
X132344665Y-66381782D01*
X132248190Y-66192442D01*
X132123297Y-66020540D01*
X132123293Y-66020535D01*
X131973034Y-65870276D01*
X131973029Y-65870272D01*
X131815157Y-65755571D01*
X131772491Y-65700241D01*
X131766512Y-65630628D01*
X131799118Y-65568833D01*
X131815157Y-65554935D01*
X131830438Y-65543833D01*
X131978574Y-65436206D01*
X132129776Y-65285004D01*
X132255464Y-65112009D01*
X132352542Y-64921483D01*
X132418619Y-64718116D01*
X132452070Y-64506916D01*
X132452070Y-64293084D01*
X132418619Y-64081884D01*
X132352542Y-63878517D01*
X132352542Y-63878516D01*
X132255463Y-63687990D01*
X132237300Y-63662991D01*
X132129776Y-63514996D01*
X131978574Y-63363794D01*
X131805579Y-63238106D01*
X131756514Y-63213106D01*
X131615053Y-63141027D01*
X131615050Y-63141026D01*
X131411687Y-63074951D01*
X131253843Y-63049951D01*
X131200486Y-63041500D01*
X130736654Y-63041500D01*
X130684995Y-63049682D01*
X130525452Y-63074951D01*
X130322089Y-63141026D01*
X130322086Y-63141027D01*
X130131560Y-63238106D01*
X129958563Y-63363796D01*
X129807366Y-63514993D01*
X129681676Y-63687990D01*
X129584597Y-63878516D01*
X129584596Y-63878519D01*
X129518521Y-64081882D01*
X129485070Y-64293084D01*
X123342785Y-64293084D01*
X123309334Y-64081884D01*
X123243257Y-63878517D01*
X123243257Y-63878516D01*
X123146178Y-63687990D01*
X123128015Y-63662991D01*
X123020491Y-63514996D01*
X122869289Y-63363794D01*
X122696294Y-63238106D01*
X122647229Y-63213106D01*
X122505768Y-63141027D01*
X122505765Y-63141026D01*
X122302402Y-63074951D01*
X122144558Y-63049951D01*
X122091201Y-63041500D01*
X121627369Y-63041500D01*
X121575710Y-63049682D01*
X121416167Y-63074951D01*
X121212804Y-63141026D01*
X121212801Y-63141027D01*
X121022275Y-63238106D01*
X120849278Y-63363796D01*
X120698081Y-63514993D01*
X120572391Y-63687990D01*
X120475312Y-63878516D01*
X120475311Y-63878519D01*
X120409236Y-64081882D01*
X120375785Y-64293084D01*
X114233500Y-64293084D01*
X114200049Y-64081884D01*
X114133972Y-63878517D01*
X114133972Y-63878516D01*
X114036893Y-63687990D01*
X114018730Y-63662991D01*
X113911206Y-63514996D01*
X113760004Y-63363794D01*
X113725597Y-63338796D01*
X113603818Y-63250318D01*
X113561152Y-63194988D01*
X113555173Y-63125375D01*
X113587779Y-63063580D01*
X113603818Y-63049682D01*
X113683898Y-62991500D01*
X113760004Y-62936206D01*
X113911206Y-62785004D01*
X114036894Y-62612009D01*
X114133972Y-62421483D01*
X114200049Y-62218116D01*
X114233500Y-62006916D01*
X114233500Y-61793084D01*
X114200049Y-61581884D01*
X114141132Y-61400552D01*
X114133973Y-61378519D01*
X114133972Y-61378516D01*
X114036893Y-61187990D01*
X113911206Y-61014996D01*
X113760004Y-60863794D01*
X113699512Y-60819844D01*
X113603818Y-60750318D01*
X113561152Y-60694988D01*
X113557288Y-60649996D01*
X137836701Y-60649996D01*
X137836701Y-60650003D01*
X137855836Y-60819844D01*
X137855837Y-60819849D01*
X137871215Y-60863796D01*
X137912291Y-60981183D01*
X138003229Y-61125909D01*
X138124091Y-61246771D01*
X138268817Y-61337709D01*
X138430150Y-61394162D01*
X138430151Y-61394162D01*
X138431291Y-61394561D01*
X138478018Y-61423922D01*
X139931004Y-62876908D01*
X139964489Y-62938231D01*
X139959505Y-63007923D01*
X139917633Y-63063856D01*
X139881642Y-63082520D01*
X139778516Y-63116028D01*
X139587990Y-63213106D01*
X139414993Y-63338796D01*
X139263796Y-63489993D01*
X139138106Y-63662990D01*
X139041027Y-63853516D01*
X139041026Y-63853519D01*
X138974951Y-64056882D01*
X138970991Y-64081884D01*
X138941500Y-64268084D01*
X138941500Y-64481916D01*
X138945460Y-64506916D01*
X138974951Y-64693117D01*
X139041026Y-64896480D01*
X139041027Y-64896483D01*
X139125368Y-65062009D01*
X139138106Y-65087009D01*
X139263794Y-65260004D01*
X139414996Y-65411206D01*
X139449406Y-65436206D01*
X139578412Y-65529935D01*
X139621078Y-65585265D01*
X139627057Y-65654878D01*
X139594451Y-65716673D01*
X139578413Y-65730571D01*
X139420535Y-65845276D01*
X139270276Y-65995535D01*
X139270272Y-65995540D01*
X139145379Y-66167442D01*
X139048904Y-66356782D01*
X138983242Y-66558870D01*
X138983242Y-66558873D01*
X138972769Y-66625000D01*
X140020854Y-66625000D01*
X139982370Y-66691657D01*
X139950000Y-66812465D01*
X139950000Y-66937535D01*
X139982370Y-67058343D01*
X140020854Y-67125000D01*
X138972769Y-67125000D01*
X138983242Y-67191126D01*
X138983242Y-67191129D01*
X139048904Y-67393217D01*
X139145379Y-67582557D01*
X139270272Y-67754459D01*
X139270276Y-67754464D01*
X139403329Y-67887517D01*
X139436814Y-67948840D01*
X139431830Y-68018532D01*
X139389958Y-68074465D01*
X139380745Y-68080736D01*
X139226351Y-68175967D01*
X139226347Y-68175970D01*
X139100971Y-68301346D01*
X139007886Y-68452259D01*
X139007884Y-68452264D01*
X138952113Y-68620572D01*
X138941500Y-68724447D01*
X138941500Y-70025537D01*
X138941501Y-70025553D01*
X138952113Y-70129426D01*
X139007885Y-70297738D01*
X139100970Y-70448652D01*
X139226348Y-70574030D01*
X139377262Y-70667115D01*
X139545574Y-70722887D01*
X139649455Y-70733500D01*
X141200544Y-70733499D01*
X141304426Y-70722887D01*
X141472738Y-70667115D01*
X141623652Y-70574030D01*
X141749030Y-70448652D01*
X141842115Y-70297738D01*
X141897887Y-70129426D01*
X141908500Y-70025545D01*
X141908499Y-68724456D01*
X141897887Y-68620574D01*
X141842115Y-68452262D01*
X141749030Y-68301348D01*
X141623652Y-68175970D01*
X141472738Y-68082885D01*
X141472734Y-68082883D01*
X141469254Y-68080737D01*
X141422530Y-68028789D01*
X141411307Y-67959826D01*
X141439151Y-67895744D01*
X141446670Y-67887516D01*
X141579728Y-67754458D01*
X141704620Y-67582557D01*
X141801095Y-67393217D01*
X141866757Y-67191129D01*
X141866757Y-67191126D01*
X141877231Y-67125000D01*
X140829146Y-67125000D01*
X140867630Y-67058343D01*
X140900000Y-66937535D01*
X140900000Y-66812465D01*
X140867630Y-66691657D01*
X140829146Y-66625000D01*
X141877231Y-66625000D01*
X141866757Y-66558873D01*
X141866757Y-66558870D01*
X141801095Y-66356782D01*
X141704620Y-66167442D01*
X141579727Y-65995540D01*
X141579723Y-65995535D01*
X141429464Y-65845276D01*
X141429459Y-65845272D01*
X141271587Y-65730571D01*
X141228921Y-65675241D01*
X141222942Y-65605628D01*
X141255548Y-65543833D01*
X141271587Y-65529935D01*
X141294098Y-65513580D01*
X141435004Y-65411206D01*
X141586206Y-65260004D01*
X141711894Y-65087009D01*
X141779287Y-64954742D01*
X141827262Y-64903947D01*
X141895083Y-64887152D01*
X141961218Y-64909689D01*
X141977453Y-64923357D01*
X152670181Y-75616085D01*
X152703666Y-75677408D01*
X152706500Y-75703766D01*
X152706500Y-96184269D01*
X152686815Y-96251308D01*
X152641520Y-96293323D01*
X152594422Y-96318811D01*
X152594422Y-96318812D01*
X152416761Y-96457092D01*
X152353548Y-96525760D01*
X152293661Y-96561750D01*
X152223823Y-96559649D01*
X152166207Y-96520124D01*
X152146138Y-96485110D01*
X152100889Y-96363796D01*
X152067214Y-96318812D01*
X152013261Y-96246739D01*
X151896204Y-96159111D01*
X151895172Y-96158726D01*
X151759203Y-96108011D01*
X151698654Y-96101500D01*
X151698638Y-96101500D01*
X149901362Y-96101500D01*
X149901345Y-96101500D01*
X149840797Y-96108011D01*
X149840795Y-96108011D01*
X149703795Y-96159111D01*
X149586739Y-96246739D01*
X149499111Y-96363795D01*
X149448011Y-96500795D01*
X149448011Y-96500797D01*
X149441500Y-96561345D01*
X149441500Y-98358654D01*
X149448011Y-98419202D01*
X149448011Y-98419204D01*
X149499111Y-98556204D01*
X149586739Y-98673261D01*
X149703796Y-98760889D01*
X149840799Y-98811989D01*
X149868050Y-98814918D01*
X149901345Y-98818499D01*
X149901362Y-98818500D01*
X151698638Y-98818500D01*
X151698654Y-98818499D01*
X151725692Y-98815591D01*
X151759201Y-98811989D01*
X151896204Y-98760889D01*
X152013261Y-98673261D01*
X152100889Y-98556204D01*
X152146138Y-98434887D01*
X152188009Y-98378956D01*
X152253474Y-98354539D01*
X152321746Y-98369391D01*
X152353545Y-98394236D01*
X152416760Y-98462906D01*
X152594424Y-98601189D01*
X152594425Y-98601189D01*
X152594427Y-98601191D01*
X152721135Y-98669761D01*
X152792426Y-98708342D01*
X153005365Y-98781444D01*
X153227431Y-98818500D01*
X153452569Y-98818500D01*
X153674635Y-98781444D01*
X153887574Y-98708342D01*
X154085576Y-98601189D01*
X154263240Y-98462906D01*
X154384594Y-98331082D01*
X154415715Y-98297276D01*
X154415715Y-98297275D01*
X154415722Y-98297268D01*
X154506193Y-98158790D01*
X154559338Y-98113437D01*
X154628569Y-98104013D01*
X154691905Y-98133515D01*
X154713804Y-98158787D01*
X154804278Y-98297268D01*
X154804283Y-98297273D01*
X154804284Y-98297276D01*
X154930968Y-98434889D01*
X154956760Y-98462906D01*
X155134424Y-98601189D01*
X155134425Y-98601189D01*
X155134427Y-98601191D01*
X155261135Y-98669761D01*
X155332426Y-98708342D01*
X155545365Y-98781444D01*
X155767431Y-98818500D01*
X155992569Y-98818500D01*
X156214635Y-98781444D01*
X156427574Y-98708342D01*
X156625576Y-98601189D01*
X156803240Y-98462906D01*
X156924594Y-98331082D01*
X156955715Y-98297276D01*
X156955715Y-98297275D01*
X156955722Y-98297268D01*
X157046193Y-98158790D01*
X157099338Y-98113437D01*
X157168569Y-98104013D01*
X157231905Y-98133515D01*
X157253804Y-98158787D01*
X157344278Y-98297268D01*
X157344283Y-98297273D01*
X157344284Y-98297276D01*
X157470968Y-98434889D01*
X157496760Y-98462906D01*
X157674424Y-98601189D01*
X157674425Y-98601189D01*
X157674427Y-98601191D01*
X157801135Y-98669761D01*
X157872426Y-98708342D01*
X158085365Y-98781444D01*
X158307431Y-98818500D01*
X158532569Y-98818500D01*
X158754635Y-98781444D01*
X158967574Y-98708342D01*
X159165576Y-98601189D01*
X159343240Y-98462906D01*
X159464594Y-98331082D01*
X159495715Y-98297276D01*
X159495715Y-98297275D01*
X159495722Y-98297268D01*
X159586193Y-98158790D01*
X159639338Y-98113437D01*
X159708569Y-98104013D01*
X159771905Y-98133515D01*
X159793804Y-98158787D01*
X159884278Y-98297268D01*
X159884283Y-98297273D01*
X159884284Y-98297276D01*
X160010968Y-98434889D01*
X160036760Y-98462906D01*
X160214424Y-98601189D01*
X160214425Y-98601189D01*
X160214427Y-98601191D01*
X160341135Y-98669761D01*
X160412426Y-98708342D01*
X160625365Y-98781444D01*
X160847431Y-98818500D01*
X161072569Y-98818500D01*
X161294635Y-98781444D01*
X161507574Y-98708342D01*
X161705576Y-98601189D01*
X161883240Y-98462906D01*
X162004594Y-98331082D01*
X162035715Y-98297276D01*
X162035715Y-98297275D01*
X162035722Y-98297268D01*
X162126193Y-98158790D01*
X162179338Y-98113437D01*
X162248569Y-98104013D01*
X162311905Y-98133515D01*
X162333804Y-98158787D01*
X162424278Y-98297268D01*
X162424283Y-98297273D01*
X162424284Y-98297276D01*
X162550968Y-98434889D01*
X162576760Y-98462906D01*
X162754424Y-98601189D01*
X162754425Y-98601189D01*
X162754427Y-98601191D01*
X162881135Y-98669761D01*
X162952426Y-98708342D01*
X163165365Y-98781444D01*
X163387431Y-98818500D01*
X163612569Y-98818500D01*
X163834635Y-98781444D01*
X164047574Y-98708342D01*
X164245576Y-98601189D01*
X164423240Y-98462906D01*
X164544594Y-98331082D01*
X164575715Y-98297276D01*
X164575717Y-98297273D01*
X164575722Y-98297268D01*
X164698860Y-98108791D01*
X164789296Y-97902616D01*
X164844564Y-97684368D01*
X164847164Y-97652993D01*
X164863156Y-97460005D01*
X164863156Y-97459994D01*
X164844565Y-97235640D01*
X164844563Y-97235628D01*
X164789296Y-97017385D01*
X164779071Y-96994075D01*
X164698860Y-96811209D01*
X164682706Y-96786484D01*
X164575723Y-96622734D01*
X164575715Y-96622723D01*
X164423243Y-96457097D01*
X164423238Y-96457092D01*
X164245577Y-96318812D01*
X164245572Y-96318808D01*
X164047580Y-96211661D01*
X164047577Y-96211659D01*
X164047574Y-96211658D01*
X164047571Y-96211657D01*
X164047569Y-96211656D01*
X163834637Y-96138556D01*
X163612569Y-96101500D01*
X163387431Y-96101500D01*
X163165362Y-96138556D01*
X162952430Y-96211656D01*
X162952419Y-96211661D01*
X162754427Y-96318808D01*
X162754422Y-96318812D01*
X162576761Y-96457092D01*
X162576756Y-96457097D01*
X162424284Y-96622723D01*
X162424276Y-96622734D01*
X162333808Y-96761206D01*
X162280662Y-96806562D01*
X162211431Y-96815986D01*
X162148095Y-96786484D01*
X162126192Y-96761206D01*
X162035723Y-96622734D01*
X162035715Y-96622723D01*
X161883243Y-96457097D01*
X161883238Y-96457092D01*
X161705577Y-96318812D01*
X161705572Y-96318808D01*
X161507580Y-96211661D01*
X161507577Y-96211659D01*
X161507574Y-96211658D01*
X161507571Y-96211657D01*
X161507569Y-96211656D01*
X161294637Y-96138556D01*
X161072569Y-96101500D01*
X160847431Y-96101500D01*
X160625362Y-96138556D01*
X160412430Y-96211656D01*
X160412419Y-96211661D01*
X160214427Y-96318808D01*
X160214422Y-96318812D01*
X160036761Y-96457092D01*
X160036756Y-96457097D01*
X159884284Y-96622723D01*
X159884276Y-96622734D01*
X159793808Y-96761206D01*
X159740662Y-96806562D01*
X159671431Y-96815986D01*
X159608095Y-96786484D01*
X159586192Y-96761206D01*
X159495723Y-96622734D01*
X159495715Y-96622723D01*
X159343243Y-96457097D01*
X159343238Y-96457092D01*
X159165577Y-96318812D01*
X159165572Y-96318808D01*
X158967580Y-96211661D01*
X158967577Y-96211659D01*
X158967574Y-96211658D01*
X158967571Y-96211657D01*
X158967569Y-96211656D01*
X158754637Y-96138556D01*
X158532569Y-96101500D01*
X158307431Y-96101500D01*
X158085362Y-96138556D01*
X157872430Y-96211656D01*
X157872419Y-96211661D01*
X157674427Y-96318808D01*
X157674422Y-96318812D01*
X157496761Y-96457092D01*
X157496756Y-96457097D01*
X157344284Y-96622723D01*
X157344276Y-96622734D01*
X157253808Y-96761206D01*
X157200662Y-96806562D01*
X157131431Y-96815986D01*
X157068095Y-96786484D01*
X157046192Y-96761206D01*
X156955723Y-96622734D01*
X156955715Y-96622723D01*
X156803243Y-96457097D01*
X156803238Y-96457092D01*
X156625577Y-96318812D01*
X156625572Y-96318808D01*
X156427580Y-96211661D01*
X156427577Y-96211659D01*
X156427574Y-96211658D01*
X156427571Y-96211657D01*
X156427569Y-96211656D01*
X156214637Y-96138556D01*
X155992569Y-96101500D01*
X155767431Y-96101500D01*
X155545362Y-96138556D01*
X155332430Y-96211656D01*
X155332419Y-96211661D01*
X155134427Y-96318808D01*
X155134422Y-96318812D01*
X154956761Y-96457092D01*
X154956756Y-96457097D01*
X154804284Y-96622723D01*
X154804276Y-96622734D01*
X154713808Y-96761206D01*
X154660662Y-96806562D01*
X154591431Y-96815986D01*
X154528095Y-96786484D01*
X154506192Y-96761206D01*
X154415723Y-96622734D01*
X154415715Y-96622723D01*
X154263243Y-96457097D01*
X154263238Y-96457092D01*
X154085577Y-96318812D01*
X154085577Y-96318811D01*
X154038480Y-96293323D01*
X153988891Y-96244102D01*
X153973500Y-96184269D01*
X153973500Y-75327605D01*
X153973499Y-75327601D01*
X153949156Y-75205222D01*
X153949155Y-75205215D01*
X153901400Y-75089925D01*
X153901399Y-75089924D01*
X153901396Y-75089918D01*
X153832072Y-74986168D01*
X153832071Y-74986167D01*
X153743833Y-74897929D01*
X149757584Y-70911680D01*
X149724099Y-70850357D01*
X149729083Y-70780665D01*
X149770955Y-70724732D01*
X149836419Y-70700315D01*
X149845265Y-70699999D01*
X150124999Y-70699999D01*
X150125000Y-70699998D01*
X150125000Y-69754145D01*
X150191657Y-69792630D01*
X150312465Y-69825000D01*
X150437535Y-69825000D01*
X150558343Y-69792630D01*
X150625000Y-69754145D01*
X150625000Y-70699999D01*
X151149972Y-70699999D01*
X151149986Y-70699998D01*
X151252697Y-70689505D01*
X151419119Y-70634358D01*
X151419124Y-70634356D01*
X151568345Y-70542315D01*
X151692315Y-70418345D01*
X151784356Y-70269124D01*
X151784358Y-70269119D01*
X151839505Y-70102697D01*
X151839506Y-70102690D01*
X151849999Y-69999986D01*
X151850000Y-69999973D01*
X151850000Y-69600000D01*
X150779146Y-69600000D01*
X150817630Y-69533343D01*
X150850000Y-69412535D01*
X150850000Y-69287465D01*
X150817630Y-69166657D01*
X150779146Y-69100000D01*
X151849999Y-69100000D01*
X151849999Y-68700028D01*
X151849998Y-68700013D01*
X151839505Y-68597302D01*
X151784358Y-68430880D01*
X151784356Y-68430875D01*
X151692315Y-68281654D01*
X151568344Y-68157683D01*
X151568340Y-68157680D01*
X151420513Y-68066499D01*
X151373788Y-68014551D01*
X151362567Y-67945589D01*
X151390410Y-67881507D01*
X151397907Y-67873302D01*
X151536206Y-67735004D01*
X151661894Y-67562009D01*
X151758972Y-67371483D01*
X151825049Y-67168116D01*
X151858500Y-66956916D01*
X151858500Y-66743084D01*
X151825049Y-66531884D01*
X151758972Y-66328517D01*
X151758972Y-66328516D01*
X151661893Y-66137990D01*
X151536206Y-65964996D01*
X151385004Y-65813794D01*
X151385000Y-65813791D01*
X151228818Y-65700318D01*
X151186152Y-65644988D01*
X151180173Y-65575375D01*
X151212779Y-65513580D01*
X151228818Y-65499682D01*
X151316182Y-65436208D01*
X151385004Y-65386206D01*
X151536206Y-65235004D01*
X151661894Y-65062009D01*
X151758972Y-64871483D01*
X151825049Y-64668116D01*
X151858500Y-64456916D01*
X151858500Y-64243084D01*
X151825049Y-64031884D01*
X151792010Y-63930200D01*
X151758973Y-63828519D01*
X151758972Y-63828516D01*
X151674632Y-63662991D01*
X151661894Y-63637991D01*
X151536206Y-63464996D01*
X151385004Y-63313794D01*
X151212009Y-63188106D01*
X151185553Y-63174626D01*
X151021483Y-63091027D01*
X151021480Y-63091026D01*
X150818117Y-63024951D01*
X150710606Y-63007923D01*
X150606916Y-62991500D01*
X150143084Y-62991500D01*
X150072684Y-63002650D01*
X149931882Y-63024951D01*
X149728519Y-63091026D01*
X149728516Y-63091027D01*
X149537990Y-63188106D01*
X149364993Y-63313796D01*
X149213796Y-63464993D01*
X149088106Y-63637990D01*
X148991027Y-63828516D01*
X148991026Y-63828519D01*
X148924951Y-64031882D01*
X148909496Y-64129464D01*
X148891500Y-64243084D01*
X148891500Y-64456916D01*
X148895460Y-64481916D01*
X148924951Y-64668117D01*
X148991026Y-64871480D01*
X148991027Y-64871483D01*
X149033451Y-64954743D01*
X149088106Y-65062009D01*
X149213794Y-65235004D01*
X149364996Y-65386206D01*
X149433818Y-65436208D01*
X149521182Y-65499682D01*
X149563847Y-65555012D01*
X149569826Y-65624626D01*
X149537220Y-65686421D01*
X149521182Y-65700318D01*
X149487143Y-65725049D01*
X149364996Y-65813794D01*
X149364994Y-65813796D01*
X149364993Y-65813796D01*
X149213796Y-65964993D01*
X149088106Y-66137990D01*
X148991027Y-66328516D01*
X148991026Y-66328519D01*
X148924951Y-66531882D01*
X148891500Y-66743084D01*
X148891500Y-66956915D01*
X148924951Y-67168117D01*
X148991026Y-67371480D01*
X148991027Y-67371483D01*
X149088106Y-67562009D01*
X149213794Y-67735004D01*
X149213796Y-67735006D01*
X149352070Y-67873280D01*
X149385555Y-67934603D01*
X149380571Y-68004295D01*
X149338699Y-68060228D01*
X149329486Y-68066499D01*
X149181659Y-68157680D01*
X149181655Y-68157683D01*
X149057684Y-68281654D01*
X148965643Y-68430875D01*
X148965641Y-68430880D01*
X148910494Y-68597302D01*
X148910493Y-68597309D01*
X148900000Y-68700013D01*
X148900000Y-69100000D01*
X149970854Y-69100000D01*
X149932370Y-69166657D01*
X149900000Y-69287465D01*
X149900000Y-69412535D01*
X149932370Y-69533343D01*
X149970854Y-69600000D01*
X148900001Y-69600000D01*
X148900001Y-69754735D01*
X148880316Y-69821774D01*
X148827512Y-69867529D01*
X148758354Y-69877473D01*
X148694798Y-69848448D01*
X148688320Y-69842416D01*
X139373922Y-60528018D01*
X139344561Y-60481291D01*
X139287709Y-60318817D01*
X139196771Y-60174091D01*
X139075908Y-60053228D01*
X138931183Y-59962291D01*
X138769849Y-59905837D01*
X138769844Y-59905836D01*
X138600004Y-59886701D01*
X138599996Y-59886701D01*
X138430155Y-59905836D01*
X138430150Y-59905837D01*
X138268816Y-59962291D01*
X138124091Y-60053228D01*
X138003228Y-60174091D01*
X137912291Y-60318816D01*
X137855837Y-60480150D01*
X137855836Y-60480155D01*
X137836701Y-60649996D01*
X113557288Y-60649996D01*
X113555173Y-60625375D01*
X113587779Y-60563580D01*
X113603818Y-60549682D01*
X113671432Y-60500557D01*
X113760004Y-60436206D01*
X113911206Y-60285004D01*
X114036894Y-60112009D01*
X114133972Y-59921483D01*
X114200049Y-59718116D01*
X114233500Y-59506916D01*
X114233500Y-59293084D01*
X114200049Y-59081884D01*
X114133972Y-58878517D01*
X114133972Y-58878516D01*
X114036893Y-58687990D01*
X113911206Y-58514996D01*
X113760004Y-58363794D01*
X113760000Y-58363791D01*
X113603818Y-58250318D01*
X113561152Y-58194988D01*
X113555173Y-58125375D01*
X113587779Y-58063580D01*
X113603818Y-58049682D01*
X113654200Y-58013076D01*
X113760004Y-57936206D01*
X113911206Y-57785004D01*
X114036894Y-57612009D01*
X114133972Y-57421483D01*
X114200049Y-57218116D01*
X114233500Y-57006916D01*
X114233500Y-56793084D01*
X114200049Y-56581884D01*
X114133972Y-56378517D01*
X114133972Y-56378516D01*
X114036893Y-56187990D01*
X113911206Y-56014996D01*
X113760004Y-55863794D01*
X113587009Y-55738106D01*
X113396483Y-55641027D01*
X113396480Y-55641026D01*
X113193117Y-55574951D01*
X113087516Y-55558225D01*
X112981916Y-55541500D01*
X112518084Y-55541500D01*
X112447684Y-55552650D01*
X112306882Y-55574951D01*
X112103519Y-55641026D01*
X112103516Y-55641027D01*
X111912990Y-55738106D01*
X111739993Y-55863796D01*
X111588796Y-56014993D01*
X111463106Y-56187990D01*
X111366027Y-56378516D01*
X111366026Y-56378519D01*
X111299951Y-56581882D01*
X111266500Y-56793084D01*
X100118392Y-56793084D01*
X100102279Y-48301345D01*
X117437500Y-48301345D01*
X117437500Y-50098654D01*
X117444011Y-50159202D01*
X117444011Y-50159204D01*
X117495111Y-50296204D01*
X117582739Y-50413261D01*
X117699796Y-50500889D01*
X117836799Y-50551989D01*
X117864050Y-50554918D01*
X117897345Y-50558499D01*
X117897362Y-50558500D01*
X119694638Y-50558500D01*
X119694654Y-50558499D01*
X119721692Y-50555591D01*
X119755201Y-50551989D01*
X119892204Y-50500889D01*
X120009261Y-50413261D01*
X120096889Y-50296204D01*
X120142138Y-50174887D01*
X120184009Y-50118956D01*
X120249474Y-50094539D01*
X120317746Y-50109391D01*
X120349545Y-50134236D01*
X120412760Y-50202906D01*
X120590424Y-50341189D01*
X120590425Y-50341189D01*
X120590427Y-50341191D01*
X120650314Y-50373600D01*
X120788426Y-50448342D01*
X121001365Y-50521444D01*
X121223431Y-50558500D01*
X121448569Y-50558500D01*
X121670635Y-50521444D01*
X121883574Y-50448342D01*
X122081576Y-50341189D01*
X122259240Y-50202906D01*
X122380594Y-50071082D01*
X122411715Y-50037276D01*
X122411715Y-50037275D01*
X122411722Y-50037268D01*
X122502193Y-49898790D01*
X122555338Y-49853437D01*
X122624569Y-49844013D01*
X122687905Y-49873515D01*
X122709804Y-49898787D01*
X122800278Y-50037268D01*
X122800283Y-50037273D01*
X122800284Y-50037276D01*
X122926968Y-50174889D01*
X122952760Y-50202906D01*
X123130424Y-50341189D01*
X123130425Y-50341189D01*
X123130427Y-50341191D01*
X123190314Y-50373600D01*
X123328426Y-50448342D01*
X123541365Y-50521444D01*
X123763431Y-50558500D01*
X123988569Y-50558500D01*
X124210635Y-50521444D01*
X124423574Y-50448342D01*
X124621576Y-50341189D01*
X124799240Y-50202906D01*
X124920594Y-50071082D01*
X124951715Y-50037276D01*
X124951715Y-50037275D01*
X124951722Y-50037268D01*
X125045749Y-49893347D01*
X125098894Y-49847994D01*
X125168125Y-49838570D01*
X125231461Y-49868072D01*
X125251130Y-49890048D01*
X125377890Y-50071078D01*
X125544917Y-50238105D01*
X125738421Y-50373600D01*
X125952507Y-50473429D01*
X125952516Y-50473433D01*
X126166000Y-50530634D01*
X126166000Y-49633012D01*
X126223007Y-49665925D01*
X126350174Y-49700000D01*
X126481826Y-49700000D01*
X126608993Y-49665925D01*
X126666000Y-49633012D01*
X126666000Y-50530633D01*
X126879483Y-50473433D01*
X126879492Y-50473429D01*
X127093578Y-50373600D01*
X127287082Y-50238105D01*
X127454105Y-50071082D01*
X127580868Y-49890048D01*
X127635445Y-49846423D01*
X127704944Y-49839231D01*
X127767298Y-49870753D01*
X127786251Y-49893350D01*
X127880276Y-50037265D01*
X127880284Y-50037276D01*
X128006968Y-50174889D01*
X128032760Y-50202906D01*
X128210424Y-50341189D01*
X128210425Y-50341189D01*
X128210427Y-50341191D01*
X128270314Y-50373600D01*
X128408426Y-50448342D01*
X128621365Y-50521444D01*
X128843431Y-50558500D01*
X129068569Y-50558500D01*
X129290635Y-50521444D01*
X129503574Y-50448342D01*
X129701576Y-50341189D01*
X129879240Y-50202906D01*
X130000594Y-50071082D01*
X130031715Y-50037276D01*
X130031715Y-50037275D01*
X130031722Y-50037268D01*
X130122193Y-49898790D01*
X130175338Y-49853437D01*
X130244569Y-49844013D01*
X130307905Y-49873515D01*
X130329804Y-49898787D01*
X130420278Y-50037268D01*
X130420283Y-50037273D01*
X130420284Y-50037276D01*
X130546968Y-50174889D01*
X130572760Y-50202906D01*
X130750424Y-50341189D01*
X130750425Y-50341189D01*
X130750427Y-50341191D01*
X130810314Y-50373600D01*
X130948426Y-50448342D01*
X131161365Y-50521444D01*
X131383431Y-50558500D01*
X131608569Y-50558500D01*
X131830635Y-50521444D01*
X132043574Y-50448342D01*
X132241576Y-50341189D01*
X132419240Y-50202906D01*
X132540594Y-50071082D01*
X132571715Y-50037276D01*
X132571715Y-50037275D01*
X132571722Y-50037268D01*
X132662193Y-49898790D01*
X132715338Y-49853437D01*
X132784569Y-49844013D01*
X132847905Y-49873515D01*
X132869804Y-49898787D01*
X132960278Y-50037268D01*
X132960283Y-50037273D01*
X132960284Y-50037276D01*
X133086968Y-50174889D01*
X133112760Y-50202906D01*
X133290424Y-50341189D01*
X133290425Y-50341189D01*
X133290427Y-50341191D01*
X133350314Y-50373600D01*
X133488426Y-50448342D01*
X133701365Y-50521444D01*
X133923431Y-50558500D01*
X134148569Y-50558500D01*
X134370630Y-50521445D01*
X134370631Y-50521444D01*
X134370635Y-50521444D01*
X134370637Y-50521442D01*
X134374849Y-50520376D01*
X134444669Y-50522988D01*
X134492991Y-50552895D01*
X140432163Y-56492068D01*
X140432167Y-56492071D01*
X140535918Y-56561396D01*
X140535924Y-56561399D01*
X140535925Y-56561400D01*
X140651215Y-56609155D01*
X140773601Y-56633499D01*
X140773605Y-56633500D01*
X140773606Y-56633500D01*
X140898394Y-56633500D01*
X146234458Y-56633500D01*
X146301497Y-56653185D01*
X146322139Y-56669819D01*
X146374091Y-56721771D01*
X146518817Y-56812709D01*
X146680150Y-56869162D01*
X146680155Y-56869163D01*
X146849996Y-56888299D01*
X146850000Y-56888299D01*
X146850004Y-56888299D01*
X147019844Y-56869163D01*
X147019847Y-56869162D01*
X147019850Y-56869162D01*
X147181183Y-56812709D01*
X147325909Y-56721771D01*
X147446771Y-56600909D01*
X147537709Y-56456183D01*
X147594162Y-56294850D01*
X147613299Y-56125000D01*
X147594162Y-55955150D01*
X147537709Y-55793817D01*
X147446771Y-55649091D01*
X147325909Y-55528229D01*
X147325908Y-55528228D01*
X147181183Y-55437291D01*
X147019849Y-55380837D01*
X147019844Y-55380836D01*
X146850004Y-55361701D01*
X146850003Y-55361701D01*
X146850001Y-55361701D01*
X146850000Y-55361701D01*
X146818245Y-55365278D01*
X146811077Y-55366086D01*
X146793484Y-55366210D01*
X146793484Y-55366500D01*
X141149766Y-55366500D01*
X141082727Y-55346815D01*
X141062085Y-55330181D01*
X136502085Y-50770181D01*
X136468600Y-50708858D01*
X136473584Y-50639166D01*
X136515456Y-50583233D01*
X136580920Y-50558816D01*
X136589766Y-50558500D01*
X136688569Y-50558500D01*
X136910630Y-50521445D01*
X136910631Y-50521444D01*
X136910635Y-50521444D01*
X136910637Y-50521442D01*
X136914849Y-50520376D01*
X136984669Y-50522988D01*
X137032991Y-50552895D01*
X141347163Y-54867068D01*
X141347167Y-54867071D01*
X141450918Y-54936396D01*
X141450924Y-54936399D01*
X141450925Y-54936400D01*
X141566215Y-54984155D01*
X141688601Y-55008499D01*
X141688605Y-55008500D01*
X141688606Y-55008500D01*
X141813394Y-55008500D01*
X147121820Y-55008500D01*
X147187793Y-55027507D01*
X147243814Y-55062708D01*
X147405150Y-55119162D01*
X147405155Y-55119163D01*
X147574996Y-55138299D01*
X147575000Y-55138299D01*
X147575004Y-55138299D01*
X147744844Y-55119163D01*
X147744847Y-55119162D01*
X147744850Y-55119162D01*
X147906183Y-55062709D01*
X148050909Y-54971771D01*
X148171771Y-54850909D01*
X148262709Y-54706183D01*
X148319162Y-54544850D01*
X148338299Y-54375000D01*
X148319162Y-54205150D01*
X148262709Y-54043817D01*
X148171771Y-53899091D01*
X148050909Y-53778229D01*
X148050908Y-53778228D01*
X147906183Y-53687291D01*
X147744849Y-53630837D01*
X147744844Y-53630836D01*
X147575004Y-53611701D01*
X147574996Y-53611701D01*
X147405155Y-53630836D01*
X147405150Y-53630837D01*
X147243814Y-53687291D01*
X147187793Y-53722493D01*
X147121820Y-53741500D01*
X142064766Y-53741500D01*
X141997727Y-53721815D01*
X141977085Y-53705181D01*
X139042085Y-50770181D01*
X139008600Y-50708858D01*
X139013584Y-50639166D01*
X139055456Y-50583233D01*
X139120920Y-50558816D01*
X139129766Y-50558500D01*
X139228569Y-50558500D01*
X139450635Y-50521444D01*
X139663574Y-50448342D01*
X139861576Y-50341189D01*
X140039240Y-50202906D01*
X140160594Y-50071082D01*
X140191715Y-50037276D01*
X140191715Y-50037275D01*
X140191722Y-50037268D01*
X140282193Y-49898790D01*
X140335338Y-49853437D01*
X140404569Y-49844013D01*
X140467905Y-49873515D01*
X140489804Y-49898787D01*
X140580278Y-50037268D01*
X140580283Y-50037273D01*
X140580284Y-50037276D01*
X140706968Y-50174889D01*
X140732760Y-50202906D01*
X140910424Y-50341189D01*
X140910425Y-50341189D01*
X140910427Y-50341191D01*
X140970314Y-50373600D01*
X141108426Y-50448342D01*
X141321365Y-50521444D01*
X141543431Y-50558500D01*
X141768569Y-50558500D01*
X141990635Y-50521444D01*
X142203574Y-50448342D01*
X142401576Y-50341189D01*
X142579240Y-50202906D01*
X142700594Y-50071082D01*
X142731715Y-50037276D01*
X142731717Y-50037273D01*
X142731722Y-50037268D01*
X142854860Y-49848791D01*
X142945296Y-49642616D01*
X143000564Y-49424368D01*
X143012309Y-49282635D01*
X143019156Y-49200005D01*
X143019156Y-49199994D01*
X143000565Y-48975640D01*
X143000563Y-48975628D01*
X142945296Y-48757385D01*
X142935071Y-48734075D01*
X142854860Y-48551209D01*
X142838706Y-48526484D01*
X142731723Y-48362734D01*
X142731715Y-48362723D01*
X142675212Y-48301345D01*
X144361500Y-48301345D01*
X144361500Y-50098654D01*
X144368011Y-50159202D01*
X144368011Y-50159204D01*
X144419111Y-50296204D01*
X144506739Y-50413261D01*
X144623796Y-50500889D01*
X144760799Y-50551989D01*
X144788050Y-50554918D01*
X144821345Y-50558499D01*
X144821362Y-50558500D01*
X146618638Y-50558500D01*
X146618654Y-50558499D01*
X146645692Y-50555591D01*
X146679201Y-50551989D01*
X146816204Y-50500889D01*
X146933261Y-50413261D01*
X147020889Y-50296204D01*
X147066138Y-50174887D01*
X147108009Y-50118956D01*
X147173474Y-50094539D01*
X147241746Y-50109391D01*
X147273545Y-50134236D01*
X147336760Y-50202906D01*
X147514424Y-50341189D01*
X147514425Y-50341189D01*
X147514427Y-50341191D01*
X147574314Y-50373600D01*
X147712426Y-50448342D01*
X147925365Y-50521444D01*
X148147431Y-50558500D01*
X148372569Y-50558500D01*
X148594635Y-50521444D01*
X148807574Y-50448342D01*
X149005576Y-50341189D01*
X149183240Y-50202906D01*
X149304594Y-50071082D01*
X149335715Y-50037276D01*
X149335715Y-50037275D01*
X149335722Y-50037268D01*
X149426193Y-49898790D01*
X149479338Y-49853437D01*
X149548569Y-49844013D01*
X149611905Y-49873515D01*
X149633804Y-49898787D01*
X149724278Y-50037268D01*
X149724283Y-50037273D01*
X149724284Y-50037276D01*
X149850968Y-50174889D01*
X149876760Y-50202906D01*
X150054424Y-50341189D01*
X150054425Y-50341189D01*
X150054427Y-50341191D01*
X150114314Y-50373600D01*
X150252426Y-50448342D01*
X150465365Y-50521444D01*
X150687431Y-50558500D01*
X150912569Y-50558500D01*
X151134635Y-50521444D01*
X151347574Y-50448342D01*
X151545576Y-50341189D01*
X151723240Y-50202906D01*
X151844594Y-50071082D01*
X151875715Y-50037276D01*
X151875715Y-50037275D01*
X151875722Y-50037268D01*
X151966193Y-49898790D01*
X152019338Y-49853437D01*
X152088569Y-49844013D01*
X152151905Y-49873515D01*
X152173804Y-49898787D01*
X152264278Y-50037268D01*
X152264283Y-50037273D01*
X152264284Y-50037276D01*
X152390968Y-50174889D01*
X152416760Y-50202906D01*
X152594424Y-50341189D01*
X152594425Y-50341189D01*
X152594427Y-50341191D01*
X152654314Y-50373600D01*
X152792426Y-50448342D01*
X153005365Y-50521444D01*
X153227431Y-50558500D01*
X153452569Y-50558500D01*
X153674635Y-50521444D01*
X153887574Y-50448342D01*
X154085576Y-50341189D01*
X154263240Y-50202906D01*
X154384594Y-50071082D01*
X154415715Y-50037276D01*
X154415715Y-50037275D01*
X154415722Y-50037268D01*
X154506193Y-49898790D01*
X154559338Y-49853437D01*
X154628569Y-49844013D01*
X154691905Y-49873515D01*
X154713804Y-49898787D01*
X154804278Y-50037268D01*
X154804283Y-50037273D01*
X154804284Y-50037276D01*
X154930968Y-50174889D01*
X154956760Y-50202906D01*
X155134424Y-50341189D01*
X155134425Y-50341189D01*
X155134427Y-50341191D01*
X155194314Y-50373600D01*
X155332426Y-50448342D01*
X155545365Y-50521444D01*
X155767431Y-50558500D01*
X155992569Y-50558500D01*
X156214635Y-50521444D01*
X156427574Y-50448342D01*
X156625576Y-50341189D01*
X156803240Y-50202906D01*
X156924594Y-50071082D01*
X156955715Y-50037276D01*
X156955715Y-50037275D01*
X156955722Y-50037268D01*
X157046193Y-49898790D01*
X157099338Y-49853437D01*
X157168569Y-49844013D01*
X157231905Y-49873515D01*
X157253804Y-49898787D01*
X157344278Y-50037268D01*
X157344283Y-50037273D01*
X157344284Y-50037276D01*
X157470968Y-50174889D01*
X157496760Y-50202906D01*
X157674424Y-50341189D01*
X157674425Y-50341189D01*
X157674427Y-50341191D01*
X157734314Y-50373600D01*
X157872426Y-50448342D01*
X158085365Y-50521444D01*
X158307431Y-50558500D01*
X158532569Y-50558500D01*
X158754635Y-50521444D01*
X158967574Y-50448342D01*
X159165576Y-50341189D01*
X159343240Y-50202906D01*
X159464594Y-50071082D01*
X159495715Y-50037276D01*
X159495715Y-50037275D01*
X159495722Y-50037268D01*
X159586193Y-49898790D01*
X159639338Y-49853437D01*
X159708569Y-49844013D01*
X159771905Y-49873515D01*
X159793804Y-49898787D01*
X159884278Y-50037268D01*
X159884283Y-50037273D01*
X159884284Y-50037276D01*
X160010968Y-50174889D01*
X160036760Y-50202906D01*
X160214424Y-50341189D01*
X160214425Y-50341189D01*
X160214427Y-50341191D01*
X160274314Y-50373600D01*
X160412426Y-50448342D01*
X160625365Y-50521444D01*
X160847431Y-50558500D01*
X161072569Y-50558500D01*
X161294635Y-50521444D01*
X161507574Y-50448342D01*
X161705576Y-50341189D01*
X161883240Y-50202906D01*
X162004594Y-50071082D01*
X162035715Y-50037276D01*
X162035715Y-50037275D01*
X162035722Y-50037268D01*
X162126193Y-49898790D01*
X162179338Y-49853437D01*
X162248569Y-49844013D01*
X162311905Y-49873515D01*
X162333804Y-49898787D01*
X162424278Y-50037268D01*
X162424283Y-50037273D01*
X162424284Y-50037276D01*
X162550968Y-50174889D01*
X162576760Y-50202906D01*
X162754424Y-50341189D01*
X162754425Y-50341189D01*
X162754427Y-50341191D01*
X162814314Y-50373600D01*
X162952426Y-50448342D01*
X163165365Y-50521444D01*
X163387431Y-50558500D01*
X163612569Y-50558500D01*
X163834635Y-50521444D01*
X164047574Y-50448342D01*
X164245576Y-50341189D01*
X164423240Y-50202906D01*
X164544594Y-50071082D01*
X164575715Y-50037276D01*
X164575717Y-50037273D01*
X164575722Y-50037268D01*
X164698860Y-49848791D01*
X164789296Y-49642616D01*
X164844564Y-49424368D01*
X164856309Y-49282635D01*
X164863156Y-49200005D01*
X164863156Y-49199994D01*
X164844565Y-48975640D01*
X164844563Y-48975628D01*
X164789296Y-48757385D01*
X164779071Y-48734075D01*
X164698860Y-48551209D01*
X164682706Y-48526484D01*
X164575723Y-48362734D01*
X164575715Y-48362723D01*
X164423243Y-48197097D01*
X164423238Y-48197092D01*
X164245577Y-48058812D01*
X164245572Y-48058808D01*
X164047580Y-47951661D01*
X164047577Y-47951659D01*
X164047574Y-47951658D01*
X164047571Y-47951657D01*
X164047569Y-47951656D01*
X163834637Y-47878556D01*
X163612569Y-47841500D01*
X163387431Y-47841500D01*
X163165362Y-47878556D01*
X162952430Y-47951656D01*
X162952419Y-47951661D01*
X162754427Y-48058808D01*
X162754422Y-48058812D01*
X162576761Y-48197092D01*
X162576756Y-48197097D01*
X162424284Y-48362723D01*
X162424276Y-48362734D01*
X162333808Y-48501206D01*
X162280662Y-48546562D01*
X162211431Y-48555986D01*
X162148095Y-48526484D01*
X162126192Y-48501206D01*
X162035723Y-48362734D01*
X162035715Y-48362723D01*
X161883243Y-48197097D01*
X161883238Y-48197092D01*
X161705577Y-48058812D01*
X161705572Y-48058808D01*
X161507580Y-47951661D01*
X161507577Y-47951659D01*
X161507574Y-47951658D01*
X161507571Y-47951657D01*
X161507569Y-47951656D01*
X161294637Y-47878556D01*
X161072569Y-47841500D01*
X160847431Y-47841500D01*
X160625362Y-47878556D01*
X160412430Y-47951656D01*
X160412419Y-47951661D01*
X160214427Y-48058808D01*
X160214422Y-48058812D01*
X160036761Y-48197092D01*
X160036756Y-48197097D01*
X159884284Y-48362723D01*
X159884276Y-48362734D01*
X159793808Y-48501206D01*
X159740662Y-48546562D01*
X159671431Y-48555986D01*
X159608095Y-48526484D01*
X159586192Y-48501206D01*
X159495723Y-48362734D01*
X159495715Y-48362723D01*
X159343243Y-48197097D01*
X159343238Y-48197092D01*
X159165577Y-48058812D01*
X159165572Y-48058808D01*
X158967580Y-47951661D01*
X158967577Y-47951659D01*
X158967574Y-47951658D01*
X158967571Y-47951657D01*
X158967569Y-47951656D01*
X158754637Y-47878556D01*
X158532569Y-47841500D01*
X158307431Y-47841500D01*
X158085362Y-47878556D01*
X157872430Y-47951656D01*
X157872419Y-47951661D01*
X157674427Y-48058808D01*
X157674422Y-48058812D01*
X157496761Y-48197092D01*
X157496756Y-48197097D01*
X157344284Y-48362723D01*
X157344276Y-48362734D01*
X157253808Y-48501206D01*
X157200662Y-48546562D01*
X157131431Y-48555986D01*
X157068095Y-48526484D01*
X157046192Y-48501206D01*
X156955723Y-48362734D01*
X156955715Y-48362723D01*
X156803243Y-48197097D01*
X156803238Y-48197092D01*
X156625577Y-48058812D01*
X156625572Y-48058808D01*
X156427580Y-47951661D01*
X156427577Y-47951659D01*
X156427574Y-47951658D01*
X156427571Y-47951657D01*
X156427569Y-47951656D01*
X156214637Y-47878556D01*
X155992569Y-47841500D01*
X155767431Y-47841500D01*
X155545362Y-47878556D01*
X155332430Y-47951656D01*
X155332419Y-47951661D01*
X155134427Y-48058808D01*
X155134422Y-48058812D01*
X154956761Y-48197092D01*
X154956756Y-48197097D01*
X154804284Y-48362723D01*
X154804276Y-48362734D01*
X154713808Y-48501206D01*
X154660662Y-48546562D01*
X154591431Y-48555986D01*
X154528095Y-48526484D01*
X154506192Y-48501206D01*
X154415723Y-48362734D01*
X154415715Y-48362723D01*
X154263243Y-48197097D01*
X154263238Y-48197092D01*
X154085577Y-48058812D01*
X154085572Y-48058808D01*
X153887580Y-47951661D01*
X153887577Y-47951659D01*
X153887574Y-47951658D01*
X153887571Y-47951657D01*
X153887569Y-47951656D01*
X153674637Y-47878556D01*
X153452569Y-47841500D01*
X153227431Y-47841500D01*
X153005362Y-47878556D01*
X152792430Y-47951656D01*
X152792419Y-47951661D01*
X152594427Y-48058808D01*
X152594422Y-48058812D01*
X152416761Y-48197092D01*
X152416756Y-48197097D01*
X152264284Y-48362723D01*
X152264276Y-48362734D01*
X152173808Y-48501206D01*
X152120662Y-48546562D01*
X152051431Y-48555986D01*
X151988095Y-48526484D01*
X151966192Y-48501206D01*
X151875723Y-48362734D01*
X151875715Y-48362723D01*
X151723243Y-48197097D01*
X151723238Y-48197092D01*
X151545577Y-48058812D01*
X151545572Y-48058808D01*
X151347580Y-47951661D01*
X151347577Y-47951659D01*
X151347574Y-47951658D01*
X151347571Y-47951657D01*
X151347569Y-47951656D01*
X151134637Y-47878556D01*
X150912569Y-47841500D01*
X150687431Y-47841500D01*
X150465362Y-47878556D01*
X150252430Y-47951656D01*
X150252419Y-47951661D01*
X150054427Y-48058808D01*
X150054422Y-48058812D01*
X149876761Y-48197092D01*
X149876756Y-48197097D01*
X149724284Y-48362723D01*
X149724276Y-48362734D01*
X149633808Y-48501206D01*
X149580662Y-48546562D01*
X149511431Y-48555986D01*
X149448095Y-48526484D01*
X149426192Y-48501206D01*
X149335723Y-48362734D01*
X149335715Y-48362723D01*
X149183243Y-48197097D01*
X149183238Y-48197092D01*
X149005577Y-48058812D01*
X149005572Y-48058808D01*
X148807580Y-47951661D01*
X148807577Y-47951659D01*
X148807574Y-47951658D01*
X148807571Y-47951657D01*
X148807569Y-47951656D01*
X148594637Y-47878556D01*
X148372569Y-47841500D01*
X148147431Y-47841500D01*
X147925362Y-47878556D01*
X147712430Y-47951656D01*
X147712419Y-47951661D01*
X147514427Y-48058808D01*
X147514422Y-48058812D01*
X147336761Y-48197092D01*
X147273548Y-48265760D01*
X147213661Y-48301750D01*
X147143823Y-48299649D01*
X147086207Y-48260124D01*
X147066138Y-48225110D01*
X147020889Y-48103796D01*
X146987214Y-48058812D01*
X146933261Y-47986739D01*
X146816204Y-47899111D01*
X146679203Y-47848011D01*
X146618654Y-47841500D01*
X146618638Y-47841500D01*
X144821362Y-47841500D01*
X144821345Y-47841500D01*
X144760797Y-47848011D01*
X144760795Y-47848011D01*
X144623795Y-47899111D01*
X144506739Y-47986739D01*
X144419111Y-48103795D01*
X144368011Y-48240795D01*
X144368011Y-48240797D01*
X144361500Y-48301345D01*
X142675212Y-48301345D01*
X142579243Y-48197097D01*
X142579238Y-48197092D01*
X142401577Y-48058812D01*
X142401572Y-48058808D01*
X142203580Y-47951661D01*
X142203577Y-47951659D01*
X142203574Y-47951658D01*
X142203571Y-47951657D01*
X142203569Y-47951656D01*
X141990637Y-47878556D01*
X141768569Y-47841500D01*
X141543431Y-47841500D01*
X141321362Y-47878556D01*
X141108430Y-47951656D01*
X141108419Y-47951661D01*
X140910427Y-48058808D01*
X140910422Y-48058812D01*
X140732761Y-48197092D01*
X140732756Y-48197097D01*
X140580284Y-48362723D01*
X140580276Y-48362734D01*
X140489808Y-48501206D01*
X140436662Y-48546562D01*
X140367431Y-48555986D01*
X140304095Y-48526484D01*
X140282192Y-48501206D01*
X140191723Y-48362734D01*
X140191715Y-48362723D01*
X140039243Y-48197097D01*
X140039238Y-48197092D01*
X139861577Y-48058812D01*
X139861572Y-48058808D01*
X139663580Y-47951661D01*
X139663577Y-47951659D01*
X139663574Y-47951658D01*
X139663571Y-47951657D01*
X139663569Y-47951656D01*
X139450637Y-47878556D01*
X139228569Y-47841500D01*
X139003431Y-47841500D01*
X138781362Y-47878556D01*
X138568430Y-47951656D01*
X138568419Y-47951661D01*
X138370427Y-48058808D01*
X138370422Y-48058812D01*
X138192761Y-48197092D01*
X138192756Y-48197097D01*
X138040284Y-48362723D01*
X138040276Y-48362734D01*
X137949808Y-48501206D01*
X137896662Y-48546562D01*
X137827431Y-48555986D01*
X137764095Y-48526484D01*
X137742192Y-48501206D01*
X137651723Y-48362734D01*
X137651715Y-48362723D01*
X137499243Y-48197097D01*
X137499238Y-48197092D01*
X137321577Y-48058812D01*
X137321572Y-48058808D01*
X137123580Y-47951661D01*
X137123577Y-47951659D01*
X137123574Y-47951658D01*
X137123571Y-47951657D01*
X137123569Y-47951656D01*
X136910637Y-47878556D01*
X136688569Y-47841500D01*
X136463431Y-47841500D01*
X136241362Y-47878556D01*
X136028430Y-47951656D01*
X136028419Y-47951661D01*
X135830427Y-48058808D01*
X135830422Y-48058812D01*
X135652761Y-48197092D01*
X135652756Y-48197097D01*
X135500284Y-48362723D01*
X135500276Y-48362734D01*
X135409808Y-48501206D01*
X135356662Y-48546562D01*
X135287431Y-48555986D01*
X135224095Y-48526484D01*
X135202192Y-48501206D01*
X135111723Y-48362734D01*
X135111715Y-48362723D01*
X134959243Y-48197097D01*
X134959238Y-48197092D01*
X134781577Y-48058812D01*
X134781572Y-48058808D01*
X134583580Y-47951661D01*
X134583577Y-47951659D01*
X134583574Y-47951658D01*
X134583571Y-47951657D01*
X134583569Y-47951656D01*
X134370637Y-47878556D01*
X134148569Y-47841500D01*
X133923431Y-47841500D01*
X133701362Y-47878556D01*
X133488430Y-47951656D01*
X133488419Y-47951661D01*
X133290427Y-48058808D01*
X133290422Y-48058812D01*
X133112761Y-48197092D01*
X133112756Y-48197097D01*
X132960284Y-48362723D01*
X132960276Y-48362734D01*
X132869808Y-48501206D01*
X132816662Y-48546562D01*
X132747431Y-48555986D01*
X132684095Y-48526484D01*
X132662192Y-48501206D01*
X132571723Y-48362734D01*
X132571715Y-48362723D01*
X132419243Y-48197097D01*
X132419238Y-48197092D01*
X132241577Y-48058812D01*
X132241572Y-48058808D01*
X132043580Y-47951661D01*
X132043577Y-47951659D01*
X132043574Y-47951658D01*
X132043571Y-47951657D01*
X132043569Y-47951656D01*
X131830637Y-47878556D01*
X131608569Y-47841500D01*
X131383431Y-47841500D01*
X131161362Y-47878556D01*
X130948430Y-47951656D01*
X130948419Y-47951661D01*
X130750427Y-48058808D01*
X130750422Y-48058812D01*
X130572761Y-48197092D01*
X130572756Y-48197097D01*
X130420284Y-48362723D01*
X130420276Y-48362734D01*
X130329808Y-48501206D01*
X130276662Y-48546562D01*
X130207431Y-48555986D01*
X130144095Y-48526484D01*
X130122192Y-48501206D01*
X130031723Y-48362734D01*
X130031715Y-48362723D01*
X129879243Y-48197097D01*
X129879238Y-48197092D01*
X129701577Y-48058812D01*
X129701572Y-48058808D01*
X129503580Y-47951661D01*
X129503577Y-47951659D01*
X129503574Y-47951658D01*
X129503571Y-47951657D01*
X129503569Y-47951656D01*
X129290637Y-47878556D01*
X129068569Y-47841500D01*
X128843431Y-47841500D01*
X128621362Y-47878556D01*
X128408430Y-47951656D01*
X128408419Y-47951661D01*
X128210427Y-48058808D01*
X128210422Y-48058812D01*
X128032761Y-48197092D01*
X128032756Y-48197097D01*
X127880284Y-48362723D01*
X127880276Y-48362734D01*
X127786251Y-48506650D01*
X127733105Y-48552007D01*
X127663873Y-48561430D01*
X127600538Y-48531928D01*
X127580868Y-48509951D01*
X127454113Y-48328926D01*
X127454108Y-48328920D01*
X127287082Y-48161894D01*
X127093578Y-48026399D01*
X126879492Y-47926570D01*
X126879486Y-47926567D01*
X126666000Y-47869364D01*
X126666000Y-48766988D01*
X126608993Y-48734075D01*
X126481826Y-48700000D01*
X126350174Y-48700000D01*
X126223007Y-48734075D01*
X126166000Y-48766988D01*
X126166000Y-47869364D01*
X126165999Y-47869364D01*
X125952513Y-47926567D01*
X125952507Y-47926570D01*
X125738422Y-48026399D01*
X125738420Y-48026400D01*
X125544926Y-48161886D01*
X125544920Y-48161891D01*
X125377891Y-48328920D01*
X125377890Y-48328922D01*
X125251131Y-48509952D01*
X125196554Y-48553577D01*
X125127055Y-48560769D01*
X125064701Y-48529247D01*
X125045752Y-48506656D01*
X124951722Y-48362732D01*
X124951715Y-48362725D01*
X124951715Y-48362723D01*
X124799243Y-48197097D01*
X124799238Y-48197092D01*
X124621577Y-48058812D01*
X124621572Y-48058808D01*
X124423580Y-47951661D01*
X124423577Y-47951659D01*
X124423574Y-47951658D01*
X124423571Y-47951657D01*
X124423569Y-47951656D01*
X124210637Y-47878556D01*
X123988569Y-47841500D01*
X123763431Y-47841500D01*
X123541362Y-47878556D01*
X123328430Y-47951656D01*
X123328419Y-47951661D01*
X123130427Y-48058808D01*
X123130422Y-48058812D01*
X122952761Y-48197092D01*
X122952756Y-48197097D01*
X122800284Y-48362723D01*
X122800276Y-48362734D01*
X122709808Y-48501206D01*
X122656662Y-48546562D01*
X122587431Y-48555986D01*
X122524095Y-48526484D01*
X122502192Y-48501206D01*
X122411723Y-48362734D01*
X122411715Y-48362723D01*
X122259243Y-48197097D01*
X122259238Y-48197092D01*
X122081577Y-48058812D01*
X122081572Y-48058808D01*
X121883580Y-47951661D01*
X121883577Y-47951659D01*
X121883574Y-47951658D01*
X121883571Y-47951657D01*
X121883569Y-47951656D01*
X121670637Y-47878556D01*
X121448569Y-47841500D01*
X121223431Y-47841500D01*
X121001362Y-47878556D01*
X120788430Y-47951656D01*
X120788419Y-47951661D01*
X120590427Y-48058808D01*
X120590422Y-48058812D01*
X120412761Y-48197092D01*
X120349548Y-48265760D01*
X120289661Y-48301750D01*
X120219823Y-48299649D01*
X120162207Y-48260124D01*
X120142138Y-48225110D01*
X120096889Y-48103796D01*
X120063214Y-48058812D01*
X120009261Y-47986739D01*
X119892204Y-47899111D01*
X119755203Y-47848011D01*
X119694654Y-47841500D01*
X119694638Y-47841500D01*
X117897362Y-47841500D01*
X117897345Y-47841500D01*
X117836797Y-47848011D01*
X117836795Y-47848011D01*
X117699795Y-47899111D01*
X117582739Y-47986739D01*
X117495111Y-48103795D01*
X117444011Y-48240795D01*
X117444011Y-48240797D01*
X117437500Y-48301345D01*
X100102279Y-48301345D01*
X100100319Y-47268360D01*
X100105659Y-47232133D01*
X100122169Y-47177710D01*
X100124212Y-47170971D01*
X100133510Y-47148524D01*
X100171353Y-47077724D01*
X100216908Y-47029855D01*
X100570548Y-46817670D01*
X100634345Y-46800000D01*
X163450113Y-46800000D01*
X163517152Y-46819685D01*
G37*
%TD.AperFunction*%
%TD*%
D18*
X138600000Y-60650000D03*
X146850000Y-56125000D03*
X147575000Y-54375000D03*
D19*
X127940000Y-97460000D03*
X130480000Y-97460000D03*
X133020000Y-97460000D03*
X135560000Y-97460000D03*
X138100000Y-97460000D03*
X140640000Y-97460000D03*
X143180000Y-97460000D03*
X145720000Y-97460000D03*
X150800000Y-97460000D03*
X153340000Y-97460000D03*
X155880000Y-97460000D03*
X158420000Y-97460000D03*
X160960000Y-97460000D03*
X163500000Y-97460000D03*
X118796000Y-49200000D03*
X121336000Y-49200000D03*
X123876000Y-49200000D03*
X126416000Y-49200000D03*
X128956000Y-49200000D03*
X131496000Y-49200000D03*
X134036000Y-49200000D03*
X136576000Y-49200000D03*
X139116000Y-49200000D03*
X141656000Y-49200000D03*
X145720000Y-49200000D03*
X148260000Y-49200000D03*
X150800000Y-49200000D03*
X153340000Y-49200000D03*
X155880000Y-49200000D03*
X158420000Y-49200000D03*
X160960000Y-49200000D03*
X163500000Y-49200000D03*
X105400000Y-60750000D03*
X105400000Y-63250000D03*
X140425000Y-69375000D03*
X140425000Y-66875000D03*
X140425000Y-64375000D03*
X115240000Y-49200000D03*
X112750000Y-69400000D03*
X112750000Y-66900000D03*
X112750000Y-64400000D03*
X112750000Y-61900000D03*
X112750000Y-59400000D03*
X112750000Y-56900000D03*
X121859285Y-86275000D03*
X121859285Y-83775000D03*
X121859285Y-81275000D03*
X130968570Y-69400000D03*
X130968570Y-66900000D03*
X130968570Y-64400000D03*
X112750000Y-86275000D03*
X112750000Y-83775000D03*
X112750000Y-81275000D03*
X112750000Y-78775000D03*
X113970000Y-97460000D03*
X166040000Y-64440000D03*
X166040000Y-92380000D03*
X121859285Y-69400000D03*
X121859285Y-66900000D03*
X121859285Y-64400000D03*
X150375000Y-69350000D03*
X150375000Y-66850000D03*
X150375000Y-64350000D03*
M02*
