%TF.GenerationSoftware,KiCad,Pcbnew,8.0.3*%
%TF.CreationDate,2024-07-23T14:12:28+08:00*%
%TF.ProjectId,Shao Rong Shield,5368616f-2052-46f6-9e67-20536869656c,rev?*%
%TF.SameCoordinates,Original*%
%TF.FileFunction,Legend,Top*%
%TF.FilePolarity,Positive*%
%FSLAX46Y46*%
G04 Gerber Fmt 4.6, Leading zero omitted, Abs format (unit mm)*
G04 Created by KiCad (PCBNEW 8.0.3) date 2024-07-23 14:12:28*
%MOMM*%
%LPD*%
G01*
G04 APERTURE LIST*
%ADD10C,0.150000*%
%ADD11C,0.200000*%
%ADD12C,0.125000*%
%ADD13C,0.120000*%
%ADD14C,0.350000*%
G04 APERTURE END LIST*
D10*
X105017438Y-68139411D02*
X104969819Y-68234649D01*
X104969819Y-68234649D02*
X104969819Y-68377506D01*
X104969819Y-68377506D02*
X105017438Y-68520363D01*
X105017438Y-68520363D02*
X105112676Y-68615601D01*
X105112676Y-68615601D02*
X105207914Y-68663220D01*
X105207914Y-68663220D02*
X105398390Y-68710839D01*
X105398390Y-68710839D02*
X105541247Y-68710839D01*
X105541247Y-68710839D02*
X105731723Y-68663220D01*
X105731723Y-68663220D02*
X105826961Y-68615601D01*
X105826961Y-68615601D02*
X105922200Y-68520363D01*
X105922200Y-68520363D02*
X105969819Y-68377506D01*
X105969819Y-68377506D02*
X105969819Y-68282268D01*
X105969819Y-68282268D02*
X105922200Y-68139411D01*
X105922200Y-68139411D02*
X105874580Y-68091792D01*
X105874580Y-68091792D02*
X105541247Y-68091792D01*
X105541247Y-68091792D02*
X105541247Y-68282268D01*
X105303152Y-67663220D02*
X105969819Y-67663220D01*
X105398390Y-67663220D02*
X105350771Y-67615601D01*
X105350771Y-67615601D02*
X105303152Y-67520363D01*
X105303152Y-67520363D02*
X105303152Y-67377506D01*
X105303152Y-67377506D02*
X105350771Y-67282268D01*
X105350771Y-67282268D02*
X105446009Y-67234649D01*
X105446009Y-67234649D02*
X105969819Y-67234649D01*
X105969819Y-66329887D02*
X104969819Y-66329887D01*
X105922200Y-66329887D02*
X105969819Y-66425125D01*
X105969819Y-66425125D02*
X105969819Y-66615601D01*
X105969819Y-66615601D02*
X105922200Y-66710839D01*
X105922200Y-66710839D02*
X105874580Y-66758458D01*
X105874580Y-66758458D02*
X105779342Y-66806077D01*
X105779342Y-66806077D02*
X105493628Y-66806077D01*
X105493628Y-66806077D02*
X105398390Y-66758458D01*
X105398390Y-66758458D02*
X105350771Y-66710839D01*
X105350771Y-66710839D02*
X105303152Y-66615601D01*
X105303152Y-66615601D02*
X105303152Y-66425125D01*
X105303152Y-66425125D02*
X105350771Y-66329887D01*
X105069819Y-56887030D02*
X105069819Y-57363220D01*
X105069819Y-57363220D02*
X105546009Y-57410839D01*
X105546009Y-57410839D02*
X105498390Y-57363220D01*
X105498390Y-57363220D02*
X105450771Y-57267982D01*
X105450771Y-57267982D02*
X105450771Y-57029887D01*
X105450771Y-57029887D02*
X105498390Y-56934649D01*
X105498390Y-56934649D02*
X105546009Y-56887030D01*
X105546009Y-56887030D02*
X105641247Y-56839411D01*
X105641247Y-56839411D02*
X105879342Y-56839411D01*
X105879342Y-56839411D02*
X105974580Y-56887030D01*
X105974580Y-56887030D02*
X106022200Y-56934649D01*
X106022200Y-56934649D02*
X106069819Y-57029887D01*
X106069819Y-57029887D02*
X106069819Y-57267982D01*
X106069819Y-57267982D02*
X106022200Y-57363220D01*
X106022200Y-57363220D02*
X105974580Y-57410839D01*
X105069819Y-56553696D02*
X106069819Y-56220363D01*
X106069819Y-56220363D02*
X105069819Y-55887030D01*
D11*
G36*
X131706866Y-82975273D02*
G01*
X131896803Y-82996430D01*
X132073596Y-83031693D01*
X132276105Y-83095606D01*
X132458078Y-83181559D01*
X132619515Y-83289550D01*
X132760415Y-83419581D01*
X132881087Y-83571393D01*
X132981307Y-83745340D01*
X133061073Y-83941421D01*
X133120387Y-84159637D01*
X133159247Y-84399987D01*
X133175610Y-84608204D01*
X133179291Y-84773663D01*
X133171931Y-85010212D01*
X133149852Y-85241144D01*
X133113054Y-85466458D01*
X133061536Y-85686154D01*
X132995298Y-85900233D01*
X132914341Y-86108695D01*
X132818665Y-86311538D01*
X132708269Y-86508764D01*
X132603420Y-86669392D01*
X132454576Y-86858986D01*
X132295394Y-87020491D01*
X132125873Y-87153909D01*
X131946014Y-87259239D01*
X131755817Y-87336480D01*
X131555281Y-87385634D01*
X131344407Y-87406700D01*
X131290073Y-87407578D01*
X131115363Y-87400098D01*
X130906292Y-87369711D01*
X130707573Y-87315949D01*
X130519205Y-87238812D01*
X130341189Y-87138300D01*
X130173525Y-87014414D01*
X130077896Y-86928862D01*
X129924223Y-86761231D01*
X129796596Y-86578908D01*
X129695016Y-86381892D01*
X129619482Y-86170183D01*
X129569994Y-85943781D01*
X129546553Y-85702687D01*
X129544550Y-85606043D01*
X130227494Y-85606043D01*
X130242343Y-85804027D01*
X130295678Y-86009573D01*
X130387801Y-86193015D01*
X130518713Y-86354352D01*
X130537805Y-86372965D01*
X130696700Y-86497346D01*
X130875043Y-86586189D01*
X131047047Y-86634776D01*
X131233940Y-86656153D01*
X131290073Y-86657264D01*
X131482314Y-86635694D01*
X131662173Y-86570985D01*
X131829650Y-86463137D01*
X131984745Y-86312149D01*
X132104533Y-86153372D01*
X132172278Y-86043726D01*
X132265861Y-85865018D01*
X132343582Y-85678774D01*
X132405442Y-85484992D01*
X132451440Y-85283673D01*
X132481577Y-85074816D01*
X132495852Y-84858423D01*
X132497121Y-84769755D01*
X132489187Y-84558718D01*
X132459875Y-84344892D01*
X132399928Y-84143224D01*
X132298769Y-83970795D01*
X132271441Y-83940307D01*
X132123278Y-83833102D01*
X131947072Y-83767263D01*
X131758531Y-83732395D01*
X131571399Y-83719400D01*
X131503785Y-83718534D01*
X131308198Y-83740104D01*
X131123430Y-83804813D01*
X130949482Y-83912661D01*
X130812789Y-84035489D01*
X130683610Y-84188274D01*
X130585676Y-84332072D01*
X130482489Y-84514644D01*
X130396791Y-84703321D01*
X130328583Y-84898105D01*
X130277864Y-85098995D01*
X130244634Y-85305990D01*
X130228893Y-85519092D01*
X130227494Y-85606043D01*
X129544550Y-85606043D01*
X129544469Y-85602135D01*
X129552470Y-85365403D01*
X129576473Y-85133921D01*
X129616477Y-84907691D01*
X129672483Y-84686713D01*
X129744491Y-84470985D01*
X129832500Y-84260509D01*
X129936511Y-84055284D01*
X130056524Y-83855310D01*
X130166858Y-83696777D01*
X130322126Y-83509657D01*
X130486718Y-83350258D01*
X130660634Y-83218580D01*
X130843872Y-83114625D01*
X131036434Y-83038390D01*
X131238318Y-82989877D01*
X131449527Y-82969086D01*
X131503785Y-82968220D01*
X131706866Y-82975273D01*
G37*
G36*
X135572016Y-85286573D02*
G01*
X135536937Y-85495787D01*
X135431433Y-85658509D01*
X135257040Y-85718949D01*
X135237770Y-85719371D01*
X135064993Y-85677812D01*
X134953265Y-85521535D01*
X134934298Y-85367662D01*
X134922330Y-85094110D01*
X134730520Y-85144989D01*
X134560288Y-85225818D01*
X134411634Y-85336597D01*
X134284559Y-85477327D01*
X134179062Y-85648007D01*
X134148691Y-85711556D01*
X134151256Y-87054891D01*
X134102678Y-87246723D01*
X134057222Y-87306950D01*
X133904087Y-87397751D01*
X133818719Y-87407578D01*
X133652209Y-87360875D01*
X133587909Y-87299134D01*
X133515782Y-87120898D01*
X133510973Y-87048053D01*
X133510973Y-85266057D01*
X133514016Y-85065155D01*
X133515247Y-85014975D01*
X133519971Y-84816824D01*
X133520376Y-84762916D01*
X133561888Y-84570075D01*
X133600732Y-84508904D01*
X133752360Y-84414436D01*
X133830687Y-84406322D01*
X134000829Y-84450423D01*
X134116235Y-84597733D01*
X134148691Y-84719930D01*
X134311610Y-84592103D01*
X134481081Y-84490723D01*
X134657103Y-84415790D01*
X134839677Y-84367304D01*
X135028803Y-84345265D01*
X135093300Y-84343796D01*
X135280830Y-84379840D01*
X135438751Y-84509304D01*
X135527581Y-84699822D01*
X135567061Y-84920499D01*
X135574581Y-85097041D01*
X135572016Y-85286573D01*
G37*
G36*
X137402637Y-84354276D02*
G01*
X137576733Y-84392415D01*
X137618527Y-84407299D01*
X137775063Y-84493245D01*
X137883531Y-84599762D01*
X138057281Y-84667664D01*
X138164572Y-84830742D01*
X138188712Y-85013998D01*
X138177630Y-85217803D01*
X138152806Y-85425050D01*
X138138276Y-85523000D01*
X138108736Y-85727181D01*
X138083161Y-85934893D01*
X138061552Y-86146134D01*
X138043908Y-86360906D01*
X138030230Y-86579207D01*
X138020517Y-86801039D01*
X138017742Y-86890760D01*
X138008446Y-87105648D01*
X137992524Y-87305301D01*
X137963305Y-87533444D01*
X137923735Y-87737783D01*
X137862587Y-87951568D01*
X137786532Y-88131075D01*
X137757868Y-88183293D01*
X137647705Y-88338092D01*
X137513835Y-88466653D01*
X137356255Y-88568978D01*
X137174967Y-88645065D01*
X136969970Y-88694915D01*
X136788902Y-88715905D01*
X136643143Y-88720628D01*
X136423954Y-88713025D01*
X136233991Y-88690219D01*
X136037634Y-88640331D01*
X135862283Y-88549106D01*
X135740816Y-88399441D01*
X135707937Y-88234096D01*
X135744016Y-88034462D01*
X135791713Y-87952728D01*
X135940307Y-87853762D01*
X136013119Y-87845261D01*
X136185224Y-87869685D01*
X136323429Y-87907787D01*
X136491284Y-87950530D01*
X136661880Y-87970069D01*
X136681612Y-87970314D01*
X136867867Y-87953621D01*
X137040239Y-87895919D01*
X137187810Y-87784842D01*
X137209909Y-87759288D01*
X137306302Y-87583626D01*
X137361578Y-87389412D01*
X137392887Y-87178631D01*
X137402250Y-87059776D01*
X137263440Y-87191201D01*
X137126133Y-87273733D01*
X136954441Y-87329381D01*
X136789323Y-87345052D01*
X136616115Y-87332344D01*
X136429993Y-87285394D01*
X136261052Y-87203849D01*
X136109291Y-87087710D01*
X136011409Y-86983572D01*
X135894827Y-86815748D01*
X135806880Y-86628569D01*
X135747566Y-86422036D01*
X135716887Y-86196149D01*
X135712212Y-86058381D01*
X135713162Y-86035910D01*
X136371301Y-86035910D01*
X136381820Y-86232507D01*
X136422211Y-86424848D01*
X136479012Y-86548820D01*
X136614506Y-86677048D01*
X136790443Y-86719623D01*
X136803855Y-86719790D01*
X136976969Y-86667805D01*
X137125873Y-86540493D01*
X137200505Y-86448192D01*
X137301819Y-86287660D01*
X137381961Y-86096784D01*
X137414218Y-85939190D01*
X137444405Y-85737651D01*
X137470478Y-85533281D01*
X137494694Y-85323002D01*
X137516493Y-85119395D01*
X137520219Y-85083363D01*
X137363624Y-85000165D01*
X137358653Y-84998367D01*
X137205635Y-84969057D01*
X137013507Y-84988902D01*
X136844033Y-85048436D01*
X136680453Y-85162854D01*
X136573046Y-85286573D01*
X136475523Y-85462763D01*
X136409916Y-85666001D01*
X136378394Y-85869363D01*
X136371301Y-86035910D01*
X135713162Y-86035910D01*
X135721958Y-85827962D01*
X135751197Y-85611760D01*
X135799930Y-85409773D01*
X135868155Y-85222001D01*
X135955873Y-85048446D01*
X136063084Y-84889106D01*
X136111427Y-84829351D01*
X136247819Y-84689469D01*
X136398402Y-84573296D01*
X136563178Y-84480832D01*
X136742146Y-84412077D01*
X136935305Y-84367030D01*
X137142656Y-84345692D01*
X137229570Y-84343796D01*
X137402637Y-84354276D01*
G37*
G36*
X140031822Y-84364266D02*
G01*
X140198317Y-84412600D01*
X140360154Y-84480409D01*
X140378838Y-84489364D01*
X140537786Y-84580833D01*
X140672609Y-84705130D01*
X140742149Y-84897739D01*
X140686584Y-85068709D01*
X140656450Y-85261782D01*
X140648970Y-85340307D01*
X140638602Y-85541475D01*
X140636147Y-85722302D01*
X140639256Y-85934572D01*
X140650423Y-86143278D01*
X140675801Y-86353327D01*
X140701116Y-86466755D01*
X140770760Y-86645906D01*
X140811392Y-86747145D01*
X140881917Y-86929839D01*
X140905425Y-87012882D01*
X140850608Y-87199911D01*
X140807972Y-87250286D01*
X140652427Y-87337556D01*
X140583147Y-87345052D01*
X140417974Y-87267463D01*
X140276556Y-87143655D01*
X140232658Y-87099832D01*
X140074057Y-87182310D01*
X139907862Y-87257350D01*
X139842847Y-87282526D01*
X139669349Y-87333084D01*
X139556472Y-87345052D01*
X139382672Y-87336465D01*
X139192735Y-87303492D01*
X139023114Y-87245790D01*
X138850900Y-87147215D01*
X138706339Y-87014981D01*
X138687944Y-86993342D01*
X138575027Y-86822305D01*
X138489843Y-86617796D01*
X138438903Y-86415860D01*
X138408338Y-86189333D01*
X138398825Y-85989993D01*
X139064078Y-85989993D01*
X139075348Y-86199583D01*
X139118625Y-86404747D01*
X139179483Y-86537096D01*
X139313033Y-86668229D01*
X139483435Y-86718184D01*
X139525697Y-86719790D01*
X139696906Y-86700158D01*
X139807798Y-86664103D01*
X139968483Y-86573886D01*
X140059124Y-86499972D01*
X140034720Y-86269242D01*
X140015366Y-86061388D01*
X139999167Y-85847802D01*
X139989069Y-85641829D01*
X139987316Y-85533747D01*
X139997575Y-85334445D01*
X140022405Y-85134162D01*
X140030059Y-85083363D01*
X139944574Y-85044284D01*
X139881315Y-85031584D01*
X139703640Y-85054458D01*
X139538948Y-85123083D01*
X139387238Y-85237457D01*
X139308565Y-85320767D01*
X139190381Y-85490620D01*
X139110875Y-85674847D01*
X139070047Y-85873448D01*
X139064078Y-85989993D01*
X138398825Y-85989993D01*
X138398433Y-85981774D01*
X138398150Y-85938213D01*
X138408585Y-85737371D01*
X138448657Y-85508577D01*
X138518781Y-85293109D01*
X138618959Y-85090967D01*
X138725397Y-84932696D01*
X138825575Y-84812742D01*
X138963524Y-84677645D01*
X139109696Y-84565446D01*
X139264091Y-84476145D01*
X139426708Y-84409741D01*
X139597549Y-84366236D01*
X139776612Y-84345628D01*
X139850540Y-84343796D01*
X140031822Y-84364266D01*
G37*
G36*
X143124616Y-87407578D02*
G01*
X142952279Y-87369944D01*
X142828570Y-87228426D01*
X142795498Y-87089085D01*
X142770374Y-86884975D01*
X142745009Y-86680040D01*
X142727965Y-86542958D01*
X142707524Y-86348070D01*
X142694902Y-86144417D01*
X142692062Y-85997808D01*
X142699082Y-85793617D01*
X142700610Y-85763335D01*
X142708750Y-85563457D01*
X142709159Y-85528862D01*
X142713433Y-85435073D01*
X142718562Y-85312951D01*
X142674015Y-85119969D01*
X142615125Y-85094110D01*
X142436643Y-85141998D01*
X142287824Y-85257325D01*
X142180861Y-85384270D01*
X142068845Y-85559773D01*
X141981423Y-85736406D01*
X141905435Y-85932457D01*
X141848325Y-86119930D01*
X141831027Y-86321140D01*
X141826953Y-86357334D01*
X141812776Y-86558287D01*
X141812421Y-86594738D01*
X141825058Y-86795442D01*
X141827808Y-86823349D01*
X141842655Y-87020060D01*
X141843196Y-87050983D01*
X141794176Y-87245119D01*
X141748307Y-87305973D01*
X141594401Y-87397656D01*
X141508949Y-87407578D01*
X141341054Y-87363400D01*
X141270446Y-87304996D01*
X141184638Y-87129776D01*
X141177267Y-87046099D01*
X141165332Y-86843789D01*
X141162735Y-86815533D01*
X141148713Y-86615350D01*
X141148203Y-86583991D01*
X141152142Y-86379069D01*
X141161226Y-86175342D01*
X141173728Y-85967003D01*
X141181542Y-85853217D01*
X141194865Y-85657917D01*
X141206085Y-85458874D01*
X141214099Y-85246306D01*
X141215736Y-85121465D01*
X141209650Y-84925947D01*
X141207187Y-84877222D01*
X141199173Y-84679202D01*
X141198639Y-84633956D01*
X141248983Y-84442124D01*
X141296092Y-84381898D01*
X141451100Y-84291097D01*
X141535450Y-84281270D01*
X141703882Y-84323821D01*
X141822819Y-84468922D01*
X141868440Y-84664235D01*
X141872260Y-84716999D01*
X141874825Y-84747285D01*
X142007901Y-84610162D01*
X142166499Y-84486041D01*
X142328697Y-84400536D01*
X142518474Y-84350100D01*
X142615125Y-84343796D01*
X142800592Y-84364085D01*
X142979497Y-84436961D01*
X143123138Y-84562838D01*
X143231517Y-84741715D01*
X143242585Y-84767801D01*
X143303443Y-84972965D01*
X143335901Y-85176664D01*
X143352467Y-85383751D01*
X143357877Y-85582687D01*
X143357990Y-85617766D01*
X143357990Y-85808276D01*
X143355425Y-85983154D01*
X143365243Y-86189279D01*
X143386731Y-86383769D01*
X143406716Y-86522442D01*
X143434215Y-86716710D01*
X143453770Y-86917844D01*
X143458862Y-87058799D01*
X143408959Y-87248327D01*
X143362264Y-87307927D01*
X143208798Y-87397846D01*
X143124616Y-87407578D01*
G37*
G36*
X144342777Y-83906113D02*
G01*
X144174518Y-83867882D01*
X144076064Y-83797669D01*
X143976557Y-83633437D01*
X143963224Y-83530956D01*
X144016558Y-83337767D01*
X144076064Y-83265219D01*
X144233142Y-83171186D01*
X144342777Y-83155799D01*
X144510734Y-83194374D01*
X144608635Y-83265219D01*
X144707388Y-83428589D01*
X144720621Y-83530956D01*
X144667690Y-83724606D01*
X144608635Y-83797669D01*
X144452291Y-83890863D01*
X144342777Y-83906113D01*
G37*
G36*
X144547086Y-85955799D02*
G01*
X144549223Y-86162428D01*
X144553172Y-86360591D01*
X144555635Y-86465778D01*
X144560143Y-86666190D01*
X144563507Y-86870529D01*
X144564183Y-86974780D01*
X144519738Y-87169647D01*
X144470150Y-87240516D01*
X144317786Y-87334843D01*
X144232501Y-87345052D01*
X144064606Y-87300032D01*
X143993998Y-87240516D01*
X143909919Y-87069996D01*
X143900819Y-86974780D01*
X143898682Y-86768394D01*
X143894734Y-86570683D01*
X143892271Y-86465778D01*
X143887763Y-86264850D01*
X143884399Y-86060126D01*
X143883722Y-85955799D01*
X143887088Y-85752237D01*
X143895036Y-85555946D01*
X143906186Y-85358565D01*
X143907658Y-85335422D01*
X143919229Y-85135387D01*
X143927644Y-84936329D01*
X143931571Y-84729699D01*
X143931594Y-84714068D01*
X143975636Y-84519200D01*
X144024773Y-84448332D01*
X144177908Y-84354004D01*
X144263276Y-84343796D01*
X144430803Y-84388816D01*
X144500924Y-84448332D01*
X144585775Y-84618851D01*
X144594958Y-84714068D01*
X144591592Y-84917766D01*
X144583644Y-85114382D01*
X144572494Y-85312219D01*
X144571022Y-85335422D01*
X144559451Y-85534984D01*
X144551036Y-85733699D01*
X144547109Y-85940168D01*
X144547086Y-85955799D01*
G37*
G36*
X146271318Y-87407578D02*
G01*
X146079188Y-87395625D01*
X145899018Y-87359767D01*
X145730809Y-87300004D01*
X145574562Y-87216336D01*
X145430276Y-87108762D01*
X145384839Y-87067592D01*
X145256431Y-86924767D01*
X145154591Y-86765937D01*
X145069354Y-86560405D01*
X145025076Y-86366896D01*
X145007364Y-86157382D01*
X145006995Y-86120907D01*
X145018926Y-85916372D01*
X145054720Y-85709434D01*
X145114376Y-85500091D01*
X145197894Y-85288344D01*
X145285721Y-85110051D01*
X145346371Y-85002274D01*
X145469631Y-84812576D01*
X145598986Y-84655030D01*
X145734434Y-84529636D01*
X145905017Y-84421604D01*
X146084375Y-84359872D01*
X146240544Y-84343796D01*
X146422642Y-84363075D01*
X146605366Y-84414060D01*
X146783808Y-84487193D01*
X146825261Y-84506950D01*
X146983479Y-84597945D01*
X147129801Y-84723593D01*
X147221402Y-84890387D01*
X147231315Y-84971011D01*
X147185153Y-85167383D01*
X147149249Y-85225024D01*
X146999080Y-85334786D01*
X146926133Y-85344214D01*
X146755804Y-85279612D01*
X146677372Y-85219162D01*
X146522234Y-85133677D01*
X146344719Y-85098506D01*
X146240544Y-85094110D01*
X146072923Y-85166478D01*
X145945781Y-85306784D01*
X145839619Y-85472198D01*
X145749112Y-85648236D01*
X145678201Y-85831535D01*
X145635978Y-86034368D01*
X145632745Y-86102344D01*
X145662937Y-86296699D01*
X145762982Y-86464890D01*
X145815683Y-86514626D01*
X145974327Y-86606979D01*
X146153324Y-86650439D01*
X146272173Y-86657264D01*
X146451051Y-86626001D01*
X146623140Y-86554560D01*
X146666259Y-86532212D01*
X146827659Y-86451245D01*
X146962037Y-86407159D01*
X147129391Y-86464191D01*
X147184298Y-86517557D01*
X147269319Y-86692404D01*
X147276622Y-86769616D01*
X147209184Y-86949645D01*
X147065529Y-87087909D01*
X146893143Y-87198383D01*
X146868004Y-87212184D01*
X146693507Y-87297669D01*
X146517380Y-87364645D01*
X146346744Y-87402808D01*
X146271318Y-87407578D01*
G37*
G36*
X151862037Y-83906113D02*
G01*
X151688266Y-83895793D01*
X151510083Y-83879185D01*
X151309644Y-83858241D01*
X151176448Y-83843586D01*
X151165117Y-84048579D01*
X151156131Y-84277407D01*
X151150434Y-84486307D01*
X151146364Y-84711759D01*
X151143922Y-84953765D01*
X151143141Y-85159287D01*
X151143108Y-85212323D01*
X151140544Y-86469685D01*
X151321330Y-86465907D01*
X151504009Y-86463366D01*
X151688581Y-86462061D01*
X151791939Y-86461870D01*
X151960203Y-86510256D01*
X152031297Y-86574221D01*
X152116919Y-86748603D01*
X152126186Y-86841912D01*
X152081336Y-87036024D01*
X152031297Y-87109602D01*
X151877391Y-87209218D01*
X151791939Y-87220000D01*
X151610554Y-87221102D01*
X151436905Y-87223209D01*
X151387595Y-87223907D01*
X151204631Y-87226289D01*
X151029345Y-87227720D01*
X150984106Y-87227815D01*
X150800293Y-87233826D01*
X150621326Y-87245874D01*
X150507955Y-87255170D01*
X150325181Y-87269596D01*
X150146624Y-87279854D01*
X150031803Y-87282526D01*
X149863540Y-87231615D01*
X149792445Y-87164312D01*
X149708769Y-86987258D01*
X149697557Y-86878060D01*
X149734623Y-86686711D01*
X149792445Y-86589853D01*
X149938339Y-86483885D01*
X150031803Y-86469685D01*
X150208216Y-86469685D01*
X150381804Y-86469685D01*
X150462648Y-86469685D01*
X150460404Y-86273497D01*
X150458966Y-86042027D01*
X150458240Y-85842516D01*
X150457764Y-85614525D01*
X150457564Y-85411628D01*
X150457519Y-85247494D01*
X150458687Y-85019246D01*
X150462194Y-84794290D01*
X150468037Y-84572626D01*
X150476219Y-84354252D01*
X150486737Y-84139171D01*
X150499593Y-83927381D01*
X150505390Y-83843586D01*
X149983932Y-83843586D01*
X149814564Y-83798567D01*
X149742009Y-83739050D01*
X149654073Y-83570420D01*
X149644556Y-83478199D01*
X149690214Y-83287403D01*
X149741154Y-83219302D01*
X149897592Y-83126428D01*
X149959996Y-83114766D01*
X150142131Y-83102529D01*
X150321035Y-83096820D01*
X150509658Y-83094028D01*
X150695167Y-83093272D01*
X150881648Y-83095471D01*
X151087182Y-83102065D01*
X151273016Y-83110919D01*
X151472082Y-83122826D01*
X151684379Y-83137786D01*
X151863744Y-83151952D01*
X151909909Y-83155799D01*
X152078306Y-83222325D01*
X152187201Y-83389356D01*
X152205687Y-83539748D01*
X152158603Y-83732624D01*
X152085153Y-83820139D01*
X151922785Y-83900739D01*
X151862037Y-83906113D01*
G37*
G36*
X154799752Y-82893039D02*
G01*
X154859141Y-82948681D01*
X154938651Y-83124581D01*
X154945481Y-83206601D01*
X154942062Y-83432037D01*
X154935009Y-83633492D01*
X154924110Y-83862698D01*
X154912088Y-84074903D01*
X154897396Y-84306381D01*
X154890771Y-84404368D01*
X154875256Y-84643273D01*
X154862370Y-84862953D01*
X154852115Y-85063409D01*
X154843279Y-85278579D01*
X154837757Y-85494622D01*
X154836915Y-85601158D01*
X154837783Y-85836471D01*
X154840388Y-86051481D01*
X154846085Y-86291693D01*
X154854496Y-86500181D01*
X154868171Y-86708494D01*
X154892480Y-86915184D01*
X154899319Y-86995296D01*
X154849416Y-87187018D01*
X154802721Y-87246378D01*
X154648750Y-87337247D01*
X154579605Y-87345052D01*
X154408512Y-87287865D01*
X154315457Y-87164312D01*
X154159142Y-87252469D01*
X153987023Y-87308644D01*
X153976081Y-87310858D01*
X153797845Y-87336503D01*
X153625314Y-87345018D01*
X153613625Y-87345052D01*
X153418098Y-87331519D01*
X153235434Y-87290922D01*
X153065633Y-87223259D01*
X152908694Y-87128531D01*
X152764618Y-87006737D01*
X152719452Y-86960125D01*
X152595983Y-86805256D01*
X152498059Y-86635206D01*
X152425681Y-86449974D01*
X152378847Y-86249562D01*
X152357560Y-86033968D01*
X152356140Y-85958729D01*
X152356735Y-85944075D01*
X152974197Y-85944075D01*
X153005941Y-86148997D01*
X153101172Y-86328765D01*
X153166538Y-86403251D01*
X153319570Y-86519938D01*
X153490152Y-86582770D01*
X153613625Y-86594738D01*
X153784963Y-86582054D01*
X153894870Y-86549797D01*
X154043294Y-86449230D01*
X154115422Y-86390551D01*
X154194923Y-86314347D01*
X154192448Y-86106734D01*
X154192518Y-85903179D01*
X154193360Y-85677579D01*
X154194612Y-85453529D01*
X154194923Y-85404787D01*
X154083639Y-85247060D01*
X153988049Y-85171290D01*
X153819917Y-85106848D01*
X153685432Y-85094110D01*
X153499462Y-85110957D01*
X153325821Y-85169193D01*
X153174926Y-85281299D01*
X153152006Y-85307090D01*
X153050773Y-85478008D01*
X152995208Y-85677066D01*
X152974892Y-85891784D01*
X152974197Y-85944075D01*
X152356735Y-85944075D01*
X152365052Y-85739297D01*
X152391787Y-85533461D01*
X152436345Y-85341220D01*
X152513342Y-85128476D01*
X152616004Y-84935311D01*
X152721161Y-84789295D01*
X152866209Y-84637895D01*
X153026944Y-84517819D01*
X153203367Y-84429067D01*
X153395478Y-84371639D01*
X153567554Y-84347711D01*
X153676029Y-84343796D01*
X153846785Y-84354787D01*
X153998307Y-84387759D01*
X154160662Y-84459887D01*
X154243649Y-84519651D01*
X154251543Y-84287147D01*
X154259838Y-84073236D01*
X154268533Y-83877918D01*
X154279966Y-83659917D01*
X154294512Y-83436663D01*
X154312622Y-83229075D01*
X154318021Y-83180223D01*
X154373505Y-82988325D01*
X154509401Y-82864234D01*
X154630896Y-82843168D01*
X154799752Y-82893039D01*
G37*
G36*
X156682009Y-84351977D02*
G01*
X156866911Y-84381362D01*
X157033967Y-84432119D01*
X157200575Y-84514766D01*
X157342139Y-84625469D01*
X157461350Y-84781296D01*
X157535148Y-84968386D01*
X157563532Y-85186739D01*
X157563886Y-85216231D01*
X157528936Y-85415024D01*
X157436505Y-85581720D01*
X157303925Y-85720326D01*
X157268108Y-85749658D01*
X157113643Y-85853098D01*
X156954308Y-85943602D01*
X156776687Y-86037025D01*
X156726988Y-86062288D01*
X155916591Y-86469685D01*
X156079546Y-86535631D01*
X156195272Y-86563475D01*
X156371157Y-86586922D01*
X156544341Y-86594616D01*
X156570551Y-86594738D01*
X156743988Y-86581677D01*
X156918298Y-86536531D01*
X157087668Y-86449623D01*
X157115945Y-86429630D01*
X157265353Y-86334114D01*
X157436514Y-86282107D01*
X157607150Y-86341385D01*
X157682230Y-86519221D01*
X157686130Y-86591807D01*
X157646894Y-86797295D01*
X157544487Y-86960863D01*
X157400098Y-87089258D01*
X157284351Y-87161381D01*
X157113755Y-87241737D01*
X156937923Y-87299134D01*
X156756855Y-87333572D01*
X156570551Y-87345052D01*
X156396125Y-87337395D01*
X156200257Y-87307995D01*
X156019056Y-87256543D01*
X155852520Y-87183042D01*
X155700651Y-87087489D01*
X155630216Y-87031444D01*
X155493093Y-86891424D01*
X155384340Y-86731483D01*
X155303957Y-86551621D01*
X155251945Y-86351838D01*
X155228303Y-86132134D01*
X155226727Y-86054473D01*
X155234532Y-85842320D01*
X155241547Y-85781898D01*
X155868719Y-85781898D01*
X156038370Y-85697309D01*
X156207520Y-85613294D01*
X156376169Y-85529850D01*
X156409839Y-85513230D01*
X156582082Y-85420091D01*
X156748878Y-85321134D01*
X156902463Y-85217792D01*
X156927023Y-85199623D01*
X156766999Y-85127495D01*
X156585001Y-85096686D01*
X156506437Y-85094110D01*
X156335183Y-85122488D01*
X156174739Y-85216521D01*
X156123464Y-85266057D01*
X156013509Y-85419197D01*
X155927924Y-85602059D01*
X155868719Y-85781898D01*
X155241547Y-85781898D01*
X155257949Y-85640615D01*
X155296976Y-85449356D01*
X155364416Y-85233636D01*
X155454335Y-85032960D01*
X155546441Y-84877222D01*
X155663623Y-84723549D01*
X155820221Y-84573523D01*
X155994250Y-84461004D01*
X156185710Y-84385991D01*
X156358575Y-84352131D01*
X156505582Y-84343796D01*
X156682009Y-84351977D01*
G37*
G36*
X159621564Y-84364266D02*
G01*
X159788059Y-84412600D01*
X159949896Y-84480409D01*
X159968579Y-84489364D01*
X160127528Y-84580833D01*
X160262351Y-84705130D01*
X160331891Y-84897739D01*
X160276325Y-85068709D01*
X160246192Y-85261782D01*
X160238712Y-85340307D01*
X160228344Y-85541475D01*
X160225889Y-85722302D01*
X160228998Y-85934572D01*
X160240165Y-86143278D01*
X160265543Y-86353327D01*
X160290858Y-86466755D01*
X160360502Y-86645906D01*
X160401133Y-86747145D01*
X160471659Y-86929839D01*
X160495167Y-87012882D01*
X160440350Y-87199911D01*
X160397714Y-87250286D01*
X160242169Y-87337556D01*
X160172889Y-87345052D01*
X160007716Y-87267463D01*
X159866298Y-87143655D01*
X159822400Y-87099832D01*
X159663799Y-87182310D01*
X159497604Y-87257350D01*
X159432588Y-87282526D01*
X159259091Y-87333084D01*
X159146214Y-87345052D01*
X158972414Y-87336465D01*
X158782477Y-87303492D01*
X158612856Y-87245790D01*
X158440642Y-87147215D01*
X158296080Y-87014981D01*
X158277686Y-86993342D01*
X158164768Y-86822305D01*
X158079585Y-86617796D01*
X158028644Y-86415860D01*
X157998080Y-86189333D01*
X157988567Y-85989993D01*
X158653820Y-85989993D01*
X158665090Y-86199583D01*
X158708367Y-86404747D01*
X158769225Y-86537096D01*
X158902774Y-86668229D01*
X159073177Y-86718184D01*
X159115439Y-86719790D01*
X159286648Y-86700158D01*
X159397540Y-86664103D01*
X159558225Y-86573886D01*
X159648866Y-86499972D01*
X159624462Y-86269242D01*
X159605108Y-86061388D01*
X159588909Y-85847802D01*
X159578811Y-85641829D01*
X159577058Y-85533747D01*
X159587316Y-85334445D01*
X159612147Y-85134162D01*
X159619801Y-85083363D01*
X159534316Y-85044284D01*
X159471057Y-85031584D01*
X159293382Y-85054458D01*
X159128689Y-85123083D01*
X158976980Y-85237457D01*
X158898307Y-85320767D01*
X158780123Y-85490620D01*
X158700617Y-85674847D01*
X158659789Y-85873448D01*
X158653820Y-85989993D01*
X157988567Y-85989993D01*
X157988175Y-85981774D01*
X157987892Y-85938213D01*
X157998327Y-85737371D01*
X158038398Y-85508577D01*
X158108523Y-85293109D01*
X158208700Y-85090967D01*
X158315139Y-84932696D01*
X158415317Y-84812742D01*
X158553266Y-84677645D01*
X158699438Y-84565446D01*
X158853833Y-84476145D01*
X159016450Y-84409741D01*
X159187291Y-84366236D01*
X159366354Y-84345628D01*
X159440282Y-84343796D01*
X159621564Y-84364266D01*
G37*
G36*
X162512613Y-85281688D02*
G01*
X162340411Y-85248590D01*
X162226238Y-85108764D01*
X162054106Y-85094339D01*
X162028768Y-85094110D01*
X161832089Y-85099846D01*
X161654061Y-85121037D01*
X161486205Y-85185884D01*
X161450034Y-85257264D01*
X161586276Y-85401367D01*
X161756578Y-85491737D01*
X161798813Y-85511277D01*
X161966260Y-85589278D01*
X162134343Y-85671858D01*
X162290473Y-85755129D01*
X162442515Y-85850286D01*
X162595106Y-85983337D01*
X162714658Y-86150974D01*
X162779032Y-86337623D01*
X162791294Y-86472616D01*
X162772886Y-86673399D01*
X162706769Y-86875388D01*
X162592566Y-87048068D01*
X162453194Y-87175120D01*
X162406612Y-87207299D01*
X162242587Y-87294921D01*
X162060825Y-87357508D01*
X161887232Y-87391736D01*
X161700058Y-87406796D01*
X161644085Y-87407578D01*
X161468642Y-87397609D01*
X161284014Y-87363148D01*
X161110239Y-87304072D01*
X161060223Y-87281549D01*
X160902396Y-87185867D01*
X160768525Y-87037584D01*
X160702647Y-86837669D01*
X160699476Y-86776454D01*
X160746739Y-86577834D01*
X160903350Y-86477175D01*
X160985851Y-86469685D01*
X161162431Y-86506322D01*
X161305565Y-86563475D01*
X161470334Y-86627588D01*
X161627843Y-86657264D01*
X161818161Y-86647587D01*
X161994574Y-86606706D01*
X162117893Y-86467473D01*
X162118527Y-86455031D01*
X161998884Y-86298138D01*
X161839802Y-86209753D01*
X161779152Y-86182456D01*
X161606045Y-86106080D01*
X161435689Y-86027655D01*
X161266669Y-85943720D01*
X161144853Y-85872756D01*
X160996376Y-85745261D01*
X160880047Y-85576138D01*
X160817409Y-85379813D01*
X160805478Y-85233817D01*
X160823479Y-85031916D01*
X160889987Y-84829617D01*
X161005499Y-84663128D01*
X161170017Y-84532449D01*
X161317533Y-84461032D01*
X161487488Y-84409741D01*
X161668192Y-84376883D01*
X161846849Y-84357649D01*
X162047445Y-84346658D01*
X162231367Y-84343796D01*
X162405942Y-84355889D01*
X162572072Y-84408196D01*
X162586985Y-84417069D01*
X162711050Y-84567470D01*
X162745832Y-84761307D01*
X162745987Y-84777571D01*
X162734820Y-84974000D01*
X162680123Y-85170920D01*
X162526971Y-85281196D01*
X162512613Y-85281688D01*
G37*
D12*
X129577474Y-90908500D02*
X129648902Y-90932309D01*
X129648902Y-90932309D02*
X129767950Y-90932309D01*
X129767950Y-90932309D02*
X129815569Y-90908500D01*
X129815569Y-90908500D02*
X129839378Y-90884690D01*
X129839378Y-90884690D02*
X129863188Y-90837071D01*
X129863188Y-90837071D02*
X129863188Y-90789452D01*
X129863188Y-90789452D02*
X129839378Y-90741833D01*
X129839378Y-90741833D02*
X129815569Y-90718023D01*
X129815569Y-90718023D02*
X129767950Y-90694214D01*
X129767950Y-90694214D02*
X129672712Y-90670404D01*
X129672712Y-90670404D02*
X129625093Y-90646595D01*
X129625093Y-90646595D02*
X129601283Y-90622785D01*
X129601283Y-90622785D02*
X129577474Y-90575166D01*
X129577474Y-90575166D02*
X129577474Y-90527547D01*
X129577474Y-90527547D02*
X129601283Y-90479928D01*
X129601283Y-90479928D02*
X129625093Y-90456119D01*
X129625093Y-90456119D02*
X129672712Y-90432309D01*
X129672712Y-90432309D02*
X129791759Y-90432309D01*
X129791759Y-90432309D02*
X129863188Y-90456119D01*
X130077473Y-90932309D02*
X130077473Y-90432309D01*
X130291759Y-90932309D02*
X130291759Y-90670404D01*
X130291759Y-90670404D02*
X130267949Y-90622785D01*
X130267949Y-90622785D02*
X130220330Y-90598976D01*
X130220330Y-90598976D02*
X130148902Y-90598976D01*
X130148902Y-90598976D02*
X130101283Y-90622785D01*
X130101283Y-90622785D02*
X130077473Y-90646595D01*
X130744140Y-90932309D02*
X130744140Y-90670404D01*
X130744140Y-90670404D02*
X130720330Y-90622785D01*
X130720330Y-90622785D02*
X130672711Y-90598976D01*
X130672711Y-90598976D02*
X130577473Y-90598976D01*
X130577473Y-90598976D02*
X130529854Y-90622785D01*
X130744140Y-90908500D02*
X130696521Y-90932309D01*
X130696521Y-90932309D02*
X130577473Y-90932309D01*
X130577473Y-90932309D02*
X130529854Y-90908500D01*
X130529854Y-90908500D02*
X130506045Y-90860880D01*
X130506045Y-90860880D02*
X130506045Y-90813261D01*
X130506045Y-90813261D02*
X130529854Y-90765642D01*
X130529854Y-90765642D02*
X130577473Y-90741833D01*
X130577473Y-90741833D02*
X130696521Y-90741833D01*
X130696521Y-90741833D02*
X130744140Y-90718023D01*
X131053664Y-90932309D02*
X131006045Y-90908500D01*
X131006045Y-90908500D02*
X130982235Y-90884690D01*
X130982235Y-90884690D02*
X130958426Y-90837071D01*
X130958426Y-90837071D02*
X130958426Y-90694214D01*
X130958426Y-90694214D02*
X130982235Y-90646595D01*
X130982235Y-90646595D02*
X131006045Y-90622785D01*
X131006045Y-90622785D02*
X131053664Y-90598976D01*
X131053664Y-90598976D02*
X131125092Y-90598976D01*
X131125092Y-90598976D02*
X131172711Y-90622785D01*
X131172711Y-90622785D02*
X131196521Y-90646595D01*
X131196521Y-90646595D02*
X131220330Y-90694214D01*
X131220330Y-90694214D02*
X131220330Y-90837071D01*
X131220330Y-90837071D02*
X131196521Y-90884690D01*
X131196521Y-90884690D02*
X131172711Y-90908500D01*
X131172711Y-90908500D02*
X131125092Y-90932309D01*
X131125092Y-90932309D02*
X131053664Y-90932309D01*
X132101282Y-90932309D02*
X131934616Y-90694214D01*
X131815568Y-90932309D02*
X131815568Y-90432309D01*
X131815568Y-90432309D02*
X132006044Y-90432309D01*
X132006044Y-90432309D02*
X132053663Y-90456119D01*
X132053663Y-90456119D02*
X132077473Y-90479928D01*
X132077473Y-90479928D02*
X132101282Y-90527547D01*
X132101282Y-90527547D02*
X132101282Y-90598976D01*
X132101282Y-90598976D02*
X132077473Y-90646595D01*
X132077473Y-90646595D02*
X132053663Y-90670404D01*
X132053663Y-90670404D02*
X132006044Y-90694214D01*
X132006044Y-90694214D02*
X131815568Y-90694214D01*
X132386997Y-90932309D02*
X132339378Y-90908500D01*
X132339378Y-90908500D02*
X132315568Y-90884690D01*
X132315568Y-90884690D02*
X132291759Y-90837071D01*
X132291759Y-90837071D02*
X132291759Y-90694214D01*
X132291759Y-90694214D02*
X132315568Y-90646595D01*
X132315568Y-90646595D02*
X132339378Y-90622785D01*
X132339378Y-90622785D02*
X132386997Y-90598976D01*
X132386997Y-90598976D02*
X132458425Y-90598976D01*
X132458425Y-90598976D02*
X132506044Y-90622785D01*
X132506044Y-90622785D02*
X132529854Y-90646595D01*
X132529854Y-90646595D02*
X132553663Y-90694214D01*
X132553663Y-90694214D02*
X132553663Y-90837071D01*
X132553663Y-90837071D02*
X132529854Y-90884690D01*
X132529854Y-90884690D02*
X132506044Y-90908500D01*
X132506044Y-90908500D02*
X132458425Y-90932309D01*
X132458425Y-90932309D02*
X132386997Y-90932309D01*
X132767949Y-90598976D02*
X132767949Y-90932309D01*
X132767949Y-90646595D02*
X132791759Y-90622785D01*
X132791759Y-90622785D02*
X132839378Y-90598976D01*
X132839378Y-90598976D02*
X132910806Y-90598976D01*
X132910806Y-90598976D02*
X132958425Y-90622785D01*
X132958425Y-90622785D02*
X132982235Y-90670404D01*
X132982235Y-90670404D02*
X132982235Y-90932309D01*
X133434616Y-90598976D02*
X133434616Y-91003738D01*
X133434616Y-91003738D02*
X133410806Y-91051357D01*
X133410806Y-91051357D02*
X133386997Y-91075166D01*
X133386997Y-91075166D02*
X133339378Y-91098976D01*
X133339378Y-91098976D02*
X133267949Y-91098976D01*
X133267949Y-91098976D02*
X133220330Y-91075166D01*
X133434616Y-90908500D02*
X133386997Y-90932309D01*
X133386997Y-90932309D02*
X133291759Y-90932309D01*
X133291759Y-90932309D02*
X133244140Y-90908500D01*
X133244140Y-90908500D02*
X133220330Y-90884690D01*
X133220330Y-90884690D02*
X133196521Y-90837071D01*
X133196521Y-90837071D02*
X133196521Y-90694214D01*
X133196521Y-90694214D02*
X133220330Y-90646595D01*
X133220330Y-90646595D02*
X133244140Y-90622785D01*
X133244140Y-90622785D02*
X133291759Y-90598976D01*
X133291759Y-90598976D02*
X133386997Y-90598976D01*
X133386997Y-90598976D02*
X133434616Y-90622785D01*
X134029854Y-90908500D02*
X134101282Y-90932309D01*
X134101282Y-90932309D02*
X134220330Y-90932309D01*
X134220330Y-90932309D02*
X134267949Y-90908500D01*
X134267949Y-90908500D02*
X134291758Y-90884690D01*
X134291758Y-90884690D02*
X134315568Y-90837071D01*
X134315568Y-90837071D02*
X134315568Y-90789452D01*
X134315568Y-90789452D02*
X134291758Y-90741833D01*
X134291758Y-90741833D02*
X134267949Y-90718023D01*
X134267949Y-90718023D02*
X134220330Y-90694214D01*
X134220330Y-90694214D02*
X134125092Y-90670404D01*
X134125092Y-90670404D02*
X134077473Y-90646595D01*
X134077473Y-90646595D02*
X134053663Y-90622785D01*
X134053663Y-90622785D02*
X134029854Y-90575166D01*
X134029854Y-90575166D02*
X134029854Y-90527547D01*
X134029854Y-90527547D02*
X134053663Y-90479928D01*
X134053663Y-90479928D02*
X134077473Y-90456119D01*
X134077473Y-90456119D02*
X134125092Y-90432309D01*
X134125092Y-90432309D02*
X134244139Y-90432309D01*
X134244139Y-90432309D02*
X134315568Y-90456119D01*
X134529853Y-90932309D02*
X134529853Y-90432309D01*
X134744139Y-90932309D02*
X134744139Y-90670404D01*
X134744139Y-90670404D02*
X134720329Y-90622785D01*
X134720329Y-90622785D02*
X134672710Y-90598976D01*
X134672710Y-90598976D02*
X134601282Y-90598976D01*
X134601282Y-90598976D02*
X134553663Y-90622785D01*
X134553663Y-90622785D02*
X134529853Y-90646595D01*
X134982234Y-90932309D02*
X134982234Y-90598976D01*
X134982234Y-90432309D02*
X134958425Y-90456119D01*
X134958425Y-90456119D02*
X134982234Y-90479928D01*
X134982234Y-90479928D02*
X135006044Y-90456119D01*
X135006044Y-90456119D02*
X134982234Y-90432309D01*
X134982234Y-90432309D02*
X134982234Y-90479928D01*
X135410805Y-90908500D02*
X135363186Y-90932309D01*
X135363186Y-90932309D02*
X135267948Y-90932309D01*
X135267948Y-90932309D02*
X135220329Y-90908500D01*
X135220329Y-90908500D02*
X135196520Y-90860880D01*
X135196520Y-90860880D02*
X135196520Y-90670404D01*
X135196520Y-90670404D02*
X135220329Y-90622785D01*
X135220329Y-90622785D02*
X135267948Y-90598976D01*
X135267948Y-90598976D02*
X135363186Y-90598976D01*
X135363186Y-90598976D02*
X135410805Y-90622785D01*
X135410805Y-90622785D02*
X135434615Y-90670404D01*
X135434615Y-90670404D02*
X135434615Y-90718023D01*
X135434615Y-90718023D02*
X135196520Y-90765642D01*
X135720329Y-90932309D02*
X135672710Y-90908500D01*
X135672710Y-90908500D02*
X135648900Y-90860880D01*
X135648900Y-90860880D02*
X135648900Y-90432309D01*
X136125091Y-90932309D02*
X136125091Y-90432309D01*
X136125091Y-90908500D02*
X136077472Y-90932309D01*
X136077472Y-90932309D02*
X135982234Y-90932309D01*
X135982234Y-90932309D02*
X135934615Y-90908500D01*
X135934615Y-90908500D02*
X135910805Y-90884690D01*
X135910805Y-90884690D02*
X135886996Y-90837071D01*
X135886996Y-90837071D02*
X135886996Y-90694214D01*
X135886996Y-90694214D02*
X135910805Y-90646595D01*
X135910805Y-90646595D02*
X135934615Y-90622785D01*
X135934615Y-90622785D02*
X135982234Y-90598976D01*
X135982234Y-90598976D02*
X136077472Y-90598976D01*
X136077472Y-90598976D02*
X136125091Y-90622785D01*
X136672710Y-90432309D02*
X136839376Y-90932309D01*
X136839376Y-90932309D02*
X137006043Y-90432309D01*
X137434614Y-90932309D02*
X137148900Y-90932309D01*
X137291757Y-90932309D02*
X137291757Y-90432309D01*
X137291757Y-90432309D02*
X137244138Y-90503738D01*
X137244138Y-90503738D02*
X137196519Y-90551357D01*
X137196519Y-90551357D02*
X137148900Y-90575166D01*
D10*
X146082200Y-73196428D02*
X146129819Y-73053571D01*
X146129819Y-73053571D02*
X146129819Y-72815476D01*
X146129819Y-72815476D02*
X146082200Y-72720238D01*
X146082200Y-72720238D02*
X146034580Y-72672619D01*
X146034580Y-72672619D02*
X145939342Y-72625000D01*
X145939342Y-72625000D02*
X145844104Y-72625000D01*
X145844104Y-72625000D02*
X145748866Y-72672619D01*
X145748866Y-72672619D02*
X145701247Y-72720238D01*
X145701247Y-72720238D02*
X145653628Y-72815476D01*
X145653628Y-72815476D02*
X145606009Y-73005952D01*
X145606009Y-73005952D02*
X145558390Y-73101190D01*
X145558390Y-73101190D02*
X145510771Y-73148809D01*
X145510771Y-73148809D02*
X145415533Y-73196428D01*
X145415533Y-73196428D02*
X145320295Y-73196428D01*
X145320295Y-73196428D02*
X145225057Y-73148809D01*
X145225057Y-73148809D02*
X145177438Y-73101190D01*
X145177438Y-73101190D02*
X145129819Y-73005952D01*
X145129819Y-73005952D02*
X145129819Y-72767857D01*
X145129819Y-72767857D02*
X145177438Y-72625000D01*
X146129819Y-72196428D02*
X145129819Y-72196428D01*
X145129819Y-72196428D02*
X145129819Y-71815476D01*
X145129819Y-71815476D02*
X145177438Y-71720238D01*
X145177438Y-71720238D02*
X145225057Y-71672619D01*
X145225057Y-71672619D02*
X145320295Y-71625000D01*
X145320295Y-71625000D02*
X145463152Y-71625000D01*
X145463152Y-71625000D02*
X145558390Y-71672619D01*
X145558390Y-71672619D02*
X145606009Y-71720238D01*
X145606009Y-71720238D02*
X145653628Y-71815476D01*
X145653628Y-71815476D02*
X145653628Y-72196428D01*
X145844104Y-71244047D02*
X145844104Y-70767857D01*
X146129819Y-71339285D02*
X145129819Y-71005952D01*
X145129819Y-71005952D02*
X146129819Y-70672619D01*
X146129819Y-69767857D02*
X145653628Y-70101190D01*
X146129819Y-70339285D02*
X145129819Y-70339285D01*
X145129819Y-70339285D02*
X145129819Y-69958333D01*
X145129819Y-69958333D02*
X145177438Y-69863095D01*
X145177438Y-69863095D02*
X145225057Y-69815476D01*
X145225057Y-69815476D02*
X145320295Y-69767857D01*
X145320295Y-69767857D02*
X145463152Y-69767857D01*
X145463152Y-69767857D02*
X145558390Y-69815476D01*
X145558390Y-69815476D02*
X145606009Y-69863095D01*
X145606009Y-69863095D02*
X145653628Y-69958333D01*
X145653628Y-69958333D02*
X145653628Y-70339285D01*
X145606009Y-69339285D02*
X145606009Y-69005952D01*
X146129819Y-68863095D02*
X146129819Y-69339285D01*
X146129819Y-69339285D02*
X145129819Y-69339285D01*
X145129819Y-69339285D02*
X145129819Y-68863095D01*
X146129819Y-67910714D02*
X146129819Y-68482142D01*
X146129819Y-68196428D02*
X145129819Y-68196428D01*
X145129819Y-68196428D02*
X145272676Y-68291666D01*
X145272676Y-68291666D02*
X145367914Y-68386904D01*
X145367914Y-68386904D02*
X145415533Y-68482142D01*
X117757200Y-73221427D02*
X117804819Y-73078570D01*
X117804819Y-73078570D02*
X117804819Y-72840475D01*
X117804819Y-72840475D02*
X117757200Y-72745237D01*
X117757200Y-72745237D02*
X117709580Y-72697618D01*
X117709580Y-72697618D02*
X117614342Y-72649999D01*
X117614342Y-72649999D02*
X117519104Y-72649999D01*
X117519104Y-72649999D02*
X117423866Y-72697618D01*
X117423866Y-72697618D02*
X117376247Y-72745237D01*
X117376247Y-72745237D02*
X117328628Y-72840475D01*
X117328628Y-72840475D02*
X117281009Y-73030951D01*
X117281009Y-73030951D02*
X117233390Y-73126189D01*
X117233390Y-73126189D02*
X117185771Y-73173808D01*
X117185771Y-73173808D02*
X117090533Y-73221427D01*
X117090533Y-73221427D02*
X116995295Y-73221427D01*
X116995295Y-73221427D02*
X116900057Y-73173808D01*
X116900057Y-73173808D02*
X116852438Y-73126189D01*
X116852438Y-73126189D02*
X116804819Y-73030951D01*
X116804819Y-73030951D02*
X116804819Y-72792856D01*
X116804819Y-72792856D02*
X116852438Y-72649999D01*
X116804819Y-72364284D02*
X116804819Y-71792856D01*
X117804819Y-72078570D02*
X116804819Y-72078570D01*
X117281009Y-71459522D02*
X117281009Y-71126189D01*
X117804819Y-70983332D02*
X117804819Y-71459522D01*
X117804819Y-71459522D02*
X116804819Y-71459522D01*
X116804819Y-71459522D02*
X116804819Y-70983332D01*
X117804819Y-70554760D02*
X116804819Y-70554760D01*
X116804819Y-70554760D02*
X116804819Y-70173808D01*
X116804819Y-70173808D02*
X116852438Y-70078570D01*
X116852438Y-70078570D02*
X116900057Y-70030951D01*
X116900057Y-70030951D02*
X116995295Y-69983332D01*
X116995295Y-69983332D02*
X117138152Y-69983332D01*
X117138152Y-69983332D02*
X117233390Y-70030951D01*
X117233390Y-70030951D02*
X117281009Y-70078570D01*
X117281009Y-70078570D02*
X117328628Y-70173808D01*
X117328628Y-70173808D02*
X117328628Y-70554760D01*
X117804819Y-69554760D02*
X116804819Y-69554760D01*
X116804819Y-69554760D02*
X116804819Y-69173808D01*
X116804819Y-69173808D02*
X116852438Y-69078570D01*
X116852438Y-69078570D02*
X116900057Y-69030951D01*
X116900057Y-69030951D02*
X116995295Y-68983332D01*
X116995295Y-68983332D02*
X117138152Y-68983332D01*
X117138152Y-68983332D02*
X117233390Y-69030951D01*
X117233390Y-69030951D02*
X117281009Y-69078570D01*
X117281009Y-69078570D02*
X117328628Y-69173808D01*
X117328628Y-69173808D02*
X117328628Y-69554760D01*
X117281009Y-68554760D02*
X117281009Y-68221427D01*
X117804819Y-68078570D02*
X117804819Y-68554760D01*
X117804819Y-68554760D02*
X116804819Y-68554760D01*
X116804819Y-68554760D02*
X116804819Y-68078570D01*
X117804819Y-67078570D02*
X117328628Y-67411903D01*
X117804819Y-67649998D02*
X116804819Y-67649998D01*
X116804819Y-67649998D02*
X116804819Y-67269046D01*
X116804819Y-67269046D02*
X116852438Y-67173808D01*
X116852438Y-67173808D02*
X116900057Y-67126189D01*
X116900057Y-67126189D02*
X116995295Y-67078570D01*
X116995295Y-67078570D02*
X117138152Y-67078570D01*
X117138152Y-67078570D02*
X117233390Y-67126189D01*
X117233390Y-67126189D02*
X117281009Y-67173808D01*
X117281009Y-67173808D02*
X117328628Y-67269046D01*
X117328628Y-67269046D02*
X117328628Y-67649998D01*
X117804819Y-65888093D02*
X116804819Y-65888093D01*
X116804819Y-65888093D02*
X117519104Y-65554760D01*
X117519104Y-65554760D02*
X116804819Y-65221427D01*
X116804819Y-65221427D02*
X117804819Y-65221427D01*
X116804819Y-64554760D02*
X116804819Y-64364284D01*
X116804819Y-64364284D02*
X116852438Y-64269046D01*
X116852438Y-64269046D02*
X116947676Y-64173808D01*
X116947676Y-64173808D02*
X117138152Y-64126189D01*
X117138152Y-64126189D02*
X117471485Y-64126189D01*
X117471485Y-64126189D02*
X117661961Y-64173808D01*
X117661961Y-64173808D02*
X117757200Y-64269046D01*
X117757200Y-64269046D02*
X117804819Y-64364284D01*
X117804819Y-64364284D02*
X117804819Y-64554760D01*
X117804819Y-64554760D02*
X117757200Y-64649998D01*
X117757200Y-64649998D02*
X117661961Y-64745236D01*
X117661961Y-64745236D02*
X117471485Y-64792855D01*
X117471485Y-64792855D02*
X117138152Y-64792855D01*
X117138152Y-64792855D02*
X116947676Y-64745236D01*
X116947676Y-64745236D02*
X116852438Y-64649998D01*
X116852438Y-64649998D02*
X116804819Y-64554760D01*
X116804819Y-63840474D02*
X116804819Y-63269046D01*
X117804819Y-63554760D02*
X116804819Y-63554760D01*
X116804819Y-62745236D02*
X116804819Y-62554760D01*
X116804819Y-62554760D02*
X116852438Y-62459522D01*
X116852438Y-62459522D02*
X116947676Y-62364284D01*
X116947676Y-62364284D02*
X117138152Y-62316665D01*
X117138152Y-62316665D02*
X117471485Y-62316665D01*
X117471485Y-62316665D02*
X117661961Y-62364284D01*
X117661961Y-62364284D02*
X117757200Y-62459522D01*
X117757200Y-62459522D02*
X117804819Y-62554760D01*
X117804819Y-62554760D02*
X117804819Y-62745236D01*
X117804819Y-62745236D02*
X117757200Y-62840474D01*
X117757200Y-62840474D02*
X117661961Y-62935712D01*
X117661961Y-62935712D02*
X117471485Y-62983331D01*
X117471485Y-62983331D02*
X117138152Y-62983331D01*
X117138152Y-62983331D02*
X116947676Y-62935712D01*
X116947676Y-62935712D02*
X116852438Y-62840474D01*
X116852438Y-62840474D02*
X116804819Y-62745236D01*
X117804819Y-61316665D02*
X117328628Y-61649998D01*
X117804819Y-61888093D02*
X116804819Y-61888093D01*
X116804819Y-61888093D02*
X116804819Y-61507141D01*
X116804819Y-61507141D02*
X116852438Y-61411903D01*
X116852438Y-61411903D02*
X116900057Y-61364284D01*
X116900057Y-61364284D02*
X116995295Y-61316665D01*
X116995295Y-61316665D02*
X117138152Y-61316665D01*
X117138152Y-61316665D02*
X117233390Y-61364284D01*
X117233390Y-61364284D02*
X117281009Y-61411903D01*
X117281009Y-61411903D02*
X117328628Y-61507141D01*
X117328628Y-61507141D02*
X117328628Y-61888093D01*
X126866485Y-90096428D02*
X126914104Y-89953571D01*
X126914104Y-89953571D02*
X126914104Y-89715476D01*
X126914104Y-89715476D02*
X126866485Y-89620238D01*
X126866485Y-89620238D02*
X126818865Y-89572619D01*
X126818865Y-89572619D02*
X126723627Y-89525000D01*
X126723627Y-89525000D02*
X126628389Y-89525000D01*
X126628389Y-89525000D02*
X126533151Y-89572619D01*
X126533151Y-89572619D02*
X126485532Y-89620238D01*
X126485532Y-89620238D02*
X126437913Y-89715476D01*
X126437913Y-89715476D02*
X126390294Y-89905952D01*
X126390294Y-89905952D02*
X126342675Y-90001190D01*
X126342675Y-90001190D02*
X126295056Y-90048809D01*
X126295056Y-90048809D02*
X126199818Y-90096428D01*
X126199818Y-90096428D02*
X126104580Y-90096428D01*
X126104580Y-90096428D02*
X126009342Y-90048809D01*
X126009342Y-90048809D02*
X125961723Y-90001190D01*
X125961723Y-90001190D02*
X125914104Y-89905952D01*
X125914104Y-89905952D02*
X125914104Y-89667857D01*
X125914104Y-89667857D02*
X125961723Y-89525000D01*
X126914104Y-89096428D02*
X125914104Y-89096428D01*
X125914104Y-89096428D02*
X125914104Y-88715476D01*
X125914104Y-88715476D02*
X125961723Y-88620238D01*
X125961723Y-88620238D02*
X126009342Y-88572619D01*
X126009342Y-88572619D02*
X126104580Y-88525000D01*
X126104580Y-88525000D02*
X126247437Y-88525000D01*
X126247437Y-88525000D02*
X126342675Y-88572619D01*
X126342675Y-88572619D02*
X126390294Y-88620238D01*
X126390294Y-88620238D02*
X126437913Y-88715476D01*
X126437913Y-88715476D02*
X126437913Y-89096428D01*
X126628389Y-88144047D02*
X126628389Y-87667857D01*
X126914104Y-88239285D02*
X125914104Y-87905952D01*
X125914104Y-87905952D02*
X126914104Y-87572619D01*
X126914104Y-86667857D02*
X126437913Y-87001190D01*
X126914104Y-87239285D02*
X125914104Y-87239285D01*
X125914104Y-87239285D02*
X125914104Y-86858333D01*
X125914104Y-86858333D02*
X125961723Y-86763095D01*
X125961723Y-86763095D02*
X126009342Y-86715476D01*
X126009342Y-86715476D02*
X126104580Y-86667857D01*
X126104580Y-86667857D02*
X126247437Y-86667857D01*
X126247437Y-86667857D02*
X126342675Y-86715476D01*
X126342675Y-86715476D02*
X126390294Y-86763095D01*
X126390294Y-86763095D02*
X126437913Y-86858333D01*
X126437913Y-86858333D02*
X126437913Y-87239285D01*
X126390294Y-86239285D02*
X126390294Y-85905952D01*
X126914104Y-85763095D02*
X126914104Y-86239285D01*
X126914104Y-86239285D02*
X125914104Y-86239285D01*
X125914104Y-86239285D02*
X125914104Y-85763095D01*
X126009342Y-85382142D02*
X125961723Y-85334523D01*
X125961723Y-85334523D02*
X125914104Y-85239285D01*
X125914104Y-85239285D02*
X125914104Y-85001190D01*
X125914104Y-85001190D02*
X125961723Y-84905952D01*
X125961723Y-84905952D02*
X126009342Y-84858333D01*
X126009342Y-84858333D02*
X126104580Y-84810714D01*
X126104580Y-84810714D02*
X126199818Y-84810714D01*
X126199818Y-84810714D02*
X126342675Y-84858333D01*
X126342675Y-84858333D02*
X126914104Y-85429761D01*
X126914104Y-85429761D02*
X126914104Y-84810714D01*
X136023389Y-73173808D02*
X135023389Y-73173808D01*
X136023389Y-72602380D02*
X135451960Y-73030951D01*
X135023389Y-72602380D02*
X135594817Y-73173808D01*
X135499579Y-72173808D02*
X135499579Y-71840475D01*
X136023389Y-71697618D02*
X136023389Y-72173808D01*
X136023389Y-72173808D02*
X135023389Y-72173808D01*
X135023389Y-72173808D02*
X135023389Y-71697618D01*
X135547198Y-71078570D02*
X136023389Y-71078570D01*
X135023389Y-71411903D02*
X135547198Y-71078570D01*
X135547198Y-71078570D02*
X135023389Y-70745237D01*
X135499579Y-70078570D02*
X135547198Y-69935713D01*
X135547198Y-69935713D02*
X135594817Y-69888094D01*
X135594817Y-69888094D02*
X135690055Y-69840475D01*
X135690055Y-69840475D02*
X135832912Y-69840475D01*
X135832912Y-69840475D02*
X135928150Y-69888094D01*
X135928150Y-69888094D02*
X135975770Y-69935713D01*
X135975770Y-69935713D02*
X136023389Y-70030951D01*
X136023389Y-70030951D02*
X136023389Y-70411903D01*
X136023389Y-70411903D02*
X135023389Y-70411903D01*
X135023389Y-70411903D02*
X135023389Y-70078570D01*
X135023389Y-70078570D02*
X135071008Y-69983332D01*
X135071008Y-69983332D02*
X135118627Y-69935713D01*
X135118627Y-69935713D02*
X135213865Y-69888094D01*
X135213865Y-69888094D02*
X135309103Y-69888094D01*
X135309103Y-69888094D02*
X135404341Y-69935713D01*
X135404341Y-69935713D02*
X135451960Y-69983332D01*
X135451960Y-69983332D02*
X135499579Y-70078570D01*
X135499579Y-70078570D02*
X135499579Y-70411903D01*
X135023389Y-69221427D02*
X135023389Y-69030951D01*
X135023389Y-69030951D02*
X135071008Y-68935713D01*
X135071008Y-68935713D02*
X135166246Y-68840475D01*
X135166246Y-68840475D02*
X135356722Y-68792856D01*
X135356722Y-68792856D02*
X135690055Y-68792856D01*
X135690055Y-68792856D02*
X135880531Y-68840475D01*
X135880531Y-68840475D02*
X135975770Y-68935713D01*
X135975770Y-68935713D02*
X136023389Y-69030951D01*
X136023389Y-69030951D02*
X136023389Y-69221427D01*
X136023389Y-69221427D02*
X135975770Y-69316665D01*
X135975770Y-69316665D02*
X135880531Y-69411903D01*
X135880531Y-69411903D02*
X135690055Y-69459522D01*
X135690055Y-69459522D02*
X135356722Y-69459522D01*
X135356722Y-69459522D02*
X135166246Y-69411903D01*
X135166246Y-69411903D02*
X135071008Y-69316665D01*
X135071008Y-69316665D02*
X135023389Y-69221427D01*
X135737674Y-68411903D02*
X135737674Y-67935713D01*
X136023389Y-68507141D02*
X135023389Y-68173808D01*
X135023389Y-68173808D02*
X136023389Y-67840475D01*
X136023389Y-66935713D02*
X135547198Y-67269046D01*
X136023389Y-67507141D02*
X135023389Y-67507141D01*
X135023389Y-67507141D02*
X135023389Y-67126189D01*
X135023389Y-67126189D02*
X135071008Y-67030951D01*
X135071008Y-67030951D02*
X135118627Y-66983332D01*
X135118627Y-66983332D02*
X135213865Y-66935713D01*
X135213865Y-66935713D02*
X135356722Y-66935713D01*
X135356722Y-66935713D02*
X135451960Y-66983332D01*
X135451960Y-66983332D02*
X135499579Y-67030951D01*
X135499579Y-67030951D02*
X135547198Y-67126189D01*
X135547198Y-67126189D02*
X135547198Y-67507141D01*
X136023389Y-66507141D02*
X135023389Y-66507141D01*
X135023389Y-66507141D02*
X135023389Y-66269046D01*
X135023389Y-66269046D02*
X135071008Y-66126189D01*
X135071008Y-66126189D02*
X135166246Y-66030951D01*
X135166246Y-66030951D02*
X135261484Y-65983332D01*
X135261484Y-65983332D02*
X135451960Y-65935713D01*
X135451960Y-65935713D02*
X135594817Y-65935713D01*
X135594817Y-65935713D02*
X135785293Y-65983332D01*
X135785293Y-65983332D02*
X135880531Y-66030951D01*
X135880531Y-66030951D02*
X135975770Y-66126189D01*
X135975770Y-66126189D02*
X136023389Y-66269046D01*
X136023389Y-66269046D02*
X136023389Y-66507141D01*
X117804819Y-89572619D02*
X117804819Y-90048809D01*
X117804819Y-90048809D02*
X116804819Y-90048809D01*
X117709580Y-88667857D02*
X117757200Y-88715476D01*
X117757200Y-88715476D02*
X117804819Y-88858333D01*
X117804819Y-88858333D02*
X117804819Y-88953571D01*
X117804819Y-88953571D02*
X117757200Y-89096428D01*
X117757200Y-89096428D02*
X117661961Y-89191666D01*
X117661961Y-89191666D02*
X117566723Y-89239285D01*
X117566723Y-89239285D02*
X117376247Y-89286904D01*
X117376247Y-89286904D02*
X117233390Y-89286904D01*
X117233390Y-89286904D02*
X117042914Y-89239285D01*
X117042914Y-89239285D02*
X116947676Y-89191666D01*
X116947676Y-89191666D02*
X116852438Y-89096428D01*
X116852438Y-89096428D02*
X116804819Y-88953571D01*
X116804819Y-88953571D02*
X116804819Y-88858333D01*
X116804819Y-88858333D02*
X116852438Y-88715476D01*
X116852438Y-88715476D02*
X116900057Y-88667857D01*
X117804819Y-88239285D02*
X116804819Y-88239285D01*
X116804819Y-88239285D02*
X116804819Y-88001190D01*
X116804819Y-88001190D02*
X116852438Y-87858333D01*
X116852438Y-87858333D02*
X116947676Y-87763095D01*
X116947676Y-87763095D02*
X117042914Y-87715476D01*
X117042914Y-87715476D02*
X117233390Y-87667857D01*
X117233390Y-87667857D02*
X117376247Y-87667857D01*
X117376247Y-87667857D02*
X117566723Y-87715476D01*
X117566723Y-87715476D02*
X117661961Y-87763095D01*
X117661961Y-87763095D02*
X117757200Y-87858333D01*
X117757200Y-87858333D02*
X117804819Y-88001190D01*
X117804819Y-88001190D02*
X117804819Y-88239285D01*
X125914104Y-73316666D02*
X126914104Y-72983333D01*
X126914104Y-72983333D02*
X125914104Y-72650000D01*
X126914104Y-72316666D02*
X125914104Y-72316666D01*
X126390294Y-71507143D02*
X126437913Y-71364286D01*
X126437913Y-71364286D02*
X126485532Y-71316667D01*
X126485532Y-71316667D02*
X126580770Y-71269048D01*
X126580770Y-71269048D02*
X126723627Y-71269048D01*
X126723627Y-71269048D02*
X126818865Y-71316667D01*
X126818865Y-71316667D02*
X126866485Y-71364286D01*
X126866485Y-71364286D02*
X126914104Y-71459524D01*
X126914104Y-71459524D02*
X126914104Y-71840476D01*
X126914104Y-71840476D02*
X125914104Y-71840476D01*
X125914104Y-71840476D02*
X125914104Y-71507143D01*
X125914104Y-71507143D02*
X125961723Y-71411905D01*
X125961723Y-71411905D02*
X126009342Y-71364286D01*
X126009342Y-71364286D02*
X126104580Y-71316667D01*
X126104580Y-71316667D02*
X126199818Y-71316667D01*
X126199818Y-71316667D02*
X126295056Y-71364286D01*
X126295056Y-71364286D02*
X126342675Y-71411905D01*
X126342675Y-71411905D02*
X126390294Y-71507143D01*
X126390294Y-71507143D02*
X126390294Y-71840476D01*
X126914104Y-70269048D02*
X126437913Y-70602381D01*
X126914104Y-70840476D02*
X125914104Y-70840476D01*
X125914104Y-70840476D02*
X125914104Y-70459524D01*
X125914104Y-70459524D02*
X125961723Y-70364286D01*
X125961723Y-70364286D02*
X126009342Y-70316667D01*
X126009342Y-70316667D02*
X126104580Y-70269048D01*
X126104580Y-70269048D02*
X126247437Y-70269048D01*
X126247437Y-70269048D02*
X126342675Y-70316667D01*
X126342675Y-70316667D02*
X126390294Y-70364286D01*
X126390294Y-70364286D02*
X126437913Y-70459524D01*
X126437913Y-70459524D02*
X126437913Y-70840476D01*
X126628389Y-69888095D02*
X126628389Y-69411905D01*
X126914104Y-69983333D02*
X125914104Y-69650000D01*
X125914104Y-69650000D02*
X126914104Y-69316667D01*
X125914104Y-69126190D02*
X125914104Y-68554762D01*
X126914104Y-68840476D02*
X125914104Y-68840476D01*
X126914104Y-68221428D02*
X125914104Y-68221428D01*
X125914104Y-67554762D02*
X125914104Y-67364286D01*
X125914104Y-67364286D02*
X125961723Y-67269048D01*
X125961723Y-67269048D02*
X126056961Y-67173810D01*
X126056961Y-67173810D02*
X126247437Y-67126191D01*
X126247437Y-67126191D02*
X126580770Y-67126191D01*
X126580770Y-67126191D02*
X126771246Y-67173810D01*
X126771246Y-67173810D02*
X126866485Y-67269048D01*
X126866485Y-67269048D02*
X126914104Y-67364286D01*
X126914104Y-67364286D02*
X126914104Y-67554762D01*
X126914104Y-67554762D02*
X126866485Y-67650000D01*
X126866485Y-67650000D02*
X126771246Y-67745238D01*
X126771246Y-67745238D02*
X126580770Y-67792857D01*
X126580770Y-67792857D02*
X126247437Y-67792857D01*
X126247437Y-67792857D02*
X126056961Y-67745238D01*
X126056961Y-67745238D02*
X125961723Y-67650000D01*
X125961723Y-67650000D02*
X125914104Y-67554762D01*
X126914104Y-66697619D02*
X125914104Y-66697619D01*
X125914104Y-66697619D02*
X126914104Y-66126191D01*
X126914104Y-66126191D02*
X125914104Y-66126191D01*
X126914104Y-64888095D02*
X125914104Y-64888095D01*
X125914104Y-64888095D02*
X126628389Y-64554762D01*
X126628389Y-64554762D02*
X125914104Y-64221429D01*
X125914104Y-64221429D02*
X126914104Y-64221429D01*
X125914104Y-63554762D02*
X125914104Y-63364286D01*
X125914104Y-63364286D02*
X125961723Y-63269048D01*
X125961723Y-63269048D02*
X126056961Y-63173810D01*
X126056961Y-63173810D02*
X126247437Y-63126191D01*
X126247437Y-63126191D02*
X126580770Y-63126191D01*
X126580770Y-63126191D02*
X126771246Y-63173810D01*
X126771246Y-63173810D02*
X126866485Y-63269048D01*
X126866485Y-63269048D02*
X126914104Y-63364286D01*
X126914104Y-63364286D02*
X126914104Y-63554762D01*
X126914104Y-63554762D02*
X126866485Y-63650000D01*
X126866485Y-63650000D02*
X126771246Y-63745238D01*
X126771246Y-63745238D02*
X126580770Y-63792857D01*
X126580770Y-63792857D02*
X126247437Y-63792857D01*
X126247437Y-63792857D02*
X126056961Y-63745238D01*
X126056961Y-63745238D02*
X125961723Y-63650000D01*
X125961723Y-63650000D02*
X125914104Y-63554762D01*
X125914104Y-62840476D02*
X125914104Y-62269048D01*
X126914104Y-62554762D02*
X125914104Y-62554762D01*
X125914104Y-61745238D02*
X125914104Y-61554762D01*
X125914104Y-61554762D02*
X125961723Y-61459524D01*
X125961723Y-61459524D02*
X126056961Y-61364286D01*
X126056961Y-61364286D02*
X126247437Y-61316667D01*
X126247437Y-61316667D02*
X126580770Y-61316667D01*
X126580770Y-61316667D02*
X126771246Y-61364286D01*
X126771246Y-61364286D02*
X126866485Y-61459524D01*
X126866485Y-61459524D02*
X126914104Y-61554762D01*
X126914104Y-61554762D02*
X126914104Y-61745238D01*
X126914104Y-61745238D02*
X126866485Y-61840476D01*
X126866485Y-61840476D02*
X126771246Y-61935714D01*
X126771246Y-61935714D02*
X126580770Y-61983333D01*
X126580770Y-61983333D02*
X126247437Y-61983333D01*
X126247437Y-61983333D02*
X126056961Y-61935714D01*
X126056961Y-61935714D02*
X125961723Y-61840476D01*
X125961723Y-61840476D02*
X125914104Y-61745238D01*
X126914104Y-60316667D02*
X126437913Y-60650000D01*
X126914104Y-60888095D02*
X125914104Y-60888095D01*
X125914104Y-60888095D02*
X125914104Y-60507143D01*
X125914104Y-60507143D02*
X125961723Y-60411905D01*
X125961723Y-60411905D02*
X126009342Y-60364286D01*
X126009342Y-60364286D02*
X126104580Y-60316667D01*
X126104580Y-60316667D02*
X126247437Y-60316667D01*
X126247437Y-60316667D02*
X126342675Y-60364286D01*
X126342675Y-60364286D02*
X126390294Y-60411905D01*
X126390294Y-60411905D02*
X126437913Y-60507143D01*
X126437913Y-60507143D02*
X126437913Y-60888095D01*
X155429819Y-72552381D02*
X154953628Y-72885714D01*
X155429819Y-73123809D02*
X154429819Y-73123809D01*
X154429819Y-73123809D02*
X154429819Y-72742857D01*
X154429819Y-72742857D02*
X154477438Y-72647619D01*
X154477438Y-72647619D02*
X154525057Y-72600000D01*
X154525057Y-72600000D02*
X154620295Y-72552381D01*
X154620295Y-72552381D02*
X154763152Y-72552381D01*
X154763152Y-72552381D02*
X154858390Y-72600000D01*
X154858390Y-72600000D02*
X154906009Y-72647619D01*
X154906009Y-72647619D02*
X154953628Y-72742857D01*
X154953628Y-72742857D02*
X154953628Y-73123809D01*
X155382200Y-72171428D02*
X155429819Y-72028571D01*
X155429819Y-72028571D02*
X155429819Y-71790476D01*
X155429819Y-71790476D02*
X155382200Y-71695238D01*
X155382200Y-71695238D02*
X155334580Y-71647619D01*
X155334580Y-71647619D02*
X155239342Y-71600000D01*
X155239342Y-71600000D02*
X155144104Y-71600000D01*
X155144104Y-71600000D02*
X155048866Y-71647619D01*
X155048866Y-71647619D02*
X155001247Y-71695238D01*
X155001247Y-71695238D02*
X154953628Y-71790476D01*
X154953628Y-71790476D02*
X154906009Y-71980952D01*
X154906009Y-71980952D02*
X154858390Y-72076190D01*
X154858390Y-72076190D02*
X154810771Y-72123809D01*
X154810771Y-72123809D02*
X154715533Y-72171428D01*
X154715533Y-72171428D02*
X154620295Y-72171428D01*
X154620295Y-72171428D02*
X154525057Y-72123809D01*
X154525057Y-72123809D02*
X154477438Y-72076190D01*
X154477438Y-72076190D02*
X154429819Y-71980952D01*
X154429819Y-71980952D02*
X154429819Y-71742857D01*
X154429819Y-71742857D02*
X154477438Y-71600000D01*
X154525057Y-71219047D02*
X154477438Y-71171428D01*
X154477438Y-71171428D02*
X154429819Y-71076190D01*
X154429819Y-71076190D02*
X154429819Y-70838095D01*
X154429819Y-70838095D02*
X154477438Y-70742857D01*
X154477438Y-70742857D02*
X154525057Y-70695238D01*
X154525057Y-70695238D02*
X154620295Y-70647619D01*
X154620295Y-70647619D02*
X154715533Y-70647619D01*
X154715533Y-70647619D02*
X154858390Y-70695238D01*
X154858390Y-70695238D02*
X155429819Y-71266666D01*
X155429819Y-71266666D02*
X155429819Y-70647619D01*
X154429819Y-70314285D02*
X154429819Y-69695238D01*
X154429819Y-69695238D02*
X154810771Y-70028571D01*
X154810771Y-70028571D02*
X154810771Y-69885714D01*
X154810771Y-69885714D02*
X154858390Y-69790476D01*
X154858390Y-69790476D02*
X154906009Y-69742857D01*
X154906009Y-69742857D02*
X155001247Y-69695238D01*
X155001247Y-69695238D02*
X155239342Y-69695238D01*
X155239342Y-69695238D02*
X155334580Y-69742857D01*
X155334580Y-69742857D02*
X155382200Y-69790476D01*
X155382200Y-69790476D02*
X155429819Y-69885714D01*
X155429819Y-69885714D02*
X155429819Y-70171428D01*
X155429819Y-70171428D02*
X155382200Y-70266666D01*
X155382200Y-70266666D02*
X155334580Y-70314285D01*
X154525057Y-69314285D02*
X154477438Y-69266666D01*
X154477438Y-69266666D02*
X154429819Y-69171428D01*
X154429819Y-69171428D02*
X154429819Y-68933333D01*
X154429819Y-68933333D02*
X154477438Y-68838095D01*
X154477438Y-68838095D02*
X154525057Y-68790476D01*
X154525057Y-68790476D02*
X154620295Y-68742857D01*
X154620295Y-68742857D02*
X154715533Y-68742857D01*
X154715533Y-68742857D02*
X154858390Y-68790476D01*
X154858390Y-68790476D02*
X155429819Y-69361904D01*
X155429819Y-69361904D02*
X155429819Y-68742857D01*
D13*
%TO.C,J1*%
X126610000Y-96130000D02*
X127940000Y-96130000D01*
X126610000Y-97460000D02*
X126610000Y-96130000D01*
X129210000Y-96130000D02*
X147050000Y-96130000D01*
X129210000Y-98790000D02*
X129210000Y-96130000D01*
X129210000Y-98790000D02*
X147050000Y-98790000D01*
X147050000Y-98790000D02*
X147050000Y-96130000D01*
%TO.C,J3*%
X149470000Y-96130000D02*
X150800000Y-96130000D01*
X149470000Y-97460000D02*
X149470000Y-96130000D01*
X152070000Y-96130000D02*
X164830000Y-96130000D01*
X152070000Y-98790000D02*
X152070000Y-96130000D01*
X152070000Y-98790000D02*
X164830000Y-98790000D01*
X164830000Y-98790000D02*
X164830000Y-96130000D01*
%TO.C,J2*%
X117466000Y-47870000D02*
X118796000Y-47870000D01*
X117466000Y-49200000D02*
X117466000Y-47870000D01*
X120066000Y-47870000D02*
X142986000Y-47870000D01*
X120066000Y-50530000D02*
X120066000Y-47870000D01*
X120066000Y-50530000D02*
X142986000Y-50530000D01*
X142986000Y-50530000D02*
X142986000Y-47870000D01*
%TO.C,J4*%
X144390000Y-47870000D02*
X145720000Y-47870000D01*
X144390000Y-49200000D02*
X144390000Y-47870000D01*
X146990000Y-47870000D02*
X164830000Y-47870000D01*
X146990000Y-50530000D02*
X146990000Y-47870000D01*
X146990000Y-50530000D02*
X164830000Y-50530000D01*
X164830000Y-50530000D02*
X164830000Y-47870000D01*
%TO.C,J5*%
X96090000Y-58190000D02*
X107810000Y-58190000D01*
X96090000Y-62000000D02*
X96090000Y-58190000D01*
X96090000Y-62000000D02*
X96090000Y-65810000D01*
X96090000Y-65810000D02*
X107810000Y-65810000D01*
X96700000Y-60500000D02*
X96700000Y-61000000D01*
X96700000Y-61000000D02*
X102200000Y-61000000D01*
X96700000Y-63000000D02*
X96700000Y-63500000D01*
X96700000Y-63500000D02*
X102200000Y-63500000D01*
X102200000Y-60500000D02*
X96700000Y-60500000D01*
X102200000Y-61000000D02*
X102200000Y-60500000D01*
X102200000Y-63000000D02*
X96700000Y-63000000D01*
X102200000Y-63500000D02*
X102200000Y-63000000D01*
X103310000Y-59610000D02*
X103310000Y-62000000D01*
X103310000Y-64390000D02*
X103310000Y-62000000D01*
X106900000Y-60750000D02*
X107500000Y-60450000D01*
X107500000Y-60450000D02*
X107500000Y-61050000D01*
X107500000Y-61050000D02*
X106900000Y-60750000D01*
X107810000Y-58190000D02*
X107810000Y-59610000D01*
X107810000Y-59610000D02*
X103310000Y-59610000D01*
X107810000Y-64390000D02*
X103310000Y-64390000D01*
X107810000Y-65810000D02*
X107810000Y-64390000D01*
%TO.C,J11*%
X137675000Y-70975000D02*
X137675000Y-72225000D01*
X137675000Y-72225000D02*
X138925000Y-72225000D01*
X137965000Y-61815000D02*
X137965000Y-71935000D01*
X137965000Y-71935000D02*
X143935000Y-71935000D01*
X137975000Y-61825000D02*
X137975000Y-63625000D01*
X137975000Y-63625000D02*
X138725000Y-63625000D01*
X137975000Y-65125000D02*
X137975000Y-68625000D01*
X137975000Y-68625000D02*
X138725000Y-68625000D01*
X137975000Y-70125000D02*
X137975000Y-71925000D01*
X137975000Y-71925000D02*
X138725000Y-71925000D01*
X138725000Y-61825000D02*
X137975000Y-61825000D01*
X138725000Y-63625000D02*
X138725000Y-61825000D01*
X138725000Y-65125000D02*
X137975000Y-65125000D01*
X138725000Y-68625000D02*
X138725000Y-65125000D01*
X138725000Y-70125000D02*
X137975000Y-70125000D01*
X138725000Y-71925000D02*
X138725000Y-70125000D01*
X140225000Y-61825000D02*
X140225000Y-62575000D01*
X140225000Y-62575000D02*
X143175000Y-62575000D01*
X140225000Y-71175000D02*
X143175000Y-71175000D01*
X140225000Y-71925000D02*
X140225000Y-71175000D01*
X143175000Y-62575000D02*
X143175000Y-66875000D01*
X143175000Y-71175000D02*
X143175000Y-66875000D01*
X143935000Y-61815000D02*
X137965000Y-61815000D01*
X143935000Y-71935000D02*
X143935000Y-61815000D01*
%TO.C,J6*%
X110000000Y-71000000D02*
X110000000Y-72250000D01*
X110000000Y-72250000D02*
X111250000Y-72250000D01*
X110290000Y-54340000D02*
X110290000Y-71960000D01*
X110290000Y-71960000D02*
X116260000Y-71960000D01*
X110300000Y-54350000D02*
X110300000Y-56150000D01*
X110300000Y-56150000D02*
X111050000Y-56150000D01*
X110300000Y-57650000D02*
X110300000Y-68650000D01*
X110300000Y-68650000D02*
X111050000Y-68650000D01*
X110300000Y-70150000D02*
X110300000Y-71950000D01*
X110300000Y-71950000D02*
X111050000Y-71950000D01*
X111050000Y-54350000D02*
X110300000Y-54350000D01*
X111050000Y-56150000D02*
X111050000Y-54350000D01*
X111050000Y-57650000D02*
X110300000Y-57650000D01*
X111050000Y-68650000D02*
X111050000Y-57650000D01*
X111050000Y-70150000D02*
X110300000Y-70150000D01*
X111050000Y-71950000D02*
X111050000Y-70150000D01*
X112550000Y-54350000D02*
X112550000Y-55100000D01*
X112550000Y-55100000D02*
X115500000Y-55100000D01*
X112550000Y-71200000D02*
X115500000Y-71200000D01*
X112550000Y-71950000D02*
X112550000Y-71200000D01*
X115500000Y-55100000D02*
X115500000Y-63150000D01*
X115500000Y-71200000D02*
X115500000Y-63150000D01*
X116260000Y-54340000D02*
X110290000Y-54340000D01*
X116260000Y-71960000D02*
X116260000Y-54340000D01*
%TO.C,J12*%
X119109285Y-87875000D02*
X119109285Y-89125000D01*
X119109285Y-89125000D02*
X120359285Y-89125000D01*
X119399285Y-78715000D02*
X119399285Y-88835000D01*
X119399285Y-88835000D02*
X125369285Y-88835000D01*
X119409285Y-78725000D02*
X119409285Y-80525000D01*
X119409285Y-80525000D02*
X120159285Y-80525000D01*
X119409285Y-82025000D02*
X119409285Y-85525000D01*
X119409285Y-85525000D02*
X120159285Y-85525000D01*
X119409285Y-87025000D02*
X119409285Y-88825000D01*
X119409285Y-88825000D02*
X120159285Y-88825000D01*
X120159285Y-78725000D02*
X119409285Y-78725000D01*
X120159285Y-80525000D02*
X120159285Y-78725000D01*
X120159285Y-82025000D02*
X119409285Y-82025000D01*
X120159285Y-85525000D02*
X120159285Y-82025000D01*
X120159285Y-87025000D02*
X119409285Y-87025000D01*
X120159285Y-88825000D02*
X120159285Y-87025000D01*
X121659285Y-78725000D02*
X121659285Y-79475000D01*
X121659285Y-79475000D02*
X124609285Y-79475000D01*
X121659285Y-88075000D02*
X124609285Y-88075000D01*
X121659285Y-88825000D02*
X121659285Y-88075000D01*
X124609285Y-79475000D02*
X124609285Y-83775000D01*
X124609285Y-88075000D02*
X124609285Y-83775000D01*
X125369285Y-78715000D02*
X119399285Y-78715000D01*
X125369285Y-88835000D02*
X125369285Y-78715000D01*
%TO.C,J7*%
X128218570Y-71000000D02*
X128218570Y-72250000D01*
X128218570Y-72250000D02*
X129468570Y-72250000D01*
X128508570Y-61840000D02*
X128508570Y-71960000D01*
X128508570Y-71960000D02*
X134478570Y-71960000D01*
X128518570Y-61850000D02*
X128518570Y-63650000D01*
X128518570Y-63650000D02*
X129268570Y-63650000D01*
X128518570Y-65150000D02*
X128518570Y-68650000D01*
X128518570Y-68650000D02*
X129268570Y-68650000D01*
X128518570Y-70150000D02*
X128518570Y-71950000D01*
X128518570Y-71950000D02*
X129268570Y-71950000D01*
X129268570Y-61850000D02*
X128518570Y-61850000D01*
X129268570Y-63650000D02*
X129268570Y-61850000D01*
X129268570Y-65150000D02*
X128518570Y-65150000D01*
X129268570Y-68650000D02*
X129268570Y-65150000D01*
X129268570Y-70150000D02*
X128518570Y-70150000D01*
X129268570Y-71950000D02*
X129268570Y-70150000D01*
X130768570Y-61850000D02*
X130768570Y-62600000D01*
X130768570Y-62600000D02*
X133718570Y-62600000D01*
X130768570Y-71200000D02*
X133718570Y-71200000D01*
X130768570Y-71950000D02*
X130768570Y-71200000D01*
X133718570Y-62600000D02*
X133718570Y-66900000D01*
X133718570Y-71200000D02*
X133718570Y-66900000D01*
X134478570Y-61840000D02*
X128508570Y-61840000D01*
X134478570Y-71960000D02*
X134478570Y-61840000D01*
%TO.C,J8*%
X110000000Y-87875000D02*
X110000000Y-89125000D01*
X110000000Y-89125000D02*
X111250000Y-89125000D01*
X110290000Y-76215000D02*
X110290000Y-88835000D01*
X110290000Y-88835000D02*
X116260000Y-88835000D01*
X110300000Y-76225000D02*
X110300000Y-78025000D01*
X110300000Y-78025000D02*
X111050000Y-78025000D01*
X110300000Y-79525000D02*
X110300000Y-85525000D01*
X110300000Y-85525000D02*
X111050000Y-85525000D01*
X110300000Y-87025000D02*
X110300000Y-88825000D01*
X110300000Y-88825000D02*
X111050000Y-88825000D01*
X111050000Y-76225000D02*
X110300000Y-76225000D01*
X111050000Y-78025000D02*
X111050000Y-76225000D01*
X111050000Y-79525000D02*
X110300000Y-79525000D01*
X111050000Y-85525000D02*
X111050000Y-79525000D01*
X111050000Y-87025000D02*
X110300000Y-87025000D01*
X111050000Y-88825000D02*
X111050000Y-87025000D01*
X112550000Y-76225000D02*
X112550000Y-76975000D01*
X112550000Y-76975000D02*
X115500000Y-76975000D01*
X112550000Y-88075000D02*
X115500000Y-88075000D01*
X112550000Y-88825000D02*
X112550000Y-88075000D01*
X115500000Y-76975000D02*
X115500000Y-82525000D01*
X115500000Y-88075000D02*
X115500000Y-82525000D01*
X116260000Y-76215000D02*
X110290000Y-76215000D01*
X116260000Y-88835000D02*
X116260000Y-76215000D01*
%TO.C,J10*%
X119109285Y-71000000D02*
X119109285Y-72250000D01*
X119109285Y-72250000D02*
X120359285Y-72250000D01*
X119399285Y-61840000D02*
X119399285Y-71960000D01*
X119399285Y-71960000D02*
X125369285Y-71960000D01*
X119409285Y-61850000D02*
X119409285Y-63650000D01*
X119409285Y-63650000D02*
X120159285Y-63650000D01*
X119409285Y-65150000D02*
X119409285Y-68650000D01*
X119409285Y-68650000D02*
X120159285Y-68650000D01*
X119409285Y-70150000D02*
X119409285Y-71950000D01*
X119409285Y-71950000D02*
X120159285Y-71950000D01*
X120159285Y-61850000D02*
X119409285Y-61850000D01*
X120159285Y-63650000D02*
X120159285Y-61850000D01*
X120159285Y-65150000D02*
X119409285Y-65150000D01*
X120159285Y-68650000D02*
X120159285Y-65150000D01*
X120159285Y-70150000D02*
X119409285Y-70150000D01*
X120159285Y-71950000D02*
X120159285Y-70150000D01*
X121659285Y-61850000D02*
X121659285Y-62600000D01*
X121659285Y-62600000D02*
X124609285Y-62600000D01*
X121659285Y-71200000D02*
X124609285Y-71200000D01*
X121659285Y-71950000D02*
X121659285Y-71200000D01*
X124609285Y-62600000D02*
X124609285Y-66900000D01*
X124609285Y-71200000D02*
X124609285Y-66900000D01*
X125369285Y-61840000D02*
X119399285Y-61840000D01*
X125369285Y-71960000D02*
X125369285Y-61840000D01*
%TO.C,J9*%
X147625000Y-70950000D02*
X147625000Y-72200000D01*
X147625000Y-72200000D02*
X148875000Y-72200000D01*
X147915000Y-61790000D02*
X147915000Y-71910000D01*
X147915000Y-71910000D02*
X153885000Y-71910000D01*
X147925000Y-61800000D02*
X147925000Y-63600000D01*
X147925000Y-63600000D02*
X148675000Y-63600000D01*
X147925000Y-65100000D02*
X147925000Y-68600000D01*
X147925000Y-68600000D02*
X148675000Y-68600000D01*
X147925000Y-70100000D02*
X147925000Y-71900000D01*
X147925000Y-71900000D02*
X148675000Y-71900000D01*
X148675000Y-61800000D02*
X147925000Y-61800000D01*
X148675000Y-63600000D02*
X148675000Y-61800000D01*
X148675000Y-65100000D02*
X147925000Y-65100000D01*
X148675000Y-68600000D02*
X148675000Y-65100000D01*
X148675000Y-70100000D02*
X147925000Y-70100000D01*
X148675000Y-71900000D02*
X148675000Y-70100000D01*
X150175000Y-61800000D02*
X150175000Y-62550000D01*
X150175000Y-62550000D02*
X153125000Y-62550000D01*
X150175000Y-71150000D02*
X153125000Y-71150000D01*
X150175000Y-71900000D02*
X150175000Y-71150000D01*
X153125000Y-62550000D02*
X153125000Y-66850000D01*
X153125000Y-71150000D02*
X153125000Y-66850000D01*
X153885000Y-61790000D02*
X147915000Y-61790000D01*
X153885000Y-71910000D02*
X153885000Y-61790000D01*
%TD*%
D14*
X127940000Y-97460000D03*
X130480000Y-97460000D03*
X133020000Y-97460000D03*
X135560000Y-97460000D03*
X138100000Y-97460000D03*
X140640000Y-97460000D03*
X143180000Y-97460000D03*
X145720000Y-97460000D03*
X150800000Y-97460000D03*
X153340000Y-97460000D03*
X155880000Y-97460000D03*
X158420000Y-97460000D03*
X160960000Y-97460000D03*
X163500000Y-97460000D03*
X118796000Y-49200000D03*
X121336000Y-49200000D03*
X123876000Y-49200000D03*
X126416000Y-49200000D03*
X128956000Y-49200000D03*
X131496000Y-49200000D03*
X134036000Y-49200000D03*
X136576000Y-49200000D03*
X139116000Y-49200000D03*
X141656000Y-49200000D03*
X145720000Y-49200000D03*
X148260000Y-49200000D03*
X150800000Y-49200000D03*
X153340000Y-49200000D03*
X155880000Y-49200000D03*
X158420000Y-49200000D03*
X160960000Y-49200000D03*
X163500000Y-49200000D03*
X105400000Y-60750000D03*
X105400000Y-63250000D03*
X140425000Y-69375000D03*
X140425000Y-66875000D03*
X140425000Y-64375000D03*
X115240000Y-49200000D03*
X112750000Y-69400000D03*
X112750000Y-66900000D03*
X112750000Y-64400000D03*
X112750000Y-61900000D03*
X112750000Y-59400000D03*
X112750000Y-56900000D03*
X121859285Y-86275000D03*
X121859285Y-83775000D03*
X121859285Y-81275000D03*
X130968570Y-69400000D03*
X130968570Y-66900000D03*
X130968570Y-64400000D03*
X112750000Y-86275000D03*
X112750000Y-83775000D03*
X112750000Y-81275000D03*
X112750000Y-78775000D03*
X113970000Y-97460000D03*
X166040000Y-64440000D03*
X166040000Y-92380000D03*
X121859285Y-69400000D03*
X121859285Y-66900000D03*
X121859285Y-64400000D03*
X150375000Y-69350000D03*
X150375000Y-66850000D03*
X150375000Y-64350000D03*
M02*
