%TF.GenerationSoftware,KiCad,Pcbnew,8.0.3*%
%TF.CreationDate,2024-07-23T14:12:28+08:00*%
%TF.ProjectId,Shao Rong Shield,5368616f-2052-46f6-9e67-20536869656c,rev?*%
%TF.SameCoordinates,Original*%
%TF.FileFunction,Soldermask,Bot*%
%TF.FilePolarity,Negative*%
%FSLAX46Y46*%
G04 Gerber Fmt 4.6, Leading zero omitted, Abs format (unit mm)*
G04 Created by KiCad (PCBNEW 8.0.3) date 2024-07-23 14:12:28*
%MOMM*%
%LPD*%
G01*
G04 APERTURE LIST*
G04 Aperture macros list*
%AMRoundRect*
0 Rectangle with rounded corners*
0 $1 Rounding radius*
0 $2 $3 $4 $5 $6 $7 $8 $9 X,Y pos of 4 corners*
0 Add a 4 corners polygon primitive as box body*
4,1,4,$2,$3,$4,$5,$6,$7,$8,$9,$2,$3,0*
0 Add four circle primitives for the rounded corners*
1,1,$1+$1,$2,$3*
1,1,$1+$1,$4,$5*
1,1,$1+$1,$6,$7*
1,1,$1+$1,$8,$9*
0 Add four rect primitives between the rounded corners*
20,1,$1+$1,$2,$3,$4,$5,0*
20,1,$1+$1,$4,$5,$6,$7,0*
20,1,$1+$1,$6,$7,$8,$9,0*
20,1,$1+$1,$8,$9,$2,$3,0*%
G04 Aperture macros list end*
%ADD10R,1.700000X1.700000*%
%ADD11O,1.700000X1.700000*%
%ADD12RoundRect,0.250000X-0.750000X0.600000X-0.750000X-0.600000X0.750000X-0.600000X0.750000X0.600000X0*%
%ADD13O,2.000000X1.700000*%
%ADD14RoundRect,0.250000X0.725000X-0.600000X0.725000X0.600000X-0.725000X0.600000X-0.725000X-0.600000X0*%
%ADD15O,1.950000X1.700000*%
%ADD16C,3.200000*%
G04 APERTURE END LIST*
D10*
%TO.C,J1*%
X127940000Y-97460000D03*
D11*
X130480000Y-97460000D03*
X133020000Y-97460000D03*
X135560000Y-97460000D03*
X138100000Y-97460000D03*
X140640000Y-97460000D03*
X143180000Y-97460000D03*
X145720000Y-97460000D03*
%TD*%
D10*
%TO.C,J3*%
X150800000Y-97460000D03*
D11*
X153340000Y-97460000D03*
X155880000Y-97460000D03*
X158420000Y-97460000D03*
X160960000Y-97460000D03*
X163500000Y-97460000D03*
%TD*%
D10*
%TO.C,J2*%
X118796000Y-49200000D03*
D11*
X121336000Y-49200000D03*
X123876000Y-49200000D03*
X126416000Y-49200000D03*
X128956000Y-49200000D03*
X131496000Y-49200000D03*
X134036000Y-49200000D03*
X136576000Y-49200000D03*
X139116000Y-49200000D03*
X141656000Y-49200000D03*
%TD*%
D10*
%TO.C,J4*%
X145720000Y-49200000D03*
D11*
X148260000Y-49200000D03*
X150800000Y-49200000D03*
X153340000Y-49200000D03*
X155880000Y-49200000D03*
X158420000Y-49200000D03*
X160960000Y-49200000D03*
X163500000Y-49200000D03*
%TD*%
D12*
%TO.C,J5*%
X105400000Y-60750000D03*
D13*
X105400000Y-63250000D03*
%TD*%
D14*
%TO.C,J11*%
X140425000Y-69375000D03*
D15*
X140425000Y-66875000D03*
X140425000Y-64375000D03*
%TD*%
D16*
%TO.C,MH1*%
X115240000Y-49200000D03*
%TD*%
D14*
%TO.C,J6*%
X112750000Y-69400000D03*
D15*
X112750000Y-66900000D03*
X112750000Y-64400000D03*
X112750000Y-61900000D03*
X112750000Y-59400000D03*
X112750000Y-56900000D03*
%TD*%
D14*
%TO.C,J12*%
X121859285Y-86275000D03*
D15*
X121859285Y-83775000D03*
X121859285Y-81275000D03*
%TD*%
D14*
%TO.C,J7*%
X130968570Y-69400000D03*
D15*
X130968570Y-66900000D03*
X130968570Y-64400000D03*
%TD*%
D14*
%TO.C,J8*%
X112750000Y-86275000D03*
D15*
X112750000Y-83775000D03*
X112750000Y-81275000D03*
X112750000Y-78775000D03*
%TD*%
D16*
%TO.C,MH2*%
X113970000Y-97460000D03*
%TD*%
%TO.C,MH3*%
X166040000Y-64440000D03*
%TD*%
%TO.C,MH4*%
X166040000Y-92380000D03*
%TD*%
D14*
%TO.C,J10*%
X121859285Y-69400000D03*
D15*
X121859285Y-66900000D03*
X121859285Y-64400000D03*
%TD*%
D14*
%TO.C,J9*%
X150375000Y-69350000D03*
D15*
X150375000Y-66850000D03*
X150375000Y-64350000D03*
%TD*%
M02*
