%TF.GenerationSoftware,KiCad,Pcbnew,8.0.3*%
%TF.CreationDate,2024-07-23T14:12:28+08:00*%
%TF.ProjectId,Shao Rong Shield,5368616f-2052-46f6-9e67-20536869656c,rev?*%
%TF.SameCoordinates,Original*%
%TF.FileFunction,Legend,Bot*%
%TF.FilePolarity,Positive*%
%FSLAX46Y46*%
G04 Gerber Fmt 4.6, Leading zero omitted, Abs format (unit mm)*
G04 Created by KiCad (PCBNEW 8.0.3) date 2024-07-23 14:12:28*
%MOMM*%
%LPD*%
G01*
G04 APERTURE LIST*
%ADD10C,0.150000*%
%ADD11C,0.350000*%
G04 APERTURE END LIST*
D10*
X101569819Y-84536779D02*
X100569819Y-84536779D01*
X100569819Y-84536779D02*
X100569819Y-84774874D01*
X100569819Y-84774874D02*
X100617438Y-84917731D01*
X100617438Y-84917731D02*
X100712676Y-85012969D01*
X100712676Y-85012969D02*
X100807914Y-85060588D01*
X100807914Y-85060588D02*
X100998390Y-85108207D01*
X100998390Y-85108207D02*
X101141247Y-85108207D01*
X101141247Y-85108207D02*
X101331723Y-85060588D01*
X101331723Y-85060588D02*
X101426961Y-85012969D01*
X101426961Y-85012969D02*
X101522200Y-84917731D01*
X101522200Y-84917731D02*
X101569819Y-84774874D01*
X101569819Y-84774874D02*
X101569819Y-84536779D01*
X101522200Y-85917731D02*
X101569819Y-85822493D01*
X101569819Y-85822493D02*
X101569819Y-85632017D01*
X101569819Y-85632017D02*
X101522200Y-85536779D01*
X101522200Y-85536779D02*
X101426961Y-85489160D01*
X101426961Y-85489160D02*
X101046009Y-85489160D01*
X101046009Y-85489160D02*
X100950771Y-85536779D01*
X100950771Y-85536779D02*
X100903152Y-85632017D01*
X100903152Y-85632017D02*
X100903152Y-85822493D01*
X100903152Y-85822493D02*
X100950771Y-85917731D01*
X100950771Y-85917731D02*
X101046009Y-85965350D01*
X101046009Y-85965350D02*
X101141247Y-85965350D01*
X101141247Y-85965350D02*
X101236485Y-85489160D01*
X101522200Y-86346303D02*
X101569819Y-86441541D01*
X101569819Y-86441541D02*
X101569819Y-86632017D01*
X101569819Y-86632017D02*
X101522200Y-86727255D01*
X101522200Y-86727255D02*
X101426961Y-86774874D01*
X101426961Y-86774874D02*
X101379342Y-86774874D01*
X101379342Y-86774874D02*
X101284104Y-86727255D01*
X101284104Y-86727255D02*
X101236485Y-86632017D01*
X101236485Y-86632017D02*
X101236485Y-86489160D01*
X101236485Y-86489160D02*
X101188866Y-86393922D01*
X101188866Y-86393922D02*
X101093628Y-86346303D01*
X101093628Y-86346303D02*
X101046009Y-86346303D01*
X101046009Y-86346303D02*
X100950771Y-86393922D01*
X100950771Y-86393922D02*
X100903152Y-86489160D01*
X100903152Y-86489160D02*
X100903152Y-86632017D01*
X100903152Y-86632017D02*
X100950771Y-86727255D01*
X101569819Y-87203446D02*
X100903152Y-87203446D01*
X100569819Y-87203446D02*
X100617438Y-87155827D01*
X100617438Y-87155827D02*
X100665057Y-87203446D01*
X100665057Y-87203446D02*
X100617438Y-87251065D01*
X100617438Y-87251065D02*
X100569819Y-87203446D01*
X100569819Y-87203446D02*
X100665057Y-87203446D01*
X100903152Y-88108207D02*
X101712676Y-88108207D01*
X101712676Y-88108207D02*
X101807914Y-88060588D01*
X101807914Y-88060588D02*
X101855533Y-88012969D01*
X101855533Y-88012969D02*
X101903152Y-87917731D01*
X101903152Y-87917731D02*
X101903152Y-87774874D01*
X101903152Y-87774874D02*
X101855533Y-87679636D01*
X101522200Y-88108207D02*
X101569819Y-88012969D01*
X101569819Y-88012969D02*
X101569819Y-87822493D01*
X101569819Y-87822493D02*
X101522200Y-87727255D01*
X101522200Y-87727255D02*
X101474580Y-87679636D01*
X101474580Y-87679636D02*
X101379342Y-87632017D01*
X101379342Y-87632017D02*
X101093628Y-87632017D01*
X101093628Y-87632017D02*
X100998390Y-87679636D01*
X100998390Y-87679636D02*
X100950771Y-87727255D01*
X100950771Y-87727255D02*
X100903152Y-87822493D01*
X100903152Y-87822493D02*
X100903152Y-88012969D01*
X100903152Y-88012969D02*
X100950771Y-88108207D01*
X100903152Y-88584398D02*
X101569819Y-88584398D01*
X100998390Y-88584398D02*
X100950771Y-88632017D01*
X100950771Y-88632017D02*
X100903152Y-88727255D01*
X100903152Y-88727255D02*
X100903152Y-88870112D01*
X100903152Y-88870112D02*
X100950771Y-88965350D01*
X100950771Y-88965350D02*
X101046009Y-89012969D01*
X101046009Y-89012969D02*
X101569819Y-89012969D01*
X101522200Y-89870112D02*
X101569819Y-89774874D01*
X101569819Y-89774874D02*
X101569819Y-89584398D01*
X101569819Y-89584398D02*
X101522200Y-89489160D01*
X101522200Y-89489160D02*
X101426961Y-89441541D01*
X101426961Y-89441541D02*
X101046009Y-89441541D01*
X101046009Y-89441541D02*
X100950771Y-89489160D01*
X100950771Y-89489160D02*
X100903152Y-89584398D01*
X100903152Y-89584398D02*
X100903152Y-89774874D01*
X100903152Y-89774874D02*
X100950771Y-89870112D01*
X100950771Y-89870112D02*
X101046009Y-89917731D01*
X101046009Y-89917731D02*
X101141247Y-89917731D01*
X101141247Y-89917731D02*
X101236485Y-89441541D01*
X101569819Y-90774874D02*
X100569819Y-90774874D01*
X101522200Y-90774874D02*
X101569819Y-90679636D01*
X101569819Y-90679636D02*
X101569819Y-90489160D01*
X101569819Y-90489160D02*
X101522200Y-90393922D01*
X101522200Y-90393922D02*
X101474580Y-90346303D01*
X101474580Y-90346303D02*
X101379342Y-90298684D01*
X101379342Y-90298684D02*
X101093628Y-90298684D01*
X101093628Y-90298684D02*
X100998390Y-90346303D01*
X100998390Y-90346303D02*
X100950771Y-90393922D01*
X100950771Y-90393922D02*
X100903152Y-90489160D01*
X100903152Y-90489160D02*
X100903152Y-90679636D01*
X100903152Y-90679636D02*
X100950771Y-90774874D01*
X101569819Y-92012970D02*
X100569819Y-92012970D01*
X100950771Y-92012970D02*
X100903152Y-92108208D01*
X100903152Y-92108208D02*
X100903152Y-92298684D01*
X100903152Y-92298684D02*
X100950771Y-92393922D01*
X100950771Y-92393922D02*
X100998390Y-92441541D01*
X100998390Y-92441541D02*
X101093628Y-92489160D01*
X101093628Y-92489160D02*
X101379342Y-92489160D01*
X101379342Y-92489160D02*
X101474580Y-92441541D01*
X101474580Y-92441541D02*
X101522200Y-92393922D01*
X101522200Y-92393922D02*
X101569819Y-92298684D01*
X101569819Y-92298684D02*
X101569819Y-92108208D01*
X101569819Y-92108208D02*
X101522200Y-92012970D01*
X100903152Y-92822494D02*
X101569819Y-93060589D01*
X100903152Y-93298684D02*
X101569819Y-93060589D01*
X101569819Y-93060589D02*
X101807914Y-92965351D01*
X101807914Y-92965351D02*
X101855533Y-92917732D01*
X101855533Y-92917732D02*
X101903152Y-92822494D01*
X100569819Y-94727256D02*
X101284104Y-94727256D01*
X101284104Y-94727256D02*
X101426961Y-94679637D01*
X101426961Y-94679637D02*
X101522200Y-94584399D01*
X101522200Y-94584399D02*
X101569819Y-94441542D01*
X101569819Y-94441542D02*
X101569819Y-94346304D01*
X101522200Y-95584399D02*
X101569819Y-95489161D01*
X101569819Y-95489161D02*
X101569819Y-95298685D01*
X101569819Y-95298685D02*
X101522200Y-95203447D01*
X101522200Y-95203447D02*
X101426961Y-95155828D01*
X101426961Y-95155828D02*
X101046009Y-95155828D01*
X101046009Y-95155828D02*
X100950771Y-95203447D01*
X100950771Y-95203447D02*
X100903152Y-95298685D01*
X100903152Y-95298685D02*
X100903152Y-95489161D01*
X100903152Y-95489161D02*
X100950771Y-95584399D01*
X100950771Y-95584399D02*
X101046009Y-95632018D01*
X101046009Y-95632018D02*
X101141247Y-95632018D01*
X101141247Y-95632018D02*
X101236485Y-95155828D01*
X101569819Y-96060590D02*
X100903152Y-96060590D01*
X101093628Y-96060590D02*
X100998390Y-96108209D01*
X100998390Y-96108209D02*
X100950771Y-96155828D01*
X100950771Y-96155828D02*
X100903152Y-96251066D01*
X100903152Y-96251066D02*
X100903152Y-96346304D01*
X101522200Y-97060590D02*
X101569819Y-96965352D01*
X101569819Y-96965352D02*
X101569819Y-96774876D01*
X101569819Y-96774876D02*
X101522200Y-96679638D01*
X101522200Y-96679638D02*
X101426961Y-96632019D01*
X101426961Y-96632019D02*
X101046009Y-96632019D01*
X101046009Y-96632019D02*
X100950771Y-96679638D01*
X100950771Y-96679638D02*
X100903152Y-96774876D01*
X100903152Y-96774876D02*
X100903152Y-96965352D01*
X100903152Y-96965352D02*
X100950771Y-97060590D01*
X100950771Y-97060590D02*
X101046009Y-97108209D01*
X101046009Y-97108209D02*
X101141247Y-97108209D01*
X101141247Y-97108209D02*
X101236485Y-96632019D01*
X101569819Y-97536781D02*
X100903152Y-97536781D01*
X100998390Y-97536781D02*
X100950771Y-97584400D01*
X100950771Y-97584400D02*
X100903152Y-97679638D01*
X100903152Y-97679638D02*
X100903152Y-97822495D01*
X100903152Y-97822495D02*
X100950771Y-97917733D01*
X100950771Y-97917733D02*
X101046009Y-97965352D01*
X101046009Y-97965352D02*
X101569819Y-97965352D01*
X101046009Y-97965352D02*
X100950771Y-98012971D01*
X100950771Y-98012971D02*
X100903152Y-98108209D01*
X100903152Y-98108209D02*
X100903152Y-98251066D01*
X100903152Y-98251066D02*
X100950771Y-98346305D01*
X100950771Y-98346305D02*
X101046009Y-98393924D01*
X101046009Y-98393924D02*
X101569819Y-98393924D01*
X100903152Y-98774876D02*
X101569819Y-99012971D01*
X100903152Y-99251066D02*
X101569819Y-99012971D01*
X101569819Y-99012971D02*
X101807914Y-98917733D01*
X101807914Y-98917733D02*
X101855533Y-98870114D01*
X101855533Y-98870114D02*
X101903152Y-98774876D01*
D11*
X127940000Y-97460000D03*
X130480000Y-97460000D03*
X133020000Y-97460000D03*
X135560000Y-97460000D03*
X138100000Y-97460000D03*
X140640000Y-97460000D03*
X143180000Y-97460000D03*
X145720000Y-97460000D03*
X150800000Y-97460000D03*
X153340000Y-97460000D03*
X155880000Y-97460000D03*
X158420000Y-97460000D03*
X160960000Y-97460000D03*
X163500000Y-97460000D03*
X118796000Y-49200000D03*
X121336000Y-49200000D03*
X123876000Y-49200000D03*
X126416000Y-49200000D03*
X128956000Y-49200000D03*
X131496000Y-49200000D03*
X134036000Y-49200000D03*
X136576000Y-49200000D03*
X139116000Y-49200000D03*
X141656000Y-49200000D03*
X145720000Y-49200000D03*
X148260000Y-49200000D03*
X150800000Y-49200000D03*
X153340000Y-49200000D03*
X155880000Y-49200000D03*
X158420000Y-49200000D03*
X160960000Y-49200000D03*
X163500000Y-49200000D03*
X105400000Y-60750000D03*
X105400000Y-63250000D03*
X140425000Y-69375000D03*
X140425000Y-66875000D03*
X140425000Y-64375000D03*
X115240000Y-49200000D03*
X112750000Y-69400000D03*
X112750000Y-66900000D03*
X112750000Y-64400000D03*
X112750000Y-61900000D03*
X112750000Y-59400000D03*
X112750000Y-56900000D03*
X121859285Y-86275000D03*
X121859285Y-83775000D03*
X121859285Y-81275000D03*
X130968570Y-69400000D03*
X130968570Y-66900000D03*
X130968570Y-64400000D03*
X112750000Y-86275000D03*
X112750000Y-83775000D03*
X112750000Y-81275000D03*
X112750000Y-78775000D03*
X113970000Y-97460000D03*
X166040000Y-64440000D03*
X166040000Y-92380000D03*
X121859285Y-69400000D03*
X121859285Y-66900000D03*
X121859285Y-64400000D03*
X150375000Y-69350000D03*
X150375000Y-66850000D03*
X150375000Y-64350000D03*
M02*
