%TF.GenerationSoftware,KiCad,Pcbnew,8.0.3*%
%TF.CreationDate,2024-07-23T14:12:28+08:00*%
%TF.ProjectId,Shao Rong Shield,5368616f-2052-46f6-9e67-20536869656c,rev?*%
%TF.SameCoordinates,Original*%
%TF.FileFunction,Legend,Top*%
%TF.FilePolarity,Positive*%
%FSLAX46Y46*%
G04 Gerber Fmt 4.6, Leading zero omitted, Abs format (unit mm)*
G04 Created by KiCad (PCBNEW 8.0.3) date 2024-07-23 14:12:28*
%MOMM*%
%LPD*%
G01*
G04 APERTURE LIST*
%ADD10C,0.150000*%
%ADD11C,0.200000*%
%ADD12C,0.125000*%
%ADD13C,0.120000*%
%ADD14C,0.350000*%
G04 APERTURE END LIST*
D10*
X5017438Y31860589D02*
X4969819Y31765351D01*
X4969819Y31765351D02*
X4969819Y31622494D01*
X4969819Y31622494D02*
X5017438Y31479637D01*
X5017438Y31479637D02*
X5112676Y31384399D01*
X5112676Y31384399D02*
X5207914Y31336780D01*
X5207914Y31336780D02*
X5398390Y31289161D01*
X5398390Y31289161D02*
X5541247Y31289161D01*
X5541247Y31289161D02*
X5731723Y31336780D01*
X5731723Y31336780D02*
X5826961Y31384399D01*
X5826961Y31384399D02*
X5922200Y31479637D01*
X5922200Y31479637D02*
X5969819Y31622494D01*
X5969819Y31622494D02*
X5969819Y31717732D01*
X5969819Y31717732D02*
X5922200Y31860589D01*
X5922200Y31860589D02*
X5874580Y31908208D01*
X5874580Y31908208D02*
X5541247Y31908208D01*
X5541247Y31908208D02*
X5541247Y31717732D01*
X5303152Y32336780D02*
X5969819Y32336780D01*
X5398390Y32336780D02*
X5350771Y32384399D01*
X5350771Y32384399D02*
X5303152Y32479637D01*
X5303152Y32479637D02*
X5303152Y32622494D01*
X5303152Y32622494D02*
X5350771Y32717732D01*
X5350771Y32717732D02*
X5446009Y32765351D01*
X5446009Y32765351D02*
X5969819Y32765351D01*
X5969819Y33670113D02*
X4969819Y33670113D01*
X5922200Y33670113D02*
X5969819Y33574875D01*
X5969819Y33574875D02*
X5969819Y33384399D01*
X5969819Y33384399D02*
X5922200Y33289161D01*
X5922200Y33289161D02*
X5874580Y33241542D01*
X5874580Y33241542D02*
X5779342Y33193923D01*
X5779342Y33193923D02*
X5493628Y33193923D01*
X5493628Y33193923D02*
X5398390Y33241542D01*
X5398390Y33241542D02*
X5350771Y33289161D01*
X5350771Y33289161D02*
X5303152Y33384399D01*
X5303152Y33384399D02*
X5303152Y33574875D01*
X5303152Y33574875D02*
X5350771Y33670113D01*
X5069819Y43112970D02*
X5069819Y42636780D01*
X5069819Y42636780D02*
X5546009Y42589161D01*
X5546009Y42589161D02*
X5498390Y42636780D01*
X5498390Y42636780D02*
X5450771Y42732018D01*
X5450771Y42732018D02*
X5450771Y42970113D01*
X5450771Y42970113D02*
X5498390Y43065351D01*
X5498390Y43065351D02*
X5546009Y43112970D01*
X5546009Y43112970D02*
X5641247Y43160589D01*
X5641247Y43160589D02*
X5879342Y43160589D01*
X5879342Y43160589D02*
X5974580Y43112970D01*
X5974580Y43112970D02*
X6022200Y43065351D01*
X6022200Y43065351D02*
X6069819Y42970113D01*
X6069819Y42970113D02*
X6069819Y42732018D01*
X6069819Y42732018D02*
X6022200Y42636780D01*
X6022200Y42636780D02*
X5974580Y42589161D01*
X5069819Y43446304D02*
X6069819Y43779637D01*
X6069819Y43779637D02*
X5069819Y44112970D01*
D11*
G36*
X31706866Y17024727D02*
G01*
X31896803Y17003570D01*
X32073596Y16968307D01*
X32276105Y16904394D01*
X32458078Y16818441D01*
X32619515Y16710450D01*
X32760415Y16580419D01*
X32881087Y16428607D01*
X32981307Y16254660D01*
X33061073Y16058579D01*
X33120387Y15840363D01*
X33159247Y15600013D01*
X33175610Y15391796D01*
X33179291Y15226337D01*
X33171931Y14989788D01*
X33149852Y14758856D01*
X33113054Y14533542D01*
X33061536Y14313846D01*
X32995298Y14099767D01*
X32914341Y13891305D01*
X32818665Y13688462D01*
X32708269Y13491236D01*
X32603420Y13330608D01*
X32454576Y13141014D01*
X32295394Y12979509D01*
X32125873Y12846091D01*
X31946014Y12740761D01*
X31755817Y12663520D01*
X31555281Y12614366D01*
X31344407Y12593300D01*
X31290073Y12592422D01*
X31115363Y12599902D01*
X30906292Y12630289D01*
X30707573Y12684051D01*
X30519205Y12761188D01*
X30341189Y12861700D01*
X30173525Y12985586D01*
X30077896Y13071138D01*
X29924223Y13238769D01*
X29796596Y13421092D01*
X29695016Y13618108D01*
X29619482Y13829817D01*
X29569994Y14056219D01*
X29546553Y14297313D01*
X29544550Y14393957D01*
X30227494Y14393957D01*
X30242343Y14195973D01*
X30295678Y13990427D01*
X30387801Y13806985D01*
X30518713Y13645648D01*
X30537805Y13627035D01*
X30696700Y13502654D01*
X30875043Y13413811D01*
X31047047Y13365224D01*
X31233940Y13343847D01*
X31290073Y13342736D01*
X31482314Y13364306D01*
X31662173Y13429015D01*
X31829650Y13536863D01*
X31984745Y13687851D01*
X32104533Y13846628D01*
X32172278Y13956274D01*
X32265861Y14134982D01*
X32343582Y14321226D01*
X32405442Y14515008D01*
X32451440Y14716327D01*
X32481577Y14925184D01*
X32495852Y15141577D01*
X32497121Y15230245D01*
X32489187Y15441282D01*
X32459875Y15655108D01*
X32399928Y15856776D01*
X32298769Y16029205D01*
X32271441Y16059693D01*
X32123278Y16166898D01*
X31947072Y16232737D01*
X31758531Y16267605D01*
X31571399Y16280600D01*
X31503785Y16281466D01*
X31308198Y16259896D01*
X31123430Y16195187D01*
X30949482Y16087339D01*
X30812789Y15964511D01*
X30683610Y15811726D01*
X30585676Y15667928D01*
X30482489Y15485356D01*
X30396791Y15296679D01*
X30328583Y15101895D01*
X30277864Y14901005D01*
X30244634Y14694010D01*
X30228893Y14480908D01*
X30227494Y14393957D01*
X29544550Y14393957D01*
X29544469Y14397865D01*
X29552470Y14634597D01*
X29576473Y14866079D01*
X29616477Y15092309D01*
X29672483Y15313287D01*
X29744491Y15529015D01*
X29832500Y15739491D01*
X29936511Y15944716D01*
X30056524Y16144690D01*
X30166858Y16303223D01*
X30322126Y16490343D01*
X30486718Y16649742D01*
X30660634Y16781420D01*
X30843872Y16885375D01*
X31036434Y16961610D01*
X31238318Y17010123D01*
X31449527Y17030914D01*
X31503785Y17031780D01*
X31706866Y17024727D01*
G37*
G36*
X35572016Y14713427D02*
G01*
X35536937Y14504213D01*
X35431433Y14341491D01*
X35257040Y14281051D01*
X35237770Y14280629D01*
X35064993Y14322188D01*
X34953265Y14478465D01*
X34934298Y14632338D01*
X34922330Y14905890D01*
X34730520Y14855011D01*
X34560288Y14774182D01*
X34411634Y14663403D01*
X34284559Y14522673D01*
X34179062Y14351993D01*
X34148691Y14288444D01*
X34151256Y12945109D01*
X34102678Y12753277D01*
X34057222Y12693050D01*
X33904087Y12602249D01*
X33818719Y12592422D01*
X33652209Y12639125D01*
X33587909Y12700866D01*
X33515782Y12879102D01*
X33510973Y12951947D01*
X33510973Y14733943D01*
X33514016Y14934845D01*
X33515247Y14985025D01*
X33519971Y15183176D01*
X33520376Y15237084D01*
X33561888Y15429925D01*
X33600732Y15491096D01*
X33752360Y15585564D01*
X33830687Y15593678D01*
X34000829Y15549577D01*
X34116235Y15402267D01*
X34148691Y15280070D01*
X34311610Y15407897D01*
X34481081Y15509277D01*
X34657103Y15584210D01*
X34839677Y15632696D01*
X35028803Y15654735D01*
X35093300Y15656204D01*
X35280830Y15620160D01*
X35438751Y15490696D01*
X35527581Y15300178D01*
X35567061Y15079501D01*
X35574581Y14902959D01*
X35572016Y14713427D01*
G37*
G36*
X37402637Y15645724D02*
G01*
X37576733Y15607585D01*
X37618527Y15592701D01*
X37775063Y15506755D01*
X37883531Y15400238D01*
X38057281Y15332336D01*
X38164572Y15169258D01*
X38188712Y14986002D01*
X38177630Y14782197D01*
X38152806Y14574950D01*
X38138276Y14477000D01*
X38108736Y14272819D01*
X38083161Y14065107D01*
X38061552Y13853866D01*
X38043908Y13639094D01*
X38030230Y13420793D01*
X38020517Y13198961D01*
X38017742Y13109240D01*
X38008446Y12894352D01*
X37992524Y12694699D01*
X37963305Y12466556D01*
X37923735Y12262217D01*
X37862587Y12048432D01*
X37786532Y11868925D01*
X37757868Y11816707D01*
X37647705Y11661908D01*
X37513835Y11533347D01*
X37356255Y11431022D01*
X37174967Y11354935D01*
X36969970Y11305085D01*
X36788902Y11284095D01*
X36643143Y11279372D01*
X36423954Y11286975D01*
X36233991Y11309781D01*
X36037634Y11359669D01*
X35862283Y11450894D01*
X35740816Y11600559D01*
X35707937Y11765904D01*
X35744016Y11965538D01*
X35791713Y12047272D01*
X35940307Y12146238D01*
X36013119Y12154739D01*
X36185224Y12130315D01*
X36323429Y12092213D01*
X36491284Y12049470D01*
X36661880Y12029931D01*
X36681612Y12029686D01*
X36867867Y12046379D01*
X37040239Y12104081D01*
X37187810Y12215158D01*
X37209909Y12240712D01*
X37306302Y12416374D01*
X37361578Y12610588D01*
X37392887Y12821369D01*
X37402250Y12940224D01*
X37263440Y12808799D01*
X37126133Y12726267D01*
X36954441Y12670619D01*
X36789323Y12654948D01*
X36616115Y12667656D01*
X36429993Y12714606D01*
X36261052Y12796151D01*
X36109291Y12912290D01*
X36011409Y13016428D01*
X35894827Y13184252D01*
X35806880Y13371431D01*
X35747566Y13577964D01*
X35716887Y13803851D01*
X35712212Y13941619D01*
X35713162Y13964090D01*
X36371301Y13964090D01*
X36381820Y13767493D01*
X36422211Y13575152D01*
X36479012Y13451180D01*
X36614506Y13322952D01*
X36790443Y13280377D01*
X36803855Y13280210D01*
X36976969Y13332195D01*
X37125873Y13459507D01*
X37200505Y13551808D01*
X37301819Y13712340D01*
X37381961Y13903216D01*
X37414218Y14060810D01*
X37444405Y14262349D01*
X37470478Y14466719D01*
X37494694Y14676998D01*
X37516493Y14880605D01*
X37520219Y14916637D01*
X37363624Y14999835D01*
X37358653Y15001633D01*
X37205635Y15030943D01*
X37013507Y15011098D01*
X36844033Y14951564D01*
X36680453Y14837146D01*
X36573046Y14713427D01*
X36475523Y14537237D01*
X36409916Y14333999D01*
X36378394Y14130637D01*
X36371301Y13964090D01*
X35713162Y13964090D01*
X35721958Y14172038D01*
X35751197Y14388240D01*
X35799930Y14590227D01*
X35868155Y14777999D01*
X35955873Y14951554D01*
X36063084Y15110894D01*
X36111427Y15170649D01*
X36247819Y15310531D01*
X36398402Y15426704D01*
X36563178Y15519168D01*
X36742146Y15587923D01*
X36935305Y15632970D01*
X37142656Y15654308D01*
X37229570Y15656204D01*
X37402637Y15645724D01*
G37*
G36*
X40031822Y15635734D02*
G01*
X40198317Y15587400D01*
X40360154Y15519591D01*
X40378838Y15510636D01*
X40537786Y15419167D01*
X40672609Y15294870D01*
X40742149Y15102261D01*
X40686584Y14931291D01*
X40656450Y14738218D01*
X40648970Y14659693D01*
X40638602Y14458525D01*
X40636147Y14277698D01*
X40639256Y14065428D01*
X40650423Y13856722D01*
X40675801Y13646673D01*
X40701116Y13533245D01*
X40770760Y13354094D01*
X40811392Y13252855D01*
X40881917Y13070161D01*
X40905425Y12987118D01*
X40850608Y12800089D01*
X40807972Y12749714D01*
X40652427Y12662444D01*
X40583147Y12654948D01*
X40417974Y12732537D01*
X40276556Y12856345D01*
X40232658Y12900168D01*
X40074057Y12817690D01*
X39907862Y12742650D01*
X39842847Y12717474D01*
X39669349Y12666916D01*
X39556472Y12654948D01*
X39382672Y12663535D01*
X39192735Y12696508D01*
X39023114Y12754210D01*
X38850900Y12852785D01*
X38706339Y12985019D01*
X38687944Y13006658D01*
X38575027Y13177695D01*
X38489843Y13382204D01*
X38438903Y13584140D01*
X38408338Y13810667D01*
X38398825Y14010007D01*
X39064078Y14010007D01*
X39075348Y13800417D01*
X39118625Y13595253D01*
X39179483Y13462904D01*
X39313033Y13331771D01*
X39483435Y13281816D01*
X39525697Y13280210D01*
X39696906Y13299842D01*
X39807798Y13335897D01*
X39968483Y13426114D01*
X40059124Y13500028D01*
X40034720Y13730758D01*
X40015366Y13938612D01*
X39999167Y14152198D01*
X39989069Y14358171D01*
X39987316Y14466253D01*
X39997575Y14665555D01*
X40022405Y14865838D01*
X40030059Y14916637D01*
X39944574Y14955716D01*
X39881315Y14968416D01*
X39703640Y14945542D01*
X39538948Y14876917D01*
X39387238Y14762543D01*
X39308565Y14679233D01*
X39190381Y14509380D01*
X39110875Y14325153D01*
X39070047Y14126552D01*
X39064078Y14010007D01*
X38398825Y14010007D01*
X38398433Y14018226D01*
X38398150Y14061787D01*
X38408585Y14262629D01*
X38448657Y14491423D01*
X38518781Y14706891D01*
X38618959Y14909033D01*
X38725397Y15067304D01*
X38825575Y15187258D01*
X38963524Y15322355D01*
X39109696Y15434554D01*
X39264091Y15523855D01*
X39426708Y15590259D01*
X39597549Y15633764D01*
X39776612Y15654372D01*
X39850540Y15656204D01*
X40031822Y15635734D01*
G37*
G36*
X43124616Y12592422D02*
G01*
X42952279Y12630056D01*
X42828570Y12771574D01*
X42795498Y12910915D01*
X42770374Y13115025D01*
X42745009Y13319960D01*
X42727965Y13457042D01*
X42707524Y13651930D01*
X42694902Y13855583D01*
X42692062Y14002192D01*
X42699082Y14206383D01*
X42700610Y14236665D01*
X42708750Y14436543D01*
X42709159Y14471138D01*
X42713433Y14564927D01*
X42718562Y14687049D01*
X42674015Y14880031D01*
X42615125Y14905890D01*
X42436643Y14858002D01*
X42287824Y14742675D01*
X42180861Y14615730D01*
X42068845Y14440227D01*
X41981423Y14263594D01*
X41905435Y14067543D01*
X41848325Y13880070D01*
X41831027Y13678860D01*
X41826953Y13642666D01*
X41812776Y13441713D01*
X41812421Y13405262D01*
X41825058Y13204558D01*
X41827808Y13176651D01*
X41842655Y12979940D01*
X41843196Y12949017D01*
X41794176Y12754881D01*
X41748307Y12694027D01*
X41594401Y12602344D01*
X41508949Y12592422D01*
X41341054Y12636600D01*
X41270446Y12695004D01*
X41184638Y12870224D01*
X41177267Y12953901D01*
X41165332Y13156211D01*
X41162735Y13184467D01*
X41148713Y13384650D01*
X41148203Y13416009D01*
X41152142Y13620931D01*
X41161226Y13824658D01*
X41173728Y14032997D01*
X41181542Y14146783D01*
X41194865Y14342083D01*
X41206085Y14541126D01*
X41214099Y14753694D01*
X41215736Y14878535D01*
X41209650Y15074053D01*
X41207187Y15122778D01*
X41199173Y15320798D01*
X41198639Y15366044D01*
X41248983Y15557876D01*
X41296092Y15618102D01*
X41451100Y15708903D01*
X41535450Y15718730D01*
X41703882Y15676179D01*
X41822819Y15531078D01*
X41868440Y15335765D01*
X41872260Y15283001D01*
X41874825Y15252715D01*
X42007901Y15389838D01*
X42166499Y15513959D01*
X42328697Y15599464D01*
X42518474Y15649900D01*
X42615125Y15656204D01*
X42800592Y15635915D01*
X42979497Y15563039D01*
X43123138Y15437162D01*
X43231517Y15258285D01*
X43242585Y15232199D01*
X43303443Y15027035D01*
X43335901Y14823336D01*
X43352467Y14616249D01*
X43357877Y14417313D01*
X43357990Y14382234D01*
X43357990Y14191724D01*
X43355425Y14016846D01*
X43365243Y13810721D01*
X43386731Y13616231D01*
X43406716Y13477558D01*
X43434215Y13283290D01*
X43453770Y13082156D01*
X43458862Y12941201D01*
X43408959Y12751673D01*
X43362264Y12692073D01*
X43208798Y12602154D01*
X43124616Y12592422D01*
G37*
G36*
X44342777Y16093887D02*
G01*
X44174518Y16132118D01*
X44076064Y16202331D01*
X43976557Y16366563D01*
X43963224Y16469044D01*
X44016558Y16662233D01*
X44076064Y16734781D01*
X44233142Y16828814D01*
X44342777Y16844201D01*
X44510734Y16805626D01*
X44608635Y16734781D01*
X44707388Y16571411D01*
X44720621Y16469044D01*
X44667690Y16275394D01*
X44608635Y16202331D01*
X44452291Y16109137D01*
X44342777Y16093887D01*
G37*
G36*
X44547086Y14044201D02*
G01*
X44549223Y13837572D01*
X44553172Y13639409D01*
X44555635Y13534222D01*
X44560143Y13333810D01*
X44563507Y13129471D01*
X44564183Y13025220D01*
X44519738Y12830353D01*
X44470150Y12759484D01*
X44317786Y12665157D01*
X44232501Y12654948D01*
X44064606Y12699968D01*
X43993998Y12759484D01*
X43909919Y12930004D01*
X43900819Y13025220D01*
X43898682Y13231606D01*
X43894734Y13429317D01*
X43892271Y13534222D01*
X43887763Y13735150D01*
X43884399Y13939874D01*
X43883722Y14044201D01*
X43887088Y14247763D01*
X43895036Y14444054D01*
X43906186Y14641435D01*
X43907658Y14664578D01*
X43919229Y14864613D01*
X43927644Y15063671D01*
X43931571Y15270301D01*
X43931594Y15285932D01*
X43975636Y15480800D01*
X44024773Y15551668D01*
X44177908Y15645996D01*
X44263276Y15656204D01*
X44430803Y15611184D01*
X44500924Y15551668D01*
X44585775Y15381149D01*
X44594958Y15285932D01*
X44591592Y15082234D01*
X44583644Y14885618D01*
X44572494Y14687781D01*
X44571022Y14664578D01*
X44559451Y14465016D01*
X44551036Y14266301D01*
X44547109Y14059832D01*
X44547086Y14044201D01*
G37*
G36*
X46271318Y12592422D02*
G01*
X46079188Y12604375D01*
X45899018Y12640233D01*
X45730809Y12699996D01*
X45574562Y12783664D01*
X45430276Y12891238D01*
X45384839Y12932408D01*
X45256431Y13075233D01*
X45154591Y13234063D01*
X45069354Y13439595D01*
X45025076Y13633104D01*
X45007364Y13842618D01*
X45006995Y13879093D01*
X45018926Y14083628D01*
X45054720Y14290566D01*
X45114376Y14499909D01*
X45197894Y14711656D01*
X45285721Y14889949D01*
X45346371Y14997726D01*
X45469631Y15187424D01*
X45598986Y15344970D01*
X45734434Y15470364D01*
X45905017Y15578396D01*
X46084375Y15640128D01*
X46240544Y15656204D01*
X46422642Y15636925D01*
X46605366Y15585940D01*
X46783808Y15512807D01*
X46825261Y15493050D01*
X46983479Y15402055D01*
X47129801Y15276407D01*
X47221402Y15109613D01*
X47231315Y15028989D01*
X47185153Y14832617D01*
X47149249Y14774976D01*
X46999080Y14665214D01*
X46926133Y14655786D01*
X46755804Y14720388D01*
X46677372Y14780838D01*
X46522234Y14866323D01*
X46344719Y14901494D01*
X46240544Y14905890D01*
X46072923Y14833522D01*
X45945781Y14693216D01*
X45839619Y14527802D01*
X45749112Y14351764D01*
X45678201Y14168465D01*
X45635978Y13965632D01*
X45632745Y13897656D01*
X45662937Y13703301D01*
X45762982Y13535110D01*
X45815683Y13485374D01*
X45974327Y13393021D01*
X46153324Y13349561D01*
X46272173Y13342736D01*
X46451051Y13373999D01*
X46623140Y13445440D01*
X46666259Y13467788D01*
X46827659Y13548755D01*
X46962037Y13592841D01*
X47129391Y13535809D01*
X47184298Y13482443D01*
X47269319Y13307596D01*
X47276622Y13230384D01*
X47209184Y13050355D01*
X47065529Y12912091D01*
X46893143Y12801617D01*
X46868004Y12787816D01*
X46693507Y12702331D01*
X46517380Y12635355D01*
X46346744Y12597192D01*
X46271318Y12592422D01*
G37*
G36*
X51862037Y16093887D02*
G01*
X51688266Y16104207D01*
X51510083Y16120815D01*
X51309644Y16141759D01*
X51176448Y16156414D01*
X51165117Y15951421D01*
X51156131Y15722593D01*
X51150434Y15513693D01*
X51146364Y15288241D01*
X51143922Y15046235D01*
X51143141Y14840713D01*
X51143108Y14787677D01*
X51140544Y13530315D01*
X51321330Y13534093D01*
X51504009Y13536634D01*
X51688581Y13537939D01*
X51791939Y13538130D01*
X51960203Y13489744D01*
X52031297Y13425779D01*
X52116919Y13251397D01*
X52126186Y13158088D01*
X52081336Y12963976D01*
X52031297Y12890398D01*
X51877391Y12790782D01*
X51791939Y12780000D01*
X51610554Y12778898D01*
X51436905Y12776791D01*
X51387595Y12776093D01*
X51204631Y12773711D01*
X51029345Y12772280D01*
X50984106Y12772185D01*
X50800293Y12766174D01*
X50621326Y12754126D01*
X50507955Y12744830D01*
X50325181Y12730404D01*
X50146624Y12720146D01*
X50031803Y12717474D01*
X49863540Y12768385D01*
X49792445Y12835688D01*
X49708769Y13012742D01*
X49697557Y13121940D01*
X49734623Y13313289D01*
X49792445Y13410147D01*
X49938339Y13516115D01*
X50031803Y13530315D01*
X50208216Y13530315D01*
X50381804Y13530315D01*
X50462648Y13530315D01*
X50460404Y13726503D01*
X50458966Y13957973D01*
X50458240Y14157484D01*
X50457764Y14385475D01*
X50457564Y14588372D01*
X50457519Y14752506D01*
X50458687Y14980754D01*
X50462194Y15205710D01*
X50468037Y15427374D01*
X50476219Y15645748D01*
X50486737Y15860829D01*
X50499593Y16072619D01*
X50505390Y16156414D01*
X49983932Y16156414D01*
X49814564Y16201433D01*
X49742009Y16260950D01*
X49654073Y16429580D01*
X49644556Y16521801D01*
X49690214Y16712597D01*
X49741154Y16780698D01*
X49897592Y16873572D01*
X49959996Y16885234D01*
X50142131Y16897471D01*
X50321035Y16903180D01*
X50509658Y16905972D01*
X50695167Y16906728D01*
X50881648Y16904529D01*
X51087182Y16897935D01*
X51273016Y16889081D01*
X51472082Y16877174D01*
X51684379Y16862214D01*
X51863744Y16848048D01*
X51909909Y16844201D01*
X52078306Y16777675D01*
X52187201Y16610644D01*
X52205687Y16460252D01*
X52158603Y16267376D01*
X52085153Y16179861D01*
X51922785Y16099261D01*
X51862037Y16093887D01*
G37*
G36*
X54799752Y17106961D02*
G01*
X54859141Y17051319D01*
X54938651Y16875419D01*
X54945481Y16793399D01*
X54942062Y16567963D01*
X54935009Y16366508D01*
X54924110Y16137302D01*
X54912088Y15925097D01*
X54897396Y15693619D01*
X54890771Y15595632D01*
X54875256Y15356727D01*
X54862370Y15137047D01*
X54852115Y14936591D01*
X54843279Y14721421D01*
X54837757Y14505378D01*
X54836915Y14398842D01*
X54837783Y14163529D01*
X54840388Y13948519D01*
X54846085Y13708307D01*
X54854496Y13499819D01*
X54868171Y13291506D01*
X54892480Y13084816D01*
X54899319Y13004704D01*
X54849416Y12812982D01*
X54802721Y12753622D01*
X54648750Y12662753D01*
X54579605Y12654948D01*
X54408512Y12712135D01*
X54315457Y12835688D01*
X54159142Y12747531D01*
X53987023Y12691356D01*
X53976081Y12689142D01*
X53797845Y12663497D01*
X53625314Y12654982D01*
X53613625Y12654948D01*
X53418098Y12668481D01*
X53235434Y12709078D01*
X53065633Y12776741D01*
X52908694Y12871469D01*
X52764618Y12993263D01*
X52719452Y13039875D01*
X52595983Y13194744D01*
X52498059Y13364794D01*
X52425681Y13550026D01*
X52378847Y13750438D01*
X52357560Y13966032D01*
X52356140Y14041271D01*
X52356735Y14055925D01*
X52974197Y14055925D01*
X53005941Y13851003D01*
X53101172Y13671235D01*
X53166538Y13596749D01*
X53319570Y13480062D01*
X53490152Y13417230D01*
X53613625Y13405262D01*
X53784963Y13417946D01*
X53894870Y13450203D01*
X54043294Y13550770D01*
X54115422Y13609449D01*
X54194923Y13685653D01*
X54192448Y13893266D01*
X54192518Y14096821D01*
X54193360Y14322421D01*
X54194612Y14546471D01*
X54194923Y14595213D01*
X54083639Y14752940D01*
X53988049Y14828710D01*
X53819917Y14893152D01*
X53685432Y14905890D01*
X53499462Y14889043D01*
X53325821Y14830807D01*
X53174926Y14718701D01*
X53152006Y14692910D01*
X53050773Y14521992D01*
X52995208Y14322934D01*
X52974892Y14108216D01*
X52974197Y14055925D01*
X52356735Y14055925D01*
X52365052Y14260703D01*
X52391787Y14466539D01*
X52436345Y14658780D01*
X52513342Y14871524D01*
X52616004Y15064689D01*
X52721161Y15210705D01*
X52866209Y15362105D01*
X53026944Y15482181D01*
X53203367Y15570933D01*
X53395478Y15628361D01*
X53567554Y15652289D01*
X53676029Y15656204D01*
X53846785Y15645213D01*
X53998307Y15612241D01*
X54160662Y15540113D01*
X54243649Y15480349D01*
X54251543Y15712853D01*
X54259838Y15926764D01*
X54268533Y16122082D01*
X54279966Y16340083D01*
X54294512Y16563337D01*
X54312622Y16770925D01*
X54318021Y16819777D01*
X54373505Y17011675D01*
X54509401Y17135766D01*
X54630896Y17156832D01*
X54799752Y17106961D01*
G37*
G36*
X56682009Y15648023D02*
G01*
X56866911Y15618638D01*
X57033967Y15567881D01*
X57200575Y15485234D01*
X57342139Y15374531D01*
X57461350Y15218704D01*
X57535148Y15031614D01*
X57563532Y14813261D01*
X57563886Y14783769D01*
X57528936Y14584976D01*
X57436505Y14418280D01*
X57303925Y14279674D01*
X57268108Y14250342D01*
X57113643Y14146902D01*
X56954308Y14056398D01*
X56776687Y13962975D01*
X56726988Y13937712D01*
X55916591Y13530315D01*
X56079546Y13464369D01*
X56195272Y13436525D01*
X56371157Y13413078D01*
X56544341Y13405384D01*
X56570551Y13405262D01*
X56743988Y13418323D01*
X56918298Y13463469D01*
X57087668Y13550377D01*
X57115945Y13570370D01*
X57265353Y13665886D01*
X57436514Y13717893D01*
X57607150Y13658615D01*
X57682230Y13480779D01*
X57686130Y13408193D01*
X57646894Y13202705D01*
X57544487Y13039137D01*
X57400098Y12910742D01*
X57284351Y12838619D01*
X57113755Y12758263D01*
X56937923Y12700866D01*
X56756855Y12666428D01*
X56570551Y12654948D01*
X56396125Y12662605D01*
X56200257Y12692005D01*
X56019056Y12743457D01*
X55852520Y12816958D01*
X55700651Y12912511D01*
X55630216Y12968556D01*
X55493093Y13108576D01*
X55384340Y13268517D01*
X55303957Y13448379D01*
X55251945Y13648162D01*
X55228303Y13867866D01*
X55226727Y13945527D01*
X55234532Y14157680D01*
X55241547Y14218102D01*
X55868719Y14218102D01*
X56038370Y14302691D01*
X56207520Y14386706D01*
X56376169Y14470150D01*
X56409839Y14486770D01*
X56582082Y14579909D01*
X56748878Y14678866D01*
X56902463Y14782208D01*
X56927023Y14800377D01*
X56766999Y14872505D01*
X56585001Y14903314D01*
X56506437Y14905890D01*
X56335183Y14877512D01*
X56174739Y14783479D01*
X56123464Y14733943D01*
X56013509Y14580803D01*
X55927924Y14397941D01*
X55868719Y14218102D01*
X55241547Y14218102D01*
X55257949Y14359385D01*
X55296976Y14550644D01*
X55364416Y14766364D01*
X55454335Y14967040D01*
X55546441Y15122778D01*
X55663623Y15276451D01*
X55820221Y15426477D01*
X55994250Y15538996D01*
X56185710Y15614009D01*
X56358575Y15647869D01*
X56505582Y15656204D01*
X56682009Y15648023D01*
G37*
G36*
X59621564Y15635734D02*
G01*
X59788059Y15587400D01*
X59949896Y15519591D01*
X59968579Y15510636D01*
X60127528Y15419167D01*
X60262351Y15294870D01*
X60331891Y15102261D01*
X60276325Y14931291D01*
X60246192Y14738218D01*
X60238712Y14659693D01*
X60228344Y14458525D01*
X60225889Y14277698D01*
X60228998Y14065428D01*
X60240165Y13856722D01*
X60265543Y13646673D01*
X60290858Y13533245D01*
X60360502Y13354094D01*
X60401133Y13252855D01*
X60471659Y13070161D01*
X60495167Y12987118D01*
X60440350Y12800089D01*
X60397714Y12749714D01*
X60242169Y12662444D01*
X60172889Y12654948D01*
X60007716Y12732537D01*
X59866298Y12856345D01*
X59822400Y12900168D01*
X59663799Y12817690D01*
X59497604Y12742650D01*
X59432588Y12717474D01*
X59259091Y12666916D01*
X59146214Y12654948D01*
X58972414Y12663535D01*
X58782477Y12696508D01*
X58612856Y12754210D01*
X58440642Y12852785D01*
X58296080Y12985019D01*
X58277686Y13006658D01*
X58164768Y13177695D01*
X58079585Y13382204D01*
X58028644Y13584140D01*
X57998080Y13810667D01*
X57988567Y14010007D01*
X58653820Y14010007D01*
X58665090Y13800417D01*
X58708367Y13595253D01*
X58769225Y13462904D01*
X58902774Y13331771D01*
X59073177Y13281816D01*
X59115439Y13280210D01*
X59286648Y13299842D01*
X59397540Y13335897D01*
X59558225Y13426114D01*
X59648866Y13500028D01*
X59624462Y13730758D01*
X59605108Y13938612D01*
X59588909Y14152198D01*
X59578811Y14358171D01*
X59577058Y14466253D01*
X59587316Y14665555D01*
X59612147Y14865838D01*
X59619801Y14916637D01*
X59534316Y14955716D01*
X59471057Y14968416D01*
X59293382Y14945542D01*
X59128689Y14876917D01*
X58976980Y14762543D01*
X58898307Y14679233D01*
X58780123Y14509380D01*
X58700617Y14325153D01*
X58659789Y14126552D01*
X58653820Y14010007D01*
X57988567Y14010007D01*
X57988175Y14018226D01*
X57987892Y14061787D01*
X57998327Y14262629D01*
X58038398Y14491423D01*
X58108523Y14706891D01*
X58208700Y14909033D01*
X58315139Y15067304D01*
X58415317Y15187258D01*
X58553266Y15322355D01*
X58699438Y15434554D01*
X58853833Y15523855D01*
X59016450Y15590259D01*
X59187291Y15633764D01*
X59366354Y15654372D01*
X59440282Y15656204D01*
X59621564Y15635734D01*
G37*
G36*
X62512613Y14718312D02*
G01*
X62340411Y14751410D01*
X62226238Y14891236D01*
X62054106Y14905661D01*
X62028768Y14905890D01*
X61832089Y14900154D01*
X61654061Y14878963D01*
X61486205Y14814116D01*
X61450034Y14742736D01*
X61586276Y14598633D01*
X61756578Y14508263D01*
X61798813Y14488723D01*
X61966260Y14410722D01*
X62134343Y14328142D01*
X62290473Y14244871D01*
X62442515Y14149714D01*
X62595106Y14016663D01*
X62714658Y13849026D01*
X62779032Y13662377D01*
X62791294Y13527384D01*
X62772886Y13326601D01*
X62706769Y13124612D01*
X62592566Y12951932D01*
X62453194Y12824880D01*
X62406612Y12792701D01*
X62242587Y12705079D01*
X62060825Y12642492D01*
X61887232Y12608264D01*
X61700058Y12593204D01*
X61644085Y12592422D01*
X61468642Y12602391D01*
X61284014Y12636852D01*
X61110239Y12695928D01*
X61060223Y12718451D01*
X60902396Y12814133D01*
X60768525Y12962416D01*
X60702647Y13162331D01*
X60699476Y13223546D01*
X60746739Y13422166D01*
X60903350Y13522825D01*
X60985851Y13530315D01*
X61162431Y13493678D01*
X61305565Y13436525D01*
X61470334Y13372412D01*
X61627843Y13342736D01*
X61818161Y13352413D01*
X61994574Y13393294D01*
X62117893Y13532527D01*
X62118527Y13544969D01*
X61998884Y13701862D01*
X61839802Y13790247D01*
X61779152Y13817544D01*
X61606045Y13893920D01*
X61435689Y13972345D01*
X61266669Y14056280D01*
X61144853Y14127244D01*
X60996376Y14254739D01*
X60880047Y14423862D01*
X60817409Y14620187D01*
X60805478Y14766183D01*
X60823479Y14968084D01*
X60889987Y15170383D01*
X61005499Y15336872D01*
X61170017Y15467551D01*
X61317533Y15538968D01*
X61487488Y15590259D01*
X61668192Y15623117D01*
X61846849Y15642351D01*
X62047445Y15653342D01*
X62231367Y15656204D01*
X62405942Y15644111D01*
X62572072Y15591804D01*
X62586985Y15582931D01*
X62711050Y15432530D01*
X62745832Y15238693D01*
X62745987Y15222429D01*
X62734820Y15026000D01*
X62680123Y14829080D01*
X62526971Y14718804D01*
X62512613Y14718312D01*
G37*
D12*
X29577474Y9091500D02*
X29648902Y9067691D01*
X29648902Y9067691D02*
X29767950Y9067691D01*
X29767950Y9067691D02*
X29815569Y9091500D01*
X29815569Y9091500D02*
X29839378Y9115310D01*
X29839378Y9115310D02*
X29863188Y9162929D01*
X29863188Y9162929D02*
X29863188Y9210548D01*
X29863188Y9210548D02*
X29839378Y9258167D01*
X29839378Y9258167D02*
X29815569Y9281977D01*
X29815569Y9281977D02*
X29767950Y9305786D01*
X29767950Y9305786D02*
X29672712Y9329596D01*
X29672712Y9329596D02*
X29625093Y9353405D01*
X29625093Y9353405D02*
X29601283Y9377215D01*
X29601283Y9377215D02*
X29577474Y9424834D01*
X29577474Y9424834D02*
X29577474Y9472453D01*
X29577474Y9472453D02*
X29601283Y9520072D01*
X29601283Y9520072D02*
X29625093Y9543881D01*
X29625093Y9543881D02*
X29672712Y9567691D01*
X29672712Y9567691D02*
X29791759Y9567691D01*
X29791759Y9567691D02*
X29863188Y9543881D01*
X30077473Y9067691D02*
X30077473Y9567691D01*
X30291759Y9067691D02*
X30291759Y9329596D01*
X30291759Y9329596D02*
X30267949Y9377215D01*
X30267949Y9377215D02*
X30220330Y9401024D01*
X30220330Y9401024D02*
X30148902Y9401024D01*
X30148902Y9401024D02*
X30101283Y9377215D01*
X30101283Y9377215D02*
X30077473Y9353405D01*
X30744140Y9067691D02*
X30744140Y9329596D01*
X30744140Y9329596D02*
X30720330Y9377215D01*
X30720330Y9377215D02*
X30672711Y9401024D01*
X30672711Y9401024D02*
X30577473Y9401024D01*
X30577473Y9401024D02*
X30529854Y9377215D01*
X30744140Y9091500D02*
X30696521Y9067691D01*
X30696521Y9067691D02*
X30577473Y9067691D01*
X30577473Y9067691D02*
X30529854Y9091500D01*
X30529854Y9091500D02*
X30506045Y9139120D01*
X30506045Y9139120D02*
X30506045Y9186739D01*
X30506045Y9186739D02*
X30529854Y9234358D01*
X30529854Y9234358D02*
X30577473Y9258167D01*
X30577473Y9258167D02*
X30696521Y9258167D01*
X30696521Y9258167D02*
X30744140Y9281977D01*
X31053664Y9067691D02*
X31006045Y9091500D01*
X31006045Y9091500D02*
X30982235Y9115310D01*
X30982235Y9115310D02*
X30958426Y9162929D01*
X30958426Y9162929D02*
X30958426Y9305786D01*
X30958426Y9305786D02*
X30982235Y9353405D01*
X30982235Y9353405D02*
X31006045Y9377215D01*
X31006045Y9377215D02*
X31053664Y9401024D01*
X31053664Y9401024D02*
X31125092Y9401024D01*
X31125092Y9401024D02*
X31172711Y9377215D01*
X31172711Y9377215D02*
X31196521Y9353405D01*
X31196521Y9353405D02*
X31220330Y9305786D01*
X31220330Y9305786D02*
X31220330Y9162929D01*
X31220330Y9162929D02*
X31196521Y9115310D01*
X31196521Y9115310D02*
X31172711Y9091500D01*
X31172711Y9091500D02*
X31125092Y9067691D01*
X31125092Y9067691D02*
X31053664Y9067691D01*
X32101282Y9067691D02*
X31934616Y9305786D01*
X31815568Y9067691D02*
X31815568Y9567691D01*
X31815568Y9567691D02*
X32006044Y9567691D01*
X32006044Y9567691D02*
X32053663Y9543881D01*
X32053663Y9543881D02*
X32077473Y9520072D01*
X32077473Y9520072D02*
X32101282Y9472453D01*
X32101282Y9472453D02*
X32101282Y9401024D01*
X32101282Y9401024D02*
X32077473Y9353405D01*
X32077473Y9353405D02*
X32053663Y9329596D01*
X32053663Y9329596D02*
X32006044Y9305786D01*
X32006044Y9305786D02*
X31815568Y9305786D01*
X32386997Y9067691D02*
X32339378Y9091500D01*
X32339378Y9091500D02*
X32315568Y9115310D01*
X32315568Y9115310D02*
X32291759Y9162929D01*
X32291759Y9162929D02*
X32291759Y9305786D01*
X32291759Y9305786D02*
X32315568Y9353405D01*
X32315568Y9353405D02*
X32339378Y9377215D01*
X32339378Y9377215D02*
X32386997Y9401024D01*
X32386997Y9401024D02*
X32458425Y9401024D01*
X32458425Y9401024D02*
X32506044Y9377215D01*
X32506044Y9377215D02*
X32529854Y9353405D01*
X32529854Y9353405D02*
X32553663Y9305786D01*
X32553663Y9305786D02*
X32553663Y9162929D01*
X32553663Y9162929D02*
X32529854Y9115310D01*
X32529854Y9115310D02*
X32506044Y9091500D01*
X32506044Y9091500D02*
X32458425Y9067691D01*
X32458425Y9067691D02*
X32386997Y9067691D01*
X32767949Y9401024D02*
X32767949Y9067691D01*
X32767949Y9353405D02*
X32791759Y9377215D01*
X32791759Y9377215D02*
X32839378Y9401024D01*
X32839378Y9401024D02*
X32910806Y9401024D01*
X32910806Y9401024D02*
X32958425Y9377215D01*
X32958425Y9377215D02*
X32982235Y9329596D01*
X32982235Y9329596D02*
X32982235Y9067691D01*
X33434616Y9401024D02*
X33434616Y8996262D01*
X33434616Y8996262D02*
X33410806Y8948643D01*
X33410806Y8948643D02*
X33386997Y8924834D01*
X33386997Y8924834D02*
X33339378Y8901024D01*
X33339378Y8901024D02*
X33267949Y8901024D01*
X33267949Y8901024D02*
X33220330Y8924834D01*
X33434616Y9091500D02*
X33386997Y9067691D01*
X33386997Y9067691D02*
X33291759Y9067691D01*
X33291759Y9067691D02*
X33244140Y9091500D01*
X33244140Y9091500D02*
X33220330Y9115310D01*
X33220330Y9115310D02*
X33196521Y9162929D01*
X33196521Y9162929D02*
X33196521Y9305786D01*
X33196521Y9305786D02*
X33220330Y9353405D01*
X33220330Y9353405D02*
X33244140Y9377215D01*
X33244140Y9377215D02*
X33291759Y9401024D01*
X33291759Y9401024D02*
X33386997Y9401024D01*
X33386997Y9401024D02*
X33434616Y9377215D01*
X34029854Y9091500D02*
X34101282Y9067691D01*
X34101282Y9067691D02*
X34220330Y9067691D01*
X34220330Y9067691D02*
X34267949Y9091500D01*
X34267949Y9091500D02*
X34291758Y9115310D01*
X34291758Y9115310D02*
X34315568Y9162929D01*
X34315568Y9162929D02*
X34315568Y9210548D01*
X34315568Y9210548D02*
X34291758Y9258167D01*
X34291758Y9258167D02*
X34267949Y9281977D01*
X34267949Y9281977D02*
X34220330Y9305786D01*
X34220330Y9305786D02*
X34125092Y9329596D01*
X34125092Y9329596D02*
X34077473Y9353405D01*
X34077473Y9353405D02*
X34053663Y9377215D01*
X34053663Y9377215D02*
X34029854Y9424834D01*
X34029854Y9424834D02*
X34029854Y9472453D01*
X34029854Y9472453D02*
X34053663Y9520072D01*
X34053663Y9520072D02*
X34077473Y9543881D01*
X34077473Y9543881D02*
X34125092Y9567691D01*
X34125092Y9567691D02*
X34244139Y9567691D01*
X34244139Y9567691D02*
X34315568Y9543881D01*
X34529853Y9067691D02*
X34529853Y9567691D01*
X34744139Y9067691D02*
X34744139Y9329596D01*
X34744139Y9329596D02*
X34720329Y9377215D01*
X34720329Y9377215D02*
X34672710Y9401024D01*
X34672710Y9401024D02*
X34601282Y9401024D01*
X34601282Y9401024D02*
X34553663Y9377215D01*
X34553663Y9377215D02*
X34529853Y9353405D01*
X34982234Y9067691D02*
X34982234Y9401024D01*
X34982234Y9567691D02*
X34958425Y9543881D01*
X34958425Y9543881D02*
X34982234Y9520072D01*
X34982234Y9520072D02*
X35006044Y9543881D01*
X35006044Y9543881D02*
X34982234Y9567691D01*
X34982234Y9567691D02*
X34982234Y9520072D01*
X35410805Y9091500D02*
X35363186Y9067691D01*
X35363186Y9067691D02*
X35267948Y9067691D01*
X35267948Y9067691D02*
X35220329Y9091500D01*
X35220329Y9091500D02*
X35196520Y9139120D01*
X35196520Y9139120D02*
X35196520Y9329596D01*
X35196520Y9329596D02*
X35220329Y9377215D01*
X35220329Y9377215D02*
X35267948Y9401024D01*
X35267948Y9401024D02*
X35363186Y9401024D01*
X35363186Y9401024D02*
X35410805Y9377215D01*
X35410805Y9377215D02*
X35434615Y9329596D01*
X35434615Y9329596D02*
X35434615Y9281977D01*
X35434615Y9281977D02*
X35196520Y9234358D01*
X35720329Y9067691D02*
X35672710Y9091500D01*
X35672710Y9091500D02*
X35648900Y9139120D01*
X35648900Y9139120D02*
X35648900Y9567691D01*
X36125091Y9067691D02*
X36125091Y9567691D01*
X36125091Y9091500D02*
X36077472Y9067691D01*
X36077472Y9067691D02*
X35982234Y9067691D01*
X35982234Y9067691D02*
X35934615Y9091500D01*
X35934615Y9091500D02*
X35910805Y9115310D01*
X35910805Y9115310D02*
X35886996Y9162929D01*
X35886996Y9162929D02*
X35886996Y9305786D01*
X35886996Y9305786D02*
X35910805Y9353405D01*
X35910805Y9353405D02*
X35934615Y9377215D01*
X35934615Y9377215D02*
X35982234Y9401024D01*
X35982234Y9401024D02*
X36077472Y9401024D01*
X36077472Y9401024D02*
X36125091Y9377215D01*
X36672710Y9567691D02*
X36839376Y9067691D01*
X36839376Y9067691D02*
X37006043Y9567691D01*
X37434614Y9067691D02*
X37148900Y9067691D01*
X37291757Y9067691D02*
X37291757Y9567691D01*
X37291757Y9567691D02*
X37244138Y9496262D01*
X37244138Y9496262D02*
X37196519Y9448643D01*
X37196519Y9448643D02*
X37148900Y9424834D01*
D10*
X46082200Y26803572D02*
X46129819Y26946429D01*
X46129819Y26946429D02*
X46129819Y27184524D01*
X46129819Y27184524D02*
X46082200Y27279762D01*
X46082200Y27279762D02*
X46034580Y27327381D01*
X46034580Y27327381D02*
X45939342Y27375000D01*
X45939342Y27375000D02*
X45844104Y27375000D01*
X45844104Y27375000D02*
X45748866Y27327381D01*
X45748866Y27327381D02*
X45701247Y27279762D01*
X45701247Y27279762D02*
X45653628Y27184524D01*
X45653628Y27184524D02*
X45606009Y26994048D01*
X45606009Y26994048D02*
X45558390Y26898810D01*
X45558390Y26898810D02*
X45510771Y26851191D01*
X45510771Y26851191D02*
X45415533Y26803572D01*
X45415533Y26803572D02*
X45320295Y26803572D01*
X45320295Y26803572D02*
X45225057Y26851191D01*
X45225057Y26851191D02*
X45177438Y26898810D01*
X45177438Y26898810D02*
X45129819Y26994048D01*
X45129819Y26994048D02*
X45129819Y27232143D01*
X45129819Y27232143D02*
X45177438Y27375000D01*
X46129819Y27803572D02*
X45129819Y27803572D01*
X45129819Y27803572D02*
X45129819Y28184524D01*
X45129819Y28184524D02*
X45177438Y28279762D01*
X45177438Y28279762D02*
X45225057Y28327381D01*
X45225057Y28327381D02*
X45320295Y28375000D01*
X45320295Y28375000D02*
X45463152Y28375000D01*
X45463152Y28375000D02*
X45558390Y28327381D01*
X45558390Y28327381D02*
X45606009Y28279762D01*
X45606009Y28279762D02*
X45653628Y28184524D01*
X45653628Y28184524D02*
X45653628Y27803572D01*
X45844104Y28755953D02*
X45844104Y29232143D01*
X46129819Y28660715D02*
X45129819Y28994048D01*
X45129819Y28994048D02*
X46129819Y29327381D01*
X46129819Y30232143D02*
X45653628Y29898810D01*
X46129819Y29660715D02*
X45129819Y29660715D01*
X45129819Y29660715D02*
X45129819Y30041667D01*
X45129819Y30041667D02*
X45177438Y30136905D01*
X45177438Y30136905D02*
X45225057Y30184524D01*
X45225057Y30184524D02*
X45320295Y30232143D01*
X45320295Y30232143D02*
X45463152Y30232143D01*
X45463152Y30232143D02*
X45558390Y30184524D01*
X45558390Y30184524D02*
X45606009Y30136905D01*
X45606009Y30136905D02*
X45653628Y30041667D01*
X45653628Y30041667D02*
X45653628Y29660715D01*
X45606009Y30660715D02*
X45606009Y30994048D01*
X46129819Y31136905D02*
X46129819Y30660715D01*
X46129819Y30660715D02*
X45129819Y30660715D01*
X45129819Y30660715D02*
X45129819Y31136905D01*
X46129819Y32089286D02*
X46129819Y31517858D01*
X46129819Y31803572D02*
X45129819Y31803572D01*
X45129819Y31803572D02*
X45272676Y31708334D01*
X45272676Y31708334D02*
X45367914Y31613096D01*
X45367914Y31613096D02*
X45415533Y31517858D01*
X17757200Y26778573D02*
X17804819Y26921430D01*
X17804819Y26921430D02*
X17804819Y27159525D01*
X17804819Y27159525D02*
X17757200Y27254763D01*
X17757200Y27254763D02*
X17709580Y27302382D01*
X17709580Y27302382D02*
X17614342Y27350001D01*
X17614342Y27350001D02*
X17519104Y27350001D01*
X17519104Y27350001D02*
X17423866Y27302382D01*
X17423866Y27302382D02*
X17376247Y27254763D01*
X17376247Y27254763D02*
X17328628Y27159525D01*
X17328628Y27159525D02*
X17281009Y26969049D01*
X17281009Y26969049D02*
X17233390Y26873811D01*
X17233390Y26873811D02*
X17185771Y26826192D01*
X17185771Y26826192D02*
X17090533Y26778573D01*
X17090533Y26778573D02*
X16995295Y26778573D01*
X16995295Y26778573D02*
X16900057Y26826192D01*
X16900057Y26826192D02*
X16852438Y26873811D01*
X16852438Y26873811D02*
X16804819Y26969049D01*
X16804819Y26969049D02*
X16804819Y27207144D01*
X16804819Y27207144D02*
X16852438Y27350001D01*
X16804819Y27635716D02*
X16804819Y28207144D01*
X17804819Y27921430D02*
X16804819Y27921430D01*
X17281009Y28540478D02*
X17281009Y28873811D01*
X17804819Y29016668D02*
X17804819Y28540478D01*
X17804819Y28540478D02*
X16804819Y28540478D01*
X16804819Y28540478D02*
X16804819Y29016668D01*
X17804819Y29445240D02*
X16804819Y29445240D01*
X16804819Y29445240D02*
X16804819Y29826192D01*
X16804819Y29826192D02*
X16852438Y29921430D01*
X16852438Y29921430D02*
X16900057Y29969049D01*
X16900057Y29969049D02*
X16995295Y30016668D01*
X16995295Y30016668D02*
X17138152Y30016668D01*
X17138152Y30016668D02*
X17233390Y29969049D01*
X17233390Y29969049D02*
X17281009Y29921430D01*
X17281009Y29921430D02*
X17328628Y29826192D01*
X17328628Y29826192D02*
X17328628Y29445240D01*
X17804819Y30445240D02*
X16804819Y30445240D01*
X16804819Y30445240D02*
X16804819Y30826192D01*
X16804819Y30826192D02*
X16852438Y30921430D01*
X16852438Y30921430D02*
X16900057Y30969049D01*
X16900057Y30969049D02*
X16995295Y31016668D01*
X16995295Y31016668D02*
X17138152Y31016668D01*
X17138152Y31016668D02*
X17233390Y30969049D01*
X17233390Y30969049D02*
X17281009Y30921430D01*
X17281009Y30921430D02*
X17328628Y30826192D01*
X17328628Y30826192D02*
X17328628Y30445240D01*
X17281009Y31445240D02*
X17281009Y31778573D01*
X17804819Y31921430D02*
X17804819Y31445240D01*
X17804819Y31445240D02*
X16804819Y31445240D01*
X16804819Y31445240D02*
X16804819Y31921430D01*
X17804819Y32921430D02*
X17328628Y32588097D01*
X17804819Y32350002D02*
X16804819Y32350002D01*
X16804819Y32350002D02*
X16804819Y32730954D01*
X16804819Y32730954D02*
X16852438Y32826192D01*
X16852438Y32826192D02*
X16900057Y32873811D01*
X16900057Y32873811D02*
X16995295Y32921430D01*
X16995295Y32921430D02*
X17138152Y32921430D01*
X17138152Y32921430D02*
X17233390Y32873811D01*
X17233390Y32873811D02*
X17281009Y32826192D01*
X17281009Y32826192D02*
X17328628Y32730954D01*
X17328628Y32730954D02*
X17328628Y32350002D01*
X17804819Y34111907D02*
X16804819Y34111907D01*
X16804819Y34111907D02*
X17519104Y34445240D01*
X17519104Y34445240D02*
X16804819Y34778573D01*
X16804819Y34778573D02*
X17804819Y34778573D01*
X16804819Y35445240D02*
X16804819Y35635716D01*
X16804819Y35635716D02*
X16852438Y35730954D01*
X16852438Y35730954D02*
X16947676Y35826192D01*
X16947676Y35826192D02*
X17138152Y35873811D01*
X17138152Y35873811D02*
X17471485Y35873811D01*
X17471485Y35873811D02*
X17661961Y35826192D01*
X17661961Y35826192D02*
X17757200Y35730954D01*
X17757200Y35730954D02*
X17804819Y35635716D01*
X17804819Y35635716D02*
X17804819Y35445240D01*
X17804819Y35445240D02*
X17757200Y35350002D01*
X17757200Y35350002D02*
X17661961Y35254764D01*
X17661961Y35254764D02*
X17471485Y35207145D01*
X17471485Y35207145D02*
X17138152Y35207145D01*
X17138152Y35207145D02*
X16947676Y35254764D01*
X16947676Y35254764D02*
X16852438Y35350002D01*
X16852438Y35350002D02*
X16804819Y35445240D01*
X16804819Y36159526D02*
X16804819Y36730954D01*
X17804819Y36445240D02*
X16804819Y36445240D01*
X16804819Y37254764D02*
X16804819Y37445240D01*
X16804819Y37445240D02*
X16852438Y37540478D01*
X16852438Y37540478D02*
X16947676Y37635716D01*
X16947676Y37635716D02*
X17138152Y37683335D01*
X17138152Y37683335D02*
X17471485Y37683335D01*
X17471485Y37683335D02*
X17661961Y37635716D01*
X17661961Y37635716D02*
X17757200Y37540478D01*
X17757200Y37540478D02*
X17804819Y37445240D01*
X17804819Y37445240D02*
X17804819Y37254764D01*
X17804819Y37254764D02*
X17757200Y37159526D01*
X17757200Y37159526D02*
X17661961Y37064288D01*
X17661961Y37064288D02*
X17471485Y37016669D01*
X17471485Y37016669D02*
X17138152Y37016669D01*
X17138152Y37016669D02*
X16947676Y37064288D01*
X16947676Y37064288D02*
X16852438Y37159526D01*
X16852438Y37159526D02*
X16804819Y37254764D01*
X17804819Y38683335D02*
X17328628Y38350002D01*
X17804819Y38111907D02*
X16804819Y38111907D01*
X16804819Y38111907D02*
X16804819Y38492859D01*
X16804819Y38492859D02*
X16852438Y38588097D01*
X16852438Y38588097D02*
X16900057Y38635716D01*
X16900057Y38635716D02*
X16995295Y38683335D01*
X16995295Y38683335D02*
X17138152Y38683335D01*
X17138152Y38683335D02*
X17233390Y38635716D01*
X17233390Y38635716D02*
X17281009Y38588097D01*
X17281009Y38588097D02*
X17328628Y38492859D01*
X17328628Y38492859D02*
X17328628Y38111907D01*
X26866485Y9903572D02*
X26914104Y10046429D01*
X26914104Y10046429D02*
X26914104Y10284524D01*
X26914104Y10284524D02*
X26866485Y10379762D01*
X26866485Y10379762D02*
X26818865Y10427381D01*
X26818865Y10427381D02*
X26723627Y10475000D01*
X26723627Y10475000D02*
X26628389Y10475000D01*
X26628389Y10475000D02*
X26533151Y10427381D01*
X26533151Y10427381D02*
X26485532Y10379762D01*
X26485532Y10379762D02*
X26437913Y10284524D01*
X26437913Y10284524D02*
X26390294Y10094048D01*
X26390294Y10094048D02*
X26342675Y9998810D01*
X26342675Y9998810D02*
X26295056Y9951191D01*
X26295056Y9951191D02*
X26199818Y9903572D01*
X26199818Y9903572D02*
X26104580Y9903572D01*
X26104580Y9903572D02*
X26009342Y9951191D01*
X26009342Y9951191D02*
X25961723Y9998810D01*
X25961723Y9998810D02*
X25914104Y10094048D01*
X25914104Y10094048D02*
X25914104Y10332143D01*
X25914104Y10332143D02*
X25961723Y10475000D01*
X26914104Y10903572D02*
X25914104Y10903572D01*
X25914104Y10903572D02*
X25914104Y11284524D01*
X25914104Y11284524D02*
X25961723Y11379762D01*
X25961723Y11379762D02*
X26009342Y11427381D01*
X26009342Y11427381D02*
X26104580Y11475000D01*
X26104580Y11475000D02*
X26247437Y11475000D01*
X26247437Y11475000D02*
X26342675Y11427381D01*
X26342675Y11427381D02*
X26390294Y11379762D01*
X26390294Y11379762D02*
X26437913Y11284524D01*
X26437913Y11284524D02*
X26437913Y10903572D01*
X26628389Y11855953D02*
X26628389Y12332143D01*
X26914104Y11760715D02*
X25914104Y12094048D01*
X25914104Y12094048D02*
X26914104Y12427381D01*
X26914104Y13332143D02*
X26437913Y12998810D01*
X26914104Y12760715D02*
X25914104Y12760715D01*
X25914104Y12760715D02*
X25914104Y13141667D01*
X25914104Y13141667D02*
X25961723Y13236905D01*
X25961723Y13236905D02*
X26009342Y13284524D01*
X26009342Y13284524D02*
X26104580Y13332143D01*
X26104580Y13332143D02*
X26247437Y13332143D01*
X26247437Y13332143D02*
X26342675Y13284524D01*
X26342675Y13284524D02*
X26390294Y13236905D01*
X26390294Y13236905D02*
X26437913Y13141667D01*
X26437913Y13141667D02*
X26437913Y12760715D01*
X26390294Y13760715D02*
X26390294Y14094048D01*
X26914104Y14236905D02*
X26914104Y13760715D01*
X26914104Y13760715D02*
X25914104Y13760715D01*
X25914104Y13760715D02*
X25914104Y14236905D01*
X26009342Y14617858D02*
X25961723Y14665477D01*
X25961723Y14665477D02*
X25914104Y14760715D01*
X25914104Y14760715D02*
X25914104Y14998810D01*
X25914104Y14998810D02*
X25961723Y15094048D01*
X25961723Y15094048D02*
X26009342Y15141667D01*
X26009342Y15141667D02*
X26104580Y15189286D01*
X26104580Y15189286D02*
X26199818Y15189286D01*
X26199818Y15189286D02*
X26342675Y15141667D01*
X26342675Y15141667D02*
X26914104Y14570239D01*
X26914104Y14570239D02*
X26914104Y15189286D01*
X36023389Y26826192D02*
X35023389Y26826192D01*
X36023389Y27397620D02*
X35451960Y26969049D01*
X35023389Y27397620D02*
X35594817Y26826192D01*
X35499579Y27826192D02*
X35499579Y28159525D01*
X36023389Y28302382D02*
X36023389Y27826192D01*
X36023389Y27826192D02*
X35023389Y27826192D01*
X35023389Y27826192D02*
X35023389Y28302382D01*
X35547198Y28921430D02*
X36023389Y28921430D01*
X35023389Y28588097D02*
X35547198Y28921430D01*
X35547198Y28921430D02*
X35023389Y29254763D01*
X35499579Y29921430D02*
X35547198Y30064287D01*
X35547198Y30064287D02*
X35594817Y30111906D01*
X35594817Y30111906D02*
X35690055Y30159525D01*
X35690055Y30159525D02*
X35832912Y30159525D01*
X35832912Y30159525D02*
X35928150Y30111906D01*
X35928150Y30111906D02*
X35975770Y30064287D01*
X35975770Y30064287D02*
X36023389Y29969049D01*
X36023389Y29969049D02*
X36023389Y29588097D01*
X36023389Y29588097D02*
X35023389Y29588097D01*
X35023389Y29588097D02*
X35023389Y29921430D01*
X35023389Y29921430D02*
X35071008Y30016668D01*
X35071008Y30016668D02*
X35118627Y30064287D01*
X35118627Y30064287D02*
X35213865Y30111906D01*
X35213865Y30111906D02*
X35309103Y30111906D01*
X35309103Y30111906D02*
X35404341Y30064287D01*
X35404341Y30064287D02*
X35451960Y30016668D01*
X35451960Y30016668D02*
X35499579Y29921430D01*
X35499579Y29921430D02*
X35499579Y29588097D01*
X35023389Y30778573D02*
X35023389Y30969049D01*
X35023389Y30969049D02*
X35071008Y31064287D01*
X35071008Y31064287D02*
X35166246Y31159525D01*
X35166246Y31159525D02*
X35356722Y31207144D01*
X35356722Y31207144D02*
X35690055Y31207144D01*
X35690055Y31207144D02*
X35880531Y31159525D01*
X35880531Y31159525D02*
X35975770Y31064287D01*
X35975770Y31064287D02*
X36023389Y30969049D01*
X36023389Y30969049D02*
X36023389Y30778573D01*
X36023389Y30778573D02*
X35975770Y30683335D01*
X35975770Y30683335D02*
X35880531Y30588097D01*
X35880531Y30588097D02*
X35690055Y30540478D01*
X35690055Y30540478D02*
X35356722Y30540478D01*
X35356722Y30540478D02*
X35166246Y30588097D01*
X35166246Y30588097D02*
X35071008Y30683335D01*
X35071008Y30683335D02*
X35023389Y30778573D01*
X35737674Y31588097D02*
X35737674Y32064287D01*
X36023389Y31492859D02*
X35023389Y31826192D01*
X35023389Y31826192D02*
X36023389Y32159525D01*
X36023389Y33064287D02*
X35547198Y32730954D01*
X36023389Y32492859D02*
X35023389Y32492859D01*
X35023389Y32492859D02*
X35023389Y32873811D01*
X35023389Y32873811D02*
X35071008Y32969049D01*
X35071008Y32969049D02*
X35118627Y33016668D01*
X35118627Y33016668D02*
X35213865Y33064287D01*
X35213865Y33064287D02*
X35356722Y33064287D01*
X35356722Y33064287D02*
X35451960Y33016668D01*
X35451960Y33016668D02*
X35499579Y32969049D01*
X35499579Y32969049D02*
X35547198Y32873811D01*
X35547198Y32873811D02*
X35547198Y32492859D01*
X36023389Y33492859D02*
X35023389Y33492859D01*
X35023389Y33492859D02*
X35023389Y33730954D01*
X35023389Y33730954D02*
X35071008Y33873811D01*
X35071008Y33873811D02*
X35166246Y33969049D01*
X35166246Y33969049D02*
X35261484Y34016668D01*
X35261484Y34016668D02*
X35451960Y34064287D01*
X35451960Y34064287D02*
X35594817Y34064287D01*
X35594817Y34064287D02*
X35785293Y34016668D01*
X35785293Y34016668D02*
X35880531Y33969049D01*
X35880531Y33969049D02*
X35975770Y33873811D01*
X35975770Y33873811D02*
X36023389Y33730954D01*
X36023389Y33730954D02*
X36023389Y33492859D01*
X17804819Y10427381D02*
X17804819Y9951191D01*
X17804819Y9951191D02*
X16804819Y9951191D01*
X17709580Y11332143D02*
X17757200Y11284524D01*
X17757200Y11284524D02*
X17804819Y11141667D01*
X17804819Y11141667D02*
X17804819Y11046429D01*
X17804819Y11046429D02*
X17757200Y10903572D01*
X17757200Y10903572D02*
X17661961Y10808334D01*
X17661961Y10808334D02*
X17566723Y10760715D01*
X17566723Y10760715D02*
X17376247Y10713096D01*
X17376247Y10713096D02*
X17233390Y10713096D01*
X17233390Y10713096D02*
X17042914Y10760715D01*
X17042914Y10760715D02*
X16947676Y10808334D01*
X16947676Y10808334D02*
X16852438Y10903572D01*
X16852438Y10903572D02*
X16804819Y11046429D01*
X16804819Y11046429D02*
X16804819Y11141667D01*
X16804819Y11141667D02*
X16852438Y11284524D01*
X16852438Y11284524D02*
X16900057Y11332143D01*
X17804819Y11760715D02*
X16804819Y11760715D01*
X16804819Y11760715D02*
X16804819Y11998810D01*
X16804819Y11998810D02*
X16852438Y12141667D01*
X16852438Y12141667D02*
X16947676Y12236905D01*
X16947676Y12236905D02*
X17042914Y12284524D01*
X17042914Y12284524D02*
X17233390Y12332143D01*
X17233390Y12332143D02*
X17376247Y12332143D01*
X17376247Y12332143D02*
X17566723Y12284524D01*
X17566723Y12284524D02*
X17661961Y12236905D01*
X17661961Y12236905D02*
X17757200Y12141667D01*
X17757200Y12141667D02*
X17804819Y11998810D01*
X17804819Y11998810D02*
X17804819Y11760715D01*
X25914104Y26683334D02*
X26914104Y27016667D01*
X26914104Y27016667D02*
X25914104Y27350000D01*
X26914104Y27683334D02*
X25914104Y27683334D01*
X26390294Y28492857D02*
X26437913Y28635714D01*
X26437913Y28635714D02*
X26485532Y28683333D01*
X26485532Y28683333D02*
X26580770Y28730952D01*
X26580770Y28730952D02*
X26723627Y28730952D01*
X26723627Y28730952D02*
X26818865Y28683333D01*
X26818865Y28683333D02*
X26866485Y28635714D01*
X26866485Y28635714D02*
X26914104Y28540476D01*
X26914104Y28540476D02*
X26914104Y28159524D01*
X26914104Y28159524D02*
X25914104Y28159524D01*
X25914104Y28159524D02*
X25914104Y28492857D01*
X25914104Y28492857D02*
X25961723Y28588095D01*
X25961723Y28588095D02*
X26009342Y28635714D01*
X26009342Y28635714D02*
X26104580Y28683333D01*
X26104580Y28683333D02*
X26199818Y28683333D01*
X26199818Y28683333D02*
X26295056Y28635714D01*
X26295056Y28635714D02*
X26342675Y28588095D01*
X26342675Y28588095D02*
X26390294Y28492857D01*
X26390294Y28492857D02*
X26390294Y28159524D01*
X26914104Y29730952D02*
X26437913Y29397619D01*
X26914104Y29159524D02*
X25914104Y29159524D01*
X25914104Y29159524D02*
X25914104Y29540476D01*
X25914104Y29540476D02*
X25961723Y29635714D01*
X25961723Y29635714D02*
X26009342Y29683333D01*
X26009342Y29683333D02*
X26104580Y29730952D01*
X26104580Y29730952D02*
X26247437Y29730952D01*
X26247437Y29730952D02*
X26342675Y29683333D01*
X26342675Y29683333D02*
X26390294Y29635714D01*
X26390294Y29635714D02*
X26437913Y29540476D01*
X26437913Y29540476D02*
X26437913Y29159524D01*
X26628389Y30111905D02*
X26628389Y30588095D01*
X26914104Y30016667D02*
X25914104Y30350000D01*
X25914104Y30350000D02*
X26914104Y30683333D01*
X25914104Y30873810D02*
X25914104Y31445238D01*
X26914104Y31159524D02*
X25914104Y31159524D01*
X26914104Y31778572D02*
X25914104Y31778572D01*
X25914104Y32445238D02*
X25914104Y32635714D01*
X25914104Y32635714D02*
X25961723Y32730952D01*
X25961723Y32730952D02*
X26056961Y32826190D01*
X26056961Y32826190D02*
X26247437Y32873809D01*
X26247437Y32873809D02*
X26580770Y32873809D01*
X26580770Y32873809D02*
X26771246Y32826190D01*
X26771246Y32826190D02*
X26866485Y32730952D01*
X26866485Y32730952D02*
X26914104Y32635714D01*
X26914104Y32635714D02*
X26914104Y32445238D01*
X26914104Y32445238D02*
X26866485Y32350000D01*
X26866485Y32350000D02*
X26771246Y32254762D01*
X26771246Y32254762D02*
X26580770Y32207143D01*
X26580770Y32207143D02*
X26247437Y32207143D01*
X26247437Y32207143D02*
X26056961Y32254762D01*
X26056961Y32254762D02*
X25961723Y32350000D01*
X25961723Y32350000D02*
X25914104Y32445238D01*
X26914104Y33302381D02*
X25914104Y33302381D01*
X25914104Y33302381D02*
X26914104Y33873809D01*
X26914104Y33873809D02*
X25914104Y33873809D01*
X26914104Y35111905D02*
X25914104Y35111905D01*
X25914104Y35111905D02*
X26628389Y35445238D01*
X26628389Y35445238D02*
X25914104Y35778571D01*
X25914104Y35778571D02*
X26914104Y35778571D01*
X25914104Y36445238D02*
X25914104Y36635714D01*
X25914104Y36635714D02*
X25961723Y36730952D01*
X25961723Y36730952D02*
X26056961Y36826190D01*
X26056961Y36826190D02*
X26247437Y36873809D01*
X26247437Y36873809D02*
X26580770Y36873809D01*
X26580770Y36873809D02*
X26771246Y36826190D01*
X26771246Y36826190D02*
X26866485Y36730952D01*
X26866485Y36730952D02*
X26914104Y36635714D01*
X26914104Y36635714D02*
X26914104Y36445238D01*
X26914104Y36445238D02*
X26866485Y36350000D01*
X26866485Y36350000D02*
X26771246Y36254762D01*
X26771246Y36254762D02*
X26580770Y36207143D01*
X26580770Y36207143D02*
X26247437Y36207143D01*
X26247437Y36207143D02*
X26056961Y36254762D01*
X26056961Y36254762D02*
X25961723Y36350000D01*
X25961723Y36350000D02*
X25914104Y36445238D01*
X25914104Y37159524D02*
X25914104Y37730952D01*
X26914104Y37445238D02*
X25914104Y37445238D01*
X25914104Y38254762D02*
X25914104Y38445238D01*
X25914104Y38445238D02*
X25961723Y38540476D01*
X25961723Y38540476D02*
X26056961Y38635714D01*
X26056961Y38635714D02*
X26247437Y38683333D01*
X26247437Y38683333D02*
X26580770Y38683333D01*
X26580770Y38683333D02*
X26771246Y38635714D01*
X26771246Y38635714D02*
X26866485Y38540476D01*
X26866485Y38540476D02*
X26914104Y38445238D01*
X26914104Y38445238D02*
X26914104Y38254762D01*
X26914104Y38254762D02*
X26866485Y38159524D01*
X26866485Y38159524D02*
X26771246Y38064286D01*
X26771246Y38064286D02*
X26580770Y38016667D01*
X26580770Y38016667D02*
X26247437Y38016667D01*
X26247437Y38016667D02*
X26056961Y38064286D01*
X26056961Y38064286D02*
X25961723Y38159524D01*
X25961723Y38159524D02*
X25914104Y38254762D01*
X26914104Y39683333D02*
X26437913Y39350000D01*
X26914104Y39111905D02*
X25914104Y39111905D01*
X25914104Y39111905D02*
X25914104Y39492857D01*
X25914104Y39492857D02*
X25961723Y39588095D01*
X25961723Y39588095D02*
X26009342Y39635714D01*
X26009342Y39635714D02*
X26104580Y39683333D01*
X26104580Y39683333D02*
X26247437Y39683333D01*
X26247437Y39683333D02*
X26342675Y39635714D01*
X26342675Y39635714D02*
X26390294Y39588095D01*
X26390294Y39588095D02*
X26437913Y39492857D01*
X26437913Y39492857D02*
X26437913Y39111905D01*
X55429819Y27447619D02*
X54953628Y27114286D01*
X55429819Y26876191D02*
X54429819Y26876191D01*
X54429819Y26876191D02*
X54429819Y27257143D01*
X54429819Y27257143D02*
X54477438Y27352381D01*
X54477438Y27352381D02*
X54525057Y27400000D01*
X54525057Y27400000D02*
X54620295Y27447619D01*
X54620295Y27447619D02*
X54763152Y27447619D01*
X54763152Y27447619D02*
X54858390Y27400000D01*
X54858390Y27400000D02*
X54906009Y27352381D01*
X54906009Y27352381D02*
X54953628Y27257143D01*
X54953628Y27257143D02*
X54953628Y26876191D01*
X55382200Y27828572D02*
X55429819Y27971429D01*
X55429819Y27971429D02*
X55429819Y28209524D01*
X55429819Y28209524D02*
X55382200Y28304762D01*
X55382200Y28304762D02*
X55334580Y28352381D01*
X55334580Y28352381D02*
X55239342Y28400000D01*
X55239342Y28400000D02*
X55144104Y28400000D01*
X55144104Y28400000D02*
X55048866Y28352381D01*
X55048866Y28352381D02*
X55001247Y28304762D01*
X55001247Y28304762D02*
X54953628Y28209524D01*
X54953628Y28209524D02*
X54906009Y28019048D01*
X54906009Y28019048D02*
X54858390Y27923810D01*
X54858390Y27923810D02*
X54810771Y27876191D01*
X54810771Y27876191D02*
X54715533Y27828572D01*
X54715533Y27828572D02*
X54620295Y27828572D01*
X54620295Y27828572D02*
X54525057Y27876191D01*
X54525057Y27876191D02*
X54477438Y27923810D01*
X54477438Y27923810D02*
X54429819Y28019048D01*
X54429819Y28019048D02*
X54429819Y28257143D01*
X54429819Y28257143D02*
X54477438Y28400000D01*
X54525057Y28780953D02*
X54477438Y28828572D01*
X54477438Y28828572D02*
X54429819Y28923810D01*
X54429819Y28923810D02*
X54429819Y29161905D01*
X54429819Y29161905D02*
X54477438Y29257143D01*
X54477438Y29257143D02*
X54525057Y29304762D01*
X54525057Y29304762D02*
X54620295Y29352381D01*
X54620295Y29352381D02*
X54715533Y29352381D01*
X54715533Y29352381D02*
X54858390Y29304762D01*
X54858390Y29304762D02*
X55429819Y28733334D01*
X55429819Y28733334D02*
X55429819Y29352381D01*
X54429819Y29685715D02*
X54429819Y30304762D01*
X54429819Y30304762D02*
X54810771Y29971429D01*
X54810771Y29971429D02*
X54810771Y30114286D01*
X54810771Y30114286D02*
X54858390Y30209524D01*
X54858390Y30209524D02*
X54906009Y30257143D01*
X54906009Y30257143D02*
X55001247Y30304762D01*
X55001247Y30304762D02*
X55239342Y30304762D01*
X55239342Y30304762D02*
X55334580Y30257143D01*
X55334580Y30257143D02*
X55382200Y30209524D01*
X55382200Y30209524D02*
X55429819Y30114286D01*
X55429819Y30114286D02*
X55429819Y29828572D01*
X55429819Y29828572D02*
X55382200Y29733334D01*
X55382200Y29733334D02*
X55334580Y29685715D01*
X54525057Y30685715D02*
X54477438Y30733334D01*
X54477438Y30733334D02*
X54429819Y30828572D01*
X54429819Y30828572D02*
X54429819Y31066667D01*
X54429819Y31066667D02*
X54477438Y31161905D01*
X54477438Y31161905D02*
X54525057Y31209524D01*
X54525057Y31209524D02*
X54620295Y31257143D01*
X54620295Y31257143D02*
X54715533Y31257143D01*
X54715533Y31257143D02*
X54858390Y31209524D01*
X54858390Y31209524D02*
X55429819Y30638096D01*
X55429819Y30638096D02*
X55429819Y31257143D01*
D13*
%TO.C,J1*%
X26610000Y3870000D02*
X27940000Y3870000D01*
X26610000Y2540000D02*
X26610000Y3870000D01*
X29210000Y3870000D02*
X47050000Y3870000D01*
X29210000Y1210000D02*
X29210000Y3870000D01*
X29210000Y1210000D02*
X47050000Y1210000D01*
X47050000Y1210000D02*
X47050000Y3870000D01*
%TO.C,J3*%
X49470000Y3870000D02*
X50800000Y3870000D01*
X49470000Y2540000D02*
X49470000Y3870000D01*
X52070000Y3870000D02*
X64830000Y3870000D01*
X52070000Y1210000D02*
X52070000Y3870000D01*
X52070000Y1210000D02*
X64830000Y1210000D01*
X64830000Y1210000D02*
X64830000Y3870000D01*
%TO.C,J2*%
X17466000Y52130000D02*
X18796000Y52130000D01*
X17466000Y50800000D02*
X17466000Y52130000D01*
X20066000Y52130000D02*
X42986000Y52130000D01*
X20066000Y49470000D02*
X20066000Y52130000D01*
X20066000Y49470000D02*
X42986000Y49470000D01*
X42986000Y49470000D02*
X42986000Y52130000D01*
%TO.C,J4*%
X44390000Y52130000D02*
X45720000Y52130000D01*
X44390000Y50800000D02*
X44390000Y52130000D01*
X46990000Y52130000D02*
X64830000Y52130000D01*
X46990000Y49470000D02*
X46990000Y52130000D01*
X46990000Y49470000D02*
X64830000Y49470000D01*
X64830000Y49470000D02*
X64830000Y52130000D01*
%TO.C,J5*%
X-3910000Y41810000D02*
X7810000Y41810000D01*
X-3910000Y38000000D02*
X-3910000Y41810000D01*
X-3910000Y38000000D02*
X-3910000Y34190000D01*
X-3910000Y34190000D02*
X7810000Y34190000D01*
X-3300000Y39500000D02*
X-3300000Y39000000D01*
X-3300000Y39000000D02*
X2200000Y39000000D01*
X-3300000Y37000000D02*
X-3300000Y36500000D01*
X-3300000Y36500000D02*
X2200000Y36500000D01*
X2200000Y39500000D02*
X-3300000Y39500000D01*
X2200000Y39000000D02*
X2200000Y39500000D01*
X2200000Y37000000D02*
X-3300000Y37000000D01*
X2200000Y36500000D02*
X2200000Y37000000D01*
X3310000Y40390000D02*
X3310000Y38000000D01*
X3310000Y35610000D02*
X3310000Y38000000D01*
X6900000Y39250000D02*
X7500000Y39550000D01*
X7500000Y39550000D02*
X7500000Y38950000D01*
X7500000Y38950000D02*
X6900000Y39250000D01*
X7810000Y41810000D02*
X7810000Y40390000D01*
X7810000Y40390000D02*
X3310000Y40390000D01*
X7810000Y35610000D02*
X3310000Y35610000D01*
X7810000Y34190000D02*
X7810000Y35610000D01*
%TO.C,J11*%
X37675000Y29025000D02*
X37675000Y27775000D01*
X37675000Y27775000D02*
X38925000Y27775000D01*
X37965000Y38185000D02*
X37965000Y28065000D01*
X37965000Y28065000D02*
X43935000Y28065000D01*
X37975000Y38175000D02*
X37975000Y36375000D01*
X37975000Y36375000D02*
X38725000Y36375000D01*
X37975000Y34875000D02*
X37975000Y31375000D01*
X37975000Y31375000D02*
X38725000Y31375000D01*
X37975000Y29875000D02*
X37975000Y28075000D01*
X37975000Y28075000D02*
X38725000Y28075000D01*
X38725000Y38175000D02*
X37975000Y38175000D01*
X38725000Y36375000D02*
X38725000Y38175000D01*
X38725000Y34875000D02*
X37975000Y34875000D01*
X38725000Y31375000D02*
X38725000Y34875000D01*
X38725000Y29875000D02*
X37975000Y29875000D01*
X38725000Y28075000D02*
X38725000Y29875000D01*
X40225000Y38175000D02*
X40225000Y37425000D01*
X40225000Y37425000D02*
X43175000Y37425000D01*
X40225000Y28825000D02*
X43175000Y28825000D01*
X40225000Y28075000D02*
X40225000Y28825000D01*
X43175000Y37425000D02*
X43175000Y33125000D01*
X43175000Y28825000D02*
X43175000Y33125000D01*
X43935000Y38185000D02*
X37965000Y38185000D01*
X43935000Y28065000D02*
X43935000Y38185000D01*
%TO.C,J6*%
X10000000Y29000000D02*
X10000000Y27750000D01*
X10000000Y27750000D02*
X11250000Y27750000D01*
X10290000Y45660000D02*
X10290000Y28040000D01*
X10290000Y28040000D02*
X16260000Y28040000D01*
X10300000Y45650000D02*
X10300000Y43850000D01*
X10300000Y43850000D02*
X11050000Y43850000D01*
X10300000Y42350000D02*
X10300000Y31350000D01*
X10300000Y31350000D02*
X11050000Y31350000D01*
X10300000Y29850000D02*
X10300000Y28050000D01*
X10300000Y28050000D02*
X11050000Y28050000D01*
X11050000Y45650000D02*
X10300000Y45650000D01*
X11050000Y43850000D02*
X11050000Y45650000D01*
X11050000Y42350000D02*
X10300000Y42350000D01*
X11050000Y31350000D02*
X11050000Y42350000D01*
X11050000Y29850000D02*
X10300000Y29850000D01*
X11050000Y28050000D02*
X11050000Y29850000D01*
X12550000Y45650000D02*
X12550000Y44900000D01*
X12550000Y44900000D02*
X15500000Y44900000D01*
X12550000Y28800000D02*
X15500000Y28800000D01*
X12550000Y28050000D02*
X12550000Y28800000D01*
X15500000Y44900000D02*
X15500000Y36850000D01*
X15500000Y28800000D02*
X15500000Y36850000D01*
X16260000Y45660000D02*
X10290000Y45660000D01*
X16260000Y28040000D02*
X16260000Y45660000D01*
%TO.C,J12*%
X19109285Y12125000D02*
X19109285Y10875000D01*
X19109285Y10875000D02*
X20359285Y10875000D01*
X19399285Y21285000D02*
X19399285Y11165000D01*
X19399285Y11165000D02*
X25369285Y11165000D01*
X19409285Y21275000D02*
X19409285Y19475000D01*
X19409285Y19475000D02*
X20159285Y19475000D01*
X19409285Y17975000D02*
X19409285Y14475000D01*
X19409285Y14475000D02*
X20159285Y14475000D01*
X19409285Y12975000D02*
X19409285Y11175000D01*
X19409285Y11175000D02*
X20159285Y11175000D01*
X20159285Y21275000D02*
X19409285Y21275000D01*
X20159285Y19475000D02*
X20159285Y21275000D01*
X20159285Y17975000D02*
X19409285Y17975000D01*
X20159285Y14475000D02*
X20159285Y17975000D01*
X20159285Y12975000D02*
X19409285Y12975000D01*
X20159285Y11175000D02*
X20159285Y12975000D01*
X21659285Y21275000D02*
X21659285Y20525000D01*
X21659285Y20525000D02*
X24609285Y20525000D01*
X21659285Y11925000D02*
X24609285Y11925000D01*
X21659285Y11175000D02*
X21659285Y11925000D01*
X24609285Y20525000D02*
X24609285Y16225000D01*
X24609285Y11925000D02*
X24609285Y16225000D01*
X25369285Y21285000D02*
X19399285Y21285000D01*
X25369285Y11165000D02*
X25369285Y21285000D01*
%TO.C,J7*%
X28218570Y29000000D02*
X28218570Y27750000D01*
X28218570Y27750000D02*
X29468570Y27750000D01*
X28508570Y38160000D02*
X28508570Y28040000D01*
X28508570Y28040000D02*
X34478570Y28040000D01*
X28518570Y38150000D02*
X28518570Y36350000D01*
X28518570Y36350000D02*
X29268570Y36350000D01*
X28518570Y34850000D02*
X28518570Y31350000D01*
X28518570Y31350000D02*
X29268570Y31350000D01*
X28518570Y29850000D02*
X28518570Y28050000D01*
X28518570Y28050000D02*
X29268570Y28050000D01*
X29268570Y38150000D02*
X28518570Y38150000D01*
X29268570Y36350000D02*
X29268570Y38150000D01*
X29268570Y34850000D02*
X28518570Y34850000D01*
X29268570Y31350000D02*
X29268570Y34850000D01*
X29268570Y29850000D02*
X28518570Y29850000D01*
X29268570Y28050000D02*
X29268570Y29850000D01*
X30768570Y38150000D02*
X30768570Y37400000D01*
X30768570Y37400000D02*
X33718570Y37400000D01*
X30768570Y28800000D02*
X33718570Y28800000D01*
X30768570Y28050000D02*
X30768570Y28800000D01*
X33718570Y37400000D02*
X33718570Y33100000D01*
X33718570Y28800000D02*
X33718570Y33100000D01*
X34478570Y38160000D02*
X28508570Y38160000D01*
X34478570Y28040000D02*
X34478570Y38160000D01*
%TO.C,J8*%
X10000000Y12125000D02*
X10000000Y10875000D01*
X10000000Y10875000D02*
X11250000Y10875000D01*
X10290000Y23785000D02*
X10290000Y11165000D01*
X10290000Y11165000D02*
X16260000Y11165000D01*
X10300000Y23775000D02*
X10300000Y21975000D01*
X10300000Y21975000D02*
X11050000Y21975000D01*
X10300000Y20475000D02*
X10300000Y14475000D01*
X10300000Y14475000D02*
X11050000Y14475000D01*
X10300000Y12975000D02*
X10300000Y11175000D01*
X10300000Y11175000D02*
X11050000Y11175000D01*
X11050000Y23775000D02*
X10300000Y23775000D01*
X11050000Y21975000D02*
X11050000Y23775000D01*
X11050000Y20475000D02*
X10300000Y20475000D01*
X11050000Y14475000D02*
X11050000Y20475000D01*
X11050000Y12975000D02*
X10300000Y12975000D01*
X11050000Y11175000D02*
X11050000Y12975000D01*
X12550000Y23775000D02*
X12550000Y23025000D01*
X12550000Y23025000D02*
X15500000Y23025000D01*
X12550000Y11925000D02*
X15500000Y11925000D01*
X12550000Y11175000D02*
X12550000Y11925000D01*
X15500000Y23025000D02*
X15500000Y17475000D01*
X15500000Y11925000D02*
X15500000Y17475000D01*
X16260000Y23785000D02*
X10290000Y23785000D01*
X16260000Y11165000D02*
X16260000Y23785000D01*
%TO.C,J10*%
X19109285Y29000000D02*
X19109285Y27750000D01*
X19109285Y27750000D02*
X20359285Y27750000D01*
X19399285Y38160000D02*
X19399285Y28040000D01*
X19399285Y28040000D02*
X25369285Y28040000D01*
X19409285Y38150000D02*
X19409285Y36350000D01*
X19409285Y36350000D02*
X20159285Y36350000D01*
X19409285Y34850000D02*
X19409285Y31350000D01*
X19409285Y31350000D02*
X20159285Y31350000D01*
X19409285Y29850000D02*
X19409285Y28050000D01*
X19409285Y28050000D02*
X20159285Y28050000D01*
X20159285Y38150000D02*
X19409285Y38150000D01*
X20159285Y36350000D02*
X20159285Y38150000D01*
X20159285Y34850000D02*
X19409285Y34850000D01*
X20159285Y31350000D02*
X20159285Y34850000D01*
X20159285Y29850000D02*
X19409285Y29850000D01*
X20159285Y28050000D02*
X20159285Y29850000D01*
X21659285Y38150000D02*
X21659285Y37400000D01*
X21659285Y37400000D02*
X24609285Y37400000D01*
X21659285Y28800000D02*
X24609285Y28800000D01*
X21659285Y28050000D02*
X21659285Y28800000D01*
X24609285Y37400000D02*
X24609285Y33100000D01*
X24609285Y28800000D02*
X24609285Y33100000D01*
X25369285Y38160000D02*
X19399285Y38160000D01*
X25369285Y28040000D02*
X25369285Y38160000D01*
%TO.C,J9*%
X47625000Y29050000D02*
X47625000Y27800000D01*
X47625000Y27800000D02*
X48875000Y27800000D01*
X47915000Y38210000D02*
X47915000Y28090000D01*
X47915000Y28090000D02*
X53885000Y28090000D01*
X47925000Y38200000D02*
X47925000Y36400000D01*
X47925000Y36400000D02*
X48675000Y36400000D01*
X47925000Y34900000D02*
X47925000Y31400000D01*
X47925000Y31400000D02*
X48675000Y31400000D01*
X47925000Y29900000D02*
X47925000Y28100000D01*
X47925000Y28100000D02*
X48675000Y28100000D01*
X48675000Y38200000D02*
X47925000Y38200000D01*
X48675000Y36400000D02*
X48675000Y38200000D01*
X48675000Y34900000D02*
X47925000Y34900000D01*
X48675000Y31400000D02*
X48675000Y34900000D01*
X48675000Y29900000D02*
X47925000Y29900000D01*
X48675000Y28100000D02*
X48675000Y29900000D01*
X50175000Y38200000D02*
X50175000Y37450000D01*
X50175000Y37450000D02*
X53125000Y37450000D01*
X50175000Y28850000D02*
X53125000Y28850000D01*
X50175000Y28100000D02*
X50175000Y28850000D01*
X53125000Y37450000D02*
X53125000Y33150000D01*
X53125000Y28850000D02*
X53125000Y33150000D01*
X53885000Y38210000D02*
X47915000Y38210000D01*
X53885000Y28090000D02*
X53885000Y38210000D01*
%TD*%
D14*
X27940000Y2540000D03*
X30480000Y2540000D03*
X33020000Y2540000D03*
X35560000Y2540000D03*
X38100000Y2540000D03*
X40640000Y2540000D03*
X43180000Y2540000D03*
X45720000Y2540000D03*
X50800000Y2540000D03*
X53340000Y2540000D03*
X55880000Y2540000D03*
X58420000Y2540000D03*
X60960000Y2540000D03*
X63500000Y2540000D03*
X18796000Y50800000D03*
X21336000Y50800000D03*
X23876000Y50800000D03*
X26416000Y50800000D03*
X28956000Y50800000D03*
X31496000Y50800000D03*
X34036000Y50800000D03*
X36576000Y50800000D03*
X39116000Y50800000D03*
X41656000Y50800000D03*
X45720000Y50800000D03*
X48260000Y50800000D03*
X50800000Y50800000D03*
X53340000Y50800000D03*
X55880000Y50800000D03*
X58420000Y50800000D03*
X60960000Y50800000D03*
X63500000Y50800000D03*
X5400000Y39250000D03*
X5400000Y36750000D03*
X40425000Y30625000D03*
X40425000Y33125000D03*
X40425000Y35625000D03*
X15240000Y50800000D03*
X12750000Y30600000D03*
X12750000Y33100000D03*
X12750000Y35600000D03*
X12750000Y38100000D03*
X12750000Y40600000D03*
X12750000Y43100000D03*
X21859285Y13725000D03*
X21859285Y16225000D03*
X21859285Y18725000D03*
X30968570Y30600000D03*
X30968570Y33100000D03*
X30968570Y35600000D03*
X12750000Y13725000D03*
X12750000Y16225000D03*
X12750000Y18725000D03*
X12750000Y21225000D03*
X13970000Y2540000D03*
X66040000Y35560000D03*
X66040000Y7620000D03*
X21859285Y30600000D03*
X21859285Y33100000D03*
X21859285Y35600000D03*
X50375000Y30650000D03*
X50375000Y33150000D03*
X50375000Y35650000D03*
M02*
