%TF.GenerationSoftware,KiCad,Pcbnew,8.0.3*%
%TF.CreationDate,2024-07-23T14:12:28+08:00*%
%TF.ProjectId,Shao Rong Shield,5368616f-2052-46f6-9e67-20536869656c,rev?*%
%TF.SameCoordinates,Original*%
%TF.FileFunction,Copper,L2,Bot*%
%TF.FilePolarity,Positive*%
%FSLAX46Y46*%
G04 Gerber Fmt 4.6, Leading zero omitted, Abs format (unit mm)*
G04 Created by KiCad (PCBNEW 8.0.3) date 2024-07-23 14:12:28*
%MOMM*%
%LPD*%
G01*
G04 APERTURE LIST*
G04 Aperture macros list*
%AMRoundRect*
0 Rectangle with rounded corners*
0 $1 Rounding radius*
0 $2 $3 $4 $5 $6 $7 $8 $9 X,Y pos of 4 corners*
0 Add a 4 corners polygon primitive as box body*
4,1,4,$2,$3,$4,$5,$6,$7,$8,$9,$2,$3,0*
0 Add four circle primitives for the rounded corners*
1,1,$1+$1,$2,$3*
1,1,$1+$1,$4,$5*
1,1,$1+$1,$6,$7*
1,1,$1+$1,$8,$9*
0 Add four rect primitives between the rounded corners*
20,1,$1+$1,$2,$3,$4,$5,0*
20,1,$1+$1,$4,$5,$6,$7,0*
20,1,$1+$1,$6,$7,$8,$9,0*
20,1,$1+$1,$8,$9,$2,$3,0*%
G04 Aperture macros list end*
%TA.AperFunction,ComponentPad*%
%ADD10R,1.700000X1.700000*%
%TD*%
%TA.AperFunction,ComponentPad*%
%ADD11O,1.700000X1.700000*%
%TD*%
%TA.AperFunction,ComponentPad*%
%ADD12RoundRect,0.250000X-0.750000X0.600000X-0.750000X-0.600000X0.750000X-0.600000X0.750000X0.600000X0*%
%TD*%
%TA.AperFunction,ComponentPad*%
%ADD13O,2.000000X1.700000*%
%TD*%
%TA.AperFunction,ComponentPad*%
%ADD14RoundRect,0.250000X0.725000X-0.600000X0.725000X0.600000X-0.725000X0.600000X-0.725000X-0.600000X0*%
%TD*%
%TA.AperFunction,ComponentPad*%
%ADD15O,1.950000X1.700000*%
%TD*%
%TA.AperFunction,ViaPad*%
%ADD16C,0.500000*%
%TD*%
%TA.AperFunction,Conductor*%
%ADD17C,0.250000*%
%TD*%
%ADD18C,0.300000*%
%ADD19C,0.350000*%
G04 APERTURE END LIST*
D10*
%TO.P,J1,1,Pin_1*%
%TO.N,unconnected-(J1-Pin_1-Pad1)*%
X27940000Y2540000D03*
D11*
%TO.P,J1,2,Pin_2*%
%TO.N,/IOREF*%
X30480000Y2540000D03*
%TO.P,J1,3,Pin_3*%
%TO.N,/~{RESET}*%
X33020000Y2540000D03*
%TO.P,J1,4,Pin_4*%
%TO.N,+3V3*%
X35560000Y2540000D03*
%TO.P,J1,5,Pin_5*%
%TO.N,unconnected-(J1-Pin_5-Pad5)*%
X38100000Y2540000D03*
%TO.P,J1,6,Pin_6*%
%TO.N,GND*%
X40640000Y2540000D03*
%TO.P,J1,7,Pin_7*%
X43180000Y2540000D03*
%TO.P,J1,8,Pin_8*%
%TO.N,VCC*%
X45720000Y2540000D03*
%TD*%
D10*
%TO.P,J3,1,Pin_1*%
%TO.N,/A0*%
X50800000Y2540000D03*
D11*
%TO.P,J3,2,Pin_2*%
%TO.N,/A1*%
X53340000Y2540000D03*
%TO.P,J3,3,Pin_3*%
%TO.N,/A2*%
X55880000Y2540000D03*
%TO.P,J3,4,Pin_4*%
%TO.N,/A3*%
X58420000Y2540000D03*
%TO.P,J3,5,Pin_5*%
%TO.N,/SDA*%
X60960000Y2540000D03*
%TO.P,J3,6,Pin_6*%
%TO.N,/SCL{slash}A5*%
X63500000Y2540000D03*
%TD*%
D10*
%TO.P,J2,1,Pin_1*%
%TO.N,unconnected-(J2-Pin_1-Pad1)*%
X18796000Y50800000D03*
D11*
%TO.P,J2,2,Pin_2*%
%TO.N,unconnected-(J2-Pin_2-Pad2)*%
X21336000Y50800000D03*
%TO.P,J2,3,Pin_3*%
%TO.N,/AREF*%
X23876000Y50800000D03*
%TO.P,J2,4,Pin_4*%
%TO.N,GND*%
X26416000Y50800000D03*
%TO.P,J2,5,Pin_5*%
%TO.N,/13*%
X28956000Y50800000D03*
%TO.P,J2,6,Pin_6*%
%TO.N,/12*%
X31496000Y50800000D03*
%TO.P,J2,7,Pin_7*%
%TO.N,/\u002A11*%
X34036000Y50800000D03*
%TO.P,J2,8,Pin_8*%
%TO.N,/\u002A10*%
X36576000Y50800000D03*
%TO.P,J2,9,Pin_9*%
%TO.N,/\u002A9*%
X39116000Y50800000D03*
%TO.P,J2,10,Pin_10*%
%TO.N,/8*%
X41656000Y50800000D03*
%TD*%
D10*
%TO.P,J4,1,Pin_1*%
%TO.N,/7*%
X45720000Y50800000D03*
D11*
%TO.P,J4,2,Pin_2*%
%TO.N,/\u002A6*%
X48260000Y50800000D03*
%TO.P,J4,3,Pin_3*%
%TO.N,/\u002A5*%
X50800000Y50800000D03*
%TO.P,J4,4,Pin_4*%
%TO.N,/4*%
X53340000Y50800000D03*
%TO.P,J4,5,Pin_5*%
%TO.N,/\u002A3*%
X55880000Y50800000D03*
%TO.P,J4,6,Pin_6*%
%TO.N,/2*%
X58420000Y50800000D03*
%TO.P,J4,7,Pin_7*%
%TO.N,/TX{slash}1*%
X60960000Y50800000D03*
%TO.P,J4,8,Pin_8*%
%TO.N,/RX{slash}0*%
X63500000Y50800000D03*
%TD*%
D12*
%TO.P,J5,1,Pin_1*%
%TO.N,+5V*%
X5400000Y39250000D03*
D13*
%TO.P,J5,2,Pin_2*%
%TO.N,GND*%
X5400000Y36750000D03*
%TD*%
D14*
%TO.P,J11,1,Pin_1*%
%TO.N,+5V*%
X40425000Y30625000D03*
D15*
%TO.P,J11,2,Pin_2*%
%TO.N,GND*%
X40425000Y33125000D03*
%TO.P,J11,3,Pin_3*%
%TO.N,/\u002A5*%
X40425000Y35625000D03*
%TD*%
D14*
%TO.P,J6,1,Pin_1*%
%TO.N,+5V*%
X12750000Y30600000D03*
D15*
%TO.P,J6,2,Pin_2*%
%TO.N,GND*%
X12750000Y33100000D03*
%TO.P,J6,3,Pin_3*%
%TO.N,/13*%
X12750000Y35600000D03*
%TO.P,J6,4,Pin_4*%
%TO.N,/12*%
X12750000Y38100000D03*
%TO.P,J6,5,Pin_5*%
%TO.N,/\u002A9*%
X12750000Y40600000D03*
%TO.P,J6,6,Pin_6*%
%TO.N,/8*%
X12750000Y43100000D03*
%TD*%
D14*
%TO.P,J12,1,Pin_1*%
%TO.N,+5V*%
X21859285Y13725000D03*
D15*
%TO.P,J12,2,Pin_2*%
%TO.N,GND*%
X21859285Y16225000D03*
%TO.P,J12,3,Pin_3*%
%TO.N,/A2*%
X21859285Y18725000D03*
%TD*%
D14*
%TO.P,J7,1,Pin_1*%
%TO.N,+5V*%
X30968570Y30600000D03*
D15*
%TO.P,J7,2,Pin_2*%
%TO.N,GND*%
X30968570Y33100000D03*
%TO.P,J7,3,Pin_3*%
%TO.N,/A1*%
X30968570Y35600000D03*
%TD*%
D14*
%TO.P,J8,1,Pin_1*%
%TO.N,+5V*%
X12750000Y13725000D03*
D15*
%TO.P,J8,2,Pin_2*%
%TO.N,GND*%
X12750000Y16225000D03*
%TO.P,J8,3,Pin_3*%
%TO.N,/SDA*%
X12750000Y18725000D03*
%TO.P,J8,4,Pin_4*%
%TO.N,/SCL{slash}A5*%
X12750000Y21225000D03*
%TD*%
D14*
%TO.P,J10,1,Pin_1*%
%TO.N,+5V*%
X21859285Y30600000D03*
D15*
%TO.P,J10,2,Pin_2*%
%TO.N,GND*%
X21859285Y33100000D03*
%TO.P,J10,3,Pin_3*%
%TO.N,/\u002A6*%
X21859285Y35600000D03*
%TD*%
D14*
%TO.P,J9,1,Pin_1*%
%TO.N,GND*%
X50375000Y30650000D03*
D15*
%TO.P,J9,2,Pin_2*%
%TO.N,/\u002A10*%
X50375000Y33150000D03*
%TO.P,J9,3,Pin_3*%
%TO.N,/\u002A11*%
X50375000Y35650000D03*
%TD*%
D16*
%TO.N,/A1*%
X38600000Y39350000D03*
%TO.N,/\u002A11*%
X46850000Y43875000D03*
%TO.N,/\u002A10*%
X47575000Y45625000D03*
%TD*%
D17*
%TO.N,/A1*%
X53340000Y24610000D02*
X53340000Y2540000D01*
X38600000Y39350000D02*
X53340000Y24610000D01*
%TO.N,/\u002A11*%
X46725000Y44000000D02*
X40836000Y44000000D01*
X40836000Y44000000D02*
X34036000Y50800000D01*
X46850000Y43875000D02*
X46725000Y44000000D01*
%TO.N,/\u002A10*%
X47575000Y45625000D02*
X41751000Y45625000D01*
X41751000Y45625000D02*
X36576000Y50800000D01*
%TD*%
%TA.AperFunction,Conductor*%
%TO.N,GND*%
G36*
X42714075Y2732993D02*
G01*
X42680000Y2605826D01*
X42680000Y2474174D01*
X42714075Y2347007D01*
X42746988Y2290000D01*
X41073012Y2290000D01*
X41105925Y2347007D01*
X41140000Y2474174D01*
X41140000Y2605826D01*
X41105925Y2732993D01*
X41073012Y2790000D01*
X42746988Y2790000D01*
X42714075Y2732993D01*
G37*
%TD.AperFunction*%
%TA.AperFunction,Conductor*%
G36*
X63517152Y53180315D02*
G01*
X63535987Y53165452D01*
X64329775Y52403416D01*
X64331582Y52401645D01*
X65928181Y50805046D01*
X65961666Y50743723D01*
X65964500Y50717365D01*
X65964500Y40655018D01*
X65964500Y40624982D01*
X65975994Y40597233D01*
X65975995Y40597232D01*
X68314247Y38258980D01*
X68347732Y38197657D01*
X68350563Y38172199D01*
X68504497Y16960314D01*
X68504500Y16959414D01*
X68504500Y3892636D01*
X68484815Y3825597D01*
X68468181Y3804955D01*
X65997233Y1334006D01*
X65975995Y1312769D01*
X65964500Y1285018D01*
X65964500Y1203274D01*
X65959017Y1166807D01*
X65673736Y239647D01*
X65635206Y181361D01*
X65613673Y166756D01*
X65551483Y133514D01*
X65529028Y124213D01*
X65487028Y111472D01*
X65423618Y92237D01*
X65399778Y87495D01*
X65291162Y76797D01*
X65284060Y76097D01*
X65271907Y75500D01*
X40911690Y75500D01*
X40911311Y75501D01*
X414661Y199345D01*
X347682Y219234D01*
X336375Y227491D01*
X335602Y228125D01*
X286012Y268823D01*
X268823Y286012D01*
X227738Y336075D01*
X200426Y400385D01*
X199592Y414504D01*
X193854Y3438655D01*
X26581500Y3438655D01*
X26581500Y1641346D01*
X26588011Y1580798D01*
X26588011Y1580796D01*
X26639111Y1443796D01*
X26726739Y1326739D01*
X26843796Y1239111D01*
X26980799Y1188011D01*
X27008050Y1185082D01*
X27041345Y1181501D01*
X27041362Y1181500D01*
X28838638Y1181500D01*
X28838654Y1181501D01*
X28865692Y1184409D01*
X28899201Y1188011D01*
X29036204Y1239111D01*
X29153261Y1326739D01*
X29240889Y1443796D01*
X29286138Y1565113D01*
X29328009Y1621044D01*
X29393474Y1645461D01*
X29461746Y1630609D01*
X29493545Y1605764D01*
X29556760Y1537094D01*
X29734424Y1398811D01*
X29734425Y1398811D01*
X29734427Y1398809D01*
X29861135Y1330239D01*
X29932426Y1291658D01*
X30145365Y1218556D01*
X30367431Y1181500D01*
X30592569Y1181500D01*
X30814635Y1218556D01*
X31027574Y1291658D01*
X31225576Y1398811D01*
X31403240Y1537094D01*
X31524594Y1668918D01*
X31555715Y1702724D01*
X31555715Y1702725D01*
X31555722Y1702732D01*
X31646193Y1841210D01*
X31699338Y1886563D01*
X31768569Y1895987D01*
X31831905Y1866485D01*
X31853804Y1841213D01*
X31944278Y1702732D01*
X31944283Y1702727D01*
X31944284Y1702724D01*
X32070968Y1565111D01*
X32096760Y1537094D01*
X32274424Y1398811D01*
X32274425Y1398811D01*
X32274427Y1398809D01*
X32401135Y1330239D01*
X32472426Y1291658D01*
X32685365Y1218556D01*
X32907431Y1181500D01*
X33132569Y1181500D01*
X33354635Y1218556D01*
X33567574Y1291658D01*
X33765576Y1398811D01*
X33943240Y1537094D01*
X34064594Y1668918D01*
X34095715Y1702724D01*
X34095715Y1702725D01*
X34095722Y1702732D01*
X34186193Y1841210D01*
X34239338Y1886563D01*
X34308569Y1895987D01*
X34371905Y1866485D01*
X34393804Y1841213D01*
X34484278Y1702732D01*
X34484283Y1702727D01*
X34484284Y1702724D01*
X34610968Y1565111D01*
X34636760Y1537094D01*
X34814424Y1398811D01*
X34814425Y1398811D01*
X34814427Y1398809D01*
X34941135Y1330239D01*
X35012426Y1291658D01*
X35225365Y1218556D01*
X35447431Y1181500D01*
X35672569Y1181500D01*
X35894635Y1218556D01*
X36107574Y1291658D01*
X36305576Y1398811D01*
X36483240Y1537094D01*
X36604594Y1668918D01*
X36635715Y1702724D01*
X36635715Y1702725D01*
X36635722Y1702732D01*
X36726193Y1841210D01*
X36779338Y1886563D01*
X36848569Y1895987D01*
X36911905Y1866485D01*
X36933804Y1841213D01*
X37024278Y1702732D01*
X37024283Y1702727D01*
X37024284Y1702724D01*
X37150968Y1565111D01*
X37176760Y1537094D01*
X37354424Y1398811D01*
X37354425Y1398811D01*
X37354427Y1398809D01*
X37481135Y1330239D01*
X37552426Y1291658D01*
X37765365Y1218556D01*
X37987431Y1181500D01*
X38212569Y1181500D01*
X38434635Y1218556D01*
X38647574Y1291658D01*
X38845576Y1398811D01*
X39023240Y1537094D01*
X39144594Y1668918D01*
X39175715Y1702724D01*
X39175715Y1702725D01*
X39175722Y1702732D01*
X39269749Y1846653D01*
X39322894Y1892006D01*
X39392125Y1901430D01*
X39455461Y1871928D01*
X39475130Y1849952D01*
X39601890Y1668922D01*
X39768917Y1501895D01*
X39962421Y1366400D01*
X40176507Y1266571D01*
X40176516Y1266567D01*
X40390000Y1209366D01*
X40390000Y2106988D01*
X40447007Y2074075D01*
X40574174Y2040000D01*
X40705826Y2040000D01*
X40832993Y2074075D01*
X40890000Y2106988D01*
X40890000Y1209367D01*
X41103483Y1266567D01*
X41103492Y1266571D01*
X41317578Y1366400D01*
X41511082Y1501895D01*
X41678105Y1668918D01*
X41808425Y1855032D01*
X41863002Y1898656D01*
X41932501Y1905849D01*
X41994855Y1874327D01*
X42011575Y1855032D01*
X42141894Y1668918D01*
X42308917Y1501895D01*
X42502421Y1366400D01*
X42716507Y1266571D01*
X42716516Y1266567D01*
X42930000Y1209366D01*
X42930000Y2106988D01*
X42987007Y2074075D01*
X43114174Y2040000D01*
X43245826Y2040000D01*
X43372993Y2074075D01*
X43430000Y2106988D01*
X43430000Y1209367D01*
X43643483Y1266567D01*
X43643492Y1266571D01*
X43857578Y1366400D01*
X44051082Y1501895D01*
X44218105Y1668918D01*
X44344868Y1849952D01*
X44399445Y1893577D01*
X44468944Y1900769D01*
X44531298Y1869247D01*
X44550251Y1846650D01*
X44644276Y1702735D01*
X44644284Y1702724D01*
X44770968Y1565111D01*
X44796760Y1537094D01*
X44974424Y1398811D01*
X44974425Y1398811D01*
X44974427Y1398809D01*
X45101135Y1330239D01*
X45172426Y1291658D01*
X45385365Y1218556D01*
X45607431Y1181500D01*
X45832569Y1181500D01*
X46054635Y1218556D01*
X46267574Y1291658D01*
X46465576Y1398811D01*
X46643240Y1537094D01*
X46764594Y1668918D01*
X46795715Y1702724D01*
X46795717Y1702727D01*
X46795722Y1702732D01*
X46918860Y1891209D01*
X47009296Y2097384D01*
X47064564Y2315632D01*
X47067164Y2347007D01*
X47083156Y2539995D01*
X47083156Y2540006D01*
X47064565Y2764360D01*
X47064563Y2764372D01*
X47009296Y2982615D01*
X46999071Y3005925D01*
X46918860Y3188791D01*
X46902706Y3213516D01*
X46795723Y3377266D01*
X46795715Y3377277D01*
X46643243Y3542903D01*
X46643238Y3542908D01*
X46465577Y3681188D01*
X46465572Y3681192D01*
X46267580Y3788339D01*
X46267577Y3788341D01*
X46267574Y3788342D01*
X46267571Y3788343D01*
X46267569Y3788344D01*
X46054637Y3861444D01*
X45832569Y3898500D01*
X45607431Y3898500D01*
X45385362Y3861444D01*
X45172430Y3788344D01*
X45172419Y3788339D01*
X44974427Y3681192D01*
X44974422Y3681188D01*
X44796761Y3542908D01*
X44796756Y3542903D01*
X44644284Y3377277D01*
X44644276Y3377266D01*
X44550251Y3233350D01*
X44497105Y3187993D01*
X44427873Y3178570D01*
X44364538Y3208072D01*
X44344868Y3230049D01*
X44218113Y3411074D01*
X44218108Y3411080D01*
X44051082Y3578106D01*
X43857578Y3713601D01*
X43643492Y3813430D01*
X43643486Y3813433D01*
X43430000Y3870636D01*
X43430000Y2973012D01*
X43372993Y3005925D01*
X43245826Y3040000D01*
X43114174Y3040000D01*
X42987007Y3005925D01*
X42930000Y2973012D01*
X42930000Y3870636D01*
X42929999Y3870636D01*
X42716513Y3813433D01*
X42716507Y3813430D01*
X42502422Y3713601D01*
X42502420Y3713600D01*
X42308926Y3578114D01*
X42308920Y3578109D01*
X42141891Y3411080D01*
X42141890Y3411078D01*
X42011575Y3224969D01*
X41956998Y3181345D01*
X41887499Y3174152D01*
X41825145Y3205674D01*
X41808425Y3224969D01*
X41678109Y3411078D01*
X41678108Y3411080D01*
X41511082Y3578106D01*
X41317578Y3713601D01*
X41103492Y3813430D01*
X41103486Y3813433D01*
X40890000Y3870636D01*
X40890000Y2973012D01*
X40832993Y3005925D01*
X40705826Y3040000D01*
X40574174Y3040000D01*
X40447007Y3005925D01*
X40390000Y2973012D01*
X40390000Y3870636D01*
X40389999Y3870636D01*
X40176513Y3813433D01*
X40176507Y3813430D01*
X39962422Y3713601D01*
X39962420Y3713600D01*
X39768926Y3578114D01*
X39768920Y3578109D01*
X39601891Y3411080D01*
X39601890Y3411078D01*
X39475131Y3230048D01*
X39420554Y3186423D01*
X39351055Y3179231D01*
X39288701Y3210753D01*
X39269752Y3233344D01*
X39175722Y3377268D01*
X39175715Y3377275D01*
X39175715Y3377277D01*
X39023243Y3542903D01*
X39023238Y3542908D01*
X38845577Y3681188D01*
X38845572Y3681192D01*
X38647580Y3788339D01*
X38647577Y3788341D01*
X38647574Y3788342D01*
X38647571Y3788343D01*
X38647569Y3788344D01*
X38434637Y3861444D01*
X38212569Y3898500D01*
X37987431Y3898500D01*
X37765362Y3861444D01*
X37552430Y3788344D01*
X37552419Y3788339D01*
X37354427Y3681192D01*
X37354422Y3681188D01*
X37176761Y3542908D01*
X37176756Y3542903D01*
X37024284Y3377277D01*
X37024276Y3377266D01*
X36933808Y3238794D01*
X36880662Y3193438D01*
X36811431Y3184014D01*
X36748095Y3213516D01*
X36726192Y3238794D01*
X36635723Y3377266D01*
X36635715Y3377277D01*
X36483243Y3542903D01*
X36483238Y3542908D01*
X36305577Y3681188D01*
X36305572Y3681192D01*
X36107580Y3788339D01*
X36107577Y3788341D01*
X36107574Y3788342D01*
X36107571Y3788343D01*
X36107569Y3788344D01*
X35894637Y3861444D01*
X35672569Y3898500D01*
X35447431Y3898500D01*
X35225362Y3861444D01*
X35012430Y3788344D01*
X35012419Y3788339D01*
X34814427Y3681192D01*
X34814422Y3681188D01*
X34636761Y3542908D01*
X34636756Y3542903D01*
X34484284Y3377277D01*
X34484276Y3377266D01*
X34393808Y3238794D01*
X34340662Y3193438D01*
X34271431Y3184014D01*
X34208095Y3213516D01*
X34186192Y3238794D01*
X34095723Y3377266D01*
X34095715Y3377277D01*
X33943243Y3542903D01*
X33943238Y3542908D01*
X33765577Y3681188D01*
X33765572Y3681192D01*
X33567580Y3788339D01*
X33567577Y3788341D01*
X33567574Y3788342D01*
X33567571Y3788343D01*
X33567569Y3788344D01*
X33354637Y3861444D01*
X33132569Y3898500D01*
X32907431Y3898500D01*
X32685362Y3861444D01*
X32472430Y3788344D01*
X32472419Y3788339D01*
X32274427Y3681192D01*
X32274422Y3681188D01*
X32096761Y3542908D01*
X32096756Y3542903D01*
X31944284Y3377277D01*
X31944276Y3377266D01*
X31853808Y3238794D01*
X31800662Y3193438D01*
X31731431Y3184014D01*
X31668095Y3213516D01*
X31646192Y3238794D01*
X31555723Y3377266D01*
X31555715Y3377277D01*
X31403243Y3542903D01*
X31403238Y3542908D01*
X31225577Y3681188D01*
X31225572Y3681192D01*
X31027580Y3788339D01*
X31027577Y3788341D01*
X31027574Y3788342D01*
X31027571Y3788343D01*
X31027569Y3788344D01*
X30814637Y3861444D01*
X30592569Y3898500D01*
X30367431Y3898500D01*
X30145362Y3861444D01*
X29932430Y3788344D01*
X29932419Y3788339D01*
X29734427Y3681192D01*
X29734422Y3681188D01*
X29556761Y3542908D01*
X29493548Y3474240D01*
X29433661Y3438250D01*
X29363823Y3440351D01*
X29306207Y3479876D01*
X29286138Y3514890D01*
X29240889Y3636204D01*
X29207214Y3681188D01*
X29153261Y3753261D01*
X29036204Y3840889D01*
X29035172Y3841274D01*
X28899203Y3891989D01*
X28838654Y3898500D01*
X28838638Y3898500D01*
X27041362Y3898500D01*
X27041345Y3898500D01*
X26980797Y3891989D01*
X26980795Y3891989D01*
X26843795Y3840889D01*
X26726739Y3753261D01*
X26639111Y3636205D01*
X26588011Y3499205D01*
X26588011Y3499203D01*
X26581500Y3438655D01*
X193854Y3438655D01*
X159901Y21331916D01*
X11266500Y21331916D01*
X11266500Y21118085D01*
X11299951Y20906883D01*
X11366026Y20703520D01*
X11366027Y20703517D01*
X11463106Y20512991D01*
X11588794Y20339996D01*
X11739996Y20188794D01*
X11842344Y20114434D01*
X11896182Y20075318D01*
X11938847Y20019988D01*
X11944826Y19950374D01*
X11912220Y19888579D01*
X11896182Y19874682D01*
X11827297Y19824635D01*
X11739996Y19761206D01*
X11739994Y19761204D01*
X11739993Y19761204D01*
X11588796Y19610007D01*
X11463106Y19437010D01*
X11366027Y19246484D01*
X11366026Y19246481D01*
X11299951Y19043118D01*
X11266500Y18831916D01*
X11266500Y18618085D01*
X11299951Y18406883D01*
X11366026Y18203520D01*
X11366027Y18203517D01*
X11463106Y18012991D01*
X11588794Y17839996D01*
X11739996Y17688794D01*
X11739999Y17688792D01*
X11903412Y17570065D01*
X11946078Y17514735D01*
X11952057Y17445122D01*
X11919451Y17383327D01*
X11903413Y17369429D01*
X11745535Y17254724D01*
X11595276Y17104465D01*
X11595272Y17104460D01*
X11470379Y16932558D01*
X11373904Y16743218D01*
X11308242Y16541130D01*
X11308242Y16541127D01*
X11297769Y16475000D01*
X12345854Y16475000D01*
X12307370Y16408343D01*
X12275000Y16287535D01*
X12275000Y16162465D01*
X12307370Y16041657D01*
X12345854Y15975000D01*
X11297769Y15975000D01*
X11308242Y15908874D01*
X11308242Y15908871D01*
X11373904Y15706783D01*
X11470379Y15517443D01*
X11595272Y15345541D01*
X11595276Y15345536D01*
X11728329Y15212483D01*
X11761814Y15151160D01*
X11756830Y15081468D01*
X11714958Y15025535D01*
X11705745Y15019264D01*
X11551351Y14924033D01*
X11551347Y14924030D01*
X11425971Y14798654D01*
X11332886Y14647741D01*
X11332884Y14647736D01*
X11277113Y14479428D01*
X11266500Y14375553D01*
X11266500Y13074463D01*
X11266501Y13074447D01*
X11277113Y12970574D01*
X11332885Y12802262D01*
X11425970Y12651348D01*
X11551348Y12525970D01*
X11702262Y12432885D01*
X11870574Y12377113D01*
X11974455Y12366500D01*
X13525544Y12366501D01*
X13629426Y12377113D01*
X13797738Y12432885D01*
X13948652Y12525970D01*
X14074030Y12651348D01*
X14167115Y12802262D01*
X14222887Y12970574D01*
X14233500Y13074455D01*
X14233499Y14375544D01*
X14222887Y14479426D01*
X14167115Y14647738D01*
X14074030Y14798652D01*
X13948652Y14924030D01*
X13797738Y15017115D01*
X13797734Y15017117D01*
X13794254Y15019263D01*
X13747530Y15071211D01*
X13736307Y15140174D01*
X13764151Y15204256D01*
X13771670Y15212484D01*
X13904728Y15345542D01*
X14029620Y15517443D01*
X14126095Y15706783D01*
X14191757Y15908871D01*
X14191757Y15908874D01*
X14202231Y15975000D01*
X13154146Y15975000D01*
X13192630Y16041657D01*
X13225000Y16162465D01*
X13225000Y16287535D01*
X13192630Y16408343D01*
X13154146Y16475000D01*
X14202231Y16475000D01*
X14191757Y16541127D01*
X14191757Y16541130D01*
X14126095Y16743218D01*
X14029620Y16932558D01*
X13904727Y17104460D01*
X13904723Y17104465D01*
X13754464Y17254724D01*
X13754459Y17254728D01*
X13596587Y17369429D01*
X13553921Y17424759D01*
X13547942Y17494372D01*
X13580548Y17556167D01*
X13596587Y17570065D01*
X13760004Y17688794D01*
X13911206Y17839996D01*
X14036894Y18012991D01*
X14133972Y18203517D01*
X14200049Y18406884D01*
X14233500Y18618084D01*
X14233500Y18831916D01*
X20375785Y18831916D01*
X20375785Y18618085D01*
X20409236Y18406883D01*
X20475311Y18203520D01*
X20475312Y18203517D01*
X20572391Y18012991D01*
X20698079Y17839996D01*
X20849281Y17688794D01*
X20849284Y17688792D01*
X21012697Y17570065D01*
X21055363Y17514735D01*
X21061342Y17445122D01*
X21028736Y17383327D01*
X21012698Y17369429D01*
X20854820Y17254724D01*
X20704561Y17104465D01*
X20704557Y17104460D01*
X20579664Y16932558D01*
X20483189Y16743218D01*
X20417527Y16541130D01*
X20417527Y16541127D01*
X20407054Y16475000D01*
X21455139Y16475000D01*
X21416655Y16408343D01*
X21384285Y16287535D01*
X21384285Y16162465D01*
X21416655Y16041657D01*
X21455139Y15975000D01*
X20407054Y15975000D01*
X20417527Y15908874D01*
X20417527Y15908871D01*
X20483189Y15706783D01*
X20579664Y15517443D01*
X20704557Y15345541D01*
X20704561Y15345536D01*
X20837614Y15212483D01*
X20871099Y15151160D01*
X20866115Y15081468D01*
X20824243Y15025535D01*
X20815030Y15019264D01*
X20660636Y14924033D01*
X20660632Y14924030D01*
X20535256Y14798654D01*
X20442171Y14647741D01*
X20442169Y14647736D01*
X20386398Y14479428D01*
X20375785Y14375553D01*
X20375785Y13074463D01*
X20375786Y13074447D01*
X20386398Y12970574D01*
X20442170Y12802262D01*
X20535255Y12651348D01*
X20660633Y12525970D01*
X20811547Y12432885D01*
X20979859Y12377113D01*
X21083740Y12366500D01*
X22634829Y12366501D01*
X22738711Y12377113D01*
X22907023Y12432885D01*
X23057937Y12525970D01*
X23183315Y12651348D01*
X23276400Y12802262D01*
X23332172Y12970574D01*
X23342785Y13074455D01*
X23342784Y14375544D01*
X23332172Y14479426D01*
X23276400Y14647738D01*
X23183315Y14798652D01*
X23057937Y14924030D01*
X22907023Y15017115D01*
X22907019Y15017117D01*
X22903539Y15019263D01*
X22856815Y15071211D01*
X22845592Y15140174D01*
X22873436Y15204256D01*
X22880955Y15212484D01*
X23014013Y15345542D01*
X23138905Y15517443D01*
X23235380Y15706783D01*
X23301042Y15908871D01*
X23301042Y15908874D01*
X23311516Y15975000D01*
X22263431Y15975000D01*
X22301915Y16041657D01*
X22334285Y16162465D01*
X22334285Y16287535D01*
X22301915Y16408343D01*
X22263431Y16475000D01*
X23311516Y16475000D01*
X23301042Y16541127D01*
X23301042Y16541130D01*
X23235380Y16743218D01*
X23138905Y16932558D01*
X23014012Y17104460D01*
X23014008Y17104465D01*
X22863749Y17254724D01*
X22863744Y17254728D01*
X22705872Y17369429D01*
X22663206Y17424759D01*
X22657227Y17494372D01*
X22689833Y17556167D01*
X22705872Y17570065D01*
X22869289Y17688794D01*
X23020491Y17839996D01*
X23146179Y18012991D01*
X23243257Y18203517D01*
X23309334Y18406884D01*
X23342785Y18618084D01*
X23342785Y18831916D01*
X23309334Y19043116D01*
X23243257Y19246483D01*
X23243257Y19246484D01*
X23146178Y19437010D01*
X23020491Y19610004D01*
X22869289Y19761206D01*
X22696294Y19886894D01*
X22692987Y19888579D01*
X22505768Y19983973D01*
X22505765Y19983974D01*
X22302402Y20050049D01*
X22196801Y20066775D01*
X22091201Y20083500D01*
X21627369Y20083500D01*
X21575710Y20075318D01*
X21416167Y20050049D01*
X21212804Y19983974D01*
X21212801Y19983973D01*
X21022275Y19886894D01*
X20849278Y19761204D01*
X20698081Y19610007D01*
X20572391Y19437010D01*
X20475312Y19246484D01*
X20475311Y19246481D01*
X20409236Y19043118D01*
X20375785Y18831916D01*
X14233500Y18831916D01*
X14200049Y19043116D01*
X14133972Y19246483D01*
X14133972Y19246484D01*
X14036893Y19437010D01*
X13911206Y19610004D01*
X13760004Y19761206D01*
X13760000Y19761209D01*
X13603818Y19874682D01*
X13561152Y19930012D01*
X13555173Y19999625D01*
X13587779Y20061420D01*
X13603818Y20075318D01*
X13654200Y20111924D01*
X13760004Y20188794D01*
X13911206Y20339996D01*
X14036894Y20512991D01*
X14133972Y20703517D01*
X14200049Y20906884D01*
X14233500Y21118084D01*
X14233500Y21331916D01*
X14200049Y21543116D01*
X14133972Y21746483D01*
X14133972Y21746484D01*
X14036893Y21937010D01*
X13911206Y22110004D01*
X13760004Y22261206D01*
X13587009Y22386894D01*
X13396483Y22483973D01*
X13396480Y22483974D01*
X13193117Y22550049D01*
X13087516Y22566775D01*
X12981916Y22583500D01*
X12518084Y22583500D01*
X12447684Y22572350D01*
X12306882Y22550049D01*
X12103519Y22483974D01*
X12103516Y22483973D01*
X11912990Y22386894D01*
X11739993Y22261204D01*
X11588796Y22110007D01*
X11463106Y21937010D01*
X11366027Y21746484D01*
X11366026Y21746481D01*
X11299951Y21543118D01*
X11266500Y21331916D01*
X159901Y21331916D01*
X124666Y39900553D01*
X3891500Y39900553D01*
X3891500Y38599463D01*
X3891501Y38599447D01*
X3902113Y38495573D01*
X3957884Y38327265D01*
X3957885Y38327262D01*
X4050970Y38176348D01*
X4176348Y38050970D01*
X4327262Y37957885D01*
X4327266Y37957884D01*
X4330745Y37955738D01*
X4377469Y37903790D01*
X4388692Y37834827D01*
X4360848Y37770745D01*
X4353330Y37762518D01*
X4220271Y37629459D01*
X4095379Y37457558D01*
X3998904Y37268218D01*
X3933242Y37066130D01*
X3933242Y37066127D01*
X3922769Y37000000D01*
X4966988Y37000000D01*
X4934075Y36942993D01*
X4900000Y36815826D01*
X4900000Y36684174D01*
X4934075Y36557007D01*
X4966988Y36500000D01*
X3922769Y36500000D01*
X3933242Y36433874D01*
X3933242Y36433871D01*
X3998904Y36231783D01*
X4095379Y36042443D01*
X4220272Y35870541D01*
X4220276Y35870536D01*
X4370535Y35720277D01*
X4370540Y35720273D01*
X4542442Y35595380D01*
X4731782Y35498905D01*
X4933870Y35433243D01*
X5143754Y35400000D01*
X5150000Y35400000D01*
X5150000Y36316988D01*
X5207007Y36284075D01*
X5334174Y36250000D01*
X5465826Y36250000D01*
X5592993Y36284075D01*
X5650000Y36316988D01*
X5650000Y35400000D01*
X5656246Y35400000D01*
X5866127Y35433243D01*
X5866130Y35433243D01*
X6068217Y35498905D01*
X6257557Y35595380D01*
X6429459Y35720273D01*
X6429464Y35720277D01*
X6579723Y35870536D01*
X6579727Y35870541D01*
X6704620Y36042443D01*
X6801095Y36231783D01*
X6866757Y36433871D01*
X6866757Y36433874D01*
X6877231Y36500000D01*
X5833012Y36500000D01*
X5865925Y36557007D01*
X5900000Y36684174D01*
X5900000Y36815826D01*
X5865925Y36942993D01*
X5833012Y37000000D01*
X6877231Y37000000D01*
X6866757Y37066127D01*
X6866757Y37066130D01*
X6801095Y37268218D01*
X6704620Y37457558D01*
X6579727Y37629460D01*
X6579723Y37629465D01*
X6446670Y37762518D01*
X6413185Y37823841D01*
X6418169Y37893533D01*
X6460041Y37949466D01*
X6469255Y37955738D01*
X6472733Y37957884D01*
X6472738Y37957885D01*
X6623652Y38050970D01*
X6749030Y38176348D01*
X6842115Y38327262D01*
X6897887Y38495574D01*
X6908500Y38599455D01*
X6908499Y39900544D01*
X6897887Y40004426D01*
X6842115Y40172738D01*
X6749030Y40323652D01*
X6623652Y40449030D01*
X6472738Y40542115D01*
X6472735Y40542116D01*
X6304427Y40597887D01*
X6200545Y40608500D01*
X4599462Y40608500D01*
X4599446Y40608499D01*
X4495572Y40597887D01*
X4327264Y40542116D01*
X4327259Y40542114D01*
X4176346Y40449029D01*
X4050971Y40323654D01*
X3957886Y40172741D01*
X3957884Y40172736D01*
X3902113Y40004428D01*
X3891500Y39900553D01*
X124666Y39900553D01*
X118392Y43206916D01*
X11266500Y43206916D01*
X11266500Y42993085D01*
X11299951Y42781883D01*
X11366026Y42578520D01*
X11366027Y42578517D01*
X11463106Y42387991D01*
X11588794Y42214996D01*
X11739996Y42063794D01*
X11842344Y41989434D01*
X11896182Y41950318D01*
X11938847Y41894988D01*
X11944826Y41825374D01*
X11912220Y41763579D01*
X11896182Y41749682D01*
X11827297Y41699635D01*
X11739996Y41636206D01*
X11739994Y41636204D01*
X11739993Y41636204D01*
X11588796Y41485007D01*
X11463106Y41312010D01*
X11366027Y41121484D01*
X11366026Y41121481D01*
X11299951Y40918118D01*
X11266500Y40706916D01*
X11266500Y40493085D01*
X11299951Y40281883D01*
X11366026Y40078520D01*
X11366027Y40078517D01*
X11433156Y39946771D01*
X11463106Y39887991D01*
X11588794Y39714996D01*
X11739996Y39563794D01*
X11828568Y39499443D01*
X11896182Y39450318D01*
X11938847Y39394988D01*
X11944826Y39325374D01*
X11912220Y39263579D01*
X11896182Y39249682D01*
X11827297Y39199635D01*
X11739996Y39136206D01*
X11739994Y39136204D01*
X11739993Y39136204D01*
X11588796Y38985007D01*
X11463106Y38812010D01*
X11366027Y38621484D01*
X11366026Y38621481D01*
X11299951Y38418118D01*
X11285561Y38327262D01*
X11266500Y38206916D01*
X11266500Y37993084D01*
X11282267Y37893533D01*
X11299951Y37781883D01*
X11366026Y37578520D01*
X11366027Y37578517D01*
X11463106Y37387991D01*
X11588794Y37214996D01*
X11739996Y37063794D01*
X11816102Y37008500D01*
X11896182Y36950318D01*
X11938847Y36894988D01*
X11944826Y36825374D01*
X11912220Y36763579D01*
X11896182Y36749682D01*
X11827297Y36699635D01*
X11739996Y36636206D01*
X11739994Y36636204D01*
X11739993Y36636204D01*
X11588796Y36485007D01*
X11463106Y36312010D01*
X11366027Y36121484D01*
X11366026Y36121481D01*
X11299951Y35918118D01*
X11266500Y35706916D01*
X11266500Y35493085D01*
X11299951Y35281883D01*
X11366026Y35078520D01*
X11366027Y35078517D01*
X11450368Y34912991D01*
X11463106Y34887991D01*
X11588794Y34714996D01*
X11739996Y34563794D01*
X11739999Y34563792D01*
X11903412Y34445065D01*
X11946078Y34389735D01*
X11952057Y34320122D01*
X11919451Y34258327D01*
X11903413Y34244429D01*
X11745535Y34129724D01*
X11595276Y33979465D01*
X11595272Y33979460D01*
X11470379Y33807558D01*
X11373904Y33618218D01*
X11308242Y33416130D01*
X11308242Y33416127D01*
X11297769Y33350000D01*
X12345854Y33350000D01*
X12307370Y33283343D01*
X12275000Y33162535D01*
X12275000Y33037465D01*
X12307370Y32916657D01*
X12345854Y32850000D01*
X11297769Y32850000D01*
X11308242Y32783874D01*
X11308242Y32783871D01*
X11373904Y32581783D01*
X11470379Y32392443D01*
X11595272Y32220541D01*
X11595276Y32220536D01*
X11728329Y32087483D01*
X11761814Y32026160D01*
X11756830Y31956468D01*
X11714958Y31900535D01*
X11705745Y31894264D01*
X11551351Y31799033D01*
X11551347Y31799030D01*
X11425971Y31673654D01*
X11332886Y31522741D01*
X11332884Y31522736D01*
X11277113Y31354428D01*
X11266500Y31250553D01*
X11266500Y29949463D01*
X11266501Y29949447D01*
X11274559Y29870574D01*
X11277113Y29845574D01*
X11332885Y29677262D01*
X11425970Y29526348D01*
X11551348Y29400970D01*
X11702262Y29307885D01*
X11870574Y29252113D01*
X11974455Y29241500D01*
X13525544Y29241501D01*
X13629426Y29252113D01*
X13797738Y29307885D01*
X13948652Y29400970D01*
X14074030Y29526348D01*
X14167115Y29677262D01*
X14222887Y29845574D01*
X14233500Y29949455D01*
X14233499Y31250544D01*
X14222887Y31354426D01*
X14167115Y31522738D01*
X14074030Y31673652D01*
X13948652Y31799030D01*
X13797738Y31892115D01*
X13797734Y31892117D01*
X13794254Y31894263D01*
X13747530Y31946211D01*
X13736307Y32015174D01*
X13764151Y32079256D01*
X13771670Y32087484D01*
X13904728Y32220542D01*
X14029620Y32392443D01*
X14126095Y32581783D01*
X14191757Y32783871D01*
X14191757Y32783874D01*
X14202231Y32850000D01*
X13154146Y32850000D01*
X13192630Y32916657D01*
X13225000Y33037465D01*
X13225000Y33162535D01*
X13192630Y33283343D01*
X13154146Y33350000D01*
X14202231Y33350000D01*
X14191757Y33416127D01*
X14191757Y33416130D01*
X14126095Y33618218D01*
X14029620Y33807558D01*
X13904727Y33979460D01*
X13904723Y33979465D01*
X13754464Y34129724D01*
X13754459Y34129728D01*
X13596587Y34244429D01*
X13553921Y34299759D01*
X13547942Y34369372D01*
X13580548Y34431167D01*
X13596587Y34445065D01*
X13611868Y34456167D01*
X13760004Y34563794D01*
X13911206Y34714996D01*
X14036894Y34887991D01*
X14133972Y35078517D01*
X14200049Y35281884D01*
X14233500Y35493084D01*
X14233500Y35706916D01*
X20375785Y35706916D01*
X20375785Y35493085D01*
X20409236Y35281883D01*
X20475311Y35078520D01*
X20475312Y35078517D01*
X20559653Y34912991D01*
X20572391Y34887991D01*
X20698079Y34714996D01*
X20849281Y34563794D01*
X20849284Y34563792D01*
X21012697Y34445065D01*
X21055363Y34389735D01*
X21061342Y34320122D01*
X21028736Y34258327D01*
X21012698Y34244429D01*
X20854820Y34129724D01*
X20704561Y33979465D01*
X20704557Y33979460D01*
X20579664Y33807558D01*
X20483189Y33618218D01*
X20417527Y33416130D01*
X20417527Y33416127D01*
X20407054Y33350000D01*
X21455139Y33350000D01*
X21416655Y33283343D01*
X21384285Y33162535D01*
X21384285Y33037465D01*
X21416655Y32916657D01*
X21455139Y32850000D01*
X20407054Y32850000D01*
X20417527Y32783874D01*
X20417527Y32783871D01*
X20483189Y32581783D01*
X20579664Y32392443D01*
X20704557Y32220541D01*
X20704561Y32220536D01*
X20837614Y32087483D01*
X20871099Y32026160D01*
X20866115Y31956468D01*
X20824243Y31900535D01*
X20815030Y31894264D01*
X20660636Y31799033D01*
X20660632Y31799030D01*
X20535256Y31673654D01*
X20442171Y31522741D01*
X20442169Y31522736D01*
X20386398Y31354428D01*
X20375785Y31250553D01*
X20375785Y29949463D01*
X20375786Y29949447D01*
X20383844Y29870574D01*
X20386398Y29845574D01*
X20442170Y29677262D01*
X20535255Y29526348D01*
X20660633Y29400970D01*
X20811547Y29307885D01*
X20979859Y29252113D01*
X21083740Y29241500D01*
X22634829Y29241501D01*
X22738711Y29252113D01*
X22907023Y29307885D01*
X23057937Y29400970D01*
X23183315Y29526348D01*
X23276400Y29677262D01*
X23332172Y29845574D01*
X23342785Y29949455D01*
X23342784Y31250544D01*
X23332172Y31354426D01*
X23276400Y31522738D01*
X23183315Y31673652D01*
X23057937Y31799030D01*
X22907023Y31892115D01*
X22907019Y31892117D01*
X22903539Y31894263D01*
X22856815Y31946211D01*
X22845592Y32015174D01*
X22873436Y32079256D01*
X22880955Y32087484D01*
X23014013Y32220542D01*
X23138905Y32392443D01*
X23235380Y32581783D01*
X23301042Y32783871D01*
X23301042Y32783874D01*
X23311516Y32850000D01*
X22263431Y32850000D01*
X22301915Y32916657D01*
X22334285Y33037465D01*
X22334285Y33162535D01*
X22301915Y33283343D01*
X22263431Y33350000D01*
X23311516Y33350000D01*
X23301042Y33416127D01*
X23301042Y33416130D01*
X23235380Y33618218D01*
X23138905Y33807558D01*
X23014012Y33979460D01*
X23014008Y33979465D01*
X22863749Y34129724D01*
X22863744Y34129728D01*
X22705872Y34244429D01*
X22663206Y34299759D01*
X22657227Y34369372D01*
X22689833Y34431167D01*
X22705872Y34445065D01*
X22721153Y34456167D01*
X22869289Y34563794D01*
X23020491Y34714996D01*
X23146179Y34887991D01*
X23243257Y35078517D01*
X23309334Y35281884D01*
X23342785Y35493084D01*
X23342785Y35706916D01*
X29485070Y35706916D01*
X29485070Y35493085D01*
X29518521Y35281883D01*
X29584596Y35078520D01*
X29584597Y35078517D01*
X29668938Y34912991D01*
X29681676Y34887991D01*
X29807364Y34714996D01*
X29958566Y34563794D01*
X29958569Y34563792D01*
X30121982Y34445065D01*
X30164648Y34389735D01*
X30170627Y34320122D01*
X30138021Y34258327D01*
X30121983Y34244429D01*
X29964105Y34129724D01*
X29813846Y33979465D01*
X29813842Y33979460D01*
X29688949Y33807558D01*
X29592474Y33618218D01*
X29526812Y33416130D01*
X29526812Y33416127D01*
X29516339Y33350000D01*
X30564424Y33350000D01*
X30525940Y33283343D01*
X30493570Y33162535D01*
X30493570Y33037465D01*
X30525940Y32916657D01*
X30564424Y32850000D01*
X29516339Y32850000D01*
X29526812Y32783874D01*
X29526812Y32783871D01*
X29592474Y32581783D01*
X29688949Y32392443D01*
X29813842Y32220541D01*
X29813846Y32220536D01*
X29946899Y32087483D01*
X29980384Y32026160D01*
X29975400Y31956468D01*
X29933528Y31900535D01*
X29924315Y31894264D01*
X29769921Y31799033D01*
X29769917Y31799030D01*
X29644541Y31673654D01*
X29551456Y31522741D01*
X29551454Y31522736D01*
X29495683Y31354428D01*
X29485070Y31250553D01*
X29485070Y29949463D01*
X29485071Y29949447D01*
X29493129Y29870574D01*
X29495683Y29845574D01*
X29551455Y29677262D01*
X29644540Y29526348D01*
X29769918Y29400970D01*
X29920832Y29307885D01*
X30089144Y29252113D01*
X30193025Y29241500D01*
X31744114Y29241501D01*
X31847996Y29252113D01*
X32016308Y29307885D01*
X32167222Y29400970D01*
X32292600Y29526348D01*
X32385685Y29677262D01*
X32441457Y29845574D01*
X32452070Y29949455D01*
X32452069Y31250544D01*
X32441457Y31354426D01*
X32385685Y31522738D01*
X32292600Y31673652D01*
X32167222Y31799030D01*
X32016308Y31892115D01*
X32016304Y31892117D01*
X32012824Y31894263D01*
X31966100Y31946211D01*
X31954877Y32015174D01*
X31982721Y32079256D01*
X31990240Y32087484D01*
X32123298Y32220542D01*
X32248190Y32392443D01*
X32344665Y32581783D01*
X32410327Y32783871D01*
X32410327Y32783874D01*
X32420801Y32850000D01*
X31372716Y32850000D01*
X31411200Y32916657D01*
X31443570Y33037465D01*
X31443570Y33162535D01*
X31411200Y33283343D01*
X31372716Y33350000D01*
X32420801Y33350000D01*
X32410327Y33416127D01*
X32410327Y33416130D01*
X32344665Y33618218D01*
X32248190Y33807558D01*
X32123297Y33979460D01*
X32123293Y33979465D01*
X31973034Y34129724D01*
X31973029Y34129728D01*
X31815157Y34244429D01*
X31772491Y34299759D01*
X31766512Y34369372D01*
X31799118Y34431167D01*
X31815157Y34445065D01*
X31830438Y34456167D01*
X31978574Y34563794D01*
X32129776Y34714996D01*
X32255464Y34887991D01*
X32352542Y35078517D01*
X32418619Y35281884D01*
X32452070Y35493084D01*
X32452070Y35706916D01*
X32418619Y35918116D01*
X32352542Y36121483D01*
X32352542Y36121484D01*
X32255463Y36312010D01*
X32237300Y36337009D01*
X32129776Y36485004D01*
X31978574Y36636206D01*
X31805579Y36761894D01*
X31756514Y36786894D01*
X31615053Y36858973D01*
X31615050Y36858974D01*
X31411687Y36925049D01*
X31253843Y36950049D01*
X31200486Y36958500D01*
X30736654Y36958500D01*
X30684995Y36950318D01*
X30525452Y36925049D01*
X30322089Y36858974D01*
X30322086Y36858973D01*
X30131560Y36761894D01*
X29958563Y36636204D01*
X29807366Y36485007D01*
X29681676Y36312010D01*
X29584597Y36121484D01*
X29584596Y36121481D01*
X29518521Y35918118D01*
X29485070Y35706916D01*
X23342785Y35706916D01*
X23309334Y35918116D01*
X23243257Y36121483D01*
X23243257Y36121484D01*
X23146178Y36312010D01*
X23128015Y36337009D01*
X23020491Y36485004D01*
X22869289Y36636206D01*
X22696294Y36761894D01*
X22647229Y36786894D01*
X22505768Y36858973D01*
X22505765Y36858974D01*
X22302402Y36925049D01*
X22144558Y36950049D01*
X22091201Y36958500D01*
X21627369Y36958500D01*
X21575710Y36950318D01*
X21416167Y36925049D01*
X21212804Y36858974D01*
X21212801Y36858973D01*
X21022275Y36761894D01*
X20849278Y36636204D01*
X20698081Y36485007D01*
X20572391Y36312010D01*
X20475312Y36121484D01*
X20475311Y36121481D01*
X20409236Y35918118D01*
X20375785Y35706916D01*
X14233500Y35706916D01*
X14200049Y35918116D01*
X14133972Y36121483D01*
X14133972Y36121484D01*
X14036893Y36312010D01*
X14018730Y36337009D01*
X13911206Y36485004D01*
X13760004Y36636206D01*
X13725597Y36661204D01*
X13603818Y36749682D01*
X13561152Y36805012D01*
X13555173Y36874625D01*
X13587779Y36936420D01*
X13603818Y36950318D01*
X13683898Y37008500D01*
X13760004Y37063794D01*
X13911206Y37214996D01*
X14036894Y37387991D01*
X14133972Y37578517D01*
X14200049Y37781884D01*
X14233500Y37993084D01*
X14233500Y38206916D01*
X14200049Y38418116D01*
X14141132Y38599448D01*
X14133973Y38621481D01*
X14133972Y38621484D01*
X14036893Y38812010D01*
X13911206Y38985004D01*
X13760004Y39136206D01*
X13699512Y39180156D01*
X13603818Y39249682D01*
X13561152Y39305012D01*
X13557288Y39350004D01*
X37836701Y39350004D01*
X37836701Y39349997D01*
X37855836Y39180156D01*
X37855837Y39180151D01*
X37871215Y39136204D01*
X37912291Y39018817D01*
X38003229Y38874091D01*
X38124091Y38753229D01*
X38268817Y38662291D01*
X38430150Y38605838D01*
X38430151Y38605838D01*
X38431291Y38605439D01*
X38478018Y38576078D01*
X39931004Y37123092D01*
X39964489Y37061769D01*
X39959505Y36992077D01*
X39917633Y36936144D01*
X39881642Y36917480D01*
X39778516Y36883972D01*
X39587990Y36786894D01*
X39414993Y36661204D01*
X39263796Y36510007D01*
X39138106Y36337010D01*
X39041027Y36146484D01*
X39041026Y36146481D01*
X38974951Y35943118D01*
X38970991Y35918116D01*
X38941500Y35731916D01*
X38941500Y35518084D01*
X38945460Y35493084D01*
X38974951Y35306883D01*
X39041026Y35103520D01*
X39041027Y35103517D01*
X39125368Y34937991D01*
X39138106Y34912991D01*
X39263794Y34739996D01*
X39414996Y34588794D01*
X39449406Y34563794D01*
X39578412Y34470065D01*
X39621078Y34414735D01*
X39627057Y34345122D01*
X39594451Y34283327D01*
X39578413Y34269429D01*
X39420535Y34154724D01*
X39270276Y34004465D01*
X39270272Y34004460D01*
X39145379Y33832558D01*
X39048904Y33643218D01*
X38983242Y33441130D01*
X38983242Y33441127D01*
X38972769Y33375000D01*
X40020854Y33375000D01*
X39982370Y33308343D01*
X39950000Y33187535D01*
X39950000Y33062465D01*
X39982370Y32941657D01*
X40020854Y32875000D01*
X38972769Y32875000D01*
X38983242Y32808874D01*
X38983242Y32808871D01*
X39048904Y32606783D01*
X39145379Y32417443D01*
X39270272Y32245541D01*
X39270276Y32245536D01*
X39403329Y32112483D01*
X39436814Y32051160D01*
X39431830Y31981468D01*
X39389958Y31925535D01*
X39380745Y31919264D01*
X39226351Y31824033D01*
X39226347Y31824030D01*
X39100971Y31698654D01*
X39007886Y31547741D01*
X39007884Y31547736D01*
X38952113Y31379428D01*
X38941500Y31275553D01*
X38941500Y29974463D01*
X38941501Y29974447D01*
X38952113Y29870574D01*
X39007885Y29702262D01*
X39100970Y29551348D01*
X39226348Y29425970D01*
X39377262Y29332885D01*
X39545574Y29277113D01*
X39649455Y29266500D01*
X41200544Y29266501D01*
X41304426Y29277113D01*
X41472738Y29332885D01*
X41623652Y29425970D01*
X41749030Y29551348D01*
X41842115Y29702262D01*
X41897887Y29870574D01*
X41908500Y29974455D01*
X41908499Y31275544D01*
X41897887Y31379426D01*
X41842115Y31547738D01*
X41749030Y31698652D01*
X41623652Y31824030D01*
X41472738Y31917115D01*
X41472734Y31917117D01*
X41469254Y31919263D01*
X41422530Y31971211D01*
X41411307Y32040174D01*
X41439151Y32104256D01*
X41446670Y32112484D01*
X41579728Y32245542D01*
X41704620Y32417443D01*
X41801095Y32606783D01*
X41866757Y32808871D01*
X41866757Y32808874D01*
X41877231Y32875000D01*
X40829146Y32875000D01*
X40867630Y32941657D01*
X40900000Y33062465D01*
X40900000Y33187535D01*
X40867630Y33308343D01*
X40829146Y33375000D01*
X41877231Y33375000D01*
X41866757Y33441127D01*
X41866757Y33441130D01*
X41801095Y33643218D01*
X41704620Y33832558D01*
X41579727Y34004460D01*
X41579723Y34004465D01*
X41429464Y34154724D01*
X41429459Y34154728D01*
X41271587Y34269429D01*
X41228921Y34324759D01*
X41222942Y34394372D01*
X41255548Y34456167D01*
X41271587Y34470065D01*
X41294098Y34486420D01*
X41435004Y34588794D01*
X41586206Y34739996D01*
X41711894Y34912991D01*
X41779287Y35045258D01*
X41827262Y35096053D01*
X41895083Y35112848D01*
X41961218Y35090311D01*
X41977453Y35076643D01*
X52670181Y24383915D01*
X52703666Y24322592D01*
X52706500Y24296234D01*
X52706500Y3815731D01*
X52686815Y3748692D01*
X52641520Y3706677D01*
X52594422Y3681189D01*
X52594422Y3681188D01*
X52416761Y3542908D01*
X52353548Y3474240D01*
X52293661Y3438250D01*
X52223823Y3440351D01*
X52166207Y3479876D01*
X52146138Y3514890D01*
X52100889Y3636204D01*
X52067214Y3681188D01*
X52013261Y3753261D01*
X51896204Y3840889D01*
X51895172Y3841274D01*
X51759203Y3891989D01*
X51698654Y3898500D01*
X51698638Y3898500D01*
X49901362Y3898500D01*
X49901345Y3898500D01*
X49840797Y3891989D01*
X49840795Y3891989D01*
X49703795Y3840889D01*
X49586739Y3753261D01*
X49499111Y3636205D01*
X49448011Y3499205D01*
X49448011Y3499203D01*
X49441500Y3438655D01*
X49441500Y1641346D01*
X49448011Y1580798D01*
X49448011Y1580796D01*
X49499111Y1443796D01*
X49586739Y1326739D01*
X49703796Y1239111D01*
X49840799Y1188011D01*
X49868050Y1185082D01*
X49901345Y1181501D01*
X49901362Y1181500D01*
X51698638Y1181500D01*
X51698654Y1181501D01*
X51725692Y1184409D01*
X51759201Y1188011D01*
X51896204Y1239111D01*
X52013261Y1326739D01*
X52100889Y1443796D01*
X52146138Y1565113D01*
X52188009Y1621044D01*
X52253474Y1645461D01*
X52321746Y1630609D01*
X52353545Y1605764D01*
X52416760Y1537094D01*
X52594424Y1398811D01*
X52594425Y1398811D01*
X52594427Y1398809D01*
X52721135Y1330239D01*
X52792426Y1291658D01*
X53005365Y1218556D01*
X53227431Y1181500D01*
X53452569Y1181500D01*
X53674635Y1218556D01*
X53887574Y1291658D01*
X54085576Y1398811D01*
X54263240Y1537094D01*
X54384594Y1668918D01*
X54415715Y1702724D01*
X54415715Y1702725D01*
X54415722Y1702732D01*
X54506193Y1841210D01*
X54559338Y1886563D01*
X54628569Y1895987D01*
X54691905Y1866485D01*
X54713804Y1841213D01*
X54804278Y1702732D01*
X54804283Y1702727D01*
X54804284Y1702724D01*
X54930968Y1565111D01*
X54956760Y1537094D01*
X55134424Y1398811D01*
X55134425Y1398811D01*
X55134427Y1398809D01*
X55261135Y1330239D01*
X55332426Y1291658D01*
X55545365Y1218556D01*
X55767431Y1181500D01*
X55992569Y1181500D01*
X56214635Y1218556D01*
X56427574Y1291658D01*
X56625576Y1398811D01*
X56803240Y1537094D01*
X56924594Y1668918D01*
X56955715Y1702724D01*
X56955715Y1702725D01*
X56955722Y1702732D01*
X57046193Y1841210D01*
X57099338Y1886563D01*
X57168569Y1895987D01*
X57231905Y1866485D01*
X57253804Y1841213D01*
X57344278Y1702732D01*
X57344283Y1702727D01*
X57344284Y1702724D01*
X57470968Y1565111D01*
X57496760Y1537094D01*
X57674424Y1398811D01*
X57674425Y1398811D01*
X57674427Y1398809D01*
X57801135Y1330239D01*
X57872426Y1291658D01*
X58085365Y1218556D01*
X58307431Y1181500D01*
X58532569Y1181500D01*
X58754635Y1218556D01*
X58967574Y1291658D01*
X59165576Y1398811D01*
X59343240Y1537094D01*
X59464594Y1668918D01*
X59495715Y1702724D01*
X59495715Y1702725D01*
X59495722Y1702732D01*
X59586193Y1841210D01*
X59639338Y1886563D01*
X59708569Y1895987D01*
X59771905Y1866485D01*
X59793804Y1841213D01*
X59884278Y1702732D01*
X59884283Y1702727D01*
X59884284Y1702724D01*
X60010968Y1565111D01*
X60036760Y1537094D01*
X60214424Y1398811D01*
X60214425Y1398811D01*
X60214427Y1398809D01*
X60341135Y1330239D01*
X60412426Y1291658D01*
X60625365Y1218556D01*
X60847431Y1181500D01*
X61072569Y1181500D01*
X61294635Y1218556D01*
X61507574Y1291658D01*
X61705576Y1398811D01*
X61883240Y1537094D01*
X62004594Y1668918D01*
X62035715Y1702724D01*
X62035715Y1702725D01*
X62035722Y1702732D01*
X62126193Y1841210D01*
X62179338Y1886563D01*
X62248569Y1895987D01*
X62311905Y1866485D01*
X62333804Y1841213D01*
X62424278Y1702732D01*
X62424283Y1702727D01*
X62424284Y1702724D01*
X62550968Y1565111D01*
X62576760Y1537094D01*
X62754424Y1398811D01*
X62754425Y1398811D01*
X62754427Y1398809D01*
X62881135Y1330239D01*
X62952426Y1291658D01*
X63165365Y1218556D01*
X63387431Y1181500D01*
X63612569Y1181500D01*
X63834635Y1218556D01*
X64047574Y1291658D01*
X64245576Y1398811D01*
X64423240Y1537094D01*
X64544594Y1668918D01*
X64575715Y1702724D01*
X64575717Y1702727D01*
X64575722Y1702732D01*
X64698860Y1891209D01*
X64789296Y2097384D01*
X64844564Y2315632D01*
X64847164Y2347007D01*
X64863156Y2539995D01*
X64863156Y2540006D01*
X64844565Y2764360D01*
X64844563Y2764372D01*
X64789296Y2982615D01*
X64779071Y3005925D01*
X64698860Y3188791D01*
X64682706Y3213516D01*
X64575723Y3377266D01*
X64575715Y3377277D01*
X64423243Y3542903D01*
X64423238Y3542908D01*
X64245577Y3681188D01*
X64245572Y3681192D01*
X64047580Y3788339D01*
X64047577Y3788341D01*
X64047574Y3788342D01*
X64047571Y3788343D01*
X64047569Y3788344D01*
X63834637Y3861444D01*
X63612569Y3898500D01*
X63387431Y3898500D01*
X63165362Y3861444D01*
X62952430Y3788344D01*
X62952419Y3788339D01*
X62754427Y3681192D01*
X62754422Y3681188D01*
X62576761Y3542908D01*
X62576756Y3542903D01*
X62424284Y3377277D01*
X62424276Y3377266D01*
X62333808Y3238794D01*
X62280662Y3193438D01*
X62211431Y3184014D01*
X62148095Y3213516D01*
X62126192Y3238794D01*
X62035723Y3377266D01*
X62035715Y3377277D01*
X61883243Y3542903D01*
X61883238Y3542908D01*
X61705577Y3681188D01*
X61705572Y3681192D01*
X61507580Y3788339D01*
X61507577Y3788341D01*
X61507574Y3788342D01*
X61507571Y3788343D01*
X61507569Y3788344D01*
X61294637Y3861444D01*
X61072569Y3898500D01*
X60847431Y3898500D01*
X60625362Y3861444D01*
X60412430Y3788344D01*
X60412419Y3788339D01*
X60214427Y3681192D01*
X60214422Y3681188D01*
X60036761Y3542908D01*
X60036756Y3542903D01*
X59884284Y3377277D01*
X59884276Y3377266D01*
X59793808Y3238794D01*
X59740662Y3193438D01*
X59671431Y3184014D01*
X59608095Y3213516D01*
X59586192Y3238794D01*
X59495723Y3377266D01*
X59495715Y3377277D01*
X59343243Y3542903D01*
X59343238Y3542908D01*
X59165577Y3681188D01*
X59165572Y3681192D01*
X58967580Y3788339D01*
X58967577Y3788341D01*
X58967574Y3788342D01*
X58967571Y3788343D01*
X58967569Y3788344D01*
X58754637Y3861444D01*
X58532569Y3898500D01*
X58307431Y3898500D01*
X58085362Y3861444D01*
X57872430Y3788344D01*
X57872419Y3788339D01*
X57674427Y3681192D01*
X57674422Y3681188D01*
X57496761Y3542908D01*
X57496756Y3542903D01*
X57344284Y3377277D01*
X57344276Y3377266D01*
X57253808Y3238794D01*
X57200662Y3193438D01*
X57131431Y3184014D01*
X57068095Y3213516D01*
X57046192Y3238794D01*
X56955723Y3377266D01*
X56955715Y3377277D01*
X56803243Y3542903D01*
X56803238Y3542908D01*
X56625577Y3681188D01*
X56625572Y3681192D01*
X56427580Y3788339D01*
X56427577Y3788341D01*
X56427574Y3788342D01*
X56427571Y3788343D01*
X56427569Y3788344D01*
X56214637Y3861444D01*
X55992569Y3898500D01*
X55767431Y3898500D01*
X55545362Y3861444D01*
X55332430Y3788344D01*
X55332419Y3788339D01*
X55134427Y3681192D01*
X55134422Y3681188D01*
X54956761Y3542908D01*
X54956756Y3542903D01*
X54804284Y3377277D01*
X54804276Y3377266D01*
X54713808Y3238794D01*
X54660662Y3193438D01*
X54591431Y3184014D01*
X54528095Y3213516D01*
X54506192Y3238794D01*
X54415723Y3377266D01*
X54415715Y3377277D01*
X54263243Y3542903D01*
X54263238Y3542908D01*
X54085577Y3681188D01*
X54085577Y3681189D01*
X54038480Y3706677D01*
X53988891Y3755898D01*
X53973500Y3815731D01*
X53973500Y24672395D01*
X53973499Y24672399D01*
X53949156Y24794778D01*
X53949155Y24794785D01*
X53901400Y24910075D01*
X53901399Y24910076D01*
X53901396Y24910082D01*
X53832072Y25013832D01*
X53832071Y25013833D01*
X53743833Y25102071D01*
X49757584Y29088320D01*
X49724099Y29149643D01*
X49729083Y29219335D01*
X49770955Y29275268D01*
X49836419Y29299685D01*
X49845265Y29300001D01*
X50124999Y29300001D01*
X50125000Y29300002D01*
X50125000Y30245855D01*
X50191657Y30207370D01*
X50312465Y30175000D01*
X50437535Y30175000D01*
X50558343Y30207370D01*
X50625000Y30245855D01*
X50625000Y29300001D01*
X51149972Y29300001D01*
X51149986Y29300002D01*
X51252697Y29310495D01*
X51419119Y29365642D01*
X51419124Y29365644D01*
X51568345Y29457685D01*
X51692315Y29581655D01*
X51784356Y29730876D01*
X51784358Y29730881D01*
X51839505Y29897303D01*
X51839506Y29897310D01*
X51849999Y30000014D01*
X51850000Y30000027D01*
X51850000Y30400000D01*
X50779146Y30400000D01*
X50817630Y30466657D01*
X50850000Y30587465D01*
X50850000Y30712535D01*
X50817630Y30833343D01*
X50779146Y30900000D01*
X51849999Y30900000D01*
X51849999Y31299972D01*
X51849998Y31299987D01*
X51839505Y31402698D01*
X51784358Y31569120D01*
X51784356Y31569125D01*
X51692315Y31718346D01*
X51568344Y31842317D01*
X51568340Y31842320D01*
X51420513Y31933501D01*
X51373788Y31985449D01*
X51362567Y32054411D01*
X51390410Y32118493D01*
X51397907Y32126698D01*
X51536206Y32264996D01*
X51661894Y32437991D01*
X51758972Y32628517D01*
X51825049Y32831884D01*
X51858500Y33043084D01*
X51858500Y33256916D01*
X51825049Y33468116D01*
X51758972Y33671483D01*
X51758972Y33671484D01*
X51661893Y33862010D01*
X51536206Y34035004D01*
X51385004Y34186206D01*
X51385000Y34186209D01*
X51228818Y34299682D01*
X51186152Y34355012D01*
X51180173Y34424625D01*
X51212779Y34486420D01*
X51228818Y34500318D01*
X51316182Y34563792D01*
X51385004Y34613794D01*
X51536206Y34764996D01*
X51661894Y34937991D01*
X51758972Y35128517D01*
X51825049Y35331884D01*
X51858500Y35543084D01*
X51858500Y35756916D01*
X51825049Y35968116D01*
X51792010Y36069800D01*
X51758973Y36171481D01*
X51758972Y36171484D01*
X51674632Y36337009D01*
X51661894Y36362009D01*
X51536206Y36535004D01*
X51385004Y36686206D01*
X51212009Y36811894D01*
X51185553Y36825374D01*
X51021483Y36908973D01*
X51021480Y36908974D01*
X50818117Y36975049D01*
X50710606Y36992077D01*
X50606916Y37008500D01*
X50143084Y37008500D01*
X50072684Y36997350D01*
X49931882Y36975049D01*
X49728519Y36908974D01*
X49728516Y36908973D01*
X49537990Y36811894D01*
X49364993Y36686204D01*
X49213796Y36535007D01*
X49088106Y36362010D01*
X48991027Y36171484D01*
X48991026Y36171481D01*
X48924951Y35968118D01*
X48909496Y35870536D01*
X48891500Y35756916D01*
X48891500Y35543084D01*
X48895460Y35518084D01*
X48924951Y35331883D01*
X48991026Y35128520D01*
X48991027Y35128517D01*
X49033451Y35045257D01*
X49088106Y34937991D01*
X49213794Y34764996D01*
X49364996Y34613794D01*
X49433818Y34563792D01*
X49521182Y34500318D01*
X49563847Y34444988D01*
X49569826Y34375374D01*
X49537220Y34313579D01*
X49521182Y34299682D01*
X49487143Y34274951D01*
X49364996Y34186206D01*
X49364994Y34186204D01*
X49364993Y34186204D01*
X49213796Y34035007D01*
X49088106Y33862010D01*
X48991027Y33671484D01*
X48991026Y33671481D01*
X48924951Y33468118D01*
X48891500Y33256916D01*
X48891500Y33043085D01*
X48924951Y32831883D01*
X48991026Y32628520D01*
X48991027Y32628517D01*
X49088106Y32437991D01*
X49213794Y32264996D01*
X49213796Y32264994D01*
X49352070Y32126720D01*
X49385555Y32065397D01*
X49380571Y31995705D01*
X49338699Y31939772D01*
X49329486Y31933501D01*
X49181659Y31842320D01*
X49181655Y31842317D01*
X49057684Y31718346D01*
X48965643Y31569125D01*
X48965641Y31569120D01*
X48910494Y31402698D01*
X48910493Y31402691D01*
X48900000Y31299987D01*
X48900000Y30900000D01*
X49970854Y30900000D01*
X49932370Y30833343D01*
X49900000Y30712535D01*
X49900000Y30587465D01*
X49932370Y30466657D01*
X49970854Y30400000D01*
X48900001Y30400000D01*
X48900001Y30245265D01*
X48880316Y30178226D01*
X48827512Y30132471D01*
X48758354Y30122527D01*
X48694798Y30151552D01*
X48688320Y30157584D01*
X39373922Y39471982D01*
X39344561Y39518709D01*
X39287709Y39681183D01*
X39196771Y39825909D01*
X39075908Y39946772D01*
X38931183Y40037709D01*
X38769849Y40094163D01*
X38769844Y40094164D01*
X38600004Y40113299D01*
X38599996Y40113299D01*
X38430155Y40094164D01*
X38430150Y40094163D01*
X38268816Y40037709D01*
X38124091Y39946772D01*
X38003228Y39825909D01*
X37912291Y39681184D01*
X37855837Y39519850D01*
X37855836Y39519845D01*
X37836701Y39350004D01*
X13557288Y39350004D01*
X13555173Y39374625D01*
X13587779Y39436420D01*
X13603818Y39450318D01*
X13671432Y39499443D01*
X13760004Y39563794D01*
X13911206Y39714996D01*
X14036894Y39887991D01*
X14133972Y40078517D01*
X14200049Y40281884D01*
X14233500Y40493084D01*
X14233500Y40706916D01*
X14200049Y40918116D01*
X14133972Y41121483D01*
X14133972Y41121484D01*
X14036893Y41312010D01*
X13911206Y41485004D01*
X13760004Y41636206D01*
X13760000Y41636209D01*
X13603818Y41749682D01*
X13561152Y41805012D01*
X13555173Y41874625D01*
X13587779Y41936420D01*
X13603818Y41950318D01*
X13654200Y41986924D01*
X13760004Y42063794D01*
X13911206Y42214996D01*
X14036894Y42387991D01*
X14133972Y42578517D01*
X14200049Y42781884D01*
X14233500Y42993084D01*
X14233500Y43206916D01*
X14200049Y43418116D01*
X14133972Y43621483D01*
X14133972Y43621484D01*
X14036893Y43812010D01*
X13911206Y43985004D01*
X13760004Y44136206D01*
X13587009Y44261894D01*
X13396483Y44358973D01*
X13396480Y44358974D01*
X13193117Y44425049D01*
X13087516Y44441775D01*
X12981916Y44458500D01*
X12518084Y44458500D01*
X12447684Y44447350D01*
X12306882Y44425049D01*
X12103519Y44358974D01*
X12103516Y44358973D01*
X11912990Y44261894D01*
X11739993Y44136204D01*
X11588796Y43985007D01*
X11463106Y43812010D01*
X11366027Y43621484D01*
X11366026Y43621481D01*
X11299951Y43418118D01*
X11266500Y43206916D01*
X118392Y43206916D01*
X102279Y51698655D01*
X17437500Y51698655D01*
X17437500Y49901346D01*
X17444011Y49840798D01*
X17444011Y49840796D01*
X17495111Y49703796D01*
X17582739Y49586739D01*
X17699796Y49499111D01*
X17836799Y49448011D01*
X17864050Y49445082D01*
X17897345Y49441501D01*
X17897362Y49441500D01*
X19694638Y49441500D01*
X19694654Y49441501D01*
X19721692Y49444409D01*
X19755201Y49448011D01*
X19892204Y49499111D01*
X20009261Y49586739D01*
X20096889Y49703796D01*
X20142138Y49825113D01*
X20184009Y49881044D01*
X20249474Y49905461D01*
X20317746Y49890609D01*
X20349545Y49865764D01*
X20412760Y49797094D01*
X20590424Y49658811D01*
X20590425Y49658811D01*
X20590427Y49658809D01*
X20650314Y49626400D01*
X20788426Y49551658D01*
X21001365Y49478556D01*
X21223431Y49441500D01*
X21448569Y49441500D01*
X21670635Y49478556D01*
X21883574Y49551658D01*
X22081576Y49658811D01*
X22259240Y49797094D01*
X22380594Y49928918D01*
X22411715Y49962724D01*
X22411715Y49962725D01*
X22411722Y49962732D01*
X22502193Y50101210D01*
X22555338Y50146563D01*
X22624569Y50155987D01*
X22687905Y50126485D01*
X22709804Y50101213D01*
X22800278Y49962732D01*
X22800283Y49962727D01*
X22800284Y49962724D01*
X22926968Y49825111D01*
X22952760Y49797094D01*
X23130424Y49658811D01*
X23130425Y49658811D01*
X23130427Y49658809D01*
X23190314Y49626400D01*
X23328426Y49551658D01*
X23541365Y49478556D01*
X23763431Y49441500D01*
X23988569Y49441500D01*
X24210635Y49478556D01*
X24423574Y49551658D01*
X24621576Y49658811D01*
X24799240Y49797094D01*
X24920594Y49928918D01*
X24951715Y49962724D01*
X24951715Y49962725D01*
X24951722Y49962732D01*
X25045749Y50106653D01*
X25098894Y50152006D01*
X25168125Y50161430D01*
X25231461Y50131928D01*
X25251130Y50109952D01*
X25377890Y49928922D01*
X25544917Y49761895D01*
X25738421Y49626400D01*
X25952507Y49526571D01*
X25952516Y49526567D01*
X26166000Y49469366D01*
X26166000Y50366988D01*
X26223007Y50334075D01*
X26350174Y50300000D01*
X26481826Y50300000D01*
X26608993Y50334075D01*
X26666000Y50366988D01*
X26666000Y49469367D01*
X26879483Y49526567D01*
X26879492Y49526571D01*
X27093578Y49626400D01*
X27287082Y49761895D01*
X27454105Y49928918D01*
X27580868Y50109952D01*
X27635445Y50153577D01*
X27704944Y50160769D01*
X27767298Y50129247D01*
X27786251Y50106650D01*
X27880276Y49962735D01*
X27880284Y49962724D01*
X28006968Y49825111D01*
X28032760Y49797094D01*
X28210424Y49658811D01*
X28210425Y49658811D01*
X28210427Y49658809D01*
X28270314Y49626400D01*
X28408426Y49551658D01*
X28621365Y49478556D01*
X28843431Y49441500D01*
X29068569Y49441500D01*
X29290635Y49478556D01*
X29503574Y49551658D01*
X29701576Y49658811D01*
X29879240Y49797094D01*
X30000594Y49928918D01*
X30031715Y49962724D01*
X30031715Y49962725D01*
X30031722Y49962732D01*
X30122193Y50101210D01*
X30175338Y50146563D01*
X30244569Y50155987D01*
X30307905Y50126485D01*
X30329804Y50101213D01*
X30420278Y49962732D01*
X30420283Y49962727D01*
X30420284Y49962724D01*
X30546968Y49825111D01*
X30572760Y49797094D01*
X30750424Y49658811D01*
X30750425Y49658811D01*
X30750427Y49658809D01*
X30810314Y49626400D01*
X30948426Y49551658D01*
X31161365Y49478556D01*
X31383431Y49441500D01*
X31608569Y49441500D01*
X31830635Y49478556D01*
X32043574Y49551658D01*
X32241576Y49658811D01*
X32419240Y49797094D01*
X32540594Y49928918D01*
X32571715Y49962724D01*
X32571715Y49962725D01*
X32571722Y49962732D01*
X32662193Y50101210D01*
X32715338Y50146563D01*
X32784569Y50155987D01*
X32847905Y50126485D01*
X32869804Y50101213D01*
X32960278Y49962732D01*
X32960283Y49962727D01*
X32960284Y49962724D01*
X33086968Y49825111D01*
X33112760Y49797094D01*
X33290424Y49658811D01*
X33290425Y49658811D01*
X33290427Y49658809D01*
X33350314Y49626400D01*
X33488426Y49551658D01*
X33701365Y49478556D01*
X33923431Y49441500D01*
X34148569Y49441500D01*
X34370630Y49478555D01*
X34370631Y49478556D01*
X34370635Y49478556D01*
X34370637Y49478558D01*
X34374849Y49479624D01*
X34444669Y49477012D01*
X34492991Y49447105D01*
X40432163Y43507932D01*
X40432167Y43507929D01*
X40535918Y43438604D01*
X40535924Y43438601D01*
X40535925Y43438600D01*
X40651215Y43390845D01*
X40773601Y43366501D01*
X40773605Y43366500D01*
X40773606Y43366500D01*
X40898394Y43366500D01*
X46234458Y43366500D01*
X46301497Y43346815D01*
X46322139Y43330181D01*
X46374091Y43278229D01*
X46518817Y43187291D01*
X46680150Y43130838D01*
X46680155Y43130837D01*
X46849996Y43111701D01*
X46850000Y43111701D01*
X46850004Y43111701D01*
X47019844Y43130837D01*
X47019847Y43130838D01*
X47019850Y43130838D01*
X47181183Y43187291D01*
X47325909Y43278229D01*
X47446771Y43399091D01*
X47537709Y43543817D01*
X47594162Y43705150D01*
X47613299Y43875000D01*
X47594162Y44044850D01*
X47537709Y44206183D01*
X47446771Y44350909D01*
X47325909Y44471771D01*
X47325908Y44471772D01*
X47181183Y44562709D01*
X47019849Y44619163D01*
X47019844Y44619164D01*
X46850004Y44638299D01*
X46850003Y44638299D01*
X46850001Y44638299D01*
X46850000Y44638299D01*
X46818245Y44634722D01*
X46811077Y44633914D01*
X46793484Y44633790D01*
X46793484Y44633500D01*
X41149766Y44633500D01*
X41082727Y44653185D01*
X41062085Y44669819D01*
X36502085Y49229819D01*
X36468600Y49291142D01*
X36473584Y49360834D01*
X36515456Y49416767D01*
X36580920Y49441184D01*
X36589766Y49441500D01*
X36688569Y49441500D01*
X36910630Y49478555D01*
X36910631Y49478556D01*
X36910635Y49478556D01*
X36910637Y49478558D01*
X36914849Y49479624D01*
X36984669Y49477012D01*
X37032991Y49447105D01*
X41347163Y45132932D01*
X41347167Y45132929D01*
X41450918Y45063604D01*
X41450924Y45063601D01*
X41450925Y45063600D01*
X41566215Y45015845D01*
X41688601Y44991501D01*
X41688605Y44991500D01*
X41688606Y44991500D01*
X41813394Y44991500D01*
X47121820Y44991500D01*
X47187793Y44972493D01*
X47243814Y44937292D01*
X47405150Y44880838D01*
X47405155Y44880837D01*
X47574996Y44861701D01*
X47575000Y44861701D01*
X47575004Y44861701D01*
X47744844Y44880837D01*
X47744847Y44880838D01*
X47744850Y44880838D01*
X47906183Y44937291D01*
X48050909Y45028229D01*
X48171771Y45149091D01*
X48262709Y45293817D01*
X48319162Y45455150D01*
X48338299Y45625000D01*
X48319162Y45794850D01*
X48262709Y45956183D01*
X48171771Y46100909D01*
X48050909Y46221771D01*
X48050908Y46221772D01*
X47906183Y46312709D01*
X47744849Y46369163D01*
X47744844Y46369164D01*
X47575004Y46388299D01*
X47574996Y46388299D01*
X47405155Y46369164D01*
X47405150Y46369163D01*
X47243814Y46312709D01*
X47187793Y46277507D01*
X47121820Y46258500D01*
X42064766Y46258500D01*
X41997727Y46278185D01*
X41977085Y46294819D01*
X39042085Y49229819D01*
X39008600Y49291142D01*
X39013584Y49360834D01*
X39055456Y49416767D01*
X39120920Y49441184D01*
X39129766Y49441500D01*
X39228569Y49441500D01*
X39450635Y49478556D01*
X39663574Y49551658D01*
X39861576Y49658811D01*
X40039240Y49797094D01*
X40160594Y49928918D01*
X40191715Y49962724D01*
X40191715Y49962725D01*
X40191722Y49962732D01*
X40282193Y50101210D01*
X40335338Y50146563D01*
X40404569Y50155987D01*
X40467905Y50126485D01*
X40489804Y50101213D01*
X40580278Y49962732D01*
X40580283Y49962727D01*
X40580284Y49962724D01*
X40706968Y49825111D01*
X40732760Y49797094D01*
X40910424Y49658811D01*
X40910425Y49658811D01*
X40910427Y49658809D01*
X40970314Y49626400D01*
X41108426Y49551658D01*
X41321365Y49478556D01*
X41543431Y49441500D01*
X41768569Y49441500D01*
X41990635Y49478556D01*
X42203574Y49551658D01*
X42401576Y49658811D01*
X42579240Y49797094D01*
X42700594Y49928918D01*
X42731715Y49962724D01*
X42731717Y49962727D01*
X42731722Y49962732D01*
X42854860Y50151209D01*
X42945296Y50357384D01*
X43000564Y50575632D01*
X43012309Y50717365D01*
X43019156Y50799995D01*
X43019156Y50800006D01*
X43000565Y51024360D01*
X43000563Y51024372D01*
X42945296Y51242615D01*
X42935071Y51265925D01*
X42854860Y51448791D01*
X42838706Y51473516D01*
X42731723Y51637266D01*
X42731715Y51637277D01*
X42675212Y51698655D01*
X44361500Y51698655D01*
X44361500Y49901346D01*
X44368011Y49840798D01*
X44368011Y49840796D01*
X44419111Y49703796D01*
X44506739Y49586739D01*
X44623796Y49499111D01*
X44760799Y49448011D01*
X44788050Y49445082D01*
X44821345Y49441501D01*
X44821362Y49441500D01*
X46618638Y49441500D01*
X46618654Y49441501D01*
X46645692Y49444409D01*
X46679201Y49448011D01*
X46816204Y49499111D01*
X46933261Y49586739D01*
X47020889Y49703796D01*
X47066138Y49825113D01*
X47108009Y49881044D01*
X47173474Y49905461D01*
X47241746Y49890609D01*
X47273545Y49865764D01*
X47336760Y49797094D01*
X47514424Y49658811D01*
X47514425Y49658811D01*
X47514427Y49658809D01*
X47574314Y49626400D01*
X47712426Y49551658D01*
X47925365Y49478556D01*
X48147431Y49441500D01*
X48372569Y49441500D01*
X48594635Y49478556D01*
X48807574Y49551658D01*
X49005576Y49658811D01*
X49183240Y49797094D01*
X49304594Y49928918D01*
X49335715Y49962724D01*
X49335715Y49962725D01*
X49335722Y49962732D01*
X49426193Y50101210D01*
X49479338Y50146563D01*
X49548569Y50155987D01*
X49611905Y50126485D01*
X49633804Y50101213D01*
X49724278Y49962732D01*
X49724283Y49962727D01*
X49724284Y49962724D01*
X49850968Y49825111D01*
X49876760Y49797094D01*
X50054424Y49658811D01*
X50054425Y49658811D01*
X50054427Y49658809D01*
X50114314Y49626400D01*
X50252426Y49551658D01*
X50465365Y49478556D01*
X50687431Y49441500D01*
X50912569Y49441500D01*
X51134635Y49478556D01*
X51347574Y49551658D01*
X51545576Y49658811D01*
X51723240Y49797094D01*
X51844594Y49928918D01*
X51875715Y49962724D01*
X51875715Y49962725D01*
X51875722Y49962732D01*
X51966193Y50101210D01*
X52019338Y50146563D01*
X52088569Y50155987D01*
X52151905Y50126485D01*
X52173804Y50101213D01*
X52264278Y49962732D01*
X52264283Y49962727D01*
X52264284Y49962724D01*
X52390968Y49825111D01*
X52416760Y49797094D01*
X52594424Y49658811D01*
X52594425Y49658811D01*
X52594427Y49658809D01*
X52654314Y49626400D01*
X52792426Y49551658D01*
X53005365Y49478556D01*
X53227431Y49441500D01*
X53452569Y49441500D01*
X53674635Y49478556D01*
X53887574Y49551658D01*
X54085576Y49658811D01*
X54263240Y49797094D01*
X54384594Y49928918D01*
X54415715Y49962724D01*
X54415715Y49962725D01*
X54415722Y49962732D01*
X54506193Y50101210D01*
X54559338Y50146563D01*
X54628569Y50155987D01*
X54691905Y50126485D01*
X54713804Y50101213D01*
X54804278Y49962732D01*
X54804283Y49962727D01*
X54804284Y49962724D01*
X54930968Y49825111D01*
X54956760Y49797094D01*
X55134424Y49658811D01*
X55134425Y49658811D01*
X55134427Y49658809D01*
X55194314Y49626400D01*
X55332426Y49551658D01*
X55545365Y49478556D01*
X55767431Y49441500D01*
X55992569Y49441500D01*
X56214635Y49478556D01*
X56427574Y49551658D01*
X56625576Y49658811D01*
X56803240Y49797094D01*
X56924594Y49928918D01*
X56955715Y49962724D01*
X56955715Y49962725D01*
X56955722Y49962732D01*
X57046193Y50101210D01*
X57099338Y50146563D01*
X57168569Y50155987D01*
X57231905Y50126485D01*
X57253804Y50101213D01*
X57344278Y49962732D01*
X57344283Y49962727D01*
X57344284Y49962724D01*
X57470968Y49825111D01*
X57496760Y49797094D01*
X57674424Y49658811D01*
X57674425Y49658811D01*
X57674427Y49658809D01*
X57734314Y49626400D01*
X57872426Y49551658D01*
X58085365Y49478556D01*
X58307431Y49441500D01*
X58532569Y49441500D01*
X58754635Y49478556D01*
X58967574Y49551658D01*
X59165576Y49658811D01*
X59343240Y49797094D01*
X59464594Y49928918D01*
X59495715Y49962724D01*
X59495715Y49962725D01*
X59495722Y49962732D01*
X59586193Y50101210D01*
X59639338Y50146563D01*
X59708569Y50155987D01*
X59771905Y50126485D01*
X59793804Y50101213D01*
X59884278Y49962732D01*
X59884283Y49962727D01*
X59884284Y49962724D01*
X60010968Y49825111D01*
X60036760Y49797094D01*
X60214424Y49658811D01*
X60214425Y49658811D01*
X60214427Y49658809D01*
X60274314Y49626400D01*
X60412426Y49551658D01*
X60625365Y49478556D01*
X60847431Y49441500D01*
X61072569Y49441500D01*
X61294635Y49478556D01*
X61507574Y49551658D01*
X61705576Y49658811D01*
X61883240Y49797094D01*
X62004594Y49928918D01*
X62035715Y49962724D01*
X62035715Y49962725D01*
X62035722Y49962732D01*
X62126193Y50101210D01*
X62179338Y50146563D01*
X62248569Y50155987D01*
X62311905Y50126485D01*
X62333804Y50101213D01*
X62424278Y49962732D01*
X62424283Y49962727D01*
X62424284Y49962724D01*
X62550968Y49825111D01*
X62576760Y49797094D01*
X62754424Y49658811D01*
X62754425Y49658811D01*
X62754427Y49658809D01*
X62814314Y49626400D01*
X62952426Y49551658D01*
X63165365Y49478556D01*
X63387431Y49441500D01*
X63612569Y49441500D01*
X63834635Y49478556D01*
X64047574Y49551658D01*
X64245576Y49658811D01*
X64423240Y49797094D01*
X64544594Y49928918D01*
X64575715Y49962724D01*
X64575717Y49962727D01*
X64575722Y49962732D01*
X64698860Y50151209D01*
X64789296Y50357384D01*
X64844564Y50575632D01*
X64856309Y50717365D01*
X64863156Y50799995D01*
X64863156Y50800006D01*
X64844565Y51024360D01*
X64844563Y51024372D01*
X64789296Y51242615D01*
X64779071Y51265925D01*
X64698860Y51448791D01*
X64682706Y51473516D01*
X64575723Y51637266D01*
X64575715Y51637277D01*
X64423243Y51802903D01*
X64423238Y51802908D01*
X64245577Y51941188D01*
X64245572Y51941192D01*
X64047580Y52048339D01*
X64047577Y52048341D01*
X64047574Y52048342D01*
X64047571Y52048343D01*
X64047569Y52048344D01*
X63834637Y52121444D01*
X63612569Y52158500D01*
X63387431Y52158500D01*
X63165362Y52121444D01*
X62952430Y52048344D01*
X62952419Y52048339D01*
X62754427Y51941192D01*
X62754422Y51941188D01*
X62576761Y51802908D01*
X62576756Y51802903D01*
X62424284Y51637277D01*
X62424276Y51637266D01*
X62333808Y51498794D01*
X62280662Y51453438D01*
X62211431Y51444014D01*
X62148095Y51473516D01*
X62126192Y51498794D01*
X62035723Y51637266D01*
X62035715Y51637277D01*
X61883243Y51802903D01*
X61883238Y51802908D01*
X61705577Y51941188D01*
X61705572Y51941192D01*
X61507580Y52048339D01*
X61507577Y52048341D01*
X61507574Y52048342D01*
X61507571Y52048343D01*
X61507569Y52048344D01*
X61294637Y52121444D01*
X61072569Y52158500D01*
X60847431Y52158500D01*
X60625362Y52121444D01*
X60412430Y52048344D01*
X60412419Y52048339D01*
X60214427Y51941192D01*
X60214422Y51941188D01*
X60036761Y51802908D01*
X60036756Y51802903D01*
X59884284Y51637277D01*
X59884276Y51637266D01*
X59793808Y51498794D01*
X59740662Y51453438D01*
X59671431Y51444014D01*
X59608095Y51473516D01*
X59586192Y51498794D01*
X59495723Y51637266D01*
X59495715Y51637277D01*
X59343243Y51802903D01*
X59343238Y51802908D01*
X59165577Y51941188D01*
X59165572Y51941192D01*
X58967580Y52048339D01*
X58967577Y52048341D01*
X58967574Y52048342D01*
X58967571Y52048343D01*
X58967569Y52048344D01*
X58754637Y52121444D01*
X58532569Y52158500D01*
X58307431Y52158500D01*
X58085362Y52121444D01*
X57872430Y52048344D01*
X57872419Y52048339D01*
X57674427Y51941192D01*
X57674422Y51941188D01*
X57496761Y51802908D01*
X57496756Y51802903D01*
X57344284Y51637277D01*
X57344276Y51637266D01*
X57253808Y51498794D01*
X57200662Y51453438D01*
X57131431Y51444014D01*
X57068095Y51473516D01*
X57046192Y51498794D01*
X56955723Y51637266D01*
X56955715Y51637277D01*
X56803243Y51802903D01*
X56803238Y51802908D01*
X56625577Y51941188D01*
X56625572Y51941192D01*
X56427580Y52048339D01*
X56427577Y52048341D01*
X56427574Y52048342D01*
X56427571Y52048343D01*
X56427569Y52048344D01*
X56214637Y52121444D01*
X55992569Y52158500D01*
X55767431Y52158500D01*
X55545362Y52121444D01*
X55332430Y52048344D01*
X55332419Y52048339D01*
X55134427Y51941192D01*
X55134422Y51941188D01*
X54956761Y51802908D01*
X54956756Y51802903D01*
X54804284Y51637277D01*
X54804276Y51637266D01*
X54713808Y51498794D01*
X54660662Y51453438D01*
X54591431Y51444014D01*
X54528095Y51473516D01*
X54506192Y51498794D01*
X54415723Y51637266D01*
X54415715Y51637277D01*
X54263243Y51802903D01*
X54263238Y51802908D01*
X54085577Y51941188D01*
X54085572Y51941192D01*
X53887580Y52048339D01*
X53887577Y52048341D01*
X53887574Y52048342D01*
X53887571Y52048343D01*
X53887569Y52048344D01*
X53674637Y52121444D01*
X53452569Y52158500D01*
X53227431Y52158500D01*
X53005362Y52121444D01*
X52792430Y52048344D01*
X52792419Y52048339D01*
X52594427Y51941192D01*
X52594422Y51941188D01*
X52416761Y51802908D01*
X52416756Y51802903D01*
X52264284Y51637277D01*
X52264276Y51637266D01*
X52173808Y51498794D01*
X52120662Y51453438D01*
X52051431Y51444014D01*
X51988095Y51473516D01*
X51966192Y51498794D01*
X51875723Y51637266D01*
X51875715Y51637277D01*
X51723243Y51802903D01*
X51723238Y51802908D01*
X51545577Y51941188D01*
X51545572Y51941192D01*
X51347580Y52048339D01*
X51347577Y52048341D01*
X51347574Y52048342D01*
X51347571Y52048343D01*
X51347569Y52048344D01*
X51134637Y52121444D01*
X50912569Y52158500D01*
X50687431Y52158500D01*
X50465362Y52121444D01*
X50252430Y52048344D01*
X50252419Y52048339D01*
X50054427Y51941192D01*
X50054422Y51941188D01*
X49876761Y51802908D01*
X49876756Y51802903D01*
X49724284Y51637277D01*
X49724276Y51637266D01*
X49633808Y51498794D01*
X49580662Y51453438D01*
X49511431Y51444014D01*
X49448095Y51473516D01*
X49426192Y51498794D01*
X49335723Y51637266D01*
X49335715Y51637277D01*
X49183243Y51802903D01*
X49183238Y51802908D01*
X49005577Y51941188D01*
X49005572Y51941192D01*
X48807580Y52048339D01*
X48807577Y52048341D01*
X48807574Y52048342D01*
X48807571Y52048343D01*
X48807569Y52048344D01*
X48594637Y52121444D01*
X48372569Y52158500D01*
X48147431Y52158500D01*
X47925362Y52121444D01*
X47712430Y52048344D01*
X47712419Y52048339D01*
X47514427Y51941192D01*
X47514422Y51941188D01*
X47336761Y51802908D01*
X47273548Y51734240D01*
X47213661Y51698250D01*
X47143823Y51700351D01*
X47086207Y51739876D01*
X47066138Y51774890D01*
X47020889Y51896204D01*
X46987214Y51941188D01*
X46933261Y52013261D01*
X46816204Y52100889D01*
X46679203Y52151989D01*
X46618654Y52158500D01*
X46618638Y52158500D01*
X44821362Y52158500D01*
X44821345Y52158500D01*
X44760797Y52151989D01*
X44760795Y52151989D01*
X44623795Y52100889D01*
X44506739Y52013261D01*
X44419111Y51896205D01*
X44368011Y51759205D01*
X44368011Y51759203D01*
X44361500Y51698655D01*
X42675212Y51698655D01*
X42579243Y51802903D01*
X42579238Y51802908D01*
X42401577Y51941188D01*
X42401572Y51941192D01*
X42203580Y52048339D01*
X42203577Y52048341D01*
X42203574Y52048342D01*
X42203571Y52048343D01*
X42203569Y52048344D01*
X41990637Y52121444D01*
X41768569Y52158500D01*
X41543431Y52158500D01*
X41321362Y52121444D01*
X41108430Y52048344D01*
X41108419Y52048339D01*
X40910427Y51941192D01*
X40910422Y51941188D01*
X40732761Y51802908D01*
X40732756Y51802903D01*
X40580284Y51637277D01*
X40580276Y51637266D01*
X40489808Y51498794D01*
X40436662Y51453438D01*
X40367431Y51444014D01*
X40304095Y51473516D01*
X40282192Y51498794D01*
X40191723Y51637266D01*
X40191715Y51637277D01*
X40039243Y51802903D01*
X40039238Y51802908D01*
X39861577Y51941188D01*
X39861572Y51941192D01*
X39663580Y52048339D01*
X39663577Y52048341D01*
X39663574Y52048342D01*
X39663571Y52048343D01*
X39663569Y52048344D01*
X39450637Y52121444D01*
X39228569Y52158500D01*
X39003431Y52158500D01*
X38781362Y52121444D01*
X38568430Y52048344D01*
X38568419Y52048339D01*
X38370427Y51941192D01*
X38370422Y51941188D01*
X38192761Y51802908D01*
X38192756Y51802903D01*
X38040284Y51637277D01*
X38040276Y51637266D01*
X37949808Y51498794D01*
X37896662Y51453438D01*
X37827431Y51444014D01*
X37764095Y51473516D01*
X37742192Y51498794D01*
X37651723Y51637266D01*
X37651715Y51637277D01*
X37499243Y51802903D01*
X37499238Y51802908D01*
X37321577Y51941188D01*
X37321572Y51941192D01*
X37123580Y52048339D01*
X37123577Y52048341D01*
X37123574Y52048342D01*
X37123571Y52048343D01*
X37123569Y52048344D01*
X36910637Y52121444D01*
X36688569Y52158500D01*
X36463431Y52158500D01*
X36241362Y52121444D01*
X36028430Y52048344D01*
X36028419Y52048339D01*
X35830427Y51941192D01*
X35830422Y51941188D01*
X35652761Y51802908D01*
X35652756Y51802903D01*
X35500284Y51637277D01*
X35500276Y51637266D01*
X35409808Y51498794D01*
X35356662Y51453438D01*
X35287431Y51444014D01*
X35224095Y51473516D01*
X35202192Y51498794D01*
X35111723Y51637266D01*
X35111715Y51637277D01*
X34959243Y51802903D01*
X34959238Y51802908D01*
X34781577Y51941188D01*
X34781572Y51941192D01*
X34583580Y52048339D01*
X34583577Y52048341D01*
X34583574Y52048342D01*
X34583571Y52048343D01*
X34583569Y52048344D01*
X34370637Y52121444D01*
X34148569Y52158500D01*
X33923431Y52158500D01*
X33701362Y52121444D01*
X33488430Y52048344D01*
X33488419Y52048339D01*
X33290427Y51941192D01*
X33290422Y51941188D01*
X33112761Y51802908D01*
X33112756Y51802903D01*
X32960284Y51637277D01*
X32960276Y51637266D01*
X32869808Y51498794D01*
X32816662Y51453438D01*
X32747431Y51444014D01*
X32684095Y51473516D01*
X32662192Y51498794D01*
X32571723Y51637266D01*
X32571715Y51637277D01*
X32419243Y51802903D01*
X32419238Y51802908D01*
X32241577Y51941188D01*
X32241572Y51941192D01*
X32043580Y52048339D01*
X32043577Y52048341D01*
X32043574Y52048342D01*
X32043571Y52048343D01*
X32043569Y52048344D01*
X31830637Y52121444D01*
X31608569Y52158500D01*
X31383431Y52158500D01*
X31161362Y52121444D01*
X30948430Y52048344D01*
X30948419Y52048339D01*
X30750427Y51941192D01*
X30750422Y51941188D01*
X30572761Y51802908D01*
X30572756Y51802903D01*
X30420284Y51637277D01*
X30420276Y51637266D01*
X30329808Y51498794D01*
X30276662Y51453438D01*
X30207431Y51444014D01*
X30144095Y51473516D01*
X30122192Y51498794D01*
X30031723Y51637266D01*
X30031715Y51637277D01*
X29879243Y51802903D01*
X29879238Y51802908D01*
X29701577Y51941188D01*
X29701572Y51941192D01*
X29503580Y52048339D01*
X29503577Y52048341D01*
X29503574Y52048342D01*
X29503571Y52048343D01*
X29503569Y52048344D01*
X29290637Y52121444D01*
X29068569Y52158500D01*
X28843431Y52158500D01*
X28621362Y52121444D01*
X28408430Y52048344D01*
X28408419Y52048339D01*
X28210427Y51941192D01*
X28210422Y51941188D01*
X28032761Y51802908D01*
X28032756Y51802903D01*
X27880284Y51637277D01*
X27880276Y51637266D01*
X27786251Y51493350D01*
X27733105Y51447993D01*
X27663873Y51438570D01*
X27600538Y51468072D01*
X27580868Y51490049D01*
X27454113Y51671074D01*
X27454108Y51671080D01*
X27287082Y51838106D01*
X27093578Y51973601D01*
X26879492Y52073430D01*
X26879486Y52073433D01*
X26666000Y52130636D01*
X26666000Y51233012D01*
X26608993Y51265925D01*
X26481826Y51300000D01*
X26350174Y51300000D01*
X26223007Y51265925D01*
X26166000Y51233012D01*
X26166000Y52130636D01*
X26165999Y52130636D01*
X25952513Y52073433D01*
X25952507Y52073430D01*
X25738422Y51973601D01*
X25738420Y51973600D01*
X25544926Y51838114D01*
X25544920Y51838109D01*
X25377891Y51671080D01*
X25377890Y51671078D01*
X25251131Y51490048D01*
X25196554Y51446423D01*
X25127055Y51439231D01*
X25064701Y51470753D01*
X25045752Y51493344D01*
X24951722Y51637268D01*
X24951715Y51637275D01*
X24951715Y51637277D01*
X24799243Y51802903D01*
X24799238Y51802908D01*
X24621577Y51941188D01*
X24621572Y51941192D01*
X24423580Y52048339D01*
X24423577Y52048341D01*
X24423574Y52048342D01*
X24423571Y52048343D01*
X24423569Y52048344D01*
X24210637Y52121444D01*
X23988569Y52158500D01*
X23763431Y52158500D01*
X23541362Y52121444D01*
X23328430Y52048344D01*
X23328419Y52048339D01*
X23130427Y51941192D01*
X23130422Y51941188D01*
X22952761Y51802908D01*
X22952756Y51802903D01*
X22800284Y51637277D01*
X22800276Y51637266D01*
X22709808Y51498794D01*
X22656662Y51453438D01*
X22587431Y51444014D01*
X22524095Y51473516D01*
X22502192Y51498794D01*
X22411723Y51637266D01*
X22411715Y51637277D01*
X22259243Y51802903D01*
X22259238Y51802908D01*
X22081577Y51941188D01*
X22081572Y51941192D01*
X21883580Y52048339D01*
X21883577Y52048341D01*
X21883574Y52048342D01*
X21883571Y52048343D01*
X21883569Y52048344D01*
X21670637Y52121444D01*
X21448569Y52158500D01*
X21223431Y52158500D01*
X21001362Y52121444D01*
X20788430Y52048344D01*
X20788419Y52048339D01*
X20590427Y51941192D01*
X20590422Y51941188D01*
X20412761Y51802908D01*
X20349548Y51734240D01*
X20289661Y51698250D01*
X20219823Y51700351D01*
X20162207Y51739876D01*
X20142138Y51774890D01*
X20096889Y51896204D01*
X20063214Y51941188D01*
X20009261Y52013261D01*
X19892204Y52100889D01*
X19755203Y52151989D01*
X19694654Y52158500D01*
X19694638Y52158500D01*
X17897362Y52158500D01*
X17897345Y52158500D01*
X17836797Y52151989D01*
X17836795Y52151989D01*
X17699795Y52100889D01*
X17582739Y52013261D01*
X17495111Y51896205D01*
X17444011Y51759205D01*
X17444011Y51759203D01*
X17437500Y51698655D01*
X102279Y51698655D01*
X100319Y52731640D01*
X105659Y52767867D01*
X122169Y52822290D01*
X124212Y52829029D01*
X133510Y52851476D01*
X171353Y52922276D01*
X216908Y52970145D01*
X570548Y53182330D01*
X634345Y53200000D01*
X63450113Y53200000D01*
X63517152Y53180315D01*
G37*
%TD.AperFunction*%
%TD*%
D18*
X38600000Y39350000D03*
X46850000Y43875000D03*
X47575000Y45625000D03*
D19*
X27940000Y2540000D03*
X30480000Y2540000D03*
X33020000Y2540000D03*
X35560000Y2540000D03*
X38100000Y2540000D03*
X40640000Y2540000D03*
X43180000Y2540000D03*
X45720000Y2540000D03*
X50800000Y2540000D03*
X53340000Y2540000D03*
X55880000Y2540000D03*
X58420000Y2540000D03*
X60960000Y2540000D03*
X63500000Y2540000D03*
X18796000Y50800000D03*
X21336000Y50800000D03*
X23876000Y50800000D03*
X26416000Y50800000D03*
X28956000Y50800000D03*
X31496000Y50800000D03*
X34036000Y50800000D03*
X36576000Y50800000D03*
X39116000Y50800000D03*
X41656000Y50800000D03*
X45720000Y50800000D03*
X48260000Y50800000D03*
X50800000Y50800000D03*
X53340000Y50800000D03*
X55880000Y50800000D03*
X58420000Y50800000D03*
X60960000Y50800000D03*
X63500000Y50800000D03*
X5400000Y39250000D03*
X5400000Y36750000D03*
X40425000Y30625000D03*
X40425000Y33125000D03*
X40425000Y35625000D03*
X15240000Y50800000D03*
X12750000Y30600000D03*
X12750000Y33100000D03*
X12750000Y35600000D03*
X12750000Y38100000D03*
X12750000Y40600000D03*
X12750000Y43100000D03*
X21859285Y13725000D03*
X21859285Y16225000D03*
X21859285Y18725000D03*
X30968570Y30600000D03*
X30968570Y33100000D03*
X30968570Y35600000D03*
X12750000Y13725000D03*
X12750000Y16225000D03*
X12750000Y18725000D03*
X12750000Y21225000D03*
X13970000Y2540000D03*
X66040000Y35560000D03*
X66040000Y7620000D03*
X21859285Y30600000D03*
X21859285Y33100000D03*
X21859285Y35600000D03*
X50375000Y30650000D03*
X50375000Y33150000D03*
X50375000Y35650000D03*
M02*
