%TF.GenerationSoftware,KiCad,Pcbnew,8.0.3*%
%TF.CreationDate,2024-07-23T14:12:28+08:00*%
%TF.ProjectId,Shao Rong Shield,5368616f-2052-46f6-9e67-20536869656c,rev?*%
%TF.SameCoordinates,Original*%
%TF.FileFunction,Legend,Bot*%
%TF.FilePolarity,Positive*%
%FSLAX46Y46*%
G04 Gerber Fmt 4.6, Leading zero omitted, Abs format (unit mm)*
G04 Created by KiCad (PCBNEW 8.0.3) date 2024-07-23 14:12:28*
%MOMM*%
%LPD*%
G01*
G04 APERTURE LIST*
%ADD10C,0.150000*%
%ADD11C,0.350000*%
G04 APERTURE END LIST*
D10*
X1569819Y15463221D02*
X569819Y15463221D01*
X569819Y15463221D02*
X569819Y15225126D01*
X569819Y15225126D02*
X617438Y15082269D01*
X617438Y15082269D02*
X712676Y14987031D01*
X712676Y14987031D02*
X807914Y14939412D01*
X807914Y14939412D02*
X998390Y14891793D01*
X998390Y14891793D02*
X1141247Y14891793D01*
X1141247Y14891793D02*
X1331723Y14939412D01*
X1331723Y14939412D02*
X1426961Y14987031D01*
X1426961Y14987031D02*
X1522200Y15082269D01*
X1522200Y15082269D02*
X1569819Y15225126D01*
X1569819Y15225126D02*
X1569819Y15463221D01*
X1522200Y14082269D02*
X1569819Y14177507D01*
X1569819Y14177507D02*
X1569819Y14367983D01*
X1569819Y14367983D02*
X1522200Y14463221D01*
X1522200Y14463221D02*
X1426961Y14510840D01*
X1426961Y14510840D02*
X1046009Y14510840D01*
X1046009Y14510840D02*
X950771Y14463221D01*
X950771Y14463221D02*
X903152Y14367983D01*
X903152Y14367983D02*
X903152Y14177507D01*
X903152Y14177507D02*
X950771Y14082269D01*
X950771Y14082269D02*
X1046009Y14034650D01*
X1046009Y14034650D02*
X1141247Y14034650D01*
X1141247Y14034650D02*
X1236485Y14510840D01*
X1522200Y13653697D02*
X1569819Y13558459D01*
X1569819Y13558459D02*
X1569819Y13367983D01*
X1569819Y13367983D02*
X1522200Y13272745D01*
X1522200Y13272745D02*
X1426961Y13225126D01*
X1426961Y13225126D02*
X1379342Y13225126D01*
X1379342Y13225126D02*
X1284104Y13272745D01*
X1284104Y13272745D02*
X1236485Y13367983D01*
X1236485Y13367983D02*
X1236485Y13510840D01*
X1236485Y13510840D02*
X1188866Y13606078D01*
X1188866Y13606078D02*
X1093628Y13653697D01*
X1093628Y13653697D02*
X1046009Y13653697D01*
X1046009Y13653697D02*
X950771Y13606078D01*
X950771Y13606078D02*
X903152Y13510840D01*
X903152Y13510840D02*
X903152Y13367983D01*
X903152Y13367983D02*
X950771Y13272745D01*
X1569819Y12796554D02*
X903152Y12796554D01*
X569819Y12796554D02*
X617438Y12844173D01*
X617438Y12844173D02*
X665057Y12796554D01*
X665057Y12796554D02*
X617438Y12748935D01*
X617438Y12748935D02*
X569819Y12796554D01*
X569819Y12796554D02*
X665057Y12796554D01*
X903152Y11891793D02*
X1712676Y11891793D01*
X1712676Y11891793D02*
X1807914Y11939412D01*
X1807914Y11939412D02*
X1855533Y11987031D01*
X1855533Y11987031D02*
X1903152Y12082269D01*
X1903152Y12082269D02*
X1903152Y12225126D01*
X1903152Y12225126D02*
X1855533Y12320364D01*
X1522200Y11891793D02*
X1569819Y11987031D01*
X1569819Y11987031D02*
X1569819Y12177507D01*
X1569819Y12177507D02*
X1522200Y12272745D01*
X1522200Y12272745D02*
X1474580Y12320364D01*
X1474580Y12320364D02*
X1379342Y12367983D01*
X1379342Y12367983D02*
X1093628Y12367983D01*
X1093628Y12367983D02*
X998390Y12320364D01*
X998390Y12320364D02*
X950771Y12272745D01*
X950771Y12272745D02*
X903152Y12177507D01*
X903152Y12177507D02*
X903152Y11987031D01*
X903152Y11987031D02*
X950771Y11891793D01*
X903152Y11415602D02*
X1569819Y11415602D01*
X998390Y11415602D02*
X950771Y11367983D01*
X950771Y11367983D02*
X903152Y11272745D01*
X903152Y11272745D02*
X903152Y11129888D01*
X903152Y11129888D02*
X950771Y11034650D01*
X950771Y11034650D02*
X1046009Y10987031D01*
X1046009Y10987031D02*
X1569819Y10987031D01*
X1522200Y10129888D02*
X1569819Y10225126D01*
X1569819Y10225126D02*
X1569819Y10415602D01*
X1569819Y10415602D02*
X1522200Y10510840D01*
X1522200Y10510840D02*
X1426961Y10558459D01*
X1426961Y10558459D02*
X1046009Y10558459D01*
X1046009Y10558459D02*
X950771Y10510840D01*
X950771Y10510840D02*
X903152Y10415602D01*
X903152Y10415602D02*
X903152Y10225126D01*
X903152Y10225126D02*
X950771Y10129888D01*
X950771Y10129888D02*
X1046009Y10082269D01*
X1046009Y10082269D02*
X1141247Y10082269D01*
X1141247Y10082269D02*
X1236485Y10558459D01*
X1569819Y9225126D02*
X569819Y9225126D01*
X1522200Y9225126D02*
X1569819Y9320364D01*
X1569819Y9320364D02*
X1569819Y9510840D01*
X1569819Y9510840D02*
X1522200Y9606078D01*
X1522200Y9606078D02*
X1474580Y9653697D01*
X1474580Y9653697D02*
X1379342Y9701316D01*
X1379342Y9701316D02*
X1093628Y9701316D01*
X1093628Y9701316D02*
X998390Y9653697D01*
X998390Y9653697D02*
X950771Y9606078D01*
X950771Y9606078D02*
X903152Y9510840D01*
X903152Y9510840D02*
X903152Y9320364D01*
X903152Y9320364D02*
X950771Y9225126D01*
X1569819Y7987030D02*
X569819Y7987030D01*
X950771Y7987030D02*
X903152Y7891792D01*
X903152Y7891792D02*
X903152Y7701316D01*
X903152Y7701316D02*
X950771Y7606078D01*
X950771Y7606078D02*
X998390Y7558459D01*
X998390Y7558459D02*
X1093628Y7510840D01*
X1093628Y7510840D02*
X1379342Y7510840D01*
X1379342Y7510840D02*
X1474580Y7558459D01*
X1474580Y7558459D02*
X1522200Y7606078D01*
X1522200Y7606078D02*
X1569819Y7701316D01*
X1569819Y7701316D02*
X1569819Y7891792D01*
X1569819Y7891792D02*
X1522200Y7987030D01*
X903152Y7177506D02*
X1569819Y6939411D01*
X903152Y6701316D02*
X1569819Y6939411D01*
X1569819Y6939411D02*
X1807914Y7034649D01*
X1807914Y7034649D02*
X1855533Y7082268D01*
X1855533Y7082268D02*
X1903152Y7177506D01*
X569819Y5272744D02*
X1284104Y5272744D01*
X1284104Y5272744D02*
X1426961Y5320363D01*
X1426961Y5320363D02*
X1522200Y5415601D01*
X1522200Y5415601D02*
X1569819Y5558458D01*
X1569819Y5558458D02*
X1569819Y5653696D01*
X1522200Y4415601D02*
X1569819Y4510839D01*
X1569819Y4510839D02*
X1569819Y4701315D01*
X1569819Y4701315D02*
X1522200Y4796553D01*
X1522200Y4796553D02*
X1426961Y4844172D01*
X1426961Y4844172D02*
X1046009Y4844172D01*
X1046009Y4844172D02*
X950771Y4796553D01*
X950771Y4796553D02*
X903152Y4701315D01*
X903152Y4701315D02*
X903152Y4510839D01*
X903152Y4510839D02*
X950771Y4415601D01*
X950771Y4415601D02*
X1046009Y4367982D01*
X1046009Y4367982D02*
X1141247Y4367982D01*
X1141247Y4367982D02*
X1236485Y4844172D01*
X1569819Y3939410D02*
X903152Y3939410D01*
X1093628Y3939410D02*
X998390Y3891791D01*
X998390Y3891791D02*
X950771Y3844172D01*
X950771Y3844172D02*
X903152Y3748934D01*
X903152Y3748934D02*
X903152Y3653696D01*
X1522200Y2939410D02*
X1569819Y3034648D01*
X1569819Y3034648D02*
X1569819Y3225124D01*
X1569819Y3225124D02*
X1522200Y3320362D01*
X1522200Y3320362D02*
X1426961Y3367981D01*
X1426961Y3367981D02*
X1046009Y3367981D01*
X1046009Y3367981D02*
X950771Y3320362D01*
X950771Y3320362D02*
X903152Y3225124D01*
X903152Y3225124D02*
X903152Y3034648D01*
X903152Y3034648D02*
X950771Y2939410D01*
X950771Y2939410D02*
X1046009Y2891791D01*
X1046009Y2891791D02*
X1141247Y2891791D01*
X1141247Y2891791D02*
X1236485Y3367981D01*
X1569819Y2463219D02*
X903152Y2463219D01*
X998390Y2463219D02*
X950771Y2415600D01*
X950771Y2415600D02*
X903152Y2320362D01*
X903152Y2320362D02*
X903152Y2177505D01*
X903152Y2177505D02*
X950771Y2082267D01*
X950771Y2082267D02*
X1046009Y2034648D01*
X1046009Y2034648D02*
X1569819Y2034648D01*
X1046009Y2034648D02*
X950771Y1987029D01*
X950771Y1987029D02*
X903152Y1891791D01*
X903152Y1891791D02*
X903152Y1748934D01*
X903152Y1748934D02*
X950771Y1653695D01*
X950771Y1653695D02*
X1046009Y1606076D01*
X1046009Y1606076D02*
X1569819Y1606076D01*
X903152Y1225124D02*
X1569819Y987029D01*
X903152Y748934D02*
X1569819Y987029D01*
X1569819Y987029D02*
X1807914Y1082267D01*
X1807914Y1082267D02*
X1855533Y1129886D01*
X1855533Y1129886D02*
X1903152Y1225124D01*
D11*
X27940000Y2540000D03*
X30480000Y2540000D03*
X33020000Y2540000D03*
X35560000Y2540000D03*
X38100000Y2540000D03*
X40640000Y2540000D03*
X43180000Y2540000D03*
X45720000Y2540000D03*
X50800000Y2540000D03*
X53340000Y2540000D03*
X55880000Y2540000D03*
X58420000Y2540000D03*
X60960000Y2540000D03*
X63500000Y2540000D03*
X18796000Y50800000D03*
X21336000Y50800000D03*
X23876000Y50800000D03*
X26416000Y50800000D03*
X28956000Y50800000D03*
X31496000Y50800000D03*
X34036000Y50800000D03*
X36576000Y50800000D03*
X39116000Y50800000D03*
X41656000Y50800000D03*
X45720000Y50800000D03*
X48260000Y50800000D03*
X50800000Y50800000D03*
X53340000Y50800000D03*
X55880000Y50800000D03*
X58420000Y50800000D03*
X60960000Y50800000D03*
X63500000Y50800000D03*
X5400000Y39250000D03*
X5400000Y36750000D03*
X40425000Y30625000D03*
X40425000Y33125000D03*
X40425000Y35625000D03*
X15240000Y50800000D03*
X12750000Y30600000D03*
X12750000Y33100000D03*
X12750000Y35600000D03*
X12750000Y38100000D03*
X12750000Y40600000D03*
X12750000Y43100000D03*
X21859285Y13725000D03*
X21859285Y16225000D03*
X21859285Y18725000D03*
X30968570Y30600000D03*
X30968570Y33100000D03*
X30968570Y35600000D03*
X12750000Y13725000D03*
X12750000Y16225000D03*
X12750000Y18725000D03*
X12750000Y21225000D03*
X13970000Y2540000D03*
X66040000Y35560000D03*
X66040000Y7620000D03*
X21859285Y30600000D03*
X21859285Y33100000D03*
X21859285Y35600000D03*
X50375000Y30650000D03*
X50375000Y33150000D03*
X50375000Y35650000D03*
M02*
