M48
METRIC,TZ
T1C0.300
T2C0.950
T3C1.000
%
G90
G05
T1
X38600Y39350
X46850Y43875
X47575Y45625
T2
X12750Y43100
X12750Y40600
X12750Y38100
X12750Y35600
X12750Y33100
X12750Y30600
X12750Y21225
X12750Y18725
X12750Y16225
X12750Y13725
X21859Y35600
X21859Y33100
X21859Y30600
X21859Y18725
X21859Y16225
X21859Y13725
X30969Y35600
X30969Y33100
X30969Y30600
X40425Y35625
X40425Y33125
X40425Y30625
X50375Y35650
X50375Y33150
X50375Y30650
T3
X5400Y39250
X5400Y36750
X18796Y50800
X21336Y50800
X23876Y50800
X26416Y50800
X27940Y2540
X28956Y50800
X30480Y2540
X31496Y50800
X33020Y2540
X34036Y50800
X35560Y2540
X36576Y50800
X38100Y2540
X39116Y50800
X40640Y2540
X41656Y50800
X43180Y2540
X45720Y50800
X45720Y2540
X48260Y50800
X50800Y50800
X50800Y2540
X53340Y50800
X53340Y2540
X55880Y50800
X55880Y2540
X58420Y50800
X58420Y2540
X60960Y50800
X60960Y2540
X63500Y50800
X63500Y2540
M30
