M48
METRIC,TZ
T1C0.400
T2C0.800
T3C1.000
%
G90
G05
T1
X36060Y16535
X37440Y39929
T2
X33520Y33360
X33520Y20660
X36060Y33360
X36060Y20660
X38600Y33360
X38600Y20660
X41140Y33360
X41140Y20660
X43680Y33360
X43680Y20660
X46220Y33360
X46220Y20660
X48760Y33360
X48760Y20660
X51300Y33360
X51300Y20660
T3
X18796Y50800
X21336Y50800
X23876Y50800
X26416Y50800
X27940Y2540
X28956Y50800
X30480Y2540
X31496Y50800
X33020Y2540
X34036Y50800
X35560Y2540
X36576Y50800
X38100Y2540
X38567Y14249
X39116Y50800
X40640Y2540
X41107Y14249
X41656Y50800
X43180Y2540
X43647Y14249
X45720Y50800
X45720Y2540
X46187Y14249
X48260Y50800
X50800Y50800
X50800Y2540
X53340Y50800
X53340Y2540
X55880Y50800
X55880Y2540
X58420Y50800
X58420Y2540
X60960Y50800
X60960Y2540
X63500Y50800
X63500Y2540
T3
G00X7650Y39200
M15
G01X7650Y37000
M16
G05
G00X12150Y33300
M15
G01X9950Y33300
M16
G05
G00X13950Y39400
M15
G01X13950Y36800
M16
G05
M30
