%TF.GenerationSoftware,KiCad,Pcbnew,8.0.3*%
%TF.CreationDate,2024-07-23T15:51:25+08:00*%
%TF.ProjectId,Arduino Uno A4988 Shield,41726475-696e-46f2-9055-6e6f20413439,rev?*%
%TF.SameCoordinates,Original*%
%TF.FileFunction,Copper,L2,Bot*%
%TF.FilePolarity,Positive*%
%FSLAX46Y46*%
G04 Gerber Fmt 4.6, Leading zero omitted, Abs format (unit mm)*
G04 Created by KiCad (PCBNEW 8.0.3) date 2024-07-23 15:51:25*
%MOMM*%
%LPD*%
G01*
G04 APERTURE LIST*
%TA.AperFunction,ComponentPad*%
%ADD10R,1.700000X1.700000*%
%TD*%
%TA.AperFunction,ComponentPad*%
%ADD11O,1.700000X1.700000*%
%TD*%
%TA.AperFunction,ComponentPad*%
%ADD12R,2.000000X4.600000*%
%TD*%
%TA.AperFunction,ComponentPad*%
%ADD13O,2.000000X4.200000*%
%TD*%
%TA.AperFunction,ComponentPad*%
%ADD14O,4.200000X2.000000*%
%TD*%
%TA.AperFunction,ComponentPad*%
%ADD15R,1.600000X1.600000*%
%TD*%
%TA.AperFunction,ComponentPad*%
%ADD16O,1.600000X1.600000*%
%TD*%
%TA.AperFunction,ViaPad*%
%ADD17C,0.600000*%
%TD*%
%TA.AperFunction,ViaPad*%
%ADD18C,0.800000*%
%TD*%
%TA.AperFunction,Conductor*%
%ADD19C,0.500000*%
%TD*%
%TA.AperFunction,Conductor*%
%ADD20C,0.250000*%
%TD*%
%ADD21C,0.350000*%
%ADD22O,1.000000X3.600000*%
%ADD23O,1.000000X3.200000*%
%ADD24O,3.200000X1.000000*%
G04 APERTURE END LIST*
D10*
%TO.P,J1,1,Pin_1*%
%TO.N,unconnected-(J1-Pin_1-Pad1)*%
X27940000Y2540000D03*
D11*
%TO.P,J1,2,Pin_2*%
%TO.N,/IOREF*%
X30480000Y2540000D03*
%TO.P,J1,3,Pin_3*%
%TO.N,/~{RESET}*%
X33020000Y2540000D03*
%TO.P,J1,4,Pin_4*%
%TO.N,+3V3*%
X35560000Y2540000D03*
%TO.P,J1,5,Pin_5*%
%TO.N,+5V*%
X38100000Y2540000D03*
%TO.P,J1,6,Pin_6*%
%TO.N,GND*%
X40640000Y2540000D03*
%TO.P,J1,7,Pin_7*%
X43180000Y2540000D03*
%TO.P,J1,8,Pin_8*%
%TO.N,+12V*%
X45720000Y2540000D03*
%TD*%
D10*
%TO.P,J3,1,Pin_1*%
%TO.N,/A0*%
X50800000Y2540000D03*
D11*
%TO.P,J3,2,Pin_2*%
%TO.N,/A1*%
X53340000Y2540000D03*
%TO.P,J3,3,Pin_3*%
%TO.N,/A2*%
X55880000Y2540000D03*
%TO.P,J3,4,Pin_4*%
%TO.N,/A3*%
X58420000Y2540000D03*
%TO.P,J3,5,Pin_5*%
%TO.N,/SDA{slash}A4*%
X60960000Y2540000D03*
%TO.P,J3,6,Pin_6*%
%TO.N,/SCL{slash}A5*%
X63500000Y2540000D03*
%TD*%
D10*
%TO.P,J2,1,Pin_1*%
%TO.N,unconnected-(J2-Pin_1-Pad1)*%
X18796000Y50800000D03*
D11*
%TO.P,J2,2,Pin_2*%
%TO.N,unconnected-(J2-Pin_2-Pad2)*%
X21336000Y50800000D03*
%TO.P,J2,3,Pin_3*%
%TO.N,/AREF*%
X23876000Y50800000D03*
%TO.P,J2,4,Pin_4*%
%TO.N,GND*%
X26416000Y50800000D03*
%TO.P,J2,5,Pin_5*%
%TO.N,/13*%
X28956000Y50800000D03*
%TO.P,J2,6,Pin_6*%
%TO.N,/12*%
X31496000Y50800000D03*
%TO.P,J2,7,Pin_7*%
%TO.N,/\u002A11*%
X34036000Y50800000D03*
%TO.P,J2,8,Pin_8*%
%TO.N,/\u002A10*%
X36576000Y50800000D03*
%TO.P,J2,9,Pin_9*%
%TO.N,/\u002A9*%
X39116000Y50800000D03*
%TO.P,J2,10,Pin_10*%
%TO.N,/8*%
X41656000Y50800000D03*
%TD*%
D10*
%TO.P,J4,1,Pin_1*%
%TO.N,/7*%
X45720000Y50800000D03*
D11*
%TO.P,J4,2,Pin_2*%
%TO.N,/\u002A6*%
X48260000Y50800000D03*
%TO.P,J4,3,Pin_3*%
%TO.N,/\u002A5*%
X50800000Y50800000D03*
%TO.P,J4,4,Pin_4*%
%TO.N,/4*%
X53340000Y50800000D03*
%TO.P,J4,5,Pin_5*%
%TO.N,/\u002A3*%
X55880000Y50800000D03*
%TO.P,J4,6,Pin_6*%
%TO.N,/2*%
X58420000Y50800000D03*
%TO.P,J4,7,Pin_7*%
%TO.N,/TX{slash}1*%
X60960000Y50800000D03*
%TO.P,J4,8,Pin_8*%
%TO.N,/RX{slash}0*%
X63500000Y50800000D03*
%TD*%
D12*
%TO.P,J7,1*%
%TO.N,+12V*%
X13950000Y38100000D03*
D13*
%TO.P,J7,2*%
%TO.N,GND*%
X7650000Y38100000D03*
D14*
%TO.P,J7,3*%
X11050000Y33300000D03*
%TD*%
D10*
%TO.P,J5,1,Pin_1*%
%TO.N,Net-(A1-1B)*%
X38567200Y14249400D03*
D11*
%TO.P,J5,2,Pin_2*%
%TO.N,Net-(A1-1A)*%
X41107200Y14249400D03*
%TO.P,J5,3,Pin_3*%
%TO.N,Net-(A1-2A)*%
X43647200Y14249400D03*
%TO.P,J5,4,Pin_4*%
%TO.N,Net-(A1-2B)*%
X46187200Y14249400D03*
%TD*%
D15*
%TO.P,A1,1,GND*%
%TO.N,GND*%
X33520000Y20660000D03*
D16*
%TO.P,A1,2,VDD*%
%TO.N,+5V*%
X36060000Y20660000D03*
%TO.P,A1,3,1B*%
%TO.N,Net-(A1-1B)*%
X38600000Y20660000D03*
%TO.P,A1,4,1A*%
%TO.N,Net-(A1-1A)*%
X41140000Y20660000D03*
%TO.P,A1,5,2A*%
%TO.N,Net-(A1-2A)*%
X43680000Y20660000D03*
%TO.P,A1,6,2B*%
%TO.N,Net-(A1-2B)*%
X46220000Y20660000D03*
%TO.P,A1,7,GND*%
%TO.N,GND*%
X48760000Y20660000D03*
%TO.P,A1,8,VMOT*%
%TO.N,+12V*%
X51300000Y20660000D03*
%TO.P,A1,9,~{ENABLE}*%
%TO.N,/13*%
X51300000Y33360000D03*
%TO.P,A1,10,MS1*%
%TO.N,Net-(A1-MS1)*%
X48760000Y33360000D03*
%TO.P,A1,11,MS2*%
%TO.N,Net-(A1-MS2)*%
X46220000Y33360000D03*
%TO.P,A1,12,MS3*%
%TO.N,Net-(A1-MS3)*%
X43680000Y33360000D03*
%TO.P,A1,13,~{RESET}*%
%TO.N,Net-(A1-~{RESET})*%
X41140000Y33360000D03*
%TO.P,A1,14,~{SLEEP}*%
X38600000Y33360000D03*
%TO.P,A1,15,STEP*%
%TO.N,/\u002A9*%
X36060000Y33360000D03*
%TO.P,A1,16,DIR*%
%TO.N,/8*%
X33520000Y33360000D03*
%TD*%
D17*
%TO.N,+5V*%
X36060000Y16535400D03*
D18*
%TO.N,/13*%
X37439600Y39928800D03*
%TD*%
D19*
%TO.N,+5V*%
X36060000Y13139800D02*
X38100000Y11099800D01*
X36060000Y16535400D02*
X36060000Y13139800D01*
X36060000Y16535400D02*
X36060000Y20660000D01*
X38100000Y11099800D02*
X38100000Y2540000D01*
D20*
%TO.N,/13*%
X34467800Y39928800D02*
X28956000Y45440600D01*
X28956000Y45440600D02*
X28956000Y50800000D01*
X37439600Y39928800D02*
X34467800Y39928800D01*
%TO.N,/\u002A9*%
X36060000Y33360000D02*
X36060000Y35856800D01*
X36060000Y35856800D02*
X39116000Y38912800D01*
X39116000Y38912800D02*
X39116000Y50800000D01*
%TD*%
%TA.AperFunction,Conductor*%
%TO.N,GND*%
G36*
X42714075Y2732993D02*
G01*
X42680000Y2605826D01*
X42680000Y2474174D01*
X42714075Y2347007D01*
X42746988Y2290000D01*
X41073012Y2290000D01*
X41105925Y2347007D01*
X41140000Y2474174D01*
X41140000Y2605826D01*
X41105925Y2732993D01*
X41073012Y2790000D01*
X42746988Y2790000D01*
X42714075Y2732993D01*
G37*
%TD.AperFunction*%
%TA.AperFunction,Conductor*%
G36*
X63415229Y52964723D02*
G01*
X63434478Y52949474D01*
X64140084Y52266387D01*
X64174559Y52205615D01*
X64170705Y52135852D01*
X64129746Y52079247D01*
X64064686Y52053772D01*
X64013573Y52060015D01*
X63834637Y52121444D01*
X63612569Y52158500D01*
X63387431Y52158500D01*
X63165362Y52121444D01*
X62952430Y52048344D01*
X62952419Y52048339D01*
X62754427Y51941192D01*
X62754422Y51941188D01*
X62576761Y51802908D01*
X62576756Y51802903D01*
X62424284Y51637277D01*
X62424276Y51637266D01*
X62333808Y51498794D01*
X62280662Y51453438D01*
X62211431Y51444014D01*
X62148095Y51473516D01*
X62126192Y51498794D01*
X62035723Y51637266D01*
X62035715Y51637277D01*
X61883243Y51802903D01*
X61883238Y51802908D01*
X61705577Y51941188D01*
X61705572Y51941192D01*
X61507580Y52048339D01*
X61507577Y52048341D01*
X61507574Y52048342D01*
X61507571Y52048343D01*
X61507569Y52048344D01*
X61294637Y52121444D01*
X61072569Y52158500D01*
X60847431Y52158500D01*
X60625362Y52121444D01*
X60412430Y52048344D01*
X60412419Y52048339D01*
X60214427Y51941192D01*
X60214422Y51941188D01*
X60036761Y51802908D01*
X60036756Y51802903D01*
X59884284Y51637277D01*
X59884276Y51637266D01*
X59793808Y51498794D01*
X59740662Y51453438D01*
X59671431Y51444014D01*
X59608095Y51473516D01*
X59586192Y51498794D01*
X59495723Y51637266D01*
X59495715Y51637277D01*
X59343243Y51802903D01*
X59343238Y51802908D01*
X59165577Y51941188D01*
X59165572Y51941192D01*
X58967580Y52048339D01*
X58967577Y52048341D01*
X58967574Y52048342D01*
X58967571Y52048343D01*
X58967569Y52048344D01*
X58754637Y52121444D01*
X58532569Y52158500D01*
X58307431Y52158500D01*
X58085362Y52121444D01*
X57872430Y52048344D01*
X57872419Y52048339D01*
X57674427Y51941192D01*
X57674422Y51941188D01*
X57496761Y51802908D01*
X57496756Y51802903D01*
X57344284Y51637277D01*
X57344276Y51637266D01*
X57253808Y51498794D01*
X57200662Y51453438D01*
X57131431Y51444014D01*
X57068095Y51473516D01*
X57046192Y51498794D01*
X56955723Y51637266D01*
X56955715Y51637277D01*
X56803243Y51802903D01*
X56803238Y51802908D01*
X56625577Y51941188D01*
X56625572Y51941192D01*
X56427580Y52048339D01*
X56427577Y52048341D01*
X56427574Y52048342D01*
X56427571Y52048343D01*
X56427569Y52048344D01*
X56214637Y52121444D01*
X55992569Y52158500D01*
X55767431Y52158500D01*
X55545362Y52121444D01*
X55332430Y52048344D01*
X55332419Y52048339D01*
X55134427Y51941192D01*
X55134422Y51941188D01*
X54956761Y51802908D01*
X54956756Y51802903D01*
X54804284Y51637277D01*
X54804276Y51637266D01*
X54713808Y51498794D01*
X54660662Y51453438D01*
X54591431Y51444014D01*
X54528095Y51473516D01*
X54506192Y51498794D01*
X54415723Y51637266D01*
X54415715Y51637277D01*
X54263243Y51802903D01*
X54263238Y51802908D01*
X54085577Y51941188D01*
X54085572Y51941192D01*
X53887580Y52048339D01*
X53887577Y52048341D01*
X53887574Y52048342D01*
X53887571Y52048343D01*
X53887569Y52048344D01*
X53674637Y52121444D01*
X53452569Y52158500D01*
X53227431Y52158500D01*
X53005362Y52121444D01*
X52792430Y52048344D01*
X52792419Y52048339D01*
X52594427Y51941192D01*
X52594422Y51941188D01*
X52416761Y51802908D01*
X52416756Y51802903D01*
X52264284Y51637277D01*
X52264276Y51637266D01*
X52173808Y51498794D01*
X52120662Y51453438D01*
X52051431Y51444014D01*
X51988095Y51473516D01*
X51966192Y51498794D01*
X51875723Y51637266D01*
X51875715Y51637277D01*
X51723243Y51802903D01*
X51723238Y51802908D01*
X51545577Y51941188D01*
X51545572Y51941192D01*
X51347580Y52048339D01*
X51347577Y52048341D01*
X51347574Y52048342D01*
X51347571Y52048343D01*
X51347569Y52048344D01*
X51134637Y52121444D01*
X50912569Y52158500D01*
X50687431Y52158500D01*
X50465362Y52121444D01*
X50252430Y52048344D01*
X50252419Y52048339D01*
X50054427Y51941192D01*
X50054422Y51941188D01*
X49876761Y51802908D01*
X49876756Y51802903D01*
X49724284Y51637277D01*
X49724276Y51637266D01*
X49633808Y51498794D01*
X49580662Y51453438D01*
X49511431Y51444014D01*
X49448095Y51473516D01*
X49426192Y51498794D01*
X49335723Y51637266D01*
X49335715Y51637277D01*
X49183243Y51802903D01*
X49183238Y51802908D01*
X49005577Y51941188D01*
X49005572Y51941192D01*
X48807580Y52048339D01*
X48807577Y52048341D01*
X48807574Y52048342D01*
X48807571Y52048343D01*
X48807569Y52048344D01*
X48594637Y52121444D01*
X48372569Y52158500D01*
X48147431Y52158500D01*
X47925362Y52121444D01*
X47712430Y52048344D01*
X47712419Y52048339D01*
X47514427Y51941192D01*
X47514422Y51941188D01*
X47336761Y51802908D01*
X47273548Y51734240D01*
X47213661Y51698250D01*
X47143823Y51700351D01*
X47086207Y51739876D01*
X47066138Y51774890D01*
X47020889Y51896204D01*
X46987214Y51941188D01*
X46933261Y52013261D01*
X46816204Y52100889D01*
X46679203Y52151989D01*
X46618654Y52158500D01*
X46618638Y52158500D01*
X44821362Y52158500D01*
X44821345Y52158500D01*
X44760797Y52151989D01*
X44760795Y52151989D01*
X44623795Y52100889D01*
X44506739Y52013261D01*
X44419111Y51896205D01*
X44368011Y51759205D01*
X44368011Y51759203D01*
X44361500Y51698655D01*
X44361500Y49901346D01*
X44368011Y49840798D01*
X44368011Y49840796D01*
X44419111Y49703796D01*
X44506739Y49586739D01*
X44623796Y49499111D01*
X44760799Y49448011D01*
X44788050Y49445082D01*
X44821345Y49441501D01*
X44821362Y49441500D01*
X46618638Y49441500D01*
X46618654Y49441501D01*
X46645692Y49444409D01*
X46679201Y49448011D01*
X46816204Y49499111D01*
X46933261Y49586739D01*
X47020889Y49703796D01*
X47066138Y49825113D01*
X47108009Y49881044D01*
X47173474Y49905461D01*
X47241746Y49890609D01*
X47273545Y49865764D01*
X47336760Y49797094D01*
X47514424Y49658811D01*
X47514425Y49658811D01*
X47514427Y49658809D01*
X47561516Y49633326D01*
X47712426Y49551658D01*
X47925365Y49478556D01*
X48147431Y49441500D01*
X48372569Y49441500D01*
X48594635Y49478556D01*
X48807574Y49551658D01*
X49005576Y49658811D01*
X49183240Y49797094D01*
X49304594Y49928918D01*
X49335715Y49962724D01*
X49335715Y49962725D01*
X49335722Y49962732D01*
X49426193Y50101210D01*
X49479338Y50146563D01*
X49548569Y50155987D01*
X49611905Y50126485D01*
X49633804Y50101213D01*
X49724278Y49962732D01*
X49724283Y49962727D01*
X49724284Y49962724D01*
X49850968Y49825111D01*
X49876760Y49797094D01*
X50054424Y49658811D01*
X50054425Y49658811D01*
X50054427Y49658809D01*
X50101516Y49633326D01*
X50252426Y49551658D01*
X50465365Y49478556D01*
X50687431Y49441500D01*
X50912569Y49441500D01*
X51134635Y49478556D01*
X51347574Y49551658D01*
X51545576Y49658811D01*
X51723240Y49797094D01*
X51844594Y49928918D01*
X51875715Y49962724D01*
X51875715Y49962725D01*
X51875722Y49962732D01*
X51966193Y50101210D01*
X52019338Y50146563D01*
X52088569Y50155987D01*
X52151905Y50126485D01*
X52173804Y50101213D01*
X52264278Y49962732D01*
X52264283Y49962727D01*
X52264284Y49962724D01*
X52390968Y49825111D01*
X52416760Y49797094D01*
X52594424Y49658811D01*
X52594425Y49658811D01*
X52594427Y49658809D01*
X52641516Y49633326D01*
X52792426Y49551658D01*
X53005365Y49478556D01*
X53227431Y49441500D01*
X53452569Y49441500D01*
X53674635Y49478556D01*
X53887574Y49551658D01*
X54085576Y49658811D01*
X54263240Y49797094D01*
X54384594Y49928918D01*
X54415715Y49962724D01*
X54415715Y49962725D01*
X54415722Y49962732D01*
X54506193Y50101210D01*
X54559338Y50146563D01*
X54628569Y50155987D01*
X54691905Y50126485D01*
X54713804Y50101213D01*
X54804278Y49962732D01*
X54804283Y49962727D01*
X54804284Y49962724D01*
X54930968Y49825111D01*
X54956760Y49797094D01*
X55134424Y49658811D01*
X55134425Y49658811D01*
X55134427Y49658809D01*
X55181516Y49633326D01*
X55332426Y49551658D01*
X55545365Y49478556D01*
X55767431Y49441500D01*
X55992569Y49441500D01*
X56214635Y49478556D01*
X56427574Y49551658D01*
X56625576Y49658811D01*
X56803240Y49797094D01*
X56924594Y49928918D01*
X56955715Y49962724D01*
X56955715Y49962725D01*
X56955722Y49962732D01*
X57046193Y50101210D01*
X57099338Y50146563D01*
X57168569Y50155987D01*
X57231905Y50126485D01*
X57253804Y50101213D01*
X57344278Y49962732D01*
X57344283Y49962727D01*
X57344284Y49962724D01*
X57470968Y49825111D01*
X57496760Y49797094D01*
X57674424Y49658811D01*
X57674425Y49658811D01*
X57674427Y49658809D01*
X57721516Y49633326D01*
X57872426Y49551658D01*
X58085365Y49478556D01*
X58307431Y49441500D01*
X58532569Y49441500D01*
X58754635Y49478556D01*
X58967574Y49551658D01*
X59165576Y49658811D01*
X59343240Y49797094D01*
X59464594Y49928918D01*
X59495715Y49962724D01*
X59495715Y49962725D01*
X59495722Y49962732D01*
X59586193Y50101210D01*
X59639338Y50146563D01*
X59708569Y50155987D01*
X59771905Y50126485D01*
X59793804Y50101213D01*
X59884278Y49962732D01*
X59884283Y49962727D01*
X59884284Y49962724D01*
X60010968Y49825111D01*
X60036760Y49797094D01*
X60214424Y49658811D01*
X60214425Y49658811D01*
X60214427Y49658809D01*
X60261516Y49633326D01*
X60412426Y49551658D01*
X60625365Y49478556D01*
X60847431Y49441500D01*
X61072569Y49441500D01*
X61294635Y49478556D01*
X61507574Y49551658D01*
X61705576Y49658811D01*
X61883240Y49797094D01*
X62004594Y49928918D01*
X62035715Y49962724D01*
X62035715Y49962725D01*
X62035722Y49962732D01*
X62126193Y50101210D01*
X62179338Y50146563D01*
X62248569Y50155987D01*
X62311905Y50126485D01*
X62333804Y50101213D01*
X62424278Y49962732D01*
X62424283Y49962727D01*
X62424284Y49962724D01*
X62550968Y49825111D01*
X62576760Y49797094D01*
X62754424Y49658811D01*
X62754425Y49658811D01*
X62754427Y49658809D01*
X62801516Y49633326D01*
X62952426Y49551658D01*
X63165365Y49478556D01*
X63387431Y49441500D01*
X63612569Y49441500D01*
X63834635Y49478556D01*
X64047574Y49551658D01*
X64245576Y49658811D01*
X64423240Y49797094D01*
X64544594Y49928918D01*
X64575715Y49962724D01*
X64575717Y49962727D01*
X64575722Y49962732D01*
X64698860Y50151209D01*
X64789296Y50357384D01*
X64844564Y50575632D01*
X64847164Y50607007D01*
X64863156Y50799995D01*
X64863156Y50800006D01*
X64844565Y51024360D01*
X64844563Y51024372D01*
X64823637Y51107007D01*
X64789296Y51242616D01*
X64741303Y51352029D01*
X64732401Y51421326D01*
X64762378Y51484438D01*
X64821717Y51521325D01*
X64891579Y51520275D01*
X64941108Y51490927D01*
X65747586Y50710188D01*
X65782061Y50649416D01*
X65785328Y50619539D01*
X65716496Y45140519D01*
X65659000Y40563800D01*
X66958740Y39226567D01*
X68265519Y37882093D01*
X68298129Y37820300D01*
X68300600Y37795667D01*
X68300600Y3688736D01*
X68280915Y3621697D01*
X68264281Y3601055D01*
X65997233Y1334006D01*
X65975995Y1312769D01*
X65964500Y1285018D01*
X65964500Y892203D01*
X65944815Y825164D01*
X65934786Y811667D01*
X65343102Y118964D01*
X65284594Y80774D01*
X65248816Y75500D01*
X22380302Y75500D01*
X22379862Y75501D01*
X808682Y151965D01*
X741713Y171887D01*
X696146Y224853D01*
X685124Y275282D01*
X667734Y3438655D01*
X26581500Y3438655D01*
X26581500Y1641346D01*
X26588011Y1580798D01*
X26588011Y1580796D01*
X26639111Y1443796D01*
X26726739Y1326739D01*
X26843796Y1239111D01*
X26980799Y1188011D01*
X27008050Y1185082D01*
X27041345Y1181501D01*
X27041362Y1181500D01*
X28838638Y1181500D01*
X28838654Y1181501D01*
X28865692Y1184409D01*
X28899201Y1188011D01*
X29036204Y1239111D01*
X29153261Y1326739D01*
X29240889Y1443796D01*
X29286138Y1565113D01*
X29328009Y1621044D01*
X29393474Y1645461D01*
X29461746Y1630609D01*
X29493545Y1605764D01*
X29556760Y1537094D01*
X29734424Y1398811D01*
X29734425Y1398811D01*
X29734427Y1398809D01*
X29861135Y1330239D01*
X29932426Y1291658D01*
X30145365Y1218556D01*
X30367431Y1181500D01*
X30592569Y1181500D01*
X30814635Y1218556D01*
X31027574Y1291658D01*
X31225576Y1398811D01*
X31403240Y1537094D01*
X31524594Y1668918D01*
X31555715Y1702724D01*
X31555715Y1702725D01*
X31555722Y1702732D01*
X31646193Y1841210D01*
X31699338Y1886563D01*
X31768569Y1895987D01*
X31831905Y1866485D01*
X31853804Y1841213D01*
X31944278Y1702732D01*
X31944283Y1702727D01*
X31944284Y1702724D01*
X32070968Y1565111D01*
X32096760Y1537094D01*
X32274424Y1398811D01*
X32274425Y1398811D01*
X32274427Y1398809D01*
X32401135Y1330239D01*
X32472426Y1291658D01*
X32685365Y1218556D01*
X32907431Y1181500D01*
X33132569Y1181500D01*
X33354635Y1218556D01*
X33567574Y1291658D01*
X33765576Y1398811D01*
X33943240Y1537094D01*
X34064594Y1668918D01*
X34095715Y1702724D01*
X34095715Y1702725D01*
X34095722Y1702732D01*
X34186193Y1841210D01*
X34239338Y1886563D01*
X34308569Y1895987D01*
X34371905Y1866485D01*
X34393804Y1841213D01*
X34484278Y1702732D01*
X34484283Y1702727D01*
X34484284Y1702724D01*
X34610968Y1565111D01*
X34636760Y1537094D01*
X34814424Y1398811D01*
X34814425Y1398811D01*
X34814427Y1398809D01*
X34941135Y1330239D01*
X35012426Y1291658D01*
X35225365Y1218556D01*
X35447431Y1181500D01*
X35672569Y1181500D01*
X35894635Y1218556D01*
X36107574Y1291658D01*
X36305576Y1398811D01*
X36483240Y1537094D01*
X36604594Y1668918D01*
X36635715Y1702724D01*
X36635715Y1702725D01*
X36635722Y1702732D01*
X36726193Y1841210D01*
X36779338Y1886563D01*
X36848569Y1895987D01*
X36911905Y1866485D01*
X36933804Y1841213D01*
X37024278Y1702732D01*
X37024283Y1702727D01*
X37024284Y1702724D01*
X37150968Y1565111D01*
X37176760Y1537094D01*
X37354424Y1398811D01*
X37354425Y1398811D01*
X37354427Y1398809D01*
X37481135Y1330239D01*
X37552426Y1291658D01*
X37765365Y1218556D01*
X37987431Y1181500D01*
X38212569Y1181500D01*
X38434635Y1218556D01*
X38647574Y1291658D01*
X38845576Y1398811D01*
X39023240Y1537094D01*
X39144594Y1668918D01*
X39175715Y1702724D01*
X39175715Y1702725D01*
X39175722Y1702732D01*
X39269749Y1846653D01*
X39322894Y1892006D01*
X39392125Y1901430D01*
X39455461Y1871928D01*
X39475130Y1849952D01*
X39601890Y1668922D01*
X39768917Y1501895D01*
X39962421Y1366400D01*
X40176507Y1266571D01*
X40176516Y1266567D01*
X40390000Y1209366D01*
X40390000Y2106988D01*
X40447007Y2074075D01*
X40574174Y2040000D01*
X40705826Y2040000D01*
X40832993Y2074075D01*
X40890000Y2106988D01*
X40890000Y1209367D01*
X41103483Y1266567D01*
X41103492Y1266571D01*
X41317578Y1366400D01*
X41511082Y1501895D01*
X41678105Y1668918D01*
X41808425Y1855032D01*
X41863002Y1898656D01*
X41932501Y1905849D01*
X41994855Y1874327D01*
X42011575Y1855032D01*
X42141894Y1668918D01*
X42308917Y1501895D01*
X42502421Y1366400D01*
X42716507Y1266571D01*
X42716516Y1266567D01*
X42930000Y1209366D01*
X42930000Y2106988D01*
X42987007Y2074075D01*
X43114174Y2040000D01*
X43245826Y2040000D01*
X43372993Y2074075D01*
X43430000Y2106988D01*
X43430000Y1209367D01*
X43643483Y1266567D01*
X43643492Y1266571D01*
X43857578Y1366400D01*
X44051082Y1501895D01*
X44218105Y1668918D01*
X44344868Y1849952D01*
X44399445Y1893577D01*
X44468944Y1900769D01*
X44531298Y1869247D01*
X44550251Y1846650D01*
X44644276Y1702735D01*
X44644284Y1702724D01*
X44770968Y1565111D01*
X44796760Y1537094D01*
X44974424Y1398811D01*
X44974425Y1398811D01*
X44974427Y1398809D01*
X45101135Y1330239D01*
X45172426Y1291658D01*
X45385365Y1218556D01*
X45607431Y1181500D01*
X45832569Y1181500D01*
X46054635Y1218556D01*
X46267574Y1291658D01*
X46465576Y1398811D01*
X46643240Y1537094D01*
X46764594Y1668918D01*
X46795715Y1702724D01*
X46795717Y1702727D01*
X46795722Y1702732D01*
X46918860Y1891209D01*
X47009296Y2097384D01*
X47064564Y2315632D01*
X47067164Y2347007D01*
X47083156Y2539995D01*
X47083156Y2540006D01*
X47064565Y2764360D01*
X47064563Y2764372D01*
X47009296Y2982615D01*
X46999071Y3005925D01*
X46918860Y3188791D01*
X46902706Y3213516D01*
X46795723Y3377266D01*
X46795715Y3377277D01*
X46739212Y3438655D01*
X49441500Y3438655D01*
X49441500Y1641346D01*
X49448011Y1580798D01*
X49448011Y1580796D01*
X49499111Y1443796D01*
X49586739Y1326739D01*
X49703796Y1239111D01*
X49840799Y1188011D01*
X49868050Y1185082D01*
X49901345Y1181501D01*
X49901362Y1181500D01*
X51698638Y1181500D01*
X51698654Y1181501D01*
X51725692Y1184409D01*
X51759201Y1188011D01*
X51896204Y1239111D01*
X52013261Y1326739D01*
X52100889Y1443796D01*
X52146138Y1565113D01*
X52188009Y1621044D01*
X52253474Y1645461D01*
X52321746Y1630609D01*
X52353545Y1605764D01*
X52416760Y1537094D01*
X52594424Y1398811D01*
X52594425Y1398811D01*
X52594427Y1398809D01*
X52721135Y1330239D01*
X52792426Y1291658D01*
X53005365Y1218556D01*
X53227431Y1181500D01*
X53452569Y1181500D01*
X53674635Y1218556D01*
X53887574Y1291658D01*
X54085576Y1398811D01*
X54263240Y1537094D01*
X54384594Y1668918D01*
X54415715Y1702724D01*
X54415715Y1702725D01*
X54415722Y1702732D01*
X54506193Y1841210D01*
X54559338Y1886563D01*
X54628569Y1895987D01*
X54691905Y1866485D01*
X54713804Y1841213D01*
X54804278Y1702732D01*
X54804283Y1702727D01*
X54804284Y1702724D01*
X54930968Y1565111D01*
X54956760Y1537094D01*
X55134424Y1398811D01*
X55134425Y1398811D01*
X55134427Y1398809D01*
X55261135Y1330239D01*
X55332426Y1291658D01*
X55545365Y1218556D01*
X55767431Y1181500D01*
X55992569Y1181500D01*
X56214635Y1218556D01*
X56427574Y1291658D01*
X56625576Y1398811D01*
X56803240Y1537094D01*
X56924594Y1668918D01*
X56955715Y1702724D01*
X56955715Y1702725D01*
X56955722Y1702732D01*
X57046193Y1841210D01*
X57099338Y1886563D01*
X57168569Y1895987D01*
X57231905Y1866485D01*
X57253804Y1841213D01*
X57344278Y1702732D01*
X57344283Y1702727D01*
X57344284Y1702724D01*
X57470968Y1565111D01*
X57496760Y1537094D01*
X57674424Y1398811D01*
X57674425Y1398811D01*
X57674427Y1398809D01*
X57801135Y1330239D01*
X57872426Y1291658D01*
X58085365Y1218556D01*
X58307431Y1181500D01*
X58532569Y1181500D01*
X58754635Y1218556D01*
X58967574Y1291658D01*
X59165576Y1398811D01*
X59343240Y1537094D01*
X59464594Y1668918D01*
X59495715Y1702724D01*
X59495715Y1702725D01*
X59495722Y1702732D01*
X59586193Y1841210D01*
X59639338Y1886563D01*
X59708569Y1895987D01*
X59771905Y1866485D01*
X59793804Y1841213D01*
X59884278Y1702732D01*
X59884283Y1702727D01*
X59884284Y1702724D01*
X60010968Y1565111D01*
X60036760Y1537094D01*
X60214424Y1398811D01*
X60214425Y1398811D01*
X60214427Y1398809D01*
X60341135Y1330239D01*
X60412426Y1291658D01*
X60625365Y1218556D01*
X60847431Y1181500D01*
X61072569Y1181500D01*
X61294635Y1218556D01*
X61507574Y1291658D01*
X61705576Y1398811D01*
X61883240Y1537094D01*
X62004594Y1668918D01*
X62035715Y1702724D01*
X62035715Y1702725D01*
X62035722Y1702732D01*
X62126193Y1841210D01*
X62179338Y1886563D01*
X62248569Y1895987D01*
X62311905Y1866485D01*
X62333804Y1841213D01*
X62424278Y1702732D01*
X62424283Y1702727D01*
X62424284Y1702724D01*
X62550968Y1565111D01*
X62576760Y1537094D01*
X62754424Y1398811D01*
X62754425Y1398811D01*
X62754427Y1398809D01*
X62881135Y1330239D01*
X62952426Y1291658D01*
X63165365Y1218556D01*
X63387431Y1181500D01*
X63612569Y1181500D01*
X63834635Y1218556D01*
X64047574Y1291658D01*
X64245576Y1398811D01*
X64423240Y1537094D01*
X64544594Y1668918D01*
X64575715Y1702724D01*
X64575717Y1702727D01*
X64575722Y1702732D01*
X64698860Y1891209D01*
X64789296Y2097384D01*
X64844564Y2315632D01*
X64847164Y2347007D01*
X64863156Y2539995D01*
X64863156Y2540006D01*
X64844565Y2764360D01*
X64844563Y2764372D01*
X64789296Y2982615D01*
X64779071Y3005925D01*
X64698860Y3188791D01*
X64682706Y3213516D01*
X64575723Y3377266D01*
X64575715Y3377277D01*
X64423243Y3542903D01*
X64423238Y3542908D01*
X64266747Y3664711D01*
X64245576Y3681189D01*
X64245575Y3681190D01*
X64245572Y3681192D01*
X64047580Y3788339D01*
X64047577Y3788341D01*
X64047574Y3788342D01*
X64047571Y3788343D01*
X64047569Y3788344D01*
X63834637Y3861444D01*
X63612569Y3898500D01*
X63387431Y3898500D01*
X63165362Y3861444D01*
X62952430Y3788344D01*
X62952419Y3788339D01*
X62754427Y3681192D01*
X62754422Y3681188D01*
X62576761Y3542908D01*
X62576756Y3542903D01*
X62424284Y3377277D01*
X62424276Y3377266D01*
X62333808Y3238794D01*
X62280662Y3193438D01*
X62211431Y3184014D01*
X62148095Y3213516D01*
X62126192Y3238794D01*
X62035723Y3377266D01*
X62035715Y3377277D01*
X61883243Y3542903D01*
X61883238Y3542908D01*
X61726747Y3664711D01*
X61705576Y3681189D01*
X61705575Y3681190D01*
X61705572Y3681192D01*
X61507580Y3788339D01*
X61507577Y3788341D01*
X61507574Y3788342D01*
X61507571Y3788343D01*
X61507569Y3788344D01*
X61294637Y3861444D01*
X61072569Y3898500D01*
X60847431Y3898500D01*
X60625362Y3861444D01*
X60412430Y3788344D01*
X60412419Y3788339D01*
X60214427Y3681192D01*
X60214422Y3681188D01*
X60036761Y3542908D01*
X60036756Y3542903D01*
X59884284Y3377277D01*
X59884276Y3377266D01*
X59793808Y3238794D01*
X59740662Y3193438D01*
X59671431Y3184014D01*
X59608095Y3213516D01*
X59586192Y3238794D01*
X59495723Y3377266D01*
X59495715Y3377277D01*
X59343243Y3542903D01*
X59343238Y3542908D01*
X59186747Y3664711D01*
X59165576Y3681189D01*
X59165575Y3681190D01*
X59165572Y3681192D01*
X58967580Y3788339D01*
X58967577Y3788341D01*
X58967574Y3788342D01*
X58967571Y3788343D01*
X58967569Y3788344D01*
X58754637Y3861444D01*
X58532569Y3898500D01*
X58307431Y3898500D01*
X58085362Y3861444D01*
X57872430Y3788344D01*
X57872419Y3788339D01*
X57674427Y3681192D01*
X57674422Y3681188D01*
X57496761Y3542908D01*
X57496756Y3542903D01*
X57344284Y3377277D01*
X57344276Y3377266D01*
X57253808Y3238794D01*
X57200662Y3193438D01*
X57131431Y3184014D01*
X57068095Y3213516D01*
X57046192Y3238794D01*
X56955723Y3377266D01*
X56955715Y3377277D01*
X56803243Y3542903D01*
X56803238Y3542908D01*
X56646747Y3664711D01*
X56625576Y3681189D01*
X56625575Y3681190D01*
X56625572Y3681192D01*
X56427580Y3788339D01*
X56427577Y3788341D01*
X56427574Y3788342D01*
X56427571Y3788343D01*
X56427569Y3788344D01*
X56214637Y3861444D01*
X55992569Y3898500D01*
X55767431Y3898500D01*
X55545362Y3861444D01*
X55332430Y3788344D01*
X55332419Y3788339D01*
X55134427Y3681192D01*
X55134422Y3681188D01*
X54956761Y3542908D01*
X54956756Y3542903D01*
X54804284Y3377277D01*
X54804276Y3377266D01*
X54713808Y3238794D01*
X54660662Y3193438D01*
X54591431Y3184014D01*
X54528095Y3213516D01*
X54506192Y3238794D01*
X54415723Y3377266D01*
X54415715Y3377277D01*
X54263243Y3542903D01*
X54263238Y3542908D01*
X54106747Y3664711D01*
X54085576Y3681189D01*
X54085575Y3681190D01*
X54085572Y3681192D01*
X53887580Y3788339D01*
X53887577Y3788341D01*
X53887574Y3788342D01*
X53887571Y3788343D01*
X53887569Y3788344D01*
X53674637Y3861444D01*
X53452569Y3898500D01*
X53227431Y3898500D01*
X53005362Y3861444D01*
X52792430Y3788344D01*
X52792419Y3788339D01*
X52594427Y3681192D01*
X52594422Y3681188D01*
X52416761Y3542908D01*
X52353548Y3474240D01*
X52293661Y3438250D01*
X52223823Y3440351D01*
X52166207Y3479876D01*
X52146138Y3514890D01*
X52100889Y3636204D01*
X52079549Y3664711D01*
X52013261Y3753261D01*
X51896204Y3840889D01*
X51895172Y3841274D01*
X51759203Y3891989D01*
X51698654Y3898500D01*
X51698638Y3898500D01*
X49901362Y3898500D01*
X49901345Y3898500D01*
X49840797Y3891989D01*
X49840795Y3891989D01*
X49703795Y3840889D01*
X49586739Y3753261D01*
X49499111Y3636205D01*
X49448011Y3499205D01*
X49448011Y3499203D01*
X49441500Y3438655D01*
X46739212Y3438655D01*
X46643243Y3542903D01*
X46643238Y3542908D01*
X46486747Y3664711D01*
X46465576Y3681189D01*
X46465575Y3681190D01*
X46465572Y3681192D01*
X46267580Y3788339D01*
X46267577Y3788341D01*
X46267574Y3788342D01*
X46267571Y3788343D01*
X46267569Y3788344D01*
X46054637Y3861444D01*
X45832569Y3898500D01*
X45607431Y3898500D01*
X45385362Y3861444D01*
X45172430Y3788344D01*
X45172419Y3788339D01*
X44974427Y3681192D01*
X44974422Y3681188D01*
X44796761Y3542908D01*
X44796756Y3542903D01*
X44644284Y3377277D01*
X44644276Y3377266D01*
X44550251Y3233350D01*
X44497105Y3187993D01*
X44427873Y3178570D01*
X44364538Y3208072D01*
X44344868Y3230049D01*
X44218113Y3411074D01*
X44218108Y3411080D01*
X44051082Y3578106D01*
X43857578Y3713601D01*
X43643492Y3813430D01*
X43643486Y3813433D01*
X43430000Y3870636D01*
X43430000Y2973012D01*
X43372993Y3005925D01*
X43245826Y3040000D01*
X43114174Y3040000D01*
X42987007Y3005925D01*
X42930000Y2973012D01*
X42930000Y3870636D01*
X42929999Y3870636D01*
X42716513Y3813433D01*
X42716507Y3813430D01*
X42502422Y3713601D01*
X42502420Y3713600D01*
X42308926Y3578114D01*
X42308920Y3578109D01*
X42141891Y3411080D01*
X42141890Y3411078D01*
X42011575Y3224969D01*
X41956998Y3181345D01*
X41887499Y3174152D01*
X41825145Y3205674D01*
X41808425Y3224969D01*
X41678109Y3411078D01*
X41678108Y3411080D01*
X41511082Y3578106D01*
X41317578Y3713601D01*
X41103492Y3813430D01*
X41103486Y3813433D01*
X40890000Y3870636D01*
X40890000Y2973012D01*
X40832993Y3005925D01*
X40705826Y3040000D01*
X40574174Y3040000D01*
X40447007Y3005925D01*
X40390000Y2973012D01*
X40390000Y3870636D01*
X40389999Y3870636D01*
X40176513Y3813433D01*
X40176507Y3813430D01*
X39962422Y3713601D01*
X39962420Y3713600D01*
X39768926Y3578114D01*
X39768920Y3578109D01*
X39601891Y3411080D01*
X39601890Y3411078D01*
X39475131Y3230048D01*
X39420554Y3186423D01*
X39351055Y3179231D01*
X39288701Y3210753D01*
X39269752Y3233344D01*
X39175722Y3377268D01*
X39175715Y3377275D01*
X39175715Y3377277D01*
X39023243Y3542903D01*
X39023238Y3542908D01*
X38906337Y3633897D01*
X38865524Y3690608D01*
X38858500Y3731750D01*
X38858500Y11174509D01*
X38829352Y11321041D01*
X38829351Y11321042D01*
X38829351Y11321046D01*
X38829349Y11321051D01*
X38772177Y11459078D01*
X38772170Y11459091D01*
X38689166Y11583315D01*
X38689165Y11583316D01*
X38583516Y11688965D01*
X37593262Y12679219D01*
X37559777Y12740542D01*
X37564761Y12810234D01*
X37606633Y12866167D01*
X37672097Y12890584D01*
X37680943Y12890900D01*
X39465838Y12890900D01*
X39465854Y12890901D01*
X39492892Y12893809D01*
X39526401Y12897411D01*
X39663404Y12948511D01*
X39780461Y13036139D01*
X39868089Y13153196D01*
X39913338Y13274513D01*
X39955209Y13330444D01*
X40020674Y13354861D01*
X40088946Y13340009D01*
X40120745Y13315164D01*
X40183960Y13246494D01*
X40361624Y13108211D01*
X40361625Y13108211D01*
X40361627Y13108209D01*
X40441303Y13065091D01*
X40559626Y13001058D01*
X40772565Y12927956D01*
X40994631Y12890900D01*
X41219769Y12890900D01*
X41441835Y12927956D01*
X41654774Y13001058D01*
X41852776Y13108211D01*
X42030440Y13246494D01*
X42182922Y13412132D01*
X42273393Y13550610D01*
X42326538Y13595963D01*
X42395769Y13605387D01*
X42459105Y13575885D01*
X42481004Y13550613D01*
X42571478Y13412132D01*
X42571483Y13412127D01*
X42571484Y13412124D01*
X42720411Y13250349D01*
X42723960Y13246494D01*
X42901624Y13108211D01*
X42901625Y13108211D01*
X42901627Y13108209D01*
X42981303Y13065091D01*
X43099626Y13001058D01*
X43312565Y12927956D01*
X43534631Y12890900D01*
X43759769Y12890900D01*
X43981835Y12927956D01*
X44194774Y13001058D01*
X44392776Y13108211D01*
X44570440Y13246494D01*
X44722922Y13412132D01*
X44813393Y13550610D01*
X44866538Y13595963D01*
X44935769Y13605387D01*
X44999105Y13575885D01*
X45021004Y13550613D01*
X45111478Y13412132D01*
X45111483Y13412127D01*
X45111484Y13412124D01*
X45260411Y13250349D01*
X45263960Y13246494D01*
X45441624Y13108211D01*
X45441625Y13108211D01*
X45441627Y13108209D01*
X45521303Y13065091D01*
X45639626Y13001058D01*
X45852565Y12927956D01*
X46074631Y12890900D01*
X46299769Y12890900D01*
X46521835Y12927956D01*
X46734774Y13001058D01*
X46932776Y13108211D01*
X47110440Y13246494D01*
X47262922Y13412132D01*
X47386060Y13600609D01*
X47476496Y13806784D01*
X47531764Y14025032D01*
X47550356Y14249400D01*
X47531764Y14473768D01*
X47476496Y14692016D01*
X47386060Y14898191D01*
X47369906Y14922916D01*
X47262923Y15086666D01*
X47262915Y15086677D01*
X47110443Y15252303D01*
X47110438Y15252308D01*
X46932777Y15390588D01*
X46932772Y15390592D01*
X46734780Y15497739D01*
X46734777Y15497741D01*
X46734774Y15497742D01*
X46734771Y15497743D01*
X46734769Y15497744D01*
X46521837Y15570844D01*
X46299769Y15607900D01*
X46074631Y15607900D01*
X45852562Y15570844D01*
X45639630Y15497744D01*
X45639619Y15497739D01*
X45441627Y15390592D01*
X45441622Y15390588D01*
X45263961Y15252308D01*
X45263956Y15252303D01*
X45111484Y15086677D01*
X45111476Y15086666D01*
X45021008Y14948194D01*
X44967862Y14902838D01*
X44898631Y14893414D01*
X44835295Y14922916D01*
X44813392Y14948194D01*
X44722923Y15086666D01*
X44722915Y15086677D01*
X44570443Y15252303D01*
X44570438Y15252308D01*
X44392777Y15390588D01*
X44392772Y15390592D01*
X44194780Y15497739D01*
X44194777Y15497741D01*
X44194774Y15497742D01*
X44194771Y15497743D01*
X44194769Y15497744D01*
X43981837Y15570844D01*
X43759769Y15607900D01*
X43534631Y15607900D01*
X43312562Y15570844D01*
X43099630Y15497744D01*
X43099619Y15497739D01*
X42901627Y15390592D01*
X42901622Y15390588D01*
X42723961Y15252308D01*
X42723956Y15252303D01*
X42571484Y15086677D01*
X42571476Y15086666D01*
X42481008Y14948194D01*
X42427862Y14902838D01*
X42358631Y14893414D01*
X42295295Y14922916D01*
X42273392Y14948194D01*
X42182923Y15086666D01*
X42182915Y15086677D01*
X42030443Y15252303D01*
X42030438Y15252308D01*
X41852777Y15390588D01*
X41852772Y15390592D01*
X41654780Y15497739D01*
X41654777Y15497741D01*
X41654774Y15497742D01*
X41654771Y15497743D01*
X41654769Y15497744D01*
X41441837Y15570844D01*
X41219769Y15607900D01*
X40994631Y15607900D01*
X40772562Y15570844D01*
X40559630Y15497744D01*
X40559619Y15497739D01*
X40361627Y15390592D01*
X40361622Y15390588D01*
X40183961Y15252308D01*
X40120748Y15183640D01*
X40060861Y15147650D01*
X39991023Y15149751D01*
X39933407Y15189276D01*
X39913338Y15224290D01*
X39868089Y15345604D01*
X39834414Y15390588D01*
X39780461Y15462661D01*
X39663404Y15550289D01*
X39526403Y15601389D01*
X39465854Y15607900D01*
X39465838Y15607900D01*
X37668562Y15607900D01*
X37668545Y15607900D01*
X37607997Y15601389D01*
X37607995Y15601389D01*
X37470995Y15550289D01*
X37353939Y15462661D01*
X37266311Y15345605D01*
X37215211Y15208605D01*
X37215211Y15208603D01*
X37208700Y15148055D01*
X37208700Y13363143D01*
X37189015Y13296104D01*
X37136211Y13250349D01*
X37067053Y13240405D01*
X37003497Y13269430D01*
X36997019Y13275462D01*
X36854819Y13417662D01*
X36821334Y13478985D01*
X36818500Y13505343D01*
X36818500Y16234071D01*
X36825459Y16275026D01*
X36853217Y16354353D01*
X36873616Y16535400D01*
X36853217Y16716447D01*
X36825458Y16795779D01*
X36818500Y16836733D01*
X36818500Y19529175D01*
X36838185Y19596214D01*
X36871375Y19630749D01*
X36904300Y19653802D01*
X37066198Y19815700D01*
X37197523Y20003251D01*
X37217618Y20046345D01*
X37263790Y20098785D01*
X37330983Y20117937D01*
X37397864Y20097722D01*
X37442382Y20046345D01*
X37462477Y20003251D01*
X37593802Y19815700D01*
X37755700Y19653802D01*
X37943251Y19522477D01*
X38068091Y19464264D01*
X38150750Y19425719D01*
X38150752Y19425719D01*
X38150757Y19425716D01*
X38371913Y19366457D01*
X38534832Y19352204D01*
X38599998Y19346502D01*
X38600000Y19346502D01*
X38600002Y19346502D01*
X38657021Y19351491D01*
X38828087Y19366457D01*
X39049243Y19425716D01*
X39256749Y19522477D01*
X39444300Y19653802D01*
X39606198Y19815700D01*
X39737523Y20003251D01*
X39757618Y20046345D01*
X39803790Y20098785D01*
X39870983Y20117937D01*
X39937864Y20097722D01*
X39982382Y20046345D01*
X40002477Y20003251D01*
X40133802Y19815700D01*
X40295700Y19653802D01*
X40483251Y19522477D01*
X40608091Y19464264D01*
X40690750Y19425719D01*
X40690752Y19425719D01*
X40690757Y19425716D01*
X40911913Y19366457D01*
X41074832Y19352204D01*
X41139998Y19346502D01*
X41140000Y19346502D01*
X41140002Y19346502D01*
X41197021Y19351491D01*
X41368087Y19366457D01*
X41589243Y19425716D01*
X41796749Y19522477D01*
X41984300Y19653802D01*
X42146198Y19815700D01*
X42277523Y20003251D01*
X42297618Y20046345D01*
X42343790Y20098785D01*
X42410983Y20117937D01*
X42477864Y20097722D01*
X42522382Y20046345D01*
X42542477Y20003251D01*
X42673802Y19815700D01*
X42835700Y19653802D01*
X43023251Y19522477D01*
X43148091Y19464264D01*
X43230750Y19425719D01*
X43230752Y19425719D01*
X43230757Y19425716D01*
X43451913Y19366457D01*
X43614832Y19352204D01*
X43679998Y19346502D01*
X43680000Y19346502D01*
X43680002Y19346502D01*
X43737021Y19351491D01*
X43908087Y19366457D01*
X44129243Y19425716D01*
X44336749Y19522477D01*
X44524300Y19653802D01*
X44686198Y19815700D01*
X44817523Y20003251D01*
X44837618Y20046345D01*
X44883790Y20098785D01*
X44950983Y20117937D01*
X45017864Y20097722D01*
X45062382Y20046345D01*
X45082477Y20003251D01*
X45213802Y19815700D01*
X45375700Y19653802D01*
X45563251Y19522477D01*
X45688091Y19464264D01*
X45770750Y19425719D01*
X45770752Y19425719D01*
X45770757Y19425716D01*
X45991913Y19366457D01*
X46154832Y19352204D01*
X46219998Y19346502D01*
X46220000Y19346502D01*
X46220002Y19346502D01*
X46277021Y19351491D01*
X46448087Y19366457D01*
X46669243Y19425716D01*
X46876749Y19522477D01*
X47064300Y19653802D01*
X47226198Y19815700D01*
X47357523Y20003251D01*
X47382307Y20056402D01*
X47428479Y20108841D01*
X47495672Y20127993D01*
X47562553Y20107778D01*
X47607071Y20056401D01*
X47629864Y20007521D01*
X47629865Y20007519D01*
X47760342Y19821180D01*
X47921179Y19660343D01*
X48107517Y19529866D01*
X48313673Y19433735D01*
X48313682Y19433731D01*
X48509999Y19381128D01*
X48510000Y19381129D01*
X48510000Y20344314D01*
X48514394Y20339920D01*
X48605606Y20287259D01*
X48707339Y20260000D01*
X48812661Y20260000D01*
X48914394Y20287259D01*
X49005606Y20339920D01*
X49010000Y20344314D01*
X49010000Y19381128D01*
X49206317Y19433731D01*
X49206326Y19433735D01*
X49412482Y19529866D01*
X49598820Y19660343D01*
X49759657Y19821180D01*
X49890133Y20007517D01*
X49912927Y20056400D01*
X49959098Y20108840D01*
X50026292Y20127993D01*
X50093173Y20107779D01*
X50137691Y20056404D01*
X50162477Y20003251D01*
X50293802Y19815700D01*
X50455700Y19653802D01*
X50643251Y19522477D01*
X50768091Y19464264D01*
X50850750Y19425719D01*
X50850752Y19425719D01*
X50850757Y19425716D01*
X51071913Y19366457D01*
X51234832Y19352204D01*
X51299998Y19346502D01*
X51300000Y19346502D01*
X51300002Y19346502D01*
X51357021Y19351491D01*
X51528087Y19366457D01*
X51749243Y19425716D01*
X51956749Y19522477D01*
X52144300Y19653802D01*
X52306198Y19815700D01*
X52437523Y20003251D01*
X52534284Y20210757D01*
X52593543Y20431913D01*
X52613498Y20660000D01*
X52593543Y20888087D01*
X52534284Y21109243D01*
X52437523Y21316749D01*
X52306198Y21504300D01*
X52144300Y21666198D01*
X51956749Y21797523D01*
X51956745Y21797525D01*
X51749249Y21894282D01*
X51749238Y21894286D01*
X51528089Y21953543D01*
X51528081Y21953544D01*
X51300002Y21973498D01*
X51299998Y21973498D01*
X51071918Y21953544D01*
X51071910Y21953543D01*
X50850761Y21894286D01*
X50850750Y21894282D01*
X50643254Y21797525D01*
X50643252Y21797524D01*
X50643251Y21797523D01*
X50455700Y21666198D01*
X50455698Y21666197D01*
X50455695Y21666194D01*
X50293806Y21504305D01*
X50293803Y21504302D01*
X50293802Y21504300D01*
X50211767Y21387144D01*
X50162476Y21316748D01*
X50162474Y21316744D01*
X50137691Y21263598D01*
X50091518Y21211159D01*
X50024324Y21192008D01*
X49957444Y21212225D01*
X49912927Y21263601D01*
X49890133Y21312483D01*
X49759657Y21498821D01*
X49598820Y21659658D01*
X49412482Y21790135D01*
X49206328Y21886266D01*
X49010000Y21938873D01*
X49010000Y20975686D01*
X49005606Y20980080D01*
X48914394Y21032741D01*
X48812661Y21060000D01*
X48707339Y21060000D01*
X48605606Y21032741D01*
X48514394Y20980080D01*
X48510000Y20975686D01*
X48510000Y21938873D01*
X48313671Y21886266D01*
X48107517Y21790135D01*
X47921179Y21659658D01*
X47760342Y21498821D01*
X47629865Y21312483D01*
X47607071Y21263599D01*
X47560898Y21211160D01*
X47493705Y21192008D01*
X47426824Y21212224D01*
X47382307Y21263599D01*
X47357523Y21316749D01*
X47226198Y21504300D01*
X47064300Y21666198D01*
X46876749Y21797523D01*
X46876745Y21797525D01*
X46669249Y21894282D01*
X46669238Y21894286D01*
X46448089Y21953543D01*
X46448081Y21953544D01*
X46220002Y21973498D01*
X46219998Y21973498D01*
X45991918Y21953544D01*
X45991910Y21953543D01*
X45770761Y21894286D01*
X45770750Y21894282D01*
X45563254Y21797525D01*
X45563252Y21797524D01*
X45563251Y21797523D01*
X45375700Y21666198D01*
X45375698Y21666197D01*
X45375695Y21666194D01*
X45213806Y21504305D01*
X45213803Y21504302D01*
X45213802Y21504300D01*
X45170442Y21442375D01*
X45082476Y21316749D01*
X45062382Y21273655D01*
X45016209Y21221216D01*
X44949016Y21202064D01*
X44882135Y21222280D01*
X44837618Y21273655D01*
X44817523Y21316749D01*
X44686198Y21504300D01*
X44524300Y21666198D01*
X44336749Y21797523D01*
X44336745Y21797525D01*
X44129249Y21894282D01*
X44129238Y21894286D01*
X43908089Y21953543D01*
X43908081Y21953544D01*
X43680002Y21973498D01*
X43679998Y21973498D01*
X43451918Y21953544D01*
X43451910Y21953543D01*
X43230761Y21894286D01*
X43230750Y21894282D01*
X43023254Y21797525D01*
X43023252Y21797524D01*
X43023251Y21797523D01*
X42835700Y21666198D01*
X42835698Y21666197D01*
X42835695Y21666194D01*
X42673806Y21504305D01*
X42673803Y21504302D01*
X42673802Y21504300D01*
X42630442Y21442375D01*
X42542476Y21316749D01*
X42522382Y21273655D01*
X42476209Y21221216D01*
X42409016Y21202064D01*
X42342135Y21222280D01*
X42297618Y21273655D01*
X42277523Y21316749D01*
X42146198Y21504300D01*
X41984300Y21666198D01*
X41796749Y21797523D01*
X41796745Y21797525D01*
X41589249Y21894282D01*
X41589238Y21894286D01*
X41368089Y21953543D01*
X41368081Y21953544D01*
X41140002Y21973498D01*
X41139998Y21973498D01*
X40911918Y21953544D01*
X40911910Y21953543D01*
X40690761Y21894286D01*
X40690750Y21894282D01*
X40483254Y21797525D01*
X40483252Y21797524D01*
X40483251Y21797523D01*
X40295700Y21666198D01*
X40295698Y21666197D01*
X40295695Y21666194D01*
X40133806Y21504305D01*
X40133803Y21504302D01*
X40133802Y21504300D01*
X40090442Y21442375D01*
X40002476Y21316749D01*
X39982382Y21273655D01*
X39936209Y21221216D01*
X39869016Y21202064D01*
X39802135Y21222280D01*
X39757618Y21273655D01*
X39737523Y21316749D01*
X39606198Y21504300D01*
X39444300Y21666198D01*
X39256749Y21797523D01*
X39256745Y21797525D01*
X39049249Y21894282D01*
X39049238Y21894286D01*
X38828089Y21953543D01*
X38828081Y21953544D01*
X38600002Y21973498D01*
X38599998Y21973498D01*
X38371918Y21953544D01*
X38371910Y21953543D01*
X38150761Y21894286D01*
X38150750Y21894282D01*
X37943254Y21797525D01*
X37943252Y21797524D01*
X37943251Y21797523D01*
X37755700Y21666198D01*
X37755698Y21666197D01*
X37755695Y21666194D01*
X37593806Y21504305D01*
X37593803Y21504302D01*
X37593802Y21504300D01*
X37550442Y21442375D01*
X37462476Y21316749D01*
X37442382Y21273655D01*
X37396209Y21221216D01*
X37329016Y21202064D01*
X37262135Y21222280D01*
X37217618Y21273655D01*
X37197523Y21316749D01*
X37066198Y21504300D01*
X36904300Y21666198D01*
X36716749Y21797523D01*
X36716745Y21797525D01*
X36509249Y21894282D01*
X36509238Y21894286D01*
X36288089Y21953543D01*
X36288081Y21953544D01*
X36060002Y21973498D01*
X36059998Y21973498D01*
X35831918Y21953544D01*
X35831910Y21953543D01*
X35610761Y21894286D01*
X35610750Y21894282D01*
X35403254Y21797525D01*
X35403252Y21797524D01*
X35403251Y21797523D01*
X35215700Y21666198D01*
X35215698Y21666197D01*
X35215695Y21666194D01*
X35053802Y21504301D01*
X35040986Y21485998D01*
X34986408Y21442375D01*
X34916909Y21435184D01*
X34854556Y21466709D01*
X34819144Y21526940D01*
X34816124Y21543871D01*
X34813596Y21567380D01*
X34763354Y21702087D01*
X34763350Y21702094D01*
X34677190Y21817188D01*
X34677187Y21817191D01*
X34562093Y21903351D01*
X34562086Y21903355D01*
X34427379Y21953597D01*
X34427372Y21953599D01*
X34367844Y21960000D01*
X33770000Y21960000D01*
X33770000Y20975686D01*
X33765606Y20980080D01*
X33674394Y21032741D01*
X33572661Y21060000D01*
X33467339Y21060000D01*
X33365606Y21032741D01*
X33274394Y20980080D01*
X33270000Y20975686D01*
X33270000Y21960000D01*
X32672155Y21960000D01*
X32612627Y21953599D01*
X32612620Y21953597D01*
X32477913Y21903355D01*
X32477906Y21903351D01*
X32362812Y21817191D01*
X32362809Y21817188D01*
X32276649Y21702094D01*
X32276645Y21702087D01*
X32226403Y21567380D01*
X32226401Y21567373D01*
X32220000Y21507845D01*
X32220000Y20910000D01*
X33204314Y20910000D01*
X33199920Y20905606D01*
X33147259Y20814394D01*
X33120000Y20712661D01*
X33120000Y20607339D01*
X33147259Y20505606D01*
X33199920Y20414394D01*
X33204314Y20410000D01*
X32220000Y20410000D01*
X32220000Y19812156D01*
X32226401Y19752628D01*
X32226403Y19752621D01*
X32276645Y19617914D01*
X32276649Y19617907D01*
X32362809Y19502813D01*
X32362812Y19502810D01*
X32477906Y19416650D01*
X32477913Y19416646D01*
X32612620Y19366404D01*
X32612627Y19366402D01*
X32672155Y19360001D01*
X32672172Y19360000D01*
X33270000Y19360000D01*
X33270000Y20344314D01*
X33274394Y20339920D01*
X33365606Y20287259D01*
X33467339Y20260000D01*
X33572661Y20260000D01*
X33674394Y20287259D01*
X33765606Y20339920D01*
X33770000Y20344314D01*
X33770000Y19360000D01*
X34367828Y19360000D01*
X34367844Y19360001D01*
X34427372Y19366402D01*
X34427379Y19366404D01*
X34562086Y19416646D01*
X34562093Y19416650D01*
X34677187Y19502810D01*
X34677190Y19502813D01*
X34763350Y19617907D01*
X34763354Y19617914D01*
X34813596Y19752621D01*
X34816124Y19776129D01*
X34842861Y19840681D01*
X34900253Y19880530D01*
X34970079Y19883025D01*
X35030168Y19847373D01*
X35040984Y19834006D01*
X35053802Y19815700D01*
X35053805Y19815697D01*
X35215695Y19653806D01*
X35215698Y19653804D01*
X35215700Y19653802D01*
X35248623Y19630750D01*
X35292247Y19576176D01*
X35301500Y19529175D01*
X35301500Y16836733D01*
X35294542Y16795779D01*
X35266783Y16716450D01*
X35266781Y16716442D01*
X35246384Y16535404D01*
X35246384Y16535397D01*
X35266781Y16354362D01*
X35266783Y16354352D01*
X35294541Y16275026D01*
X35301500Y16234071D01*
X35301500Y13065091D01*
X35330647Y12918561D01*
X35330649Y12918553D01*
X35387825Y12780518D01*
X35470835Y12656283D01*
X35470836Y12656282D01*
X37305181Y10821938D01*
X37338666Y10760615D01*
X37341500Y10734257D01*
X37341500Y3731750D01*
X37321815Y3664711D01*
X37293663Y3633897D01*
X37176761Y3542908D01*
X37176756Y3542903D01*
X37024284Y3377277D01*
X37024276Y3377266D01*
X36933808Y3238794D01*
X36880662Y3193438D01*
X36811431Y3184014D01*
X36748095Y3213516D01*
X36726192Y3238794D01*
X36635723Y3377266D01*
X36635715Y3377277D01*
X36483243Y3542903D01*
X36483238Y3542908D01*
X36326747Y3664711D01*
X36305576Y3681189D01*
X36305575Y3681190D01*
X36305572Y3681192D01*
X36107580Y3788339D01*
X36107577Y3788341D01*
X36107574Y3788342D01*
X36107571Y3788343D01*
X36107569Y3788344D01*
X35894637Y3861444D01*
X35672569Y3898500D01*
X35447431Y3898500D01*
X35225362Y3861444D01*
X35012430Y3788344D01*
X35012419Y3788339D01*
X34814427Y3681192D01*
X34814422Y3681188D01*
X34636761Y3542908D01*
X34636756Y3542903D01*
X34484284Y3377277D01*
X34484276Y3377266D01*
X34393808Y3238794D01*
X34340662Y3193438D01*
X34271431Y3184014D01*
X34208095Y3213516D01*
X34186192Y3238794D01*
X34095723Y3377266D01*
X34095715Y3377277D01*
X33943243Y3542903D01*
X33943238Y3542908D01*
X33786747Y3664711D01*
X33765576Y3681189D01*
X33765575Y3681190D01*
X33765572Y3681192D01*
X33567580Y3788339D01*
X33567577Y3788341D01*
X33567574Y3788342D01*
X33567571Y3788343D01*
X33567569Y3788344D01*
X33354637Y3861444D01*
X33132569Y3898500D01*
X32907431Y3898500D01*
X32685362Y3861444D01*
X32472430Y3788344D01*
X32472419Y3788339D01*
X32274427Y3681192D01*
X32274422Y3681188D01*
X32096761Y3542908D01*
X32096756Y3542903D01*
X31944284Y3377277D01*
X31944276Y3377266D01*
X31853808Y3238794D01*
X31800662Y3193438D01*
X31731431Y3184014D01*
X31668095Y3213516D01*
X31646192Y3238794D01*
X31555723Y3377266D01*
X31555715Y3377277D01*
X31403243Y3542903D01*
X31403238Y3542908D01*
X31246747Y3664711D01*
X31225576Y3681189D01*
X31225575Y3681190D01*
X31225572Y3681192D01*
X31027580Y3788339D01*
X31027577Y3788341D01*
X31027574Y3788342D01*
X31027571Y3788343D01*
X31027569Y3788344D01*
X30814637Y3861444D01*
X30592569Y3898500D01*
X30367431Y3898500D01*
X30145362Y3861444D01*
X29932430Y3788344D01*
X29932419Y3788339D01*
X29734427Y3681192D01*
X29734422Y3681188D01*
X29556761Y3542908D01*
X29493548Y3474240D01*
X29433661Y3438250D01*
X29363823Y3440351D01*
X29306207Y3479876D01*
X29286138Y3514890D01*
X29240889Y3636204D01*
X29219549Y3664711D01*
X29153261Y3753261D01*
X29036204Y3840889D01*
X29035172Y3841274D01*
X28899203Y3891989D01*
X28838654Y3898500D01*
X28838638Y3898500D01*
X27041362Y3898500D01*
X27041345Y3898500D01*
X26980797Y3891989D01*
X26980795Y3891989D01*
X26843795Y3840889D01*
X26726739Y3753261D01*
X26639111Y3636205D01*
X26588011Y3499205D01*
X26588011Y3499203D01*
X26581500Y3438655D01*
X667734Y3438655D01*
X502204Y33550000D01*
X8470898Y33550000D01*
X9516988Y33550000D01*
X9484075Y33492993D01*
X9450000Y33365826D01*
X9450000Y33234174D01*
X9484075Y33107007D01*
X9516988Y33050000D01*
X8470898Y33050000D01*
X8486934Y32948753D01*
X8559897Y32724198D01*
X8667085Y32513829D01*
X8805866Y32322814D01*
X8972813Y32155867D01*
X9163828Y32017086D01*
X9374197Y31909898D01*
X9598752Y31836935D01*
X9598751Y31836935D01*
X9831948Y31800000D01*
X10800000Y31800000D01*
X10800000Y32800000D01*
X11300000Y32800000D01*
X11300000Y31800000D01*
X12268052Y31800000D01*
X12501247Y31836935D01*
X12725802Y31909898D01*
X12936171Y32017086D01*
X13127186Y32155867D01*
X13294133Y32322814D01*
X13432914Y32513829D01*
X13540102Y32724198D01*
X13613065Y32948753D01*
X13629102Y33050000D01*
X12583012Y33050000D01*
X12615925Y33107007D01*
X12650000Y33234174D01*
X12650000Y33365826D01*
X12615925Y33492993D01*
X12583012Y33550000D01*
X13629102Y33550000D01*
X13613065Y33651248D01*
X13540102Y33875803D01*
X13432914Y34086172D01*
X13294133Y34277187D01*
X13127186Y34444134D01*
X12936171Y34582915D01*
X12725802Y34690103D01*
X12501247Y34763066D01*
X12501248Y34763066D01*
X12268052Y34800000D01*
X11300000Y34800000D01*
X11300000Y33800000D01*
X10800000Y33800000D01*
X10800000Y34800000D01*
X9831948Y34800000D01*
X9598752Y34763066D01*
X9374197Y34690103D01*
X9163828Y34582915D01*
X8972813Y34444134D01*
X8805866Y34277187D01*
X8667085Y34086172D01*
X8559897Y33875803D01*
X8486934Y33651248D01*
X8470898Y33550000D01*
X502204Y33550000D01*
X470496Y39318053D01*
X6150000Y39318053D01*
X6150000Y38350000D01*
X7150000Y38350000D01*
X7150000Y37850000D01*
X6150000Y37850000D01*
X6150000Y36881948D01*
X6186934Y36648753D01*
X6259897Y36424198D01*
X6367085Y36213829D01*
X6505866Y36022814D01*
X6672813Y35855867D01*
X6863828Y35717086D01*
X7074195Y35609898D01*
X7298744Y35536937D01*
X7298750Y35536935D01*
X7400000Y35520899D01*
X7400000Y36566988D01*
X7457007Y36534075D01*
X7584174Y36500000D01*
X7715826Y36500000D01*
X7842993Y36534075D01*
X7900000Y36566988D01*
X7900000Y35520900D01*
X8001249Y35536935D01*
X8001255Y35536937D01*
X8225804Y35609898D01*
X8436171Y35717086D01*
X8627186Y35855867D01*
X8794133Y36022814D01*
X8932914Y36213829D01*
X9040102Y36424198D01*
X9113065Y36648753D01*
X9150000Y36881948D01*
X9150000Y37850000D01*
X8150000Y37850000D01*
X8150000Y38350000D01*
X9150000Y38350000D01*
X9150000Y39318053D01*
X9113065Y39551248D01*
X9040102Y39775803D01*
X8932914Y39986172D01*
X8794133Y40177187D01*
X8627186Y40344134D01*
X8483326Y40448655D01*
X12441500Y40448655D01*
X12441500Y35751346D01*
X12448011Y35690798D01*
X12448011Y35690796D01*
X12499111Y35553796D01*
X12586739Y35436739D01*
X12703796Y35349111D01*
X12840799Y35298011D01*
X12868050Y35295082D01*
X12901345Y35291501D01*
X12901362Y35291500D01*
X14998638Y35291500D01*
X14998654Y35291501D01*
X15025692Y35294409D01*
X15059201Y35298011D01*
X15196204Y35349111D01*
X15313261Y35436739D01*
X15400889Y35553796D01*
X15451989Y35690799D01*
X15455591Y35724308D01*
X15458499Y35751346D01*
X15458500Y35751363D01*
X15458500Y40448638D01*
X15458499Y40448655D01*
X15454815Y40482915D01*
X15451989Y40509201D01*
X15400889Y40646204D01*
X15313261Y40763261D01*
X15196204Y40850889D01*
X15059203Y40901989D01*
X14998654Y40908500D01*
X14998638Y40908500D01*
X12901362Y40908500D01*
X12901345Y40908500D01*
X12840797Y40901989D01*
X12840795Y40901989D01*
X12703795Y40850889D01*
X12586739Y40763261D01*
X12499111Y40646205D01*
X12448011Y40509205D01*
X12448011Y40509203D01*
X12441500Y40448655D01*
X8483326Y40448655D01*
X8436171Y40482915D01*
X8225802Y40590103D01*
X8001247Y40663066D01*
X7900000Y40679103D01*
X7900000Y39633012D01*
X7842993Y39665925D01*
X7715826Y39700000D01*
X7584174Y39700000D01*
X7457007Y39665925D01*
X7400000Y39633012D01*
X7400000Y40679103D01*
X7298752Y40663066D01*
X7074197Y40590103D01*
X6863828Y40482915D01*
X6672813Y40344134D01*
X6505866Y40177187D01*
X6367085Y39986172D01*
X6259897Y39775803D01*
X6186934Y39551248D01*
X6150000Y39318053D01*
X470496Y39318053D01*
X406421Y50973889D01*
X406626Y50981707D01*
X448188Y51698655D01*
X17437500Y51698655D01*
X17437500Y49901346D01*
X17444011Y49840798D01*
X17444011Y49840796D01*
X17495111Y49703796D01*
X17582739Y49586739D01*
X17699796Y49499111D01*
X17836799Y49448011D01*
X17864050Y49445082D01*
X17897345Y49441501D01*
X17897362Y49441500D01*
X19694638Y49441500D01*
X19694654Y49441501D01*
X19721692Y49444409D01*
X19755201Y49448011D01*
X19892204Y49499111D01*
X20009261Y49586739D01*
X20096889Y49703796D01*
X20142138Y49825113D01*
X20184009Y49881044D01*
X20249474Y49905461D01*
X20317746Y49890609D01*
X20349545Y49865764D01*
X20412760Y49797094D01*
X20590424Y49658811D01*
X20590425Y49658811D01*
X20590427Y49658809D01*
X20637516Y49633326D01*
X20788426Y49551658D01*
X21001365Y49478556D01*
X21223431Y49441500D01*
X21448569Y49441500D01*
X21670635Y49478556D01*
X21883574Y49551658D01*
X22081576Y49658811D01*
X22259240Y49797094D01*
X22380594Y49928918D01*
X22411715Y49962724D01*
X22411715Y49962725D01*
X22411722Y49962732D01*
X22502193Y50101210D01*
X22555338Y50146563D01*
X22624569Y50155987D01*
X22687905Y50126485D01*
X22709804Y50101213D01*
X22800278Y49962732D01*
X22800283Y49962727D01*
X22800284Y49962724D01*
X22926968Y49825111D01*
X22952760Y49797094D01*
X23130424Y49658811D01*
X23130425Y49658811D01*
X23130427Y49658809D01*
X23177516Y49633326D01*
X23328426Y49551658D01*
X23541365Y49478556D01*
X23763431Y49441500D01*
X23988569Y49441500D01*
X24210635Y49478556D01*
X24423574Y49551658D01*
X24621576Y49658811D01*
X24799240Y49797094D01*
X24920594Y49928918D01*
X24951715Y49962724D01*
X24951715Y49962725D01*
X24951722Y49962732D01*
X25045749Y50106653D01*
X25098894Y50152006D01*
X25168125Y50161430D01*
X25231461Y50131928D01*
X25251130Y50109952D01*
X25377890Y49928922D01*
X25544917Y49761895D01*
X25738421Y49626400D01*
X25952507Y49526571D01*
X25952516Y49526567D01*
X26166000Y49469366D01*
X26166000Y50366988D01*
X26223007Y50334075D01*
X26350174Y50300000D01*
X26481826Y50300000D01*
X26608993Y50334075D01*
X26666000Y50366988D01*
X26666000Y49469367D01*
X26879483Y49526567D01*
X26879492Y49526571D01*
X27093578Y49626400D01*
X27287082Y49761895D01*
X27454105Y49928918D01*
X27580868Y50109952D01*
X27635445Y50153577D01*
X27704944Y50160769D01*
X27767298Y50129247D01*
X27786251Y50106650D01*
X27880276Y49962735D01*
X27880284Y49962724D01*
X28006968Y49825111D01*
X28032760Y49797094D01*
X28210424Y49658811D01*
X28210426Y49658810D01*
X28210433Y49658805D01*
X28257516Y49633326D01*
X28307107Y49584108D01*
X28322500Y49524271D01*
X28322500Y45378202D01*
X28346843Y45255823D01*
X28346845Y45255815D01*
X28394598Y45140528D01*
X28394603Y45140519D01*
X28463928Y45036768D01*
X28463931Y45036764D01*
X33975729Y39524967D01*
X34045313Y39455383D01*
X34063968Y39436728D01*
X34167718Y39367404D01*
X34167724Y39367401D01*
X34167725Y39367400D01*
X34283015Y39319645D01*
X34405401Y39295301D01*
X34405405Y39295300D01*
X34405406Y39295300D01*
X36732291Y39295300D01*
X36799330Y39275615D01*
X36824440Y39254273D01*
X36828347Y39249934D01*
X36982848Y39137682D01*
X37157312Y39060006D01*
X37344113Y39020300D01*
X37535087Y39020300D01*
X37721888Y39060006D01*
X37896352Y39137682D01*
X38050853Y39249934D01*
X38178640Y39391856D01*
X38251113Y39517384D01*
X38301680Y39565598D01*
X38370287Y39578822D01*
X38435152Y39552854D01*
X38475680Y39495940D01*
X38482500Y39455383D01*
X38482500Y39226567D01*
X38462815Y39159528D01*
X38446180Y39138886D01*
X35656167Y36348871D01*
X35612047Y36304751D01*
X35567927Y36260632D01*
X35498603Y36156882D01*
X35498598Y36156873D01*
X35450845Y36041586D01*
X35450843Y36041578D01*
X35426500Y35919199D01*
X35426500Y34578353D01*
X35406815Y34511314D01*
X35373624Y34476779D01*
X35215699Y34366198D01*
X35053806Y34204305D01*
X34922476Y34016749D01*
X34902382Y33973655D01*
X34856209Y33921216D01*
X34789016Y33902064D01*
X34722135Y33922280D01*
X34677618Y33973655D01*
X34657523Y34016749D01*
X34608912Y34086172D01*
X34526198Y34204300D01*
X34364300Y34366198D01*
X34176749Y34497523D01*
X34176745Y34497525D01*
X33969249Y34594282D01*
X33969238Y34594286D01*
X33748089Y34653543D01*
X33748081Y34653544D01*
X33520002Y34673498D01*
X33519998Y34673498D01*
X33291918Y34653544D01*
X33291910Y34653543D01*
X33070761Y34594286D01*
X33070750Y34594282D01*
X32863254Y34497525D01*
X32863252Y34497524D01*
X32792856Y34448233D01*
X32675700Y34366198D01*
X32675698Y34366197D01*
X32675695Y34366194D01*
X32513806Y34204305D01*
X32382476Y34016748D01*
X32382475Y34016746D01*
X32285718Y33809250D01*
X32285714Y33809239D01*
X32226457Y33588090D01*
X32226456Y33588082D01*
X32206502Y33360002D01*
X32206502Y33359999D01*
X32226456Y33131919D01*
X32226457Y33131911D01*
X32285714Y32910762D01*
X32285718Y32910751D01*
X32362382Y32746345D01*
X32382477Y32703251D01*
X32513802Y32515700D01*
X32675700Y32353802D01*
X32863251Y32222477D01*
X32988091Y32164264D01*
X33070750Y32125719D01*
X33070752Y32125719D01*
X33070757Y32125716D01*
X33291913Y32066457D01*
X33454832Y32052204D01*
X33519998Y32046502D01*
X33520000Y32046502D01*
X33520002Y32046502D01*
X33577021Y32051491D01*
X33748087Y32066457D01*
X33969243Y32125716D01*
X34176749Y32222477D01*
X34364300Y32353802D01*
X34526198Y32515700D01*
X34657523Y32703251D01*
X34677618Y32746345D01*
X34723790Y32798785D01*
X34790983Y32817937D01*
X34857864Y32797722D01*
X34902382Y32746345D01*
X34922477Y32703251D01*
X35053802Y32515700D01*
X35215700Y32353802D01*
X35403251Y32222477D01*
X35528091Y32164264D01*
X35610750Y32125719D01*
X35610752Y32125719D01*
X35610757Y32125716D01*
X35831913Y32066457D01*
X35994832Y32052204D01*
X36059998Y32046502D01*
X36060000Y32046502D01*
X36060002Y32046502D01*
X36117021Y32051491D01*
X36288087Y32066457D01*
X36509243Y32125716D01*
X36716749Y32222477D01*
X36904300Y32353802D01*
X37066198Y32515700D01*
X37197523Y32703251D01*
X37217618Y32746345D01*
X37263790Y32798785D01*
X37330983Y32817937D01*
X37397864Y32797722D01*
X37442382Y32746345D01*
X37462477Y32703251D01*
X37593802Y32515700D01*
X37755700Y32353802D01*
X37943251Y32222477D01*
X38068091Y32164264D01*
X38150750Y32125719D01*
X38150752Y32125719D01*
X38150757Y32125716D01*
X38371913Y32066457D01*
X38534832Y32052204D01*
X38599998Y32046502D01*
X38600000Y32046502D01*
X38600002Y32046502D01*
X38657021Y32051491D01*
X38828087Y32066457D01*
X39049243Y32125716D01*
X39256749Y32222477D01*
X39444300Y32353802D01*
X39606198Y32515700D01*
X39737523Y32703251D01*
X39757618Y32746345D01*
X39803790Y32798785D01*
X39870983Y32817937D01*
X39937864Y32797722D01*
X39982382Y32746345D01*
X40002477Y32703251D01*
X40133802Y32515700D01*
X40295700Y32353802D01*
X40483251Y32222477D01*
X40608091Y32164264D01*
X40690750Y32125719D01*
X40690752Y32125719D01*
X40690757Y32125716D01*
X40911913Y32066457D01*
X41074832Y32052204D01*
X41139998Y32046502D01*
X41140000Y32046502D01*
X41140002Y32046502D01*
X41197021Y32051491D01*
X41368087Y32066457D01*
X41589243Y32125716D01*
X41796749Y32222477D01*
X41984300Y32353802D01*
X42146198Y32515700D01*
X42277523Y32703251D01*
X42297618Y32746345D01*
X42343790Y32798785D01*
X42410983Y32817937D01*
X42477864Y32797722D01*
X42522382Y32746345D01*
X42542477Y32703251D01*
X42673802Y32515700D01*
X42835700Y32353802D01*
X43023251Y32222477D01*
X43148091Y32164264D01*
X43230750Y32125719D01*
X43230752Y32125719D01*
X43230757Y32125716D01*
X43451913Y32066457D01*
X43614832Y32052204D01*
X43679998Y32046502D01*
X43680000Y32046502D01*
X43680002Y32046502D01*
X43737021Y32051491D01*
X43908087Y32066457D01*
X44129243Y32125716D01*
X44336749Y32222477D01*
X44524300Y32353802D01*
X44686198Y32515700D01*
X44817523Y32703251D01*
X44837618Y32746345D01*
X44883790Y32798785D01*
X44950983Y32817937D01*
X45017864Y32797722D01*
X45062382Y32746345D01*
X45082477Y32703251D01*
X45213802Y32515700D01*
X45375700Y32353802D01*
X45563251Y32222477D01*
X45688091Y32164264D01*
X45770750Y32125719D01*
X45770752Y32125719D01*
X45770757Y32125716D01*
X45991913Y32066457D01*
X46154832Y32052204D01*
X46219998Y32046502D01*
X46220000Y32046502D01*
X46220002Y32046502D01*
X46277021Y32051491D01*
X46448087Y32066457D01*
X46669243Y32125716D01*
X46876749Y32222477D01*
X47064300Y32353802D01*
X47226198Y32515700D01*
X47357523Y32703251D01*
X47377618Y32746345D01*
X47423790Y32798785D01*
X47490983Y32817937D01*
X47557864Y32797722D01*
X47602382Y32746345D01*
X47622477Y32703251D01*
X47753802Y32515700D01*
X47915700Y32353802D01*
X48103251Y32222477D01*
X48228091Y32164264D01*
X48310750Y32125719D01*
X48310752Y32125719D01*
X48310757Y32125716D01*
X48531913Y32066457D01*
X48694832Y32052204D01*
X48759998Y32046502D01*
X48760000Y32046502D01*
X48760002Y32046502D01*
X48817021Y32051491D01*
X48988087Y32066457D01*
X49209243Y32125716D01*
X49416749Y32222477D01*
X49604300Y32353802D01*
X49766198Y32515700D01*
X49897523Y32703251D01*
X49917618Y32746345D01*
X49963790Y32798785D01*
X50030983Y32817937D01*
X50097864Y32797722D01*
X50142382Y32746345D01*
X50162477Y32703251D01*
X50293802Y32515700D01*
X50455700Y32353802D01*
X50643251Y32222477D01*
X50768091Y32164264D01*
X50850750Y32125719D01*
X50850752Y32125719D01*
X50850757Y32125716D01*
X51071913Y32066457D01*
X51234832Y32052204D01*
X51299998Y32046502D01*
X51300000Y32046502D01*
X51300002Y32046502D01*
X51357021Y32051491D01*
X51528087Y32066457D01*
X51749243Y32125716D01*
X51956749Y32222477D01*
X52144300Y32353802D01*
X52306198Y32515700D01*
X52437523Y32703251D01*
X52534284Y32910757D01*
X52593543Y33131913D01*
X52613498Y33360000D01*
X52593543Y33588087D01*
X52534284Y33809243D01*
X52437523Y34016749D01*
X52306198Y34204300D01*
X52144300Y34366198D01*
X51956749Y34497523D01*
X51956745Y34497525D01*
X51749249Y34594282D01*
X51749238Y34594286D01*
X51528089Y34653543D01*
X51528081Y34653544D01*
X51300002Y34673498D01*
X51299998Y34673498D01*
X51071918Y34653544D01*
X51071910Y34653543D01*
X50850761Y34594286D01*
X50850750Y34594282D01*
X50643254Y34497525D01*
X50643252Y34497524D01*
X50572856Y34448233D01*
X50455700Y34366198D01*
X50455698Y34366197D01*
X50455695Y34366194D01*
X50293806Y34204305D01*
X50162476Y34016749D01*
X50142382Y33973655D01*
X50096209Y33921216D01*
X50029016Y33902064D01*
X49962135Y33922280D01*
X49917618Y33973655D01*
X49897523Y34016749D01*
X49848912Y34086172D01*
X49766198Y34204300D01*
X49604300Y34366198D01*
X49416749Y34497523D01*
X49416745Y34497525D01*
X49209249Y34594282D01*
X49209238Y34594286D01*
X48988089Y34653543D01*
X48988081Y34653544D01*
X48760002Y34673498D01*
X48759998Y34673498D01*
X48531918Y34653544D01*
X48531910Y34653543D01*
X48310761Y34594286D01*
X48310750Y34594282D01*
X48103254Y34497525D01*
X48103252Y34497524D01*
X48032856Y34448233D01*
X47915700Y34366198D01*
X47915698Y34366197D01*
X47915695Y34366194D01*
X47753806Y34204305D01*
X47622476Y34016749D01*
X47602382Y33973655D01*
X47556209Y33921216D01*
X47489016Y33902064D01*
X47422135Y33922280D01*
X47377618Y33973655D01*
X47357523Y34016749D01*
X47308912Y34086172D01*
X47226198Y34204300D01*
X47064300Y34366198D01*
X46876749Y34497523D01*
X46876745Y34497525D01*
X46669249Y34594282D01*
X46669238Y34594286D01*
X46448089Y34653543D01*
X46448081Y34653544D01*
X46220002Y34673498D01*
X46219998Y34673498D01*
X45991918Y34653544D01*
X45991910Y34653543D01*
X45770761Y34594286D01*
X45770750Y34594282D01*
X45563254Y34497525D01*
X45563252Y34497524D01*
X45492856Y34448233D01*
X45375700Y34366198D01*
X45375698Y34366197D01*
X45375695Y34366194D01*
X45213806Y34204305D01*
X45082476Y34016749D01*
X45062382Y33973655D01*
X45016209Y33921216D01*
X44949016Y33902064D01*
X44882135Y33922280D01*
X44837618Y33973655D01*
X44817523Y34016749D01*
X44768912Y34086172D01*
X44686198Y34204300D01*
X44524300Y34366198D01*
X44336749Y34497523D01*
X44336745Y34497525D01*
X44129249Y34594282D01*
X44129238Y34594286D01*
X43908089Y34653543D01*
X43908081Y34653544D01*
X43680002Y34673498D01*
X43679998Y34673498D01*
X43451918Y34653544D01*
X43451910Y34653543D01*
X43230761Y34594286D01*
X43230750Y34594282D01*
X43023254Y34497525D01*
X43023252Y34497524D01*
X42952856Y34448233D01*
X42835700Y34366198D01*
X42835698Y34366197D01*
X42835695Y34366194D01*
X42673806Y34204305D01*
X42542476Y34016749D01*
X42522382Y33973655D01*
X42476209Y33921216D01*
X42409016Y33902064D01*
X42342135Y33922280D01*
X42297618Y33973655D01*
X42277523Y34016749D01*
X42228912Y34086172D01*
X42146198Y34204300D01*
X41984300Y34366198D01*
X41796749Y34497523D01*
X41796745Y34497525D01*
X41589249Y34594282D01*
X41589238Y34594286D01*
X41368089Y34653543D01*
X41368081Y34653544D01*
X41140002Y34673498D01*
X41139998Y34673498D01*
X40911918Y34653544D01*
X40911910Y34653543D01*
X40690761Y34594286D01*
X40690750Y34594282D01*
X40483254Y34497525D01*
X40483252Y34497524D01*
X40412856Y34448233D01*
X40295700Y34366198D01*
X40295698Y34366197D01*
X40295695Y34366194D01*
X40133806Y34204305D01*
X40002476Y34016749D01*
X39982382Y33973655D01*
X39936209Y33921216D01*
X39869016Y33902064D01*
X39802135Y33922280D01*
X39757618Y33973655D01*
X39737523Y34016749D01*
X39688912Y34086172D01*
X39606198Y34204300D01*
X39444300Y34366198D01*
X39256749Y34497523D01*
X39256745Y34497525D01*
X39049249Y34594282D01*
X39049238Y34594286D01*
X38828089Y34653543D01*
X38828081Y34653544D01*
X38600002Y34673498D01*
X38599998Y34673498D01*
X38371918Y34653544D01*
X38371910Y34653543D01*
X38150761Y34594286D01*
X38150750Y34594282D01*
X37943254Y34497525D01*
X37943252Y34497524D01*
X37872856Y34448233D01*
X37755700Y34366198D01*
X37755698Y34366197D01*
X37755695Y34366194D01*
X37593806Y34204305D01*
X37462476Y34016749D01*
X37442382Y33973655D01*
X37396209Y33921216D01*
X37329016Y33902064D01*
X37262135Y33922280D01*
X37217618Y33973655D01*
X37197523Y34016749D01*
X37148912Y34086172D01*
X37066198Y34204300D01*
X36904300Y34366198D01*
X36746376Y34476779D01*
X36702751Y34531356D01*
X36693500Y34578353D01*
X36693500Y35543034D01*
X36713185Y35610073D01*
X36729819Y35630715D01*
X39608069Y38508964D01*
X39608072Y38508967D01*
X39677401Y38612725D01*
X39725155Y38728016D01*
X39749500Y38850407D01*
X39749500Y38975194D01*
X39749500Y49524271D01*
X39769185Y49591310D01*
X39814484Y49633326D01*
X39861566Y49658805D01*
X39861572Y49658809D01*
X39861576Y49658811D01*
X40039240Y49797094D01*
X40160594Y49928918D01*
X40191715Y49962724D01*
X40191715Y49962725D01*
X40191722Y49962732D01*
X40282193Y50101210D01*
X40335338Y50146563D01*
X40404569Y50155987D01*
X40467905Y50126485D01*
X40489804Y50101213D01*
X40580278Y49962732D01*
X40580283Y49962727D01*
X40580284Y49962724D01*
X40706968Y49825111D01*
X40732760Y49797094D01*
X40910424Y49658811D01*
X40910425Y49658811D01*
X40910427Y49658809D01*
X40957516Y49633326D01*
X41108426Y49551658D01*
X41321365Y49478556D01*
X41543431Y49441500D01*
X41768569Y49441500D01*
X41990635Y49478556D01*
X42203574Y49551658D01*
X42401576Y49658811D01*
X42579240Y49797094D01*
X42700594Y49928918D01*
X42731715Y49962724D01*
X42731717Y49962727D01*
X42731722Y49962732D01*
X42854860Y50151209D01*
X42945296Y50357384D01*
X43000564Y50575632D01*
X43003164Y50607007D01*
X43019156Y50799995D01*
X43019156Y50800006D01*
X43000565Y51024360D01*
X43000563Y51024372D01*
X42956063Y51200099D01*
X42945296Y51242616D01*
X42854860Y51448791D01*
X42838706Y51473516D01*
X42731723Y51637266D01*
X42731715Y51637277D01*
X42579243Y51802903D01*
X42579238Y51802908D01*
X42401577Y51941188D01*
X42401572Y51941192D01*
X42203580Y52048339D01*
X42203577Y52048341D01*
X42203574Y52048342D01*
X42203571Y52048343D01*
X42203569Y52048344D01*
X41990637Y52121444D01*
X41768569Y52158500D01*
X41543431Y52158500D01*
X41321362Y52121444D01*
X41108430Y52048344D01*
X41108419Y52048339D01*
X40910427Y51941192D01*
X40910422Y51941188D01*
X40732761Y51802908D01*
X40732756Y51802903D01*
X40580284Y51637277D01*
X40580276Y51637266D01*
X40489808Y51498794D01*
X40436662Y51453438D01*
X40367431Y51444014D01*
X40304095Y51473516D01*
X40282192Y51498794D01*
X40191723Y51637266D01*
X40191715Y51637277D01*
X40039243Y51802903D01*
X40039238Y51802908D01*
X39861577Y51941188D01*
X39861572Y51941192D01*
X39663580Y52048339D01*
X39663577Y52048341D01*
X39663574Y52048342D01*
X39663571Y52048343D01*
X39663569Y52048344D01*
X39450637Y52121444D01*
X39228569Y52158500D01*
X39003431Y52158500D01*
X38781362Y52121444D01*
X38568430Y52048344D01*
X38568419Y52048339D01*
X38370427Y51941192D01*
X38370422Y51941188D01*
X38192761Y51802908D01*
X38192756Y51802903D01*
X38040284Y51637277D01*
X38040276Y51637266D01*
X37949808Y51498794D01*
X37896662Y51453438D01*
X37827431Y51444014D01*
X37764095Y51473516D01*
X37742192Y51498794D01*
X37651723Y51637266D01*
X37651715Y51637277D01*
X37499243Y51802903D01*
X37499238Y51802908D01*
X37321577Y51941188D01*
X37321572Y51941192D01*
X37123580Y52048339D01*
X37123577Y52048341D01*
X37123574Y52048342D01*
X37123571Y52048343D01*
X37123569Y52048344D01*
X36910637Y52121444D01*
X36688569Y52158500D01*
X36463431Y52158500D01*
X36241362Y52121444D01*
X36028430Y52048344D01*
X36028419Y52048339D01*
X35830427Y51941192D01*
X35830422Y51941188D01*
X35652761Y51802908D01*
X35652756Y51802903D01*
X35500284Y51637277D01*
X35500276Y51637266D01*
X35409808Y51498794D01*
X35356662Y51453438D01*
X35287431Y51444014D01*
X35224095Y51473516D01*
X35202192Y51498794D01*
X35111723Y51637266D01*
X35111715Y51637277D01*
X34959243Y51802903D01*
X34959238Y51802908D01*
X34781577Y51941188D01*
X34781572Y51941192D01*
X34583580Y52048339D01*
X34583577Y52048341D01*
X34583574Y52048342D01*
X34583571Y52048343D01*
X34583569Y52048344D01*
X34370637Y52121444D01*
X34148569Y52158500D01*
X33923431Y52158500D01*
X33701362Y52121444D01*
X33488430Y52048344D01*
X33488419Y52048339D01*
X33290427Y51941192D01*
X33290422Y51941188D01*
X33112761Y51802908D01*
X33112756Y51802903D01*
X32960284Y51637277D01*
X32960276Y51637266D01*
X32869808Y51498794D01*
X32816662Y51453438D01*
X32747431Y51444014D01*
X32684095Y51473516D01*
X32662192Y51498794D01*
X32571723Y51637266D01*
X32571715Y51637277D01*
X32419243Y51802903D01*
X32419238Y51802908D01*
X32241577Y51941188D01*
X32241572Y51941192D01*
X32043580Y52048339D01*
X32043577Y52048341D01*
X32043574Y52048342D01*
X32043571Y52048343D01*
X32043569Y52048344D01*
X31830637Y52121444D01*
X31608569Y52158500D01*
X31383431Y52158500D01*
X31161362Y52121444D01*
X30948430Y52048344D01*
X30948419Y52048339D01*
X30750427Y51941192D01*
X30750422Y51941188D01*
X30572761Y51802908D01*
X30572756Y51802903D01*
X30420284Y51637277D01*
X30420276Y51637266D01*
X30329808Y51498794D01*
X30276662Y51453438D01*
X30207431Y51444014D01*
X30144095Y51473516D01*
X30122192Y51498794D01*
X30031723Y51637266D01*
X30031715Y51637277D01*
X29879243Y51802903D01*
X29879238Y51802908D01*
X29701577Y51941188D01*
X29701572Y51941192D01*
X29503580Y52048339D01*
X29503577Y52048341D01*
X29503574Y52048342D01*
X29503571Y52048343D01*
X29503569Y52048344D01*
X29290637Y52121444D01*
X29068569Y52158500D01*
X28843431Y52158500D01*
X28621362Y52121444D01*
X28408430Y52048344D01*
X28408419Y52048339D01*
X28210427Y51941192D01*
X28210422Y51941188D01*
X28032761Y51802908D01*
X28032756Y51802903D01*
X27880284Y51637277D01*
X27880276Y51637266D01*
X27786251Y51493350D01*
X27733105Y51447993D01*
X27663873Y51438570D01*
X27600538Y51468072D01*
X27580868Y51490049D01*
X27454113Y51671074D01*
X27454108Y51671080D01*
X27287082Y51838106D01*
X27093578Y51973601D01*
X26879492Y52073430D01*
X26879486Y52073433D01*
X26666000Y52130636D01*
X26666000Y51233012D01*
X26608993Y51265925D01*
X26481826Y51300000D01*
X26350174Y51300000D01*
X26223007Y51265925D01*
X26166000Y51233012D01*
X26166000Y52130636D01*
X26165999Y52130636D01*
X25952513Y52073433D01*
X25952507Y52073430D01*
X25738422Y51973601D01*
X25738420Y51973600D01*
X25544926Y51838114D01*
X25544920Y51838109D01*
X25377891Y51671080D01*
X25377890Y51671078D01*
X25251131Y51490048D01*
X25196554Y51446423D01*
X25127055Y51439231D01*
X25064701Y51470753D01*
X25045752Y51493344D01*
X24951722Y51637268D01*
X24951715Y51637275D01*
X24951715Y51637277D01*
X24799243Y51802903D01*
X24799238Y51802908D01*
X24621577Y51941188D01*
X24621572Y51941192D01*
X24423580Y52048339D01*
X24423577Y52048341D01*
X24423574Y52048342D01*
X24423571Y52048343D01*
X24423569Y52048344D01*
X24210637Y52121444D01*
X23988569Y52158500D01*
X23763431Y52158500D01*
X23541362Y52121444D01*
X23328430Y52048344D01*
X23328419Y52048339D01*
X23130427Y51941192D01*
X23130422Y51941188D01*
X22952761Y51802908D01*
X22952756Y51802903D01*
X22800284Y51637277D01*
X22800276Y51637266D01*
X22709808Y51498794D01*
X22656662Y51453438D01*
X22587431Y51444014D01*
X22524095Y51473516D01*
X22502192Y51498794D01*
X22411723Y51637266D01*
X22411715Y51637277D01*
X22259243Y51802903D01*
X22259238Y51802908D01*
X22081577Y51941188D01*
X22081572Y51941192D01*
X21883580Y52048339D01*
X21883577Y52048341D01*
X21883574Y52048342D01*
X21883571Y52048343D01*
X21883569Y52048344D01*
X21670637Y52121444D01*
X21448569Y52158500D01*
X21223431Y52158500D01*
X21001362Y52121444D01*
X20788430Y52048344D01*
X20788419Y52048339D01*
X20590427Y51941192D01*
X20590422Y51941188D01*
X20412761Y51802908D01*
X20349548Y51734240D01*
X20289661Y51698250D01*
X20219823Y51700351D01*
X20162207Y51739876D01*
X20142138Y51774890D01*
X20096889Y51896204D01*
X20063214Y51941188D01*
X20009261Y52013261D01*
X19892204Y52100889D01*
X19755203Y52151989D01*
X19694654Y52158500D01*
X19694638Y52158500D01*
X17897362Y52158500D01*
X17897345Y52158500D01*
X17836797Y52151989D01*
X17836795Y52151989D01*
X17699795Y52100889D01*
X17582739Y52013261D01*
X17495111Y51896205D01*
X17444011Y51759205D01*
X17444011Y51759203D01*
X17437500Y51698655D01*
X448188Y51698655D01*
X502218Y52630676D01*
X525749Y52696461D01*
X581113Y52739083D01*
X606667Y52745980D01*
X1946230Y52957490D01*
X1965492Y52959005D01*
X63348184Y52984380D01*
X63415229Y52964723D01*
G37*
%TD.AperFunction*%
%TD*%
D21*
X36060000Y16535400D03*
X37439600Y39928800D03*
X27940000Y2540000D03*
X30480000Y2540000D03*
X33020000Y2540000D03*
X35560000Y2540000D03*
X38100000Y2540000D03*
X40640000Y2540000D03*
X43180000Y2540000D03*
X45720000Y2540000D03*
X50800000Y2540000D03*
X53340000Y2540000D03*
X55880000Y2540000D03*
X58420000Y2540000D03*
X60960000Y2540000D03*
X63500000Y2540000D03*
X18796000Y50800000D03*
X21336000Y50800000D03*
X23876000Y50800000D03*
X26416000Y50800000D03*
X28956000Y50800000D03*
X31496000Y50800000D03*
X34036000Y50800000D03*
X36576000Y50800000D03*
X39116000Y50800000D03*
X41656000Y50800000D03*
X45720000Y50800000D03*
X48260000Y50800000D03*
X50800000Y50800000D03*
X53340000Y50800000D03*
X55880000Y50800000D03*
X58420000Y50800000D03*
X60960000Y50800000D03*
X63500000Y50800000D03*
D22*
X13950000Y38100000D03*
D23*
X7650000Y38100000D03*
D24*
X11050000Y33300000D03*
D21*
X15240000Y50800000D03*
X38567200Y14249400D03*
X41107200Y14249400D03*
X43647200Y14249400D03*
X46187200Y14249400D03*
X33520000Y20660000D03*
X36060000Y20660000D03*
X38600000Y20660000D03*
X41140000Y20660000D03*
X43680000Y20660000D03*
X46220000Y20660000D03*
X48760000Y20660000D03*
X51300000Y20660000D03*
X51300000Y33360000D03*
X48760000Y33360000D03*
X46220000Y33360000D03*
X43680000Y33360000D03*
X41140000Y33360000D03*
X38600000Y33360000D03*
X36060000Y33360000D03*
X33520000Y33360000D03*
X13970000Y2540000D03*
X66040000Y35560000D03*
X66040000Y7620000D03*
M02*
