%TF.GenerationSoftware,KiCad,Pcbnew,8.0.3*%
%TF.CreationDate,2024-07-23T15:51:25+08:00*%
%TF.ProjectId,Arduino Uno A4988 Shield,41726475-696e-46f2-9055-6e6f20413439,rev?*%
%TF.SameCoordinates,Original*%
%TF.FileFunction,Copper,L1,Top*%
%TF.FilePolarity,Positive*%
%FSLAX46Y46*%
G04 Gerber Fmt 4.6, Leading zero omitted, Abs format (unit mm)*
G04 Created by KiCad (PCBNEW 8.0.3) date 2024-07-23 15:51:25*
%MOMM*%
%LPD*%
G01*
G04 APERTURE LIST*
%TA.AperFunction,ComponentPad*%
%ADD10R,1.700000X1.700000*%
%TD*%
%TA.AperFunction,ComponentPad*%
%ADD11O,1.700000X1.700000*%
%TD*%
%TA.AperFunction,ComponentPad*%
%ADD12R,2.000000X4.600000*%
%TD*%
%TA.AperFunction,ComponentPad*%
%ADD13O,2.000000X4.200000*%
%TD*%
%TA.AperFunction,ComponentPad*%
%ADD14O,4.200000X2.000000*%
%TD*%
%TA.AperFunction,SMDPad,CuDef*%
%ADD15R,1.120000X2.440000*%
%TD*%
%TA.AperFunction,ComponentPad*%
%ADD16R,1.600000X1.600000*%
%TD*%
%TA.AperFunction,ComponentPad*%
%ADD17O,1.600000X1.600000*%
%TD*%
%TA.AperFunction,ViaPad*%
%ADD18C,0.600000*%
%TD*%
%TA.AperFunction,ViaPad*%
%ADD19C,0.800000*%
%TD*%
%TA.AperFunction,Conductor*%
%ADD20C,0.500000*%
%TD*%
%TA.AperFunction,Conductor*%
%ADD21C,0.250000*%
%TD*%
%TA.AperFunction,Conductor*%
%ADD22C,1.270000*%
%TD*%
%ADD23C,0.350000*%
%ADD24O,1.000000X3.600000*%
%ADD25O,1.000000X3.200000*%
%ADD26O,3.200000X1.000000*%
G04 APERTURE END LIST*
D10*
%TO.P,J1,1,Pin_1*%
%TO.N,unconnected-(J1-Pin_1-Pad1)*%
X27940000Y2540000D03*
D11*
%TO.P,J1,2,Pin_2*%
%TO.N,/IOREF*%
X30480000Y2540000D03*
%TO.P,J1,3,Pin_3*%
%TO.N,/~{RESET}*%
X33020000Y2540000D03*
%TO.P,J1,4,Pin_4*%
%TO.N,+3V3*%
X35560000Y2540000D03*
%TO.P,J1,5,Pin_5*%
%TO.N,+5V*%
X38100000Y2540000D03*
%TO.P,J1,6,Pin_6*%
%TO.N,GND*%
X40640000Y2540000D03*
%TO.P,J1,7,Pin_7*%
X43180000Y2540000D03*
%TO.P,J1,8,Pin_8*%
%TO.N,+12V*%
X45720000Y2540000D03*
%TD*%
D10*
%TO.P,J3,1,Pin_1*%
%TO.N,/A0*%
X50800000Y2540000D03*
D11*
%TO.P,J3,2,Pin_2*%
%TO.N,/A1*%
X53340000Y2540000D03*
%TO.P,J3,3,Pin_3*%
%TO.N,/A2*%
X55880000Y2540000D03*
%TO.P,J3,4,Pin_4*%
%TO.N,/A3*%
X58420000Y2540000D03*
%TO.P,J3,5,Pin_5*%
%TO.N,/SDA{slash}A4*%
X60960000Y2540000D03*
%TO.P,J3,6,Pin_6*%
%TO.N,/SCL{slash}A5*%
X63500000Y2540000D03*
%TD*%
D10*
%TO.P,J2,1,Pin_1*%
%TO.N,unconnected-(J2-Pin_1-Pad1)*%
X18796000Y50800000D03*
D11*
%TO.P,J2,2,Pin_2*%
%TO.N,unconnected-(J2-Pin_2-Pad2)*%
X21336000Y50800000D03*
%TO.P,J2,3,Pin_3*%
%TO.N,/AREF*%
X23876000Y50800000D03*
%TO.P,J2,4,Pin_4*%
%TO.N,GND*%
X26416000Y50800000D03*
%TO.P,J2,5,Pin_5*%
%TO.N,/13*%
X28956000Y50800000D03*
%TO.P,J2,6,Pin_6*%
%TO.N,/12*%
X31496000Y50800000D03*
%TO.P,J2,7,Pin_7*%
%TO.N,/\u002A11*%
X34036000Y50800000D03*
%TO.P,J2,8,Pin_8*%
%TO.N,/\u002A10*%
X36576000Y50800000D03*
%TO.P,J2,9,Pin_9*%
%TO.N,/\u002A9*%
X39116000Y50800000D03*
%TO.P,J2,10,Pin_10*%
%TO.N,/8*%
X41656000Y50800000D03*
%TD*%
D10*
%TO.P,J4,1,Pin_1*%
%TO.N,/7*%
X45720000Y50800000D03*
D11*
%TO.P,J4,2,Pin_2*%
%TO.N,/\u002A6*%
X48260000Y50800000D03*
%TO.P,J4,3,Pin_3*%
%TO.N,/\u002A5*%
X50800000Y50800000D03*
%TO.P,J4,4,Pin_4*%
%TO.N,/4*%
X53340000Y50800000D03*
%TO.P,J4,5,Pin_5*%
%TO.N,/\u002A3*%
X55880000Y50800000D03*
%TO.P,J4,6,Pin_6*%
%TO.N,/2*%
X58420000Y50800000D03*
%TO.P,J4,7,Pin_7*%
%TO.N,/TX{slash}1*%
X60960000Y50800000D03*
%TO.P,J4,8,Pin_8*%
%TO.N,/RX{slash}0*%
X63500000Y50800000D03*
%TD*%
D12*
%TO.P,J7,1*%
%TO.N,+12V*%
X13950000Y38100000D03*
D13*
%TO.P,J7,2*%
%TO.N,GND*%
X7650000Y38100000D03*
D14*
%TO.P,J7,3*%
X11050000Y33300000D03*
%TD*%
D15*
%TO.P,SW1,1*%
%TO.N,Net-(A1-MS3)*%
X20620000Y22695000D03*
%TO.P,SW1,2*%
%TO.N,Net-(A1-MS2)*%
X23160000Y22695000D03*
%TO.P,SW1,3*%
%TO.N,Net-(A1-MS1)*%
X25700000Y22695000D03*
%TO.P,SW1,4*%
%TO.N,+5V*%
X25700000Y31305000D03*
%TO.P,SW1,5*%
X23160000Y31305000D03*
%TO.P,SW1,6*%
X20620000Y31305000D03*
%TD*%
D10*
%TO.P,J5,1,Pin_1*%
%TO.N,Net-(A1-1B)*%
X38567200Y14249400D03*
D11*
%TO.P,J5,2,Pin_2*%
%TO.N,Net-(A1-1A)*%
X41107200Y14249400D03*
%TO.P,J5,3,Pin_3*%
%TO.N,Net-(A1-2A)*%
X43647200Y14249400D03*
%TO.P,J5,4,Pin_4*%
%TO.N,Net-(A1-2B)*%
X46187200Y14249400D03*
%TD*%
D16*
%TO.P,A1,1,GND*%
%TO.N,GND*%
X33520000Y20660000D03*
D17*
%TO.P,A1,2,VDD*%
%TO.N,+5V*%
X36060000Y20660000D03*
%TO.P,A1,3,1B*%
%TO.N,Net-(A1-1B)*%
X38600000Y20660000D03*
%TO.P,A1,4,1A*%
%TO.N,Net-(A1-1A)*%
X41140000Y20660000D03*
%TO.P,A1,5,2A*%
%TO.N,Net-(A1-2A)*%
X43680000Y20660000D03*
%TO.P,A1,6,2B*%
%TO.N,Net-(A1-2B)*%
X46220000Y20660000D03*
%TO.P,A1,7,GND*%
%TO.N,GND*%
X48760000Y20660000D03*
%TO.P,A1,8,VMOT*%
%TO.N,+12V*%
X51300000Y20660000D03*
%TO.P,A1,9,~{ENABLE}*%
%TO.N,/13*%
X51300000Y33360000D03*
%TO.P,A1,10,MS1*%
%TO.N,Net-(A1-MS1)*%
X48760000Y33360000D03*
%TO.P,A1,11,MS2*%
%TO.N,Net-(A1-MS2)*%
X46220000Y33360000D03*
%TO.P,A1,12,MS3*%
%TO.N,Net-(A1-MS3)*%
X43680000Y33360000D03*
%TO.P,A1,13,~{RESET}*%
%TO.N,Net-(A1-~{RESET})*%
X41140000Y33360000D03*
%TO.P,A1,14,~{SLEEP}*%
X38600000Y33360000D03*
%TO.P,A1,15,STEP*%
%TO.N,/\u002A9*%
X36060000Y33360000D03*
%TO.P,A1,16,DIR*%
%TO.N,/8*%
X33520000Y33360000D03*
%TD*%
D18*
%TO.N,+5V*%
X36060000Y16535400D03*
D19*
%TO.N,/13*%
X37439600Y39928800D03*
%TD*%
D20*
%TO.N,+5V*%
X16560800Y29565600D02*
X18300200Y31305000D01*
X18300200Y31305000D02*
X20620000Y31305000D01*
X20620000Y31305000D02*
X25700000Y31305000D01*
X21691600Y16535400D02*
X16560800Y21666200D01*
X36060000Y16535400D02*
X21691600Y16535400D01*
X16560800Y21666200D02*
X16560800Y29565600D01*
D21*
%TO.N,/13*%
X48514000Y39852600D02*
X51300000Y37066600D01*
X51300000Y37066600D02*
X51300000Y33360000D01*
X37439600Y39928800D02*
X37515800Y39852600D01*
X37515800Y39852600D02*
X48514000Y39852600D01*
%TO.N,/8*%
X33520000Y33360000D02*
X33520000Y40505000D01*
X33520000Y40505000D02*
X41656000Y48641000D01*
X41656000Y48641000D02*
X41656000Y50800000D01*
%TO.N,Net-(A1-MS3)*%
X22631400Y26924000D02*
X38811200Y26924000D01*
X43680000Y31792800D02*
X43680000Y33360000D01*
X20620000Y22695000D02*
X20620000Y24912600D01*
X20620000Y24912600D02*
X22631400Y26924000D01*
X38811200Y26924000D02*
X43680000Y31792800D01*
%TO.N,Net-(A1-MS2)*%
X39928800Y25450800D02*
X46220000Y31742000D01*
X24028400Y25450800D02*
X39928800Y25450800D01*
X23160000Y24582400D02*
X24028400Y25450800D01*
X23160000Y22695000D02*
X23160000Y24582400D01*
X46220000Y31742000D02*
X46220000Y33360000D01*
%TO.N,Net-(A1-~{RESET})*%
X38600000Y33360000D02*
X41140000Y33360000D01*
%TO.N,Net-(A1-MS1)*%
X25700000Y22695000D02*
X40830600Y22695000D01*
X40830600Y22695000D02*
X48760000Y30624400D01*
X48760000Y30624400D02*
X48760000Y33360000D01*
D22*
%TO.N,+12V*%
X15697200Y38100000D02*
X17449800Y36347400D01*
X17449800Y36347400D02*
X17449800Y34061400D01*
X51300000Y13784200D02*
X48183800Y10668000D01*
X13950000Y38100000D02*
X15697200Y38100000D01*
X14274800Y30886400D02*
X14274800Y19634200D01*
X48183800Y10668000D02*
X42519600Y10668000D01*
X44297600Y6146800D02*
X45720000Y4724400D01*
X51300000Y20660000D02*
X51300000Y13784200D01*
X27762200Y6146800D02*
X44297600Y6146800D01*
X17449800Y34061400D02*
X14274800Y30886400D01*
X14274800Y19634200D02*
X27762200Y6146800D01*
X40411400Y8559800D02*
X40411400Y6146800D01*
X42519600Y10668000D02*
X40411400Y8559800D01*
X45720000Y4724400D02*
X45720000Y2540000D01*
D21*
%TO.N,Net-(A1-2A)*%
X43680000Y20660000D02*
X43680000Y14282200D01*
X43680000Y14282200D02*
X43647200Y14249400D01*
%TO.N,Net-(A1-1B)*%
X38600000Y20660000D02*
X38600000Y14282200D01*
X38600000Y14282200D02*
X38567200Y14249400D01*
%TO.N,Net-(A1-2B)*%
X46187200Y20627200D02*
X46220000Y20660000D01*
X46187200Y14249400D02*
X46187200Y20627200D01*
%TO.N,Net-(A1-1A)*%
X41107200Y14249400D02*
X41107200Y20627200D01*
X41107200Y20627200D02*
X41140000Y20660000D01*
%TD*%
D23*
X36060000Y16535400D03*
X37439600Y39928800D03*
X27940000Y2540000D03*
X30480000Y2540000D03*
X33020000Y2540000D03*
X35560000Y2540000D03*
X38100000Y2540000D03*
X40640000Y2540000D03*
X43180000Y2540000D03*
X45720000Y2540000D03*
X50800000Y2540000D03*
X53340000Y2540000D03*
X55880000Y2540000D03*
X58420000Y2540000D03*
X60960000Y2540000D03*
X63500000Y2540000D03*
X18796000Y50800000D03*
X21336000Y50800000D03*
X23876000Y50800000D03*
X26416000Y50800000D03*
X28956000Y50800000D03*
X31496000Y50800000D03*
X34036000Y50800000D03*
X36576000Y50800000D03*
X39116000Y50800000D03*
X41656000Y50800000D03*
X45720000Y50800000D03*
X48260000Y50800000D03*
X50800000Y50800000D03*
X53340000Y50800000D03*
X55880000Y50800000D03*
X58420000Y50800000D03*
X60960000Y50800000D03*
X63500000Y50800000D03*
D24*
X13950000Y38100000D03*
D25*
X7650000Y38100000D03*
D26*
X11050000Y33300000D03*
D23*
X15240000Y50800000D03*
X38567200Y14249400D03*
X41107200Y14249400D03*
X43647200Y14249400D03*
X46187200Y14249400D03*
X33520000Y20660000D03*
X36060000Y20660000D03*
X38600000Y20660000D03*
X41140000Y20660000D03*
X43680000Y20660000D03*
X46220000Y20660000D03*
X48760000Y20660000D03*
X51300000Y20660000D03*
X51300000Y33360000D03*
X48760000Y33360000D03*
X46220000Y33360000D03*
X43680000Y33360000D03*
X41140000Y33360000D03*
X38600000Y33360000D03*
X36060000Y33360000D03*
X33520000Y33360000D03*
X13970000Y2540000D03*
X66040000Y35560000D03*
X66040000Y7620000D03*
M02*
