%TF.GenerationSoftware,KiCad,Pcbnew,8.0.3*%
%TF.CreationDate,2024-07-23T15:51:25+08:00*%
%TF.ProjectId,Arduino Uno A4988 Shield,41726475-696e-46f2-9055-6e6f20413439,rev?*%
%TF.SameCoordinates,Original*%
%TF.FileFunction,Legend,Top*%
%TF.FilePolarity,Positive*%
%FSLAX46Y46*%
G04 Gerber Fmt 4.6, Leading zero omitted, Abs format (unit mm)*
G04 Created by KiCad (PCBNEW 8.0.3) date 2024-07-23 15:51:25*
%MOMM*%
%LPD*%
G01*
G04 APERTURE LIST*
%ADD10C,0.150000*%
%ADD11C,0.300000*%
%ADD12C,0.120000*%
%ADD13C,0.350000*%
%ADD14O,1.000000X3.600000*%
%ADD15O,1.000000X3.200000*%
%ADD16O,3.200000X1.000000*%
G04 APERTURE END LIST*
D10*
X17037255Y24734431D02*
X17132493Y24734431D01*
X17132493Y24734431D02*
X17227731Y24686812D01*
X17227731Y24686812D02*
X17275350Y24639193D01*
X17275350Y24639193D02*
X17322969Y24543955D01*
X17322969Y24543955D02*
X17370588Y24353479D01*
X17370588Y24353479D02*
X17370588Y24115384D01*
X17370588Y24115384D02*
X17322969Y23924908D01*
X17322969Y23924908D02*
X17275350Y23829670D01*
X17275350Y23829670D02*
X17227731Y23782050D01*
X17227731Y23782050D02*
X17132493Y23734431D01*
X17132493Y23734431D02*
X17037255Y23734431D01*
X17037255Y23734431D02*
X16942017Y23782050D01*
X16942017Y23782050D02*
X16894398Y23829670D01*
X16894398Y23829670D02*
X16846779Y23924908D01*
X16846779Y23924908D02*
X16799160Y24115384D01*
X16799160Y24115384D02*
X16799160Y24353479D01*
X16799160Y24353479D02*
X16846779Y24543955D01*
X16846779Y24543955D02*
X16894398Y24639193D01*
X16894398Y24639193D02*
X16942017Y24686812D01*
X16942017Y24686812D02*
X17037255Y24734431D01*
X19932730Y20364221D02*
X20932730Y20364221D01*
X20932730Y20364221D02*
X20218445Y20030888D01*
X20218445Y20030888D02*
X20932730Y19697555D01*
X20932730Y19697555D02*
X19932730Y19697555D01*
X19980350Y19268983D02*
X19932730Y19126126D01*
X19932730Y19126126D02*
X19932730Y18888031D01*
X19932730Y18888031D02*
X19980350Y18792793D01*
X19980350Y18792793D02*
X20027969Y18745174D01*
X20027969Y18745174D02*
X20123207Y18697555D01*
X20123207Y18697555D02*
X20218445Y18697555D01*
X20218445Y18697555D02*
X20313683Y18745174D01*
X20313683Y18745174D02*
X20361302Y18792793D01*
X20361302Y18792793D02*
X20408921Y18888031D01*
X20408921Y18888031D02*
X20456540Y19078507D01*
X20456540Y19078507D02*
X20504159Y19173745D01*
X20504159Y19173745D02*
X20551778Y19221364D01*
X20551778Y19221364D02*
X20647016Y19268983D01*
X20647016Y19268983D02*
X20742254Y19268983D01*
X20742254Y19268983D02*
X20837492Y19221364D01*
X20837492Y19221364D02*
X20885111Y19173745D01*
X20885111Y19173745D02*
X20932730Y19078507D01*
X20932730Y19078507D02*
X20932730Y18840412D01*
X20932730Y18840412D02*
X20885111Y18697555D01*
X20932730Y18364221D02*
X20932730Y17745174D01*
X20932730Y17745174D02*
X20551778Y18078507D01*
X20551778Y18078507D02*
X20551778Y17935650D01*
X20551778Y17935650D02*
X20504159Y17840412D01*
X20504159Y17840412D02*
X20456540Y17792793D01*
X20456540Y17792793D02*
X20361302Y17745174D01*
X20361302Y17745174D02*
X20123207Y17745174D01*
X20123207Y17745174D02*
X20027969Y17792793D01*
X20027969Y17792793D02*
X19980350Y17840412D01*
X19980350Y17840412D02*
X19932730Y17935650D01*
X19932730Y17935650D02*
X19932730Y18221364D01*
X19932730Y18221364D02*
X19980350Y18316602D01*
X19980350Y18316602D02*
X20027969Y18364221D01*
D11*
G36*
X24006905Y38688137D02*
G01*
X23903717Y38690868D01*
X23804202Y38699062D01*
X23689633Y38716103D01*
X23580354Y38741010D01*
X23476364Y38773783D01*
X23409975Y38800001D01*
X23450031Y39108235D01*
X23542510Y39070660D01*
X23639825Y39036161D01*
X23740260Y39007027D01*
X23757777Y39002722D01*
X23861390Y38982481D01*
X23962666Y38971581D01*
X24028887Y38969505D01*
X24133587Y38975754D01*
X24235802Y38999751D01*
X24322757Y39050495D01*
X24379543Y39138483D01*
X24392320Y39225472D01*
X24372291Y39328037D01*
X24312203Y39410054D01*
X24222816Y39466784D01*
X23884783Y39620168D01*
X23789468Y39668742D01*
X23705753Y39722140D01*
X23625442Y39787978D01*
X23573130Y39843406D01*
X23515427Y39931524D01*
X23479096Y40032236D01*
X23464670Y40133645D01*
X23463709Y40169715D01*
X23471306Y40278631D01*
X23494096Y40376281D01*
X23538747Y40474085D01*
X23603242Y40557173D01*
X23622467Y40575646D01*
X23709875Y40638905D01*
X23799531Y40679430D01*
X23901482Y40706118D01*
X23998654Y40717979D01*
X24068454Y40720238D01*
X24176968Y40715640D01*
X24278295Y40701845D01*
X24382451Y40675732D01*
X24421629Y40662108D01*
X24517848Y40617572D01*
X24604526Y40563459D01*
X24691281Y40496054D01*
X24729864Y40461829D01*
X24515907Y40244941D01*
X24437368Y40305344D01*
X24350173Y40361581D01*
X24283388Y40394906D01*
X24185392Y40426462D01*
X24083748Y40438698D01*
X24069920Y40438870D01*
X23969983Y40428390D01*
X23875537Y40386716D01*
X23861336Y40375367D01*
X23804926Y40290111D01*
X23789111Y40193192D01*
X23789040Y40185346D01*
X23807740Y40087229D01*
X23836912Y40040266D01*
X23915451Y39974435D01*
X23980527Y39939149D01*
X24266291Y39804816D01*
X24357650Y39758367D01*
X24449752Y39701962D01*
X24528726Y39642015D01*
X24601880Y39570343D01*
X24662932Y39481175D01*
X24698545Y39388362D01*
X24715843Y39283647D01*
X24717652Y39233287D01*
X24706546Y39105518D01*
X24673230Y38994784D01*
X24617703Y38901087D01*
X24539965Y38824425D01*
X24440016Y38764799D01*
X24317857Y38722209D01*
X24211661Y38701447D01*
X24092972Y38690267D01*
X24006905Y38688137D01*
G37*
G36*
X25554916Y38719400D02*
G01*
X25554916Y40399791D01*
X24983388Y40399791D01*
X24983388Y40688975D01*
X26443472Y40688975D01*
X26443472Y40399791D01*
X25871943Y40399791D01*
X25871943Y38719400D01*
X25554916Y38719400D01*
G37*
G36*
X26732655Y38719400D02*
G01*
X26732655Y40688975D01*
X28055474Y40688975D01*
X28055474Y40399791D01*
X27049682Y40399791D01*
X27049682Y39852687D01*
X27808301Y39852687D01*
X27808301Y39563504D01*
X27049682Y39563504D01*
X27049682Y39008584D01*
X28055474Y39008584D01*
X28055474Y38719400D01*
X26732655Y38719400D01*
G37*
G36*
X29074200Y40684884D02*
G01*
X29177543Y40672612D01*
X29290000Y40647087D01*
X29389851Y40609781D01*
X29477097Y40560694D01*
X29528259Y40521424D01*
X29603823Y40440738D01*
X29660827Y40344858D01*
X29694916Y40250582D01*
X29715370Y40145143D01*
X29722187Y40028542D01*
X29717465Y39922912D01*
X29703297Y39825534D01*
X29673827Y39719575D01*
X29630757Y39625499D01*
X29574085Y39543308D01*
X29528747Y39495116D01*
X29449887Y39433361D01*
X29358388Y39384382D01*
X29254249Y39348181D01*
X29157811Y39327773D01*
X29052596Y39316238D01*
X28962104Y39313399D01*
X28689040Y39313399D01*
X28689040Y38719400D01*
X28372013Y38719400D01*
X28372013Y39602583D01*
X28689040Y39602583D01*
X28962104Y39602583D01*
X29065258Y39609246D01*
X29174860Y39636315D01*
X29262971Y39684207D01*
X29340337Y39769164D01*
X29381169Y39862866D01*
X29400510Y39977390D01*
X29402229Y40029031D01*
X29391484Y40135842D01*
X29350222Y40240118D01*
X29278014Y40318325D01*
X29174860Y40370464D01*
X29065258Y40393998D01*
X28962104Y40399791D01*
X28689040Y40399791D01*
X28689040Y39602583D01*
X28372013Y39602583D01*
X28372013Y40688975D01*
X28962104Y40688975D01*
X29074200Y40684884D01*
G37*
G36*
X30713558Y40684884D02*
G01*
X30816901Y40672612D01*
X30929358Y40647087D01*
X31029209Y40609781D01*
X31116455Y40560694D01*
X31167617Y40521424D01*
X31243181Y40440738D01*
X31300185Y40344858D01*
X31334274Y40250582D01*
X31354728Y40145143D01*
X31361545Y40028542D01*
X31356823Y39922912D01*
X31342655Y39825534D01*
X31313185Y39719575D01*
X31270115Y39625499D01*
X31213443Y39543308D01*
X31168105Y39495116D01*
X31089245Y39433361D01*
X30997746Y39384382D01*
X30893607Y39348181D01*
X30797169Y39327773D01*
X30691954Y39316238D01*
X30601462Y39313399D01*
X30328398Y39313399D01*
X30328398Y38719400D01*
X30011371Y38719400D01*
X30011371Y39602583D01*
X30328398Y39602583D01*
X30601462Y39602583D01*
X30704616Y39609246D01*
X30814218Y39636315D01*
X30902329Y39684207D01*
X30979695Y39769164D01*
X31020527Y39862866D01*
X31039868Y39977390D01*
X31041587Y40029031D01*
X31030842Y40135842D01*
X30989580Y40240118D01*
X30917372Y40318325D01*
X30814218Y40370464D01*
X30704616Y40393998D01*
X30601462Y40399791D01*
X30328398Y40399791D01*
X30328398Y39602583D01*
X30011371Y39602583D01*
X30011371Y40688975D01*
X30601462Y40688975D01*
X30713558Y40684884D01*
G37*
G36*
X31650729Y38719400D02*
G01*
X31650729Y40688975D01*
X32973548Y40688975D01*
X32973548Y40399791D01*
X31967756Y40399791D01*
X31967756Y39852687D01*
X32726375Y39852687D01*
X32726375Y39563504D01*
X31967756Y39563504D01*
X31967756Y39008584D01*
X32973548Y39008584D01*
X32973548Y38719400D01*
X31650729Y38719400D01*
G37*
G36*
X34059958Y40683445D02*
G01*
X34161492Y40666856D01*
X34267490Y40633523D01*
X34360071Y40585137D01*
X34428747Y40531682D01*
X34495175Y40456603D01*
X34545287Y40368994D01*
X34579084Y40268856D01*
X34596565Y40156190D01*
X34599229Y40086183D01*
X34593733Y39983846D01*
X34574413Y39878642D01*
X34541183Y39783948D01*
X34511301Y39726658D01*
X34450546Y39643272D01*
X34377578Y39576296D01*
X34292399Y39525730D01*
X34273897Y39517586D01*
X34680317Y38719400D01*
X34315418Y38719400D01*
X33962243Y39469715D01*
X33948566Y39469715D01*
X33579759Y39469715D01*
X33579759Y38719400D01*
X33262732Y38719400D01*
X33262732Y39758898D01*
X33579759Y39758898D01*
X33948566Y39758898D01*
X34048335Y39768364D01*
X34144662Y39803961D01*
X34192320Y39839010D01*
X34251759Y39922064D01*
X34277148Y40021622D01*
X34279271Y40065667D01*
X34268996Y40167881D01*
X34230361Y40265610D01*
X34192320Y40313329D01*
X34110380Y40369310D01*
X34013992Y40395654D01*
X33948566Y40399791D01*
X33579759Y40399791D01*
X33579759Y39758898D01*
X33262732Y39758898D01*
X33262732Y40688975D01*
X33948566Y40688975D01*
X34059958Y40683445D01*
G37*
G36*
X37139469Y40685021D02*
G01*
X37242394Y40673160D01*
X37338221Y40653392D01*
X37468653Y40608913D01*
X37583113Y40546642D01*
X37681602Y40466580D01*
X37764120Y40368727D01*
X37830666Y40253081D01*
X37881242Y40119645D01*
X37906086Y40020803D01*
X37923832Y39914053D01*
X37934479Y39799397D01*
X37938028Y39676832D01*
X37934479Y39560893D01*
X37923832Y39452434D01*
X37906086Y39351455D01*
X37866158Y39214011D01*
X37810259Y39093397D01*
X37738388Y38989613D01*
X37650547Y38902659D01*
X37546734Y38832535D01*
X37426950Y38779240D01*
X37291195Y38742775D01*
X37191819Y38727815D01*
X37085344Y38720335D01*
X37029445Y38719400D01*
X36541448Y38719400D01*
X36541448Y39008584D01*
X36858475Y39008584D01*
X37029445Y39008584D01*
X37134726Y39014457D01*
X37258992Y39040561D01*
X37364849Y39087547D01*
X37452295Y39155416D01*
X37521332Y39244168D01*
X37571959Y39353802D01*
X37597848Y39449732D01*
X37613381Y39557409D01*
X37618559Y39676832D01*
X37613381Y39806033D01*
X37597848Y39922525D01*
X37571959Y40026310D01*
X37535715Y40117385D01*
X37471280Y40219052D01*
X37388436Y40298125D01*
X37287182Y40354606D01*
X37167519Y40388495D01*
X37065689Y40399085D01*
X37029445Y40399791D01*
X36858475Y40399791D01*
X36858475Y39008584D01*
X36541448Y39008584D01*
X36541448Y40688975D01*
X37029445Y40688975D01*
X37139469Y40685021D01*
G37*
G36*
X38745007Y39368110D02*
G01*
X38745007Y39008584D01*
X39102090Y39008584D01*
X39102090Y38719400D01*
X38098252Y38719400D01*
X38098252Y39008584D01*
X38422606Y39008584D01*
X38422606Y39930845D01*
X38153451Y39930845D01*
X38153451Y40220029D01*
X38688342Y40220029D01*
X38737679Y39846337D01*
X38742076Y39846337D01*
X38758806Y39962999D01*
X38793424Y40059887D01*
X38858580Y40150053D01*
X38949495Y40211745D01*
X39044936Y40241405D01*
X39158266Y40251292D01*
X39266801Y40242804D01*
X39369854Y40212966D01*
X39460701Y40154614D01*
X39496786Y40115493D01*
X39547791Y40025586D01*
X39579115Y39922508D01*
X39595705Y39814433D01*
X39601887Y39708513D01*
X39602299Y39670482D01*
X39282341Y39670482D01*
X39277146Y39774885D01*
X39255508Y39871696D01*
X39238377Y39904955D01*
X39158175Y39962247D01*
X39097693Y39969924D01*
X38996066Y39954802D01*
X38904110Y39903236D01*
X38838546Y39824601D01*
X38832934Y39815074D01*
X38790430Y39717310D01*
X38764327Y39612049D01*
X38750502Y39505771D01*
X38745350Y39404145D01*
X38745007Y39368110D01*
G37*
G36*
X39847519Y38719400D02*
G01*
X39847519Y39008584D01*
X40402439Y39008584D01*
X40402439Y39930845D01*
X39930073Y39930845D01*
X39930073Y40220029D01*
X40725328Y40220029D01*
X40725328Y39008584D01*
X41172781Y39008584D01*
X41172781Y38719400D01*
X39847519Y38719400D01*
G37*
G36*
X40554358Y40407607D02*
G01*
X40456171Y40430167D01*
X40399508Y40471599D01*
X40345669Y40557296D01*
X40335028Y40626449D01*
X40357759Y40725107D01*
X40399508Y40781299D01*
X40485205Y40834729D01*
X40554358Y40845290D01*
X40653016Y40822731D01*
X40709208Y40781299D01*
X40762638Y40696073D01*
X40773199Y40626449D01*
X40750640Y40528262D01*
X40709208Y40471599D01*
X40623982Y40418168D01*
X40554358Y40407607D01*
G37*
G36*
X41902090Y38719400D02*
G01*
X41370617Y40220029D01*
X41714511Y40220029D01*
X42105788Y39011026D01*
X42108231Y39011026D01*
X42499508Y40220029D01*
X42843402Y40220029D01*
X42311929Y38719400D01*
X41902090Y38719400D01*
G37*
G36*
X43860400Y40244680D02*
G01*
X43959233Y40224845D01*
X44062426Y40184991D01*
X44152576Y40127138D01*
X44219466Y40063225D01*
X44284181Y39973141D01*
X44327000Y39883165D01*
X44358141Y39781407D01*
X44377604Y39667868D01*
X44384902Y39564254D01*
X44385551Y39520517D01*
X44383231Y39417202D01*
X44376270Y39313399D01*
X43397833Y39313399D01*
X43432099Y39214003D01*
X43489222Y39130076D01*
X43560987Y39067202D01*
X43650498Y39019804D01*
X43745252Y38992155D01*
X43853453Y38978725D01*
X43905858Y38977321D01*
X44005652Y38980567D01*
X44082201Y38987579D01*
X44180482Y39001511D01*
X44276130Y39018842D01*
X44316186Y38729659D01*
X44212894Y38711730D01*
X44112623Y38698973D01*
X44063639Y38694976D01*
X43961912Y38689847D01*
X43872641Y38688137D01*
X43758510Y38693099D01*
X43652727Y38707982D01*
X43555292Y38732788D01*
X43449390Y38775653D01*
X43355509Y38832806D01*
X43286458Y38891347D01*
X43216071Y38973699D01*
X43160246Y39068347D01*
X43118984Y39175291D01*
X43095724Y39273804D01*
X43082577Y39380856D01*
X43079340Y39472645D01*
X43083158Y39571320D01*
X43384155Y39571320D01*
X44090506Y39571320D01*
X44081776Y39677565D01*
X44052007Y39776804D01*
X44001113Y39857572D01*
X43924749Y39921274D01*
X43829013Y39955575D01*
X43754428Y39962108D01*
X43650723Y39949640D01*
X43555365Y39907600D01*
X43496019Y39856595D01*
X43439604Y39775281D01*
X43402006Y39676420D01*
X43384155Y39571320D01*
X43083158Y39571320D01*
X43083634Y39583621D01*
X43096514Y39686654D01*
X43123304Y39799809D01*
X43162459Y39901526D01*
X43213979Y39991807D01*
X43255195Y40045639D01*
X43326390Y40115529D01*
X43407717Y40170959D01*
X43499177Y40211928D01*
X43600768Y40238438D01*
X43712492Y40250488D01*
X43751985Y40251292D01*
X43860400Y40244680D01*
G37*
G36*
X45302439Y39368110D02*
G01*
X45302439Y39008584D01*
X45659522Y39008584D01*
X45659522Y38719400D01*
X44655684Y38719400D01*
X44655684Y39008584D01*
X44980038Y39008584D01*
X44980038Y39930845D01*
X44710883Y39930845D01*
X44710883Y40220029D01*
X45245774Y40220029D01*
X45295111Y39846337D01*
X45299508Y39846337D01*
X45316237Y39962999D01*
X45350856Y40059887D01*
X45416012Y40150053D01*
X45506927Y40211745D01*
X45602368Y40241405D01*
X45715698Y40251292D01*
X45824233Y40242804D01*
X45927286Y40212966D01*
X46018133Y40154614D01*
X46054218Y40115493D01*
X46105223Y40025586D01*
X46136547Y39922508D01*
X46153137Y39814433D01*
X46159319Y39708513D01*
X46159731Y39670482D01*
X45839773Y39670482D01*
X45834578Y39774885D01*
X45812940Y39871696D01*
X45795809Y39904955D01*
X45715607Y39962247D01*
X45655125Y39969924D01*
X45553497Y39954802D01*
X45461542Y39903236D01*
X45395978Y39824601D01*
X45390366Y39815074D01*
X45347862Y39717310D01*
X45321759Y39612049D01*
X45307934Y39505771D01*
X45302782Y39404145D01*
X45302439Y39368110D01*
G37*
G36*
X48597275Y38688137D02*
G01*
X48494087Y38690868D01*
X48394572Y38699062D01*
X48280003Y38716103D01*
X48170724Y38741010D01*
X48066733Y38773783D01*
X48000345Y38800001D01*
X48040401Y39108235D01*
X48132879Y39070660D01*
X48230195Y39036161D01*
X48330630Y39007027D01*
X48348147Y39002722D01*
X48451759Y38982481D01*
X48553036Y38971581D01*
X48619257Y38969505D01*
X48723957Y38975754D01*
X48826172Y38999751D01*
X48913127Y39050495D01*
X48969913Y39138483D01*
X48982690Y39225472D01*
X48962661Y39328037D01*
X48902573Y39410054D01*
X48813185Y39466784D01*
X48475153Y39620168D01*
X48379838Y39668742D01*
X48296123Y39722140D01*
X48215812Y39787978D01*
X48163499Y39843406D01*
X48105797Y39931524D01*
X48069466Y40032236D01*
X48055040Y40133645D01*
X48054079Y40169715D01*
X48061675Y40278631D01*
X48084466Y40376281D01*
X48129117Y40474085D01*
X48193612Y40557173D01*
X48212836Y40575646D01*
X48300245Y40638905D01*
X48389901Y40679430D01*
X48491851Y40706118D01*
X48589024Y40717979D01*
X48658824Y40720238D01*
X48767338Y40715640D01*
X48868665Y40701845D01*
X48972821Y40675732D01*
X49011999Y40662108D01*
X49108217Y40617572D01*
X49194895Y40563459D01*
X49281651Y40496054D01*
X49320234Y40461829D01*
X49106277Y40244941D01*
X49027737Y40305344D01*
X48940543Y40361581D01*
X48873758Y40394906D01*
X48775762Y40426462D01*
X48674118Y40438698D01*
X48660289Y40438870D01*
X48560353Y40428390D01*
X48465907Y40386716D01*
X48451706Y40375367D01*
X48395295Y40290111D01*
X48379481Y40193192D01*
X48379410Y40185346D01*
X48398110Y40087229D01*
X48427282Y40040266D01*
X48505821Y39974435D01*
X48570896Y39939149D01*
X48856661Y39804816D01*
X48948019Y39758367D01*
X49040122Y39701962D01*
X49119096Y39642015D01*
X49192250Y39570343D01*
X49253301Y39481175D01*
X49288915Y39388362D01*
X49306212Y39283647D01*
X49308021Y39233287D01*
X49296916Y39105518D01*
X49263600Y38994784D01*
X49208073Y38901087D01*
X49130335Y38824425D01*
X49030386Y38764799D01*
X48908226Y38722209D01*
X48802031Y38701447D01*
X48683342Y38690267D01*
X48597275Y38688137D01*
G37*
G36*
X50590296Y38719400D02*
G01*
X50590296Y39693929D01*
X50579655Y39792595D01*
X50537340Y39885255D01*
X50525816Y39899093D01*
X50442936Y39954361D01*
X50345077Y39969924D01*
X50233685Y39955618D01*
X50145339Y39912702D01*
X50071398Y39826473D01*
X50032987Y39721567D01*
X50018583Y39612289D01*
X50017303Y39563015D01*
X50017303Y38719400D01*
X49694902Y38719400D01*
X49694902Y40814027D01*
X50017303Y40814027D01*
X50017303Y39959666D01*
X50014860Y39959666D01*
X50036481Y40058773D01*
X50092745Y40148482D01*
X50182434Y40210282D01*
X50285914Y40241039D01*
X50390908Y40251007D01*
X50413953Y40251292D01*
X50512722Y40244279D01*
X50613121Y40219092D01*
X50710159Y40168860D01*
X50782271Y40104746D01*
X50839546Y40024115D01*
X50880457Y39928769D01*
X50902830Y39833270D01*
X50912674Y39726503D01*
X50913185Y39693929D01*
X50913185Y38719400D01*
X50590296Y38719400D01*
G37*
G36*
X51323025Y38719400D02*
G01*
X51323025Y39008584D01*
X51877945Y39008584D01*
X51877945Y39930845D01*
X51405579Y39930845D01*
X51405579Y40220029D01*
X52200834Y40220029D01*
X52200834Y39008584D01*
X52648287Y39008584D01*
X52648287Y38719400D01*
X51323025Y38719400D01*
G37*
G36*
X52029864Y40407607D02*
G01*
X51931677Y40430167D01*
X51875014Y40471599D01*
X51821175Y40557296D01*
X51810534Y40626449D01*
X51833265Y40725107D01*
X51875014Y40781299D01*
X51960711Y40834729D01*
X52029864Y40845290D01*
X52128522Y40822731D01*
X52184714Y40781299D01*
X52238144Y40696073D01*
X52248705Y40626449D01*
X52226146Y40528262D01*
X52184714Y40471599D01*
X52099488Y40418168D01*
X52029864Y40407607D01*
G37*
G36*
X53696548Y40244680D02*
G01*
X53795381Y40224845D01*
X53898574Y40184991D01*
X53988724Y40127138D01*
X54055614Y40063225D01*
X54120329Y39973141D01*
X54163148Y39883165D01*
X54194288Y39781407D01*
X54213752Y39667868D01*
X54221050Y39564254D01*
X54221699Y39520517D01*
X54219379Y39417202D01*
X54212418Y39313399D01*
X53233981Y39313399D01*
X53268246Y39214003D01*
X53325370Y39130076D01*
X53397135Y39067202D01*
X53486646Y39019804D01*
X53581400Y38992155D01*
X53689601Y38978725D01*
X53742006Y38977321D01*
X53841800Y38980567D01*
X53918349Y38987579D01*
X54016630Y39001511D01*
X54112278Y39018842D01*
X54152334Y38729659D01*
X54049042Y38711730D01*
X53948771Y38698973D01*
X53899787Y38694976D01*
X53798060Y38689847D01*
X53708789Y38688137D01*
X53594658Y38693099D01*
X53488875Y38707982D01*
X53391440Y38732788D01*
X53285538Y38775653D01*
X53191657Y38832806D01*
X53122606Y38891347D01*
X53052218Y38973699D01*
X52996394Y39068347D01*
X52955132Y39175291D01*
X52931872Y39273804D01*
X52918724Y39380856D01*
X52915488Y39472645D01*
X52919306Y39571320D01*
X53220303Y39571320D01*
X53926654Y39571320D01*
X53917924Y39677565D01*
X53888155Y39776804D01*
X53837261Y39857572D01*
X53760897Y39921274D01*
X53665161Y39955575D01*
X53590575Y39962108D01*
X53486871Y39949640D01*
X53391513Y39907600D01*
X53332167Y39856595D01*
X53275752Y39775281D01*
X53238154Y39676420D01*
X53220303Y39571320D01*
X52919306Y39571320D01*
X52919782Y39583621D01*
X52932662Y39686654D01*
X52959452Y39799809D01*
X52998607Y39901526D01*
X53050127Y39991807D01*
X53091343Y40045639D01*
X53162538Y40115529D01*
X53243865Y40170959D01*
X53335325Y40211928D01*
X53436916Y40238438D01*
X53548640Y40250488D01*
X53588133Y40251292D01*
X53696548Y40244680D01*
G37*
G36*
X55439005Y38688137D02*
G01*
X55331969Y38694963D01*
X55226471Y38719479D01*
X55129244Y38768371D01*
X55061894Y38830775D01*
X55005459Y38924344D01*
X54970799Y39029445D01*
X54952443Y39138338D01*
X54945602Y39244252D01*
X54945146Y39282136D01*
X54945146Y40524844D01*
X54516744Y40524844D01*
X54516744Y40814027D01*
X55267547Y40814027D01*
X55267547Y39292883D01*
X55272676Y39190545D01*
X55288063Y39110189D01*
X55341003Y39027482D01*
X55368175Y39009073D01*
X55466712Y38981786D01*
X55548915Y38977321D01*
X55652870Y38986673D01*
X55751159Y39006594D01*
X55853241Y39033985D01*
X55890366Y38749198D01*
X55791992Y38725434D01*
X55694165Y38707055D01*
X55661266Y38702304D01*
X55561096Y38692135D01*
X55461212Y38688262D01*
X55439005Y38688137D01*
G37*
G36*
X57470617Y38720377D02*
G01*
X57179480Y38702792D01*
X57150659Y38983183D01*
X57150171Y38983183D01*
X57123976Y38885429D01*
X57066823Y38803315D01*
X57030003Y38770691D01*
X56940496Y38720385D01*
X56842154Y38694668D01*
X56750101Y38688137D01*
X56644989Y38695024D01*
X56534947Y38720466D01*
X56438462Y38764654D01*
X56355535Y38827589D01*
X56304602Y38884020D01*
X56245597Y38978321D01*
X56206557Y39072843D01*
X56178163Y39180004D01*
X56162636Y39278961D01*
X56154502Y39386695D01*
X56153171Y39455548D01*
X56473130Y39455548D01*
X56478465Y39341632D01*
X56494470Y39242905D01*
X56529482Y39140854D01*
X56593505Y39049721D01*
X56681535Y38992763D01*
X56793574Y38969980D01*
X56814581Y38969505D01*
X56927799Y38985322D01*
X57017593Y39032772D01*
X57083962Y39111855D01*
X57126907Y39222571D01*
X57144800Y39338999D01*
X57147728Y39419400D01*
X57147728Y39520029D01*
X57142523Y39625473D01*
X57121376Y39737507D01*
X57074527Y39842951D01*
X57004254Y39916762D01*
X56910556Y39958940D01*
X56814581Y39969924D01*
X56716214Y39957366D01*
X56620180Y39909143D01*
X56548156Y39824753D01*
X56506474Y39726801D01*
X56485134Y39630356D01*
X56474463Y39517836D01*
X56473130Y39455548D01*
X56153171Y39455548D01*
X56156868Y39572797D01*
X56167960Y39680910D01*
X56186445Y39779888D01*
X56218387Y39886603D01*
X56260977Y39980163D01*
X56304602Y40048082D01*
X56377845Y40127262D01*
X56464646Y40186995D01*
X56565004Y40227280D01*
X56661816Y40246330D01*
X56750101Y40251292D01*
X56849420Y40243421D01*
X56944786Y40216580D01*
X57025607Y40170691D01*
X57097693Y40096981D01*
X57140111Y40006824D01*
X57147728Y39969294D01*
X57147728Y40814027D01*
X57470617Y40814027D01*
X57470617Y38720377D01*
G37*
G36*
X59935028Y38719400D02*
G01*
X59403555Y40220029D01*
X59747449Y40220029D01*
X60138726Y39011026D01*
X60141169Y39011026D01*
X60532446Y40220029D01*
X60876340Y40220029D01*
X60344867Y38719400D01*
X59935028Y38719400D01*
G37*
G36*
X61172850Y38719400D02*
G01*
X61172850Y39008584D01*
X61661825Y39008584D01*
X61661825Y40369994D01*
X61200206Y40211236D01*
X61200206Y40520447D01*
X61674525Y40688975D01*
X61978852Y40688975D01*
X61978852Y39008584D01*
X62416047Y39008584D01*
X62416047Y38719400D01*
X61172850Y38719400D01*
G37*
D10*
X25419130Y20364221D02*
X26419130Y20364221D01*
X26419130Y20364221D02*
X25704845Y20030888D01*
X25704845Y20030888D02*
X26419130Y19697555D01*
X26419130Y19697555D02*
X25419130Y19697555D01*
X25466750Y19268983D02*
X25419130Y19126126D01*
X25419130Y19126126D02*
X25419130Y18888031D01*
X25419130Y18888031D02*
X25466750Y18792793D01*
X25466750Y18792793D02*
X25514369Y18745174D01*
X25514369Y18745174D02*
X25609607Y18697555D01*
X25609607Y18697555D02*
X25704845Y18697555D01*
X25704845Y18697555D02*
X25800083Y18745174D01*
X25800083Y18745174D02*
X25847702Y18792793D01*
X25847702Y18792793D02*
X25895321Y18888031D01*
X25895321Y18888031D02*
X25942940Y19078507D01*
X25942940Y19078507D02*
X25990559Y19173745D01*
X25990559Y19173745D02*
X26038178Y19221364D01*
X26038178Y19221364D02*
X26133416Y19268983D01*
X26133416Y19268983D02*
X26228654Y19268983D01*
X26228654Y19268983D02*
X26323892Y19221364D01*
X26323892Y19221364D02*
X26371511Y19173745D01*
X26371511Y19173745D02*
X26419130Y19078507D01*
X26419130Y19078507D02*
X26419130Y18840412D01*
X26419130Y18840412D02*
X26371511Y18697555D01*
X25419130Y17745174D02*
X25419130Y18316602D01*
X25419130Y18030888D02*
X26419130Y18030888D01*
X26419130Y18030888D02*
X26276273Y18126126D01*
X26276273Y18126126D02*
X26181035Y18221364D01*
X26181035Y18221364D02*
X26133416Y18316602D01*
X52104677Y22593420D02*
X51771344Y23593420D01*
X51771344Y23593420D02*
X51438011Y22593420D01*
X51104677Y23593420D02*
X51104677Y22926753D01*
X51104677Y22593420D02*
X51152296Y22641039D01*
X51152296Y22641039D02*
X51104677Y22688658D01*
X51104677Y22688658D02*
X51057058Y22641039D01*
X51057058Y22641039D02*
X51104677Y22593420D01*
X51104677Y22593420D02*
X51104677Y22688658D01*
X50628487Y22926753D02*
X50628487Y23593420D01*
X50628487Y23021991D02*
X50580868Y22974372D01*
X50580868Y22974372D02*
X50485630Y22926753D01*
X50485630Y22926753D02*
X50342773Y22926753D01*
X50342773Y22926753D02*
X50247535Y22974372D01*
X50247535Y22974372D02*
X50199916Y23069610D01*
X50199916Y23069610D02*
X50199916Y23593420D01*
X22675930Y20364221D02*
X23675930Y20364221D01*
X23675930Y20364221D02*
X22961645Y20030888D01*
X22961645Y20030888D02*
X23675930Y19697555D01*
X23675930Y19697555D02*
X22675930Y19697555D01*
X22723550Y19268983D02*
X22675930Y19126126D01*
X22675930Y19126126D02*
X22675930Y18888031D01*
X22675930Y18888031D02*
X22723550Y18792793D01*
X22723550Y18792793D02*
X22771169Y18745174D01*
X22771169Y18745174D02*
X22866407Y18697555D01*
X22866407Y18697555D02*
X22961645Y18697555D01*
X22961645Y18697555D02*
X23056883Y18745174D01*
X23056883Y18745174D02*
X23104502Y18792793D01*
X23104502Y18792793D02*
X23152121Y18888031D01*
X23152121Y18888031D02*
X23199740Y19078507D01*
X23199740Y19078507D02*
X23247359Y19173745D01*
X23247359Y19173745D02*
X23294978Y19221364D01*
X23294978Y19221364D02*
X23390216Y19268983D01*
X23390216Y19268983D02*
X23485454Y19268983D01*
X23485454Y19268983D02*
X23580692Y19221364D01*
X23580692Y19221364D02*
X23628311Y19173745D01*
X23628311Y19173745D02*
X23675930Y19078507D01*
X23675930Y19078507D02*
X23675930Y18840412D01*
X23675930Y18840412D02*
X23628311Y18697555D01*
X23580692Y18316602D02*
X23628311Y18268983D01*
X23628311Y18268983D02*
X23675930Y18173745D01*
X23675930Y18173745D02*
X23675930Y17935650D01*
X23675930Y17935650D02*
X23628311Y17840412D01*
X23628311Y17840412D02*
X23580692Y17792793D01*
X23580692Y17792793D02*
X23485454Y17745174D01*
X23485454Y17745174D02*
X23390216Y17745174D01*
X23390216Y17745174D02*
X23247359Y17792793D01*
X23247359Y17792793D02*
X22675930Y18364221D01*
X22675930Y18364221D02*
X22675930Y17745174D01*
X17370588Y29322431D02*
X16799160Y29322431D01*
X17084874Y29322431D02*
X17084874Y30322431D01*
X17084874Y30322431D02*
X16989636Y30179574D01*
X16989636Y30179574D02*
X16894398Y30084336D01*
X16894398Y30084336D02*
X16799160Y30036717D01*
X38198026Y11509381D02*
X37626598Y11509381D01*
X37912312Y11509381D02*
X37912312Y12509381D01*
X37912312Y12509381D02*
X37817074Y12366524D01*
X37817074Y12366524D02*
X37721836Y12271286D01*
X37721836Y12271286D02*
X37626598Y12223667D01*
X38959931Y12033191D02*
X39102788Y11985572D01*
X39102788Y11985572D02*
X39150407Y11937953D01*
X39150407Y11937953D02*
X39198026Y11842715D01*
X39198026Y11842715D02*
X39198026Y11699858D01*
X39198026Y11699858D02*
X39150407Y11604620D01*
X39150407Y11604620D02*
X39102788Y11557000D01*
X39102788Y11557000D02*
X39007550Y11509381D01*
X39007550Y11509381D02*
X38626598Y11509381D01*
X38626598Y11509381D02*
X38626598Y12509381D01*
X38626598Y12509381D02*
X38959931Y12509381D01*
X38959931Y12509381D02*
X39055169Y12461762D01*
X39055169Y12461762D02*
X39102788Y12414143D01*
X39102788Y12414143D02*
X39150407Y12318905D01*
X39150407Y12318905D02*
X39150407Y12223667D01*
X39150407Y12223667D02*
X39102788Y12128429D01*
X39102788Y12128429D02*
X39055169Y12080810D01*
X39055169Y12080810D02*
X38959931Y12033191D01*
X38959931Y12033191D02*
X38626598Y12033191D01*
X40912312Y11509381D02*
X40340884Y11509381D01*
X40626598Y11509381D02*
X40626598Y12509381D01*
X40626598Y12509381D02*
X40531360Y12366524D01*
X40531360Y12366524D02*
X40436122Y12271286D01*
X40436122Y12271286D02*
X40340884Y12223667D01*
X41293265Y11795096D02*
X41769455Y11795096D01*
X41198027Y11509381D02*
X41531360Y12509381D01*
X41531360Y12509381D02*
X41864693Y11509381D01*
X42912313Y12414143D02*
X42959932Y12461762D01*
X42959932Y12461762D02*
X43055170Y12509381D01*
X43055170Y12509381D02*
X43293265Y12509381D01*
X43293265Y12509381D02*
X43388503Y12461762D01*
X43388503Y12461762D02*
X43436122Y12414143D01*
X43436122Y12414143D02*
X43483741Y12318905D01*
X43483741Y12318905D02*
X43483741Y12223667D01*
X43483741Y12223667D02*
X43436122Y12080810D01*
X43436122Y12080810D02*
X42864694Y11509381D01*
X42864694Y11509381D02*
X43483741Y11509381D01*
X43864694Y11795096D02*
X44340884Y11795096D01*
X43769456Y11509381D02*
X44102789Y12509381D01*
X44102789Y12509381D02*
X44436122Y11509381D01*
X45483742Y12414143D02*
X45531361Y12461762D01*
X45531361Y12461762D02*
X45626599Y12509381D01*
X45626599Y12509381D02*
X45864694Y12509381D01*
X45864694Y12509381D02*
X45959932Y12461762D01*
X45959932Y12461762D02*
X46007551Y12414143D01*
X46007551Y12414143D02*
X46055170Y12318905D01*
X46055170Y12318905D02*
X46055170Y12223667D01*
X46055170Y12223667D02*
X46007551Y12080810D01*
X46007551Y12080810D02*
X45436123Y11509381D01*
X45436123Y11509381D02*
X46055170Y11509381D01*
X46817075Y12033191D02*
X46959932Y11985572D01*
X46959932Y11985572D02*
X47007551Y11937953D01*
X47007551Y11937953D02*
X47055170Y11842715D01*
X47055170Y11842715D02*
X47055170Y11699858D01*
X47055170Y11699858D02*
X47007551Y11604620D01*
X47007551Y11604620D02*
X46959932Y11557000D01*
X46959932Y11557000D02*
X46864694Y11509381D01*
X46864694Y11509381D02*
X46483742Y11509381D01*
X46483742Y11509381D02*
X46483742Y12509381D01*
X46483742Y12509381D02*
X46817075Y12509381D01*
X46817075Y12509381D02*
X46912313Y12461762D01*
X46912313Y12461762D02*
X46959932Y12414143D01*
X46959932Y12414143D02*
X47007551Y12318905D01*
X47007551Y12318905D02*
X47007551Y12223667D01*
X47007551Y12223667D02*
X46959932Y12128429D01*
X46959932Y12128429D02*
X46912313Y12080810D01*
X46912313Y12080810D02*
X46817075Y12033191D01*
X46817075Y12033191D02*
X46483742Y12033191D01*
X34521611Y22463239D02*
X34616849Y22415620D01*
X34616849Y22415620D02*
X34759706Y22415620D01*
X34759706Y22415620D02*
X34902563Y22463239D01*
X34902563Y22463239D02*
X34997801Y22558477D01*
X34997801Y22558477D02*
X35045420Y22653715D01*
X35045420Y22653715D02*
X35093039Y22844191D01*
X35093039Y22844191D02*
X35093039Y22987048D01*
X35093039Y22987048D02*
X35045420Y23177524D01*
X35045420Y23177524D02*
X34997801Y23272762D01*
X34997801Y23272762D02*
X34902563Y23368000D01*
X34902563Y23368000D02*
X34759706Y23415620D01*
X34759706Y23415620D02*
X34664468Y23415620D01*
X34664468Y23415620D02*
X34521611Y23368000D01*
X34521611Y23368000D02*
X34473992Y23320381D01*
X34473992Y23320381D02*
X34473992Y22987048D01*
X34473992Y22987048D02*
X34664468Y22987048D01*
X34045420Y22748953D02*
X34045420Y23415620D01*
X34045420Y22844191D02*
X33997801Y22796572D01*
X33997801Y22796572D02*
X33902563Y22748953D01*
X33902563Y22748953D02*
X33759706Y22748953D01*
X33759706Y22748953D02*
X33664468Y22796572D01*
X33664468Y22796572D02*
X33616849Y22891810D01*
X33616849Y22891810D02*
X33616849Y23415620D01*
X32712087Y23415620D02*
X32712087Y22415620D01*
X32712087Y23368000D02*
X32807325Y23415620D01*
X32807325Y23415620D02*
X32997801Y23415620D01*
X32997801Y23415620D02*
X33093039Y23368000D01*
X33093039Y23368000D02*
X33140658Y23320381D01*
X33140658Y23320381D02*
X33188277Y23225143D01*
X33188277Y23225143D02*
X33188277Y22939429D01*
X33188277Y22939429D02*
X33140658Y22844191D01*
X33140658Y22844191D02*
X33093039Y22796572D01*
X33093039Y22796572D02*
X32997801Y22748953D01*
X32997801Y22748953D02*
X32807325Y22748953D01*
X32807325Y22748953D02*
X32712087Y22796572D01*
D11*
G36*
X24229654Y42478600D02*
G01*
X24229654Y44448175D01*
X24683458Y44448175D01*
X24894972Y43609933D01*
X24892529Y43609933D01*
X25104044Y44448175D01*
X25557847Y44448175D01*
X25557847Y42478600D01*
X25252055Y42478600D01*
X25252055Y44083276D01*
X25243751Y44083276D01*
X25032236Y43275321D01*
X24755265Y43275321D01*
X24543751Y44083276D01*
X24535935Y44083276D01*
X24535935Y42478600D01*
X24229654Y42478600D01*
G37*
G36*
X26340890Y43975321D02*
G01*
X26450975Y43969863D01*
X26551950Y43957155D01*
X26661092Y43932334D01*
X26757114Y43897071D01*
X26852556Y43842735D01*
X26887993Y43815097D01*
X26958228Y43740786D01*
X27011212Y43652916D01*
X27046946Y43551490D01*
X27063844Y43453762D01*
X27068245Y43364714D01*
X27068245Y42771692D01*
X27315418Y42741406D01*
X27315418Y42479089D01*
X26817652Y42462480D01*
X26803974Y42786346D01*
X26779605Y42684284D01*
X26727992Y42599077D01*
X26657428Y42536242D01*
X26568327Y42489359D01*
X26464057Y42459840D01*
X26357243Y42448119D01*
X26318908Y42447337D01*
X26208418Y42454390D01*
X26110935Y42475547D01*
X26016812Y42516210D01*
X25954986Y42560178D01*
X25886464Y42640072D01*
X25843321Y42738093D01*
X25826191Y42841812D01*
X25825049Y42879647D01*
X25826272Y42893813D01*
X26131329Y42893813D01*
X26157205Y42797162D01*
X26191413Y42759968D01*
X26281705Y42720813D01*
X26365314Y42713074D01*
X26465536Y42720329D01*
X26562944Y42746733D01*
X26585621Y42757037D01*
X26670320Y42813915D01*
X26716535Y42868412D01*
X26755324Y42962718D01*
X26759522Y43006654D01*
X26759522Y43092627D01*
X26659852Y43101607D01*
X26634469Y43102397D01*
X26534648Y43103746D01*
X26494763Y43103862D01*
X26390062Y43098734D01*
X26287847Y43079042D01*
X26191310Y43029812D01*
X26137008Y42943044D01*
X26131329Y42893813D01*
X25826272Y42893813D01*
X25833557Y42978182D01*
X25864118Y43077742D01*
X25916905Y43163379D01*
X25991918Y43235095D01*
X26002857Y43243081D01*
X26087427Y43292378D01*
X26185555Y43329567D01*
X26297240Y43354649D01*
X26403760Y43366510D01*
X26500136Y43369598D01*
X26602193Y43367232D01*
X26705391Y43358333D01*
X26759522Y43349570D01*
X26759522Y43399396D01*
X26743479Y43503110D01*
X26690318Y43586671D01*
X26662313Y43609445D01*
X26566804Y43653742D01*
X26470843Y43674102D01*
X26367756Y43682229D01*
X26002369Y43692487D01*
X26032655Y43979229D01*
X26340890Y43975321D01*
G37*
G36*
X27552334Y42478600D02*
G01*
X27552334Y44573227D01*
X27874735Y44573227D01*
X27874735Y43330520D01*
X27938726Y43330520D01*
X28043464Y43336435D01*
X28143910Y43356606D01*
X28228887Y43391092D01*
X28312669Y43453603D01*
X28375981Y43534203D01*
X28406696Y43591371D01*
X28444410Y43689278D01*
X28472888Y43795504D01*
X28493854Y43904329D01*
X28504881Y43979229D01*
X28838517Y43979229D01*
X28823645Y43876445D01*
X28805407Y43779852D01*
X28775853Y43660692D01*
X28740316Y43552538D01*
X28698795Y43455391D01*
X28651289Y43369249D01*
X28583493Y43277050D01*
X28506347Y43202048D01*
X28942076Y42478600D01*
X28544937Y42478600D01*
X28209836Y43061852D01*
X28109212Y43045844D01*
X28007603Y43041336D01*
X27874735Y43041336D01*
X27874735Y42478600D01*
X27552334Y42478600D01*
G37*
G36*
X29191692Y42478600D02*
G01*
X29191692Y42767784D01*
X29746612Y42767784D01*
X29746612Y43690045D01*
X29274246Y43690045D01*
X29274246Y43979229D01*
X30069501Y43979229D01*
X30069501Y42767784D01*
X30516954Y42767784D01*
X30516954Y42478600D01*
X29191692Y42478600D01*
G37*
G36*
X29898531Y44166807D02*
G01*
X29800344Y44189367D01*
X29743681Y44230799D01*
X29689842Y44316496D01*
X29679201Y44385649D01*
X29701933Y44484307D01*
X29743681Y44540499D01*
X29829378Y44593929D01*
X29898531Y44604490D01*
X29997189Y44581931D01*
X30053381Y44540499D01*
X30106811Y44455273D01*
X30117372Y44385649D01*
X30094813Y44287462D01*
X30053381Y44230799D01*
X29968155Y44177368D01*
X29898531Y44166807D01*
G37*
G36*
X31737679Y42478600D02*
G01*
X31737679Y43457526D01*
X31725338Y43558011D01*
X31677166Y43649106D01*
X31673199Y43653409D01*
X31590319Y43706389D01*
X31492460Y43721308D01*
X31381068Y43707432D01*
X31280239Y43656168D01*
X31210779Y43567130D01*
X31176209Y43460747D01*
X31165006Y43350895D01*
X31164686Y43326612D01*
X31164686Y42478600D01*
X30842285Y42478600D01*
X30842285Y43979229D01*
X31135865Y43979229D01*
X31158824Y43715446D01*
X31162243Y43715446D01*
X31183865Y43815716D01*
X31240128Y43906477D01*
X31329817Y43969001D01*
X31433298Y44000119D01*
X31538291Y44010204D01*
X31561336Y44010492D01*
X31660105Y44003479D01*
X31760504Y43978292D01*
X31857542Y43928060D01*
X31929654Y43863946D01*
X31986929Y43783315D01*
X32027840Y43687969D01*
X32050213Y43592470D01*
X32060057Y43485703D01*
X32060569Y43453129D01*
X32060569Y42478600D01*
X31737679Y42478600D01*
G37*
G36*
X33082669Y44002477D02*
G01*
X33181599Y43975149D01*
X33265174Y43928426D01*
X33335081Y43860008D01*
X33380891Y43770384D01*
X33385762Y43747661D01*
X33406347Y43979229D01*
X33699927Y43979229D01*
X33699927Y42633450D01*
X33695490Y42514671D01*
X33682181Y42405933D01*
X33659999Y42307236D01*
X33621668Y42202055D01*
X33570560Y42111334D01*
X33518210Y42046779D01*
X33442613Y41981589D01*
X33352109Y41928901D01*
X33246700Y41888716D01*
X33147471Y41864778D01*
X33037891Y41849523D01*
X32942774Y41843569D01*
X32501671Y41829403D01*
X32486040Y42126402D01*
X32969152Y42140080D01*
X33068956Y42149758D01*
X33163499Y42175608D01*
X33253550Y42228717D01*
X33279340Y42253897D01*
X33334302Y42340143D01*
X33364832Y42440588D01*
X33376484Y42548935D01*
X33377037Y42575321D01*
X33377037Y42729389D01*
X33353285Y42641043D01*
X33296132Y42559897D01*
X33259312Y42527938D01*
X33169805Y42478822D01*
X33071463Y42453713D01*
X32979410Y42447337D01*
X32874298Y42454224D01*
X32764256Y42479666D01*
X32667771Y42523854D01*
X32584844Y42586789D01*
X32533911Y42643220D01*
X32474906Y42737521D01*
X32435866Y42832043D01*
X32407473Y42939204D01*
X32391945Y43038161D01*
X32383812Y43145895D01*
X32382481Y43214748D01*
X32702439Y43214748D01*
X32707774Y43100832D01*
X32723779Y43002105D01*
X32758792Y42900054D01*
X32822814Y42808921D01*
X32910844Y42751963D01*
X33022883Y42729180D01*
X33043890Y42728705D01*
X33157108Y42744522D01*
X33246902Y42791972D01*
X33313271Y42871055D01*
X33356216Y42981771D01*
X33374109Y43098199D01*
X33377037Y43178600D01*
X33377037Y43279229D01*
X33371832Y43384673D01*
X33350685Y43496707D01*
X33303836Y43602151D01*
X33233563Y43675962D01*
X33139865Y43718140D01*
X33043890Y43729124D01*
X32945523Y43716566D01*
X32849490Y43668343D01*
X32777465Y43583953D01*
X32735784Y43486001D01*
X32714443Y43389556D01*
X32703773Y43277036D01*
X32702439Y43214748D01*
X32382481Y43214748D01*
X32386178Y43331997D01*
X32397269Y43440110D01*
X32415754Y43539088D01*
X32447696Y43645803D01*
X32490286Y43739363D01*
X32533911Y43807282D01*
X32607154Y43886462D01*
X32693955Y43946195D01*
X32794313Y43986480D01*
X32891125Y44005530D01*
X32979410Y44010492D01*
X33082669Y44002477D01*
G37*
G36*
X36489100Y44473828D02*
G01*
X36596872Y44453678D01*
X36690478Y44418873D01*
X36778852Y44362201D01*
X36847330Y44287450D01*
X36893398Y44194538D01*
X36915532Y44096704D01*
X36920513Y44013911D01*
X36595670Y44013911D01*
X36576727Y44110403D01*
X36541936Y44154595D01*
X36451856Y44192933D01*
X36388552Y44198070D01*
X36289426Y44182292D01*
X36205370Y44126263D01*
X36156643Y44038335D01*
X36140655Y43934952D01*
X36140401Y43918168D01*
X36154877Y43816749D01*
X36191692Y43728635D01*
X36244239Y43644940D01*
X36306762Y43563540D01*
X36334330Y43531287D01*
X36704602Y43111189D01*
X36734119Y43212744D01*
X36752246Y43318974D01*
X36761846Y43424248D01*
X36765424Y43523636D01*
X36765663Y43558642D01*
X37060708Y43558642D01*
X37058464Y43454038D01*
X37051732Y43354669D01*
X37037006Y43237821D01*
X37015267Y43129155D01*
X36986516Y43028669D01*
X36950753Y42936365D01*
X36917093Y42868412D01*
X37261476Y42478600D01*
X36859940Y42478600D01*
X36722676Y42629054D01*
X36640324Y42567299D01*
X36548974Y42518320D01*
X36448624Y42482119D01*
X36339276Y42458695D01*
X36241278Y42448935D01*
X36179480Y42447337D01*
X36071789Y42454069D01*
X35973541Y42474265D01*
X35872822Y42513833D01*
X35784436Y42570985D01*
X35764267Y42588021D01*
X35695238Y42664133D01*
X35645931Y42751786D01*
X35616347Y42850979D01*
X35606486Y42961713D01*
X35607458Y42974413D01*
X35915209Y42974413D01*
X35935359Y42875251D01*
X35995809Y42796605D01*
X36083851Y42747868D01*
X36187715Y42729302D01*
X36212697Y42728705D01*
X36316892Y42737129D01*
X36418615Y42766247D01*
X36505550Y42816164D01*
X36528747Y42835195D01*
X36145774Y43255293D01*
X36134051Y43268482D01*
X36038308Y43215298D01*
X35963294Y43139263D01*
X35922903Y43046072D01*
X35915209Y42974413D01*
X35607458Y42974413D01*
X35614291Y43063684D01*
X35641273Y43166743D01*
X35687526Y43259021D01*
X35705160Y43284602D01*
X35773434Y43360880D01*
X35854301Y43421798D01*
X35947762Y43467355D01*
X35967966Y43474623D01*
X35914202Y43557627D01*
X35867740Y43648014D01*
X35847798Y43696884D01*
X35819748Y43794297D01*
X35807126Y43897630D01*
X35806765Y43918168D01*
X35813988Y44029843D01*
X35835657Y44129783D01*
X35878109Y44229633D01*
X35939429Y44314156D01*
X35957707Y44332892D01*
X36040903Y44397006D01*
X36139546Y44442801D01*
X36238532Y44467846D01*
X36349345Y44478865D01*
X36383178Y44479438D01*
X36489100Y44473828D01*
G37*
G36*
X39489459Y42478600D02*
G01*
X39489459Y44158991D01*
X38917931Y44158991D01*
X38917931Y44448175D01*
X40378014Y44448175D01*
X40378014Y44158991D01*
X39806486Y44158991D01*
X39806486Y42478600D01*
X39489459Y42478600D01*
G37*
G36*
X40667198Y42478600D02*
G01*
X40667198Y42767784D01*
X41222118Y42767784D01*
X41222118Y43690045D01*
X40749752Y43690045D01*
X40749752Y43979229D01*
X41545007Y43979229D01*
X41545007Y42767784D01*
X41992460Y42767784D01*
X41992460Y42478600D01*
X40667198Y42478600D01*
G37*
G36*
X41374037Y44166807D02*
G01*
X41275850Y44189367D01*
X41219187Y44230799D01*
X41165348Y44316496D01*
X41154707Y44385649D01*
X41177438Y44484307D01*
X41219187Y44540499D01*
X41304884Y44593929D01*
X41374037Y44604490D01*
X41472695Y44581931D01*
X41528887Y44540499D01*
X41582317Y44455273D01*
X41592878Y44385649D01*
X41570319Y44287462D01*
X41528887Y44230799D01*
X41443661Y44177368D01*
X41374037Y44166807D01*
G37*
G36*
X43213185Y42478600D02*
G01*
X43213185Y43457526D01*
X43200844Y43558011D01*
X43152672Y43649106D01*
X43148705Y43653409D01*
X43065825Y43706389D01*
X42967966Y43721308D01*
X42856574Y43707432D01*
X42755745Y43656168D01*
X42686285Y43567130D01*
X42651715Y43460747D01*
X42640512Y43350895D01*
X42640192Y43326612D01*
X42640192Y42478600D01*
X42317791Y42478600D01*
X42317791Y43979229D01*
X42611371Y43979229D01*
X42634330Y43715446D01*
X42637749Y43715446D01*
X42659370Y43815716D01*
X42715634Y43906477D01*
X42805323Y43969001D01*
X42908803Y44000119D01*
X43013797Y44010204D01*
X43036842Y44010492D01*
X43135611Y44003479D01*
X43236010Y43978292D01*
X43333048Y43928060D01*
X43405160Y43863946D01*
X43462435Y43783315D01*
X43503346Y43687969D01*
X43525719Y43592470D01*
X43535563Y43485703D01*
X43536074Y43453129D01*
X43536074Y42478600D01*
X43213185Y42478600D01*
G37*
G36*
X43945914Y42478600D02*
G01*
X43945914Y44573227D01*
X44268315Y44573227D01*
X44268315Y43330520D01*
X44332306Y43330520D01*
X44437044Y43336435D01*
X44537490Y43356606D01*
X44622467Y43391092D01*
X44706249Y43453603D01*
X44769561Y43534203D01*
X44800275Y43591371D01*
X44837990Y43689278D01*
X44866468Y43795504D01*
X44887434Y43904329D01*
X44898461Y43979229D01*
X45232097Y43979229D01*
X45217225Y43876445D01*
X45198987Y43779852D01*
X45169433Y43660692D01*
X45133896Y43552538D01*
X45092375Y43455391D01*
X45044869Y43369249D01*
X44977073Y43277050D01*
X44899927Y43202048D01*
X45335656Y42478600D01*
X44938517Y42478600D01*
X44603416Y43061852D01*
X44502791Y43045844D01*
X44401183Y43041336D01*
X44268315Y43041336D01*
X44268315Y42478600D01*
X43945914Y42478600D01*
G37*
G36*
X46319437Y44003880D02*
G01*
X46418270Y43984045D01*
X46521463Y43944191D01*
X46611613Y43886338D01*
X46678503Y43822425D01*
X46743218Y43732341D01*
X46786037Y43642365D01*
X46817178Y43540607D01*
X46836641Y43427068D01*
X46843939Y43323454D01*
X46844588Y43279717D01*
X46842268Y43176402D01*
X46835307Y43072599D01*
X45856870Y43072599D01*
X45891136Y42973203D01*
X45948259Y42889276D01*
X46020024Y42826402D01*
X46109535Y42779004D01*
X46204289Y42751355D01*
X46312490Y42737925D01*
X46364895Y42736521D01*
X46464689Y42739767D01*
X46541238Y42746779D01*
X46639519Y42760711D01*
X46735167Y42778042D01*
X46775223Y42488859D01*
X46671931Y42470930D01*
X46571660Y42458173D01*
X46522676Y42454176D01*
X46420949Y42449047D01*
X46331678Y42447337D01*
X46217547Y42452299D01*
X46111764Y42467182D01*
X46014329Y42491988D01*
X45908427Y42534853D01*
X45814546Y42592006D01*
X45745495Y42650547D01*
X45675108Y42732899D01*
X45619283Y42827547D01*
X45578021Y42934491D01*
X45554761Y43033004D01*
X45541614Y43140056D01*
X45538377Y43231845D01*
X45542195Y43330520D01*
X45843192Y43330520D01*
X46549543Y43330520D01*
X46540813Y43436765D01*
X46511044Y43536004D01*
X46460150Y43616772D01*
X46383786Y43680474D01*
X46288050Y43714775D01*
X46213465Y43721308D01*
X46109760Y43708840D01*
X46014402Y43666800D01*
X45955056Y43615795D01*
X45898641Y43534481D01*
X45861043Y43435620D01*
X45843192Y43330520D01*
X45542195Y43330520D01*
X45542671Y43342821D01*
X45555551Y43445854D01*
X45582341Y43559009D01*
X45621496Y43660726D01*
X45673016Y43751007D01*
X45714232Y43804839D01*
X45785427Y43874729D01*
X45866754Y43930159D01*
X45958214Y43971128D01*
X46059805Y43997638D01*
X46171529Y44009688D01*
X46211022Y44010492D01*
X46319437Y44003880D01*
G37*
G36*
X47761476Y43127310D02*
G01*
X47761476Y42767784D01*
X48118559Y42767784D01*
X48118559Y42478600D01*
X47114721Y42478600D01*
X47114721Y42767784D01*
X47439075Y42767784D01*
X47439075Y43690045D01*
X47169920Y43690045D01*
X47169920Y43979229D01*
X47704811Y43979229D01*
X47754148Y43605537D01*
X47758545Y43605537D01*
X47775274Y43722199D01*
X47809893Y43819087D01*
X47875049Y43909253D01*
X47965964Y43970945D01*
X48061405Y44000605D01*
X48174735Y44010492D01*
X48283270Y44002004D01*
X48386323Y43972166D01*
X48477170Y43913814D01*
X48513255Y43874693D01*
X48564260Y43784786D01*
X48595584Y43681708D01*
X48612174Y43573633D01*
X48618356Y43467713D01*
X48618768Y43429682D01*
X48298810Y43429682D01*
X48293615Y43534085D01*
X48271977Y43630896D01*
X48254846Y43664155D01*
X48174644Y43721447D01*
X48114162Y43729124D01*
X48012534Y43714002D01*
X47920579Y43662436D01*
X47855015Y43583801D01*
X47849403Y43574274D01*
X47806899Y43476510D01*
X47780796Y43371249D01*
X47766971Y43264971D01*
X47761819Y43163345D01*
X47761476Y43127310D01*
G37*
G36*
X48863988Y42478600D02*
G01*
X48863988Y42767784D01*
X49418908Y42767784D01*
X49418908Y43690045D01*
X48946542Y43690045D01*
X48946542Y43979229D01*
X49741797Y43979229D01*
X49741797Y42767784D01*
X50189250Y42767784D01*
X50189250Y42478600D01*
X48863988Y42478600D01*
G37*
G36*
X49570827Y44166807D02*
G01*
X49472640Y44189367D01*
X49415977Y44230799D01*
X49362138Y44316496D01*
X49351497Y44385649D01*
X49374228Y44484307D01*
X49415977Y44540499D01*
X49501674Y44593929D01*
X49570827Y44604490D01*
X49669485Y44581931D01*
X49725677Y44540499D01*
X49779107Y44455273D01*
X49789668Y44385649D01*
X49767109Y44287462D01*
X49725677Y44230799D01*
X49640451Y44177368D01*
X49570827Y44166807D01*
G37*
G36*
X51409975Y42478600D02*
G01*
X51409975Y43457526D01*
X51397633Y43558011D01*
X51349462Y43649106D01*
X51345495Y43653409D01*
X51262615Y43706389D01*
X51164756Y43721308D01*
X51053364Y43707432D01*
X50952535Y43656168D01*
X50883075Y43567130D01*
X50848505Y43460747D01*
X50837302Y43350895D01*
X50836982Y43326612D01*
X50836982Y42478600D01*
X50514581Y42478600D01*
X50514581Y43979229D01*
X50808161Y43979229D01*
X50831120Y43715446D01*
X50834539Y43715446D01*
X50856160Y43815716D01*
X50912424Y43906477D01*
X51002113Y43969001D01*
X51105593Y44000119D01*
X51210587Y44010204D01*
X51233632Y44010492D01*
X51332401Y44003479D01*
X51432800Y43978292D01*
X51529838Y43928060D01*
X51601950Y43863946D01*
X51659225Y43783315D01*
X51700136Y43687969D01*
X51722509Y43592470D01*
X51732353Y43485703D01*
X51732864Y43453129D01*
X51732864Y42478600D01*
X51409975Y42478600D01*
G37*
G36*
X52754965Y44002477D02*
G01*
X52853895Y43975149D01*
X52937470Y43928426D01*
X53007377Y43860008D01*
X53053187Y43770384D01*
X53058058Y43747662D01*
X53078642Y43979229D01*
X53372222Y43979229D01*
X53372222Y42633450D01*
X53367786Y42514671D01*
X53354477Y42405933D01*
X53332294Y42307236D01*
X53293964Y42202055D01*
X53242856Y42111334D01*
X53190506Y42046779D01*
X53114909Y41981589D01*
X53024405Y41928901D01*
X52918995Y41888716D01*
X52819767Y41864778D01*
X52710187Y41849523D01*
X52615070Y41843569D01*
X52173967Y41829403D01*
X52158335Y42126402D01*
X52641448Y42140080D01*
X52741252Y42149758D01*
X52835795Y42175608D01*
X52925846Y42228717D01*
X52951636Y42253897D01*
X53006598Y42340143D01*
X53037128Y42440588D01*
X53048780Y42548935D01*
X53049333Y42575321D01*
X53049333Y42729389D01*
X53025581Y42641043D01*
X52968428Y42559897D01*
X52931608Y42527938D01*
X52842101Y42478822D01*
X52743759Y42453713D01*
X52651706Y42447337D01*
X52546594Y42454224D01*
X52436552Y42479666D01*
X52340067Y42523854D01*
X52257140Y42586789D01*
X52206207Y42643220D01*
X52147202Y42737521D01*
X52108162Y42832043D01*
X52079768Y42939204D01*
X52064241Y43038161D01*
X52056107Y43145895D01*
X52054776Y43214748D01*
X52374735Y43214748D01*
X52380070Y43100832D01*
X52396075Y43002105D01*
X52431087Y42900054D01*
X52495110Y42808921D01*
X52583140Y42751963D01*
X52695179Y42729180D01*
X52716186Y42728705D01*
X52829404Y42744522D01*
X52919198Y42791972D01*
X52985567Y42871055D01*
X53028512Y42981771D01*
X53046405Y43098199D01*
X53049333Y43178600D01*
X53049333Y43279229D01*
X53044128Y43384673D01*
X53022981Y43496707D01*
X52976132Y43602151D01*
X52905859Y43675962D01*
X52812161Y43718140D01*
X52716186Y43729124D01*
X52617819Y43716566D01*
X52521785Y43668343D01*
X52449761Y43583953D01*
X52408079Y43486001D01*
X52386739Y43389556D01*
X52376068Y43277036D01*
X52374735Y43214748D01*
X52054776Y43214748D01*
X52058474Y43331997D01*
X52069565Y43440110D01*
X52088050Y43539088D01*
X52119992Y43645803D01*
X52162582Y43739363D01*
X52206207Y43807282D01*
X52279450Y43886462D01*
X52366251Y43946195D01*
X52466609Y43986480D01*
X52563421Y44005530D01*
X52651706Y44010492D01*
X52754965Y44002477D01*
G37*
G36*
X55410673Y42478600D02*
G01*
X55410673Y42815656D01*
X55521277Y42878884D01*
X55624477Y42942540D01*
X55720274Y43006623D01*
X55808667Y43071134D01*
X55889656Y43136072D01*
X55963242Y43201437D01*
X56044813Y43283745D01*
X56088203Y43333450D01*
X56151811Y43416851D01*
X56204638Y43500967D01*
X56253800Y43602850D01*
X56287436Y43705764D01*
X56305548Y43809709D01*
X56308998Y43879577D01*
X56297853Y43987815D01*
X56256677Y44085789D01*
X56185160Y44153282D01*
X56083302Y44190294D01*
X55991971Y44198070D01*
X55888967Y44184224D01*
X55796050Y44149825D01*
X55766779Y44135055D01*
X55681645Y44080032D01*
X55602831Y44009484D01*
X55553800Y43953827D01*
X55342285Y44163388D01*
X55407119Y44242213D01*
X55483467Y44310529D01*
X55571330Y44368334D01*
X55625118Y44395907D01*
X55726686Y44436286D01*
X55830803Y44463450D01*
X55937471Y44477399D01*
X55997833Y44479438D01*
X56110622Y44474149D01*
X56212316Y44458280D01*
X56330652Y44420667D01*
X56429265Y44364247D01*
X56508156Y44289020D01*
X56567323Y44194987D01*
X56606769Y44082146D01*
X56623410Y43985174D01*
X56628957Y43877624D01*
X56622276Y43766392D01*
X56602235Y43656912D01*
X56568833Y43549184D01*
X56522070Y43443207D01*
X56472894Y43356231D01*
X56438936Y43304630D01*
X56375079Y43219813D01*
X56301969Y43136331D01*
X56219604Y43054185D01*
X56127984Y42973375D01*
X56048025Y42909689D01*
X55962143Y42846858D01*
X55870338Y42784881D01*
X55870338Y42767784D01*
X56711022Y42767784D01*
X56711022Y42478600D01*
X55410673Y42478600D01*
G37*
G36*
X57780897Y43649875D02*
G01*
X57841378Y43608468D01*
X57892361Y43523514D01*
X57902439Y43449710D01*
X57883119Y43351788D01*
X57841378Y43291441D01*
X57755672Y43240457D01*
X57681155Y43230380D01*
X57581893Y43249700D01*
X57520931Y43291441D01*
X57469540Y43376694D01*
X57459382Y43449710D01*
X57478857Y43548508D01*
X57520931Y43608468D01*
X57607109Y43659043D01*
X57681155Y43669040D01*
X57780897Y43649875D01*
G37*
G36*
X57802760Y44470388D02*
G01*
X57912405Y44443237D01*
X58010088Y44397985D01*
X58095810Y44334632D01*
X58169571Y44253179D01*
X58231371Y44153626D01*
X58281209Y44035971D01*
X58319086Y43900216D01*
X58337693Y43799657D01*
X58350983Y43691053D01*
X58358957Y43574404D01*
X58361615Y43449710D01*
X58358957Y43328329D01*
X58350983Y43214779D01*
X58337693Y43109060D01*
X58319086Y43011172D01*
X58281209Y42879023D01*
X58231371Y42764494D01*
X58169571Y42667585D01*
X58095810Y42588296D01*
X58010088Y42526627D01*
X57912405Y42482577D01*
X57802760Y42456147D01*
X57681155Y42447337D01*
X57559462Y42456147D01*
X57449738Y42482577D01*
X57351985Y42526627D01*
X57266201Y42588296D01*
X57192388Y42667585D01*
X57130544Y42764494D01*
X57080669Y42879023D01*
X57042765Y43011172D01*
X57024145Y43109060D01*
X57010845Y43214779D01*
X57002866Y43328329D01*
X57000206Y43449710D01*
X57325537Y43449710D01*
X57328663Y43320859D01*
X57338039Y43204681D01*
X57353667Y43101177D01*
X57384228Y42982888D01*
X57425902Y42887129D01*
X57493622Y42799116D01*
X57578706Y42746308D01*
X57681155Y42728705D01*
X57783462Y42746308D01*
X57868430Y42799116D01*
X57936057Y42887129D01*
X57977674Y42982888D01*
X58008193Y43101177D01*
X58023799Y43204681D01*
X58033163Y43320859D01*
X58036284Y43449710D01*
X58033163Y43583450D01*
X58023799Y43704036D01*
X58008193Y43811466D01*
X57977674Y43934244D01*
X57936057Y44033636D01*
X57868430Y44124988D01*
X57783462Y44179800D01*
X57681155Y44198070D01*
X57578706Y44179800D01*
X57493622Y44124988D01*
X57425902Y44033636D01*
X57384228Y43934244D01*
X57353667Y43811466D01*
X57338039Y43704036D01*
X57328663Y43583450D01*
X57325537Y43449710D01*
X57000206Y43449710D01*
X57002866Y43574404D01*
X57010845Y43691053D01*
X57024145Y43799657D01*
X57042765Y43900216D01*
X57080669Y44035971D01*
X57130544Y44153626D01*
X57192388Y44253179D01*
X57266201Y44334632D01*
X57351985Y44397985D01*
X57449738Y44443237D01*
X57559462Y44470388D01*
X57681155Y44479438D01*
X57802760Y44470388D01*
G37*
G36*
X58689389Y42478600D02*
G01*
X58689389Y42815656D01*
X58799993Y42878884D01*
X58903193Y42942540D01*
X58998990Y43006623D01*
X59087383Y43071134D01*
X59168372Y43136072D01*
X59241958Y43201437D01*
X59323529Y43283745D01*
X59366919Y43333450D01*
X59430527Y43416851D01*
X59483354Y43500967D01*
X59532515Y43602850D01*
X59566152Y43705764D01*
X59584264Y43809709D01*
X59587714Y43879577D01*
X59576569Y43987815D01*
X59535392Y44085789D01*
X59463876Y44153282D01*
X59362018Y44190294D01*
X59270687Y44198070D01*
X59167683Y44184224D01*
X59074766Y44149825D01*
X59045495Y44135055D01*
X58960361Y44080032D01*
X58881547Y44009484D01*
X58832515Y43953827D01*
X58621001Y44163388D01*
X58685835Y44242213D01*
X58762183Y44310529D01*
X58850046Y44368334D01*
X58903834Y44395907D01*
X59005402Y44436286D01*
X59109519Y44463450D01*
X59216187Y44477399D01*
X59276549Y44479438D01*
X59389338Y44474149D01*
X59491032Y44458280D01*
X59609368Y44420667D01*
X59707981Y44364247D01*
X59786872Y44289020D01*
X59846039Y44194987D01*
X59885485Y44082146D01*
X59902126Y43985174D01*
X59907672Y43877624D01*
X59900992Y43766392D01*
X59880951Y43656912D01*
X59847549Y43549184D01*
X59800786Y43443207D01*
X59751610Y43356231D01*
X59717652Y43304630D01*
X59653795Y43219813D01*
X59580685Y43136331D01*
X59498320Y43054185D01*
X59406700Y42973375D01*
X59326741Y42909689D01*
X59240859Y42846858D01*
X59149054Y42784881D01*
X59149054Y42767784D01*
X59989738Y42767784D01*
X59989738Y42478600D01*
X58689389Y42478600D01*
G37*
G36*
X60217861Y42916284D02*
G01*
X60499229Y44353897D01*
X60827491Y44353897D01*
X60600834Y43205467D01*
X61188482Y43205467D01*
X61188482Y44448175D01*
X61505509Y44448175D01*
X61505509Y43205467D01*
X61689668Y43205467D01*
X61689668Y42916284D01*
X61505509Y42916284D01*
X61505509Y42478600D01*
X61188482Y42478600D01*
X61188482Y42916284D01*
X60217861Y42916284D01*
G37*
D12*
%TO.C,J1*%
X26610000Y3870000D02*
X27940000Y3870000D01*
X26610000Y2540000D02*
X26610000Y3870000D01*
X29210000Y3870000D02*
X47050000Y3870000D01*
X29210000Y1210000D02*
X29210000Y3870000D01*
X29210000Y1210000D02*
X47050000Y1210000D01*
X47050000Y1210000D02*
X47050000Y3870000D01*
%TO.C,J3*%
X49470000Y3870000D02*
X50800000Y3870000D01*
X49470000Y2540000D02*
X49470000Y3870000D01*
X52070000Y3870000D02*
X64830000Y3870000D01*
X52070000Y1210000D02*
X52070000Y3870000D01*
X52070000Y1210000D02*
X64830000Y1210000D01*
X64830000Y1210000D02*
X64830000Y3870000D01*
%TO.C,J2*%
X17466000Y52130000D02*
X18796000Y52130000D01*
X17466000Y50800000D02*
X17466000Y52130000D01*
X20066000Y52130000D02*
X42986000Y52130000D01*
X20066000Y49470000D02*
X20066000Y52130000D01*
X20066000Y49470000D02*
X42986000Y49470000D01*
X42986000Y49470000D02*
X42986000Y52130000D01*
%TO.C,J4*%
X44390000Y52130000D02*
X45720000Y52130000D01*
X44390000Y50800000D02*
X44390000Y52130000D01*
X46990000Y52130000D02*
X64830000Y52130000D01*
X46990000Y49470000D02*
X46990000Y52130000D01*
X46990000Y49470000D02*
X64830000Y49470000D01*
X64830000Y49470000D02*
X64830000Y52130000D01*
%TO.C,J7*%
X150000Y42700000D02*
X14650000Y42700000D01*
X150000Y33500000D02*
X150000Y42700000D01*
X8750000Y33500000D02*
X150000Y33500000D01*
X14650000Y42700000D02*
X14650000Y40700000D01*
X14650000Y35500000D02*
X14650000Y33500000D01*
X14650000Y33500000D02*
X13350000Y33500000D01*
X14950000Y43000000D02*
X13650000Y43000000D01*
X14950000Y41300000D02*
X14950000Y43000000D01*
%TO.C,SW1*%
X18270000Y23350000D02*
X18270000Y24733000D01*
X18270000Y23350000D02*
X19653000Y23350000D01*
X18510000Y30410000D02*
X19820000Y30410000D01*
X18510000Y23590000D02*
X18510000Y30410000D01*
X18510000Y23590000D02*
X19820000Y23590000D01*
X19985000Y28810000D02*
X19985000Y25190000D01*
X19985000Y26396667D02*
X21255000Y26396667D01*
X19985000Y25190000D02*
X21255000Y25190000D01*
X20105000Y25190000D02*
X20105000Y26396667D01*
X20225000Y25190000D02*
X20225000Y26396667D01*
X20345000Y25190000D02*
X20345000Y26396667D01*
X20465000Y25190000D02*
X20465000Y26396667D01*
X20585000Y25190000D02*
X20585000Y26396667D01*
X20705000Y25190000D02*
X20705000Y26396667D01*
X20825000Y25190000D02*
X20825000Y26396667D01*
X20945000Y25190000D02*
X20945000Y26396667D01*
X21065000Y25190000D02*
X21065000Y26396667D01*
X21185000Y25190000D02*
X21185000Y26396667D01*
X21255000Y28810000D02*
X19985000Y28810000D01*
X21255000Y25190000D02*
X21255000Y28810000D01*
X21420000Y30410000D02*
X22360000Y30410000D01*
X21420000Y23590000D02*
X22360000Y23590000D01*
X22525000Y28810000D02*
X22525000Y25190000D01*
X22525000Y26396667D02*
X23795000Y26396667D01*
X22525000Y25190000D02*
X23795000Y25190000D01*
X22645000Y25190000D02*
X22645000Y26396667D01*
X22765000Y25190000D02*
X22765000Y26396667D01*
X22885000Y25190000D02*
X22885000Y26396667D01*
X23005000Y25190000D02*
X23005000Y26396667D01*
X23125000Y25190000D02*
X23125000Y26396667D01*
X23245000Y25190000D02*
X23245000Y26396667D01*
X23365000Y25190000D02*
X23365000Y26396667D01*
X23485000Y25190000D02*
X23485000Y26396667D01*
X23605000Y25190000D02*
X23605000Y26396667D01*
X23725000Y25190000D02*
X23725000Y26396667D01*
X23795000Y28810000D02*
X22525000Y28810000D01*
X23795000Y25190000D02*
X23795000Y28810000D01*
X23960000Y30410000D02*
X24900000Y30410000D01*
X23960000Y23590000D02*
X24900000Y23590000D01*
X25065000Y28810000D02*
X25065000Y25190000D01*
X25065000Y26396667D02*
X26335000Y26396667D01*
X25065000Y25190000D02*
X26335000Y25190000D01*
X25185000Y25190000D02*
X25185000Y26396667D01*
X25305000Y25190000D02*
X25305000Y26396667D01*
X25425000Y25190000D02*
X25425000Y26396667D01*
X25545000Y25190000D02*
X25545000Y26396667D01*
X25665000Y25190000D02*
X25665000Y26396667D01*
X25785000Y25190000D02*
X25785000Y26396667D01*
X25905000Y25190000D02*
X25905000Y26396667D01*
X26025000Y25190000D02*
X26025000Y26396667D01*
X26145000Y25190000D02*
X26145000Y26396667D01*
X26265000Y25190000D02*
X26265000Y26396667D01*
X26335000Y28810000D02*
X25065000Y28810000D01*
X26335000Y25190000D02*
X26335000Y28810000D01*
X26500000Y30410000D02*
X27810000Y30410000D01*
X26500000Y23590000D02*
X27810000Y23590000D01*
X27810000Y23590000D02*
X27810000Y30410000D01*
%TO.C,J5*%
X37237200Y12919400D02*
X37237200Y14249400D01*
X38567200Y12919400D02*
X37237200Y12919400D01*
X39837200Y15579400D02*
X47517200Y15579400D01*
X39837200Y12919400D02*
X39837200Y15579400D01*
X39837200Y12919400D02*
X47517200Y12919400D01*
X47517200Y12919400D02*
X47517200Y15579400D01*
%TO.C,A1*%
X32120000Y34760000D02*
X32120000Y21930000D01*
X32120000Y32090000D02*
X52700000Y32090000D01*
X32120000Y21930000D02*
X34790000Y21930000D01*
X32120000Y20660000D02*
X32120000Y19260000D01*
X32120000Y19260000D02*
X33520000Y19260000D01*
X34790000Y21930000D02*
X34790000Y19260000D01*
X34790000Y21930000D02*
X52700000Y21930000D01*
X34790000Y19260000D02*
X52700000Y19260000D01*
X52700000Y34760000D02*
X32120000Y34760000D01*
X52700000Y19260000D02*
X52700000Y34760000D01*
%TD*%
D13*
X27940000Y2540000D03*
X30480000Y2540000D03*
X33020000Y2540000D03*
X35560000Y2540000D03*
X38100000Y2540000D03*
X40640000Y2540000D03*
X43180000Y2540000D03*
X45720000Y2540000D03*
X50800000Y2540000D03*
X53340000Y2540000D03*
X55880000Y2540000D03*
X58420000Y2540000D03*
X60960000Y2540000D03*
X63500000Y2540000D03*
X18796000Y50800000D03*
X21336000Y50800000D03*
X23876000Y50800000D03*
X26416000Y50800000D03*
X28956000Y50800000D03*
X31496000Y50800000D03*
X34036000Y50800000D03*
X36576000Y50800000D03*
X39116000Y50800000D03*
X41656000Y50800000D03*
X45720000Y50800000D03*
X48260000Y50800000D03*
X50800000Y50800000D03*
X53340000Y50800000D03*
X55880000Y50800000D03*
X58420000Y50800000D03*
X60960000Y50800000D03*
X63500000Y50800000D03*
D14*
X13950000Y38100000D03*
D15*
X7650000Y38100000D03*
D16*
X11050000Y33300000D03*
D13*
X15240000Y50800000D03*
X38567200Y14249400D03*
X41107200Y14249400D03*
X43647200Y14249400D03*
X46187200Y14249400D03*
X33520000Y20660000D03*
X36060000Y20660000D03*
X38600000Y20660000D03*
X41140000Y20660000D03*
X43680000Y20660000D03*
X46220000Y20660000D03*
X48760000Y20660000D03*
X51300000Y20660000D03*
X51300000Y33360000D03*
X48760000Y33360000D03*
X46220000Y33360000D03*
X43680000Y33360000D03*
X41140000Y33360000D03*
X38600000Y33360000D03*
X36060000Y33360000D03*
X33520000Y33360000D03*
X13970000Y2540000D03*
X66040000Y35560000D03*
X66040000Y7620000D03*
M02*
