%TF.GenerationSoftware,KiCad,Pcbnew,8.0.3*%
%TF.CreationDate,2024-07-23T15:51:25+08:00*%
%TF.ProjectId,Arduino Uno A4988 Shield,41726475-696e-46f2-9055-6e6f20413439,rev?*%
%TF.SameCoordinates,Original*%
%TF.FileFunction,Legend,Bot*%
%TF.FilePolarity,Positive*%
%FSLAX46Y46*%
G04 Gerber Fmt 4.6, Leading zero omitted, Abs format (unit mm)*
G04 Created by KiCad (PCBNEW 8.0.3) date 2024-07-23 15:51:25*
%MOMM*%
%LPD*%
G01*
G04 APERTURE LIST*
%ADD10C,0.300000*%
%ADD11C,0.350000*%
%ADD12O,1.000000X3.600000*%
%ADD13O,1.000000X3.200000*%
%ADD14O,3.200000X1.000000*%
G04 APERTURE END LIST*
D10*
G36*
X39976569Y5445400D02*
G01*
X39488572Y5445400D01*
X39432673Y5446335D01*
X39326198Y5453815D01*
X39226822Y5468775D01*
X39091067Y5505240D01*
X38971283Y5558535D01*
X38867470Y5628659D01*
X38779628Y5715613D01*
X38707758Y5819397D01*
X38651859Y5940011D01*
X38611931Y6077455D01*
X38594185Y6178434D01*
X38583538Y6286893D01*
X38579989Y6402832D01*
X38899458Y6402832D01*
X38904636Y6283409D01*
X38920169Y6175732D01*
X38946058Y6079802D01*
X38996685Y5970168D01*
X39065722Y5881416D01*
X39153168Y5813547D01*
X39259025Y5766561D01*
X39383291Y5740457D01*
X39488572Y5734584D01*
X39659542Y5734584D01*
X39659542Y7125791D01*
X39488572Y7125791D01*
X39452328Y7125085D01*
X39350498Y7114495D01*
X39230835Y7080606D01*
X39129581Y7024125D01*
X39046737Y6945052D01*
X38982302Y6843385D01*
X38946058Y6752310D01*
X38920169Y6648525D01*
X38904636Y6532033D01*
X38899458Y6402832D01*
X38579989Y6402832D01*
X38583538Y6525397D01*
X38594185Y6640053D01*
X38611931Y6746803D01*
X38636775Y6845645D01*
X38687350Y6979081D01*
X38753897Y7094727D01*
X38836415Y7192580D01*
X38934904Y7272642D01*
X39049364Y7334913D01*
X39179796Y7379392D01*
X39275623Y7399160D01*
X39378548Y7411021D01*
X39488572Y7414975D01*
X39976569Y7414975D01*
X39976569Y5445400D01*
G37*
G36*
X37723599Y6976488D02*
G01*
X37835323Y6964438D01*
X37936914Y6937928D01*
X38028374Y6896959D01*
X38109701Y6841529D01*
X38180896Y6771639D01*
X38222112Y6717807D01*
X38273632Y6627526D01*
X38312787Y6525809D01*
X38339577Y6412654D01*
X38352457Y6309621D01*
X38356751Y6198645D01*
X38353514Y6106856D01*
X38340367Y5999804D01*
X38317107Y5901291D01*
X38275845Y5794347D01*
X38220020Y5699699D01*
X38149633Y5617347D01*
X38080582Y5558806D01*
X37986701Y5501653D01*
X37880799Y5458788D01*
X37783364Y5433982D01*
X37677581Y5419099D01*
X37563450Y5414137D01*
X37474179Y5415847D01*
X37372452Y5420976D01*
X37323468Y5424973D01*
X37223197Y5437730D01*
X37119905Y5455659D01*
X37159961Y5744842D01*
X37255609Y5727511D01*
X37353889Y5713579D01*
X37430439Y5706567D01*
X37530233Y5703321D01*
X37582638Y5704725D01*
X37690839Y5718155D01*
X37785592Y5745804D01*
X37875104Y5793202D01*
X37946869Y5856076D01*
X38003992Y5940003D01*
X38038258Y6039399D01*
X37059821Y6039399D01*
X37052860Y6143202D01*
X37050540Y6246517D01*
X37051189Y6290254D01*
X37051687Y6297320D01*
X37345585Y6297320D01*
X38051936Y6297320D01*
X38034085Y6402420D01*
X37996487Y6501281D01*
X37940072Y6582595D01*
X37880726Y6633600D01*
X37785368Y6675640D01*
X37681663Y6688108D01*
X37607078Y6681575D01*
X37511342Y6647274D01*
X37434978Y6583572D01*
X37384083Y6502804D01*
X37354315Y6403565D01*
X37345585Y6297320D01*
X37051687Y6297320D01*
X37058487Y6393868D01*
X37077950Y6507407D01*
X37109091Y6609165D01*
X37151910Y6699141D01*
X37216625Y6789225D01*
X37283515Y6853138D01*
X37373665Y6910991D01*
X37476858Y6950845D01*
X37575691Y6970680D01*
X37684106Y6977292D01*
X37723599Y6976488D01*
G37*
G36*
X36162961Y5414137D02*
G01*
X36261880Y5415091D01*
X36360111Y5418345D01*
X36447260Y5423907D01*
X36549481Y5435114D01*
X36649272Y5452491D01*
X36677337Y5458590D01*
X36641189Y5749727D01*
X36536981Y5734494D01*
X36436860Y5721431D01*
X36371056Y5714068D01*
X36270592Y5706354D01*
X36169109Y5703331D01*
X36162961Y5703321D01*
X36061814Y5705916D01*
X35957276Y5716459D01*
X35857749Y5742288D01*
X35851796Y5744842D01*
X35773486Y5809820D01*
X35758007Y5872337D01*
X35789270Y5962218D01*
X35880947Y6006440D01*
X35889409Y6008625D01*
X36224511Y6095575D01*
X36327031Y6125739D01*
X36425289Y6164053D01*
X36513254Y6212062D01*
X36548865Y6238213D01*
X36612864Y6315264D01*
X36645582Y6407980D01*
X36653889Y6499553D01*
X36644843Y6603333D01*
X36612351Y6705511D01*
X36556229Y6790164D01*
X36476476Y6857293D01*
X36464845Y6864451D01*
X36371456Y6908419D01*
X36274404Y6937511D01*
X36161656Y6958669D01*
X36055708Y6970239D01*
X35938860Y6976300D01*
X35863520Y6977292D01*
X35762708Y6975399D01*
X35662019Y6969720D01*
X35561452Y6960256D01*
X35461007Y6947006D01*
X35495201Y6667592D01*
X35597623Y6676688D01*
X35695442Y6683191D01*
X35706227Y6683712D01*
X35805611Y6687383D01*
X35871824Y6688108D01*
X35970806Y6686168D01*
X36078698Y6677972D01*
X36180969Y6659244D01*
X36216695Y6647564D01*
X36297499Y6592045D01*
X36320254Y6521534D01*
X36279709Y6440446D01*
X36185650Y6401484D01*
X36148307Y6391109D01*
X35878663Y6324186D01*
X35782779Y6297242D01*
X35687509Y6261697D01*
X35598577Y6215651D01*
X35535746Y6169336D01*
X35472614Y6092000D01*
X35435688Y5993653D01*
X35424859Y5886015D01*
X35433344Y5783970D01*
X35463821Y5683319D01*
X35516463Y5599704D01*
X35591270Y5533125D01*
X35602180Y5526001D01*
X35689622Y5482413D01*
X35796792Y5449532D01*
X35904354Y5429868D01*
X36005061Y5419490D01*
X36115834Y5414574D01*
X36162961Y5414137D01*
G37*
G36*
X35031140Y5445400D02*
G01*
X35031140Y5734584D01*
X34476220Y5734584D01*
X34476220Y6656845D01*
X34948586Y6656845D01*
X34948586Y6946029D01*
X34153331Y6946029D01*
X34153331Y5734584D01*
X33705878Y5734584D01*
X33705878Y5445400D01*
X35031140Y5445400D01*
G37*
G36*
X34324301Y7133607D02*
G01*
X34422488Y7156167D01*
X34479151Y7197599D01*
X34532990Y7283296D01*
X34543631Y7352449D01*
X34520899Y7451107D01*
X34479151Y7507299D01*
X34393454Y7560729D01*
X34324301Y7571290D01*
X34225643Y7548731D01*
X34169451Y7507299D01*
X34116021Y7422073D01*
X34105460Y7352449D01*
X34128019Y7254262D01*
X34169451Y7197599D01*
X34254677Y7144168D01*
X34324301Y7133607D01*
G37*
G36*
X32971065Y6972330D02*
G01*
X33067877Y6953280D01*
X33168235Y6912995D01*
X33255036Y6853262D01*
X33328279Y6774082D01*
X33371904Y6706163D01*
X33414494Y6612603D01*
X33446436Y6505888D01*
X33464921Y6406910D01*
X33476012Y6298797D01*
X33479709Y6181548D01*
X33478378Y6112695D01*
X33470245Y6004961D01*
X33454717Y5906004D01*
X33426324Y5798843D01*
X33387284Y5704321D01*
X33328279Y5610020D01*
X33277346Y5553589D01*
X33194418Y5490654D01*
X33097934Y5446466D01*
X32987892Y5421024D01*
X32882780Y5414137D01*
X32790727Y5420513D01*
X32692385Y5445622D01*
X32602878Y5494738D01*
X32566058Y5526697D01*
X32508905Y5607843D01*
X32485153Y5696189D01*
X32485153Y5542121D01*
X32485706Y5515735D01*
X32497358Y5407388D01*
X32527888Y5306943D01*
X32582850Y5220697D01*
X32608640Y5195517D01*
X32698691Y5142408D01*
X32793234Y5116558D01*
X32893038Y5106880D01*
X33376150Y5093202D01*
X33360519Y4796203D01*
X32919416Y4810369D01*
X32824299Y4816323D01*
X32714719Y4831578D01*
X32615490Y4855516D01*
X32510081Y4895701D01*
X32419577Y4948389D01*
X32343980Y5013579D01*
X32291630Y5078134D01*
X32240522Y5168855D01*
X32202191Y5274036D01*
X32180009Y5372733D01*
X32166700Y5481471D01*
X32162263Y5600250D01*
X32162263Y6246029D01*
X32485153Y6246029D01*
X32485153Y6145400D01*
X32488081Y6064999D01*
X32505974Y5948571D01*
X32548919Y5837855D01*
X32615288Y5758772D01*
X32705082Y5711322D01*
X32818300Y5695505D01*
X32839307Y5695980D01*
X32951346Y5718763D01*
X33039376Y5775721D01*
X33103398Y5866854D01*
X33138411Y5968905D01*
X33154416Y6067632D01*
X33159751Y6181548D01*
X33158417Y6243836D01*
X33147747Y6356356D01*
X33126406Y6452801D01*
X33084725Y6550753D01*
X33012700Y6635143D01*
X32916667Y6683366D01*
X32818300Y6695924D01*
X32722325Y6684940D01*
X32628627Y6642762D01*
X32558354Y6568951D01*
X32511505Y6463507D01*
X32490358Y6351473D01*
X32485153Y6246029D01*
X32162263Y6246029D01*
X32162263Y6946029D01*
X32455843Y6946029D01*
X32476427Y6714461D01*
X32481299Y6737184D01*
X32527109Y6826808D01*
X32597016Y6895226D01*
X32680591Y6941949D01*
X32779520Y6969277D01*
X32882780Y6977292D01*
X32971065Y6972330D01*
G37*
G36*
X30845795Y5445400D02*
G01*
X30845795Y6424326D01*
X30858136Y6524811D01*
X30906308Y6615906D01*
X30910275Y6620209D01*
X30993155Y6673189D01*
X31091014Y6688108D01*
X31202406Y6674232D01*
X31303235Y6622968D01*
X31372695Y6533930D01*
X31407265Y6427547D01*
X31418468Y6317695D01*
X31418788Y6293412D01*
X31418788Y5445400D01*
X31741189Y5445400D01*
X31741189Y6946029D01*
X31447609Y6946029D01*
X31424650Y6682246D01*
X31421231Y6682246D01*
X31399609Y6782516D01*
X31343346Y6873277D01*
X31253657Y6935801D01*
X31150176Y6966919D01*
X31045183Y6977004D01*
X31022138Y6977292D01*
X30923369Y6970279D01*
X30822970Y6945092D01*
X30725932Y6894860D01*
X30653820Y6830746D01*
X30596545Y6750115D01*
X30555634Y6654769D01*
X30533261Y6559270D01*
X30523417Y6452503D01*
X30522905Y6419929D01*
X30522905Y5445400D01*
X30845795Y5445400D01*
G37*
G36*
X29526809Y6976488D02*
G01*
X29638533Y6964438D01*
X29740124Y6937928D01*
X29831584Y6896959D01*
X29912911Y6841529D01*
X29984106Y6771639D01*
X30025322Y6717807D01*
X30076842Y6627526D01*
X30115997Y6525809D01*
X30142787Y6412654D01*
X30155667Y6309621D01*
X30159961Y6198645D01*
X30156724Y6106856D01*
X30143577Y5999804D01*
X30120317Y5901291D01*
X30079055Y5794347D01*
X30023230Y5699699D01*
X29952843Y5617347D01*
X29883792Y5558806D01*
X29789911Y5501653D01*
X29684009Y5458788D01*
X29586574Y5433982D01*
X29480791Y5419099D01*
X29366660Y5414137D01*
X29277389Y5415847D01*
X29175662Y5420976D01*
X29126678Y5424973D01*
X29026407Y5437730D01*
X28923115Y5455659D01*
X28963171Y5744842D01*
X29058819Y5727511D01*
X29157099Y5713579D01*
X29233649Y5706567D01*
X29333443Y5703321D01*
X29385848Y5704725D01*
X29494049Y5718155D01*
X29588803Y5745804D01*
X29678314Y5793202D01*
X29750079Y5856076D01*
X29807202Y5940003D01*
X29841468Y6039399D01*
X28863031Y6039399D01*
X28856070Y6143202D01*
X28853750Y6246517D01*
X28854399Y6290254D01*
X28854897Y6297320D01*
X29148795Y6297320D01*
X29855146Y6297320D01*
X29837295Y6402420D01*
X29799697Y6501281D01*
X29743282Y6582595D01*
X29683936Y6633600D01*
X29588578Y6675640D01*
X29484873Y6688108D01*
X29410288Y6681575D01*
X29314552Y6647274D01*
X29238188Y6583572D01*
X29187294Y6502804D01*
X29157525Y6403565D01*
X29148795Y6297320D01*
X28854897Y6297320D01*
X28861697Y6393868D01*
X28881160Y6507407D01*
X28912301Y6609165D01*
X28955120Y6699141D01*
X29019835Y6789225D01*
X29086725Y6853138D01*
X29176875Y6910991D01*
X29280068Y6950845D01*
X29378901Y6970680D01*
X29487316Y6977292D01*
X29526809Y6976488D01*
G37*
G36*
X27567079Y6695294D02*
G01*
X27574696Y6732824D01*
X27617114Y6822981D01*
X27689200Y6896691D01*
X27770021Y6942580D01*
X27865387Y6969421D01*
X27964706Y6977292D01*
X28052991Y6972330D01*
X28149803Y6953280D01*
X28250161Y6912995D01*
X28336962Y6853262D01*
X28410205Y6774082D01*
X28453830Y6706163D01*
X28496420Y6612603D01*
X28528362Y6505888D01*
X28546847Y6406910D01*
X28557938Y6298797D01*
X28561635Y6181548D01*
X28560304Y6112695D01*
X28552171Y6004961D01*
X28536643Y5906004D01*
X28508250Y5798843D01*
X28469210Y5704321D01*
X28410205Y5610020D01*
X28359272Y5553589D01*
X28276345Y5490654D01*
X28179860Y5446466D01*
X28069818Y5421024D01*
X27964706Y5414137D01*
X27872653Y5420668D01*
X27774311Y5446385D01*
X27684804Y5496691D01*
X27647984Y5529315D01*
X27590831Y5611429D01*
X27564636Y5709183D01*
X27564148Y5709183D01*
X27535327Y5428792D01*
X27244190Y5446377D01*
X27244190Y6246029D01*
X27567079Y6246029D01*
X27567079Y6145400D01*
X27570007Y6064999D01*
X27587900Y5948571D01*
X27630845Y5837855D01*
X27697214Y5758772D01*
X27787008Y5711322D01*
X27900226Y5695505D01*
X27921233Y5695980D01*
X28033272Y5718763D01*
X28121302Y5775721D01*
X28185324Y5866854D01*
X28220337Y5968905D01*
X28236342Y6067632D01*
X28241677Y6181548D01*
X28240344Y6243836D01*
X28229673Y6356356D01*
X28208332Y6452801D01*
X28166651Y6550753D01*
X28094626Y6635143D01*
X27998593Y6683366D01*
X27900226Y6695924D01*
X27804251Y6684940D01*
X27710553Y6642762D01*
X27640280Y6568951D01*
X27593431Y6463507D01*
X27572284Y6351473D01*
X27567079Y6246029D01*
X27244190Y6246029D01*
X27244190Y7540027D01*
X27567079Y7540027D01*
X27567079Y6695294D01*
G37*
G36*
X25191084Y5443447D02*
G01*
X25184017Y5442568D01*
X25081908Y5430990D01*
X24981035Y5421953D01*
X24883705Y5416091D01*
X24785153Y5414137D01*
X24705533Y5416164D01*
X24604702Y5425170D01*
X24487230Y5446561D01*
X24379274Y5479209D01*
X24280835Y5523116D01*
X24191913Y5578280D01*
X24112508Y5644703D01*
X24069819Y5689665D01*
X24008002Y5771892D01*
X23957849Y5863230D01*
X23919359Y5963680D01*
X23892533Y6073241D01*
X23877371Y6191913D01*
X23873638Y6293412D01*
X24193596Y6293412D01*
X24194820Y6240715D01*
X24204609Y6142278D01*
X24228401Y6039155D01*
X24271907Y5936756D01*
X24332815Y5850844D01*
X24350614Y5832033D01*
X24430970Y5768927D01*
X24525980Y5725238D01*
X24621136Y5702938D01*
X24727511Y5695505D01*
X24805180Y5695994D01*
X24868195Y5698925D01*
X24868195Y6287550D01*
X24862646Y6383263D01*
X24840104Y6484957D01*
X24790164Y6580670D01*
X24715254Y6647669D01*
X24615374Y6685954D01*
X24513066Y6695924D01*
X24449326Y6690968D01*
X24355720Y6659415D01*
X24276639Y6592365D01*
X24271530Y6585803D01*
X24222872Y6493067D01*
X24200165Y6396057D01*
X24193596Y6293412D01*
X23873638Y6293412D01*
X23879408Y6410425D01*
X23896719Y6517100D01*
X23925570Y6613437D01*
X23973816Y6712763D01*
X24037769Y6798017D01*
X24103858Y6858943D01*
X24192899Y6914090D01*
X24294797Y6952081D01*
X24392370Y6970989D01*
X24499388Y6977292D01*
X24521017Y6977007D01*
X24619470Y6967039D01*
X24716299Y6936282D01*
X24799877Y6874482D01*
X24851806Y6784773D01*
X24868195Y6700702D01*
X24868195Y7540027D01*
X25191084Y7540027D01*
X25191084Y5443447D01*
G37*
G36*
X23671405Y4795226D02*
G01*
X23687037Y5082944D01*
X23444259Y5111765D01*
X23343624Y5130035D01*
X23246589Y5164128D01*
X23163869Y5212881D01*
X23087482Y5283819D01*
X23028081Y5365982D01*
X22987037Y5445400D01*
X23115020Y5445400D01*
X23707065Y6946029D01*
X23371475Y6946029D01*
X22895690Y5709671D01*
X22897644Y5709671D01*
X22542026Y6946029D01*
X22206437Y6946029D01*
X22633373Y5594389D01*
X22665252Y5499042D01*
X22704312Y5396834D01*
X22745381Y5304350D01*
X22794779Y5210561D01*
X22820463Y5168429D01*
X22881806Y5083344D01*
X22949332Y5011087D01*
X23031611Y4945848D01*
X23066660Y4924186D01*
X23161294Y4878973D01*
X23255846Y4848151D01*
X23359286Y4826680D01*
X23408111Y4820139D01*
X23671405Y4795226D01*
G37*
G36*
X19692689Y5414137D02*
G01*
X19791622Y5418657D01*
X19900707Y5436014D01*
X19999282Y5466388D01*
X20087346Y5509779D01*
X20176805Y5576855D01*
X20199737Y5599273D01*
X20269401Y5688104D01*
X20315494Y5776375D01*
X20349016Y5875843D01*
X20369968Y5986508D01*
X20377825Y6087282D01*
X20378523Y6129769D01*
X20061496Y6129769D01*
X20055390Y6028469D01*
X20033923Y5930418D01*
X19991944Y5841231D01*
X19963799Y5804437D01*
X19886657Y5742418D01*
X19790236Y5706143D01*
X19685850Y5695505D01*
X19584728Y5706000D01*
X19491676Y5741787D01*
X19417672Y5802972D01*
X19363996Y5888158D01*
X19334534Y5984634D01*
X19323762Y6086962D01*
X19323394Y6111695D01*
X19323394Y7125791D01*
X19823603Y7125791D01*
X19823603Y7414975D01*
X19006367Y7414975D01*
X19006367Y6108276D01*
X19010815Y6008966D01*
X19027897Y5899240D01*
X19057790Y5799818D01*
X19100494Y5710700D01*
X19166508Y5619752D01*
X19188572Y5596343D01*
X19274805Y5525347D01*
X19374502Y5471788D01*
X19470672Y5439760D01*
X19576735Y5420543D01*
X19692689Y5414137D01*
G37*
G36*
X18051303Y6976488D02*
G01*
X18163027Y6964438D01*
X18264618Y6937928D01*
X18356078Y6896959D01*
X18437405Y6841529D01*
X18508600Y6771639D01*
X18549816Y6717807D01*
X18601336Y6627526D01*
X18640491Y6525809D01*
X18667281Y6412654D01*
X18680161Y6309621D01*
X18684455Y6198645D01*
X18681218Y6106856D01*
X18668071Y5999804D01*
X18644811Y5901291D01*
X18603549Y5794347D01*
X18547724Y5699699D01*
X18477337Y5617347D01*
X18408286Y5558806D01*
X18314405Y5501653D01*
X18208503Y5458788D01*
X18111068Y5433982D01*
X18005285Y5419099D01*
X17891154Y5414137D01*
X17801883Y5415847D01*
X17700156Y5420976D01*
X17651172Y5424973D01*
X17550901Y5437730D01*
X17447609Y5455659D01*
X17487665Y5744842D01*
X17583313Y5727511D01*
X17681594Y5713579D01*
X17758143Y5706567D01*
X17857937Y5703321D01*
X17910342Y5704725D01*
X18018543Y5718155D01*
X18113297Y5745804D01*
X18202808Y5793202D01*
X18274573Y5856076D01*
X18331696Y5940003D01*
X18365962Y6039399D01*
X17387525Y6039399D01*
X17380564Y6143202D01*
X17378244Y6246517D01*
X17378893Y6290254D01*
X17379391Y6297320D01*
X17673289Y6297320D01*
X18379640Y6297320D01*
X18361789Y6402420D01*
X18324191Y6501281D01*
X18267776Y6582595D01*
X18208430Y6633600D01*
X18113072Y6675640D01*
X18009367Y6688108D01*
X17934782Y6681575D01*
X17839046Y6647274D01*
X17762682Y6583572D01*
X17711788Y6502804D01*
X17682019Y6403565D01*
X17673289Y6297320D01*
X17379391Y6297320D01*
X17386191Y6393868D01*
X17405654Y6507407D01*
X17436795Y6609165D01*
X17479614Y6699141D01*
X17544329Y6789225D01*
X17611219Y6853138D01*
X17701369Y6910991D01*
X17804562Y6950845D01*
X17903395Y6970680D01*
X18011810Y6977292D01*
X18051303Y6976488D01*
G37*
G36*
X16461356Y6094110D02*
G01*
X16461356Y5734584D01*
X16104273Y5734584D01*
X16104273Y5445400D01*
X17108111Y5445400D01*
X17108111Y5734584D01*
X16783757Y5734584D01*
X16783757Y6656845D01*
X17052912Y6656845D01*
X17052912Y6946029D01*
X16518021Y6946029D01*
X16468684Y6572337D01*
X16464287Y6572337D01*
X16447558Y6688999D01*
X16412939Y6785887D01*
X16347783Y6876053D01*
X16256868Y6937745D01*
X16161427Y6967405D01*
X16048097Y6977292D01*
X15939562Y6968804D01*
X15836509Y6938966D01*
X15745662Y6880614D01*
X15709577Y6841493D01*
X15658572Y6751586D01*
X15627248Y6648508D01*
X15610658Y6540433D01*
X15604476Y6434513D01*
X15604064Y6396482D01*
X15924022Y6396482D01*
X15929217Y6500885D01*
X15950855Y6597696D01*
X15967986Y6630955D01*
X16048188Y6688247D01*
X16108670Y6695924D01*
X16210298Y6680802D01*
X16302253Y6629236D01*
X16367817Y6550601D01*
X16373429Y6541074D01*
X16415933Y6443310D01*
X16442036Y6338049D01*
X16455861Y6231771D01*
X16461013Y6130145D01*
X16461356Y6094110D01*
G37*
G36*
X14772587Y6976488D02*
G01*
X14884311Y6964438D01*
X14985902Y6937928D01*
X15077362Y6896959D01*
X15158689Y6841529D01*
X15229884Y6771639D01*
X15271100Y6717807D01*
X15322620Y6627526D01*
X15361775Y6525809D01*
X15388565Y6412654D01*
X15401445Y6309621D01*
X15405739Y6198645D01*
X15402502Y6106856D01*
X15389355Y5999804D01*
X15366095Y5901291D01*
X15324833Y5794347D01*
X15269009Y5699699D01*
X15198621Y5617347D01*
X15129570Y5558806D01*
X15035689Y5501653D01*
X14929787Y5458788D01*
X14832352Y5433982D01*
X14726569Y5419099D01*
X14612438Y5414137D01*
X14523167Y5415847D01*
X14421440Y5420976D01*
X14372456Y5424973D01*
X14272185Y5437730D01*
X14168893Y5455659D01*
X14208949Y5744842D01*
X14304597Y5727511D01*
X14402878Y5713579D01*
X14479427Y5706567D01*
X14579221Y5703321D01*
X14631626Y5704725D01*
X14739827Y5718155D01*
X14834581Y5745804D01*
X14924092Y5793202D01*
X14995857Y5856076D01*
X15052980Y5940003D01*
X15087246Y6039399D01*
X14108809Y6039399D01*
X14101848Y6143202D01*
X14099528Y6246517D01*
X14100177Y6290254D01*
X14100675Y6297320D01*
X14394573Y6297320D01*
X15100924Y6297320D01*
X15083073Y6402420D01*
X15045475Y6501281D01*
X14989060Y6582595D01*
X14929714Y6633600D01*
X14834356Y6675640D01*
X14730651Y6688108D01*
X14656066Y6681575D01*
X14560330Y6647274D01*
X14483966Y6583572D01*
X14433072Y6502804D01*
X14403303Y6403565D01*
X14394573Y6297320D01*
X14100675Y6297320D01*
X14107475Y6393868D01*
X14126938Y6507407D01*
X14158079Y6609165D01*
X14200898Y6699141D01*
X14265613Y6789225D01*
X14332503Y6853138D01*
X14422653Y6910991D01*
X14525846Y6950845D01*
X14624679Y6970680D01*
X14733094Y6977292D01*
X14772587Y6976488D01*
G37*
G36*
X12735676Y5445400D02*
G01*
X12735676Y6589434D01*
X12757035Y6688309D01*
X12832885Y6727187D01*
X12924046Y6686508D01*
X12957906Y6585442D01*
X12959891Y6542051D01*
X12959891Y5445400D01*
X13238816Y5445400D01*
X13238816Y6617278D01*
X13273947Y6709048D01*
X13338467Y6727187D01*
X13427876Y6686508D01*
X13461085Y6585442D01*
X13463031Y6542051D01*
X13463031Y5445400D01*
X13785432Y5445400D01*
X13785432Y6946029D01*
X13497225Y6946029D01*
X13478174Y6764800D01*
X13485013Y6764800D01*
X13457355Y6867518D01*
X13383663Y6942222D01*
X13278674Y6973971D01*
X13220254Y6977292D01*
X13120545Y6959517D01*
X13057099Y6921116D01*
X12995729Y6840349D01*
X12972591Y6768220D01*
X12976499Y6768220D01*
X12942709Y6864030D01*
X12904692Y6910858D01*
X12819289Y6962694D01*
X12717602Y6977292D01*
X12618615Y6967017D01*
X12527825Y6928382D01*
X12486060Y6890341D01*
X12438935Y6802845D01*
X12417824Y6702488D01*
X12413275Y6614347D01*
X12413275Y5445400D01*
X12735676Y5445400D01*
G37*
G36*
X12195899Y4795226D02*
G01*
X12211531Y5082944D01*
X11968753Y5111765D01*
X11868118Y5130035D01*
X11771083Y5164128D01*
X11688363Y5212881D01*
X11611976Y5283819D01*
X11552575Y5365982D01*
X11511531Y5445400D01*
X11639514Y5445400D01*
X12231559Y6946029D01*
X11895969Y6946029D01*
X11420184Y5709671D01*
X11422138Y5709671D01*
X11066520Y6946029D01*
X10730931Y6946029D01*
X11157867Y5594389D01*
X11189747Y5499042D01*
X11228806Y5396834D01*
X11269875Y5304350D01*
X11319273Y5210561D01*
X11344957Y5168429D01*
X11406300Y5083344D01*
X11473826Y5011087D01*
X11556105Y4945848D01*
X11591154Y4924186D01*
X11685788Y4878973D01*
X11780341Y4848151D01*
X11883780Y4826680D01*
X11932605Y4820139D01*
X12195899Y4795226D01*
G37*
G36*
X7977825Y5414137D02*
G01*
X8089860Y5418118D01*
X8194667Y5430059D01*
X8292246Y5449961D01*
X8425062Y5494740D01*
X8541614Y5557432D01*
X8641903Y5638035D01*
X8725930Y5736549D01*
X8793693Y5852976D01*
X8845193Y5987314D01*
X8870491Y6086824D01*
X8888561Y6194295D01*
X8899403Y6309726D01*
X8903017Y6433119D01*
X8899369Y6550042D01*
X8888424Y6660234D01*
X8870182Y6763694D01*
X8844643Y6860421D01*
X8802459Y6971864D01*
X8748873Y7072789D01*
X8683886Y7163194D01*
X8669521Y7180013D01*
X8591750Y7256709D01*
X8504676Y7320405D01*
X8408300Y7371102D01*
X8302622Y7408800D01*
X8187642Y7433499D01*
X8088961Y7443898D01*
X8011042Y7446238D01*
X7911696Y7442177D01*
X7807669Y7427902D01*
X7711833Y7403348D01*
X7652494Y7381269D01*
X7563813Y7334176D01*
X7483564Y7267387D01*
X7421440Y7184898D01*
X7646632Y6960683D01*
X7712055Y7042495D01*
X7791696Y7105872D01*
X7808809Y7115533D01*
X7904552Y7152536D01*
X8008111Y7164870D01*
X8116066Y7155964D01*
X8214250Y7129247D01*
X8302664Y7084718D01*
X8381307Y7022377D01*
X8421859Y6978757D01*
X8482576Y6889689D01*
X8528381Y6785334D01*
X8555773Y6683719D01*
X8572207Y6570873D01*
X8577534Y6468256D01*
X8577686Y6446796D01*
X8572006Y6312532D01*
X8554965Y6191475D01*
X8526565Y6083623D01*
X8486804Y5988978D01*
X8416119Y5883328D01*
X8325238Y5801155D01*
X8214161Y5742461D01*
X8117599Y5713847D01*
X8009678Y5698440D01*
X7931419Y5695505D01*
X7832714Y5701031D01*
X7732483Y5717609D01*
X7630726Y5745239D01*
X7527441Y5783921D01*
X7456611Y5512323D01*
X7552478Y5478955D01*
X7649204Y5452491D01*
X7746789Y5432931D01*
X7845232Y5420274D01*
X7944534Y5414521D01*
X7977825Y5414137D01*
G37*
G36*
X6255425Y5445400D02*
G01*
X6255425Y6419929D01*
X6266066Y6518595D01*
X6308381Y6611255D01*
X6319905Y6625093D01*
X6402785Y6680361D01*
X6500645Y6695924D01*
X6612036Y6681618D01*
X6700382Y6638702D01*
X6774323Y6552473D01*
X6812734Y6447567D01*
X6827138Y6338289D01*
X6828418Y6289015D01*
X6828418Y5445400D01*
X7150819Y5445400D01*
X7150819Y7540027D01*
X6828418Y7540027D01*
X6828418Y6685666D01*
X6830861Y6685666D01*
X6809240Y6784773D01*
X6752976Y6874482D01*
X6663287Y6936282D01*
X6559807Y6967039D01*
X6454813Y6977007D01*
X6431768Y6977292D01*
X6332999Y6970279D01*
X6232600Y6945092D01*
X6135563Y6894860D01*
X6063450Y6830746D01*
X6006175Y6750115D01*
X5965264Y6654769D01*
X5942891Y6559270D01*
X5933047Y6452503D01*
X5932536Y6419929D01*
X5932536Y5445400D01*
X6255425Y5445400D01*
G37*
G36*
X4921541Y6977092D02*
G01*
X5031221Y6967498D01*
X5131216Y6943512D01*
X5221525Y6905136D01*
X5314643Y6842174D01*
X5383966Y6772616D01*
X5433361Y6704564D01*
X5481584Y6612103D01*
X5517751Y6507861D01*
X5538681Y6411993D01*
X5551239Y6307945D01*
X5555425Y6195715D01*
X5552746Y6105604D01*
X5541862Y6000222D01*
X5522606Y5902902D01*
X5488449Y5796759D01*
X5442235Y5702226D01*
X5383966Y5619301D01*
X5373085Y5606679D01*
X5302148Y5539360D01*
X5207146Y5479053D01*
X5115223Y5442989D01*
X5013614Y5421350D01*
X4902319Y5414137D01*
X4883038Y5414338D01*
X4773083Y5423955D01*
X4672951Y5447997D01*
X4582643Y5486466D01*
X4489698Y5549578D01*
X4420672Y5619301D01*
X4371278Y5687599D01*
X4323055Y5780197D01*
X4286888Y5884405D01*
X4265958Y5980113D01*
X4253400Y6083883D01*
X4249214Y6195715D01*
X4582850Y6195715D01*
X4584889Y6124068D01*
X4596636Y6020647D01*
X4622331Y5920792D01*
X4666381Y5830327D01*
X4718815Y5768933D01*
X4805678Y5718329D01*
X4902319Y5703321D01*
X4974432Y5711259D01*
X5066344Y5752933D01*
X5138746Y5830327D01*
X5175291Y5900974D01*
X5203923Y5996948D01*
X5218280Y6096919D01*
X5222277Y6195715D01*
X5220238Y6267759D01*
X5208492Y6371570D01*
X5182796Y6471497D01*
X5138746Y6561590D01*
X5086273Y6622749D01*
X4999239Y6673158D01*
X4902319Y6688108D01*
X4830420Y6680201D01*
X4738715Y6638687D01*
X4666381Y6561590D01*
X4629836Y6491279D01*
X4601204Y6395319D01*
X4586847Y6295034D01*
X4582850Y6195715D01*
X4249214Y6195715D01*
X4251893Y6286153D01*
X4262777Y6391838D01*
X4282032Y6489342D01*
X4316190Y6595548D01*
X4362403Y6689972D01*
X4420672Y6772616D01*
X4502157Y6852368D01*
X4597012Y6912531D01*
X4688958Y6948509D01*
X4790727Y6970096D01*
X4902319Y6977292D01*
X4921541Y6977092D01*
G37*
G36*
X3282183Y6977092D02*
G01*
X3391863Y6967498D01*
X3491858Y6943512D01*
X3582167Y6905136D01*
X3675285Y6842174D01*
X3744608Y6772616D01*
X3794003Y6704564D01*
X3842226Y6612103D01*
X3878393Y6507861D01*
X3899323Y6411993D01*
X3911881Y6307945D01*
X3916067Y6195715D01*
X3913388Y6105604D01*
X3902504Y6000222D01*
X3883248Y5902902D01*
X3849091Y5796759D01*
X3802877Y5702226D01*
X3744608Y5619301D01*
X3733727Y5606679D01*
X3662790Y5539360D01*
X3567788Y5479053D01*
X3475865Y5442989D01*
X3374256Y5421350D01*
X3262961Y5414137D01*
X3243680Y5414338D01*
X3133725Y5423955D01*
X3033593Y5447997D01*
X2943285Y5486466D01*
X2850340Y5549578D01*
X2781314Y5619301D01*
X2731920Y5687599D01*
X2683697Y5780197D01*
X2647530Y5884405D01*
X2626600Y5980113D01*
X2614042Y6083883D01*
X2609856Y6195715D01*
X2943492Y6195715D01*
X2945531Y6124068D01*
X2957278Y6020647D01*
X2982973Y5920792D01*
X3027023Y5830327D01*
X3079457Y5768933D01*
X3166320Y5718329D01*
X3262961Y5703321D01*
X3335074Y5711259D01*
X3426986Y5752933D01*
X3499388Y5830327D01*
X3535933Y5900974D01*
X3564565Y5996948D01*
X3578922Y6096919D01*
X3582919Y6195715D01*
X3580880Y6267759D01*
X3569134Y6371570D01*
X3543438Y6471497D01*
X3499388Y6561590D01*
X3446915Y6622749D01*
X3359881Y6673158D01*
X3262961Y6688108D01*
X3191062Y6680201D01*
X3099357Y6638687D01*
X3027023Y6561590D01*
X2990478Y6491279D01*
X2961846Y6395319D01*
X2947489Y6295034D01*
X2943492Y6195715D01*
X2609856Y6195715D01*
X2612535Y6286153D01*
X2623419Y6391838D01*
X2642674Y6489342D01*
X2676832Y6595548D01*
X2723045Y6689972D01*
X2781314Y6772616D01*
X2862799Y6852368D01*
X2957654Y6912531D01*
X3049600Y6948509D01*
X3151369Y6970096D01*
X3262961Y6977292D01*
X3282183Y6977092D01*
G37*
D11*
X27940000Y2540000D03*
X30480000Y2540000D03*
X33020000Y2540000D03*
X35560000Y2540000D03*
X38100000Y2540000D03*
X40640000Y2540000D03*
X43180000Y2540000D03*
X45720000Y2540000D03*
X50800000Y2540000D03*
X53340000Y2540000D03*
X55880000Y2540000D03*
X58420000Y2540000D03*
X60960000Y2540000D03*
X63500000Y2540000D03*
X18796000Y50800000D03*
X21336000Y50800000D03*
X23876000Y50800000D03*
X26416000Y50800000D03*
X28956000Y50800000D03*
X31496000Y50800000D03*
X34036000Y50800000D03*
X36576000Y50800000D03*
X39116000Y50800000D03*
X41656000Y50800000D03*
X45720000Y50800000D03*
X48260000Y50800000D03*
X50800000Y50800000D03*
X53340000Y50800000D03*
X55880000Y50800000D03*
X58420000Y50800000D03*
X60960000Y50800000D03*
X63500000Y50800000D03*
D12*
X13950000Y38100000D03*
D13*
X7650000Y38100000D03*
D14*
X11050000Y33300000D03*
D11*
X15240000Y50800000D03*
X38567200Y14249400D03*
X41107200Y14249400D03*
X43647200Y14249400D03*
X46187200Y14249400D03*
X33520000Y20660000D03*
X36060000Y20660000D03*
X38600000Y20660000D03*
X41140000Y20660000D03*
X43680000Y20660000D03*
X46220000Y20660000D03*
X48760000Y20660000D03*
X51300000Y20660000D03*
X51300000Y33360000D03*
X48760000Y33360000D03*
X46220000Y33360000D03*
X43680000Y33360000D03*
X41140000Y33360000D03*
X38600000Y33360000D03*
X36060000Y33360000D03*
X33520000Y33360000D03*
X13970000Y2540000D03*
X66040000Y35560000D03*
X66040000Y7620000D03*
M02*
